<svg id="Layer_1" data-name="Layer 1" xmlns="http://www.w3.org/2000/svg" viewBox="0 0 110 113"><title>Artboard 1</title><path d="M69.8,111c.34-.07.67-.15,1-.24Z" fill="#fff"/><path d="M76.39,44.4c.13,1.14-.41,2.8-1.59,2.67a2.19,2.19,0,0,1-.56-.14c.12-.84-.39-1.79,0-2.52.23-.41.8-1.16,1.25-1.23C76.13,43.08,76.31,43.78,76.39,44.4Z" fill="#f9c24e"/><path d="M75.09,48a2.16,2.16,0,0,1-2.19,1.47,1.6,1.6,0,0,1-.79-.25,1,1,0,0,1-.3-.28,1.37,1.37,0,0,1-.15-.38.9.9,0,0,1,.12-.51.88.88,0,0,1,.38-.36,2.32,2.32,0,0,1,1-.26,3.66,3.66,0,0,1,1.14.12A2.39,2.39,0,0,1,75.09,48Z" fill="#f9c24e"/><path d="M72.31,45c1.32,1.51,2.77,2.86,4.09,4.31" fill="none" stroke="#f9c24e" stroke-miterlimit="10"/><path d="M80.6,49a3,3,0,0,1-.48,1.82,1.32,1.32,0,0,1-1.39.67,3.49,3.49,0,0,1-.53-.22,4.11,4.11,0,0,0,0-1.31,2.15,2.15,0,0,1,.17-1.25c.23-.4.79-1.19,1.28-1.2C80.33,47.54,80.57,48.36,80.6,49Z" fill="#f9c24e"/><path d="M78.87,52.47a2.88,2.88,0,0,1-.94.93,2.28,2.28,0,0,1-1.45.21,1.3,1.3,0,0,1-.7-.3.71.71,0,0,1-.3-.61,1,1,0,0,1,.19-.48,1.07,1.07,0,0,1,.41-.32,2.29,2.29,0,0,1,1-.19,2.78,2.78,0,0,1,1.1.23A2.54,2.54,0,0,1,78.87,52.47Z" fill="#f9c24e"/><path d="M76.4,49.29c.67.71,1.28,1.48,1.88,2.25A27,27,0,0,1,79.92,54" fill="none" stroke="#f9c24e" stroke-miterlimit="10"/><path d="M84.08,54.52c-.17,1.23-1.23,2.57-2.31,2.1a2.13,2.13,0,0,1-.47-.31,2.77,2.77,0,0,0,.19-.62c0-.22.06-.44.08-.66a2.17,2.17,0,0,1,.41-1.2c.31-.35,1-1,1.49-.93S84.17,53.86,84.08,54.52Z" fill="#f9c24e"/><path d="M81.75,57.58a2.18,2.18,0,0,1-2.55.7c-.5-.16-1-.62-.84-1.12a1.05,1.05,0,0,1,.73-.69,2.37,2.37,0,0,1,1.06,0,2.81,2.81,0,0,1,1,.44A2.41,2.41,0,0,1,81.75,57.58Z" fill="#f9c24e"/><path d="M79.91,54a38,38,0,0,1,2.63,5.26" fill="none" stroke="#f9c24e" stroke-miterlimit="10"/><path d="M86.62,60.47A2.92,2.92,0,0,1,85.5,62a1.32,1.32,0,0,1-1.55.08,2.59,2.59,0,0,1-.41-.4A3.13,3.13,0,0,0,84,60.47a2.1,2.1,0,0,1,.56-1.12c.35-.3,1.14-.84,1.61-.71a.73.73,0,0,1,.35.25.68.68,0,0,1,.14.41A2.72,2.72,0,0,1,86.62,60.47Z" fill="#f9c24e"/><path d="M83.69,63.06a2.29,2.29,0,0,1-2.64.13c-.44-.25-.78-.71-.56-1.12a1.09,1.09,0,0,1,.37-.34,1,1,0,0,1,.47-.16,1.9,1.9,0,0,1,1,.15,2.68,2.68,0,0,1,.93.59A2.16,2.16,0,0,1,83.69,63.06Z" fill="#f9c24e"/><path d="M82.55,59.22l.56,1.36A13.73,13.73,0,0,1,83.55,62a21.38,21.38,0,0,1,.55,2.87" fill="none" stroke="#f9c24e" stroke-miterlimit="10"/><path d="M87.61,67.18a3.07,3.07,0,0,1-1.5,1.18A1.31,1.31,0,0,1,84.6,68a2.39,2.39,0,0,1-.28-.49c.69-.51.92-1.59,1.69-2,.43-.19,1.34-.5,1.75-.22S88,66.62,87.61,67.18Z" fill="#f9c24e"/><path d="M84.1,68.86a3,3,0,0,1-1.32.1,2.35,2.35,0,0,1-1.25-.71c-.35-.35-.56-.88-.23-1.25a1,1,0,0,1,1-.25,2.3,2.3,0,0,1,.93.45A2.77,2.77,0,0,1,84,68,2.09,2.09,0,0,1,84.1,68.86Z" fill="#f9c24e"/><path d="M84.1,64.83a18.44,18.44,0,0,1-.1,5.79" fill="none" stroke="#f9c24e" stroke-miterlimit="10"/><path d="M86.39,74.17a3.18,3.18,0,0,1-.92.46,2.59,2.59,0,0,1-1,.1,1.29,1.29,0,0,1-1.22-1,2.6,2.6,0,0,1-.06-.56,3.26,3.26,0,0,0,1.15-.64A2.44,2.44,0,0,1,85.48,72c.47,0,1.44,0,1.72.38S87,73.71,86.39,74.17Z" fill="#f9c24e"/><path d="M82.49,74.3a2.57,2.57,0,0,1-2.07-1.63c-.2-.43-.2-.91.21-1.08a1.51,1.51,0,0,1,1,.17,2.28,2.28,0,0,1,.71.74,2.38,2.38,0,0,1,.37,1A1.88,1.88,0,0,1,82.49,74.3Z" fill="#f9c24e"/><path d="M84,70.62a12.6,12.6,0,0,1-.88,2.75,9.94,9.94,0,0,1-1.56,2.39" fill="none" stroke="#f9c24e" stroke-miterlimit="10"/><path d="M82.2,79.84a3.49,3.49,0,0,1-1.83-.26,1.32,1.32,0,0,1-.87-1.29,2.19,2.19,0,0,1,.14-.56c.84.11,1.78-.42,2.51,0a7.94,7.94,0,0,1,.78.5,1,1,0,0,1,.31.32,1.15,1.15,0,0,1,.17.41C83.52,79.55,82.83,79.76,82.2,79.84Z" fill="#f9c24e"/><path d="M78.58,78.58a2.21,2.21,0,0,1-1.49-2.18,1.17,1.17,0,0,1,.85-1.22.86.86,0,0,1,.52.11.94.94,0,0,1,.36.38,2.5,2.5,0,0,1,.28,1A3.58,3.58,0,0,1,79,77.8,2.56,2.56,0,0,1,78.58,78.58Z" fill="#f9c24e"/><path d="M81.51,75.76c-.14.18-.33.34-.49.52l-.53.51-1.06,1.06-1,1-.54.49-.56.49" fill="none" stroke="#f9c24e" stroke-miterlimit="10"/><path d="M96.4,75.84a2.85,2.85,0,0,1-.87.59,2.3,2.3,0,0,1-1,.21,1.33,1.33,0,0,1-.8-.2,1.31,1.31,0,0,1-.52-.64,2.14,2.14,0,0,1-.11-.56,3,3,0,0,0,1.06-.79,2.79,2.79,0,0,1,1.06-.77c.45-.12,1.41-.33,1.75.09a1.2,1.2,0,0,1,.18.52,1.08,1.08,0,0,1-.11.53A2.94,2.94,0,0,1,96.4,75.84Z" fill="#f9c24e"/><path d="M92.51,76.47a2.49,2.49,0,0,1-2.22-1.42c-.22-.41-.31-.86.08-1a1.33,1.33,0,0,1,1,0,2.11,2.11,0,0,1,.79.63,2.29,2.29,0,0,1,.46,1A1.92,1.92,0,0,1,92.51,76.47Z" fill="#f9c24e"/><path d="M93.47,72.62A9.64,9.64,0,0,1,91.69,78" fill="none" stroke="#f9c24e" stroke-miterlimit="10"/><path d="M92.58,82.21A2.92,2.92,0,0,1,90.65,82a1.29,1.29,0,0,1-.79-1.33A2.79,2.79,0,0,1,90,80.1c.84.14,1.78-.49,2.59-.24.45.15,1.35.51,1.43,1C94.16,81.58,93.29,82,92.58,82.21Z" fill="#f9c24e"/><path d="M88.92,80.88a2.82,2.82,0,0,1-1-.88,2.47,2.47,0,0,1-.36-1.4,1.36,1.36,0,0,1,.18-.68.66.66,0,0,1,.21-.23.61.61,0,0,1,.3-.08,1,1,0,0,1,.48.15,1,1,0,0,1,.37.35,2.12,2.12,0,0,1,.36,1,2.73,2.73,0,0,1-.08,1.1A2.22,2.22,0,0,1,88.92,80.88Z" fill="#f9c24e"/><path d="M91.69,78a13.23,13.23,0,0,1-1.89,2.2A16,16,0,0,1,87.5,82" fill="none" stroke="#f9c24e" stroke-miterlimit="10"/><path d="M87,86.21a3.06,3.06,0,0,1-1.71-.8,1.32,1.32,0,0,1-.39-1.5,2.46,2.46,0,0,1,.31-.48c.77.38,1.84.11,2.5.64.36.3,1,1,1,1.47C88.53,86.19,87.69,86.3,87,86.21Z" fill="#f9c24e"/><path d="M83.9,83.88a2.2,2.2,0,0,1-.68-2.56c.18-.49.6-.94,1.09-.82a1,1,0,0,1,.43.28,1,1,0,0,1,.24.45,2.41,2.41,0,0,1,0,1,2.79,2.79,0,0,1-.43,1A2.24,2.24,0,0,1,83.9,83.88Z" fill="#f9c24e"/><path d="M87.51,82a28.89,28.89,0,0,1-5.27,2.65" fill="none" stroke="#f9c24e" stroke-miterlimit="10"/><path d="M92.19,72.08a2.59,2.59,0,0,1,.36-1.9c0-.06.66-.81.86-.79a2.33,2.33,0,0,1,1.07,1.08,2.8,2.8,0,0,1,.31,1.61c-.06.52-.58,1.51-1.28,1.55S92.28,72.55,92.19,72.08Z" fill="#f9c24e"/><path d="M75.14,22.06H21.46V93.41H75.14Z" fill="#fff"/><path d="M75.15,93.55H21.48a.07.07,0,0,1-.1-.1V22.06a.14.14,0,0,1,.14-.14H75.15a.09.09,0,0,1,.1,0,.17.17,0,0,1,0,.1V93.41a.17.17,0,0,1,0,.1A.18.18,0,0,1,75.15,93.55Zm-53.53-.28H75V22.2H21.62Z" fill="#263238"/><path d="M68.2,58.82H27.34v1.65H68.2Z" fill="#263238"/><path d="M68.2,37.7H34.92v1.67H68.2Z" fill="#263238"/><path d="M68.2,48.26H27.34v1.68H68.2Z" fill="#263238"/><path d="M57.69,80,56.1,81.62H27.35V80Z" fill="#263238"/><path d="M65.69,69.38q-.54.84-1.11,1.68H27.35V69.38Z" fill="#263238"/><path d="M41.79,91.47s-2.39,1.17-9.1,1.8H21.6" fill="none" stroke="#263238" stroke-linecap="round" stroke-linejoin="round"/><path d="M74,52.64a4.42,4.42,0,0,0,.71-2.08c.09-.93.15-2,.17-2.68L75,44.22v7.86Z" fill="#263238"/><path d="M74.69,51.76a88.08,88.08,0,0,1-9,17.61q-.54.84-1.11,1.68a77.79,77.79,0,0,1-6.89,8.88q-.78.84-1.59,1.68A40.92,40.92,0,0,1,42,91.33c.3-.16,4.9-2.48,5.91-9.72.07-.53.12-1.09.16-1.68a29.56,29.56,0,0,0-1-8.88c-.14-.55-.29-1.11-.46-1.68a73,73,0,0,0-7-15.66l-.91-2,6,1.68c26.48,6.19,30-1.66,30-1.66Z" fill="#fff" stroke="#263238" stroke-linecap="round" stroke-linejoin="round"/><path d="M51.78,76.64a12.18,12.18,0,0,1,0,1.48Z" fill="#fff"/><path d="M27.87,28.68c-2.56,0-2.7-5.56-2.71-6.67h0c0-1.12.13-6.71,2.71-6.71s2.76,6,2.78,6.71H28.41a13.38,13.38,0,0,0-.56-3.82A13.58,13.58,0,0,0,27.39,22h0a13.45,13.45,0,0,0,.48,3.79.4.4,0,0,1,.08-.28l.17-.61,1.56.46a.57.57,0,0,1,.37.29.62.62,0,0,1,.07.23,1,1,0,0,1,0,.24C29.69,27.81,28.89,28.68,27.87,28.68Z" fill="#bfbfbf" stroke="#263238" stroke-linecap="round" stroke-linejoin="round"/><path d="M41.13,28.68c-2.57,0-2.71-5.56-2.71-6.67h0c0-1.12.13-6.71,2.71-6.71s2.76,6,2.77,6.71H41.67a14.12,14.12,0,0,0-.56-3.82A13.59,13.59,0,0,0,40.69,22h0a13.57,13.57,0,0,0,.48,3.8l.08-.28.17-.6,1.56.45a.65.65,0,0,1,.22.11.7.7,0,0,1,.15.19.57.57,0,0,1,.07.22,1,1,0,0,1,0,.24C42.9,27.81,42.15,28.68,41.13,28.68Z" fill="#bfbfbf" stroke="#263238" stroke-linecap="round" stroke-linejoin="round"/><path d="M54.38,28.68c-2.57,0-2.71-5.56-2.71-6.67h0c0-1.12.13-6.71,2.71-6.71s2.76,6,2.77,6.71H54.92a14.12,14.12,0,0,0-.56-3.82A13.57,13.57,0,0,0,53.91,22h0a13.09,13.09,0,0,0,.47,3.79,1.47,1.47,0,0,1,.08-.28l.18-.61,1.56.46a.53.53,0,0,1,.21.11.65.65,0,0,1,.15.18.63.63,0,0,1,.08.23,1,1,0,0,1,0,.24C56.14,27.81,55.4,28.68,54.38,28.68Z" fill="#bfbfbf" stroke="#263238" stroke-linecap="round" stroke-linejoin="round"/><path d="M67.63,28.68c-2.56,0-2.7-5.56-2.71-6.67h0c0-1.12.13-6.71,2.71-6.71s2.77,6,2.77,6.72H68.17a14.12,14.12,0,0,0-.56-3.82,13.19,13.19,0,0,0-.46,3.8h0a13.45,13.45,0,0,0,.48,3.79.4.4,0,0,1,.08-.28l.18-.6,1.56.45a.45.45,0,0,1,.24.14.7.7,0,0,1,.15.19.58.58,0,0,1,.08.22,1,1,0,0,1,0,.24C69.41,27.81,68.69,28.68,67.63,28.68Z" fill="#bfbfbf" stroke="#263238" stroke-linecap="round" stroke-linejoin="round"/><path d="M82.8,91.4a10.49,10.49,0,1,0-12.6,7.87A10.49,10.49,0,0,0,82.8,91.4Z" fill="#f9c24e" stroke="#263238" stroke-miterlimit="10"/><path d="M78.7,89.05a1,1,0,0,1-.07.38,1.14,1.14,0,0,1-.53.53,1.22,1.22,0,0,1-.38.07H73.56v4.16a1,1,0,0,1-.29.7,1,1,0,0,1-1.67-.7V90H67.44a1,1,0,0,1-1-1,1.08,1.08,0,0,1,.26-.62,1,1,0,0,1,.69-.29H71.6V83.91a1,1,0,0,1,1.09-.9h0a1,1,0,0,1,.57.26,1,1,0,0,1,.29.69v4.15h4.16a1,1,0,0,1,1,1Z" fill="#fff"/></svg>