<svg id="Layer_1" data-name="Layer 1" xmlns="http://www.w3.org/2000/svg" viewBox="0 0 125 125"><title>activiation</title><path d="M45.28,94.21,24.92,82.42a1.47,1.47,0,0,1,0-2.77l12.72-7.43a5.28,5.28,0,0,1,4.8,0L62.8,84c1.31.77,1.31,2,0,2.78L50.09,94.21A5.42,5.42,0,0,1,45.28,94.21Z" fill="#e0e0e0"/><path d="M59.86,123.5,26.5,104.25,81.13,72.69,114.49,92Z" fill="#e0e0e0"/><path d="M23.87,12.42,22.82,9.16c-.22-.62.12-1.43,1.05-2.27a11.72,11.72,0,0,1,7.86-2.56c1.25.12,2,.58,2.19,1.21l1,3.24a2.64,2.64,0,0,1-1,2.6,11.72,11.72,0,0,1-7.86,2.56,2.65,2.65,0,0,1-2.29-1.52Z" fill="#263238"/><path d="M26.87,2.75l9.55,2L29.89,12l-9.55-2Z" fill="#455a64"/><path d="M24.68,10.18l2.89-3.26a.2.2,0,0,1,.12-.08h.14A.24.24,0,0,1,27.9,7a.29.29,0,0,1,0,.13h0L25,10.42" fill="#e0e0e0"/><path d="M25.78,15.42a.76.76,0,0,0,.3,0,.82.82,0,0,0,.25-.16L27.72,18c.17.55-1.24,1-1.42.47Z" fill="#f7b15c"/><path d="M26.06,15.29a.22.22,0,0,0,.1-.09.17.17,0,0,0,0-.14L24.84,11a.71.71,0,0,1,0-.29.51.51,0,0,1,.14-.26l-.27-.24a.84.84,0,0,0-.21.42.79.79,0,0,0,0,.48l1.33,4.1a.19.19,0,0,0,.23.11h0Z" fill="#e0e0e0"/><path d="M26.38,15a.41.41,0,0,0-.13-.19.43.43,0,0,0-.22-.09.45.45,0,0,0-.23,0,.37.37,0,0,0-.16.17.45.45,0,0,0,0,.23.36.36,0,0,0,.09.22.39.39,0,0,0,.2.13.45.45,0,0,0,.23,0,.4.4,0,0,0,.24-.2A.42.42,0,0,0,26.38,15Z" fill="#f7b15c"/><path d="M62.56,84.12,60.11,63.67l-2-.1,3.45,20.55a.17.17,0,0,0,0,.1l.09.08a.88.88,0,0,0,.35.1.79.79,0,0,0,.37-.07.21.21,0,0,0,.11-.08.29.29,0,0,0,0-.13Z" fill="#263238"/><path d="M60.11,63.67l-2-.1.65,3.86a3.88,3.88,0,0,0,1.1-.43,1.49,1.49,0,0,0,.58-.56Z" fill="#263238"/><path d="M31.84,61.55h-2L26.92,80.86A.29.29,0,0,0,27,81a.31.31,0,0,0,.11.09.74.74,0,0,0,.36.09.73.73,0,0,0,.35-.09.16.16,0,0,0,.09-.07.21.21,0,0,0,.06-.1Z" fill="#37474f"/><path d="M29.83,61.55,29,66.94a7.56,7.56,0,0,0,1.54.94l1.28-6.33Z" fill="#263238"/><path d="M47.5,91.85,45.61,71.06l-2-.1L46.5,91.85a.17.17,0,0,0,0,.1.3.3,0,0,0,.08.08.75.75,0,0,0,.71,0,.24.24,0,0,0,.16-.21Z" fill="#37474f"/><path d="M45.89,74.05l-.27-3-2-.1.44,3.23A3.67,3.67,0,0,0,45.89,74.05Z" fill="#263238"/><path d="M44.45,54.31h-2L39.53,73.62a.29.29,0,0,0,0,.13.22.22,0,0,0,.1.09.83.83,0,0,0,.72,0l.09-.07a.31.31,0,0,0,.05-.1Z" fill="#263238"/><path d="M26.1,38.17a11.48,11.48,0,0,0-.8,3.52c-.23,2.7.65,12.67,1.2,16.58.78,6.53,1.76,6.54,3.18,7.63a75.78,75.78,0,0,0,11.74,6.48c4.19,1.65,7.62-.9,10.17-2.16A95.23,95.23,0,0,0,60,65.34a1.88,1.88,0,0,0,1-1.43v-1.2c0-.64-.55-1.32-1.73-2.07-2.16-1.41-10-6-13-7.64h0c-2.33-1.41-3.7-12.27-5.31-17.39a.89.89,0,0,0-.11-.31,2.25,2.25,0,0,0-.08-.24c-.1-.28-.21-.53-.32-.77" fill="#f7b15c"/><path d="M61,62.7c0-.63-.56-1.31-1.73-2.06-2.16-1.41-10-6-13-7.64h0c-2.33-1.41-3.7-12.27-5.31-17.39-.1-.32-.21-.63-.34-.94V34.6l-.09-.21v-.1a5,5,0,0,0-1.07-1.56,2.8,2.8,0,0,0-.53-.37l-1-.52c-1.58-.95-5.33,1.07-7.91,2.48a7.86,7.86,0,0,0-3.82,3.89,10.93,10.93,0,0,0-.8,3.52c-.23,2.7.64,12.68,1.19,16.58.79,6.53,1.77,6.54,3.18,7.64a76.65,76.65,0,0,0,11.74,6.47c4.19,1.65,7.62-.9,10.17-2.16A92.61,92.61,0,0,0,60,65.35c.63-.47,1-.93,1-1.43Z" fill="#f7b15c"/><path d="M51.58,69A94,94,0,0,0,60,64.12c1.45-1.05,1.31-2.13-.77-3.48-2.89-1.88-14.67-8.57-14.67-8.57S28,61.75,28.65,63.37,38.51,70,41.42,71.16C45.61,72.81,49,70.27,51.58,69Z" fill="#f7b15c"/><path d="M38.78,32.33c-1.57-.82-5.26,1.18-7.79,2.56a7.8,7.8,0,0,0-3.82,3.9l-1.05-.62a7.88,7.88,0,0,1,3.81-3.89c2.59-1.41,6.33-3.43,7.92-2.48Z" fill="#f7b15c"/><path d="M40.9,35.6a7.31,7.31,0,0,0-1.58-2.89,2.53,2.53,0,0,0-1.71-.66c-1.37,0-4.68,1.79-6.61,2.84l-.47.27-.18.1-.22.14-.15.1a8.07,8.07,0,0,0-1,.74l-.15.13a7.4,7.4,0,0,0-.55.57l-.09.11-.11.14a.76.76,0,0,0-.11.14l-.1.14c-.14.2-.27.41-.39.62v.08l-.09.17-.13.27a11.06,11.06,0,0,0-.87,3.67C26,46.72,27.49,62.6,29,63.87c0,0-.24-1.44,2.83-3.37A56.72,56.72,0,0,1,37.62,57c5.42-2.66,8.6-4,8.6-4C43.88,51.56,42.51,40.7,40.9,35.6Z" fill="#f7b15c"/><path d="M52.53,74.13a3,3,0,0,0-2.63,1.52,4.25,4.25,0,0,0,.69,2.66,8.43,8.43,0,0,1,.92,3.78c0,1.13-.32,3.94.91,5.26s3.83,2.32,4.57.34c.24-.65-.53-2.77-.9-4.34-.77-3.11-1.42-6.21-1.42-6.21Z" fill="#263238"/><path d="M50.33,75.06a12.38,12.38,0,0,0,2.43,5.68c1.58,2.17,3.76,5,4.27,6.57A18.92,18.92,0,0,0,56.26,84v-.38a.41.41,0,0,0-.07-.26h0c-.23-1-.47-1.94-.67-2.82-.16-.7-.3-1.34-.42-1.87L54.9,78l-.06-.28-.11-.52-2.14-3h-.27A3,3,0,0,0,50.33,75.06Z" opacity="0.15" style="isolation:isolate"/><path d="M52.29,76.69a31,31,0,0,1,.73,4.6,5.44,5.44,0,0,0,1.19,3.48c.71.79,2.36,1.12,2-.61-.23-1.2-1.58-7-1.58-7Z" fill="#ffa8a7"/><path d="M56,85.28c.24-.17.37-.52.26-1.12a11.26,11.26,0,0,0-.3-1.4c-.18-.77-.36-1.53-.52-2.23s-.31-1.34-.42-1.87L54.85,78l-.06-.28-.11-.52-2.38-.46a33.53,33.53,0,0,1,.7,4.34C54,82.41,55.14,84,56,85.28Z" fill="#f28f8f"/><path d="M60.22,70.86l-2.84,6.57-4.3-3.69,1.79-7.59Z" fill="#f28f8f"/><path d="M56.33,54.31a84.8,84.8,0,0,0-8.16-3L42.88,56.4l5.29,3.68,7.09,3.38a14.76,14.76,0,0,0-.8,3c-.12.61-.23,1-.32,1.61,2,2.1,3.06,5.37,4.86,5.88,0,0,2.56-5.26,4.23-9.53,1.57-4,.47-5.38.12-5.91C62.72,57.61,61.12,56.38,56.33,54.31Z" fill="#455a64"/><path d="M57.71,70.58V70.4c-.11-.52-.22-1-.32-1.48h0l-.14-.65h0c-.11-.53-.22-1-.3-1.27a10.06,10.06,0,0,0-1.77-3.1,18.07,18.07,0,0,0-.6,2.3h0l1.29,3.45.68,1.8.2.31v.09c.19.28.38.55.57.8l.07.09c.06.07.11.14.17.2l.08.09a1.54,1.54,0,0,0,.17.19l.06.07a3.62,3.62,0,0,0,.42.36c-.17-.92-.36-1.88-.55-2.8Z" fill="#37474f"/><path d="M57.54,89.45c-.35,0-.32.59-.47,1.35a3.84,3.84,0,0,0,.07,2.2c.36.92,1.86,1,2.69,2.17s2.06,3.35,4.75,3.88,4.73-.37,5.21-1.18,0-1.55-1.7-2.51L65.73,94Z" fill="#263238"/><path d="M53.54,81.07c.24.41.5.83.79,1.27a54.77,54.77,0,0,1,3,5.92,3.87,3.87,0,0,1,.2,1.58A1.67,1.67,0,0,0,58,90.91c.3.33.61.63.94.93.87.78,2.26,2.92,3.7,3.87s3.91.68,4.46.08a.7.7,0,0,0,.13-.17.66.66,0,0,0,0-.44A.59.59,0,0,0,67.1,95c-.27-.27-.94-.83-1.24-1.14a22.29,22.29,0,0,1-3.47-4.61,43.87,43.87,0,0,1-2-5.78S60,81.58,59.31,79" fill="#ffa8a7"/><path d="M55.62,65.89c-.92-2.27-10.09-9.26-10.09-9.26S46.5,52.72,47,50L32,52.15a10.83,10.83,0,0,0,0,6.57c1.11,2.65,4.13,4.84,7.94,7,3.57,2,7.45,3.86,8.35,4.33s1.09,1,1.3,2.75,1.16,3.74,3.85,8.31c1.81.37,5-.93,5.76-2.07C58.07,74.3,56.22,67.36,55.62,65.89Z" fill="#455a64"/><path d="M42.63,31.17c3,0,4.83,1,7.15,5.62C51.42,40,54.61,48,54.61,48L50.3,50c-1.65-3-3.53-6.67-5.82-11.72Z" fill="#ffa8a7"/><path d="M47.21,42.52a5.18,5.18,0,0,0,.4-5.67c-1.16-2.22-5-5.68-5-5.68a24,24,0,0,0-4.32.08,24.88,24.88,0,0,0-5.68,1c.73,2.47,1.53,3.44,1.36,4.85a16,16,0,0,1-1.75,4.08l.7,2.55s.42,1.79.63,2.62A5.5,5.5,0,0,1,33,49a19.75,19.75,0,0,0-1.62,5.63c6.13,2.29,14.26.75,17-3.3-.18-1-1.25-3.09-1.34-4.2A37.32,37.32,0,0,1,47.21,42.52Z" fill="#f5f5f5"/><path d="M35.7,28.57c.76,2.36,5.62-2.46,6.39-3.26.32-.34.53-.88.82-1.26a7.68,7.68,0,0,1,.76-.85c.47-.42,1.11-.54,1.59-1a3.78,3.78,0,0,0,1-1.43,4.19,4.19,0,0,0,.28-1.68,4.11,4.11,0,0,0-.42-1.65A5.1,5.1,0,0,0,45,16.07a8.41,8.41,0,0,0-11.57.13,6.83,6.83,0,0,0-1.84,5.51C32.23,25.72,35.29,27.26,35.7,28.57Z" fill="#263238"/><path d="M43.82,16.78c.88.53,2,2.72,1.87,7.36-.07,3.44-1.18,4.61-1.82,4.9a5.41,5.41,0,0,1-2.9.23v2.07s2.49,1.78,2,2.91-3.12,1-4.67,0a10.87,10.87,0,0,1-2.55-2.47V26.12a1.16,1.16,0,0,1-1.61-.21,3.18,3.18,0,0,1-.66-3,1.38,1.38,0,0,1,1.85-.67,1.46,1.46,0,0,1,.41.29s1.46.12,4.17-1.47A8.37,8.37,0,0,0,43.82,16.78Z" fill="#ffa8a7"/><path d="M41,29.27c-1.26-.16-4-1.17-4.47-2.2a2.26,2.26,0,0,0,.79,1.41A11,11,0,0,0,41,30.05Z" fill="#f28f8f"/><path d="M44,15.69A3.84,3.84,0,0,1,42.79,21l0,0h0a3.94,3.94,0,0,1-1.4.51,2.65,2.65,0,0,0,.83-1.64s-1.09,1.79-5.29,2.4l.24-6.69Z" fill="#263238"/><path d="M35.73,24.6V22.54l1.32-.63v1.37a1.44,1.44,0,0,1-.1.5,1.13,1.13,0,0,1-.29.43,1.22,1.22,0,0,1-.42.29A1.25,1.25,0,0,1,35.73,24.6Z" fill="#263238"/><path d="M40.77,22.35a.34.34,0,0,1,0,.2.67.67,0,0,1,0,.2.66.66,0,0,1-.12.17.45.45,0,0,1-.17.11h-.41a.66.66,0,0,1-.17-.12.62.62,0,0,1-.11-.17.61.61,0,0,1,0-.19.61.61,0,0,1,0-.19.58.58,0,0,1,.11-.15.56.56,0,0,1,.17-.09.66.66,0,0,1,.2-.06h.2l.18.1A.76.76,0,0,1,40.77,22.35Z" fill="#263238"/><path d="M44.73,22.55a.45.45,0,0,1-.11.19.48.48,0,0,1-.16.12.54.54,0,0,1-.21.05.74.74,0,0,1-.21,0,.58.58,0,0,1-.29-.29.49.49,0,0,1,.12-.58L44,22h.2l.18.06a.39.39,0,0,1,.37.39A.84.84,0,0,1,44.73,22.55Z" fill="#263238"/><path d="M45,21.31l-1-.61a.49.49,0,0,1,.14-.18.53.53,0,0,1,.21-.11,1,1,0,0,1,.24,0,.57.57,0,0,1,.22.07.64.64,0,0,1,.24.85Z" fill="#263238"/><path d="M40.75,25.9l1.59.36a.79.79,0,0,1-.12.3.77.77,0,0,1-.22.22.81.81,0,0,1-.29.12.58.58,0,0,1-.32,0A.84.84,0,0,1,40.75,25.9Z" fill="#b16668"/><path d="M41,26.18h-.22a.92.92,0,0,0,.22.44.85.85,0,0,0,.42.24.86.86,0,0,0,.45,0A.9.9,0,0,0,41,26.18Z" fill="#f28f8f"/><path d="M42.05,22l.21,3.42,1.65-.54Z" fill="#f28f8f"/><path d="M54.82,41.22a1.23,1.23,0,0,1,.57-1c.63-.5,1.46-.92,1.69-2.1l.9.48-1.4,2.57Z" fill="#f7b15c"/><path d="M54.82,41.22a1.23,1.23,0,0,1,.57-1c.63-.5,1.46-.92,1.69-2.1l.9.48-1.4,2.57Z" fill="#fff" opacity="0.75" style="isolation:isolate"/><path d="M54.82,41.22a5.13,5.13,0,0,0-3.1.07,28,28,0,0,1-7.92,1.23l1.09.57,10.59-1Z" fill="#f7b15c"/><path d="M54.82,41.22a5.13,5.13,0,0,0-3.1.07,28,28,0,0,1-7.92,1.23l1.09.57,10.59-1Z" fill="#fff" opacity="0.75" style="isolation:isolate"/><path d="M43.8,42.52,40.49,54.87l1.08.57,3.32-12.35Z" fill="#f7b15c"/><path d="M43.8,42.52,40.49,54.87l1.08.57,3.32-12.35Z" fill="#fff" opacity="0.8" style="isolation:isolate"/><path d="M43.8,42.52,40.49,54.87l1.08.57,3.32-12.35Z" opacity="0.1" style="isolation:isolate"/><g opacity="0.1"><path d="M57.1,38.77a2.2,2.2,0,0,1-.41.71,6.37,6.37,0,0,1-.59.57,3.84,3.84,0,0,0-.57.57,1.45,1.45,0,0,0-.2.34.74.74,0,0,0-.06.36h-.13a1,1,0,0,1,.08-.44,1.41,1.41,0,0,1,.23-.35,4.05,4.05,0,0,1,.61-.56,7.7,7.7,0,0,0,.6-.54A2,2,0,0,0,57.1,38.77Z" opacity="0.1" style="isolation:isolate"/><path d="M57,39.47a1.62,1.62,0,0,1-.31.43c-.11.13-.23.26-.34.4a2.53,2.53,0,0,0-.31.42,1,1,0,0,0-.15.48h-.13a1.15,1.15,0,0,1,.2-.53,1.9,1.9,0,0,1,.34-.41l.37-.38A1.86,1.86,0,0,0,57,39.47Z" opacity="0.1" style="isolation:isolate"/><path d="M47.89,42.45a14.45,14.45,0,0,0,1.72-.32c.57-.14,1.13-.3,1.69-.46a9,9,0,0,1,1.7-.29,6.46,6.46,0,0,1,.88,0,2.13,2.13,0,0,1,.44.07.94.94,0,0,1,.42.19l-.08.09a.87.87,0,0,0-.37-.16,2,2,0,0,0-.42-.07,6.31,6.31,0,0,0-.87,0,7.69,7.69,0,0,0-1.72.26c-.56.14-1.13.3-1.7.43A16,16,0,0,1,47.89,42.45Z" opacity="0.1" style="isolation:isolate"/><path d="M50.7,42.29l1-.21c.32-.08.65-.15,1-.21a6.64,6.64,0,0,1,1-.1,2.61,2.61,0,0,1,1,.14V42a2.62,2.62,0,0,0-1-.16,5.61,5.61,0,0,0-1,.07,4.87,4.87,0,0,0-1,.17Z" opacity="0.1" style="isolation:isolate"/></g><path d="M58,38l-1.63,3-3.6,13.28.54.29,1.61-3.73L58.5,38.27Z" fill="#f7b15c"/><path d="M56.87,41.32l1.63-3L54.92,50.84l-1.61,3.73Z" opacity="0.2" style="isolation:isolate"/><path d="M54.62,42.11,44.19,43.19,40.63,56.43l.54.29,10.44-1.08L55.17,42.4Z" fill="#f7b15c"/><path d="M44.19,43.19l.54.29L41.17,56.72l-.54-.29Z" opacity="0.35" style="isolation:isolate"/><path d="M55.17,42.4l1.7-1.08L53.31,54.57a1.63,1.63,0,0,1-1.7,1.07Z" fill="#f7b15c"/><path d="M56.27,41a1.69,1.69,0,0,0-1.45.22c-.47.3-.58.68-.26.86l.6.32,1.7-1.08L56.32,41Z" fill="#455a64"/><path d="M32.8,32.25c-2.58.62-3.42,1.3-4.08,4.34A84.44,84.44,0,0,0,27,49.54c0,1.28-.2,2.15,2.91,3.07a55.58,55.58,0,0,0,9.76,1.64,25.87,25.87,0,0,0,3.41.16A6.16,6.16,0,0,0,47,52.26,1.84,1.84,0,0,0,47.69,51a2,2,0,0,1,0-.49,3.62,3.62,0,0,1,.24-.43.85.85,0,0,0,.08-.52,4,4,0,0,1-.09-.48c0-.33.31-.57.44-.87a.33.33,0,0,0,0-.14c0-.11-.13-.17-.23-.2a2.2,2.2,0,0,0-1.42.32C45.43,49,44.67,50,42.8,50c-.44,0-1-.16-.86-.59l.23-.85c-1.05.22-1.63,1.26-2.51,1.44s-7-1.93-7-1.93l1.66-7.14S35.34,34.28,32.8,32.25Z" fill="#ffa8a7"/><path d="M56.42,45.58a6.79,6.79,0,0,1-.69,1.34c-.2.35-.17.75.06.85L55.17,50s.31,0,.94-.71a6.83,6.83,0,0,0,1.2-2.89c.12-.75.21-2.1-.43-2.41Z" fill="#ffa8a7"/><path d="M32.67,24.54a3.57,3.57,0,0,0-.26,4.93,2.34,2.34,0,0,0-.49,1,2.27,2.27,0,0,0,0,1.1,3,3,0,0,0,1.16,1.58,2.29,2.29,0,0,0-.23,1,2.21,2.21,0,0,0,.28,1,3.14,3.14,0,0,0,1.64,1.32,1.69,1.69,0,0,0,.41,1.67,2.76,2.76,0,0,0,1.89.94,1.67,1.67,0,0,0,.43,1.58,2.94,2.94,0,0,0,1.79.9,1.81,1.81,0,0,0-.13.86,1.71,1.71,0,0,0,.31.81,1.53,1.53,0,0,1,.31.82,1.5,1.5,0,0,1-.22.85,3,3,0,0,0,1.69-2.64c.08-1.31-.88-1.51-.88-1.51A3.44,3.44,0,0,0,40,38.81c-.58-.74-1-.68-1-.68a3.26,3.26,0,0,0-.48-1.9,1.43,1.43,0,0,0-1.18-.73,4,4,0,0,0,.12-1.82,1.54,1.54,0,0,0-.83-1.16,2.32,2.32,0,0,0,.09-1.47,2.36,2.36,0,0,0-.81-1.22,2.12,2.12,0,0,0,.11-1c0-.78-.2-.66-.26-1.67C33.94,26.38,33.71,25.73,32.67,24.54Z" fill="#263238"/><path d="M27.93,78.94c-.21.12-.14.16-.14.4a1,1,0,0,0,.13.65c.13.13.32.3.36.09s-.12-.32,0-.54S28.25,78.77,27.93,78.94Z" fill="#455a64"/><path d="M60.07,91.2v30.06l-.89-.51V90.68Z" fill="#37474f"/><path d="M60.07,91.2v30.06l.88-.51V90.68Z" fill="#455a64"/><path d="M32.65,75.37v30.06l-.89-.51V74.85Z" fill="#37474f"/><path d="M32.65,75.37v30.06l.89-.51V74.85Z" fill="#455a64"/><path d="M107.39,63.86V93.92l-.88-.51V63.34Z" fill="#37474f"/><path d="M107.39,63.86V93.92l.89-.51V63.34Z" fill="#455a64"/><path d="M60.07,86.45v6.33L31.76,76.44V70.11Z" fill="#37474f"/><path d="M60.07,92.78l48.21-27.85V61.76L60.07,89.61Z" fill="#455a64"/><path d="M60.06,89.61,29,71.69,80,42.26l31,17.92Z" fill="#f7b15c"/><path d="M60.06,89.61,29,71.69,80,42.26l31,17.92Z" fill="#fff" opacity="0.6" style="isolation:isolate"/><path d="M29,71.69v1.58L60,91.2V89.61Z" fill="#f7b15c"/><path d="M29,71.69v1.58L60,91.2V89.61Z" fill="#fff" opacity="0.25" style="isolation:isolate"/><path d="M60.07,91.2l51-29.44V60.18l-51,29.43Z" fill="#f7b15c"/><path d="M106.53,60a1.5,1.5,0,0,0,0-.3,4.6,4.6,0,0,0-1.87-2.78h-3.89A4.53,4.53,0,0,0,98.9,59.7a1.5,1.5,0,0,0,0,.3v.06a2,2,0,0,0,1.1,1.48,6,6,0,0,0,5.44,0,2,2,0,0,0,1.12-1.48Z" fill="#f7b15c"/><g opacity="0.15"><path d="M106.53,60a1.5,1.5,0,0,0,0-.3,4.6,4.6,0,0,0-1.87-2.78h-3.89A4.53,4.53,0,0,0,98.9,59.7a1.5,1.5,0,0,0,0,.3v.06a2,2,0,0,0,1.1,1.48,6,6,0,0,0,5.44,0,2,2,0,0,0,1.12-1.48Z" opacity="0.15" style="isolation:isolate"/></g><path d="M100.84,56.85a1.13,1.13,0,0,0,0,2.14,4.07,4.07,0,0,0,3.69,0,1.13,1.13,0,0,0,0-2.14A4.07,4.07,0,0,0,100.84,56.85Z" fill="#f7b15c"/><path d="M103.31,58a.61.61,0,0,0,.12-.16l3.81-8.44-1.2-.63-4,8.84c-.11.22-.11.37.13.5a1,1,0,0,0,.51.13,1.06,1.06,0,0,0,.52-.13l.12-.09Z" fill="#f7b15c"/><path d="M106.49,47.09a.62.62,0,0,0-.33,0,.6.6,0,0,0-.27.2,1.85,1.85,0,0,0-.43.79,2,2,0,0,0,0,.9.66.66,0,0,0,.12.27.71.71,0,0,0,.23.19l1.34.5.66-2.39Z" fill="#f7b15c"/><g opacity="0.15"><path d="M106.49,47.09a.62.62,0,0,0-.33,0,.6.6,0,0,0-.27.2,1.85,1.85,0,0,0-.43.79,2,2,0,0,0,0,.9.66.66,0,0,0,.12.27.71.71,0,0,0,.23.19l1.34.5.66-2.39Z" opacity="0.15" style="isolation:isolate"/></g><path d="M107.21,47.8a1.89,1.89,0,0,0-.43.8,2,2,0,0,0,0,.9.54.54,0,0,0,.56.52h0a.57.57,0,0,0,.44-.26,2,2,0,0,0,.42-.79,2,2,0,0,0,0-.9C108,47.52,107.6,47.42,107.21,47.8Z" fill="#f7b15c"/><path d="M100.63,40a1,1,0,0,0-.42.2.85.85,0,0,0-.29.36.49.49,0,0,0,0,.17.44.44,0,0,0,.06.16l6,7.21a.61.61,0,0,0,.14.07h.15a.94.94,0,0,0,.42-.19.85.85,0,0,0,.29-.36.54.54,0,0,0,0-.18.33.33,0,0,0-.07-.16l-6-7.2a.37.37,0,0,0-.14-.07A.33.33,0,0,0,100.63,40Z" fill="#f7b15c"/><path d="M101.49,40c.33-.42,0-1.18-.34-1.62s-1.11-.84-1.58-.57-1.88,1.46-1.88,1.46l2.16,2.48S101.15,40.4,101.49,40Z" fill="#f7b15c"/><path d="M97.25,47.85c1.43-1.24,3.75-5.94,2.08-7.85s-6.64-.27-8.06,1" fill="#f7b15c"/><path d="M91,43c-.53-1.92.54-2.84,2.36-2.07A8.33,8.33,0,0,1,97.6,45.8c.51,1.91-.55,2.83-2.37,2.06A8.29,8.29,0,0,1,91,43Z" fill="#f7b15c"/><path d="M96.91,44.55l.09-.09a8.91,8.91,0,0,0-2.44-2.78l-.09.07A1.78,1.78,0,0,0,93.8,43a1.69,1.69,0,0,0,.08.74,2.06,2.06,0,0,0,.37.64,1.82,1.82,0,0,0,.58.45A1.93,1.93,0,0,0,96.91,44.55Z" fill="#f7b15c"/><path d="M96.91,44.55l.09-.09a8.91,8.91,0,0,0-2.44-2.78l-.09.07A1.78,1.78,0,0,0,93.8,43a1.69,1.69,0,0,0,.08.74,2.06,2.06,0,0,0,.37.64,1.82,1.82,0,0,0,.58.45A1.93,1.93,0,0,0,96.91,44.55Z" fill="#fff" opacity="0.7" style="isolation:isolate"/><path d="M97.61,64.69v.24a1,1,0,0,1-.14.5,1.06,1.06,0,0,1-.36.37L79.65,75.87a1,1,0,0,1-1,0L69.14,70.4a1,1,0,0,1-.5-.87v-.27h0l10.44,6Z" fill="#37474f"/><path d="M97.61,64.69l-10.34-6a.59.59,0,0,0-.6,0l-18,10.37h0v.06a.09.09,0,0,0,0,.07h0l10.45,6Z" fill="#455a64"/><path d="M79.44,75.49a1.15,1.15,0,0,0,.52.07,1.08,1.08,0,0,0,.5-.15l17.37-10a1.27,1.27,0,0,0,.38-.35,1.2,1.2,0,0,0,.2-.48l1.9-11.34a1.32,1.32,0,0,0,0-.56,1.2,1.2,0,0,0-.29-.47L81.92,62.6a.77.77,0,0,0-.28.26.89.89,0,0,0-.14.35Z" fill="#37474f"/><path d="M79.16,75.34l.12.07.16.08,2-12.28a.73.73,0,0,1,.15-.35.7.7,0,0,1,.28-.26l18-10.42a.88.88,0,0,0-.24-.19l-18,10.45a.75.75,0,0,0-.27.26.64.64,0,0,0-.14.35Z" fill="#455a64"/><path d="M61.83,64.62l.26.15" fill="#e0e0e0"/><path d="M81.13,49.39l.11.06.13.08,6.79,3.94a.49.49,0,0,1,0-.24.54.54,0,0,1,.08-.21c.11-.2.28-.36.4-.37l-6.76-3.92-.25-.14C81.79,48.69,81.29,49.49,81.13,49.39Z" fill="#455a64"/><path d="M81.87,48.73l-.24-.14a.49.49,0,0,0-.31.24c-.11.16-.27.51-.19.56l.18.11h.06c-.09,0,0-.34.19-.56s.23-.27.3-.25Z" fill="#ebebeb"/><path d="M81.81,48.69c-.16-.1-.66.7-.5.8l.25.14c-.16-.1.33-.9.49-.8Z" fill="#f7b15c"/><path d="M82.28,49,82,48.82c-.16-.1-.64.68-.51.79l.24.14C81.62,49.66,82.12,48.86,82.28,49Z" fill="#ebebeb"/><path d="M81.63,48.59c-.07-.05-.19.08-.31.24s-.26.49-.19.56l-1-.58a.83.83,0,0,1-.08-.12.38.38,0,0,1,0-.15c0-.29.4-.66.61-.52Z" fill="#f28f8f"/><path d="M89.28,53.49c-.09.12-.08.17-.08.17l-1-.2a.58.58,0,0,1,0-.32.62.62,0,0,1,.14-.28h0Z" fill="#f28f8f"/><path d="M89.49,53.72H89.2a.38.38,0,0,1,.08-.17l.25.16h0Z" fill="#37474f"/><path d="M88.64,52.64l.71.81h-.07l-1-.61h0A.38.38,0,0,1,88.64,52.64Z" fill="#ffa8a7"/><path d="M89.28,53.49h0l.18.2Z" fill="#455a64"/><path d="M88.27,52.86,80.15,48.3a.66.66,0,0,0-.11.24.38.38,0,0,0,0,.15.2.2,0,0,0,.08.12l1,.58.11.06.13.08,6.79,3.94a.58.58,0,0,1,0-.32A.5.5,0,0,1,88.27,52.86Z" opacity="0.2" style="isolation:isolate"/><path d="M83.18,46.63H83a.19.19,0,0,0-.15,0,.72.72,0,0,0-.24.25.75.75,0,0,0-.1.33v.12h0l.08.05h0a.34.34,0,0,0,.2,0,1,1,0,0,0,.23-.26.64.64,0,0,0,.1-.33.17.17,0,0,0,0-.1Z" fill="#f7b15c"/><path d="M91,51.15l-.47.82h-.08l-7.71-4.46h0a.33.33,0,0,1-.06-.19.79.79,0,0,1,.1-.34.82.82,0,0,1,.24-.25.2.2,0,0,1,.15,0h.08Z" fill="#f0f0f0"/><path d="M90.78,51.17a.2.2,0,0,1,.28,0h0a.2.2,0,0,1,0,.15.64.64,0,0,1-.1.33.61.61,0,0,1-.23.25.22.22,0,0,1-.3,0,.22.22,0,0,1,0-.16.79.79,0,0,1,.1-.34A.88.88,0,0,1,90.78,51.17Z" fill="#f7b15c"/><path d="M91.5,51.67l-.43-.47a.19.19,0,0,0-.26,0,.72.72,0,0,0-.24.25.75.75,0,0,0-.1.33.17.17,0,0,0,0,.14.22.22,0,0,0,.1.09h0l.62.14a.11.11,0,0,0,.11,0,.4.4,0,0,0,.14-.15.6.6,0,0,0,.06-.19Z" fill="#e0e0e0"/><path d="M85.22,48.15h-.08a.38.38,0,0,0-.09.09.24.24,0,0,0,0,.12h0l6,3.49.33-.19Z" fill="#455a64"/><path d="M90.47,51.58l.48.26.33-.19-.64-.38A.79.79,0,0,0,90.47,51.58Z" fill="#37474f"/><path d="M91.67,51.9l-.39-.43h-.19a.46.46,0,0,0-.17.17.67.67,0,0,0-.07.24c0,.09,0,.14.09.16h0l.57.13h.06l.08-.08a.17.17,0,0,0,0-.1A.08.08,0,0,0,91.67,51.9Z" fill="#f7b15c"/><path d="M91.67,51.9l-.39-.43h-.19a.46.46,0,0,0-.17.17.67.67,0,0,0-.07.24c0,.09,0,.14.09.16h0l.57.13h.06l.08-.08a.17.17,0,0,0,0-.1A.08.08,0,0,0,91.67,51.9Z" opacity="0.1" style="isolation:isolate"/><path d="M91.69,52a.21.21,0,0,1,0,.11.3.3,0,0,1-.08.08h-.06l-.29-.06a.19.19,0,0,1-.07-.12.49.49,0,0,1,0-.17.41.41,0,0,1,.12-.14h.14l.19.22h0A.1.1,0,0,1,91.69,52Z" fill="#f7b15c"/><path d="M91.58,51.9a.09.09,0,0,1,.1,0h0a.21.21,0,0,1,0,.11l-.08.08c-.06,0-.11,0-.11-.07h0A.1.1,0,0,1,91.58,51.9Z" opacity="0.1" style="isolation:isolate"/><path d="M83.94,47.42h0l-.09.08a.24.24,0,0,0,0,.12v.05h0l1.25.73h0a.21.21,0,0,1,0-.11.2.2,0,0,1,.09-.09h.07Z" fill="#fafafa"/><path d="M84,47.5a.21.21,0,0,1,0,.11.24.24,0,0,1-.08.09h-.08v-.05a.21.21,0,0,1,0-.11.24.24,0,0,1,.08-.09h0m.07,0a.07.07,0,0,1,0,0Z" fill="#f5f5f5"/><path d="M83.71,47l-.49-.29H83a.66.66,0,0,0-.21.23.53.53,0,0,0-.09.3.21.21,0,0,0,0,.11l.08.09.5.29a.21.21,0,0,0,.11,0,.17.17,0,0,0,.1,0,.66.66,0,0,0,.3-.52.24.24,0,0,0,0-.12A.18.18,0,0,0,83.71,47Z" fill="#f7b15c"/><path d="M83.71,47l-.49-.29H83a.66.66,0,0,0-.21.23.53.53,0,0,0-.09.3.21.21,0,0,0,0,.11l.08.09.5.29a.21.21,0,0,0,.11,0,.17.17,0,0,0,.1,0,.66.66,0,0,0,.3-.52.24.24,0,0,0,0-.12A.18.18,0,0,0,83.71,47Z" opacity="0.05" style="isolation:isolate"/><path d="M83.49,47a.2.2,0,0,1,.27,0,.17.17,0,0,1,0,.14.61.61,0,0,1-.08.3.77.77,0,0,1-.22.22.17.17,0,0,1-.24,0h0a.15.15,0,0,1,0-.16.53.53,0,0,1,.09-.3A.61.61,0,0,1,83.49,47Z" opacity="0.1" style="isolation:isolate"/><path d="M91.83,52.08,91.62,52h0v.06h0l.21.13h0Z" fill="#455a64"/><path d="M76.2,61.41a.63.63,0,0,1-.3-.07L64.34,54.66a.28.28,0,0,1-.13-.11.49.49,0,0,1,0-.17.49.49,0,0,1,0-.17.37.37,0,0,1,.13-.12l8.39-4.83,12.34,7.13-8.57,5A.61.61,0,0,1,76.2,61.41Z" opacity="0.2" style="isolation:isolate"/><path d="M73.11,48.86l-8.78,4.62-.18.28V54a.22.22,0,0,0,.12.29h0L75.89,61a.7.7,0,0,0,.6,0l8.58-5v-.23Z" fill="#263238"/><path d="M76.2,60.81a.53.53,0,0,1-.3-.07L64.34,54.06a.37.37,0,0,1-.13-.12.43.43,0,0,1,0-.16.49.49,0,0,1,0-.17.37.37,0,0,1,.13-.12l8.39-4.84,12.35,7.14L76.5,60.72A.53.53,0,0,1,76.2,60.81Z" fill="#455a64"/><path d="M72.72,48l-8.29,4.78-.09.12v.89a.09.09,0,0,0,0,.07h.06L76,60.56h.2a.38.38,0,0,0,.21,0l8.29-4.79v-.89Z" fill="#ebebeb"/><path d="M84.7,54.88l-.1.06-1.35.79-.25.15-6.59,3.8H76L64.44,53h-.06a.09.09,0,0,1,0-.07.09.09,0,0,1,0-.07h.06l.11-.06L72.73,48l11.88,6.86h0Z" fill="#fff" stroke="#fff" stroke-miterlimit="10"/><path d="M83.16,54.66H83.1a.12.12,0,0,0,0,.14.06.06,0,0,0,.06,0,.61.61,0,0,0,.19,0,.61.61,0,0,0,.19,0c.11-.06.11-.16,0-.22a.37.37,0,0,0-.38,0Z" opacity="0.1" style="isolation:isolate"/><path d="M84.38,53.94a.43.43,0,0,0-.27-.06.54.54,0,0,0-.25.09,1.56,1.56,0,0,0-.65.94h.14a1.37,1.37,0,0,1,.58-.83.39.39,0,0,1,.23-.07.17.17,0,0,1,.14,0,.65.65,0,0,1,.16.21.62.62,0,0,1,0,.27v.11l.13.08v-.19a.65.65,0,0,0,0-.34A.53.53,0,0,0,84.38,53.94Z" fill="#263238"/><path d="M82,54h-.06a.09.09,0,0,0,0,.07v.06H82a.5.5,0,0,0,.38,0c.11-.07.11-.17,0-.23A.52.52,0,0,0,82,54Z" opacity="0.1" style="isolation:isolate"/><path d="M83.23,53.27a.43.43,0,0,0-.27-.06.54.54,0,0,0-.25.09,1.56,1.56,0,0,0-.65.94h.14a1.45,1.45,0,0,1,.58-.83.39.39,0,0,1,.23-.07.17.17,0,0,1,.14,0,.65.65,0,0,1,.16.21.62.62,0,0,1,0,.27V54l.13.08v-.19a.65.65,0,0,0,0-.34A.58.58,0,0,0,83.23,53.27Z" fill="#263238"/><path d="M80.84,53.32h-.06v.07a.09.09,0,0,0,0,.07h.06a.37.37,0,0,0,.38,0h.06a.09.09,0,0,0,0-.07v-.07h-.06A.37.37,0,0,0,80.84,53.32Z" opacity="0.1" style="isolation:isolate"/><path d="M82.07,52.6a.58.58,0,0,0-.26-.06.62.62,0,0,0-.26.09,1.56,1.56,0,0,0-.65.94H81a1.45,1.45,0,0,1,.58-.83.4.4,0,0,1,.24-.07.33.33,0,0,1,.14,0,.48.48,0,0,1,.15.22.57.57,0,0,1,0,.26v.11l.14.08v-.19a1,1,0,0,0,0-.34A.91.91,0,0,0,82.07,52.6Z" fill="#263238"/><path d="M79.68,52.65h-.06v.07a.09.09,0,0,0,0,.07h.06a.41.41,0,0,0,.19.05.46.46,0,0,0,.2-.05h.05a.09.09,0,0,0,0-.07.09.09,0,0,0,0-.07Z" opacity="0.1" style="isolation:isolate"/><path d="M80.92,51.93a.63.63,0,0,0-.27-.06.52.52,0,0,0-.26.1,1.58,1.58,0,0,0-.65.93h.14a1.45,1.45,0,0,1,.58-.83A.51.51,0,0,1,80.7,52h.14a.69.69,0,0,1,.16.22.57.57,0,0,1,0,.26v.11l.14.08v-.19a.65.65,0,0,0,0-.34A.63.63,0,0,0,80.92,51.93Z" fill="#263238"/><path d="M78.52,52h-.06a.06.06,0,0,0,0,.06.09.09,0,0,0,0,.07h.06a.5.5,0,0,0,.38,0c.11-.07.11-.17,0-.23A.38.38,0,0,0,78.52,52Z" opacity="0.1" style="isolation:isolate"/><path d="M79.76,51.26a.63.63,0,0,0-.27-.06.52.52,0,0,0-.26.1,1.63,1.63,0,0,0-.65.93.33.33,0,0,0,.14,0,1.49,1.49,0,0,1,.58-.83.51.51,0,0,1,.24-.07h.14a.69.69,0,0,1,.16.22.57.57,0,0,1,0,.26V52l.13.08a.61.61,0,0,0,0-.19,1,1,0,0,0,0-.34A.86.86,0,0,0,79.76,51.26Z" fill="#263238"/><path d="M77.36,51.31c-.11.06-.11.16,0,.23h.19a.34.34,0,0,0,.2,0c.1-.07.1-.17,0-.23a.46.46,0,0,0-.2-.05A.41.41,0,0,0,77.36,51.31Z" opacity="0.1" style="isolation:isolate"/><path d="M78.6,50.59a.63.63,0,0,0-.27-.06.46.46,0,0,0-.25.1,1.6,1.6,0,0,0-.66.93h.15a1.37,1.37,0,0,1,.58-.83.48.48,0,0,1,.23-.07h.14a.5.5,0,0,1,.16.22.39.39,0,0,1,0,.26v.11l.13.08a.61.61,0,0,0,0-.19.62.62,0,0,0,0-.33A.56.56,0,0,0,78.6,50.59Z" fill="#263238"/><path d="M76.2,50.64h-.06v.06a.09.09,0,0,0,0,.07h.25a.34.34,0,0,0,.2,0h0a.09.09,0,0,0,0-.07.06.06,0,0,0,0-.06h0a.34.34,0,0,0-.2,0Z" opacity="0.1" style="isolation:isolate"/><path d="M77.44,49.92a.5.5,0,0,0-.27-.05.41.41,0,0,0-.26.09,1.63,1.63,0,0,0-.65.93h.14a1.49,1.49,0,0,1,.58-.83.51.51,0,0,1,.24-.07.33.33,0,0,1,.14,0,.47.47,0,0,1,.16.21.57.57,0,0,1,0,.26.24.24,0,0,1,0,.12l.14.07a.61.61,0,0,0,0-.19.62.62,0,0,0,0-.33A.63.63,0,0,0,77.44,49.92Z" fill="#263238"/><path d="M75,50h0v.06a.09.09,0,0,0,0,.07h.25a.34.34,0,0,0,.2,0c.1-.06.1-.16,0-.23a.34.34,0,0,0-.2,0A.46.46,0,0,0,75,50Z" opacity="0.1" style="isolation:isolate"/><path d="M76.28,49.26A.45.45,0,0,0,76,49.2a.62.62,0,0,0-.26.09,1.69,1.69,0,0,0-.65.94.33.33,0,0,0,.14,0,1.5,1.5,0,0,1,.58-.82.68.68,0,0,1,.24-.08h.14a.65.65,0,0,1,.16.21.57.57,0,0,1,0,.26V50l.14.08v-.2a.62.62,0,0,0,0-.33A.56.56,0,0,0,76.28,49.26Z" fill="#263238"/><path d="M73.87,49.31h-.06a.09.09,0,0,0,0,.07v.06l.06.05h.19a.34.34,0,0,0,.2,0l.06-.05v-.06a.09.09,0,0,0,0-.07h-.06a.35.35,0,0,0-.2-.05A.41.41,0,0,0,73.87,49.31Z" opacity="0.1" style="isolation:isolate"/><path d="M75.12,48.58a.62.62,0,0,0-.27,0,.62.62,0,0,0-.26.09,1.63,1.63,0,0,0-.65.93h.14a1.53,1.53,0,0,1,.58-.83.51.51,0,0,1,.24-.07.33.33,0,0,1,.14,0,.65.65,0,0,1,.16.21.57.57,0,0,1,0,.26.24.24,0,0,1,0,.12l.14.08v-.2a.62.62,0,0,0,0-.33A.78.78,0,0,0,75.12,48.58Z" fill="#263238"/><path d="M72.72,48.64h0a.09.09,0,0,0,0,.07.09.09,0,0,0,0,.07h0a.34.34,0,0,0,.2,0h.25v-.07a.09.09,0,0,0,0-.07h-.06a.31.31,0,0,0-.19,0A.34.34,0,0,0,72.72,48.64Z" opacity="0.1" style="isolation:isolate"/><path d="M74,47.91a.61.61,0,0,0-.27,0,.62.62,0,0,0-.26.09,1.63,1.63,0,0,0-.65.93H73a1.53,1.53,0,0,1,.58-.83.73.73,0,0,1,.24-.07H74a.47.47,0,0,1,.16.21.39.39,0,0,1,0,.26.24.24,0,0,1,0,.12l.14.08a.67.67,0,0,0,0-.2.62.62,0,0,0,0-.33A.63.63,0,0,0,74,47.91Z" fill="#263238"/><g opacity="0.1"><path d="M107.66,84.72l.26-2.76-.29.17-1,.61a3.8,3.8,0,0,0-.57.42l-.18.18-.06.69Z" opacity="0.1" style="isolation:isolate"/></g></svg>