<svg width="374" height="169" viewBox="0 0 374 169" fill="none" xmlns="http://www.w3.org/2000/svg">
<rect width="374" height="169" rx="20" fill="#FEF6F4"/>
<path d="M108.711 47.2852C109.766 46.628 111.239 46.701 112.874 47.6422C113.806 48.1997 114.644 48.9022 115.356 49.7233C115.539 49.9262 115.717 50.129 115.884 50.3602L115.912 50.3927C116.857 51.6156 117.593 52.9864 118.091 54.4495C118.447 55.4768 118.636 56.5548 118.65 57.6422C118.65 59.4394 118.034 60.7132 117.028 61.3339L115.105 62.4454C115.407 62.2583 115.671 62.0161 115.884 61.7315C116.478 60.8561 116.772 59.8108 116.719 58.7538C116.719 55.0742 114.135 50.5955 110.947 48.7537C110.052 48.1778 108.993 47.9126 107.932 47.9992C107.539 48.0426 107.159 48.1714 106.821 48.3765L108.711 47.2852Z" fill="#FDB844"/>
<path opacity="0.7" d="M108.711 47.2852C109.766 46.628 111.239 46.701 112.874 47.6422C113.806 48.1997 114.644 48.9022 115.356 49.7233C115.539 49.9262 115.717 50.129 115.884 50.3602L115.912 50.3927C116.857 51.6156 117.593 52.9864 118.091 54.4495C118.447 55.4768 118.636 56.5548 118.65 57.6422C118.65 59.4394 118.034 60.7132 117.028 61.3339L115.105 62.4454C115.407 62.2583 115.671 62.0161 115.884 61.7315C116.478 60.8561 116.772 59.8108 116.719 58.7538C116.719 55.0742 114.135 50.5955 110.947 48.7537C110.052 48.1778 108.993 47.9126 107.932 47.9992C107.539 48.0426 107.159 48.1714 106.821 48.3765L108.711 47.2852Z" fill="white"/>
<path d="M106.824 48.3766C107.163 48.1715 107.542 48.0428 107.935 47.9993C108.996 47.9127 110.055 48.1779 110.95 48.7539C114.138 50.5957 116.723 55.0744 116.723 58.7539C116.775 59.8109 116.482 60.8563 115.887 61.7316C115.674 62.0163 115.41 62.2584 115.108 62.4456C115.079 62.4673 115.048 62.485 115.015 62.4984C114.532 62.7718 113.982 62.9013 113.428 62.8716C112.55 62.8215 111.698 62.5523 110.95 62.0886C107.761 60.2468 105.173 55.7722 105.173 52.0886C105.173 50.2752 105.802 48.9892 106.824 48.3766Z" fill="#FDB844"/>
<path opacity="0.6" d="M106.824 48.3766C107.163 48.1715 107.542 48.0428 107.935 47.9993C108.996 47.9127 110.055 48.1779 110.95 48.7539C114.138 50.5957 116.723 55.0744 116.723 58.7539C116.775 59.8109 116.482 60.8563 115.887 61.7316C115.674 62.0163 115.41 62.2584 115.108 62.4456C115.079 62.4673 115.048 62.485 115.015 62.4984C114.532 62.7718 113.982 62.9013 113.428 62.8716C112.55 62.8215 111.698 62.5523 110.95 62.0886C107.761 60.2468 105.173 55.7722 105.173 52.0886C105.173 50.2752 105.802 48.9892 106.824 48.3766Z" fill="white"/>
<path d="M77.0066 111.277V114.608L119.352 139.058V135.724C119.352 133.882 117.514 131.33 115.246 130.02L81.1243 110.308C79.7572 109.525 78.5523 109.367 77.8058 109.764C77.5449 109.917 77.3318 110.139 77.1906 110.407C77.0493 110.674 76.9857 110.976 77.0066 111.277Z" fill="#263238"/>
<path d="M104.653 94.2711L104.71 94.2387C105.457 93.8127 106.682 93.9588 108.069 94.762L142.207 114.474C144.471 115.78 146.309 118.336 146.309 120.154V123.488L119.363 139.046V135.711C119.363 133.87 117.526 131.318 115.258 130.008L81.1239 110.308C79.7567 109.525 78.5519 109.367 77.8054 109.764L104.653 94.2711Z" fill="#455A64"/>
<path d="M121.684 127.026V122.58L137.084 113.691V118.133L121.684 127.026Z" fill="#FDB844"/>
<path opacity="0.15" d="M121.684 127.026V122.58L137.084 113.691V118.133L121.684 127.026Z" fill="black"/>
<path d="M121.686 127.026L110.14 120.356V115.91L121.686 122.579V127.026Z" fill="#FDB844"/>
<path opacity="0.25" d="M121.686 127.026L110.14 120.356V115.91L121.686 122.579V127.026Z" fill="black"/>
<path d="M137.084 113.691L125.534 107.022L110.139 115.91L121.684 122.58L137.084 113.691Z" fill="#FDB844"/>
<path d="M130.451 112.941L125.534 110.101L116.772 115.164L121.684 117.999L130.451 112.941Z" fill="#FAFAFA"/>
<path d="M130.451 112.941V113.691L121.684 118.75V117.999L130.451 112.941Z" fill="#F0F0F0"/>
<path d="M116.773 115.164L121.686 117.999V118.75L116.773 115.91V115.164Z" fill="#E0E0E0"/>
<path d="M91.2191 101.233V106.786L100.842 112.344V106.786C100.842 103.724 98.6836 99.9872 96.0264 98.4537C94.6795 97.6748 93.4665 97.6099 92.5943 98.1373C91.7221 98.6647 91.2191 99.7194 91.2191 101.233Z" fill="#FDB844"/>
<path opacity="0.6" d="M91.2191 101.233V106.786L100.842 112.344V106.786C100.842 103.724 98.6836 99.9872 96.0264 98.4537C94.6795 97.6748 93.4665 97.6099 92.5943 98.1373C91.7221 98.6647 91.2191 99.7194 91.2191 101.233Z" fill="white"/>
<path d="M104.109 91.4883L104.182 91.4396C105.05 90.9487 106.251 91.0339 107.573 91.7844C110.231 93.3219 112.385 97.0582 112.385 100.121V105.679L100.839 112.344V106.786C100.839 103.724 98.6809 99.9873 96.0237 98.4538C94.7498 97.7195 93.5896 97.6181 92.7336 98.0481L104.109 91.4883Z" fill="#FDB844"/>
<path opacity="0.7" d="M104.109 91.4883L104.182 91.4396C105.05 90.9487 106.251 91.0339 107.573 91.7844C110.231 93.3219 112.385 97.0582 112.385 100.121V105.679L100.839 112.344V106.786C100.839 103.724 98.6809 99.9873 96.0237 98.4538C94.7498 97.7195 93.5896 97.6181 92.7336 98.0481L104.109 91.4883Z" fill="white"/>
<path d="M96.0302 102.08C94.9673 101.468 94.1032 101.963 94.1032 103.192C94.1406 103.86 94.3344 104.51 94.6691 105.089C95.0039 105.668 95.4701 106.161 96.0302 106.527C97.0931 107.139 97.9531 106.64 97.9531 105.415C97.9175 104.747 97.7248 104.097 97.3907 103.518C97.0566 102.938 96.5904 102.446 96.0302 102.08Z" fill="#455A64"/>
<path d="M96.573 63.9506L93.6521 59.0824C93.6521 59.0824 100.508 55.1636 102.601 53.9141L105.518 58.7822C102.427 60.6281 100.65 65.0987 100.65 71.0419C100.65 78.0318 103.044 85.8979 106.922 93.0541L97.9726 98.2225C94.0943 91.0663 91.7008 83.2123 91.7008 76.2103C91.7008 70.263 93.4776 65.7964 96.573 63.9506Z" fill="#37474F"/>
<path d="M96.5709 63.9506C93.4756 65.7964 91.7028 70.267 91.7028 76.2102C91.7028 83.2001 94.1004 91.0662 97.9746 98.2225C97.7444 98.0476 97.5032 97.8877 97.2525 97.7438C95.9097 96.9648 94.6967 96.904 93.8245 97.4273C93.4594 97.6464 92.9361 97.9385 92.6075 98.1373C92.3068 98.3043 92.0529 98.5442 91.8691 98.835C87.8448 91.1271 86.0192 83.8898 86.0192 76.2102C86.0192 67.8208 88.932 61.8857 93.6663 59.0621L96.5709 63.9506Z" fill="#263238"/>
<path d="M97.4774 37.6057L99.7168 40.6727C99.5125 40.4313 99.237 40.2609 98.9298 40.1858C98.6024 40.1034 98.2623 40.0842 97.9278 40.1291C97.6986 40.1549 97.472 40.1996 97.2503 40.2629C95.8764 40.6775 94.6854 41.5492 93.875 42.7335C93.7499 42.9247 93.64 43.1255 93.5464 43.3339C93.407 43.6411 93.3245 43.971 93.303 44.3076C93.2762 44.6452 93.3696 44.9814 93.5667 45.2568L91.2665 42.1493C90.9338 41.6909 90.8973 41.0215 91.2462 40.2264C91.6735 39.3856 92.2928 38.6574 93.054 38.1006C93.8152 37.5437 94.6969 37.1741 95.6275 37.0215C96.5079 36.9242 97.1448 37.1635 97.4774 37.6057Z" fill="#FDB844"/>
<path opacity="0.25" d="M97.4774 37.6057L99.7168 40.6727C99.5125 40.4313 99.237 40.2609 98.9298 40.1858C98.6024 40.1034 98.2623 40.0842 97.9278 40.1291C97.6986 40.1549 97.472 40.1996 97.2503 40.2629C95.8764 40.6775 94.6854 41.5492 93.875 42.7335C93.7499 42.9247 93.64 43.1255 93.5464 43.3339C93.407 43.6411 93.3245 43.971 93.303 44.3076C93.2762 44.6452 93.3696 44.9814 93.5667 45.2568L91.2665 42.1493C90.9338 41.6909 90.8973 41.0215 91.2462 40.2264C91.6735 39.3856 92.2928 38.6574 93.054 38.1006C93.8152 37.5437 94.6969 37.1741 95.6275 37.0215C96.5079 36.9242 97.1448 37.1635 97.4774 37.6057Z" fill="black"/>
<path d="M111.266 77.5693C110.811 77.3399 110.422 76.9994 110.134 76.5794L96.495 56.125L108.738 47.1716L124.089 66.3481C124.41 66.7554 124.62 67.2391 124.698 67.7518C124.807 68.4583 124.75 69.1807 124.532 69.8613C124.439 70.1784 124.325 70.4888 124.191 70.7903C123.991 71.243 123.755 71.6785 123.485 72.0926C121.645 74.8064 118.921 76.798 115.777 77.7275C115.299 77.8623 114.81 77.9573 114.316 78.0114C113.938 78.0526 113.557 78.0662 113.177 78.052C112.512 78.0309 111.86 77.8662 111.266 77.5693Z" fill="#455A64"/>
<path d="M109.457 75.5611C108.8 74.5631 108.776 73.127 109.547 71.4191C111.145 67.9059 115.547 64.6848 119.376 64.2264C121.234 64.0073 122.622 64.4738 123.36 65.411L125.888 68.5874C126.739 69.6625 126.837 71.2933 126.03 73.1798C124.464 76.8309 119.977 80.1209 116.013 80.5063C113.985 80.7011 112.468 80.1007 111.705 78.9526L109.457 75.5611Z" fill="#FDB844"/>
<path d="M116.011 80.5024C119.979 80.0967 124.47 76.831 126.044 73.1636C127.618 69.4963 125.675 66.8431 121.691 67.2204C117.707 67.5977 113.232 70.8715 111.662 74.5592C110.092 78.2468 112.048 80.8919 116.011 80.5024Z" fill="#FDB844"/>
<path opacity="0.25" d="M116.011 80.5024C119.979 80.0967 124.47 76.831 126.044 73.1636C127.618 69.4963 125.675 66.8431 121.691 67.2204C117.707 67.5977 113.232 70.8715 111.662 74.5592C110.092 78.2468 112.048 80.8919 116.011 80.5024Z" fill="black"/>
<path d="M99.7002 40.689L99.7205 40.7133L102.357 44.3644C99.8378 45.1253 97.6528 46.7222 96.1627 48.8918L93.5298 45.2407C93.3326 44.9652 93.2379 44.6294 93.2621 44.2914C93.2876 43.9537 93.3713 43.6229 93.5095 43.3137C93.6025 43.1062 93.7124 42.9068 93.8381 42.7174C94.6462 41.5307 95.838 40.6583 97.2134 40.2468C97.4344 40.1795 97.6612 40.1333 97.8909 40.1088C98.2255 40.0661 98.5652 40.0853 98.8929 40.1656C99.2126 40.2456 99.4967 40.4297 99.7002 40.689Z" fill="#263238"/>
<path d="M123.851 72.2469L128.752 78.9041L120.638 84.8473L115.726 78.1739C115.287 77.5735 115.247 76.685 115.701 75.6465C116.618 73.5694 119.19 71.687 121.45 71.4436C122.577 71.3341 123.413 71.6465 123.851 72.2469Z" fill="#37474F"/>
<path d="M120.625 84.8472L128.738 78.904L127.485 77.192C127.047 76.5916 126.211 76.2833 125.083 76.405C122.828 76.6484 120.256 78.5308 119.339 80.6079C118.88 81.6464 118.933 82.5349 119.363 83.1353L120.625 84.8472Z" fill="#FDB844"/>
<path d="M123.026 85.6342C125.282 85.3908 127.854 83.5084 128.77 81.4313C129.687 79.3542 128.6 77.8694 126.336 78.1169C124.073 78.3644 121.509 80.2427 120.592 82.3157C119.675 84.3887 120.77 85.8816 123.026 85.6342Z" fill="#FDB844"/>
<path opacity="0.25" d="M123.026 85.6342C125.282 85.3908 127.854 83.5084 128.77 81.4313C129.687 79.3542 128.6 77.8694 126.336 78.1169C124.073 78.3644 121.509 80.2427 120.592 82.3157C119.675 84.3887 120.77 85.8816 123.026 85.6342Z" fill="black"/>
<path d="M123.862 83.7439C124.466 83.6432 125.038 83.4015 125.532 83.0386C126.025 82.6756 126.426 82.2014 126.702 81.6546C127.16 80.6201 126.621 79.8818 125.485 80.0035C124.877 80.1032 124.302 80.3446 123.805 80.7083C123.308 81.072 122.904 81.5477 122.625 82.0968C122.199 83.1272 122.739 83.8534 123.862 83.7439Z" fill="#263238"/>
<path d="M101.454 59.1579C97.3162 58.5165 94.4815 54.642 95.1228 50.5039C95.7642 46.3658 99.6387 43.5311 103.777 44.1725C107.915 44.8138 110.75 48.6883 110.108 52.8264C109.467 56.9646 105.592 59.7992 101.454 59.1579Z" fill="#455A64"/>
<path d="M94.8676 52.4252C95.9183 51.7721 97.395 51.8411 99.0259 52.7863C99.9614 53.3399 100.801 54.0414 101.513 54.8634C101.695 55.0703 101.87 55.2691 102.036 55.5003L102.064 55.5328C103.011 56.7547 103.747 58.1257 104.243 59.5896C104.599 60.6169 104.788 61.6949 104.803 62.7823C104.803 64.5794 104.186 65.8533 103.18 66.474L101.257 67.5896C101.557 67.4 101.82 67.1566 102.032 66.8715C102.627 65.9978 102.922 64.954 102.872 63.8979C102.872 60.2143 100.283 55.7356 97.0948 53.8938C96.2003 53.3178 95.141 53.0526 94.0806 53.1392C93.6878 53.1828 93.3095 53.313 92.9731 53.5206L94.8676 52.4252Z" fill="#FDB844"/>
<path opacity="0.7" d="M94.8676 52.4252C95.9183 51.7721 97.395 51.8411 99.0259 52.7863C99.9614 53.3399 100.801 54.0414 101.513 54.8634C101.695 55.0703 101.87 55.2691 102.036 55.5003L102.064 55.5328C103.011 56.7547 103.747 58.1257 104.243 59.5896C104.599 60.6169 104.788 61.6949 104.803 62.7823C104.803 64.5794 104.186 65.8533 103.18 66.474L101.257 67.5896C101.557 67.4 101.82 67.1566 102.032 66.8715C102.627 65.9978 102.922 64.954 102.872 63.8979C102.872 60.2143 100.283 55.7356 97.0948 53.8938C96.2003 53.3178 95.141 53.0526 94.0806 53.1392C93.6878 53.1828 93.3095 53.313 92.9731 53.5206L94.8676 52.4252Z" fill="white"/>
<path d="M92.9826 53.5206C93.319 53.313 93.6972 53.1828 94.0901 53.1392C95.1504 53.0526 96.2098 53.3178 97.1043 53.8938C100.293 55.7356 102.881 60.2143 102.881 63.8979C102.932 64.954 102.637 65.9978 102.041 66.8715C101.83 67.1566 101.567 67.4 101.267 67.5896C101.236 67.609 101.203 67.6253 101.169 67.6383C100.687 67.911 100.137 68.0418 99.583 68.0155C98.7046 67.961 97.8532 67.6907 97.1043 67.2285C93.9156 65.3908 91.3274 60.9121 91.3274 57.2285C91.3274 55.4151 91.9603 54.1291 92.9826 53.5206Z" fill="#FDB844"/>
<path opacity="0.6" d="M92.9826 53.5206C93.319 53.313 93.6972 53.1828 94.0901 53.1392C95.1504 53.0526 96.2098 53.3178 97.1043 53.8938C100.293 55.7356 102.881 60.2143 102.881 63.8979C102.932 64.954 102.637 65.9978 102.041 66.8715C101.83 67.1566 101.567 67.4 101.267 67.5896C101.236 67.609 101.203 67.6253 101.169 67.6383C100.687 67.911 100.137 68.0418 99.583 68.0155C98.7046 67.961 97.8532 67.6907 97.1043 67.2285C93.9156 65.3908 91.3274 60.9121 91.3274 57.2285C91.3274 55.4151 91.9603 54.1291 92.9826 53.5206Z" fill="white"/>
<path d="M97.1011 57.8898C95.8191 57.1474 94.7765 57.7478 94.7765 59.2326C94.8204 60.0395 95.0537 60.8247 95.4575 61.5245C95.8614 62.2244 96.4245 62.8193 97.1011 63.261C98.3871 64.0034 99.4297 63.403 99.4297 61.9182C99.3857 61.1109 99.1519 60.3254 98.7473 59.6254C98.3427 58.9255 97.7787 58.3308 97.1011 57.8898Z" fill="#455A64"/>
<path d="M76.1934 136.778C71.1074 136.778 66.9845 134.397 66.9845 131.46C66.9845 128.523 71.1074 126.141 76.1934 126.141C81.2794 126.141 85.4023 128.523 85.4023 131.46C85.4023 134.397 81.2794 136.778 76.1934 136.778Z" fill="#FDB844"/>
<g opacity="0.1">
<path opacity="0.1" d="M76.1934 136.778C71.1074 136.778 66.9845 134.397 66.9845 131.46C66.9845 128.523 71.1074 126.141 76.1934 126.141C81.2794 126.141 85.4023 128.523 85.4023 131.46C85.4023 134.397 81.2794 136.778 76.1934 136.778Z" fill="black"/>
</g>
<path d="M72.1764 107.935L72.1804 94.969L80.2088 94.9852L80.2129 107.935H72.1764Z" fill="#FDB844"/>
<path d="M76.1939 135.63C68.3544 135.63 61.9992 129.275 61.9992 121.436C61.9992 113.596 68.3544 107.241 76.1939 107.241C84.0335 107.241 90.3887 113.596 90.3887 121.436C90.3887 129.275 84.0335 135.63 76.1939 135.63Z" fill="#FDB844"/>
<path opacity="0.3" d="M72.9551 107.935L72.6914 95.9994L73.2715 96.1819V107.935H72.9551Z" fill="white"/>
<path opacity="0.1" d="M72.1962 97.4476C72.1962 97.4476 73.0076 98.1738 76.2084 98.1738C79.4092 98.1738 80.2246 97.4638 80.2246 97.4638V94.9851H72.1962V97.4476Z" fill="black"/>
<path opacity="0.1" d="M72.1962 95.5165C72.1962 95.5165 73.47 96.2468 76.2084 96.2468C78.9467 96.2468 80.2246 95.5328 80.2246 95.5328V94.9851H72.1962V95.5165Z" fill="black"/>
<path d="M72.7078 92.3726C74.6794 91.5612 77.8234 91.5612 79.7301 92.3726C81.6368 93.1839 81.6368 94.4415 79.7301 95.2123C77.8234 95.9831 74.6794 95.9993 72.7078 95.2123C70.7362 94.4253 70.7362 93.1474 72.7078 92.3726Z" fill="#FDB844"/>
<path opacity="0.3" d="M78.9902 93.8573C78.6454 94.121 77.4973 94.7093 74.5846 94.3766C72.0085 94.0805 72.3655 92.7823 74.4344 92.6322C76.5034 92.4821 78.9902 93.8573 78.9902 93.8573Z" fill="white"/>
<path d="M73.9384 92.7458C75.4328 92.3848 76.9917 92.3848 78.4861 92.7458C79.7234 93.1069 79.7234 93.687 78.4861 94.0481C76.9917 94.4091 75.4328 94.4091 73.9384 94.0481C72.6605 93.687 72.6605 93.1069 73.9384 92.7458Z" fill="#FDB844"/>
<path opacity="0.2" d="M73.9384 92.7458C75.4328 92.3848 76.9917 92.3848 78.4861 92.7458C79.7234 93.1069 79.7234 93.687 78.4861 94.0481C76.9917 94.4091 75.4328 94.4091 73.9384 94.0481C72.6605 93.687 72.6605 93.1069 73.9384 92.7458Z" fill="black"/>
<path opacity="0.1" d="M72.711 95.2124C72.2029 95.0433 71.7538 94.7321 71.4169 94.3158C73.1329 95.6627 77.3358 95.4761 79.0843 94.8838C80.8328 94.2915 80.8814 93.1191 80.1918 92.5754C81.6198 93.3868 81.4697 94.4903 79.7334 95.2124C77.8267 96.0237 74.6826 96.0237 72.711 95.2124Z" fill="black"/>
<path opacity="0.1" d="M73.9397 92.7458C74.6766 92.558 75.435 92.468 76.1953 92.4781V94.3158C75.435 94.3259 74.6766 94.2359 73.9397 94.048C72.6618 93.687 72.6618 93.1069 73.9397 92.7458Z" fill="black"/>
<path opacity="0.3" d="M72.7099 92.3726C74.5279 91.7427 76.4798 91.6027 78.3691 91.9669C78.1825 91.9669 74.6328 91.5612 72.7708 92.5227C71.148 93.3584 71.2211 94.1008 71.6511 94.5917C70.8519 93.8493 71.2008 92.9608 72.7099 92.3726Z" fill="white"/>
<path d="M63.6798 121.436C63.6798 124.757 64.9992 127.942 67.3478 130.291C69.6964 132.639 72.8818 133.959 76.2032 133.959C79.5246 133.959 82.7099 132.639 85.0585 130.291C87.4071 127.942 88.7265 124.757 88.7265 121.436C88.7313 119.726 88.3818 118.034 87.7001 116.466C87.2052 115.289 86.1626 114.174 84.5724 113.261C79.9517 110.592 72.4587 110.592 67.834 113.261C66.2437 114.174 65.2052 115.289 64.7062 116.466C64.0283 118.035 63.679 119.726 63.6798 121.436Z" fill="#37474F"/>
<path d="M63.6777 121.436C63.6774 119.747 64.0183 118.076 64.6797 116.523C65.6574 118.218 68.5864 123.326 68.5864 123.326C68.5864 127.878 71.8684 133.959 76.2051 133.959C72.8833 133.959 69.6975 132.64 67.3483 130.291C64.9991 127.943 63.6787 124.757 63.6777 121.436Z" fill="#263238"/>
<path d="M67.8241 122.924C72.4488 125.594 79.9418 125.594 84.5625 122.924C87.597 121.172 88.6436 118.705 87.6903 116.466C87.1953 115.289 86.1527 114.174 84.5625 113.261C79.9418 110.592 72.4488 110.592 67.8241 113.261C66.2338 114.174 65.1953 115.289 64.6963 116.466C63.747 118.705 64.7937 121.176 67.8241 122.924Z" fill="#455A64"/>
<g style="mix-blend-mode:hard-light" opacity="0.3">
<path d="M84.4164 120.799C87.3901 117.772 85.0249 113.496 82.9681 112.494C83.5165 112.713 84.0493 112.969 84.5625 113.261C86.1527 114.174 87.1953 115.289 87.6903 116.466C88.6436 118.705 87.597 121.172 84.5625 122.924C80.6517 125.184 74.6801 125.521 70.1324 123.955C75.2683 124.73 81.4874 123.776 84.4164 120.799Z" fill="white"/>
</g>
<g style="mix-blend-mode:hard-light" opacity="0.3">
<path d="M76.2855 109.671V95.8087C77.1989 95.8207 78.1095 95.706 78.9914 95.4679V108.486C81.939 109.072 84.5957 110.654 86.516 112.965C88.4364 115.277 89.5037 118.179 89.5391 121.184C89.5391 128.162 85.0279 134.665 76.18 134.665C88.1598 130.746 88.4762 114.145 76.2855 109.671Z" fill="white"/>
</g>
<path d="M127.568 99.0664C127.576 98.3625 127.802 97.6784 128.213 97.1069L138.278 82.3767V69.6018H145.775V82.3605L155.839 97.0907C156.246 97.6643 156.469 98.3473 156.48 99.0501C156.48 99.0826 156.48 99.111 156.48 99.1434C156.48 99.2205 156.48 99.2936 156.48 99.3706C156.478 99.5461 156.462 99.7211 156.432 99.894C156.144 101.776 154.752 103.614 152.257 105.058C146.61 108.304 137.454 108.304 131.807 105.058C128.967 103.436 127.56 101.265 127.576 99.115C127.572 99.111 127.568 99.0907 127.568 99.0664Z" fill="#FDB844"/>
<path opacity="0.3" d="M139.295 70.7335L138.755 70.5631L138.804 82.6889L132.557 92.4577L139.295 82.839V70.7335Z" fill="white"/>
<path opacity="0.1" d="M138.278 71.9141C138.278 71.9141 139.033 72.5956 142.027 72.5956C145.021 72.5956 145.775 71.9303 145.775 71.9303V69.6179H138.278V71.9141Z" fill="black"/>
<path opacity="0.1" d="M138.278 70.1129C138.278 70.1129 139.467 70.7944 142.027 70.7944C144.587 70.7944 145.775 70.1291 145.775 70.1291V69.6179H138.278V70.1129Z" fill="black"/>
<path d="M139.892 87.1555C142.224 86.8228 144.902 87.0338 146.723 87.7883C149.259 88.8391 149.259 90.5429 146.723 91.5896C144.188 92.6362 140.009 92.6403 137.393 91.5896C134.776 90.5389 134.772 88.8391 137.393 87.7883C138.2 87.481 139.04 87.2686 139.896 87.1555" fill="#455A64"/>
<path d="M138.775 67.1595C140.616 66.4252 143.549 66.4252 145.33 67.1595C147.111 67.8938 147.111 69.0946 145.33 69.8329C143.549 70.5712 140.616 70.5672 138.775 69.8329C136.933 69.0986 136.933 67.8978 138.775 67.1595Z" fill="#FDB844"/>
<path opacity="0.3" d="M144.637 68.5633C144.316 68.8107 143.241 69.3746 140.523 69.046C138.117 68.7702 138.45 67.5572 140.381 67.4233C142.312 67.2894 144.637 68.5633 144.637 68.5633Z" fill="white"/>
<path d="M139.916 67.5247C141.313 67.1879 142.77 67.1879 144.167 67.5247C145.319 67.8614 145.319 68.405 144.167 68.7417C142.77 69.0785 141.313 69.0785 139.916 68.7417C138.727 68.405 138.727 67.8614 139.916 67.5247Z" fill="#FDB844"/>
<path opacity="0.2" d="M139.916 67.5247C141.313 67.1879 142.77 67.1879 144.167 67.5247C145.319 67.8614 145.319 68.405 144.167 68.7417C142.77 69.0785 141.313 69.0785 139.916 68.7417C138.727 68.405 138.727 67.8614 139.916 67.5247Z" fill="black"/>
<g style="mix-blend-mode:hard-light" opacity="0.3">
<path d="M136.573 91.192C139.794 92.7661 144.934 91.833 146.35 90.4618C147.766 89.0906 145.786 87.687 144.261 87.1555C145.104 87.2659 145.931 87.4784 146.723 87.7884C149.259 88.8391 149.259 90.543 146.723 91.5896C144.188 92.6363 140.009 92.6403 137.393 91.5896C137.109 91.4802 136.835 91.3472 136.573 91.192Z" fill="white"/>
</g>
<path opacity="0.1" d="M138.772 69.833C138.295 69.6746 137.874 69.3849 137.555 68.9973C139.157 70.2508 143.084 70.0804 144.715 69.5246C146.346 68.9689 146.394 67.8776 145.754 67.3705C147.084 68.1088 146.946 69.1595 145.323 69.833C143.547 70.5672 140.614 70.5672 138.772 69.833Z" fill="black"/>
<path opacity="0.1" d="M139.916 67.5247C140.605 67.351 141.314 67.2664 142.025 67.2732V68.9933C141.314 69.0001 140.605 68.9155 139.916 68.7418C138.727 68.4051 138.727 67.8614 139.916 67.5247Z" fill="black"/>
<path opacity="0.3" d="M138.773 67.1596C140.468 66.5759 142.287 66.4499 144.047 66.7945C143.872 66.7945 140.562 66.4212 138.818 67.3137C137.3 68.0926 137.373 68.7864 137.771 69.2448C137.037 68.5551 137.365 67.7235 138.773 67.1596Z" fill="white"/>
<g style="mix-blend-mode:hard-light" opacity="0.3">
<path d="M143.371 83.6424V70.3077C143.929 70.2468 144.48 70.1271 145.014 69.9507V82.8391L155.176 97.6789C155.825 98.6526 155.359 100.056 154.815 101.2C154.361 102.15 152.9 103.399 151.902 103.983C150.054 105.108 147.998 105.851 145.858 106.166C145.858 106.166 150.032 103.983 150.856 102.34C151.472 101.123 150.925 99.2651 150.044 97.6789L143.371 83.6424Z" fill="white"/>
</g>
</svg>
