<svg width="374" height="169" viewBox="0 0 374 169" fill="none" xmlns="http://www.w3.org/2000/svg">
<rect width="374" height="169" rx="20" fill="#CEECFE"/>
<path d="M249.457 96C248.689 96 247.969 95.92 247.297 95.76C246.641 95.584 246.065 95.32 245.569 94.968C245.089 94.6 244.705 94.136 244.417 93.576C244.145 93 244.009 92.312 244.009 91.512C244.009 90.984 244.073 90.376 244.201 89.688C244.329 89 244.537 88.32 244.825 87.648L247.753 88.536C247.561 89.144 247.433 89.624 247.369 89.976C247.305 90.312 247.273 90.608 247.273 90.864C247.273 91.68 247.537 92.296 248.065 92.712C248.609 93.112 249.385 93.312 250.393 93.312H257.737C258.249 93.312 258.673 93.272 259.009 93.192C259.345 93.112 259.617 92.968 259.825 92.76C260.033 92.536 260.177 92.24 260.257 91.872C260.337 91.488 260.377 91.008 260.377 90.432V85.272H263.665V91.872C263.665 92.496 263.593 93.064 263.449 93.576C263.305 94.072 263.065 94.504 262.729 94.872C262.409 95.224 261.969 95.504 261.409 95.712C260.865 95.904 260.185 96 259.369 96H249.457ZM250.057 82.632C250.057 82.136 250.217 81.728 250.537 81.408C250.857 81.088 251.273 80.928 251.785 80.928C252.281 80.928 252.681 81.088 252.985 81.408C253.305 81.728 253.465 82.136 253.465 82.632C253.465 83.144 253.305 83.56 252.985 83.88C252.681 84.2 252.281 84.36 251.785 84.36C251.273 84.36 250.857 84.2 250.537 83.88C250.217 83.56 250.057 83.144 250.057 82.632ZM254.305 82.632C254.305 82.136 254.465 81.728 254.785 81.408C255.105 81.088 255.521 80.928 256.033 80.928C256.529 80.928 256.929 81.088 257.233 81.408C257.553 81.728 257.713 82.136 257.713 82.632C257.713 83.144 257.553 83.56 257.233 83.88C256.929 84.2 256.529 84.36 256.033 84.36C255.521 84.36 255.105 84.2 254.785 83.88C254.465 83.56 254.305 83.144 254.305 82.632ZM272.27 94.68C272.27 95.144 272.254 95.48 272.222 95.688C272.206 95.896 272.174 96 272.126 96C271.39 96 270.678 95.952 269.99 95.856C269.302 95.744 268.678 95.552 268.118 95.28C267.574 94.992 267.15 94.608 266.846 94.128C266.542 93.632 266.39 93.032 266.39 92.328V78.36H269.678V91.272C269.678 91.656 269.726 91.992 269.822 92.28C269.934 92.552 270.086 92.768 270.278 92.928C270.486 93.072 270.71 93.176 270.95 93.24C271.19 93.288 271.438 93.312 271.694 93.312C271.902 93.312 272.046 93.424 272.126 93.648C272.222 93.872 272.27 94.216 272.27 94.68ZM273.985 81.216C273.985 80.72 274.145 80.312 274.465 79.992C274.801 79.672 275.217 79.512 275.713 79.512C276.209 79.512 276.609 79.672 276.913 79.992C277.233 80.312 277.393 80.72 277.393 81.216C277.393 81.728 277.233 82.144 276.913 82.464C276.609 82.784 276.209 82.944 275.713 82.944C275.201 82.944 274.785 82.784 274.465 82.464C274.145 82.128 273.985 81.712 273.985 81.216ZM271.513 93.312C272.009 93.312 272.417 93.272 272.737 93.192C273.073 93.096 273.329 92.96 273.505 92.784C273.681 92.592 273.801 92.36 273.865 92.088C273.929 91.816 273.961 91.488 273.961 91.104V85.272H277.225V91.68C277.225 92.432 277.137 93.072 276.961 93.6C276.785 94.128 276.489 94.576 276.073 94.944C275.673 95.296 275.137 95.56 274.465 95.736C273.793 95.912 272.953 96 271.945 96C271.529 96 271.217 95.896 271.009 95.688C270.801 95.464 270.697 95.144 270.697 94.728C270.697 94.28 270.769 93.936 270.913 93.696C271.041 93.44 271.241 93.312 271.513 93.312ZM291.625 94.416C291.257 94.976 290.753 95.384 290.113 95.64C289.489 95.88 288.713 96 287.785 96H279.169V93.312H286.393C287.369 93.312 288.057 93.104 288.457 92.688C288.857 92.256 289.057 91.504 289.057 90.432V78.36H292.321V91.008C292.321 91.712 292.561 92.272 293.041 92.688C293.537 93.104 294.193 93.312 295.009 93.312C295.249 93.312 295.425 93.416 295.537 93.624C295.649 93.832 295.705 94.168 295.705 94.632C295.705 95.192 295.689 95.56 295.657 95.736C295.625 95.912 295.553 96 295.441 96C295.137 96 294.793 95.976 294.409 95.928C294.041 95.864 293.689 95.776 293.353 95.664C293.033 95.536 292.713 95.376 292.393 95.184C292.089 94.976 291.833 94.72 291.625 94.416ZM282.409 81.048H285.673V92.184H282.409V81.048ZM295.172 96C294.756 96 294.444 95.896 294.236 95.688C294.028 95.464 293.924 95.144 293.924 94.728C293.924 94.264 293.996 93.912 294.14 93.672C294.284 93.432 294.484 93.312 294.74 93.312H296.924C296.636 92.864 296.412 92.408 296.252 91.944C296.092 91.464 296.012 90.992 296.012 90.528C296.012 89.632 296.172 88.84 296.492 88.152C296.828 87.448 297.276 86.872 297.836 86.424C298.396 85.976 299.036 85.64 299.756 85.416C300.476 85.192 301.236 85.08 302.036 85.08C302.66 85.08 303.284 85.128 303.908 85.224C304.548 85.304 305.092 85.424 305.54 85.584L304.988 88.128C304.748 88.064 304.388 88 303.908 87.936C303.444 87.856 302.972 87.816 302.492 87.816C302.156 87.816 301.804 87.864 301.436 87.96C301.084 88.04 300.756 88.184 300.452 88.392C300.148 88.584 299.892 88.856 299.684 89.208C299.492 89.56 299.396 90 299.396 90.528C299.396 91.408 299.684 92.096 300.26 92.592C300.852 93.072 301.644 93.312 302.636 93.312H305.9V96H295.172ZM314.404 93.312C315.38 93.312 316.068 93.104 316.468 92.688C316.868 92.272 317.068 91.52 317.068 90.432V78.36H320.332V91.512C320.332 93.048 319.972 94.184 319.252 94.92C318.532 95.64 317.38 96 315.796 96H307.18V93.312H314.404ZM310.42 81.048H313.684V92.184H310.42V81.048ZM310.324 101.256C310.1 100.84 309.988 100.448 309.988 100.08C309.988 99.328 310.22 98.728 310.684 98.28C311.164 97.832 311.82 97.608 312.652 97.608C312.86 97.608 313.084 97.624 313.324 97.656C313.564 97.688 313.82 97.744 314.092 97.824L313.78 99.144C313.46 99.032 313.1 98.976 312.7 98.976C312.268 98.976 311.94 99.072 311.716 99.264C311.492 99.472 311.38 99.752 311.38 100.104C311.38 100.472 311.5 100.752 311.74 100.944C311.98 101.152 312.34 101.256 312.82 101.256H314.284V102.624H309.364V101.256H310.324ZM326.45 78.36V96H323.162V78.36H326.45Z" fill="black"/>
<path d="M190.62 49.1064C190.656 39.7021 190.495 30.2979 190.531 20.8936C190.531 17.0355 191.426 17.0355 191.426 20.8936C191.39 30.2979 191.569 39.7021 191.515 49.1064C191.497 52.9645 190.584 52.9645 190.62 49.1064Z" fill="white"/>
<path d="M98.6201 164.106C98.6559 154.702 98.4948 145.298 98.5306 135.894C98.5306 132.035 99.4257 132.035 99.4257 135.894C99.3899 145.298 99.569 154.702 99.5153 164.106C99.4974 167.965 98.5843 167.965 98.6201 164.106Z" fill="white"/>
<path d="M45.6211 31.8723C45.6569 24.9575 45.4958 18.0425 45.5316 11.1277C45.5316 8.29078 46.4267 8.29078 46.4267 11.1277C46.3909 18.0425 46.5699 24.9575 46.5162 31.8723C46.4983 34.7092 45.5853 34.7092 45.6211 31.8723Z" fill="white"/>
<path d="M23.9126 34.9042C23.0469 29.5112 26.7169 24.4376 32.1098 23.5718C37.5028 22.7061 42.5765 26.3761 43.4422 31.7691C44.3079 37.162 40.6379 42.2357 35.245 43.1014C29.852 43.9672 24.7783 40.2971 23.9126 34.9042Z" fill="#EBEBEB"/>
<path d="M23.8322 34.4813C23.3219 29.2956 27.1121 24.6782 32.2977 24.1679C37.4834 23.6576 42.1009 27.4477 42.6112 32.6334C43.1215 37.8191 39.3313 42.4366 34.1457 42.9468C28.96 43.4571 24.3425 39.667 23.8322 34.4813Z" fill="#DBDBDB"/>
<path d="M24.4321 34.4201C23.954 29.5615 27.5051 25.2352 32.3638 24.7571C37.2225 24.2789 41.5488 27.8301 42.0269 32.6888C42.505 37.5474 38.9539 41.8737 34.0952 42.3518C29.2365 42.8299 24.9102 39.2788 24.4321 34.4201Z" fill="white"/>
<path opacity="0.5" d="M24.5826 31.6799C28.6074 34.118 35.2249 38.1195 38.923 40.3127C39.9687 39.4313 40.7954 38.3191 41.3379 37.0637L29.109 25.7302C27.9662 26.3317 26.9689 27.1759 26.1869 28.2037C25.405 29.2315 24.8574 30.418 24.5826 31.6799Z" fill="#EBEBEB"/>
<path opacity="0.5" d="M24.3909 33.8643C24.4215 34.8479 24.6188 35.8193 24.9742 36.737L36.0014 41.9517C36.481 41.7916 36.9464 41.5916 37.3926 41.3538C34.0619 39.4289 27.9752 35.9262 24.3909 33.8643Z" fill="#EBEBEB"/>
<path d="M33.1385 25.3569H33.3105V26.6955H33.1385V25.3569Z" fill="#C7C7C7"/>
<path d="M37.2514 26.4049L37.4004 26.491L36.7311 27.6503L36.582 27.5642L37.2514 26.4049Z" fill="#C7C7C7"/>
<path d="M40.2655 29.3881L40.3516 29.5371L39.1924 30.2066L39.1063 30.0576L40.2655 29.3881Z" fill="#C7C7C7"/>
<path d="M40.0852 33.4705H41.4238V33.6426H40.0852V33.4705Z" fill="#C7C7C7"/>
<path d="M39.2118 36.9049L40.3711 37.5742L40.2851 37.7232L39.1257 37.0539L39.2118 36.9049Z" fill="#C7C7C7"/>
<path d="M36.7377 39.4464L37.4062 40.6062L37.2572 40.6921L36.5886 39.5323L36.7377 39.4464Z" fill="#C7C7C7"/>
<path d="M33.1385 40.4147H33.3105V41.7534H33.1385V40.4147Z" fill="#C7C7C7"/>
<path d="M29.7172 39.4533L29.8662 39.5394L29.1969 40.6987L29.0478 40.6126L29.7172 39.4533Z" fill="#C7C7C7"/>
<path d="M27.2509 36.9013L27.3369 37.0504L26.1776 37.7197L26.0916 37.5707L27.2509 36.9013Z" fill="#C7C7C7"/>
<path d="M25.0266 33.4705H26.3652V33.6426H25.0266V33.4705Z" fill="#C7C7C7"/>
<path d="M26.1718 29.3737L27.3311 30.0432L27.245 30.1922L26.0858 29.5227L26.1718 29.3737Z" fill="#C7C7C7"/>
<path d="M29.1936 26.4203L29.8623 27.58L29.7132 27.666L29.0445 26.5063L29.1936 26.4203Z" fill="#C7C7C7"/>
<path d="M33.0972 25.9635L32.8055 34.1531L33.6426 34.1414L33.3247 25.9606L33.0972 25.9635Z" fill="#C7C7C7"/>
<path d="M27.9955 30.6999L33.5047 34.2172L33.9043 33.4793L28.1034 30.4987L27.9955 30.6999Z" fill="#A6A6A6"/>
<path d="M32.9343 33.5551C32.9343 33.6128 32.9514 33.6692 32.9834 33.7172C33.0155 33.7651 33.061 33.8025 33.1143 33.8246C33.1676 33.8467 33.2262 33.8524 33.2828 33.8412C33.3394 33.8299 33.3914 33.8022 33.4322 33.7614C33.4729 33.7206 33.5007 33.6686 33.512 33.612C33.5232 33.5555 33.5175 33.4968 33.4954 33.4435C33.4733 33.3902 33.4359 33.3447 33.388 33.3126C33.34 33.2806 33.2836 33.2635 33.2259 33.2635C33.1486 33.2635 33.0744 33.2942 33.0197 33.3489C32.965 33.4036 32.9343 33.4778 32.9343 33.5551Z" fill="#C7C7C7"/>
<path d="M141.281 23.6478H198.885V63.5104H141.281V23.6478Z" fill="#DBDBDB"/>
<path d="M143.635 26.0014H196.531V61.1772H143.635V26.0014Z" fill="#EBEBEB"/>
<path d="M182.031 32.8464H192.965V45.8044H182.031V32.8464Z" fill="white"/>
<path d="M187.105 33.7272C187.105 33.8048 187.127 33.8809 187.17 33.9458C187.212 34.0107 187.273 34.0616 187.344 34.0921C187.416 34.1226 187.494 34.1313 187.571 34.1172C187.647 34.103 187.717 34.0666 187.773 34.0125C187.829 33.9584 187.867 33.8891 187.884 33.8133C187.9 33.7374 187.894 33.6584 187.865 33.5861C187.837 33.5139 187.788 33.4516 187.724 33.4072C187.661 33.3628 187.585 33.3381 187.508 33.3364C187.455 33.3349 187.403 33.3438 187.354 33.3627C187.306 33.3817 187.261 33.4102 187.224 33.4467C187.186 33.4831 187.156 33.5267 187.136 33.5749C187.116 33.6231 187.105 33.6749 187.105 33.7272Z" fill="#455A64"/>
<path d="M190.885 35.4421C189.779 35.3575 188.671 35.3516 187.566 35.34C186.46 35.3283 185.355 35.3575 184.25 35.4421C185.355 35.5296 186.46 35.5325 187.566 35.5441C188.671 35.5558 189.779 35.5266 190.885 35.4421Z" fill="#EBEBEB"/>
<path d="M190.885 36.4658C189.686 36.3297 188.476 36.3297 187.277 36.4658C188.476 36.6019 189.686 36.6019 190.885 36.4658Z" fill="#EBEBEB"/>
<path d="M190.885 37.4895C190.115 37.4108 189.348 37.3903 188.581 37.3874C187.814 37.3845 187.044 37.4108 186.277 37.4895C187.044 37.5712 187.811 37.5887 188.581 37.5945C189.351 37.6003 190.115 37.5712 190.885 37.4895Z" fill="#EBEBEB"/>
<path d="M190.885 38.5132C189.922 38.4345 188.963 38.417 188 38.4111C187.038 38.4053 186.078 38.4345 185.119 38.5132C186.078 38.5949 187.041 38.6124 188 38.6182C188.96 38.624 189.922 38.5949 190.885 38.5132Z" fill="#EBEBEB"/>
<path d="M190.885 39.5398C190.048 39.4581 189.214 39.4406 188.379 39.4348C187.545 39.429 186.711 39.4581 185.874 39.5398C186.711 39.6185 187.545 39.639 188.379 39.6419C189.214 39.6448 190.048 39.6185 190.885 39.5398Z" fill="#EBEBEB"/>
<path d="M190.885 40.5635C189.814 40.4789 188.747 40.473 187.677 40.4585C186.606 40.4439 185.539 40.476 184.468 40.5635C185.539 40.648 186.606 40.6539 187.677 40.6655C188.747 40.6772 189.814 40.648 190.885 40.5635Z" fill="#EBEBEB"/>
<path d="M190.885 41.5871C189.508 41.4471 188.12 41.4471 186.743 41.5871C188.12 41.7232 189.508 41.7232 190.885 41.5871Z" fill="#EBEBEB"/>
<path d="M190.885 42.6109C189.779 42.5264 188.671 42.5205 187.566 42.5089C186.46 42.4972 185.355 42.5089 184.25 42.6109C185.355 42.6955 186.46 42.7013 187.566 42.713C188.671 42.7247 189.779 42.7101 190.885 42.6109Z" fill="#EBEBEB"/>
<path d="M190.885 43.6346C189.779 43.55 188.671 43.5442 187.566 43.5325C186.46 43.5208 185.355 43.55 184.25 43.6346C185.355 43.7191 186.46 43.725 187.566 43.7366C188.671 43.7483 189.779 43.7191 190.885 43.6346Z" fill="#EBEBEB"/>
<path d="M146.595 28.8625H157.529V41.8205H146.595V28.8625Z" fill="white"/>
<path d="M151.666 29.7433C151.666 29.8212 151.689 29.8973 151.732 29.962C151.775 30.0268 151.837 30.0772 151.909 30.107C151.981 30.1368 152.06 30.1446 152.136 30.1294C152.213 30.1143 152.283 30.0768 152.338 30.0217C152.393 29.9666 152.43 29.8965 152.446 29.8201C152.461 29.7437 152.453 29.6646 152.423 29.5926C152.393 29.5207 152.343 29.4592 152.278 29.4159C152.213 29.3726 152.137 29.3496 152.059 29.3496C152.008 29.3492 151.956 29.3591 151.908 29.3787C151.86 29.3984 151.817 29.4274 151.78 29.464C151.743 29.5007 151.715 29.5442 151.695 29.5922C151.675 29.6401 151.665 29.6915 151.666 29.7433Z" fill="#455A64"/>
<path d="M155.445 31.4552C154.34 31.3707 153.235 31.3648 152.129 31.3532C151.024 31.3415 149.919 31.3707 148.813 31.4552C149.919 31.5427 151.024 31.5486 152.129 31.5602C153.235 31.5719 154.34 31.5427 155.445 31.4552Z" fill="#EBEBEB"/>
<path d="M155.445 32.4819C154.847 32.4091 154.245 32.374 153.643 32.3769C153.04 32.3726 152.438 32.4077 151.841 32.4819C152.439 32.5537 153.041 32.5877 153.643 32.5839C154.245 32.5863 154.847 32.5522 155.445 32.4819Z" fill="#EBEBEB"/>
<path d="M155.445 33.5056C154.678 33.4239 153.908 33.4064 153.141 33.4006C152.374 33.3947 151.604 33.4239 150.837 33.5056C151.604 33.5843 152.374 33.6047 153.141 33.6076C153.908 33.6105 154.678 33.5843 155.445 33.5056Z" fill="#EBEBEB"/>
<path d="M155.445 34.5438C154.486 34.4621 153.523 34.4446 152.564 34.4388C151.604 34.4329 150.642 34.4621 149.679 34.5438C150.642 34.6225 151.601 34.6429 152.564 34.6458C153.526 34.6488 154.486 34.6079 155.445 34.5438Z" fill="#EBEBEB"/>
<path d="M155.445 35.5529C154.611 35.4713 153.777 35.4538 152.94 35.4509C152.103 35.4479 151.272 35.4713 150.438 35.5529C151.272 35.6317 152.106 35.6521 152.94 35.655C153.774 35.6579 154.611 35.6317 155.445 35.5529Z" fill="#EBEBEB"/>
<path d="M155.445 36.5854C154.378 36.5008 153.308 36.495 152.237 36.4833C151.167 36.4716 150.099 36.5008 149.029 36.5854C150.096 36.6699 151.167 36.6758 152.237 36.6874C153.308 36.6991 154.378 36.6612 155.445 36.5854Z" fill="#EBEBEB"/>
<path d="M155.445 37.6003C154.757 37.5285 154.066 37.4944 153.375 37.4982C152.683 37.493 151.992 37.5271 151.304 37.6003C152.681 37.7364 154.068 37.7364 155.445 37.6003Z" fill="#EBEBEB"/>
<path d="M155.445 38.6269C154.34 38.5424 153.235 38.5365 152.129 38.5249C151.024 38.5132 149.919 38.5424 148.813 38.6269C149.919 38.7144 151.024 38.7173 152.129 38.729C153.235 38.7407 154.34 38.7086 155.445 38.6269Z" fill="#EBEBEB"/>
<path d="M155.445 39.6476C154.34 39.563 153.235 39.5572 152.129 39.5455C151.024 39.5339 149.919 39.563 148.813 39.6476C149.919 39.7351 151.024 39.738 152.129 39.7526C153.235 39.7672 154.34 39.7322 155.445 39.6476Z" fill="#EBEBEB"/>
<path d="M160.798 39.4144H173.738V54.7464H160.798V39.4144Z" fill="white"/>
<path d="M166.877 41.4822C166.877 41.56 166.9 41.6362 166.943 41.7009C166.986 41.7657 167.048 41.8161 167.12 41.8459C167.192 41.8757 167.271 41.8835 167.347 41.8683C167.424 41.8531 167.494 41.8156 167.549 41.7606C167.604 41.7055 167.641 41.6354 167.656 41.559C167.672 41.4826 167.664 41.4034 167.634 41.3315C167.604 41.2595 167.554 41.1981 167.489 41.1548C167.424 41.1115 167.348 41.0884 167.27 41.0884C167.166 41.0884 167.066 41.1299 166.992 41.2038C166.918 41.2776 166.877 41.3777 166.877 41.4822Z" fill="#455A64"/>
<path d="M171.928 43.2379C170.976 43.1018 170.01 43.1018 169.058 43.2379C170.01 43.374 170.976 43.374 171.928 43.2379Z" fill="#EBEBEB"/>
<path d="M171.928 44.3957C170.693 44.2557 169.447 44.2557 168.212 44.3957C168.829 44.4675 169.449 44.5016 170.07 44.4978C170.691 44.5001 171.311 44.466 171.928 44.3957Z" fill="#EBEBEB"/>
<path d="M171.928 45.5506C170.785 45.4145 169.629 45.4145 168.486 45.5506C169.057 45.6239 169.632 45.658 170.207 45.6527C170.782 45.6565 171.357 45.6224 171.928 45.5506Z" fill="#EBEBEB"/>
<path d="M171.928 46.7056C170.785 46.5695 169.629 46.5695 168.486 46.7056C169.629 46.8456 170.785 46.8456 171.928 46.7056Z" fill="#EBEBEB"/>
<path d="M171.928 47.8634C170.936 47.7234 169.93 47.7234 168.938 47.8634C169.93 47.9995 170.936 47.9995 171.928 47.8634Z" fill="#EBEBEB"/>
<path d="M171.928 49.0183C171.293 48.9465 170.654 48.9124 170.015 48.9163C169.375 48.9109 168.736 48.945 168.101 49.0183C169.373 49.1544 170.656 49.1544 171.928 49.0183Z" fill="#EBEBEB"/>
<path d="M171.928 50.1733C171.404 50.103 170.876 50.0689 170.347 50.0712C169.819 50.0674 169.292 50.1015 168.769 50.1733C169.817 50.3133 170.88 50.3133 171.928 50.1733Z" fill="#EBEBEB"/>
<path d="M171.928 51.3311C170.611 51.195 169.284 51.195 167.967 51.3311C169.284 51.4673 170.611 51.4673 171.928 51.3311Z" fill="#EBEBEB"/>
<path d="M171.928 52.486C170.611 52.3499 169.284 52.3499 167.967 52.486C169.284 52.6222 170.611 52.6222 171.928 52.486Z" fill="#EBEBEB"/>
<path d="M166.273 43.2379C165.024 43.1018 163.764 43.1018 162.514 43.2379C163.764 43.374 165.024 43.374 166.273 43.2379Z" fill="#EBEBEB"/>
<path d="M166.273 44.3957C165.456 44.2557 164.621 44.2557 163.803 44.3957C164.211 44.4674 164.625 44.5016 165.04 44.4978C165.453 44.5 165.866 44.4659 166.273 44.3957Z" fill="#EBEBEB"/>
<path d="M166.273 45.5506C165.098 45.4145 163.911 45.4145 162.736 45.5506C163.323 45.6238 163.914 45.6579 164.506 45.6527C165.097 45.6565 165.687 45.6224 166.273 45.5506Z" fill="#EBEBEB"/>
<path d="M166.273 46.7056C165.13 46.5695 163.975 46.5695 162.832 46.7056C163.975 46.8456 165.131 46.8456 166.273 46.7056Z" fill="#EBEBEB"/>
<path d="M166.273 47.8634C165.024 47.7234 163.763 47.7234 162.514 47.8634C163.764 47.9995 165.024 47.9995 166.273 47.8634Z" fill="#EBEBEB"/>
<path d="M166.273 49.0184C165.779 48.9466 165.28 48.9125 164.78 48.9163C164.28 48.9111 163.779 48.9452 163.284 49.0184C164.276 49.1545 165.282 49.1545 166.273 49.0184Z" fill="#EBEBEB"/>
<path d="M166.273 50.1733C165.687 50.1029 165.097 50.0689 164.506 50.0712C163.914 50.0675 163.323 50.1016 162.736 50.1733C163.911 50.3133 165.098 50.3133 166.273 50.1733Z" fill="#EBEBEB"/>
<path d="M166.273 51.3311C165.367 51.195 164.445 51.195 163.538 51.3311C164.445 51.4672 165.367 51.4672 166.273 51.3311Z" fill="#EBEBEB"/>
<path d="M166.273 52.486C165.404 52.3499 164.518 52.3499 163.649 52.486C164.518 52.6221 165.404 52.6221 166.273 52.486Z" fill="#EBEBEB"/>
<path d="M176.458 29.2854H183.037V35.865H176.458V29.2854Z" fill="#F9C24E"/>
<path d="M179.341 29.9533C179.341 30.0312 179.365 30.1073 179.408 30.172C179.451 30.2368 179.513 30.2873 179.585 30.3171C179.656 30.3469 179.736 30.3546 179.812 30.3395C179.888 30.3243 179.959 30.2868 180.014 30.2317C180.069 30.1766 180.106 30.1065 180.121 30.0301C180.137 29.9537 180.129 29.8746 180.099 29.8026C180.069 29.7307 180.019 29.6692 179.954 29.6259C179.889 29.5827 179.813 29.5596 179.735 29.5596C179.631 29.5596 179.531 29.601 179.457 29.6749C179.383 29.7487 179.341 29.8489 179.341 29.9533Z" fill="#455A64"/>
<path d="M143.666 26.0014H144.553V61.2151H143.666V26.0014Z" fill="#C7C7C7"/>
<path d="M112.262 147.482C61.1763 147.482 19.7629 144.538 19.7629 140.905C19.7629 137.273 61.1763 134.329 112.262 134.329C163.348 134.329 204.762 137.273 204.762 140.905C204.762 144.538 163.348 147.482 112.262 147.482Z" fill="#EBEBEB"/>
<path d="M212.525 125.993L187.458 125.85L162.394 125.769L112.262 125.702L62.1307 125.769L37.0664 125.85L11.9991 125.993L37.0664 126.136L62.1307 126.218L112.262 126.285L162.394 126.215L187.458 126.136L212.525 125.993Z" fill="#37474F"/>
<path d="M193.847 71.7992C193.847 71.7992 201.457 70.7346 199.68 61.5535C199.678 61.5535 191.179 63.4609 193.847 71.7992Z" fill="#F9C24E"/>
<path opacity="0.1" d="M193.847 71.7992C193.847 71.7992 201.457 70.7346 199.68 61.5535C199.678 61.5535 191.179 63.4609 193.847 71.7992Z" fill="black"/>
<path d="M194.232 69.8831C194.382 69.4187 194.555 68.9622 194.751 68.5152C194.751 68.4569 194.751 68.3986 194.768 68.3402C194.768 68.2148 194.791 68.0894 194.8 67.9611C194.824 67.6869 194.841 67.4128 194.856 67.1386C194.888 66.5903 194.923 66.042 194.931 65.4937C194.931 65.4875 194.934 65.4816 194.938 65.4772C194.943 65.4729 194.949 65.4704 194.955 65.4704C194.961 65.4704 194.967 65.4729 194.971 65.4772C194.976 65.4816 194.978 65.4875 194.978 65.4937C194.978 66.045 194.978 66.5933 194.978 67.1416C194.978 67.4157 194.952 67.6899 194.934 67.964C194.934 68.0252 194.934 68.0865 194.934 68.1477C195.361 67.2335 195.872 66.3607 196.46 65.5404C196.72 65.1746 196.998 64.8222 197.294 64.4846C197.585 64.1376 197.915 63.808 198.224 63.4639C198.242 63.4405 198.277 63.4639 198.256 63.4989C197.712 64.1029 197.224 64.755 196.798 65.4471C196.568 65.7971 196.349 66.1558 196.142 66.5203L196.212 66.4941L196.483 66.3833L197.104 66.147C197.513 65.9954 197.921 65.8554 198.326 65.6921C198.353 65.6921 198.367 65.7271 198.344 65.7358C197.938 65.8962 197.539 66.0683 197.139 66.2404L196.556 66.4941L196.264 66.6166C196.2 66.6468 196.132 66.6703 196.063 66.6866C195.909 66.9636 195.771 67.2378 195.617 67.5207C195.265 68.2318 194.955 68.9632 194.689 69.711C194.669 69.7635 194.652 69.8189 194.634 69.8714C194.833 69.7568 195.042 69.6592 195.258 69.5797C195.518 69.4572 195.783 69.3406 196.046 69.2181C196.576 68.9731 197.107 68.7252 197.62 68.4365C197.644 68.4219 197.667 68.4627 197.641 68.4773C197.119 68.769 196.606 69.0606 196.083 69.3523C195.821 69.4922 195.559 69.6439 195.29 69.7606C195.07 69.8962 194.828 69.9947 194.576 70.0522C194.321 70.7483 194.154 71.4732 194.077 72.2104C193.992 73.2487 194.001 74.2957 193.978 75.3369C193.978 75.3544 193.952 75.3544 193.949 75.3369C193.873 74.3919 193.832 73.4383 193.826 72.4904C193.821 71.6052 193.958 70.7249 194.232 69.8831Z" fill="#263238"/>
<path d="M195.405 64.4847C195.477 65.021 195.502 65.5626 195.481 66.1033H195.458C195.425 65.5638 195.423 65.0301 195.358 64.4934C195.355 64.4643 195.402 64.4526 195.405 64.4847Z" fill="#263238"/>
<path d="M197.58 64.9424C197.92 64.8129 198.247 64.6518 198.557 64.4612C198.58 64.4466 198.604 64.4875 198.58 64.5021C198.276 64.7075 197.943 64.8668 197.591 64.9745C197.588 64.975 197.584 64.9742 197.58 64.9721C197.577 64.97 197.574 64.9669 197.573 64.9631C197.571 64.9594 197.571 64.9553 197.573 64.9516C197.574 64.9478 197.576 64.9446 197.58 64.9424Z" fill="#263238"/>
<path d="M193.606 86.3787C193.606 85.5388 193.629 84.6988 193.638 83.856C193.638 81.0649 193.676 78.2738 193.728 75.4827C193.765 73.2662 193.817 71.0506 193.883 68.836C193.883 68.8301 193.885 68.8243 193.888 68.8192C193.891 68.8141 193.895 68.8098 193.901 68.8069V66.9899C193.901 66.9753 193.921 66.9695 193.938 66.9695C193.956 66.9695 193.973 66.9695 193.973 66.9928C193.973 67.5994 193.973 68.2051 193.973 68.8098C193.973 68.8098 193.991 68.8098 193.991 68.836C194.105 72.7821 194.204 76.7106 194.227 80.6712C194.227 81.4732 194.227 82.2752 194.227 83.0773C194.256 85.6496 194.267 88.2219 194.259 90.7943V92.0221C194.259 94.3757 194.233 96.7264 194.233 99.08C194.233 99.2084 194.093 99.2696 193.941 99.2755C193.79 99.2813 193.588 99.2142 193.588 99.0713C193.588 96.4756 193.571 93.8799 193.571 91.2872C193.6 89.6656 193.594 88.0149 193.606 86.3787Z" fill="#263238"/>
<path d="M196.781 83.8327C196.781 83.8327 200.441 81.1232 203.912 82.9577C207.382 84.7922 207.922 91.8384 207.922 91.8384C207.922 91.8384 202.821 92.5676 199.61 89.5052C196.524 86.5654 196.781 83.8327 196.781 83.8327Z" fill="#F9C24E"/>
<path d="M195.783 83.993C196.455 83.7217 197.184 83.6215 197.904 83.7013C198.052 83.6765 198.202 83.6619 198.353 83.6576L198.881 83.6343C199.237 83.6051 199.592 83.5847 199.945 83.5584C200.669 83.503 201.404 83.4593 202.112 83.3864C202.139 83.3864 202.144 83.4301 202.112 83.433C201.398 83.5234 200.689 83.6255 199.974 83.6984C199.607 83.7363 199.24 83.7742 198.869 83.8005L198.589 83.8326C198.7 83.8559 198.808 83.8822 198.916 83.9113C199.489 84.0789 200.045 84.3046 200.572 84.585C200.864 84.6375 201.156 84.7192 201.43 84.7833C201.885 84.8913 202.334 85.0079 202.783 85.1246C203.658 85.3579 204.55 85.6204 205.434 85.877C205.439 85.8796 205.443 85.8838 205.445 85.889C205.447 85.8941 205.447 85.8999 205.446 85.9052C205.444 85.9104 205.44 85.9149 205.435 85.9178C205.431 85.9206 205.425 85.9217 205.42 85.9208C204.545 85.705 203.652 85.5066 202.771 85.2967C202.343 85.1946 201.896 85.0954 201.482 84.9875L201.147 84.9117C202.13 85.5202 203.009 86.2835 203.748 87.172C204.461 88.0471 205.068 89.0036 205.557 90.0214C205.557 90.0476 205.53 90.0739 205.516 90.0476C204.915 88.9998 204.179 88.0351 203.328 87.1778C203.346 87.2245 203.361 87.274 203.378 87.3236L203.579 87.9682C203.716 88.3998 203.853 88.8431 203.982 89.2631C203.982 89.2922 203.947 89.301 203.935 89.2631C203.783 88.846 203.643 88.426 203.489 88.0061L203.27 87.3878C203.235 87.2799 203.197 87.1749 203.162 87.067L203.127 86.9678C202.721 86.5754 202.289 86.2101 201.835 85.8741C201.232 85.4308 200.58 85.0571 199.893 84.76C199.893 84.8242 199.916 84.8883 199.931 84.9467C199.966 85.1158 200.004 85.2821 200.036 85.4483C200.109 85.7954 200.176 86.1424 200.243 86.4895C200.38 87.1982 200.467 87.9157 200.599 88.6215C200.599 88.6506 200.561 88.6623 200.555 88.6215C200.392 87.9098 200.179 87.2099 200.021 86.4953C199.939 86.1395 199.861 85.7808 199.785 85.425C199.753 85.2558 199.718 85.0896 199.686 84.9233C199.665 84.83 199.645 84.7367 199.633 84.6317L199.435 84.5471C198.475 84.1942 197.414 83.9347 196.39 84.1301C195.906 84.2209 195.452 84.4297 195.068 84.738C194.684 85.0463 194.382 85.4445 194.188 85.8974C194.156 85.9762 194.028 85.9266 194.048 85.845C194.246 84.9992 194.981 84.3313 195.783 83.993Z" fill="#263238"/>
<path d="M201.386 87.0088C201.488 87.4725 201.593 87.9362 201.695 88.3999C201.811 88.8438 201.895 89.2949 201.949 89.7503C201.949 89.7707 201.926 89.7707 201.92 89.7503C201.786 89.3038 201.683 88.8488 201.611 88.3883L201.34 87.0146C201.339 87.0084 201.341 87.0022 201.344 86.9972C201.348 86.9923 201.354 86.9891 201.36 86.9883C201.366 86.9876 201.373 86.9893 201.377 86.9931C201.382 86.9969 201.386 87.0026 201.386 87.0088Z" fill="#263238"/>
<path d="M204.924 88.187C205.391 88.4232 205.843 88.6916 206.33 88.8841C206.333 88.8854 206.335 88.8873 206.337 88.8896C206.34 88.892 206.341 88.8947 206.342 88.8977C206.343 88.9007 206.344 88.9038 206.344 88.907C206.344 88.9102 206.343 88.9133 206.341 88.9161C206.34 88.919 206.338 88.9216 206.336 88.9237C206.334 88.9259 206.331 88.9275 206.328 88.9286C206.325 88.9297 206.322 88.9302 206.319 88.93C206.315 88.9299 206.312 88.9291 206.309 88.9278C205.832 88.7116 205.366 88.4711 204.912 88.2074L204.924 88.187Z" fill="#263238"/>
<path d="M195.964 78.8454C195.964 78.8454 200.435 79.137 202.518 76.1826C204.6 73.2282 204.13 69.0226 204.13 69.0226C204.13 69.0226 199.432 69.6059 197.568 71.7116C195.705 73.8174 195.964 78.8454 195.964 78.8454Z" fill="#F9C24E"/>
<path d="M193.862 83.2494C194.017 82.7711 194.209 82.2986 194.39 81.8291C194.571 81.3595 194.749 80.9308 194.944 80.4904C195.345 79.5925 195.793 78.7163 196.286 77.8656C196.601 77.3231 196.939 76.7952 197.286 76.2761C197.286 76.1973 197.309 76.1186 197.321 76.0369C197.341 75.8998 197.362 75.7599 197.385 75.6228C197.429 75.3311 197.478 75.057 197.525 74.7741C197.627 74.1587 197.755 73.5433 197.855 72.925C197.855 72.8959 197.904 72.8959 197.901 72.925C197.811 73.5346 197.75 74.147 197.662 74.7595C197.621 75.0511 197.583 75.3603 197.537 75.6578L197.484 75.9815C198.169 74.9858 198.908 74.0287 199.698 73.1146C199.806 72.9892 199.914 72.8696 200.024 72.7471C200.024 72.715 200.051 72.68 200.065 72.645C200.097 72.5605 200.132 72.4759 200.162 72.3913C200.229 72.2134 200.293 72.0355 200.357 71.8576C200.482 71.5076 200.593 71.1518 200.689 70.7931C200.692 70.7881 200.696 70.7842 200.701 70.7821C200.707 70.78 200.712 70.7799 200.718 70.7816C200.723 70.7834 200.727 70.787 200.73 70.7917C200.733 70.7965 200.734 70.8022 200.733 70.8077C200.643 71.1751 200.549 71.5397 200.442 71.9013C200.389 72.0763 200.331 72.2513 200.269 72.4234C200.269 72.4526 200.249 72.4788 200.237 72.508C200.821 71.8868 201.404 71.286 202.008 70.691C202.01 70.6889 202.013 70.6873 202.016 70.6862C202.019 70.6851 202.022 70.6846 202.025 70.6848C202.028 70.6849 202.031 70.6857 202.034 70.687C202.037 70.6883 202.039 70.6902 202.041 70.6925C202.043 70.6948 202.045 70.6974 202.046 70.7004C202.047 70.7033 202.048 70.7064 202.047 70.7095C202.047 70.7126 202.047 70.7157 202.045 70.7185C202.044 70.7213 202.042 70.7239 202.04 70.726C200.886 71.9344 199.83 73.2324 198.881 74.6078C198.989 74.5728 199.099 74.5446 199.211 74.5233C199.555 74.4562 199.902 74.4066 200.252 74.3629C200.978 74.2695 201.71 74.1791 202.431 74.0712C202.46 74.0712 202.471 74.112 202.431 74.1179C201.739 74.2549 201.051 74.4095 200.363 74.567C200.039 74.6428 199.712 74.707 199.386 74.7712C199.12 74.8282 198.857 74.9032 198.601 74.9957C198.528 75.0978 198.453 75.1999 198.383 75.3049C198.053 75.7832 197.738 76.2702 197.432 76.7631L197.887 76.6727C198.234 76.6056 198.578 76.5444 198.925 76.4861C199.607 76.3752 200.29 76.2557 200.967 76.104C200.971 76.1057 200.975 76.1086 200.978 76.1126C200.98 76.1165 200.982 76.1211 200.982 76.1259C200.982 76.1306 200.98 76.1353 200.978 76.1392C200.975 76.1431 200.971 76.1461 200.967 76.1477C200.284 76.3082 199.607 76.4948 198.925 76.6756C198.598 76.7631 198.266 76.8448 197.936 76.9177L197.438 77.0256C197.372 77.0429 197.304 77.0537 197.236 77.0577C196.586 78.1193 195.971 79.2013 195.405 80.3096C195.154 80.7937 194.915 81.2866 194.681 81.7824C194.448 82.2782 194.238 82.8061 194.017 83.3223C193.987 83.4127 193.824 83.3719 193.862 83.2494Z" fill="#263238"/>
<path d="M198.437 72.9804C198.522 72.5546 198.612 72.1288 198.705 71.7059C198.705 71.6997 198.708 71.6938 198.712 71.6894C198.716 71.685 198.722 71.6826 198.729 71.6826C198.735 71.6826 198.741 71.685 198.745 71.6894C198.749 71.6938 198.752 71.6997 198.752 71.7059C198.667 72.1259 198.586 72.5458 198.51 72.9658C198.434 73.3858 198.373 73.8116 198.256 74.2199C198.288 73.8031 198.348 73.3889 198.437 72.9804Z" fill="#263238"/>
<path d="M201.045 72.8578C201.255 72.7528 201.473 72.6712 201.689 72.5866L202.028 72.4583L202.2 72.3883C202.266 72.3679 202.33 72.3395 202.389 72.3037C202.424 72.2804 202.445 72.3387 202.41 72.3445C202.343 72.3627 202.28 72.3892 202.22 72.4233L202.051 72.4991L201.724 72.6449C201.508 72.7435 201.287 72.8301 201.062 72.9045C201.036 72.9103 201.021 72.8695 201.045 72.8578Z" fill="#263238"/>
<path d="M191.383 75.3311C191.383 75.3311 188.676 70.2768 184.558 69.4981C180.44 68.7194 177.92 72.9512 177.92 72.9512C177.92 72.9512 180.924 76.7864 184.704 77.4572C188.484 78.128 191.383 75.3311 191.383 75.3311Z" fill="#F9C24E"/>
<path d="M181.798 71.7584C182.871 71.615 183.958 71.6278 185.027 71.7963L184.843 71.6972C184.537 71.5426 184.234 71.3851 183.93 71.2276C183.298 70.898 182.659 70.5481 181.997 70.2827C181.993 70.2818 181.99 70.2802 181.988 70.2779C181.985 70.2757 181.983 70.2729 181.981 70.2697C181.98 70.2666 181.979 70.2631 181.979 70.2597C181.979 70.2562 181.98 70.2528 181.982 70.2497C181.983 70.2465 181.986 70.2438 181.988 70.2417C181.991 70.2396 181.994 70.2381 181.998 70.2373C182.001 70.2366 182.005 70.2366 182.008 70.2374C182.011 70.2381 182.014 70.2397 182.017 70.2418C182.662 70.5335 183.327 70.7931 183.974 71.0905C184.298 71.2393 184.616 71.3822 184.928 71.5601C185.132 71.668 185.357 71.7701 185.558 71.8984C186.465 72.0823 187.346 72.3761 188.183 72.7734L187.666 72.2134C187.284 71.7934 186.908 71.353 186.5 70.968C186.476 70.9476 186.5 70.9155 186.532 70.936C186.964 71.3297 187.407 71.6913 187.836 72.1026C188.04 72.3009 188.232 72.505 188.419 72.715C188.515 72.82 188.608 72.9279 188.711 73.0417C190.124 73.7992 191.352 74.8606 192.306 76.1496C193.26 77.4386 193.917 78.9231 194.229 80.4962C194.229 80.5225 194.194 80.54 194.185 80.4962C193.597 78.5661 192.548 76.8083 191.128 75.3749C189.613 73.8286 187.706 72.7245 185.61 72.1813C184.368 71.866 183.083 71.7498 181.804 71.8372C181.795 71.8355 181.787 71.831 181.781 71.8243C181.775 71.8175 181.772 71.809 181.771 71.8C181.77 71.791 181.773 71.7821 181.778 71.7746C181.783 71.767 181.79 71.7614 181.798 71.7584Z" fill="#263238"/>
<path opacity="0.1" d="M177.919 72.9454C177.919 72.9454 180.923 76.7835 184.703 77.4514C187.584 77.9617 189.953 76.4597 190.918 75.719L191.125 75.3777C191.125 75.3777 189.177 73.7328 185.49 72.785C181.804 71.8371 177.919 72.9454 177.919 72.9454Z" fill="black"/>
<path d="M184.189 69.956C184.505 70.1396 184.809 70.3411 185.102 70.5598C185.39 70.7761 185.656 71.0193 185.898 71.286C185.919 71.3093 185.898 71.3385 185.863 71.321C185.589 71.0818 185.315 70.8456 185.029 70.621C184.751 70.3941 184.458 70.1847 184.154 69.994C184.139 69.9794 184.163 69.9415 184.189 69.956Z" fill="#263238"/>
<path d="M181.929 70.8105C182.084 70.8747 182.238 70.9301 182.39 70.9942L182.848 71.1838C182.883 71.1984 182.865 71.2509 182.833 71.2363L182.373 71.0497C182.221 70.9884 182.081 70.9184 181.918 70.8572C181.888 70.8455 181.903 70.7988 181.929 70.8105Z" fill="#263238"/>
<path d="M191.922 81.6919C191.922 81.6919 191.199 86.7083 187.428 88.4611C183.657 90.2139 179.06 88.4611 179.06 88.4611C179.06 88.4611 180.868 77.6118 191.922 81.6919Z" fill="#F9C24E"/>
<path d="M181.658 85.2004C182.005 85.1596 182.352 85.1012 182.696 85.0371C182.865 85.0079 183.034 84.9758 183.201 84.9408L183.466 84.8883C183.568 84.795 183.667 84.6987 183.758 84.5967C184.473 83.969 185.245 83.4096 186.065 82.9255C186.51 82.6601 186.972 82.4225 187.447 82.2139H187.374C186.96 82.2314 186.546 82.246 186.135 82.2664C185.306 82.3043 184.478 82.3247 183.65 82.3772C183.621 82.3772 183.624 82.3335 183.65 82.3306C184.481 82.2751 185.306 82.1818 186.135 82.1118L187.339 82.0039L187.96 81.9514L188.121 81.9339C188.337 81.8523 188.552 81.7764 188.771 81.7093C189.799 81.3568 190.904 81.2953 191.965 81.5314C192.916 81.7764 193.86 82.4064 194.105 83.398C194.105 83.433 194.062 83.4563 194.047 83.4213C193.694 82.5843 192.764 82.1643 191.927 81.9922C191.364 81.8829 190.787 81.8711 190.221 81.9572C190.182 82.2155 190.119 82.4695 190.031 82.7155C189.926 83.0684 189.824 83.4213 189.716 83.7742C189.503 84.4771 189.267 85.1771 189.057 85.8828C189.054 85.8878 189.05 85.8917 189.045 85.8938C189.04 85.8959 189.034 85.8961 189.029 85.8943C189.024 85.8925 189.019 85.8889 189.016 85.8842C189.013 85.8794 189.012 85.8738 189.013 85.8683C189.188 85.1654 189.337 84.4538 189.506 83.748C189.591 83.4038 189.675 83.0568 189.763 82.7126C189.812 82.471 189.875 82.2324 189.952 81.9981C189.622 82.0569 189.295 82.1339 188.972 82.2285C188.39 82.4023 187.82 82.6117 187.263 82.8555C187.211 83.2143 187.129 83.5672 187.048 83.92C186.945 84.3634 186.829 84.795 186.689 85.2325C186.689 85.2379 186.687 85.2431 186.683 85.2469C186.679 85.2507 186.674 85.2529 186.668 85.2529C186.663 85.2529 186.658 85.2507 186.654 85.2469C186.65 85.2431 186.648 85.2379 186.648 85.2325L186.666 85.1508C186.75 84.7396 186.84 84.3313 186.925 83.92C186.995 83.5905 187.059 83.258 187.132 82.9284C186.662 83.1368 186.204 83.3694 185.758 83.6255C185.758 83.7276 185.723 83.8325 185.709 83.9171C185.683 84.0892 185.651 84.2613 185.618 84.4304C185.548 84.8183 185.47 85.2033 185.379 85.597C185.208 86.3371 184.991 87.0657 184.729 87.7786C184.732 87.7827 184.734 87.7878 184.734 87.7931C184.734 87.7984 184.732 87.8036 184.729 87.8077L184.709 87.8311C184.691 87.8515 184.665 87.8311 184.671 87.8077C184.843 87.0669 185.044 86.3291 185.207 85.5824C185.289 85.2121 185.371 84.8387 185.443 84.4654C185.481 84.2788 185.516 84.0892 185.551 83.9025C185.551 83.8501 185.569 83.7946 185.578 83.7363C184.192 84.5513 182.939 85.5731 181.862 86.7665C181.836 86.7957 181.78 86.7665 181.807 86.7228C182.088 86.3425 182.387 85.9765 182.705 85.6262C182.894 85.422 183.093 85.2266 183.288 85.0429H183.224C183.049 85.075 182.871 85.1012 182.693 85.1246C182.343 85.1712 181.993 85.2062 181.646 85.2441C181.64 85.247 181.629 85.2033 181.658 85.2004Z" fill="#263238"/>
<path d="M184.297 86.9008C184.297 86.857 184.297 86.8133 184.321 86.7695C184.344 86.7258 184.359 86.6616 184.364 86.6062C184.44 86.2708 184.507 85.9354 184.569 85.5942C184.569 85.5708 184.609 85.5796 184.609 85.5942C184.584 86.0427 184.486 86.484 184.318 86.9008C184.318 86.9008 184.289 86.9008 184.291 86.9008H184.297Z" fill="#263238"/>
<path d="M187.466 86.8192C187.466 86.8137 187.468 86.8085 187.472 86.8047C187.475 86.8009 187.481 86.7987 187.486 86.7987C187.594 86.3554 187.693 85.9092 187.778 85.463C187.824 85.2268 187.874 84.9934 187.921 84.7572L187.991 84.3751C188 84.2635 188.028 84.1542 188.072 84.0514C188.074 84.0478 188.077 84.0447 188.081 84.0426C188.084 84.0405 188.088 84.0394 188.093 84.0394C188.097 84.0394 188.101 84.0405 188.104 84.0426C188.108 84.0447 188.111 84.0478 188.113 84.0514C188.117 84.2794 188.085 84.5067 188.02 84.7251C187.973 84.9672 187.923 85.2122 187.871 85.4572C187.763 85.95 187.638 86.4429 187.498 86.9154C187.498 86.9446 187.445 86.9387 187.448 86.9154L187.466 86.8192Z" fill="#263238"/>
<path d="M182.002 83.754C182.691 83.6607 183.379 83.5615 184.067 83.4769C184.096 83.4769 184.108 83.5178 184.067 83.5236C183.379 83.6257 182.691 83.7102 182 83.8007C181.982 83.8036 181.965 83.7598 182.002 83.754Z" fill="#263238"/>
<path d="M193.854 69.9326C193.854 69.9326 196.161 59.8095 185.285 55.7118C185.285 55.7118 182.258 69.0373 193.854 69.9326Z" fill="#F9C24E"/>
<path d="M191.506 64.1901L191.389 64.1201L190.777 63.7759L189.514 63.0701C188.683 62.6064 187.863 62.1223 187.029 61.6673C187.003 61.6673 187.029 61.6148 187.052 61.6294C187.889 62.0844 188.741 62.5043 189.584 62.9564L190.832 63.6155L191.339 63.8838C190.978 63.1956 190.59 62.5218 190.173 61.8715C189.59 60.9965 188.983 60.1799 188.333 59.3691C188.333 59.3632 188.334 59.3575 188.337 59.3523C188.34 59.3471 188.344 59.3426 188.349 59.3392C188.353 59.3358 188.359 59.3336 188.365 59.3327C188.371 59.3318 188.377 59.3323 188.382 59.3341C189.335 60.2622 190.179 61.2965 190.896 62.4169C190.896 62.3819 190.896 62.3439 190.896 62.3119C190.896 62.061 190.876 61.8073 190.873 61.5565C190.873 61.0607 190.89 60.5678 190.873 60.072C190.873 60.0428 190.917 60.0457 190.917 60.072C190.937 60.559 190.995 61.0432 191.024 61.5302C191.024 61.7752 191.048 62.0173 191.057 62.2594C191.057 62.3906 191.057 62.551 191.057 62.6852C191.281 63.041 191.494 63.4026 191.698 63.7701C192.063 64.4301 192.388 65.1119 192.669 65.8116C192.669 65.5579 192.696 65.3071 192.71 65.0534C192.745 64.4992 192.812 63.948 192.836 63.3939C192.836 63.3877 192.838 63.3818 192.842 63.3774C192.847 63.373 192.853 63.3705 192.859 63.3705C192.865 63.3705 192.871 63.373 192.875 63.3774C192.88 63.3818 192.882 63.3877 192.882 63.3939C192.882 63.948 192.897 64.5021 192.882 65.0592C192.882 65.3508 192.865 65.6133 192.847 65.8904C192.847 65.9896 192.847 66.0945 192.827 66.1995C193.174 67.0964 193.451 68.0188 193.655 68.9585C193.841 69.9709 193.977 70.992 194.061 72.0179C194.061 72.0179 194.061 72.0179 194.061 72.0179C193.942 71.0953 193.747 70.1841 193.477 69.2939C193.34 68.8156 193.186 68.3402 193.046 67.8678C192.594 67.6549 192.171 67.3895 191.724 67.1474L190.36 66.4008C189.452 65.9021 188.545 65.3975 187.609 64.9571C187.583 64.9425 187.609 64.9046 187.633 64.9163C188.583 65.3479 189.537 65.7562 190.467 66.2229C190.931 66.4562 191.389 66.7041 191.841 66.9578C192.217 67.1707 192.605 67.3836 192.967 67.6286C192.862 67.3136 192.751 67.0016 192.631 66.6895C192.299 65.8376 191.924 65.0033 191.506 64.1901Z" fill="#263238"/>
<path d="M192.424 61.8773C192.424 61.8711 192.426 61.8652 192.431 61.8608C192.435 61.8564 192.441 61.8539 192.447 61.8539C192.454 61.8539 192.459 61.8564 192.464 61.8608C192.468 61.8652 192.471 61.8711 192.471 61.8773C192.43 62.4606 192.412 63.0439 192.351 63.6068C192.351 63.6388 192.299 63.6388 192.299 63.6068C192.319 63.0264 192.38 62.4547 192.424 61.8773Z" fill="#263238"/>
<path d="M187.214 63.808C187.894 64.0822 188.582 64.3447 189.256 64.6276C189.273 64.6276 189.256 64.6655 189.256 64.6596C188.568 64.4001 187.888 64.1201 187.214 63.8547C187.168 63.843 187.179 63.7993 187.214 63.808Z" fill="#263238"/>
<path d="M186.174 59.1417C186.84 59.445 187.486 59.7908 188.108 60.177C188.14 60.1974 188.108 60.247 188.079 60.2266C187.449 59.8591 186.804 59.5033 186.151 59.1796C186.125 59.1679 186.148 59.1271 186.174 59.1417Z" fill="#263238"/>
<path d="M186.341 91.8238H202.025V108.357H186.341V91.8238Z" fill="#37474F"/>
<path d="M202.301 97.6713H203.104V125.99H202.301V97.6713Z" fill="#263238"/>
<path d="M185.344 97.6713H186.146V125.99H185.344V97.6713Z" fill="#263238"/>
<path d="M193.395 97.6713H194.197V125.99H193.395V97.6713Z" fill="#263238"/>
<path d="M185.745 107.296H202.701V109.585H185.745V107.296Z" fill="#263238"/>
<path d="M51.7749 34.153H175.545V118.314H51.7749V34.153Z" fill="#263238"/>
<path d="M51.7749 105.899H175.545V118.314H51.7749V105.899Z" fill="#DBDBDB"/>
<path d="M89.5435 133.483H137.779V137.513H89.5435V133.483Z" fill="#C7C7C7"/>
<path d="M95.2864 133.486H132.037L131.101 126.492L131.054 126.162L130.97 125.503L130.926 125.174L130.836 124.518L130.824 124.415L130.795 124.188L130.704 123.532L130.661 123.202L130.007 118.314H97.3163L96.698 122.925L96.6688 123.147L96.5667 123.911L96.5376 124.133L96.4968 124.415L96.4326 124.897L96.4063 125.118L96.3043 125.885L96.2722 126.107L95.2864 133.486Z" fill="#DBDBDB"/>
<path d="M111.647 111.271C111.647 111.675 111.767 112.069 111.991 112.405C112.216 112.741 112.535 113.002 112.908 113.157C113.281 113.312 113.691 113.352 114.087 113.273C114.483 113.194 114.847 113 115.133 112.714C115.418 112.429 115.612 112.065 115.691 111.669C115.77 111.273 115.73 110.863 115.575 110.49C115.421 110.117 115.159 109.798 114.823 109.573C114.487 109.349 114.093 109.229 113.689 109.229C113.147 109.229 112.628 109.444 112.245 109.827C111.862 110.21 111.647 110.729 111.647 111.271Z" fill="#37474F"/>
<path d="M96.4964 124.415L130.66 123.202L130.007 118.314H97.3159L96.4964 124.415Z" fill="#C7C7C7"/>
<path d="M57.4879 39.6243H169.834V100.06H57.4879V39.6243Z" fill="white"/>
<path d="M169.834 100.06L57.4883 100.06L57.4883 39.6244L169.834 39.6244V100.06Z" fill="#37474F"/>
<g opacity="0.05">
<path opacity="0.05" d="M138.75 39.6243L78.3116 100.06H65.6598L126.098 39.6243H138.75Z" fill="white"/>
<path opacity="0.05" d="M169.834 71.0204V83.6721L153.446 100.06H140.794L169.834 71.0204Z" fill="white"/>
<path opacity="0.05" d="M82.873 39.6243L57.4879 65.0124V52.3606L70.2242 39.6243H82.873Z" fill="white"/>
<path opacity="0.05" d="M169.834 54.1747V59.4535L129.228 100.06H123.949L169.834 54.1747Z" fill="white"/>
<path opacity="0.05" d="M105.449 39.6243L57.4875 87.586V82.3072L100.17 39.6243H105.449Z" fill="white"/>
<path opacity="0.05" d="M150.699 39.6243L90.2608 100.06H88.858L149.291 39.6243H150.699Z" fill="white"/>
<path opacity="0.05" d="M66.043 39.6243L57.4889 48.1784V46.7726L64.6372 39.6243H66.043Z" fill="white"/>
</g>
<path d="M51.8468 49.0839L71.8008 47.145L73.7397 67.0989L53.7857 69.0379L51.8468 49.0839Z" fill="#DBDBDB"/>
<path d="M69.2871 51.7921C66.9218 51.8271 64.5711 52.0108 62.2234 52.2295C59.8756 52.4483 57.5366 52.737 55.2238 53.1599C57.5861 53.1249 59.9398 52.9412 62.2846 52.7224C64.6295 52.5037 66.9597 52.212 69.2871 51.7921Z" fill="white"/>
<path d="M69.543 54.4227C67.1767 54.3184 64.8076 54.5482 62.5055 55.1052C63.6873 55.1675 64.8721 55.1363 66.049 55.0118C67.227 54.9051 68.3951 54.7081 69.543 54.4227Z" fill="white"/>
<path d="M69.7988 57.0534C67.9352 57.0389 66.0832 57.1759 64.2371 57.3451C62.3867 57.5137 60.546 57.7756 58.722 58.1296C60.5796 58.1261 62.4359 58.0287 64.2837 57.838C66.1299 57.6484 67.9702 57.4238 69.7988 57.0534Z" fill="white"/>
<path d="M70.0547 59.684C67.6894 59.719 65.3387 59.9028 62.9909 60.1215C60.6432 60.3402 58.3071 60.629 55.9739 61.0519C58.3391 61.0169 60.6898 60.8331 63.0376 60.6144C65.3854 60.3956 67.7244 60.104 70.0547 59.684Z" fill="white"/>
<path d="M70.3086 62.3148C68.4917 62.3199 66.6763 62.4172 64.8693 62.6064C63.0589 62.7671 61.258 63.0212 59.4738 63.3676C61.2907 63.3625 63.1061 63.2652 64.9131 63.076C66.7213 62.901 68.515 62.6822 70.3086 62.3148Z" fill="white"/>
<path d="M56.3267 121.861H76.3746C76.3746 121.861 77.3691 119.819 77.3691 117.871V101.83H57.3212V118.096C57.3212 119.705 56.3267 121.861 56.3267 121.861Z" fill="#455A64"/>
<path d="M73.9199 106.552C71.5634 106.36 69.2069 106.313 66.8474 106.304C64.488 106.295 62.1344 106.357 59.775 106.552C62.1344 106.747 64.4909 106.791 66.8474 106.8C69.204 106.809 71.5634 106.745 73.9199 106.552Z" fill="white"/>
<path d="M73.9199 109.206C71.7996 109.014 69.6793 108.97 67.559 108.958C65.4388 108.947 63.3185 109.014 61.1982 109.206C63.3185 109.401 65.4388 109.445 67.559 109.457C69.6793 109.469 71.7996 109.39 73.9199 109.206Z" fill="white"/>
<path d="M73.9199 111.831C70.2185 111.5 66.495 111.5 62.7935 111.831C64.6484 112.023 66.5033 112.07 68.3582 112.079C70.2131 112.087 72.068 112.032 73.9199 111.831Z" fill="white"/>
<path d="M73.9199 114.482C71.5634 114.29 69.2069 114.243 66.8474 114.234C64.488 114.225 62.1344 114.287 59.775 114.482C62.1344 114.677 64.4909 114.721 66.8474 114.73C69.204 114.739 71.5634 114.675 73.9199 114.482Z" fill="white"/>
<path d="M156.254 123.958H172.193C172.403 122.638 172.518 121.304 172.537 119.968V103.927H152.489V120.19C152.489 121.802 156.254 123.958 156.254 123.958Z" fill="#F9C24E"/>
<path opacity="0.2" d="M152.493 120.172C152.493 121.753 156.027 123.821 156.246 123.949C155.663 123.552 155.759 120.411 155.759 120.411C155.759 120.411 152.551 119.997 152.493 120.172Z" fill="black"/>
<path d="M169.586 108.649C167.229 108.456 164.87 108.41 162.513 108.401C160.157 108.392 157.797 108.454 155.441 108.649C157.797 108.844 160.157 108.888 162.513 108.897C164.87 108.906 167.229 108.841 169.586 108.649Z" fill="white"/>
<path d="M169.586 111.291C167.731 111.099 165.876 111.052 164.021 111.043C162.163 111.033 160.306 111.116 158.457 111.291C160.306 111.467 162.163 111.55 164.021 111.539C165.876 111.539 167.731 111.484 169.586 111.291Z" fill="white"/>
<path d="M169.586 113.934C167.731 113.741 165.876 113.697 164.021 113.686C162.166 113.674 160.311 113.741 158.457 113.934C160.306 114.109 162.163 114.192 164.021 114.182C165.879 114.192 167.736 114.109 169.586 113.934Z" fill="white"/>
<path d="M175.32 141.328L175.329 138.683L179.067 124.739L196.225 124.774L200.883 138.663L200.784 141.34L175.32 141.328Z" fill="#F9C24E"/>
<g opacity="0.2">
<path opacity="0.2" d="M175.32 141.328L175.329 138.683L179.067 124.739L196.225 124.774L200.883 138.663L200.784 141.34L175.32 141.328Z" fill="black"/>
</g>
<path d="M175.326 138.648L179.067 124.739L196.225 124.774L200.883 138.663L175.326 138.648Z" fill="#F9C24E"/>
<g opacity="0.1">
<path opacity="0.1" d="M175.326 138.648L179.067 124.739L196.225 124.774L200.883 138.663L175.326 138.648Z" fill="black"/>
</g>
<path d="M192.88 126.813C193.399 128.446 193.787 130.079 194.14 131.713C194.494 133.33 194.738 134.97 194.869 136.621C194.343 135.016 193.923 133.379 193.612 131.719C193.303 130.079 193.026 128.455 192.88 126.813Z" fill="white"/>
<path d="M190.454 126.807C190.717 127.605 190.901 128.426 191.002 129.26C191.122 130.071 191.141 130.894 191.06 131.71C190.782 130.916 190.598 130.093 190.512 129.257C190.411 128.444 190.391 127.624 190.454 126.807Z" fill="white"/>
<path d="M188.03 126.804C188.254 128.079 188.396 129.367 188.456 130.66C188.534 131.946 188.504 133.237 188.366 134.518C188.118 133.246 187.977 131.955 187.943 130.66C187.889 129.374 187.918 128.086 188.03 126.804Z" fill="white"/>
<path d="M185.603 126.798C185.715 128.431 185.744 130.068 185.691 131.704C185.659 133.351 185.511 134.995 185.247 136.621C185.105 134.991 185.077 133.353 185.163 131.718C185.244 130.068 185.358 128.434 185.603 126.798Z" fill="white"/>
<path d="M183.179 126.795C183.202 128.056 183.141 129.317 182.998 130.569C182.872 131.843 182.639 133.105 182.304 134.34C182.258 133.079 182.319 131.817 182.488 130.566C182.637 129.296 182.868 128.036 183.179 126.795Z" fill="white"/>
<path d="M179.686 122.534L176.186 136.443C176.186 136.443 178.595 138.68 181.608 138.68H200.9L196.234 124.792C196.234 124.792 187.359 124.736 183.877 124.736C182.284 124.739 179.686 122.534 179.686 122.534Z" fill="#F9C24E"/>
<path d="M194.395 136.294C194.276 134.647 194.046 133.009 193.706 131.392C193.371 129.759 192.998 128.125 192.496 126.489C192.627 128.125 192.887 129.759 193.184 131.392C193.482 133.05 193.886 134.688 194.395 136.294Z" fill="white"/>
<path d="M191.211 136.292C191.246 134.818 191.167 133.343 190.975 131.882C190.803 130.4 190.546 128.928 190.207 127.475C190.2 128.947 190.279 130.419 190.444 131.882C190.59 133.369 190.846 134.843 191.211 136.292Z" fill="white"/>
<path d="M188.034 136.292C188.19 135.012 188.236 133.721 188.171 132.433C188.123 131.14 187.988 129.852 187.768 128.577C187.634 129.858 187.588 131.146 187.631 132.433C187.652 133.728 187.787 135.02 188.034 136.292Z" fill="white"/>
<path d="M184.851 136.292C185.124 134.669 185.285 133.03 185.335 131.386C185.405 129.752 185.391 128.116 185.294 126.483C185.035 128.117 184.907 129.753 184.81 131.386C184.713 133.02 184.727 134.659 184.851 136.292Z" fill="white"/>
<path d="M62.1005 141.658C61.4793 141.865 43.7266 141.812 43.0442 141.384C42.7904 141.223 42.6446 138.633 42.563 135.504C42.5416 134.827 42.527 134.133 42.5192 133.422C42.5046 132.582 42.493 131.73 42.4871 130.905C42.4667 127.198 42.5192 123.931 42.5192 123.931H54.0714V130.905V133.413L54.0102 135.495C54.0102 135.495 60.7998 138.558 61.491 139.109C62.1822 139.66 62.7159 141.454 62.1005 141.658Z" fill="#D3766A"/>
<path d="M62.0999 141.658C61.4787 141.865 43.726 141.812 43.0435 141.384C42.7898 141.223 42.644 138.633 42.5623 135.504C42.5409 134.827 42.5264 134.133 42.5186 133.422C42.504 132.582 42.4923 131.73 42.4865 130.905H54.065V133.413L54.0037 135.495C54.0037 135.495 60.7933 138.558 61.4845 139.109C62.1757 139.66 62.7153 141.454 62.0999 141.658Z" fill="white"/>
<path d="M62.1495 141.684C61.7441 141.818 54.1787 141.844 48.6724 141.731C47.3979 141.704 46.2342 141.669 45.2922 141.629C43.9972 141.567 43.1281 141.497 42.9852 141.407C42.6732 141.206 42.5244 137.408 42.4544 133.401H54.0708L54.0125 135.495C54.0125 135.495 60.84 138.575 61.5341 139.129C62.2282 139.683 62.7707 141.477 62.1495 141.684Z" fill="#F9C24E"/>
<path d="M61.8933 140.97C58.901 140.888 46.8209 140.838 43.8577 140.97C43.8315 140.97 43.8315 140.987 43.8577 140.99C46.8209 141.136 58.901 141.086 61.8933 141.005C61.9574 141.016 61.9574 140.972 61.8933 140.97Z" fill="#263238"/>
<path d="M54.4357 134.833C53.2691 134.609 51.8109 134.787 50.9155 135.624C50.8805 135.656 50.9155 135.705 50.9651 135.694C52.0912 135.333 53.2528 135.094 54.4299 134.982C54.4473 134.979 54.4632 134.971 54.4749 134.957C54.4866 134.944 54.4934 134.928 54.4941 134.91C54.4948 134.892 54.4893 134.875 54.4787 134.861C54.468 134.847 54.4528 134.837 54.4357 134.833Z" fill="#263238"/>
<path d="M55.2834 135.346C54.1168 135.125 52.6585 135.3 51.7632 136.137C51.7282 136.169 51.7632 136.218 51.8128 136.207C52.9392 135.848 54.1007 135.609 55.2775 135.495C55.2949 135.493 55.3109 135.484 55.3226 135.471C55.3343 135.458 55.341 135.441 55.3417 135.423C55.3424 135.406 55.337 135.388 55.3263 135.374C55.3157 135.36 55.3005 135.351 55.2834 135.346Z" fill="#263238"/>
<path d="M56.1318 135.863C54.9652 135.638 53.5069 135.816 52.6116 136.653C52.5766 136.685 52.6116 136.735 52.6611 136.723C53.7882 136.362 54.9508 136.124 56.1289 136.011C56.1461 136.008 56.1618 135.999 56.1732 135.986C56.1846 135.973 56.191 135.956 56.1914 135.938C56.1917 135.921 56.186 135.904 56.1751 135.89C56.1642 135.876 56.1489 135.866 56.1318 135.863Z" fill="#263238"/>
<path d="M56.9807 136.376C55.8141 136.154 54.3558 136.329 53.4604 137.166C53.4254 137.198 53.4604 137.248 53.51 137.236C54.6365 136.877 55.7979 136.639 56.9748 136.525C56.9922 136.522 57.0081 136.513 57.0198 136.5C57.0315 136.487 57.0383 136.47 57.039 136.453C57.0397 136.435 57.0343 136.418 57.0236 136.404C57.013 136.39 56.9978 136.38 56.9807 136.376Z" fill="#263238"/>
<path d="M56.0865 133.792C55.2523 134.437 54.1674 134.699 53.1933 135.055C53.0912 135.093 53.0125 134.997 53.0096 134.906C53.0047 134.906 53 134.905 52.9958 134.902C52.9916 134.9 52.9879 134.897 52.9851 134.893C52.9823 134.889 52.9805 134.884 52.9796 134.88C52.9788 134.875 52.9791 134.87 52.9804 134.865C53.3406 133.823 53.9694 132.895 54.8032 132.173C55.2961 131.759 56.1594 131.476 56.6202 132.115C57.081 132.754 56.5589 133.413 56.0865 133.792ZM56.3781 132.844C56.5881 131.552 55.2115 132.226 54.8499 132.552C54.6252 132.762 54.4157 132.987 54.2228 133.226C53.8301 133.723 53.4632 134.24 53.1233 134.775C53.5928 134.571 54.0711 134.407 54.5465 134.221C55.124 133.996 56.2673 133.556 56.3898 132.844H56.3781Z" fill="#263238"/>
<path d="M49.0545 133.06C49.3461 132.325 50.2473 132.386 50.8277 132.66C51.8141 133.152 52.654 133.894 53.263 134.813C53.266 134.817 53.2681 134.821 53.269 134.826C53.2699 134.831 53.2697 134.836 53.2682 134.841C53.2668 134.846 53.2643 134.85 53.2608 134.854C53.2574 134.858 53.2531 134.861 53.2484 134.862C53.2547 134.884 53.2558 134.908 53.2516 134.93C53.2474 134.953 53.238 134.974 53.2241 134.993C53.2103 135.011 53.1924 135.026 53.1718 135.036C53.1512 135.046 53.1285 135.052 53.1055 135.052C52.073 134.947 50.9589 134.964 49.9878 134.547C49.422 134.305 48.7833 133.754 49.0545 133.06ZM51.5743 134.579C52.0789 134.644 52.5863 134.681 53.0909 134.763C52.6259 134.329 52.1392 133.92 51.6327 133.535C51.3862 133.354 51.128 133.189 50.8598 133.042C50.4398 132.821 48.9262 132.515 49.454 133.713C49.7486 134.366 50.9706 134.501 51.5743 134.579Z" fill="#263238"/>
<path opacity="0.1" d="M48.2051 141.722C47.1143 141.693 46.1169 141.664 45.2886 141.629C43.9907 141.57 43.1216 141.497 42.9787 141.407C42.7425 141.255 42.5996 139.033 42.5121 136.222L48.2051 141.722Z" fill="black"/>
<path d="M38.1613 73.7649C38.1613 73.7649 41.7807 105.555 41.8536 105.96C41.8536 106.013 42.501 129.482 42.501 129.482H55.2461C55.2461 129.482 54.4149 109.836 53.9366 105.254C53.33 99.4067 48.999 73.7562 48.999 73.7562L38.1613 73.7649Z" fill="#37474F"/>
<path d="M43.3726 107.048C42.9838 100.354 42.3927 93.6748 41.5994 87.0116C41.1532 83.2551 40.6136 79.5133 40.0799 75.7714C40.0799 75.7394 40.0216 75.7394 40.0274 75.7714C41.0132 82.4327 41.7131 89.1435 42.3139 95.8515C42.9147 102.559 43.3347 109.267 43.6089 115.975C43.7664 119.767 43.883 123.59 44.0055 127.399C44.0055 127.418 44.0129 127.436 44.026 127.449C44.0391 127.462 44.057 127.469 44.0755 127.469C44.0941 127.469 44.1119 127.462 44.125 127.449C44.1381 127.436 44.1455 127.418 44.1455 127.399C43.9676 120.615 43.7722 113.826 43.3726 107.048Z" fill="#263238"/>
<path d="M54.4443 127.428C54.1089 127.384 53.7472 127.399 53.4089 127.387C53.0239 127.387 52.6419 127.37 52.2598 127.355C51.5219 127.326 50.7841 127.309 50.0433 127.297C48.5559 127.272 47.0675 127.281 45.5781 127.326L44.3503 127.37C43.9128 127.387 43.4754 127.428 43.0408 127.425C43.0058 127.425 43.0087 127.463 43.0408 127.463C43.7903 127.463 44.5486 127.527 45.2982 127.556C46.0477 127.586 46.7739 127.594 47.5118 127.606C48.9992 127.626 50.4924 127.606 51.9798 127.559C52.3881 127.545 52.7994 127.539 53.2077 127.524L53.8639 127.498C54.0564 127.498 54.2518 127.498 54.4472 127.478C54.4512 127.479 54.4555 127.479 54.4595 127.478C54.4636 127.477 54.4675 127.475 54.4707 127.473C54.474 127.47 54.4765 127.467 54.4782 127.463C54.4799 127.459 54.4807 127.455 54.4804 127.451C54.4802 127.447 54.4789 127.443 54.4768 127.439C54.4747 127.435 54.4717 127.432 54.4682 127.43C54.4647 127.428 54.4606 127.427 54.4565 127.426C54.4523 127.426 54.4481 127.427 54.4443 127.428Z" fill="#263238"/>
<path d="M38.1622 73.7648C38.1622 73.7648 41.7816 105.555 41.8545 105.96C41.8545 105.977 41.9216 108.22 42.0062 111.315L47.6875 73.7648H38.1622Z" fill="#263238"/>
<path d="M44.7901 142.924C44.1573 143.084 26.4483 141.757 25.8038 141.29C25.5588 141.11 25.6026 138.52 25.7425 135.393C25.7688 134.717 25.7717 134.014 25.8446 133.311C25.9321 132.436 26.0313 131.538 26.1363 130.686C26.5854 126.979 27.1104 123.885 27.1104 123.885L38.3155 124.684L37.6389 131.392L37.3648 134.139L37.1577 136.213C37.1577 136.213 43.711 139.75 44.3614 140.348C45.0118 140.946 45.423 142.76 44.7901 142.924Z" fill="#D3766A"/>
<path d="M44.7901 142.924C44.1573 143.084 26.4483 141.757 25.8038 141.29C25.5588 141.109 25.6026 138.52 25.7425 135.393C25.7688 134.717 25.7717 134.014 25.8446 133.311C25.9321 132.436 26.0313 131.538 26.1363 130.686C29.5894 130.916 34.5503 131.208 37.6389 131.386L37.3648 134.133L37.1577 136.207C37.1577 136.207 43.711 139.745 44.3614 140.342C45.0118 140.94 45.423 142.76 44.7901 142.924Z" fill="white"/>
<path d="M44.8422 142.95C44.2064 143.113 26.3983 141.783 25.7508 141.311C25.4592 141.089 25.5758 137.289 25.7887 133.285L37.376 134.113L37.1689 136.198C37.1689 136.198 43.7602 139.753 44.4134 140.357C45.0667 140.961 45.4751 142.79 44.8422 142.95Z" fill="#F9C24E"/>
<path d="M44.641 142.218C41.6604 141.926 29.6153 141.016 26.6463 140.949C26.623 140.949 26.623 140.966 26.6463 140.969C29.592 141.325 41.6458 142.136 44.6381 142.267C44.6994 142.27 44.7023 142.226 44.641 142.218Z" fill="#263238"/>
<path d="M37.6392 135.565C36.4726 135.259 35.0318 135.335 34.0723 136.105C34.0344 136.134 34.0723 136.187 34.116 136.178C35.2627 135.899 36.436 135.743 37.6158 135.714C37.6344 135.715 37.6525 135.709 37.6668 135.697C37.6811 135.685 37.6905 135.668 37.6934 135.65C37.6963 135.632 37.6923 135.613 37.6823 135.597C37.6724 135.582 37.657 135.57 37.6392 135.565Z" fill="#263238"/>
<path d="M38.4497 136.14C37.2831 135.834 35.8395 135.906 34.8799 136.676C34.8449 136.708 34.8799 136.761 34.9266 136.749C36.0736 136.472 37.2468 136.318 38.4264 136.289C38.4449 136.289 38.463 136.283 38.4773 136.271C38.4916 136.259 38.5011 136.243 38.504 136.224C38.5068 136.206 38.5029 136.187 38.4929 136.172C38.4829 136.156 38.4675 136.145 38.4497 136.14Z" fill="#263238"/>
<path d="M39.2573 136.714C38.0907 136.408 36.65 136.481 35.6905 137.251C35.6525 137.28 35.6905 137.333 35.7342 137.324C36.8813 137.047 38.0544 136.893 39.234 136.863C39.2525 136.864 39.2706 136.858 39.2849 136.846C39.2992 136.834 39.3087 136.817 39.3116 136.799C39.3145 136.781 39.3105 136.762 39.3005 136.747C39.2905 136.731 39.2752 136.72 39.2573 136.714Z" fill="#263238"/>
<path d="M40.0689 137.289C38.9023 136.983 37.4615 137.056 36.502 137.825C36.4641 137.855 36.502 137.907 36.5457 137.898C37.6925 137.62 38.8658 137.466 40.0455 137.438C40.0641 137.438 40.0822 137.432 40.0965 137.42C40.1108 137.408 40.1202 137.392 40.1231 137.374C40.126 137.355 40.122 137.336 40.1121 137.321C40.1021 137.305 40.0867 137.294 40.0689 137.289Z" fill="#263238"/>
<path d="M39.3515 134.644C38.4766 135.227 37.3712 135.414 36.3738 135.7C36.2717 135.729 36.1988 135.63 36.2017 135.539C36.1813 135.539 36.1667 135.519 36.1784 135.495C36.6115 134.482 37.3035 133.6 38.185 132.938C38.707 132.564 39.5878 132.354 40.0019 133.011C40.4161 133.667 39.8736 134.303 39.3515 134.644ZM39.7219 133.722C40.0136 132.448 38.5903 133.022 38.217 133.314C37.9793 133.508 37.7543 133.718 37.5433 133.941C37.1 134.399 36.7325 134.912 36.3388 135.399C36.82 135.227 37.31 135.107 37.7971 134.947C38.3862 134.772 39.5615 134.425 39.7307 133.722H39.7219Z" fill="#263238"/>
<path d="M32.3982 133.413C32.7365 132.701 33.6348 132.83 34.1948 133.142C35.145 133.707 35.9303 134.511 36.4726 135.475C36.4749 135.479 36.4763 135.484 36.4765 135.489C36.4768 135.494 36.4758 135.499 36.4739 135.503C36.4719 135.508 36.4689 135.512 36.4651 135.515C36.4614 135.518 36.4569 135.52 36.4521 135.522C36.4521 135.612 36.4026 135.72 36.2976 135.702C35.2739 135.524 34.1598 135.463 33.2236 134.979C32.6753 134.684 32.0774 134.087 32.3982 133.413ZM34.8014 135.104C35.3031 135.204 35.8047 135.277 36.3005 135.396C35.8708 134.93 35.4172 134.488 34.9414 134.069C34.7093 133.87 34.4637 133.687 34.2064 133.521C33.801 133.27 32.3136 132.856 32.7482 134.09C32.9961 134.769 34.2065 134.988 34.8014 135.104Z" fill="#263238"/>
<path d="M48.4654 73.7648C48.4654 73.7648 48.8096 77.9733 47.1151 80.2744C46.6076 80.9598 44.9919 81.5314 44.2744 82.0535C44.2744 82.0535 43.0757 103.927 42.4808 106.887C42.1745 108.416 38.666 130.435 38.666 130.435L25.5739 129.481C25.5739 129.481 30.6544 107.739 30.9402 106.077C31.226 104.414 32.5414 84.2846 32.4539 83.8092C31.194 77.0196 33.8334 73.7648 33.8334 73.7648H48.4654Z" fill="#37474F"/>
<path d="M39.1732 75.0132C38.9128 75.9107 38.3645 76.6977 37.6129 77.253C36.7825 77.8436 35.7989 78.1809 34.781 78.2242C34.6089 78.2242 34.5943 78.4955 34.781 78.4984C36.8604 78.4984 38.9603 77.1801 39.2636 75.0248C39.2665 74.9782 39.1849 74.9665 39.1732 75.0132Z" fill="#263238"/>
<path d="M47.5355 79.9886C46.7805 80.29 46.06 80.6713 45.3861 81.126C44.6745 81.5693 44.0153 82.0856 43.327 82.5609C43.2979 82.5814 43.327 82.6251 43.3504 82.6076C44.0737 82.1905 44.8261 81.8318 45.5406 81.4002C46.2547 81.0099 46.9321 80.556 47.5647 80.044C47.588 80.0236 47.5647 79.9769 47.5355 79.9886Z" fill="#263238"/>
<path d="M47.8269 75.6664C47.7161 76.1418 47.5761 76.6113 47.4507 77.0838C47.3253 77.5563 47.2407 77.9821 47.1036 78.4196C46.9871 78.8436 46.7512 79.2252 46.4241 79.5191C46.2403 79.6737 46.042 79.8107 45.8408 79.9507C45.7358 80.0266 45.622 80.0995 45.5141 80.1753C45.5316 80.1141 45.5462 80.0499 45.5608 79.9857C45.5987 79.8049 45.6395 79.6241 45.6774 79.4433C45.7649 79.0408 45.8466 78.6383 45.9283 78.2358C46.0858 77.4455 46.2199 76.6463 46.4386 75.8647C46.4386 75.8326 46.3978 75.8181 46.3891 75.8647C46.1528 76.6376 45.8991 77.4017 45.692 78.1804C45.587 78.5625 45.1991 80.4582 45.1787 80.5924C45.1583 80.7265 45.1408 80.884 45.1291 81.0123C45.1035 81.1527 45.0966 81.2959 45.1087 81.4381C45.1115 81.4444 45.1159 81.4497 45.1216 81.4534C45.1273 81.4572 45.134 81.4591 45.1408 81.4591C45.1476 81.4591 45.1543 81.4572 45.16 81.4534C45.1657 81.4497 45.1702 81.4444 45.1729 81.4381C45.2368 81.3086 45.2839 81.1714 45.3129 81.0298C45.3537 80.8928 45.3916 80.7586 45.4237 80.6186C45.4237 80.569 45.4441 80.5194 45.4529 80.4699C45.6454 80.362 45.8291 80.219 46.0099 80.0995C46.1908 79.9799 46.4037 79.8487 46.5932 79.7057C46.9368 79.4399 47.1928 79.0773 47.3282 78.6646C47.465 78.2199 47.5626 77.7642 47.6198 77.3026C47.7073 76.763 47.7744 76.2205 47.8765 75.6839C47.8823 75.6372 47.8327 75.6227 47.8269 75.6664Z" fill="#263238"/>
<path d="M38.357 128.084C38.0275 128.014 37.6658 127.994 37.3275 127.956C36.9892 127.918 36.5663 127.871 36.1872 127.825C35.4551 127.732 34.7289 127.65 33.9852 127.574C32.5036 127.422 31.0162 127.303 29.5317 127.221C29.1234 127.198 28.7151 127.18 28.3039 127.16C27.8927 127.139 27.4289 127.139 26.9944 127.099C26.9623 127.099 26.9594 127.137 26.9944 127.139C27.741 127.201 28.4905 127.332 29.2342 127.431C29.9779 127.53 30.6925 127.597 31.4362 127.67C32.9148 127.822 34.4052 127.936 35.8897 128.009C36.298 128.029 36.7063 128.058 37.1175 128.081L37.7708 128.111C37.9662 128.111 38.1587 128.151 38.3541 128.143C38.3618 128.143 38.3694 128.14 38.3752 128.135C38.3809 128.13 38.3843 128.123 38.3847 128.115C38.3851 128.107 38.3824 128.1 38.3772 128.094C38.372 128.088 38.3648 128.085 38.357 128.084Z" fill="#263238"/>
<path d="M34.3609 74.5261C33.6222 75.8716 33.1545 77.349 32.9843 78.8746C32.8239 80.5399 33.2497 82.1614 33.3314 83.8151C33.416 85.5212 33.2993 87.2303 33.2235 88.9335C33.1418 90.6834 33.0689 92.4333 32.9931 94.1978C32.9172 95.9623 32.8443 97.6743 32.7685 99.4125C32.6927 101.151 32.6548 102.886 32.5148 104.616C32.3301 106.311 32.0221 107.99 31.5932 109.641L30.4266 114.788C29.6479 118.201 28.8517 121.616 28.1604 125.048C28.0759 125.471 27.9855 125.894 27.9009 126.317C27.9025 126.322 27.9055 126.325 27.9094 126.328C27.9133 126.331 27.918 126.332 27.9228 126.332C27.9275 126.332 27.9322 126.331 27.9361 126.328C27.94 126.325 27.943 126.322 27.9446 126.317C28.8196 122.946 29.6129 119.554 30.3945 116.159C30.7833 114.462 31.1722 112.763 31.5611 111.064C31.9431 109.413 32.3864 107.762 32.6343 106.085C32.8361 104.414 32.9519 102.732 32.9814 101.049C33.0572 99.3104 33.1321 97.5722 33.206 95.8339C33.2799 94.0957 33.3567 92.341 33.4364 90.5697C33.5122 88.8519 33.6114 87.1311 33.6289 85.4104C33.641 84.5712 33.6079 83.732 33.5297 82.8964C33.4451 82.0623 33.2789 81.2398 33.2206 80.4028C33.1302 78.8047 33.39 77.2062 33.9818 75.7189C34.1295 75.33 34.2958 74.9509 34.4805 74.5815C34.5271 74.5144 34.393 74.4444 34.3609 74.5261Z" fill="#263238"/>
<path d="M45.6199 45.2299C45.9466 45.3087 47.4165 45.297 48.2448 46.7202C49.0235 48.0677 48.9331 51.897 49.0381 52.7457C49.143 53.5944 50.2047 53.8336 50.3651 54.8222C50.4963 55.6709 49.8605 55.9101 49.7351 56.508C49.6359 56.9717 50.0268 57.73 49.528 58.3774C49.0702 58.9607 48.3964 58.7595 47.9619 58.9112C47.5273 59.0628 47.1628 59.9932 46.3695 60.1682C45.5762 60.3432 44.9725 59.5849 44.5671 59.5324C44.1617 59.4799 43.5434 60.699 42.2339 60.4336C40.9244 60.1682 40.6561 59.0162 40.134 58.7333C39.612 58.4504 38.1916 58.6866 37.6404 57.9341C37.0892 57.1817 37.0775 56.2542 36.8325 55.8926C36.5876 55.531 35.9897 55.5164 35.7214 54.6998C35.453 53.8831 36.2317 53.4661 36.4067 52.8011C36.5292 52.3403 36.1588 51.862 36.5322 51.1737C37.0425 50.2317 38.2295 50.5729 38.8012 49.6076C39.2474 48.8522 40.3732 45.4749 42.5576 44.8478C44.0538 44.4133 45.6199 45.2299 45.6199 45.2299Z" fill="#263238"/>
<path d="M49.0148 52.5415C49.0756 52.7256 49.1807 52.8918 49.321 53.0256L49.7118 53.4456C49.9824 53.705 50.2107 54.0052 50.3884 54.3351C50.4685 54.4928 50.5117 54.6667 50.5148 54.8435C50.5178 55.0204 50.4806 55.1956 50.4059 55.3559C50.3183 55.5147 50.2083 55.6601 50.0793 55.7876C49.929 55.9229 49.8002 56.0802 49.6972 56.2542C49.6227 56.4568 49.6176 56.6784 49.6826 56.8842C49.7235 57.0737 49.773 57.2575 49.8051 57.4412C49.8503 57.615 49.8604 57.7961 49.8348 57.9738C49.8093 58.1516 49.7486 58.3225 49.6564 58.4766C49.5617 58.6235 49.4213 58.7352 49.2568 58.7945C49.0811 58.8469 48.8971 58.8657 48.7144 58.8499C48.5248 58.8499 48.3381 58.8178 48.1311 58.8003C47.9404 58.7626 47.7427 58.785 47.5653 58.8645C47.7472 58.8119 47.9404 58.8119 48.1223 58.8645C48.309 58.8995 48.4956 58.9432 48.7056 58.9665C48.9003 58.9924 49.0982 58.9816 49.2889 58.9345C49.4894 58.8749 49.6647 58.7508 49.7876 58.5816C49.9014 58.4122 49.9783 58.2209 50.0135 58.0199C50.0486 57.819 50.0412 57.6129 49.9918 57.415C49.9626 57.2225 49.913 57.0329 49.878 56.8521C49.8249 56.6911 49.8249 56.5173 49.878 56.3563C50.0268 56.0646 50.3972 55.8313 50.5692 55.4522C50.657 55.2655 50.6985 55.0605 50.6904 54.8544C50.6823 54.6483 50.6247 54.4472 50.5226 54.2681C50.3201 53.939 50.0671 53.6438 49.773 53.3931L49.3472 53.0081C49.2024 52.8798 49.0887 52.7203 49.0148 52.5415Z" fill="#263238"/>
<path d="M40.4004 46.5831C40.0075 47.1441 39.649 47.7285 39.3271 48.333C39.1521 48.6247 38.9859 48.9163 38.7905 49.208C38.6988 49.3421 38.5932 49.4663 38.4755 49.5784C38.4501 49.6052 38.4205 49.6278 38.388 49.6454C38.3589 49.6672 38.3264 49.6839 38.2918 49.695C38.2159 49.7242 38.1372 49.7504 38.0555 49.7738C37.7235 49.868 37.3964 49.9789 37.0756 50.1063C36.7369 50.2375 36.4474 50.4709 36.2473 50.7741C36.1484 50.9312 36.0912 51.1109 36.0811 51.2962C36.082 51.4751 36.1166 51.6522 36.1832 51.8182C36.3297 52.1258 36.4026 52.4633 36.3961 52.804C36.444 52.4608 36.4059 52.111 36.2852 51.7861C36.2329 51.6304 36.2111 51.466 36.2211 51.302C36.2386 51.1445 36.2958 50.9939 36.3873 50.8645C36.5808 50.5996 36.8473 50.3969 37.1543 50.2812C37.4715 50.1622 37.7947 50.06 38.1226 49.975C38.2043 49.9488 38.2889 49.9196 38.3705 49.8846C38.4608 49.8468 38.5437 49.7935 38.6155 49.7271C38.7422 49.601 38.8556 49.4623 38.9538 49.313C39.1461 49.0255 39.3204 48.7265 39.4759 48.4176L39.9338 47.496C40.0718 47.1831 40.2276 46.8783 40.4004 46.5831Z" fill="#263238"/>
<path d="M36.5218 55.6213C36.6162 55.8448 36.6657 56.0846 36.6677 56.3271C36.691 56.5721 36.7172 56.8171 36.7551 57.0621C36.7888 57.3107 36.8485 57.555 36.9331 57.7912C37.0181 58.0406 37.1622 58.2658 37.353 58.4474C37.783 58.7434 38.3101 58.8634 38.8259 58.7828C39.0709 58.7653 39.3158 58.7332 39.5579 58.7216C39.798 58.6906 40.042 58.7176 40.2695 58.8003C40.0513 58.6778 39.8052 58.6135 39.555 58.6137C39.3071 58.6137 39.0621 58.6137 38.82 58.6137C38.3535 58.6537 37.8871 58.5355 37.4959 58.2783C37.3308 58.1205 37.2041 57.9269 37.1255 57.7125C37.0382 57.49 36.9689 57.2607 36.9185 57.0271C36.8631 56.7908 36.8193 56.5517 36.7726 56.3096C36.7464 56.1901 36.7172 56.0676 36.6852 55.948C36.6604 55.8266 36.6041 55.7139 36.5218 55.6213Z" fill="#263238"/>
<path d="M42.9018 59.2057C44.9871 61.9938 52.8179 68.206 56.2681 67.7335C59.0533 67.3544 65.7525 62.8659 67.5432 61.6701C69.054 60.6639 63.4805 55.2976 62.1973 56.0413C60.914 56.785 57.1955 60.731 55.5098 60.7252C54.8477 60.7252 50.3388 59.0511 44.9083 56.9891C42.8055 56.19 41.6564 57.5433 42.9018 59.2057Z" fill="#D3766A"/>
<path d="M69.8101 56.8959C69.6906 57.38 69.9443 57.4442 70.6442 56.8959C71.3442 56.3476 73.6482 53.6002 74.5407 54.4839C75.4331 55.3676 72.1229 59.2057 70.8892 60.0253C69.6556 60.8448 67.372 61.7372 67.372 61.7372C67.8648 60.8652 68.8623 58.6253 69.8101 56.8959Z" fill="#D3766A"/>
<path d="M58.2524 55.6155H78.3004C78.3004 55.6155 79.2949 53.574 79.2949 51.6258V35.5676H59.247V51.8328C59.247 53.4573 58.2524 55.6155 58.2524 55.6155Z" fill="#F9C24E"/>
<path d="M75.8477 40.3039C73.4882 40.1114 71.1317 40.0676 68.7752 40.056C66.4186 40.0443 64.0592 40.1114 61.7027 40.3039C64.0592 40.4993 66.4157 40.543 68.7752 40.5518C71.1346 40.5605 73.4736 40.4993 75.8477 40.3039Z" fill="white"/>
<path d="M75.8477 42.9491C73.7274 42.7537 71.6042 42.71 69.4839 42.6983C67.3636 42.6866 65.2433 42.7537 63.123 42.9491C65.2433 43.1416 67.3636 43.1883 69.4839 43.197C71.6042 43.2058 73.7274 43.1416 75.8477 42.9491Z" fill="white"/>
<path d="M75.8477 45.5915C72.1452 45.261 68.4207 45.261 64.7183 45.5915C66.5679 45.7673 68.4251 45.85 70.283 45.8394C72.1379 45.8278 73.9928 45.784 75.8477 45.5915Z" fill="white"/>
<path d="M75.8477 48.2338C73.4882 48.0413 71.1317 47.9947 68.7752 47.9859C66.4186 47.9772 64.0592 48.0384 61.7027 48.2338C64.0592 48.4292 66.4157 48.473 68.7752 48.4817C71.1346 48.4905 73.4736 48.4263 75.8477 48.2338Z" fill="white"/>
<path d="M61.3586 57.415C62.8431 54.9972 64.5405 51.8999 67.3665 50.4154C67.6762 50.2405 68.0357 50.1748 68.3873 50.2287C69.6414 49.5346 70.3443 49.9167 70.3443 49.9167C71.7121 49.625 72.3858 50.1179 72.3858 50.1179C72.3858 50.1179 73.8674 49.3188 74.5003 50.1325C75.2119 51.0454 72.9924 51.9903 72.0912 53.2561C70.0205 56.158 67.8944 60.8593 67.3811 61.7547L61.3586 57.415Z" fill="#D3766A"/>
<path d="M67.7784 54.7581C68.3739 53.903 69.0267 53.0894 69.7324 52.3228C70.5562 51.5312 71.4385 50.803 72.3718 50.1442C72.3749 50.1423 72.3776 50.1398 72.3797 50.1368C72.3817 50.1339 72.3833 50.1305 72.3841 50.127C72.3849 50.1235 72.385 50.1199 72.3844 50.1163C72.3838 50.1127 72.3825 50.1093 72.3806 50.1063C72.3787 50.1032 72.3762 50.1005 72.3732 50.0984C72.3703 50.0963 72.367 50.0948 72.3634 50.094C72.3599 50.0932 72.3563 50.0931 72.3527 50.0937C72.3491 50.0943 72.3457 50.0956 72.3427 50.0975C70.4119 51.19 68.8195 52.7935 67.7405 54.7318C67.7142 54.7756 67.7463 54.8018 67.7784 54.7581Z" fill="#263238"/>
<path d="M65.8447 53.7635C66.5009 52.979 67.6587 51.6083 70.3652 49.9313C70.3652 49.9313 70.3652 49.9079 70.3652 49.9138C68.5238 50.7396 66.9492 52.0627 65.8184 53.7344C65.7718 53.7927 65.8009 53.816 65.8447 53.7635Z" fill="#263238"/>
<path d="M64.8179 53.2094C65.9845 51.9144 66.8769 51.2466 68.3848 50.2199C68.3848 50.2199 68.3848 50.1995 68.3848 50.2199C66.5474 51.2057 65.9932 51.7715 64.7771 53.1889C64.7246 53.2268 64.7712 53.2618 64.8179 53.2094Z" fill="#263238"/>
<path d="M61.7414 56.0413L64.168 66.249C64.168 66.249 58.6004 68.0835 55.7743 68.0981C52.9482 68.1127 46.0216 63.2421 43.6213 60.7485C41.221 58.2549 40.9964 55.3939 45.5403 56.9338C50.0842 58.4737 55.3047 60.4336 55.4564 60.4569C55.6081 60.4802 61.7414 56.0413 61.7414 56.0413Z" fill="#F9C24E"/>
<path d="M60.9888 61.8947C60.8138 61.1539 60.1663 58.1936 60.0788 57.4499C60.0788 57.4295 60.108 57.4295 60.1138 57.4499C60.3617 58.1645 61.0821 61.1276 61.2513 61.8684C61.5925 63.35 61.9541 64.8374 62.1758 66.3423C62.1758 66.3485 62.1733 66.3544 62.1689 66.3588C62.1646 66.3632 62.1586 66.3657 62.1524 66.3657C62.1463 66.3657 62.1403 66.3632 62.1359 66.3588C62.1316 66.3544 62.1291 66.3485 62.1291 66.3423C61.6625 64.8928 61.3358 63.385 60.9888 61.8947Z" fill="#263238"/>
<path opacity="0.1" d="M43.6204 60.7485C46.0236 63.2421 52.9532 68.1156 55.7735 68.0981C56.8652 68.0522 57.9501 67.9028 59.0137 67.6519L41.996 57.2546C41.7247 58.0799 42.3839 59.4653 43.6204 60.7485Z" fill="black"/>
<path d="M49.2319 73.9602C49.2319 73.9602 43.5272 75.3105 32.7187 74.3773C32.7187 74.3773 36.9447 60.8885 40.3483 57.2516C41.8969 55.5951 43.4106 55.8488 44.6938 56.9133C45.0146 57.1787 48.9811 62.2155 49.3194 63.9712C49.611 65.5228 48.354 67.2465 48.354 67.2465L49.2319 73.9602Z" fill="#F9C24E"/>
<path d="M47.2485 60.2585C47.5948 60.7279 47.917 61.2146 48.2139 61.7167C48.0914 61.4251 47.9776 61.1509 47.8755 60.8418C47.8755 60.8418 47.893 60.8243 47.896 60.8418C48.001 61.0489 48.106 61.253 48.1876 61.4688C48.2693 61.6847 48.3422 61.8538 48.4151 62.0521C48.7944 62.626 49.0955 63.2478 49.3105 63.9012C49.4526 64.5002 49.4395 65.1256 49.2726 65.7182C49.1853 66.0212 49.067 66.3144 48.9197 66.5931C48.8009 66.8465 48.6446 67.0806 48.4559 67.2872C48.5638 67.9085 48.6368 68.5413 48.7184 69.1655C48.8194 69.7754 48.8827 70.391 48.908 71.0087C48.908 71.0172 48.9046 71.0254 48.8986 71.0314C48.8926 71.0374 48.8844 71.0408 48.8759 71.0408C48.8674 71.0408 48.8592 71.0374 48.8532 71.0314C48.8472 71.0254 48.8438 71.0172 48.8438 71.0087C48.8292 70.9649 48.8176 70.9212 48.803 70.8774C48.8009 70.8745 48.7997 70.8709 48.7997 70.8672C48.7997 70.8636 48.8009 70.86 48.803 70.857C48.6688 70.2941 48.6105 69.6904 48.5318 69.1305C48.453 68.5705 48.3014 67.2931 48.3014 67.2872C48.3014 67.2814 48.593 66.7681 48.6951 66.5319C48.8306 66.2425 48.9409 65.942 49.0246 65.6336C49.1965 65.0526 49.2086 64.436 49.0596 63.8487C48.852 63.221 48.571 62.6199 48.2226 62.058C47.8872 61.4572 47.5402 60.8593 47.1931 60.2643C47.196 60.2643 47.2252 60.2352 47.2485 60.2585Z" fill="#263238"/>
<path d="M52.6499 89.4497L35.2793 81.6627L34.2323 78.9911L42.0193 61.6176L59.3899 69.4076L61.1719 70.4429L52.6499 89.4497Z" fill="#A6A6A6"/>
<path d="M51.601 86.7834L34.2285 78.9941L42.0178 61.6216L59.3903 69.4109L51.601 86.7834Z" fill="#C7C7C7"/>
<path d="M42.8709 66.5698C44.9883 67.3194 47.0502 68.1943 49.0947 69.1013C51.1391 70.0084 53.1603 70.9796 55.1289 72.0645C53.0086 71.3179 50.9496 70.44 48.9022 69.533C46.8548 68.626 44.8395 67.6548 42.8709 66.5698Z" fill="white"/>
<path d="M41.8451 68.8593C42.9272 69.1668 43.9841 69.5568 45.0066 70.0258C46.0359 70.4762 47.0277 71.0077 47.9727 71.6153C45.8131 70.9879 43.7517 70.0622 41.848 68.8651L41.8451 68.8593Z" fill="white"/>
<path d="M40.8093 71.1516C42.4921 71.7028 44.1165 72.3853 45.7265 73.0969C47.3364 73.8085 48.9346 74.5843 50.4512 75.4738C48.7684 74.9226 47.1439 74.2402 45.534 73.5285C43.9241 72.8169 42.3492 72.0382 40.8093 71.1516Z" fill="white"/>
<path d="M39.7918 73.4412C41.9091 74.1907 43.9682 75.0656 46.0156 75.9727C48.0629 76.8797 50.0812 77.8509 52.0469 78.9358C49.9295 78.1892 47.8705 77.3113 45.8231 76.4043C43.7757 75.4973 41.7575 74.5232 39.7918 73.4412Z" fill="white"/>
<path d="M38.7682 75.7306C40.4131 76.2672 42.0026 76.9351 43.5775 77.6292C45.1567 78.3267 46.6987 79.1054 48.1973 79.9624C46.5619 79.4118 44.9558 78.7781 43.3851 78.0638C41.816 77.3463 40.2615 76.6026 38.7682 75.7306Z" fill="white"/>
<path d="M33.6177 78.1628L50.9971 85.9353C50.9971 85.9353 52.6507 84.547 53.4061 82.8613L59.4199 69.4104L42.0435 61.638L35.9451 75.2697C35.3151 76.6783 33.6177 78.1628 33.6177 78.1628Z" fill="#DBDBDB"/>
<path d="M54.5957 72.1811C52.6271 71.0991 50.6001 70.1396 48.5615 69.2238C46.5229 68.308 44.4521 67.4418 42.3318 66.6952C44.3005 67.7801 46.3274 68.7367 48.369 69.6525C50.4105 70.5683 52.4754 71.4345 54.5957 72.1811Z" fill="white"/>
<path d="M53.5703 74.4705C51.8204 73.4818 49.9889 72.6215 48.1544 71.7903C46.3199 70.9591 44.4563 70.1921 42.5431 69.5388C44.293 70.5304 46.1274 71.3907 47.9619 72.219C49.7964 73.0473 51.6571 73.8172 53.5703 74.4705Z" fill="white"/>
<path d="M52.5449 76.763C51.0138 75.888 49.4214 75.1181 47.8173 74.389C46.2106 73.6635 44.5685 73.0191 42.8972 72.4583C44.4312 73.3332 46.0207 74.1032 47.6248 74.8294C49.2289 75.5556 50.8621 76.2118 52.5449 76.763Z" fill="white"/>
<path d="M51.5215 79.0553C49.5529 77.9733 47.5259 77.0138 45.4873 76.098C43.4486 75.1822 41.3779 74.316 39.2576 73.5694C41.2263 74.6514 43.2532 75.6109 45.2948 76.5267C47.3363 77.4425 49.4012 78.3087 51.5215 79.0553Z" fill="white"/>
<path d="M39.4471 58.1675C36.6239 61.9852 31.2371 71.0234 33.0308 73.0124C36.0056 76.2847 44.6472 80.012 46.8666 80.534C47.8349 80.7674 50.8564 73.2428 49.8473 72.8928C48.4444 72.4174 39.8933 69.3435 39.9137 68.6931C39.9137 68.3227 40.7216 65.2254 41.3719 61.2473C42.1565 56.6392 40.7916 56.3534 39.4471 58.1675Z" fill="#D3766A"/>
<path d="M58.4609 76.5093C58.4546 76.7617 58.3713 77.0061 58.2222 77.2099C58.0732 77.4137 57.8654 77.5671 57.6268 77.6496C57.8637 78.0083 57.9669 78.4388 57.9185 78.8658C57.7901 79.6124 56.5681 79.7408 56.5681 79.7408C56.7297 80.1643 56.7602 80.6267 56.6556 81.0678C56.4631 81.7706 55.247 82.074 55.247 82.074C55.1805 82.5462 54.9466 82.9788 54.5878 83.293C53.5962 84.0922 51.7559 83.4564 50.5835 83.0656C49.4111 82.6747 46.4508 80.4582 45.8442 80.0937L48.2999 72.5458C48.2999 72.5458 54.0599 72.8083 55.3753 73.4645C56.469 74.0186 58.4464 75.5439 58.4609 76.5093Z" fill="#D3766A"/>
<path d="M57.6136 77.5126C56.5782 76.6376 55.3416 76.1243 54.1371 75.5381C54.1109 75.5235 54.0904 75.5673 54.1167 75.5789C55.3212 76.1622 56.3974 76.9497 57.5786 77.568C57.6106 77.5826 57.6427 77.5359 57.6136 77.5126Z" fill="#263238"/>
<path d="M56.5577 79.6328C56.3038 79.458 56.0283 79.3169 55.7381 79.2129C55.4465 79.0845 55.1344 78.962 54.8282 78.8425C54.2177 78.6072 53.6023 78.3865 52.982 78.1804C52.9529 78.1804 52.9324 78.2096 52.9616 78.2213C53.5682 78.4585 54.171 78.7073 54.7698 78.9679C55.0615 79.0991 55.3531 79.2333 55.6623 79.3674C55.9344 79.5144 56.222 79.6308 56.5197 79.7145C56.5298 79.7162 56.5402 79.7146 56.5493 79.7098C56.5583 79.705 56.5656 79.6974 56.5699 79.6881C56.5742 79.6789 56.5753 79.6684 56.5731 79.6584C56.5709 79.6484 56.5655 79.6394 56.5577 79.6328Z" fill="#263238"/>
<path d="M55.2085 82.0622C54.9756 81.9075 54.7182 81.7931 54.4473 81.7239L53.6103 81.4148C53.0503 81.2048 52.4932 80.9919 51.942 80.7644C51.9158 80.7644 51.8953 80.7936 51.9216 80.8052C52.4816 81.0415 53.0357 81.2865 53.5957 81.5169L54.4239 81.8523C54.6662 81.9777 54.9289 82.0587 55.1997 82.0914C55.1997 82.0914 55.2172 82.0827 55.2085 82.0622Z" fill="#263238"/>
<path d="M46.0996 71.1837L41.9757 80.4057C41.9757 80.4057 34.0574 75.4476 32.6225 72.7411C31.3334 70.3146 37.5164 60.4277 38.9513 58.5028C40.3862 56.5779 41.8124 56.2455 41.6549 59.4682C41.4974 62.6909 40.1616 68.5385 40.1616 68.6318C40.1616 68.7251 46.0996 71.1837 46.0996 71.1837Z" fill="#F9C24E"/>
<path d="M42.2493 74.7914C42.541 74.0914 43.7834 71.3266 44.1509 70.6762C44.1509 70.6558 44.1888 70.6762 44.183 70.6937C43.9584 71.417 42.7831 74.2285 42.4797 74.9255C41.8731 76.3196 41.284 77.7341 40.5694 79.0786C40.5667 79.0844 40.5618 79.0889 40.5558 79.0911C40.5498 79.0933 40.5432 79.093 40.5374 79.0903C40.5316 79.0876 40.5271 79.0827 40.5249 79.0766C40.5227 79.0706 40.523 79.064 40.5257 79.0582C41.0157 77.5941 41.6456 76.1854 42.2493 74.7914Z" fill="#263238"/>
<path d="M40.8097 65.0503C41.0401 63.8254 41.2472 62.5947 41.4572 61.3639C41.4572 61.3406 41.5009 61.3464 41.498 61.3639C41.4397 62.0609 41.358 62.7521 41.2618 63.4434C41.3726 63.0875 41.4747 62.7259 41.5738 62.3672C41.5738 62.3409 41.6176 62.3672 41.6147 62.3672C41.5274 62.8432 41.3926 63.3093 41.2122 63.7583C41.148 64.1783 41.081 64.5954 41.008 65.0124C40.8972 65.622 40.3548 68.3051 40.2702 68.6055C41.3026 68.9584 42.2155 69.3959 43.2246 69.8101C43.7184 70.0045 44.2104 70.2116 44.7003 70.4313C45.2148 70.6148 45.7165 70.832 46.2023 71.0816C46.2286 71.0816 46.1381 71.2246 46.1061 71.2887C46.074 71.3529 46.0448 71.312 46.0536 71.2887C46.0623 71.2654 46.074 71.2246 46.0798 71.2012C45.8348 71.1341 44.8549 70.72 44.6041 70.6179L43.1225 70.0113C42.1221 69.6001 40.0427 68.7455 40.0456 68.728C40.066 68.4568 40.6843 65.6716 40.8097 65.0503Z" fill="#263238"/>
<path d="M41.7478 56.817C41.812 57.1087 43.1798 59.0132 44.5098 58.9665C44.9443 58.949 44.9618 56.5808 44.9618 56.5808L45.0026 56.4058L45.5859 53.9618L42.7278 52.0836L42.3165 51.8328C42.3165 51.8328 42.2028 52.5123 42.0687 53.361C42.0687 53.3989 42.0687 53.4368 42.0512 53.4806C42.0337 53.5243 42.0336 53.5739 42.0278 53.6177C42.0045 53.7431 41.9841 53.8743 41.9666 54.0026C41.9491 54.131 41.9374 54.1951 41.9257 54.2943C41.9141 54.3934 41.8995 54.4984 41.8849 54.5859C41.7869 55.3255 41.7411 56.071 41.7478 56.817Z" fill="#D3766A"/>
<path d="M42.0599 53.3611C42.2987 54.0538 42.6857 54.6862 43.1939 55.2141C43.7022 55.7419 44.3194 56.1526 45.0026 56.4175L45.5859 53.9735L42.7278 52.0953L42.3165 51.8445C42.3165 51.8445 42.1941 52.5124 42.0599 53.3611Z" fill="#263238"/>
<path d="M49.2087 49.4355C50.4657 53.6614 48.0771 54.8893 47.1671 55.1605C46.3418 55.4055 43.4924 56.1346 41.8066 52.0632C40.1209 47.9918 41.687 46.0698 43.5565 45.4107C45.426 44.7516 47.9517 45.2124 49.2087 49.4355Z" fill="#D3766A"/>
<path d="M48.3924 48.8842C48.2903 48.8988 48.1912 48.8842 48.1008 48.9017C47.9942 48.9237 47.8833 48.9093 47.7858 48.8609C47.759 48.8396 47.7397 48.8102 47.7308 48.7772C47.7219 48.7441 47.7238 48.7091 47.7362 48.6772C47.7717 48.6174 47.8227 48.5682 47.8838 48.5348C47.9448 48.5015 48.0137 48.4852 48.0833 48.4876C48.2241 48.471 48.3661 48.5062 48.4828 48.5868C48.5081 48.6081 48.5266 48.6364 48.536 48.6681C48.5454 48.6998 48.5453 48.7336 48.5357 48.7653C48.526 48.797 48.5073 48.8251 48.4819 48.8463C48.4564 48.8674 48.4253 48.8806 48.3924 48.8842Z" fill="#263238"/>
<path d="M45.475 49.6717C45.568 49.6303 45.6585 49.5836 45.7462 49.5317C45.8476 49.4963 45.9346 49.4287 45.9941 49.3392C46.0074 49.3067 46.0095 49.2707 46 49.2369C45.9905 49.2031 45.9699 49.1734 45.9416 49.1526C45.8824 49.1177 45.8149 49.0993 45.7462 49.0993C45.6775 49.0993 45.61 49.1177 45.5508 49.1526C45.4213 49.211 45.3176 49.3147 45.2591 49.4442C45.2452 49.4749 45.2407 49.509 45.2463 49.5422C45.2519 49.5755 45.2672 49.6063 45.2904 49.6307C45.3136 49.6551 45.3435 49.6721 45.3764 49.6794C45.4093 49.6867 45.4436 49.684 45.475 49.6717Z" fill="#263238"/>
<path d="M46.4373 50.5321C46.4373 50.5321 46.4169 50.5525 46.4373 50.5642C46.5306 50.8558 46.5919 51.1912 46.3615 51.3633C46.3615 51.3633 46.3615 51.3837 46.3615 51.3779C46.6414 51.2379 46.5715 50.7858 46.4373 50.5321Z" fill="#263238"/>
<path d="M46.0906 50.3075C45.6181 50.4096 45.8573 51.3487 46.2977 51.2525C46.7381 51.1562 46.4872 50.22 46.0906 50.3075Z" fill="#263238"/>
<path d="M45.9193 50.4037C45.8523 50.4796 45.7939 50.5933 45.6977 50.6283C45.6014 50.6633 45.476 50.5933 45.3769 50.5175C45.3769 50.5175 45.3594 50.5175 45.3769 50.5175C45.4206 50.6983 45.5373 50.8645 45.7385 50.8412C45.9398 50.8179 46.0039 50.6312 46.0039 50.4387C45.9893 50.4154 45.9456 50.3746 45.9193 50.4037Z" fill="#263238"/>
<path d="M48.0374 50.0537C48.0374 50.0537 48.0637 50.0537 48.0666 50.0741C48.1308 50.3658 48.2503 50.6953 48.5391 50.7245V50.742C48.2095 50.777 48.052 50.3424 48.0374 50.0537Z" fill="#263238"/>
<path d="M48.2193 49.6863C48.6802 49.5346 48.9514 50.465 48.5256 50.605C48.0998 50.745 47.8344 49.8146 48.2193 49.6863Z" fill="#263238"/>
<path d="M48.4334 49.6921C48.5209 49.7183 48.6201 49.7883 48.7251 49.7679C48.8301 49.7475 48.8738 49.6221 48.9118 49.5083C48.9118 49.4937 48.9118 49.5083 48.9293 49.5083C48.9847 49.6833 48.9788 49.8845 48.8184 49.9691C48.658 50.0537 48.5268 49.9254 48.4189 49.762C48.3926 49.7358 48.3926 49.6804 48.4334 49.6921Z" fill="#263238"/>
<path d="M48.0098 52.1508C47.9412 52.3487 47.8238 52.5263 47.6685 52.667C47.5804 52.7412 47.4713 52.786 47.3565 52.7953C47.1086 52.7953 47.0298 52.6028 47.0123 52.4074C47.0012 52.3047 47.0012 52.201 47.0123 52.0983C47.3304 52.2233 47.6804 52.2417 48.0098 52.1508Z" fill="#263238"/>
<path d="M47.668 52.6669C47.5798 52.7411 47.4707 52.7859 47.3559 52.7952C47.108 52.7952 47.0293 52.6027 47.0118 52.4073C47.1345 52.373 47.2651 52.3798 47.3836 52.4266C47.5021 52.4735 47.602 52.5579 47.668 52.6669Z" fill="#FF97B8"/>
<path d="M47.9467 51.5529C47.9467 51.5529 48.1217 51.9699 48.1771 52.1741C48.1771 52.1916 48.1363 52.2149 48.0692 52.2382C47.9026 52.3182 47.7172 52.3504 47.5334 52.3313C47.3496 52.3123 47.1747 52.2427 47.028 52.1303C47.0076 52.1157 47.028 52.0866 47.0514 52.0953C47.3608 52.1989 47.6956 52.1989 48.0051 52.0953C48.0051 52.0341 47.6784 51.3924 47.7134 51.3808C47.876 51.3515 48.0418 51.3446 48.2063 51.3604C47.8651 50.4854 47.3838 49.6659 47.0572 48.7851C47.0559 48.7789 47.0566 48.7724 47.0593 48.7667C47.062 48.7609 47.0665 48.7562 47.0721 48.7533C47.0777 48.7503 47.0841 48.7492 47.0904 48.7502C47.0966 48.7513 47.1024 48.7543 47.1068 48.7589C47.6482 49.6185 48.1025 50.5301 48.463 51.4799C48.4979 51.6054 48.0371 51.5645 47.9467 51.5529Z" fill="#263238"/>
<path d="M42.0691 51.9611C43.0811 51.7511 42.7311 50.1587 42.7311 50.1587C42.7311 50.1587 43.8569 49.8087 43.5448 47.9392C43.8474 48.2635 44.2212 48.5132 44.6367 48.6686C45.0522 48.8239 45.4981 48.8808 45.9393 48.8346C46.2776 48.8113 44.9914 48.1959 44.9914 48.1959C44.9914 48.1959 46.5721 49.1087 48.9257 48.1288C49.0949 48.0588 48.1704 45.5506 46.0559 45.0811C43.9414 44.6115 42.314 45.4836 41.3895 46.9505C41.3895 46.9505 40.1179 47.9042 40.2463 49.2837C40.3746 50.6632 41.6841 52.0427 42.0691 51.9611Z" fill="#263238"/>
<path d="M42.2677 53.6235C42.3375 53.6319 42.408 53.6319 42.4777 53.6235C42.5482 53.6233 42.6182 53.6115 42.6848 53.5885C42.77 53.5616 42.8486 53.5169 42.9152 53.4573C42.9688 53.4111 43.0151 53.357 43.0523 53.2969C43.1079 53.2075 43.1465 53.1086 43.166 53.0052L42.6906 51.9028C42.6906 51.9028 41.4715 50.7362 40.9407 51.2087C40.4099 51.6811 41.4861 53.501 42.2677 53.6235Z" fill="#D3766A"/>
<path d="M41.2495 51.7511V51.7716C41.7949 51.8707 42.1565 52.2849 42.4423 52.7311C42.4034 52.686 42.3553 52.6499 42.3012 52.6251C42.2471 52.6004 42.1883 52.5875 42.1288 52.5875C42.0693 52.5875 42.0105 52.6004 41.9564 52.6251C41.9023 52.6499 41.8541 52.686 41.8153 52.7311C41.8153 52.7311 41.8153 52.7632 41.8357 52.7573C41.9181 52.7108 42.0129 52.6912 42.107 52.7011C42.2011 52.7111 42.2898 52.7501 42.3607 52.8127C42.4794 52.918 42.587 53.0352 42.6815 53.1627C42.7135 53.2036 42.7894 53.1627 42.7631 53.1131C42.6348 52.4628 41.9523 51.6666 41.2495 51.7511Z" fill="#263238"/>
<path d="M42.2681 53.4281C42.2786 53.4529 42.2938 53.4753 42.313 53.4941C42.3322 53.5129 42.3549 53.5278 42.3798 53.5378C42.4047 53.5478 42.4314 53.5528 42.4583 53.5525C42.4851 53.5522 42.5117 53.5466 42.5364 53.536C42.5735 53.5202 42.605 53.4936 42.6271 53.4598C42.6491 53.426 42.6606 53.3864 42.6601 53.3461C42.6597 53.3058 42.6473 53.2664 42.6245 53.2331C42.6017 53.1998 42.5696 53.174 42.5322 53.159C42.4947 53.1439 42.4537 53.1403 42.4142 53.1486C42.3747 53.1568 42.3385 53.1766 42.3103 53.2054C42.282 53.2342 42.2629 53.2707 42.2554 53.3104C42.2479 53.35 42.2523 53.391 42.2681 53.4281Z" fill="white"/>
<path d="M41.8092 53.2094C41.8202 53.2355 41.8386 53.2578 41.8622 53.2734C41.8858 53.289 41.9135 53.2973 41.9418 53.2971C41.9701 53.297 41.9977 53.2884 42.0212 53.2725C42.0446 53.2567 42.0628 53.2342 42.0735 53.208C42.0841 53.1818 42.0868 53.153 42.081 53.1253C42.0753 53.0975 42.0615 53.0721 42.0413 53.0523C42.0211 53.0325 41.9955 53.0191 41.9677 53.0138C41.9399 53.0085 41.9111 53.0116 41.8851 53.0227C41.8676 53.0297 41.8518 53.0402 41.8384 53.0534C41.8251 53.0667 41.8146 53.0825 41.8075 53.0999C41.8005 53.1174 41.7969 53.136 41.7972 53.1548C41.7975 53.1736 41.8016 53.1922 41.8092 53.2094Z" fill="white"/>
<path d="M44.9624 56.5896L44.347 58.5961L41.7221 56.3446L41.1068 57.1904C41.1068 57.1904 43.7958 60.8914 43.7958 60.7135L44.4549 58.9636L45.7061 60.0281L45.3648 57.1116L44.9624 56.5896Z" fill="#EBEBEB"/>
<path d="M45.6248 58.5874C45.5519 58.1091 45.4935 57.625 45.3973 57.1496C45.3959 57.1465 45.3937 57.1438 45.3908 57.142C45.388 57.1401 45.3847 57.1391 45.3813 57.1391C45.3778 57.1391 45.3745 57.1401 45.3717 57.142C45.3688 57.1438 45.3666 57.1465 45.3652 57.1496C45.3098 57.6221 45.5956 59.4507 45.6306 59.894C45.5781 59.8474 44.464 58.9637 44.464 58.9782C44.3124 59.2699 43.8282 60.5269 43.7991 60.6406C43.3733 60.0573 41.5825 57.7446 41.0896 57.1963C41.0866 57.1942 41.083 57.1932 41.0793 57.1933C41.0756 57.1934 41.072 57.1947 41.0691 57.197C41.0662 57.1992 41.0641 57.2024 41.0631 57.2059C41.062 57.2094 41.0621 57.2132 41.0634 57.2167C41.4484 57.8437 43.767 60.8915 43.7961 60.8798C44.0553 60.2792 44.2841 59.666 44.4815 59.0424C44.8934 59.4492 45.3319 59.8282 45.7939 60.1769C45.7654 59.6445 45.7089 59.1139 45.6248 58.5874Z" fill="#263238"/>
</svg>
