<svg width="374" height="169" viewBox="0 0 374 169" fill="none" xmlns="http://www.w3.org/2000/svg">
<rect width="374" height="169" rx="20" fill="#CEECFE"/>
<path d="M56.0653 19.259H20.6934V81.1439H56.0653V19.259Z" fill="#FAFAFA"/>
<path d="M31.7128 81.7358C31.7128 81.7358 27.8338 53.8958 25.8068 50.8347C25.8068 50.8347 37.396 42.1349 37.7492 18.5526H20.165V81.7358H31.7128Z" fill="#F5F5F5"/>
<path d="M45.0425 81.6149C45.0425 81.6149 48.9151 53.7717 50.9452 50.7138C50.9452 50.7138 39.3593 42.0108 39.0029 18.4317H56.587V81.6149H45.0425Z" fill="#F5F5F5"/>
<path d="M56.9946 16.9011H17.416V83.19H58.6366V16.9011H56.9946ZM27.8023 51.3406V67.1046H20.6935V51.3406H27.8023ZM20.6935 50.2015V33.887H27.8023V50.2015H20.6935ZM38.6245 50.2015V33.887H47.5343V50.2015H38.6245ZM47.5343 51.3406V67.1046H38.6245V51.3406H47.5343ZM28.1237 50.2015V33.887H37.4885V50.2015H28.1237ZM37.4885 51.3406V67.1046H28.1205V51.3406H37.4885ZM28.1205 33.5942V19.2749H37.4853V33.5942H28.1205ZM37.4853 67.3878V81.1503H28.1205V67.3878H37.4853ZM38.6245 67.3878H47.5343V81.1503H38.6245V67.3878ZM38.6245 33.6038V19.2749H47.5343V33.5942L38.6245 33.6038ZM47.8334 51.3406H55.3558V67.1046H47.8334V51.3406ZM47.8334 50.2015V33.887H55.3558V50.2015H47.8334ZM55.3558 33.5942H47.8334V19.2749H55.3558V33.5942ZM27.8023 19.2749V33.5942H20.6935V19.2749H27.8023ZM20.6935 67.3878H27.8023V81.1503H20.6935V67.3878ZM47.8334 81.1503V67.3878H55.3558V81.1503H47.8334Z" fill="#EBEBEB"/>
<path d="M176.501 31.5195H68.8799V103.6H176.501V31.5195Z" fill="#F5F5F5"/>
<path d="M176.501 31.5195H68.8799V38.7205H176.501V31.5195Z" fill="#EBEBEB"/>
<path d="M73.5413 35.1184C73.554 35.2932 73.5139 35.4677 73.426 35.6193C73.3382 35.7708 73.2067 35.8924 73.0488 35.9682C72.8908 36.044 72.7137 36.0704 72.5405 36.044C72.3673 36.0177 72.206 35.9397 72.0778 35.8204C71.9495 35.7011 71.8602 35.5459 71.8214 35.375C71.7827 35.2042 71.7963 35.0256 71.8605 34.8626C71.9246 34.6996 72.0365 34.5597 72.1813 34.4612C72.3262 34.3626 72.4974 34.31 72.6726 34.3102C72.8949 34.3025 73.1111 34.3832 73.274 34.5347C73.4369 34.6862 73.533 34.8962 73.5413 35.1184Z" fill="#FAFAFA"/>
<path d="M76.3479 35.1184C76.3607 35.2932 76.3205 35.4677 76.2327 35.6193C76.1448 35.7708 76.0134 35.8924 75.8554 35.9682C75.6975 36.044 75.5203 36.0704 75.3471 36.044C75.1739 36.0177 75.0127 35.9397 74.8844 35.8204C74.7562 35.7011 74.6668 35.5459 74.6281 35.375C74.5893 35.2042 74.6029 35.0256 74.6671 34.8626C74.7313 34.6996 74.8431 34.5597 74.988 34.4612C75.1328 34.3626 75.304 34.31 75.4792 34.3102C75.7015 34.3025 75.9178 34.3832 76.0806 34.5347C76.2435 34.6862 76.3396 34.8962 76.3479 35.1184Z" fill="#FAFAFA"/>
<path d="M79.1545 35.1184C79.1673 35.2932 79.1272 35.4677 79.0393 35.6193C78.9515 35.7708 78.82 35.8924 78.6621 35.9682C78.5041 36.044 78.327 36.0704 78.1538 36.044C77.9806 36.0177 77.8193 35.9397 77.6911 35.8204C77.5628 35.7011 77.4735 35.5459 77.4347 35.375C77.3959 35.2042 77.4095 35.0256 77.4737 34.8626C77.5379 34.6996 77.6497 34.5597 77.7946 34.4612C77.9395 34.3626 78.1106 34.31 78.2858 34.3102C78.5081 34.3025 78.7244 34.3832 78.8873 34.5347C79.0501 34.6862 79.1462 34.8962 79.1545 35.1184Z" fill="#FAFAFA"/>
<path d="M209.447 45.7625H187.825V73.9588L209.447 74.5029V45.7625Z" fill="#EBEBEB"/>
<path d="M208.025 46.768H189.104V72.3391L208.025 72.9787V46.768Z" fill="#FAFAFA"/>
<path d="M204.713 51.4138L192.156 50.9365V68.8102H204.713V51.4138Z" fill="#EBEBEB"/>
<path d="M192.156 68.8102L204.713 59.6267L192.156 50.9365V68.8102Z" fill="#F5F5F5"/>
<path d="M207.064 25.9223L195.029 25.5468V41.2407L207.064 41.543V25.9223Z" fill="#EBEBEB"/>
<path d="M206.272 26.6064L195.742 26.1068V40.337L206.272 40.6934V26.6064Z" fill="#FAFAFA"/>
<path d="M204.429 28.6907L197.441 28.4265V38.3737H204.429V28.6907Z" fill="#EBEBEB"/>
<path d="M197.441 38.3737L204.429 33.2633L197.441 28.4265V38.3737Z" fill="#F5F5F5"/>
<path d="M124.27 12.6307L123.118 23.3289H137.886L139.111 12.6307H124.27Z" fill="#EBEBEB"/>
<path d="M124.878 13.334L123.755 22.6956H137.085L138.163 13.334H124.878Z" fill="#FAFAFA"/>
<path d="M127.121 14.9727L126.431 21.1873H134.841L135.274 14.9727H127.121Z" fill="#EBEBEB"/>
<path d="M143.541 9L141.994 23.3289H161.78L163.422 9H143.541Z" fill="#EBEBEB"/>
<path d="M144.352 9.94189L142.85 22.4824H160.707L162.152 9.94189H144.352Z" fill="#FAFAFA"/>
<path d="M147.359 12.1375L146.433 20.4586H157.7L158.279 12.1375H147.359Z" fill="#EBEBEB"/>
<path d="M170.807 23.3289H113.187V24.9772H170.807V23.3289Z" fill="#EBEBEB"/>
<path d="M123.045 28.9866L120.521 24.9772H124.27V28.9866H123.045Z" fill="#EBEBEB"/>
<path d="M121.74 24.9772L123.971 28.9866H124.27V24.9772H121.74Z" fill="#E0E0E0"/>
<path d="M156.291 28.9866L153.768 24.9772H157.516V28.9866H156.291Z" fill="#EBEBEB"/>
<path d="M154.986 24.9772L157.217 28.9866H157.516V24.9772H154.986Z" fill="#E0E0E0"/>
<path d="M44.2608 121.321C49.5653 117.852 50.9113 111.205 50.8509 105.204C50.8509 104.201 50.9781 103.148 50.5167 102.257C50.0553 101.366 48.9448 100.742 48.0252 101.14C47.2647 101.474 46.9146 102.33 46.4755 103.049C45.8866 103.993 45.0426 104.751 44.0412 105.235C43.3889 105.554 42.5838 105.732 41.9538 105.369C41.0915 104.873 41.0183 103.676 41.0469 102.68L41.2187 97.1147C41.3047 96.1201 41.2262 95.1181 40.9864 94.149C40.6969 93.1944 40.0318 92.3034 39.0772 92.0139C38.1226 91.7243 36.9229 92.243 36.697 93.2135C36.6491 93.6253 36.63 94.04 36.6397 94.4545C36.6016 94.865 36.3947 95.32 36.0033 95.4091C35.6119 95.4982 35.2014 95.2246 34.9055 94.9255C33.8904 93.8945 33.2126 92.5835 32.5858 91.2788C31.9589 89.9742 31.3352 88.6441 30.4124 87.524C29.4896 86.4039 28.2104 85.5033 26.7658 85.3888C25.3211 85.2742 23.7619 86.1175 23.38 87.5081C22.9982 88.8986 23.7746 90.3496 24.6529 91.5079C25.9539 93.2275 27.4961 94.7504 29.2319 96.0296C29.5712 96.2247 29.839 96.5237 29.9956 96.8824C30.1992 97.5507 29.5469 98.1934 28.8755 98.3971C28.1182 98.6262 27.3035 98.5307 26.5144 98.6008C25.7252 98.6708 24.8661 98.9953 24.5511 99.724C24.1119 100.733 24.9488 101.818 25.7793 102.537C27.4493 103.981 29.3543 105.128 31.4116 105.929C32.1467 106.212 32.9199 106.467 33.5054 106.995C34.0909 107.523 34.4314 108.43 34.0527 109.121C33.674 109.811 32.7417 110.018 31.9653 109.856C31.1889 109.693 30.5079 109.264 29.7728 108.968C28.3982 108.417 26.5908 108.472 25.6902 109.633C25.4094 110.032 25.2259 110.491 25.1546 110.973C25.0833 111.456 25.1262 111.948 25.2797 112.411C25.5976 113.334 26.0975 114.183 26.7499 114.909C28.8933 117.573 31.7023 119.623 34.8928 120.853C38.0748 122.03 41.0564 122.399 44.2799 121.321" fill="#FF725E"/>
<path d="M24.8535 86.1779L24.949 86.2734L25.2417 86.5471C25.5027 86.7825 25.8781 87.1326 26.3618 87.594C27.716 88.8968 28.9701 90.2999 30.1135 91.7911C30.8422 92.7457 31.5963 93.7958 32.3855 94.9541C33.1746 96.1124 34.0083 97.3534 34.8325 98.693C35.7059 100.087 36.5026 101.527 37.219 103.008C37.5882 103.778 37.9159 104.583 38.25 105.404L39.2587 107.899C40.561 111.056 41.6829 114.285 42.619 117.569C43.3727 120.252 43.8692 123.001 44.1019 125.779C44.2519 127.653 44.237 129.536 44.0573 131.408C43.9905 132.07 43.9268 132.582 43.8696 132.929C43.8473 133.094 43.8282 133.225 43.8123 133.324C43.8095 133.368 43.8095 133.413 43.8123 133.457C43.8291 133.415 43.8398 133.371 43.8441 133.327L43.9205 132.935C43.9873 132.588 44.0637 132.076 44.1432 131.414C44.3507 129.54 44.3848 127.65 44.2451 125.769C44.0287 122.98 43.5417 120.219 42.7908 117.525C41.8621 114.231 40.7423 110.995 39.4369 107.832L38.4282 105.334C38.0941 104.516 37.7632 103.705 37.3877 102.932C36.6693 101.445 35.8672 99.9999 34.9852 98.6039C34.1515 97.2643 33.3146 96.0233 32.5191 94.865C31.7236 93.7067 30.9631 92.6375 30.2249 91.7116C29.0661 90.2217 27.7891 88.8277 26.4064 87.5431C25.9195 87.088 25.5313 86.7444 25.264 86.5184L24.9458 86.2607C24.9178 86.2302 24.8869 86.2025 24.8535 86.1779Z" fill="#263238"/>
<path d="M37.33 102.922C37.3819 102.785 37.4182 102.643 37.4382 102.499C37.4986 102.225 37.5718 101.827 37.6545 101.334C37.82 100.345 38.0046 98.9731 38.2019 97.4584C38.3992 95.9437 38.5996 94.5786 38.781 93.5953C38.8701 93.1021 38.9465 92.7076 39.0037 92.4307C39.0416 92.2904 39.064 92.1463 39.0706 92.0011C39.0093 92.1333 38.9634 92.2721 38.9337 92.4148C38.8574 92.6853 38.7587 93.0799 38.6537 93.5699C38.4373 94.55 38.2146 95.9183 38.0173 97.4329C37.82 98.9476 37.6545 100.281 37.5241 101.312C37.4604 101.78 37.4095 102.171 37.3682 102.486C37.3383 102.629 37.3255 102.776 37.33 102.922Z" fill="#263238"/>
<path d="M24.4141 100.22C24.5833 100.26 24.7559 100.285 24.9296 100.294C25.2478 100.332 25.7442 100.383 26.336 100.462C27.5198 100.618 29.1522 100.889 30.9341 101.264C32.7161 101.64 34.3198 102.056 35.4686 102.387C36.0445 102.547 36.5059 102.69 36.8273 102.788C36.9899 102.85 37.1584 102.895 37.3301 102.922C37.1761 102.84 37.0153 102.772 36.8496 102.718C36.5314 102.601 36.0795 102.438 35.5068 102.26C34.3644 101.897 32.7638 101.465 30.9723 101.083C29.1808 100.701 27.5452 100.446 26.3519 100.332C25.7569 100.268 25.27 100.236 24.9359 100.22C24.7624 100.204 24.5876 100.204 24.4141 100.22Z" fill="#263238"/>
<path d="M42.6318 117.283C42.6703 117.236 42.7014 117.183 42.7241 117.127L42.9564 116.669C43.1601 116.271 43.4337 115.688 43.7647 114.96C44.4265 113.509 45.2761 111.475 46.183 109.232C47.0899 106.989 47.9204 104.936 48.5537 103.473C48.8719 102.76 49.1137 102.174 49.3046 101.741L49.5051 101.267C49.531 101.213 49.5513 101.157 49.5656 101.099C49.527 101.145 49.4949 101.196 49.4701 101.251C49.4096 101.376 49.3301 101.528 49.2378 101.71C49.0373 102.107 48.7637 102.693 48.4327 103.418C47.7709 104.869 46.9213 106.919 46.0112 109.162C45.1011 111.405 44.2738 113.458 43.6437 114.922L42.8928 116.646L42.6923 117.117C42.6646 117.169 42.6442 117.225 42.6318 117.283Z" fill="#263238"/>
<path d="M25.5283 111.389C25.5807 111.422 25.6375 111.447 25.697 111.463L26.1934 111.641L28.0262 112.277C29.5727 112.815 31.6984 113.579 34.0467 114.428C36.3951 115.278 38.5334 116.019 40.0927 116.525C40.8723 116.78 41.5055 116.977 41.9446 117.104L42.4506 117.251C42.5094 117.27 42.5703 117.283 42.632 117.289C42.5793 117.256 42.5226 117.231 42.4633 117.213L41.9669 117.038L40.134 116.401C38.5875 115.867 36.4619 115.103 34.1104 114.253C31.7588 113.404 29.6268 112.662 28.0644 112.153C27.2848 111.902 26.6516 111.705 26.2125 111.574L25.7065 111.431C25.6493 111.409 25.5893 111.395 25.5283 111.389Z" fill="#263238"/>
<path d="M188.717 133.374C188.717 133.422 153.033 133.457 109.022 133.457C65.0104 133.457 29.3203 133.422 29.3203 133.374C29.3203 133.327 64.9977 133.292 109.022 133.292C153.046 133.292 188.717 133.33 188.717 133.374Z" fill="#263238"/>
<path d="M159.324 37.6482H50.9965C50.5525 37.6482 50.1128 37.7357 49.7026 37.9057C49.2924 38.0758 48.9197 38.325 48.6059 38.6391C48.292 38.9532 48.0432 39.3262 47.8735 39.7365C47.7039 40.1469 47.6168 40.5867 47.6172 41.0307V117.544C47.6168 117.988 47.7039 118.427 47.8735 118.838C48.0432 119.248 48.292 119.621 48.6059 119.935C48.9197 120.249 49.2924 120.499 49.7026 120.669C50.1128 120.839 50.5525 120.926 50.9965 120.926H92.5735C92.5735 120.926 95.2178 129.104 87.0176 133.336H125.893C125.893 133.336 116.639 130.154 119.02 120.926H159.324C160.221 120.926 161.081 120.57 161.716 119.935C162.35 119.301 162.706 118.441 162.706 117.544V41.0307C162.706 40.1336 162.35 39.2733 161.716 38.6389C161.081 38.0046 160.221 37.6482 159.324 37.6482Z" fill="#263238"/>
<path d="M106.721 112.85C108.194 114.957 105.887 117.264 103.781 115.79C103.71 115.741 103.649 115.679 103.599 115.609C102.129 113.502 104.433 111.199 106.54 112.669C106.61 112.718 106.671 112.78 106.721 112.85Z" fill="#455A64"/>
<path d="M159.108 41.5144H51.2134C50.6387 41.5144 50.1729 41.9803 50.1729 42.5549V105.706C50.1729 106.281 50.6387 106.747 51.2134 106.747H159.108C159.683 106.747 160.148 106.281 160.148 105.706V42.5549C160.148 41.9803 159.683 41.5144 159.108 41.5144Z" fill="#E0E0E0"/>
<path d="M160.148 46.2939H50.1729V106.747H160.148V46.2939Z" fill="#FAFAFA"/>
<path d="M59.194 44.0314C59.194 44.2051 59.1425 44.3749 59.046 44.5193C58.9495 44.6638 58.8123 44.7763 58.6518 44.8428C58.4914 44.9093 58.3148 44.9267 58.1444 44.8928C57.974 44.8589 57.8176 44.7753 57.6947 44.6524C57.5719 44.5296 57.4883 44.3731 57.4544 44.2028C57.4205 44.0324 57.4379 43.8558 57.5044 43.6953C57.5708 43.5348 57.6834 43.3977 57.8278 43.3012C57.9722 43.2047 58.142 43.1532 58.3157 43.1532C58.5487 43.1532 58.7721 43.2457 58.9368 43.4104C59.1015 43.5751 59.194 43.7985 59.194 44.0314Z" fill="#FF725E"/>
<path d="M53.8698 44.0314C53.8698 44.2051 53.8183 44.3749 53.7218 44.5193C53.6253 44.6638 53.4881 44.7763 53.3276 44.8428C53.1671 44.9093 52.9906 44.9267 52.8202 44.8928C52.6498 44.8589 52.4933 44.7753 52.3705 44.6524C52.2477 44.5296 52.164 44.3731 52.1302 44.2028C52.0963 44.0324 52.1137 43.8558 52.1801 43.6953C52.2466 43.5348 52.3592 43.3977 52.5036 43.3012C52.648 43.2047 52.8178 43.1532 52.9915 43.1532C53.2245 43.1532 53.4478 43.2457 53.6126 43.4104C53.7773 43.5751 53.8698 43.7985 53.8698 44.0314Z" fill="#FF725E"/>
<path d="M56.4255 44.0314C56.4255 44.2051 56.3739 44.3749 56.2774 44.5193C56.1809 44.6638 56.0438 44.7763 55.8833 44.8428C55.7228 44.9093 55.5462 44.9267 55.3759 44.8928C55.2055 44.8589 55.049 44.7753 54.9262 44.6524C54.8034 44.5296 54.7197 44.3731 54.6858 44.2028C54.6519 44.0324 54.6693 43.8558 54.7358 43.6953C54.8023 43.5348 54.9148 43.3977 55.0593 43.3012C55.2037 43.2047 55.3735 43.1532 55.5472 43.1532C55.7801 43.1532 56.0035 43.2457 56.1682 43.4104C56.3329 43.5751 56.4255 43.7985 56.4255 44.0314Z" fill="#FF725E"/>
<path d="M104.36 74.4425C104.36 74.4902 100.331 74.5316 95.3641 74.5316C90.3969 74.5316 86.3652 74.4902 86.3652 74.4425C86.3652 74.3947 90.3937 74.3534 95.3641 74.3534C100.335 74.3534 104.36 74.3916 104.36 74.4425Z" fill="#455A64"/>
<path d="M104.36 76.8513C104.36 76.899 100.331 76.9404 95.3641 76.9404C90.3969 76.9404 86.3652 76.899 86.3652 76.8513C86.3652 76.8036 90.3937 76.759 95.3641 76.759C100.335 76.759 104.36 76.8004 104.36 76.8513Z" fill="#455A64"/>
<path d="M97.1493 79.2569C97.1493 79.3079 94.7373 79.3492 91.7588 79.3492C88.7804 79.3492 86.3652 79.3079 86.3652 79.2569C86.3652 79.206 88.7804 79.1678 91.7588 79.1678C94.7373 79.1678 97.1493 79.2092 97.1493 79.2569Z" fill="#455A64"/>
<path d="M94.9218 49.8323H86.3652V50.9174H94.9218V49.8323Z" fill="#455A64"/>
<path d="M105.168 53.3294H86.3652V71.5213H105.168V53.3294Z" fill="#E0E0E0"/>
<path d="M87.8223 69.9621L93.025 60.6005L97.2794 66.5859L99.8632 63.407L103.71 69.9621H87.8223Z" fill="#FF725E"/>
<path d="M97.7381 60.1327C98.485 60.1327 99.0905 59.5272 99.0905 58.7803C99.0905 58.0334 98.485 57.4279 97.7381 57.4279C96.9912 57.4279 96.3857 58.0334 96.3857 58.7803C96.3857 59.5272 96.9912 60.1327 97.7381 60.1327Z" fill="#FF725E"/>
<path d="M103.711 70.013C103.708 69.9888 103.708 69.9641 103.711 69.9398C103.711 69.8826 103.711 69.8157 103.711 69.7266C103.711 69.5325 103.711 69.2589 103.711 68.9088C103.711 68.1865 103.711 67.1428 103.692 65.8191C103.692 63.162 103.67 59.3785 103.654 54.8345L103.73 54.9109H87.8454C87.8231 54.93 88.0108 54.7423 87.9313 54.825V58.9044C87.9313 60.2409 87.9313 61.5519 87.9313 62.8247C87.9313 65.3704 87.9313 67.7824 87.9313 69.9971L87.8517 69.9176L99.339 69.9589L102.578 69.978H103.438H103.66H103.447H102.601L99.3804 69.9971L87.8422 70.0385H87.7658V69.9589C87.7658 67.7315 87.7658 65.3354 87.7658 62.7865C87.7658 61.5137 87.7658 60.2027 87.7658 58.8662V54.8409C87.6863 54.9173 87.874 54.7264 87.8581 54.7486H103.743H103.819V54.825C103.803 59.3881 103.791 63.1875 103.781 65.8572C103.781 67.1746 103.765 68.212 103.759 68.9311C103.759 69.2748 103.759 69.5421 103.759 69.733C103.759 69.8189 103.759 69.8857 103.759 69.9367C103.745 69.9634 103.729 69.989 103.711 70.013Z" fill="#455A64"/>
<path d="M127.284 74.4425C127.284 74.4902 123.255 74.5316 118.285 74.5316C113.314 74.5316 109.289 74.4902 109.289 74.4425C109.289 74.3947 113.314 74.3534 118.285 74.3534C123.255 74.3534 127.284 74.3916 127.284 74.4425Z" fill="#455A64"/>
<path d="M127.284 76.8513C127.284 76.899 123.255 76.9404 118.285 76.9404C113.314 76.9404 109.289 76.899 109.289 76.8513C109.289 76.8036 113.314 76.759 118.285 76.759C123.255 76.759 127.284 76.8004 127.284 76.8513Z" fill="#455A64"/>
<path d="M120.073 79.2569C120.073 79.3079 117.657 79.3492 114.679 79.3492C111.701 79.3492 109.295 79.3079 109.295 79.2569C109.295 79.206 111.707 79.1678 114.685 79.1678C117.664 79.1678 120.073 79.2092 120.073 79.2569Z" fill="#455A64"/>
<path d="M117.846 49.8323H109.289V50.9174H117.846V49.8323Z" fill="#455A64"/>
<path d="M128.092 53.3294H109.289V71.5213H128.092V53.3294Z" fill="#E0E0E0"/>
<path d="M110.746 69.9621L115.946 60.6005L120.2 66.5859L122.787 63.407L126.631 69.9621H110.746Z" fill="#FF725E"/>
<path d="M122.024 58.7803C122.024 59.0487 121.945 59.3112 121.796 59.5346C121.648 59.758 121.436 59.9323 121.188 60.0353C120.94 60.1383 120.668 60.1654 120.404 60.1132C120.141 60.061 119.899 59.9318 119.71 59.742C119.52 59.5523 119.391 59.3104 119.338 59.0472C119.286 58.7839 119.313 58.5111 119.416 58.2633C119.519 58.0155 119.694 57.8038 119.917 57.6551C120.14 57.5064 120.403 57.4273 120.671 57.4279C121.03 57.4279 121.374 57.5704 121.628 57.824C121.881 58.0777 122.024 58.4216 122.024 58.7803Z" fill="#FF725E"/>
<path d="M126.631 70.013C126.631 70.013 126.631 69.9876 126.631 69.9398C126.631 69.8921 126.631 69.8157 126.631 69.7266C126.631 69.5325 126.631 69.2589 126.631 68.9088C126.631 68.1865 126.631 67.1428 126.612 65.8191C126.612 63.162 126.587 59.3785 126.571 54.8345L126.647 54.9109H110.762C110.74 54.93 110.931 54.7423 110.851 54.825V58.9044C110.851 60.2409 110.851 61.5519 110.851 62.8247C110.851 65.3704 110.851 67.7824 110.851 69.9971L110.775 69.9176L122.262 69.9589L125.502 69.978H126.361H126.584H126.367H125.524L122.3 69.9971L110.765 70.0385H110.686V69.9589C110.686 67.7315 110.686 65.3354 110.686 62.7865V54.8409C110.603 54.9173 110.794 54.7264 110.775 54.7486H126.66H126.739V54.825C126.72 59.3881 126.708 63.1875 126.698 65.8572C126.698 67.1746 126.682 68.212 126.679 68.9311C126.679 69.2748 126.679 69.5421 126.679 69.733C126.679 69.8189 126.679 69.8857 126.679 69.9367C126.667 69.9646 126.651 69.9904 126.631 70.013Z" fill="#455A64"/>
<path d="M95.5234 82.614H86.9668V83.6991H95.5234V82.614Z" fill="#455A64"/>
<path d="M105.77 86.1079H86.9668V104.3H105.77V86.1079Z" fill="#E0E0E0"/>
<path d="M88.4238 102.744L93.6265 93.3822L97.8809 99.3644L100.465 96.1887L104.312 102.744H88.4238Z" fill="#FF725E"/>
<path d="M99.6945 91.562C99.6945 91.8301 99.615 92.0922 99.4661 92.3151C99.3171 92.5381 99.1054 92.7118 98.8577 92.8144C98.61 92.917 98.3375 92.9438 98.0745 92.8915C97.8116 92.8392 97.57 92.7101 97.3804 92.5205C97.1909 92.331 97.0617 92.0894 97.0094 91.8265C96.9571 91.5635 96.984 91.291 97.0866 91.0433C97.1892 90.7956 97.3629 90.5839 97.5859 90.4349C97.8088 90.286 98.0709 90.2065 98.339 90.2065C98.5171 90.206 98.6936 90.2408 98.8582 90.3088C99.0229 90.3768 99.1725 90.4766 99.2984 90.6026C99.4244 90.7285 99.5242 90.8781 99.5922 91.0428C99.6602 91.2074 99.6949 91.3839 99.6945 91.562Z" fill="#FF725E"/>
<path d="M104.312 102.795C104.312 102.795 104.312 102.766 104.312 102.718C104.312 102.671 104.312 102.594 104.312 102.505C104.312 102.314 104.312 102.041 104.312 101.687C104.312 100.968 104.312 99.9245 104.29 98.5976C104.29 95.9405 104.267 92.157 104.251 87.6162L104.328 87.6926H88.4428L88.5319 87.6035V88.644C88.5319 88.9877 88.5319 89.3314 88.5319 89.6719V95.6191C88.5319 98.1648 88.5319 100.574 88.5319 102.792L88.4523 102.712L99.9396 102.753L103.179 102.772H104.041H104.264C104.289 102.77 104.315 102.77 104.34 102.772H104.057H103.214L99.9905 102.795L88.4523 102.833H88.376V102.757C88.376 100.529 88.376 98.1298 88.376 95.5841C88.376 94.3113 88.376 93.0045 88.376 91.6638V87.6162L88.4682 87.524H104.353H104.43V87.6035C104.414 92.1666 104.401 95.966 104.391 98.6357C104.391 99.9531 104.391 100.99 104.372 101.706C104.372 102.053 104.372 102.321 104.372 102.512C104.372 102.594 104.372 102.661 104.372 102.715C104.359 102.746 104.338 102.773 104.312 102.795Z" fill="#455A64"/>
<path d="M118.463 82.614H109.906V83.6991H118.463V82.614Z" fill="#455A64"/>
<path d="M128.709 86.1079H109.906V104.3H128.709V86.1079Z" fill="#E0E0E0"/>
<path d="M111.363 102.744L116.566 93.3822L120.82 99.3644L123.404 96.1887L127.251 102.744H111.363Z" fill="#FF725E"/>
<path d="M122.632 91.562C122.631 91.8294 122.551 92.0905 122.402 92.3125C122.253 92.5345 122.042 92.7073 121.794 92.8092C121.547 92.911 121.275 92.9374 121.013 92.8848C120.751 92.8323 120.511 92.7032 120.322 92.514C120.133 92.3247 120.004 92.0838 119.953 91.8215C119.901 91.5593 119.928 91.2875 120.03 91.0406C120.132 90.7936 120.306 90.5826 120.528 90.4342C120.75 90.2857 121.012 90.2065 121.279 90.2065C121.457 90.2065 121.633 90.2415 121.797 90.3097C121.962 90.3779 122.111 90.4778 122.237 90.6037C122.362 90.7296 122.462 90.8791 122.529 91.0435C122.597 91.2079 122.632 91.3842 122.632 91.562Z" fill="#FF725E"/>
<path d="M127.251 102.795C127.249 102.769 127.249 102.744 127.251 102.718C127.251 102.664 127.251 102.594 127.251 102.505C127.251 102.314 127.251 102.041 127.251 101.687C127.251 100.968 127.251 99.9245 127.232 98.5976C127.232 95.9405 127.21 92.157 127.194 87.6162L127.271 87.6926H111.383L111.472 87.6035V91.6893C111.472 93.0258 111.472 94.3325 111.472 95.6096C111.472 98.1553 111.472 100.564 111.472 102.782L111.392 102.702L122.879 102.744L126.119 102.763H126.978H127.201H127.28H126.997H126.15L122.93 102.785L111.392 102.823H111.312V102.747C111.312 100.52 111.312 98.1202 111.312 95.5746C111.312 94.3018 111.312 92.995 111.312 91.6543V87.6162L111.402 87.524H127.29H127.366V87.6035C127.35 92.1666 127.337 95.966 127.328 98.6357C127.328 99.9531 127.312 100.99 127.306 101.706C127.306 102.053 127.306 102.321 127.306 102.512C127.306 102.594 127.306 102.661 127.306 102.715C127.29 102.743 127.272 102.77 127.251 102.795Z" fill="#455A64"/>
<path d="M142.131 82.614H133.574V83.6991H142.131V82.614Z" fill="#455A64"/>
<path d="M152.377 86.1079H133.574V104.3H152.377V86.1079Z" fill="#E0E0E0"/>
<path d="M135.032 102.744L140.235 93.3822L144.489 99.3644L147.073 96.1887L150.92 102.744H135.032Z" fill="#FF725E"/>
<path d="M146.303 91.562C146.303 91.8301 146.223 92.0922 146.074 92.3151C145.926 92.5381 145.714 92.7118 145.466 92.8144C145.218 92.917 144.946 92.9438 144.683 92.8915C144.42 92.8392 144.178 92.7101 143.989 92.5205C143.799 92.331 143.67 92.0894 143.618 91.8265C143.566 91.5635 143.592 91.291 143.695 91.0433C143.798 90.7956 143.971 90.5839 144.194 90.4349C144.417 90.286 144.679 90.2065 144.947 90.2065C145.125 90.206 145.302 90.2408 145.467 90.3088C145.631 90.3768 145.781 90.4766 145.907 90.6026C146.033 90.7285 146.133 90.8781 146.201 91.0428C146.269 91.2074 146.303 91.3839 146.303 91.562Z" fill="#FF725E"/>
<path d="M150.92 102.795C150.92 102.795 150.92 102.766 150.92 102.718C150.92 102.671 150.92 102.594 150.92 102.505C150.92 102.314 150.92 102.041 150.92 101.687C150.92 100.968 150.92 99.9245 150.898 98.5976C150.898 95.9405 150.876 92.157 150.86 87.6162L150.936 87.6926H135.051L135.14 87.6035V95.6096C135.14 98.1553 135.14 100.564 135.14 102.782L135.061 102.702L146.548 102.744L149.787 102.763H150.65H150.869C150.896 102.76 150.922 102.76 150.949 102.763H150.666H149.822L146.599 102.785L135.061 102.823H134.984V102.747C134.984 100.52 134.984 98.1202 134.984 95.5746C134.984 94.3018 134.984 92.995 134.984 91.6543V87.6162L135.077 87.524H150.962H151.038V87.6035C151.022 92.1666 151.009 95.966 151 98.6357C151 99.9531 150.984 100.99 150.981 101.706C150.981 102.053 150.981 102.321 150.981 102.512C150.981 102.594 150.981 102.661 150.981 102.715C150.967 102.746 150.946 102.773 150.92 102.795Z" fill="#455A64"/>
<path d="M150.617 71.5181C151.301 71.4302 151.991 71.4004 152.679 71.429L152.59 71.5181V71.3145C152.59 71.2445 152.59 71.1777 152.59 71.1108C152.59 70.9772 152.59 70.8499 152.59 70.7226C152.59 70.4967 152.59 70.2771 152.609 70.0671C152.6 69.8635 152.621 69.6597 152.673 69.4625C152.72 69.6604 152.741 69.8638 152.733 70.0671C152.733 70.2771 152.733 70.4967 152.752 70.7226C152.752 70.8499 152.752 70.9772 152.752 71.1108V71.5181L152.66 71.6104C151.978 71.6399 151.294 71.609 150.617 71.5181Z" fill="#455A64"/>
<path d="M141.24 71.5181C142.801 71.3993 144.369 71.3993 145.931 71.5181C144.37 71.6412 142.801 71.6412 141.24 71.5181Z" fill="#455A64"/>
<path d="M134.488 69.4562C134.578 70.1396 134.607 70.8295 134.577 71.5181L134.488 71.429H135.293L135.948 71.4481C136.152 71.4428 136.355 71.4642 136.553 71.5118C136.356 71.5633 136.152 71.5847 135.948 71.5754L135.293 71.5945H134.905H134.488L134.399 71.5022C134.371 70.8189 134.401 70.1345 134.488 69.4562Z" fill="#455A64"/>
<path d="M134.487 60.0786C134.577 60.8569 134.607 61.6409 134.576 62.4238C134.607 63.2056 134.577 63.9886 134.487 64.7658C134.399 63.9884 134.37 63.2056 134.398 62.4238C134.37 61.6409 134.399 60.857 134.487 60.0786Z" fill="#455A64"/>
<path d="M136.553 53.3231C135.868 53.4128 135.177 53.4427 134.488 53.4122L134.577 53.3231V53.7336C134.577 53.864 134.577 53.9945 134.577 54.1218C134.577 54.3477 134.577 54.5641 134.558 54.7773C134.567 54.9809 134.545 55.1847 134.494 55.3819C134.442 55.1847 134.421 54.9809 134.43 54.7773C134.43 54.5641 134.43 54.3477 134.411 54.1218C134.411 53.9945 134.411 53.864 134.411 53.7336C134.411 53.6667 134.411 53.5967 134.411 53.5267V53.3231L134.5 53.234C135.186 53.2061 135.872 53.2359 136.553 53.3231Z" fill="#455A64"/>
<path d="M145.931 53.3231C144.369 53.4419 142.801 53.4419 141.24 53.3231C142.801 53.2043 144.369 53.2043 145.931 53.3231Z" fill="#455A64"/>
<path d="M152.682 55.3914C152.591 54.7071 152.56 54.016 152.59 53.3262C152.771 53.5044 152.641 53.3772 152.679 53.4153H152.253H151.865L151.209 53.3963C151.005 53.4056 150.802 53.3841 150.604 53.3326C150.802 53.2811 151.005 53.2597 151.209 53.269L151.865 53.2499H152.666L152.759 53.339C152.791 54.0241 152.765 54.7106 152.682 55.3914Z" fill="#455A64"/>
<path d="M152.683 64.7785C152.591 64.0015 152.56 63.2184 152.591 62.4365C152.56 61.6536 152.591 60.8694 152.683 60.0913C152.771 60.8698 152.801 61.6537 152.772 62.4365C152.801 63.2183 152.771 64.0012 152.683 64.7785Z" fill="#455A64"/>
<path d="M152.419 74.417C152.419 74.4647 148.387 74.5061 143.42 74.5061C138.453 74.5061 134.421 74.4647 134.421 74.417C134.421 74.3693 138.449 74.3279 143.42 74.3279C148.39 74.3279 152.419 74.3661 152.419 74.417Z" fill="#455A64"/>
<path d="M152.419 76.8258C152.419 76.8736 148.387 76.9149 143.42 76.9149C138.453 76.9149 134.434 76.8704 134.434 76.8258C134.434 76.7813 138.462 76.7336 143.432 76.7336C148.403 76.7336 152.419 76.7749 152.419 76.8258Z" fill="#455A64"/>
<path d="M142.977 49.8069H134.421V50.892H142.977V49.8069Z" fill="#455A64"/>
<path d="M77.6181 63.9639C77.6181 65.789 77.0769 67.5732 76.0629 69.0907C75.0489 70.6083 73.6077 71.791 71.9215 72.4895C70.2353 73.1879 68.3799 73.3707 66.5898 73.0146C64.7998 72.6585 63.1555 71.7796 61.8649 70.4891C60.5744 69.1985 59.6955 67.5543 59.3394 65.7642C58.9834 63.9741 59.1661 62.1187 59.8646 60.4325C60.563 58.7463 61.7458 57.3051 63.2633 56.2911C64.7809 55.2771 66.565 54.7359 68.3901 54.7359C70.8375 54.7359 73.1847 55.7081 74.9153 57.4387C76.6459 59.1693 77.6181 61.5165 77.6181 63.9639Z" fill="#E0E0E0"/>
<path d="M79.4413 84.0619C79.4413 84.1096 74.7063 84.151 68.8672 84.151C63.0281 84.151 58.29 84.1096 58.29 84.0619C58.29 84.0141 63.025 83.9696 68.8672 83.9696C74.7095 83.9696 79.4413 84.011 79.4413 84.0619Z" fill="#455A64"/>
<path d="M79.4413 86.4166C79.4413 86.4675 74.7063 86.5057 68.8672 86.5057C63.0281 86.5057 58.29 86.4675 58.29 86.4166C58.29 86.3657 63.025 86.3275 68.8672 86.3275C74.7095 86.3275 79.4413 86.3498 79.4413 86.4166Z" fill="#455A64"/>
<path d="M79.4413 88.7395C79.4413 88.7904 74.7063 88.8286 68.8672 88.8286C63.0281 88.8286 58.29 88.7904 58.29 88.7395C58.29 88.6886 63.025 88.6441 68.8832 88.6441C74.7413 88.6441 79.4413 88.6918 79.4413 88.7395Z" fill="#455A64"/>
<path d="M70.4427 91.1292C70.4427 91.1802 67.6965 91.2183 64.3108 91.2183C60.9251 91.2183 58.1758 91.1802 58.1758 91.1292C58.1758 91.0783 60.9219 91.0401 64.3108 91.0401C67.6997 91.0401 70.4427 91.0815 70.4427 91.1292Z" fill="#455A64"/>
<path d="M58.2894 80.3516H72.8633V79.2856H58.2894V80.3516Z" fill="#455A64"/>
<path d="M62.6172 71.0058C64.2413 72.412 66.3176 73.1859 68.4658 73.1859C70.6141 73.1859 72.6904 72.412 74.3145 71.0058C73.8244 69.3384 72.6343 67.3592 69.7418 66.9201C70.3904 66.6342 70.9407 66.1644 71.3248 65.5688C71.7089 64.9732 71.9097 64.278 71.9025 63.5693C71.9025 61.5646 70.3942 59.9354 68.5167 59.9259C66.6393 59.9163 65.1119 61.536 65.1024 63.5375C65.0892 64.2527 65.2879 64.9558 65.6735 65.5583C66.0591 66.1608 66.6144 66.6357 67.2694 66.9232C64.3291 67.3592 63.1168 69.348 62.6172 71.0058Z" fill="#FF725E"/>
<path d="M66.4616 94.7823H58.29V95.7783H66.4616V94.7823Z" fill="#FF725E"/>
<path d="M180.619 60.2154L182.013 64.8899C182.087 65.0998 182.129 65.3197 182.137 65.5422C182.137 66.2009 181.501 66.7196 180.864 66.8405C180.207 66.9116 179.542 66.8333 178.92 66.6114C178.748 67.2828 177.965 67.566 177.281 67.6933C174.233 68.2603 171.085 67.8678 168.27 66.57C169.471 64.8496 170.447 62.9825 171.175 61.0141L178.283 61.3323C178.702 61.3777 179.126 61.3421 179.531 61.2273C179.732 61.1662 179.912 61.0492 180.05 60.8897C180.187 60.7303 180.277 60.5351 180.307 60.3268" fill="#FF725E"/>
<path d="M172.473 69.3448C172.562 68.8229 172.349 66.6273 172.349 66.6273C172.349 66.6273 170.348 66.4141 170.227 64.4285C170.106 62.4429 170.227 57.8607 170.227 57.8607L173.873 56.0787L177.889 59.1176L177.281 69.0489L172.938 72.9246L172.473 69.3448Z" fill="#FFBE9D"/>
<path d="M170.624 61.1987C170.623 61.2492 170.638 61.2987 170.665 61.341C170.693 61.3832 170.733 61.4164 170.779 61.4361C170.825 61.4559 170.877 61.4614 170.926 61.4519C170.976 61.4425 171.022 61.4185 171.057 61.383C171.093 61.3475 171.118 61.3022 171.128 61.2527C171.138 61.2032 171.133 61.1519 171.114 61.1052C171.095 61.0585 171.062 61.0185 171.02 60.9904C170.978 60.9623 170.929 60.9473 170.879 60.9473C170.845 60.9469 170.812 60.9531 170.781 60.9655C170.751 60.978 170.722 60.9964 170.699 61.0198C170.675 61.0432 170.656 61.071 170.643 61.1017C170.631 61.1325 170.624 61.1654 170.624 61.1987Z" fill="#263238"/>
<path d="M170.392 60.9218C170.427 60.9568 170.615 60.7977 170.888 60.7818C171.162 60.7659 171.366 60.8996 171.394 60.8614C171.423 60.8232 171.375 60.785 171.286 60.7246C171.165 60.6446 171.021 60.6066 170.876 60.6164C170.731 60.6236 170.594 60.6785 170.484 60.7723C170.392 60.8455 170.36 60.9091 170.392 60.9218Z" fill="#263238"/>
<path d="M173.574 61.1987C173.574 61.2493 173.588 61.2989 173.616 61.3413C173.644 61.3836 173.683 61.4168 173.73 61.4364C173.777 61.4561 173.828 61.4614 173.878 61.4517C173.927 61.4419 173.973 61.4176 174.009 61.3818C174.045 61.3461 174.069 61.3004 174.079 61.2507C174.088 61.2011 174.083 61.1496 174.063 61.103C174.044 61.0563 174.011 61.0166 173.968 60.9889C173.926 60.9611 173.876 60.9467 173.826 60.9473C173.759 60.9473 173.695 60.9738 173.648 61.0209C173.601 61.0681 173.574 61.132 173.574 61.1987Z" fill="#263238"/>
<path d="M173.412 60.9218C173.444 60.9568 173.631 60.7977 173.905 60.7818C174.179 60.7659 174.385 60.8996 174.414 60.8614C174.443 60.8232 174.395 60.785 174.303 60.7246C174.182 60.6458 174.039 60.6079 173.895 60.6165C173.752 60.625 173.614 60.6797 173.504 60.7723C173.421 60.8455 173.396 60.9091 173.412 60.9218Z" fill="#263238"/>
<path d="M173.329 63.5057C172.911 63.719 172.465 63.8732 172.005 63.9639C172.106 64.1008 172.25 64.2004 172.415 64.247C172.579 64.2936 172.753 64.2847 172.912 64.2217C172.987 64.204 173.058 64.1712 173.121 64.1251C173.183 64.079 173.236 64.0206 173.275 63.9536C173.314 63.8865 173.339 63.8122 173.348 63.7352C173.357 63.6582 173.351 63.5801 173.329 63.5057Z" fill="#FAFAFA"/>
<path d="M172.349 66.6273C173.293 66.5883 174.206 66.2803 174.98 65.7395C174.98 65.7395 174.385 67.1969 172.393 67.1142L172.349 66.6273Z" fill="#EB996E"/>
<path d="M183.667 64.8294C183.417 64.8389 183.169 64.7829 182.948 64.6671C182.621 64.4893 182.349 64.2251 182.162 63.9034C181.93 63.5026 181.734 63.082 181.576 62.6465C181.204 61.7237 180.94 60.8646 180.733 60.2409C180.704 60.1422 180.676 60.0531 180.65 59.9672C180.638 59.8751 180.621 59.7838 180.599 59.6936C179.514 55.5569 175.874 54.7804 175.155 54.7804C174.382 54.7804 173.029 54.354 171.06 56.4033C170.761 56.7087 170.51 57.0561 170.312 57.4343C169.878 57.9808 169.578 58.6217 169.437 59.3053C169.35 59.6259 169.335 59.9615 169.392 60.2886C169.43 60.2886 169.437 59.9163 169.589 59.334C169.681 58.9955 169.809 58.6679 169.971 58.3571C169.8 59.1221 169.87 59.9215 170.172 60.645L170.878 60.4477L173.424 59.5886C173.192 58.8058 173.532 57.832 173.723 57.3611H173.742C174.321 60.3332 177.596 60.645 177.596 60.645L177.433 66.2868C180.797 65.5677 180.841 61.8956 180.819 60.9823C180.972 61.4978 181.169 62.0897 181.417 62.7102C181.584 63.1525 181.79 63.5786 182.035 63.983C182.241 64.3262 182.544 64.6007 182.906 64.7721C183.15 64.8877 183.423 64.9276 183.689 64.8867C183.788 64.8776 183.882 64.8424 183.963 64.7849C183.863 64.7933 183.765 64.8082 183.667 64.8294Z" fill="#FF725E"/>
<path d="M172.425 63.2352C172.28 63.2019 172.131 63.1859 171.983 63.1875C171.913 63.1875 171.843 63.1875 171.83 63.1238C171.82 63.0474 171.833 62.9699 171.868 62.9011C171.928 62.7229 171.989 62.5352 172.056 62.3347C172.186 61.9306 172.298 61.5646 172.374 61.2973C172.427 61.1561 172.46 61.0084 172.473 60.8582C172.398 60.9905 172.34 61.1316 172.301 61.2782C172.205 61.5392 172.081 61.9147 171.951 62.3092L171.769 62.8788C171.73 62.969 171.721 63.0695 171.744 63.1652C171.755 63.1893 171.771 63.2106 171.792 63.2276C171.812 63.2446 171.836 63.257 171.862 63.2638C171.901 63.2682 171.94 63.2682 171.979 63.2638C172.128 63.2722 172.278 63.2626 172.425 63.2352Z" fill="#263238"/>
<path d="M177.042 61.6187C176.425 61.4978 175.903 61.4119 175.725 61.3992C175.748 61.2947 175.761 61.188 175.763 61.0809C175.76 60.7372 175.649 60.4031 175.445 60.1263C175.257 59.8685 174.995 59.6743 174.694 59.5695C174.423 59.4733 174.132 59.4514 173.85 59.5058C173.605 59.5554 173.375 59.6647 173.182 59.824C172.898 60.0437 172.699 60.3552 172.619 60.7055C172.596 60.7993 172.585 60.8954 172.584 60.9918C172.579 61.0245 172.579 61.0578 172.584 61.0905C172.584 61.0905 172.584 60.9537 172.654 60.7182C172.746 60.3847 172.946 60.0913 173.224 59.8845C173.411 59.7432 173.629 59.6483 173.86 59.6076C174.156 59.5539 174.462 59.5902 174.737 59.7117C175.013 59.8332 175.246 60.0344 175.406 60.2895C175.566 60.5445 175.646 60.8416 175.636 61.1426C175.626 61.4436 175.526 61.7346 175.349 61.9783C175.174 62.2208 174.93 62.4049 174.649 62.5065C174.397 62.5997 174.125 62.6239 173.86 62.5765C173.629 62.5348 173.411 62.4388 173.224 62.2965C172.946 62.0913 172.745 61.7988 172.654 61.466C172.628 61.3723 172.61 61.2764 172.6 61.1796C172.648 61.1796 172.679 61.1541 172.679 61.1414C172.679 61.1287 172.641 61.1096 172.587 61.1C172.524 61.0944 172.46 61.0944 172.396 61.1C172.319 61.0996 172.242 61.1081 172.167 61.1255V61.1064C172.166 60.7624 172.054 60.4278 171.849 60.1518C171.662 59.8948 171.401 59.7006 171.101 59.5949C170.83 59.4988 170.537 59.4769 170.255 59.5313C169.958 59.5913 169.684 59.7349 169.466 59.9452C169.248 60.1554 169.094 60.4236 169.023 60.7182C169.001 60.812 168.989 60.9081 168.988 61.0046C168.983 61.0373 168.983 61.0705 168.988 61.1032C168.988 61.1032 168.988 60.9664 169.058 60.7309C169.15 60.3974 169.351 60.1041 169.628 59.8972C169.815 59.7559 170.033 59.661 170.264 59.6204C170.482 59.5808 170.705 59.5894 170.919 59.6456C171.132 59.7018 171.331 59.8042 171.5 59.9457C171.67 60.0871 171.807 60.2641 171.9 60.4641C171.994 60.6642 172.043 60.8823 172.043 61.1032C172.043 61.4117 171.948 61.7127 171.772 61.9658C171.595 62.219 171.346 62.4121 171.057 62.5192C170.803 62.6124 170.53 62.6366 170.264 62.5892C170.033 62.5475 169.815 62.4516 169.628 62.3092C169.35 62.104 169.15 61.8116 169.058 61.4787C168.995 61.2432 169.001 61.1032 168.988 61.1032C168.983 61.137 168.983 61.1713 168.988 61.205C168.989 61.3005 169.001 61.3955 169.023 61.4882C169.103 61.8395 169.302 62.1522 169.586 62.3729C169.781 62.53 170.01 62.639 170.255 62.6911C170.537 62.7455 170.83 62.7235 171.101 62.6274C171.4 62.5206 171.661 62.3267 171.849 62.0706C172.039 61.8164 172.149 61.5121 172.167 61.1955C172.244 61.2146 172.323 61.2231 172.403 61.221C172.464 61.2249 172.526 61.2249 172.587 61.221C172.588 61.3164 172.6 61.4114 172.622 61.5042C172.691 61.8002 172.844 62.07 173.062 62.2812C173.281 62.4923 173.555 62.6358 173.854 62.6943C174.135 62.7487 174.426 62.7267 174.697 62.6306C174.997 62.5244 175.259 62.3304 175.448 62.0737C175.579 61.8958 175.67 61.6918 175.715 61.4755C175.884 61.5296 176.399 61.6505 177.023 61.7715C177.479 61.8789 177.943 61.9523 178.41 61.991C177.965 61.8288 177.508 61.7042 177.042 61.6187Z" fill="#263238"/>
<path d="M178.099 63.1525C178.067 62.8218 178.104 62.4882 178.207 62.1724C178.26 62.0151 178.354 61.8748 178.479 61.7662C178.604 61.6576 178.757 61.5847 178.92 61.5551C179.109 61.5456 179.295 61.6049 179.443 61.7219C179.592 61.8389 179.693 62.0057 179.728 62.1915C179.751 62.3817 179.716 62.5745 179.629 62.7448C179.541 62.915 179.403 63.0549 179.235 63.1461C179.065 63.234 178.878 63.2825 178.686 63.288C178.495 63.2936 178.305 63.2559 178.131 63.1779" fill="#FFBE9D"/>
<path d="M178.665 62.8693C178.665 62.847 178.773 62.8947 178.913 62.8693C179 62.8386 179.076 62.7813 179.129 62.7053C179.182 62.6294 179.21 62.5387 179.209 62.4461C179.218 62.3996 179.216 62.3518 179.204 62.3061C179.192 62.2604 179.169 62.218 179.139 62.1819C179.078 62.133 179 62.1101 178.922 62.1183C178.773 62.1183 178.668 62.1692 178.662 62.1438C178.655 62.1183 178.728 62.0515 178.907 62.0037C178.961 61.9901 179.018 61.9887 179.073 61.9998C179.128 62.0108 179.18 62.0339 179.225 62.0674C179.277 62.117 179.317 62.1784 179.341 62.2465C179.364 62.3146 179.372 62.3874 179.362 62.4588C179.357 62.595 179.305 62.7254 179.215 62.8279C179.14 62.9144 179.036 62.9699 178.922 62.9838C178.751 62.9806 178.665 62.8693 178.665 62.8693Z" fill="#EB996E"/>
<path d="M186.372 138.485L183.976 136.859L186.995 132.353L190.524 134.695L190.356 134.985C189.592 136.276 186.381 141.489 185.583 142.154C184.672 142.892 186.372 138.485 186.372 138.485Z" fill="#FF725E"/>
<path d="M185.284 142.103C185.239 142.074 186.343 140.372 187.75 138.303C189.156 136.235 190.327 134.577 190.372 134.606C190.416 134.635 189.309 136.337 187.902 138.424C186.496 140.512 185.325 142.138 185.284 142.103Z" fill="#263238"/>
<path d="M186.808 138.895C186.808 138.946 186.658 138.975 186.49 138.988C186.321 139 186.171 138.988 186.155 138.937C186.14 138.886 186.286 138.813 186.474 138.803C186.661 138.793 186.814 138.844 186.808 138.895Z" fill="#263238"/>
<path d="M186.773 139.29C186.773 139.341 186.598 139.347 186.404 139.334C186.209 139.322 186.047 139.296 186.044 139.242C186.041 139.188 186.206 139.137 186.413 139.15C186.62 139.163 186.782 139.239 186.773 139.29Z" fill="#263238"/>
<path d="M189.436 135.955C189.414 135.955 189.354 135.869 189.28 135.707C189.181 135.489 189.124 135.255 189.112 135.016C189.099 134.769 189.171 134.524 189.315 134.323C189.433 134.17 189.548 134.129 189.56 134.148C189.573 134.167 189.5 134.246 189.424 134.393C189.331 134.585 189.287 134.797 189.296 135.01C189.311 135.231 189.348 135.451 189.404 135.665C189.446 135.834 189.462 135.946 189.436 135.955Z" fill="#263238"/>
<path d="M186.35 138.603C186.328 138.558 186.414 138.469 186.532 138.383C186.649 138.297 186.758 138.24 186.796 138.275C186.834 138.31 186.773 138.434 186.64 138.533C186.506 138.631 186.369 138.65 186.35 138.603Z" fill="#263238"/>
<path d="M186.165 138.377C186.124 138.345 186.165 138.202 186.273 138.058C186.382 137.915 186.493 137.82 186.534 137.845C186.576 137.871 186.534 138.014 186.426 138.163C186.318 138.313 186.203 138.408 186.165 138.377Z" fill="#263238"/>
<path d="M158.131 142.189V139.293L163.541 139.258L163.585 143.497L163.248 143.519C161.752 143.611 155.636 143.885 154.631 143.589C153.527 143.258 158.131 142.189 158.131 142.189Z" fill="#FF725E"/>
<path d="M154.52 143.322C154.52 143.271 156.55 143.229 159.051 143.229C161.552 143.229 163.582 143.271 163.582 143.322C163.582 143.372 161.555 143.417 159.051 143.417C156.547 143.417 154.52 143.376 154.52 143.322Z" fill="#263238"/>
<path d="M158.036 142.781C157.991 142.806 157.886 142.701 157.778 142.561C157.67 142.421 157.597 142.294 157.632 142.243C157.667 142.192 157.81 142.284 157.925 142.437C158.039 142.59 158.081 142.755 158.036 142.781Z" fill="#263238"/>
<path d="M157.689 142.972C157.641 142.991 157.546 142.86 157.447 142.692C157.348 142.523 157.278 142.373 157.32 142.342C157.361 142.31 157.498 142.418 157.606 142.599C157.714 142.781 157.737 142.952 157.689 142.972Z" fill="#263238"/>
<path d="M161.947 143.302C161.928 143.302 161.972 143.185 162.064 143.035C162.189 142.832 162.35 142.653 162.539 142.507C162.738 142.359 162.981 142.281 163.229 142.284C163.42 142.284 163.522 142.37 163.512 142.389C163.503 142.408 163.395 142.389 163.232 142.415C163.022 142.448 162.822 142.53 162.65 142.657C162.475 142.793 162.314 142.947 162.169 143.115C162.052 143.242 161.969 143.318 161.947 143.302Z" fill="#263238"/>
<path d="M158.02 142.236C158.045 142.192 158.169 142.214 158.303 142.262C158.436 142.31 158.551 142.37 158.541 142.421C158.532 142.472 158.398 142.491 158.242 142.437C158.086 142.383 157.981 142.281 158.02 142.236Z" fill="#263238"/>
<path d="M158.106 141.956C158.106 141.906 158.255 141.864 158.424 141.867C158.593 141.871 158.742 141.915 158.742 141.966C158.742 142.017 158.602 142.055 158.424 142.055C158.246 142.055 158.099 142.007 158.106 141.956Z" fill="#263238"/>
<path d="M171.815 75.3271L165.937 73.3701C165.937 73.3701 163.344 80.8416 162.548 80.9148C158.144 81.3157 153.432 79.8552 151.777 79.2792C151.612 79.0915 151.421 78.8655 151.207 78.5887C151.024 78.3504 150.883 78.0824 150.791 77.7964C150.663 77.4459 150.584 77.0798 150.555 76.7081C150.562 76.6365 150.546 76.5645 150.51 76.5021C150.475 76.4397 150.42 76.39 150.355 76.36C150.289 76.3299 150.216 76.3209 150.146 76.3343C150.075 76.3476 150.01 76.3826 149.96 76.4344C149.772 76.6826 149.721 77.6245 150.157 78.6428C150.593 79.6611 149.053 78.8496 148.487 78.5632C147.92 78.2769 146.129 77.4813 145.903 77.5863C145.585 77.7423 145.677 78.1241 146.25 78.3946C146.823 78.6651 148.477 79.5974 148.315 79.8902C148.153 80.1829 145.289 78.6905 145.289 78.6905C145.289 78.6905 144.729 78.2737 144.528 78.6046C144.166 79.1997 147.322 80.5584 147.628 80.6793C147.838 80.7621 147.672 81.0866 147.449 80.9975C147.227 80.9084 144.63 79.4479 144.251 80.0429C143.965 80.5043 146.842 81.1821 147.214 81.7803C147.586 82.3785 145.082 81.0453 144.827 81.5003C144.732 81.6689 144.681 81.8185 146.228 82.3658C147.363 82.7181 148.516 83.0081 149.683 83.2345V83.2504C149.683 83.2504 165.132 90.1587 168.457 83.5018C171.983 76.4376 171.815 75.3271 171.815 75.3271Z" fill="#FFBE9D"/>
<path d="M168.218 91.7466C168.218 91.7466 164.473 116.637 165.011 117.84C165.549 119.042 184.81 139.478 184.81 139.478L189.315 131.758C189.315 131.758 174.121 114.797 174.236 114.342C174.35 113.887 179.62 89.6814 179.62 89.6814L168.218 91.7466Z" fill="#455A64"/>
<path d="M169.036 122.489L172.202 115.536L175.368 108.583L170.035 117.827L169.036 122.489Z" fill="#263238"/>
<path d="M170.923 116.287C170.937 116.377 170.944 116.469 170.942 116.56C170.942 116.758 170.942 117.022 170.961 117.349V117.324C172.167 118.686 174.84 121.779 177.927 125.394L183.288 131.713L184.899 133.645C185.077 133.861 185.217 134.039 185.328 134.173C185.382 134.232 185.429 134.297 185.468 134.367C185.407 134.316 185.35 134.26 185.299 134.199L184.844 133.689C184.437 133.228 183.89 132.585 183.19 131.799L177.78 125.515C174.697 121.903 172.053 118.778 170.897 117.375C170.897 117.057 170.897 116.783 170.913 116.586C170.903 116.486 170.906 116.385 170.923 116.287Z" fill="#263238"/>
<path d="M187.871 130.161C187.916 130.189 186.862 131.86 185.523 133.89C184.183 135.92 183.063 137.546 183.022 137.517C182.98 137.489 184.03 135.818 185.37 133.788C186.71 131.758 187.83 130.132 187.871 130.161Z" fill="#263238"/>
<path d="M166.863 101.095C166.898 100.835 169.889 94.0949 169.889 94.0949L168.438 92.0489L168.181 91.9916L166.863 101.095Z" fill="#263238"/>
<path d="M171.152 91.5079L168.18 92.0043L169.889 94.1077C167.13 100.351 161.431 113.569 160.747 117.83C159.837 123.475 156.41 141.107 156.754 141.377C157.097 141.648 164.998 141.377 164.998 141.377L170.036 117.83L181.173 98.5403C182.558 96.1382 182.963 93.2941 182.302 90.601L182.08 89.6846" fill="#455A64"/>
<path d="M162.249 138.762C162.251 138.718 162.256 138.674 162.265 138.631C162.265 138.536 162.297 138.408 162.322 138.246L162.567 136.773C162.793 135.484 163.115 133.635 163.522 131.363C163.929 129.091 164.416 126.358 164.954 123.341C165.234 121.833 165.527 120.248 165.829 118.606C165.905 118.199 165.988 117.785 166.068 117.369C166.109 117.159 166.147 116.952 166.195 116.732C166.22 116.627 166.239 116.519 166.271 116.414L166.389 116.096C166.707 115.288 167.07 114.505 167.426 113.681C170.306 107.211 172.985 101.388 174.923 97.1752L177.237 92.1889C177.507 91.6097 177.723 91.1579 177.873 90.8397C177.943 90.6933 178 90.5756 178.045 90.4896C178.062 90.4483 178.083 90.4088 178.108 90.3719L178.061 90.4992L177.908 90.8556L177.3 92.2207C176.756 93.4172 175.98 95.1355 175.031 97.2356C173.122 101.465 170.462 107.294 167.585 113.763C167.229 114.572 166.869 115.373 166.551 116.166L166.437 116.459C166.405 116.56 166.389 116.665 166.363 116.777C166.316 116.98 166.278 117.194 166.233 117.413C166.153 117.83 166.074 118.244 165.994 118.651C165.676 120.29 165.393 121.874 165.11 123.38C164.556 126.396 164.056 129.107 163.636 131.395C163.216 133.683 162.876 135.513 162.64 136.805C162.52 137.441 162.424 137.925 162.36 138.272C162.325 138.431 162.3 138.558 162.281 138.653C162.274 138.691 162.264 138.727 162.249 138.762Z" fill="#263238"/>
<path d="M165.469 139.112C165.469 139.163 163.559 139.169 161.233 139.112C158.907 139.054 156.998 138.994 156.998 138.943C156.998 138.892 158.907 138.886 161.237 138.927C163.566 138.968 165.472 139.061 165.469 139.112Z" fill="#263238"/>
<path d="M168.181 92.0011L168.295 92.2716L182.573 91.1165L182.07 89.6814L168.181 92.0011Z" fill="#263238"/>
<path d="M174.077 68.7402L173.122 72.5969L173.087 69.8221L173.16 69.208L173.246 68.7402L171.973 68.3106L171.318 69.3321H171.127C171.127 69.3321 165.988 68.8197 164.19 75.6103L162.545 79.6356L167.525 82.1176V82.4358L167.843 92.0425L182.226 89.7132C182.283 87.5558 180.081 83.6482 180.568 81.6944L182.226 75.0121L180.053 68.7847L178.548 68.8325L177.711 67.8428L174.093 68.7402" fill="#263238"/>
<path d="M167.613 82.0603C167.498 82.028 167.389 81.9728 167.295 81.898C167.03 81.7157 166.804 81.482 166.63 81.2107C166.367 80.8044 166.247 80.3216 166.29 79.8392C166.314 79.2493 166.508 78.6791 166.85 78.1973C167.115 77.8196 167.463 77.5081 167.868 77.2872L167.823 77.3445C167.944 76.4631 168.053 75.7057 168.142 75.168C168.172 74.881 168.225 74.5969 168.301 74.3184C168.301 74.608 168.28 74.8974 168.237 75.1839C168.183 75.7217 168.097 76.4854 167.989 77.3668V77.405L167.951 77.4272C167.519 77.6733 167.155 78.024 166.894 78.4471C166.633 78.8702 166.482 79.3522 166.455 79.8488C166.407 80.3022 166.508 80.759 166.742 81.1503C166.901 81.4151 167.106 81.6499 167.346 81.844C167.528 81.984 167.617 82.0476 167.613 82.0603Z" fill="#455A64"/>
<path d="M168.164 75.5975C168.123 75.6166 167.983 75.413 167.846 75.1393C167.709 74.8657 167.636 74.627 167.678 74.6079C167.719 74.5888 167.859 74.7925 167.996 75.0661C168.133 75.3398 168.196 75.5594 168.164 75.5975Z" fill="#455A64"/>
<path d="M153.45 72.8673L198.693 81.5576C201.92 82.1781 203.95 85.1247 203.584 88.4818C203.579 88.529 203.57 88.5758 203.559 88.6218C203.408 89.4154 203.101 90.1711 202.656 90.845C202.21 91.519 201.636 92.0977 200.965 92.5474C200.294 92.9972 199.54 93.3091 198.747 93.465C197.955 93.6208 197.139 93.6175 196.348 93.4553L152.009 84.5073L142.23 76.6922L153.45 72.8673Z" fill="#FF725E"/>
<path d="M153.45 72.8673C153.45 72.8673 155.92 73.7933 155.411 76.1608C154.901 78.5282 152.512 78.4296 152.512 78.4296C152.512 78.4296 154.835 78.9451 154.192 82.264C153.775 84.4023 152.009 84.5137 152.009 84.5137L142.23 76.6922L153.45 72.8673Z" fill="#E0E0E0"/>
<path d="M144.356 78.3914C145.311 77.9173 145.645 76.654 145.311 75.6453L142.24 76.6922L144.356 78.3914Z" fill="#455A64"/>
<path d="M198.076 87.664L197.958 87.648L197.608 87.5908L196.275 87.3521C195.116 87.1421 193.446 86.8271 191.377 86.4293C187.241 85.6338 181.548 84.4914 175.26 83.1931L159.165 79.8456L154.287 78.8242L152.963 78.541L152.62 78.4614C152.579 78.4556 152.54 78.4449 152.502 78.4296C152.543 78.4311 152.583 78.4365 152.623 78.4455L152.97 78.506L154.3 78.7605L159.197 79.7342L175.305 83.034C181.589 84.3323 187.285 85.4938 191.412 86.3179L196.297 87.2917L197.624 87.5621L197.971 87.6353C198.007 87.6405 198.042 87.6501 198.076 87.664Z" fill="#455A64"/>
<path d="M196.348 93.4553C197.139 93.6175 197.955 93.6208 198.747 93.465C199.54 93.3091 200.293 92.9972 200.964 92.5474C201.635 92.0977 202.21 91.519 202.655 90.845C203.101 90.1711 203.408 89.4154 203.558 88.6218C203.57 88.5758 203.579 88.529 203.584 88.4818C203.95 85.1247 201.919 82.1781 198.693 81.5576L196.348 93.4553Z" fill="#455A64"/>
<path d="M178.366 74.6779C178.366 74.6779 175.614 83.3618 174.847 83.5527C170.558 84.6474 165.673 83.9505 163.952 83.6418C163.757 83.4827 163.528 83.2854 163.277 83.05C163.06 82.8429 162.879 82.6009 162.742 82.334C162.56 82.0087 162.424 81.6595 162.338 81.2966C162.335 81.2234 162.309 81.1531 162.263 81.0957C162.217 81.0384 162.154 80.9971 162.084 80.9776C162.013 80.9582 161.938 80.9616 161.869 80.9875C161.801 81.0134 161.742 81.0603 161.702 81.1216C161.552 81.3953 161.654 82.334 162.243 83.2695C162.243 83.2695 158.793 85.4588 158.039 85.4397C157.285 85.4206 155.125 85.3665 155.35 85.6656C155.576 85.9648 158.039 86.3752 158.039 86.3752L162.494 87.8867C162.494 87.8867 178.837 92.2843 181.074 85.182C182.443 80.8289 183.391 78.2673 183.604 77.2268L178.366 74.6779Z" fill="#FFBE9D"/>
<path d="M180.075 68.7975C180.075 68.7975 183.67 69.4339 183.81 75.3207C183.877 78.9006 183.105 82.4465 181.557 85.6752L175.231 82.3531C176.652 79.5099 177.721 76.5039 178.414 73.4019L180.055 68.7943L180.075 68.7975Z" fill="#263238"/>
<path d="M178.23 73.7297C178.23 73.8518 178.216 73.9735 178.188 74.0924C178.153 74.3215 178.093 74.6525 178.004 75.047C177.77 76.1058 177.476 77.1502 177.122 78.175C176.767 79.1998 176.351 80.2028 175.878 81.1789C175.697 81.5544 175.541 81.8535 175.426 82.054C175.374 82.1665 175.31 82.2732 175.235 82.3722C175.264 82.2542 175.309 82.1407 175.369 82.0349C175.477 81.7899 175.614 81.4907 175.773 81.1407C176.11 80.3834 176.55 79.3238 176.966 78.1305C177.383 76.9372 177.686 75.833 177.889 75.028C177.983 74.6525 178.062 74.3343 178.128 74.0733C178.148 73.9551 178.182 73.8397 178.23 73.7297Z" fill="#455A64"/>
</svg>
