<svg width="375" height="812" viewBox="0 0 375 812" fill="none" xmlns="http://www.w3.org/2000/svg">
<g clip-path="url(#clip0)">
<rect width="375" height="812" fill="#F5EDE2"/>
<rect x="0.5" y="0.5" width="374" height="811" fill="url(#paint0_linear)" stroke="black"/>
<g filter="url(#filter0_f)">
<rect x="87" y="683" width="201" height="48" fill="#FF5F54" fill-opacity="0.3"/>
</g>
<path opacity="0.63" d="M184 476C232.049 476 271 469.06 271 460.5C271 451.94 232.049 445 184 445C135.951 445 97 451.94 97 460.5C97 469.06 135.951 476 184 476Z" fill="#F4E9DA"/>
<path d="M48 683C48 674.163 55.1634 667 64 667H311C319.837 667 327 674.163 327 683V701C327 709.837 319.837 717 311 717H64C55.1634 717 48 709.837 48 701V683Z" fill="#FF5F54"/>
<path d="M167.864 697.224C166.765 697.224 165.837 696.979 165.08 696.488C164.323 695.997 163.784 695.32 163.464 694.456L165.352 693.352C165.789 694.493 166.648 695.064 167.928 695.064C168.525 695.064 168.973 694.957 169.272 694.744C169.571 694.531 169.72 694.243 169.72 693.88C169.72 693.485 169.544 693.181 169.192 692.968C168.84 692.744 168.211 692.504 167.304 692.248C166.323 691.949 165.549 691.603 164.984 691.208C164.28 690.685 163.928 689.917 163.928 688.904C163.928 687.88 164.285 687.075 165 686.488C165.715 685.88 166.584 685.576 167.608 685.576C168.504 685.576 169.299 685.795 169.992 686.232C170.685 686.669 171.224 687.288 171.608 688.088L169.752 689.16C169.304 688.2 168.589 687.72 167.608 687.72C167.16 687.72 166.803 687.827 166.536 688.04C166.269 688.243 166.136 688.509 166.136 688.84C166.136 689.192 166.28 689.48 166.568 689.704C166.888 689.928 167.453 690.163 168.264 690.408L169.032 690.664C169.171 690.707 169.411 690.797 169.752 690.936C170.072 691.053 170.307 691.165 170.456 691.272C170.979 691.592 171.331 691.923 171.512 692.264C171.789 692.712 171.928 693.24 171.928 693.848C171.928 694.883 171.549 695.704 170.792 696.312C170.035 696.92 169.059 697.224 167.864 697.224ZM174.296 688.04C173.955 688.04 173.656 687.917 173.4 687.672C173.155 687.416 173.032 687.117 173.032 686.776C173.032 686.435 173.155 686.136 173.4 685.88C173.656 685.624 173.955 685.496 174.296 685.496C174.648 685.496 174.947 685.624 175.192 685.88C175.448 686.136 175.576 686.435 175.576 686.776C175.576 687.117 175.448 687.416 175.192 687.672C174.947 687.917 174.648 688.04 174.296 688.04ZM175.336 697H173.272V689H175.336V697ZM183.353 689.992V689H185.369V696.616C185.369 697.843 184.959 698.787 184.137 699.448C183.327 700.099 182.345 700.424 181.193 700.424C179.38 700.424 178.116 699.773 177.401 698.472L179.161 697.464C179.556 698.211 180.255 698.584 181.257 698.584C181.908 698.584 182.42 698.413 182.793 698.072C183.167 697.731 183.353 697.245 183.353 696.616V695.752C182.745 696.563 181.892 696.968 180.793 696.968C179.663 696.968 178.713 696.573 177.945 695.784C177.188 694.973 176.809 694.003 176.809 692.872C176.809 691.741 177.193 690.776 177.961 689.976C178.729 689.176 179.673 688.776 180.793 688.776C181.892 688.776 182.745 689.181 183.353 689.992ZM182.713 694.456C183.14 694.04 183.353 693.512 183.353 692.872C183.353 692.232 183.14 691.715 182.713 691.32C182.297 690.904 181.764 690.696 181.113 690.696C180.473 690.696 179.935 690.904 179.497 691.32C179.081 691.715 178.873 692.232 178.873 692.872C178.873 693.512 179.081 694.04 179.497 694.456C179.924 694.861 180.463 695.064 181.113 695.064C181.764 695.064 182.297 694.861 182.713 694.456ZM191.689 688.776C192.574 688.776 193.294 689.069 193.849 689.656C194.425 690.253 194.713 691.064 194.713 692.088V697H192.649V692.344C192.649 691.821 192.505 691.416 192.217 691.128C191.94 690.84 191.556 690.696 191.065 690.696C190.521 690.696 190.089 690.867 189.769 691.208C189.46 691.539 189.305 692.029 189.305 692.68V697H187.241V689H189.305V689.896C189.796 689.149 190.59 688.776 191.689 688.776ZM201.499 688.04C201.158 688.04 200.859 687.917 200.603 687.672C200.358 687.416 200.235 687.117 200.235 686.776C200.235 686.435 200.358 686.136 200.603 685.88C200.859 685.624 201.158 685.496 201.499 685.496C201.851 685.496 202.15 685.624 202.395 685.88C202.651 686.136 202.779 686.435 202.779 686.776C202.779 687.117 202.651 687.416 202.395 687.672C202.15 687.917 201.851 688.04 201.499 688.04ZM202.539 697H200.475V689H202.539V697ZM208.876 688.776C209.762 688.776 210.482 689.069 211.036 689.656C211.612 690.253 211.9 691.064 211.9 692.088V697H209.836V692.344C209.836 691.821 209.692 691.416 209.404 691.128C209.127 690.84 208.743 690.696 208.252 690.696C207.708 690.696 207.276 690.867 206.956 691.208C206.647 691.539 206.492 692.029 206.492 692.68V697H204.428V689H206.492V689.896C206.983 689.149 207.778 688.776 208.876 688.776Z" fill="#580600"/>
<path d="M124.464 764.208C122.757 764.208 121.355 763.648 120.256 762.528C119.157 761.419 118.608 760.043 118.608 758.4C118.608 756.757 119.157 755.381 120.256 754.272C121.355 753.152 122.757 752.592 124.464 752.592C125.477 752.592 126.416 752.837 127.28 753.328C128.144 753.819 128.816 754.48 129.296 755.312L128 756.064C127.68 755.445 127.2 754.955 126.56 754.592C125.931 754.219 125.232 754.032 124.464 754.032C123.163 754.032 122.107 754.448 121.296 755.28C120.485 756.101 120.08 757.141 120.08 758.4C120.08 759.648 120.485 760.683 121.296 761.504C122.107 762.336 123.163 762.752 124.464 762.752C125.232 762.752 125.931 762.571 126.56 762.208C127.2 761.835 127.68 761.344 128 760.736L129.296 761.472C128.827 762.304 128.16 762.971 127.296 763.472C126.443 763.963 125.499 764.208 124.464 764.208ZM132.276 756V757.344C132.735 756.352 133.567 755.856 134.772 755.856V757.312C134.089 757.28 133.503 757.461 133.012 757.856C132.521 758.251 132.276 758.885 132.276 759.76V764H130.884V756H132.276ZM143.377 760.64H136.673C136.811 761.344 137.137 761.899 137.649 762.304C138.161 762.699 138.801 762.896 139.569 762.896C140.625 762.896 141.393 762.507 141.873 761.728L143.057 762.4C142.267 763.605 141.094 764.208 139.537 764.208C138.278 764.208 137.243 763.813 136.433 763.024C135.643 762.213 135.249 761.205 135.249 760C135.249 758.784 135.638 757.781 136.417 756.992C137.195 756.192 138.203 755.792 139.441 755.792C140.614 755.792 141.569 756.208 142.305 757.04C143.051 757.851 143.425 758.843 143.425 760.016C143.425 760.219 143.409 760.427 143.377 760.64ZM139.441 757.104C138.705 757.104 138.086 757.312 137.585 757.728C137.094 758.144 136.79 758.709 136.673 759.424H142.017C141.899 758.688 141.606 758.117 141.137 757.712C140.667 757.307 140.102 757.104 139.441 757.104ZM151.633 757.376V756H153.025V764H151.633V762.624C150.95 763.68 149.942 764.208 148.609 764.208C147.478 764.208 146.524 763.803 145.745 762.992C144.956 762.171 144.561 761.173 144.561 760C144.561 758.837 144.956 757.845 145.745 757.024C146.534 756.203 147.489 755.792 148.609 755.792C149.942 755.792 150.95 756.32 151.633 757.376ZM148.785 762.864C149.596 762.864 150.273 762.592 150.817 762.048C151.361 761.483 151.633 760.8 151.633 760C151.633 759.189 151.361 758.512 150.817 757.968C150.273 757.413 149.596 757.136 148.785 757.136C147.985 757.136 147.313 757.413 146.769 757.968C146.225 758.512 145.953 759.189 145.953 760C145.953 760.8 146.225 761.483 146.769 762.048C147.313 762.592 147.985 762.864 148.785 762.864ZM159.486 756V757.344H157.358V761.68C157.358 762.075 157.433 762.357 157.582 762.528C157.742 762.688 157.982 762.773 158.302 762.784C158.622 762.784 159.017 762.773 159.486 762.752V764C158.259 764.16 157.363 764.059 156.798 763.696C156.243 763.333 155.966 762.661 155.966 761.68V757.344H154.382V756H155.966V754.176L157.358 753.76V756H159.486ZM168.408 760.64H161.704C161.843 761.344 162.168 761.899 162.68 762.304C163.192 762.699 163.832 762.896 164.6 762.896C165.656 762.896 166.424 762.507 166.904 761.728L168.088 762.4C167.299 763.605 166.125 764.208 164.568 764.208C163.309 764.208 162.275 763.813 161.464 763.024C160.675 762.213 160.28 761.205 160.28 760C160.28 758.784 160.669 757.781 161.448 756.992C162.227 756.192 163.235 755.792 164.472 755.792C165.645 755.792 166.6 756.208 167.336 757.04C168.083 757.851 168.456 758.843 168.456 760.016C168.456 760.219 168.44 760.427 168.408 760.64ZM164.472 757.104C163.736 757.104 163.117 757.312 162.616 757.728C162.125 758.144 161.821 758.709 161.704 759.424H167.048C166.931 758.688 166.637 758.117 166.168 757.712C165.699 757.307 165.133 757.104 164.472 757.104ZM180.68 757.376V756H182.072V764H180.68V762.624C179.997 763.68 178.989 764.208 177.656 764.208C176.525 764.208 175.571 763.803 174.792 762.992C174.003 762.171 173.608 761.173 173.608 760C173.608 758.837 174.003 757.845 174.792 757.024C175.581 756.203 176.536 755.792 177.656 755.792C178.989 755.792 179.997 756.32 180.68 757.376ZM177.832 762.864C178.643 762.864 179.32 762.592 179.864 762.048C180.408 761.483 180.68 760.8 180.68 760C180.68 759.189 180.408 758.512 179.864 757.968C179.32 757.413 178.643 757.136 177.832 757.136C177.032 757.136 176.36 757.413 175.816 757.968C175.272 758.512 175 759.189 175 760C175 760.8 175.272 761.483 175.816 762.048C176.36 762.592 177.032 762.864 177.832 762.864ZM188.165 755.792C189.104 755.792 189.856 756.091 190.421 756.688C190.986 757.275 191.269 758.075 191.269 759.088V764H189.877V759.168C189.877 758.528 189.701 758.027 189.349 757.664C188.997 757.301 188.512 757.12 187.893 757.12C187.178 757.12 186.613 757.344 186.197 757.792C185.781 758.229 185.573 758.885 185.573 759.76V764H184.181V756H185.573V757.152C186.128 756.245 186.992 755.792 188.165 755.792ZM203.836 757.376V756H205.228V764H203.836V762.624C203.154 763.68 202.146 764.208 200.812 764.208C199.682 764.208 198.727 763.803 197.948 762.992C197.159 762.171 196.764 761.173 196.764 760C196.764 758.837 197.159 757.845 197.948 757.024C198.738 756.203 199.692 755.792 200.812 755.792C202.146 755.792 203.154 756.32 203.836 757.376ZM200.988 762.864C201.799 762.864 202.476 762.592 203.02 762.048C203.564 761.483 203.836 760.8 203.836 760C203.836 759.189 203.564 758.512 203.02 757.968C202.476 757.413 201.799 757.136 200.988 757.136C200.188 757.136 199.516 757.413 198.972 757.968C198.428 758.512 198.156 759.189 198.156 760C198.156 760.8 198.428 761.483 198.972 762.048C199.516 762.592 200.188 762.864 200.988 762.864ZM211.097 764.208C209.892 764.208 208.889 763.808 208.089 763.008C207.289 762.197 206.889 761.195 206.889 760C206.889 758.805 207.289 757.808 208.089 757.008C208.889 756.197 209.892 755.792 211.097 755.792C211.887 755.792 212.596 755.984 213.225 756.368C213.855 756.741 214.324 757.248 214.633 757.888L213.465 758.56C213.263 758.133 212.948 757.792 212.521 757.536C212.105 757.28 211.631 757.152 211.097 757.152C210.297 757.152 209.625 757.424 209.081 757.968C208.548 758.523 208.281 759.2 208.281 760C208.281 760.789 208.548 761.461 209.081 762.016C209.625 762.56 210.297 762.832 211.097 762.832C211.631 762.832 212.111 762.709 212.537 762.464C212.964 762.208 213.289 761.867 213.513 761.44L214.697 762.128C214.345 762.768 213.849 763.275 213.209 763.648C212.569 764.021 211.865 764.208 211.097 764.208ZM219.722 764.208C218.517 764.208 217.514 763.808 216.714 763.008C215.914 762.197 215.514 761.195 215.514 760C215.514 758.805 215.914 757.808 216.714 757.008C217.514 756.197 218.517 755.792 219.722 755.792C220.512 755.792 221.221 755.984 221.85 756.368C222.48 756.741 222.949 757.248 223.258 757.888L222.09 758.56C221.888 758.133 221.573 757.792 221.146 757.536C220.73 757.28 220.256 757.152 219.722 757.152C218.922 757.152 218.25 757.424 217.706 757.968C217.173 758.523 216.906 759.2 216.906 760C216.906 760.789 217.173 761.461 217.706 762.016C218.25 762.56 218.922 762.832 219.722 762.832C220.256 762.832 220.736 762.709 221.162 762.464C221.589 762.208 221.914 761.867 222.138 761.44L223.322 762.128C222.97 762.768 222.474 763.275 221.834 763.648C221.194 764.021 220.49 764.208 219.722 764.208ZM231.339 762.992C230.529 763.803 229.531 764.208 228.347 764.208C227.163 764.208 226.166 763.803 225.355 762.992C224.545 762.181 224.139 761.184 224.139 760C224.139 758.816 224.545 757.819 225.355 757.008C226.166 756.197 227.163 755.792 228.347 755.792C229.531 755.792 230.529 756.197 231.339 757.008C232.161 757.829 232.571 758.827 232.571 760C232.571 761.173 232.161 762.171 231.339 762.992ZM228.347 762.848C229.147 762.848 229.819 762.576 230.363 762.032C230.907 761.488 231.179 760.811 231.179 760C231.179 759.189 230.907 758.512 230.363 757.968C229.819 757.424 229.147 757.152 228.347 757.152C227.558 757.152 226.891 757.424 226.347 757.968C225.803 758.512 225.531 759.189 225.531 760C225.531 760.811 225.803 761.488 226.347 762.032C226.891 762.576 227.558 762.848 228.347 762.848ZM239.732 760.24V756H241.124V764H239.732V762.848C239.178 763.755 238.314 764.208 237.14 764.208C236.202 764.208 235.45 763.915 234.884 763.328C234.319 762.731 234.036 761.925 234.036 760.912V756H235.428V760.832C235.428 761.472 235.604 761.973 235.956 762.336C236.308 762.699 236.794 762.88 237.412 762.88C238.127 762.88 238.692 762.661 239.108 762.224C239.524 761.776 239.732 761.115 239.732 760.24ZM247.228 755.792C248.166 755.792 248.918 756.091 249.484 756.688C250.049 757.275 250.332 758.075 250.332 759.088V764H248.94V759.168C248.94 758.528 248.764 758.027 248.412 757.664C248.06 757.301 247.574 757.12 246.956 757.12C246.241 757.12 245.676 757.344 245.26 757.792C244.844 758.229 244.636 758.885 244.636 759.76V764H243.243V756H244.636V757.152C245.19 756.245 246.054 755.792 247.228 755.792ZM256.627 756V757.344H254.499V761.68C254.499 762.075 254.573 762.357 254.723 762.528C254.883 762.688 255.123 762.773 255.443 762.784C255.763 762.784 256.157 762.773 256.627 762.752V764C255.4 764.16 254.504 764.059 253.939 763.696C253.384 763.333 253.107 762.661 253.107 761.68V757.344H251.523V756H253.107V754.176L254.499 753.76V756H256.627Z" fill="#212330"/>
<circle cx="226" cy="584" r="13" fill="#7511F4"/>
<path d="M-85 292.475C-85 172.152 12.0729 74.3637 132.393 73.4807L334.152 72L501.75 73.3396C622.014 74.3008 719 172.065 719 292.333V881H-85V292.475Z" fill="white"/>
<path d="M90.1537 1.73393C54.8148 14.1025 34 29.2803 34 45.6827C34 87.2793 167.867 121 333 121C498.133 121 632 87.2793 632 45.6827C632 28.5054 609.172 12.6712 570.741 0" stroke="#ECC19A"/>
<path d="M-27.9598 -67.7471C-55.6754 -44.5433 -72 -16.0692 -72 14.7022C-72 92.7388 32.9892 156 162.5 156C292.011 156 397 92.7388 397 14.7022C397 -17.5229 379.097 -47.2284 348.956 -71" stroke="#ECC19A"/>
<ellipse cx="39.5" cy="52" rx="17.5" ry="18" fill="#F9C001"/>
<circle cx="324" cy="121" r="9" fill="#9DD1D4"/>
<path d="M147.695 21V24.96H139.295V29.94H147.455V33.9H139.295V42H135.155V21H147.695ZM163.312 40.14C161.792 41.66 159.912 42.42 157.672 42.42C155.432 42.42 153.552 41.66 152.032 40.14C150.512 38.62 149.752 36.74 149.752 34.5C149.752 32.28 150.512 30.41 152.032 28.89C153.572 27.35 155.452 26.58 157.672 26.58C159.892 26.58 161.772 27.35 163.312 28.89C164.852 30.43 165.622 32.3 165.622 34.5C165.622 36.72 164.852 38.6 163.312 40.14ZM154.762 37.47C155.542 38.25 156.512 38.64 157.672 38.64C158.832 38.64 159.802 38.25 160.582 37.47C161.362 36.69 161.752 35.7 161.752 34.5C161.752 33.3 161.362 32.31 160.582 31.53C159.802 30.75 158.832 30.36 157.672 30.36C156.512 30.36 155.542 30.75 154.762 31.53C154.002 32.33 153.622 33.32 153.622 34.5C153.622 35.68 154.002 36.67 154.762 37.47ZM175.63 34.32L181.12 42H176.65L173.41 37.44L170.14 42H165.67L171.16 34.35L165.91 27H170.38L173.41 31.23L176.44 27H180.88L175.63 34.32Z" fill="#FF5F54"/>
<path d="M186.921 42H183.051V20.1H186.921V42ZM205.043 36.09H193.733C194.233 37.97 195.643 38.91 197.963 38.91C199.443 38.91 200.563 38.41 201.323 37.41L204.443 39.21C202.963 41.35 200.783 42.42 197.903 42.42C195.423 42.42 193.433 41.67 191.933 40.17C190.433 38.67 189.683 36.78 189.683 34.5C189.683 32.26 190.423 30.38 191.903 28.86C193.363 27.34 195.263 26.58 197.603 26.58C199.823 26.58 201.633 27.34 203.033 28.86C204.473 30.38 205.193 32.26 205.193 34.5C205.193 34.92 205.143 35.45 205.043 36.09ZM193.673 33.09H201.323C201.103 32.11 200.653 31.36 199.973 30.84C199.313 30.32 198.523 30.06 197.603 30.06C196.563 30.06 195.703 30.33 195.023 30.87C194.343 31.39 193.893 32.13 193.673 33.09ZM219.178 28.77V27H223.048V42H219.178V40.23C218.018 41.69 216.388 42.42 214.288 42.42C212.288 42.42 210.568 41.66 209.128 40.14C207.708 38.6 206.998 36.72 206.998 34.5C206.998 32.3 207.708 30.43 209.128 28.89C210.568 27.35 212.288 26.58 214.288 26.58C216.388 26.58 218.018 27.31 219.178 28.77ZM212.038 37.56C212.818 38.34 213.808 38.73 215.008 38.73C216.208 38.73 217.198 38.34 217.978 37.56C218.778 36.76 219.178 35.74 219.178 34.5C219.178 33.26 218.778 32.25 217.978 31.47C217.198 30.67 216.208 30.27 215.008 30.27C213.808 30.27 212.818 30.67 212.038 31.47C211.258 32.25 210.868 33.26 210.868 34.5C210.868 35.74 211.258 36.76 212.038 37.56ZM230.427 27V29.58C230.767 28.64 231.347 27.93 232.167 27.45C232.987 26.95 233.927 26.7 234.987 26.7V31.02C233.807 30.86 232.747 31.1 231.807 31.74C230.887 32.36 230.427 33.39 230.427 34.83V42H226.557V27H230.427ZM245.59 26.58C247.25 26.58 248.6 27.13 249.64 28.23C250.72 29.35 251.26 30.87 251.26 32.79V42H247.39V33.27C247.39 32.29 247.12 31.53 246.58 30.99C246.06 30.45 245.34 30.18 244.42 30.18C243.4 30.18 242.59 30.5 241.99 31.14C241.41 31.76 241.12 32.68 241.12 33.9V42H237.25V27H241.12V28.68C242.04 27.28 243.53 26.58 245.59 26.58Z" fill="#021E40"/>
</g>
<defs>
<filter id="filter0_f" x="47" y="643" width="281" height="128" filterUnits="userSpaceOnUse" color-interpolation-filters="sRGB">
<feFlood flood-opacity="0" result="BackgroundImageFix"/>
<feBlend mode="normal" in="SourceGraphic" in2="BackgroundImageFix" result="shape"/>
<feGaussianBlur stdDeviation="20" result="effect1_foregroundBlur"/>
</filter>
<linearGradient id="paint0_linear" x1="187.5" y1="0" x2="187.5" y2="812" gradientUnits="userSpaceOnUse">
<stop stop-color="#FCF6ED"/>
<stop offset="0.339611" stop-color="#F4E9D9"/>
<stop offset="1" stop-color="#F5EDE2"/>
</linearGradient>
<clipPath id="clip0">
<rect width="375" height="812" fill="white"/>
</clipPath>
</defs>
</svg>
