<svg width="457" height="812" viewBox="0 0 457 812" fill="none" xmlns="http://www.w3.org/2000/svg">
<path d="M90.1537 1.73393C54.8148 14.1025 34 29.2803 34 45.6827C34 87.2793 167.867 121 333 121C498.133 121 632 87.2793 632 45.6827C632 28.5054 609.172 12.6712 570.741 0" stroke="#ECC19A"/>
<path d="M-27.9598 -67.7471C-55.6754 -44.5433 -72 -16.0692 -72 14.7022C-72 92.7388 32.9892 156 162.5 156C292.011 156 397 92.7388 397 14.7022C397 -17.5229 379.097 -47.2284 348.956 -71" stroke="#ECC19A"/>
<ellipse cx="39.5" cy="52" rx="17.5" ry="18" fill="#F9C001"/>
<circle cx="324" cy="121" r="9" fill="#9DD1D4"/>
<path d="M183.695 54V57.96H175.295V62.94H183.455V66.9H175.295V75H171.155V54H183.695ZM199.312 73.14C197.792 74.66 195.912 75.42 193.672 75.42C191.432 75.42 189.552 74.66 188.032 73.14C186.512 71.62 185.752 69.74 185.752 67.5C185.752 65.28 186.512 63.41 188.032 61.89C189.572 60.35 191.452 59.58 193.672 59.58C195.892 59.58 197.772 60.35 199.312 61.89C200.852 63.43 201.622 65.3 201.622 67.5C201.622 69.72 200.852 71.6 199.312 73.14ZM190.762 70.47C191.542 71.25 192.512 71.64 193.672 71.64C194.832 71.64 195.802 71.25 196.582 70.47C197.362 69.69 197.752 68.7 197.752 67.5C197.752 66.3 197.362 65.31 196.582 64.53C195.802 63.75 194.832 63.36 193.672 63.36C192.512 63.36 191.542 63.75 190.762 64.53C190.002 65.33 189.622 66.32 189.622 67.5C189.622 68.68 190.002 69.67 190.762 70.47ZM211.63 67.32L217.12 75H212.65L209.41 70.44L206.14 75H201.67L207.16 67.35L201.91 60H206.38L209.41 64.23L212.44 60H216.88L211.63 67.32Z" fill="#FF5F54"/>
<path d="M222.921 75H219.051V53.1H222.921V75ZM241.043 69.09H229.733C230.233 70.97 231.643 71.91 233.963 71.91C235.443 71.91 236.563 71.41 237.323 70.41L240.443 72.21C238.963 74.35 236.783 75.42 233.903 75.42C231.423 75.42 229.433 74.67 227.933 73.17C226.433 71.67 225.683 69.78 225.683 67.5C225.683 65.26 226.423 63.38 227.903 61.86C229.363 60.34 231.263 59.58 233.603 59.58C235.823 59.58 237.633 60.34 239.033 61.86C240.473 63.38 241.193 65.26 241.193 67.5C241.193 67.92 241.143 68.45 241.043 69.09ZM229.673 66.09H237.323C237.103 65.11 236.653 64.36 235.973 63.84C235.313 63.32 234.523 63.06 233.603 63.06C232.563 63.06 231.703 63.33 231.023 63.87C230.343 64.39 229.893 65.13 229.673 66.09ZM255.178 61.77V60H259.048V75H255.178V73.23C254.018 74.69 252.388 75.42 250.288 75.42C248.288 75.42 246.568 74.66 245.128 73.14C243.708 71.6 242.998 69.72 242.998 67.5C242.998 65.3 243.708 63.43 245.128 61.89C246.568 60.35 248.288 59.58 250.288 59.58C252.388 59.58 254.018 60.31 255.178 61.77ZM248.038 70.56C248.818 71.34 249.808 71.73 251.008 71.73C252.208 71.73 253.198 71.34 253.978 70.56C254.778 69.76 255.178 68.74 255.178 67.5C255.178 66.26 254.778 65.25 253.978 64.47C253.198 63.67 252.208 63.27 251.008 63.27C249.808 63.27 248.818 63.67 248.038 64.47C247.258 65.25 246.868 66.26 246.868 67.5C246.868 68.74 247.258 69.76 248.038 70.56ZM266.427 60V62.58C266.767 61.64 267.347 60.93 268.167 60.45C268.987 59.95 269.927 59.7 270.987 59.7V64.02C269.807 63.86 268.747 64.1 267.807 64.74C266.887 65.36 266.427 66.39 266.427 67.83V75H262.557V60H266.427ZM281.59 59.58C283.25 59.58 284.6 60.13 285.64 61.23C286.72 62.35 287.26 63.87 287.26 65.79V75H283.39V66.27C283.39 65.29 283.12 64.53 282.58 63.99C282.06 63.45 281.34 63.18 280.42 63.18C279.4 63.18 278.59 63.5 277.99 64.14C277.41 64.76 277.12 65.68 277.12 66.9V75H273.25V60H277.12V61.68C278.04 60.28 279.53 59.58 281.59 59.58Z" fill="#021E40"/>
</svg>
