<svg width="18" height="18" viewBox="0 0 18 18" fill="none" xmlns="http://www.w3.org/2000/svg">
<path fill-rule="evenodd" clip-rule="evenodd" d="M7.86075 1.5855C8.23425 1.5285 8.6175 1.5 9 1.5C13.1355 1.5 16.5 4.8645 16.5 9C16.5 13.1355 13.1355 16.5 9 16.5C4.8645 16.5 1.5 13.1355 1.5 9C1.5 6.654 2.56725 4.48725 4.4265 3.05475C4.665 2.871 5.0085 2.916 5.1915 3.15375C5.376 3.39225 5.33025 3.73425 5.0925 3.9195C3.50175 5.14275 2.5905 6.99525 2.5905 9C2.5905 12.534 5.46525 15.4095 9 15.4095C12.534 15.4095 15.4088 12.534 15.4088 9C15.4088 5.466 12.534 2.5905 9 2.5905C8.67225 2.5905 8.3445 2.61525 8.02575 2.664C7.72875 2.709 7.4505 2.505 7.40475 2.20725C7.35525 1.908 7.563 1.63125 7.86075 1.5855ZM8.99958 11.0956C8.85033 11.0956 8.70708 11.0364 8.60133 10.9299L5.99808 8.31536C5.77833 8.09486 5.77908 7.73861 5.99958 7.51961C6.22008 7.30061 6.57558 7.30061 6.79458 7.52111L8.99958 9.73586L11.2046 7.52111C11.4236 7.30061 11.7798 7.30061 12.0003 7.51961C12.2201 7.73861 12.2208 8.09486 12.0018 8.31536L9.39783 10.9299C9.29283 11.0364 9.14958 11.0956 8.99958 11.0956Z" fill="#200E32"/>
</svg>
