<svg width="18" height="18" viewBox="0 0 18 18" fill="none" xmlns="http://www.w3.org/2000/svg">
<path d="M8.92841 4.13613C9.1835 4.13613 9.43286 4.06048 9.64496 3.91876C9.85706 3.77704 10.0224 3.57561 10.12 3.33994C10.2176 3.10427 10.2431 2.84494 10.1934 2.59475C10.1436 2.34457 10.0208 2.11476 9.84039 1.93439C9.66001 1.75401 9.4302 1.63118 9.18001 1.58142C8.92982 1.53166 8.6705 1.5572 8.43483 1.65483C8.19916 1.75245 7.99773 1.91776 7.85602 2.12987C7.7143 2.34197 7.63866 2.59133 7.63867 2.84642C7.63906 3.18836 7.77507 3.51618 8.01686 3.75796C8.25865 3.99974 8.58648 4.13574 8.92841 4.13613ZM8.92841 1.97855C9.10006 1.97855 9.26786 2.02945 9.41058 2.12481C9.5533 2.22018 9.66453 2.35572 9.73022 2.5143C9.79591 2.67288 9.81309 2.84738 9.77961 3.01573C9.74612 3.18408 9.66346 3.33872 9.54209 3.46009C9.42072 3.58147 9.26608 3.66412 9.09773 3.69761C8.92938 3.7311 8.75488 3.71391 8.5963 3.64822C8.43771 3.58254 8.30217 3.4713 8.20681 3.32858C8.11145 3.18586 8.06055 3.01807 8.06055 2.84642C8.06081 2.61633 8.15233 2.39573 8.31503 2.23303C8.47773 2.07033 8.69832 1.97881 8.92841 1.97855Z" fill="white"/>
<path d="M2.25141 4.14652C2.20617 4.14821 2.16243 4.16318 2.12563 4.18955C2.08883 4.21593 2.06061 4.25254 2.04446 4.29484C2.02832 4.33714 2.02498 4.38325 2.03485 4.42744C2.04472 4.47162 2.06737 4.51193 2.09998 4.54333C2.13259 4.57474 2.17371 4.59586 2.21824 4.60407C2.26276 4.61227 2.30871 4.6072 2.35038 4.58948C2.39204 4.57176 2.42757 4.54218 2.45254 4.50442C2.47752 4.46666 2.49083 4.42238 2.49083 4.37711C2.48953 4.31482 2.4636 4.25559 2.41873 4.21238C2.37386 4.16916 2.3137 4.14548 2.25141 4.14652Z" fill="white"/>
<path d="M6.60625 4.35742C6.60625 4.30148 6.58403 4.24783 6.54447 4.20827C6.50491 4.16871 6.45126 4.14648 6.39531 4.14648H3.0625C3.00656 4.14648 2.9529 4.16871 2.91334 4.20827C2.87379 4.24783 2.85156 4.30148 2.85156 4.35742C2.85156 4.41337 2.87379 4.46702 2.91334 4.50658C2.9529 4.54614 3.00656 4.56836 3.0625 4.56836H6.39531C6.45126 4.56836 6.50491 4.54614 6.54447 4.50658C6.58403 4.46702 6.60625 4.41337 6.60625 4.35742Z" fill="white"/>
<path d="M17.1413 15.7401V15.0813C17.1411 14.9202 17.0771 14.7659 16.9632 14.652C16.8494 14.5381 16.695 14.4741 16.534 14.4738H16.1202V14.095C16.12 13.9702 16.0813 13.8484 16.0095 13.7463C15.9377 13.6442 15.8361 13.5667 15.7187 13.5243L15.532 7.30357C15.7548 7.29098 15.9642 7.19347 16.1173 7.03113C16.2703 6.86878 16.3553 6.65395 16.3547 6.43085V6.30239H16.9307C16.9866 6.30239 17.0402 6.28017 17.0798 6.24061C17.1194 6.20105 17.1416 6.1474 17.1416 6.09145V4.45669C17.1416 4.19586 16.9913 3.96098 16.7669 3.87063L9.48959 0.628313C9.33557 0.559811 9.16888 0.524414 9.00032 0.524414C8.83175 0.524414 8.66506 0.559811 8.51105 0.628313L1.2337 3.8707C1.00937 3.96116 0.859043 4.19593 0.859043 4.45676V6.09152C0.859043 6.14747 0.881267 6.20112 0.920825 6.24068C0.960384 6.28024 1.01404 6.30246 1.06998 6.30246H1.47582V6.4299C1.47507 6.66093 1.56601 6.88283 1.72869 7.04688C1.89136 7.21092 2.11249 7.30372 2.34352 7.30491H2.39006L2.20324 13.5244C2.08583 13.5668 1.98431 13.6443 1.91247 13.7464C1.84064 13.8485 1.80197 13.9702 1.80172 14.095V14.4738H1.46602C1.30498 14.474 1.15059 14.5381 1.03672 14.652C0.922853 14.7658 0.858791 14.9202 0.858586 15.0813V15.7401C0.669075 15.7677 0.49583 15.8626 0.370475 16.0074C0.245121 16.1522 0.176018 16.3372 0.175781 16.5287V17.2644C0.175781 17.3204 0.198005 17.374 0.237563 17.4136C0.277122 17.4531 0.330775 17.4754 0.386719 17.4754H17.6133C17.6692 17.4754 17.7229 17.4531 17.7624 17.4136C17.802 17.374 17.8242 17.3204 17.8242 17.2644V16.5287C17.824 16.3372 17.7549 16.1522 17.6295 16.0074C17.5041 15.8626 17.3308 15.7677 17.1413 15.7401ZM15.6982 14.095V14.4738H13.7887V14.095C13.7888 14.0458 13.8084 13.9987 13.8432 13.9639C13.878 13.9291 13.9251 13.9095 13.9743 13.9095H15.5126C15.5618 13.9095 15.609 13.9291 15.6438 13.9639C15.6786 13.9987 15.6981 14.0458 15.6982 14.095ZM11.8635 13.5244L11.6768 7.30371C11.8996 7.29112 12.109 7.19361 12.2621 7.03127C12.4151 6.86893 12.5001 6.65409 12.4995 6.43099V6.30253H13.0409V6.4299C13.0401 6.66095 13.1311 6.88287 13.2937 7.04693C13.4564 7.211 13.6776 7.3038 13.9086 7.30498H13.9552L13.7684 13.5244C13.651 13.5668 13.5494 13.6443 13.4776 13.7465C13.4058 13.8486 13.3671 13.9703 13.3669 14.0952V14.474H12.265V14.095C12.2648 13.9702 12.2261 13.8485 12.1543 13.7464C12.0825 13.6443 11.981 13.5668 11.8635 13.5244ZM8.00849 13.5244L7.82181 7.30371C8.04455 7.29112 8.254 7.19361 8.40703 7.03127C8.56006 6.86893 8.64504 6.65409 8.64446 6.43099V6.30253H9.18605V6.4299C9.18527 6.66095 9.27621 6.88287 9.4389 7.04693C9.60158 7.211 9.82273 7.3038 10.0538 7.30498H10.1003L9.91332 13.5244C9.79589 13.5668 9.69436 13.6443 9.62253 13.7465C9.55069 13.8486 9.51203 13.9703 9.51181 14.0952V14.474H8.41001V14.095C8.40977 13.9702 8.37112 13.8485 8.2993 13.7464C8.22748 13.6443 8.12599 13.5668 8.00859 13.5244H8.00849ZM4.15343 13.5244L3.96675 7.30371C4.1895 7.29112 4.39894 7.19361 4.55197 7.03127C4.705 6.86893 4.78998 6.65409 4.78941 6.43099V6.30253H5.33099V6.4299C5.33021 6.66095 5.42115 6.88287 5.58384 7.04693C5.74652 7.211 5.96767 7.3038 6.19871 7.30498H6.2453L6.0583 13.5244C5.94087 13.5668 5.83932 13.6443 5.76746 13.7464C5.6956 13.8484 5.65691 13.9702 5.65664 14.095V14.4738H4.55495V14.095C4.5547 13.9702 4.51604 13.8485 4.4442 13.7464C4.37236 13.6443 4.27084 13.5668 4.15343 13.5244ZM6.19952 6.88317C6.08032 6.8824 5.9663 6.83434 5.88251 6.74956C5.79872 6.66477 5.75202 6.55019 5.75265 6.43099V6.30253H8.22238V6.43201C8.22281 6.55086 8.17614 6.66504 8.09259 6.74957C8.00904 6.8341 7.89541 6.88208 7.77656 6.88303L6.19952 6.88317ZM7.58531 13.4876H6.48141L6.66714 7.30491H7.39969L7.58531 13.4876ZM6.07852 14.095C6.07858 14.0458 6.09816 13.9987 6.13295 13.9639C6.16774 13.9291 6.21491 13.9095 6.26411 13.9095H7.8024C7.8516 13.9095 7.89877 13.9291 7.93356 13.9639C7.96835 13.9987 7.98793 14.0458 7.98799 14.095V14.4738H6.07852V14.095ZM10.0547 6.88303C9.93549 6.88226 9.82147 6.8342 9.73768 6.74942C9.65389 6.66463 9.60718 6.55005 9.60782 6.43085V6.30239H12.0775V6.43187C12.078 6.55076 12.0314 6.66499 11.9478 6.74956C11.8642 6.83412 11.7505 6.88211 11.6317 6.88303H10.0547ZM11.4404 13.4876H10.3365L10.5223 7.30491H11.2549L11.4404 13.4876ZM9.93368 14.095C9.93375 14.0458 9.95332 13.9987 9.98811 13.9639C10.0229 13.9291 10.0701 13.9095 10.1193 13.9095H11.6576C11.7068 13.9095 11.7539 13.9291 11.7887 13.9639C11.8235 13.9987 11.8431 14.0458 11.8432 14.095V14.4738H9.93368V14.095ZM14.1916 13.4876L14.3773 7.30491H15.1099L15.2954 13.4876H14.1916ZM15.9325 6.43173C15.933 6.55062 15.8864 6.66486 15.8028 6.74942C15.7192 6.83399 15.6056 6.882 15.4867 6.88293H13.9097C13.7905 6.8821 13.6765 6.83402 13.5928 6.74925C13.509 6.66448 13.4623 6.54993 13.4628 6.43075V6.30229H15.9325V6.43173ZM1.28057 5.88052V5.31077H2.28955C2.34549 5.31077 2.39915 5.28855 2.43871 5.24899C2.47826 5.20943 2.50049 5.15578 2.50049 5.09984C2.50049 5.04389 2.47826 4.99024 2.43871 4.95068C2.39915 4.91112 2.34549 4.8889 2.28955 4.8889H1.28057V4.45683C1.28057 4.36764 1.32648 4.28734 1.39226 4.26161C1.39525 4.26041 1.39823 4.25918 1.40115 4.25784L8.68243 1.01373C8.7824 0.96928 8.89059 0.946311 9 0.946311C9.10941 0.946311 9.2176 0.96928 9.31757 1.01373L16.5988 4.25777C16.6018 4.25911 16.6048 4.26034 16.6077 4.26154C16.6735 4.28727 16.7194 4.36757 16.7194 4.45676V4.88893H3.76608C3.71013 4.88893 3.65648 4.91116 3.61692 4.95072C3.57736 4.99027 3.55514 5.04393 3.55514 5.09987C3.55514 5.15582 3.57736 5.20947 3.61692 5.24903C3.65648 5.28859 3.71013 5.31081 3.76608 5.31081H16.7194V5.88055L1.28057 5.88052ZM2.34454 6.88303C2.22534 6.88226 2.11132 6.8342 2.02754 6.74941C1.94375 6.66463 1.89705 6.55005 1.8977 6.43085V6.30239H4.36739V6.43187C4.36786 6.55075 4.32121 6.66497 4.23764 6.74953C4.15408 6.83409 4.04042 6.88209 3.92154 6.88303H2.34454ZM3.73025 13.4876H2.62635L2.81215 7.30491H3.5447L3.73025 13.4876ZM2.2236 14.095C2.22366 14.0458 2.24324 13.9987 2.27803 13.9639C2.31282 13.9291 2.35999 13.9095 2.40919 13.9095H3.94748C3.99668 13.9095 4.04385 13.9291 4.07864 13.9639C4.11343 13.9987 4.13301 14.0458 4.13307 14.095V14.4738H2.2236V14.095ZM1.28057 15.0813C1.28062 15.0321 1.30019 14.9849 1.33498 14.9501C1.36976 14.9153 1.41693 14.8958 1.46612 14.8957H16.534C16.5832 14.8958 16.6303 14.9153 16.6651 14.9501C16.6999 14.9849 16.7195 15.0321 16.7195 15.0813V15.7316H1.28057V15.0813ZM17.4023 17.0535H0.597656V16.5287C0.597768 16.4293 0.63733 16.3339 0.707661 16.2636C0.777993 16.1933 0.873349 16.1537 0.972809 16.1536H17.0272C17.1267 16.1537 17.222 16.1933 17.2923 16.2636C17.3627 16.3339 17.4022 16.4293 17.4023 16.5287V17.0535Z" fill="white"/>
</svg>
