<svg width="18" height="18" viewBox="0 0 18 18" fill="none" xmlns="http://www.w3.org/2000/svg">
<path fill-rule="evenodd" clip-rule="evenodd" d="M10.3463 1.21755C10.3848 0.877998 10.6884 0.628276 11.0248 0.671957C14.3621 1.04448 16.9547 3.65213 17.3287 7.01225C17.3672 7.3518 17.1241 7.65839 16.7878 7.69548C16.764 7.69795 16.7411 7.6996 16.7182 7.6996C16.4105 7.6996 16.1445 7.46636 16.1093 7.15071C15.7983 4.36833 13.6526 2.20902 10.8889 1.89996C10.5518 1.86205 10.3095 1.55711 10.3463 1.21755ZM2.19633 3.68534C1.77487 4.26885 1.80433 5.01719 2.25689 6.01855C2.39683 6.32926 2.26098 6.69518 1.95245 6.83694C1.64474 6.9787 1.27975 6.84106 1.13981 6.53035C0.496569 5.10702 0.508026 3.91858 1.17582 3.00046C1.31658 2.76145 2.87394 0.748844 4.33146 0.845271C4.75292 0.879886 5.13919 1.07851 5.50255 1.43537C5.888 1.81366 7.51083 3.80072 7.64096 4.43203C7.78077 5.10808 7.47944 5.63604 7.25935 6.02166L7.25878 6.02267C7.04191 6.40261 6.96662 6.56497 7.04109 6.77018C7.5894 8.12016 8.43559 9.22207 9.54776 10.0223C9.82355 10.2218 9.88739 10.6067 9.69016 10.8852C9.57068 11.0534 9.38245 11.144 9.19095 11.144C9.06738 11.144 8.94217 11.1069 8.83414 11.0286C7.53048 10.0899 6.54188 8.80752 5.89537 7.21441C5.61139 6.42733 5.94856 5.83723 6.19489 5.40619C6.37984 5.08312 6.48214 4.89027 6.43877 4.68423C6.32419 4.3867 5.12692 2.79359 4.6449 2.32052C4.49595 2.173 4.35601 2.08646 4.25208 2.07822C3.70049 2.05267 2.46803 3.23205 2.19633 3.68534ZM11.5873 10.8227C12.0455 10.5326 12.6741 10.1379 13.472 10.3035C14.098 10.4337 16.0703 12.0681 16.4468 12.4571C16.8011 12.8213 16.9983 13.2103 17.0319 13.6142C17.0851 15.1315 15.0653 16.7188 14.8346 16.8523C14.3935 17.1721 13.8771 17.3336 13.2968 17.3336C12.7191 17.3336 12.0775 17.1737 11.3827 16.849C8.70987 15.7298 4.66793 12.106 2.39613 8.78047C2.20381 8.50025 2.27419 8.11537 2.55325 7.92087C2.83232 7.72966 3.21532 7.79807 3.40682 8.08075C5.52885 11.1854 9.40794 14.6831 11.877 15.7175C12.8762 16.1839 13.6201 16.2128 14.1725 15.8139C14.603 15.5501 15.8289 14.3246 15.8068 13.6867C15.7994 13.6117 15.7143 13.4708 15.5695 13.3208C15.0981 12.8345 13.517 11.6296 13.1864 11.5043C12.9228 11.4508 12.6544 11.6074 12.2411 11.8686L12.0284 12.0021C11.7378 12.1777 11.3598 12.0821 11.1863 11.7911C11.0111 11.4977 11.1052 11.1178 11.3958 10.9423L11.5873 10.8227ZM13.2173 7.20731C13.2746 7.50236 13.5316 7.70676 13.8188 7.70676C13.8581 7.70676 13.8982 7.70346 13.9375 7.69604C14.2706 7.63093 14.4874 7.30539 14.4228 6.97078C14.0905 5.25652 12.7762 3.93291 11.074 3.59913C10.7458 3.54226 10.4193 3.75324 10.3538 4.08785C10.2892 4.42247 10.5069 4.74801 10.8391 4.81312C12.0479 5.04965 12.9816 5.9892 13.2173 7.20731Z" fill="white"/>
</svg>
