<svg width="18" height="18" viewBox="0 0 18 18" fill="none" xmlns="http://www.w3.org/2000/svg">
<path fill-rule="evenodd" clip-rule="evenodd" d="M2.24246 3.65514C2.4797 3.26156 3.78764 1.83282 4.71967 1.87596C4.99852 1.89983 5.245 2.06774 5.44528 2.26337H5.44605C5.90513 2.71317 7.22231 4.41071 7.29626 4.76808C7.47881 5.64458 6.43354 6.14984 6.75321 7.03326C7.56816 9.02733 8.97238 10.4314 10.9674 11.2455C11.8501 11.5659 12.3554 10.5215 13.232 10.7033C13.5894 10.778 15.2879 12.0943 15.737 12.5541V12.5541C15.9318 12.7536 16.1013 13.0008 16.1244 13.2796C16.1591 14.2617 14.6416 15.5872 14.3458 15.7566C13.648 16.2565 12.7375 16.2473 11.6275 15.7312C8.53024 14.4427 3.58043 9.5865 2.26788 6.37243C1.76566 5.26872 1.73176 4.35217 2.24246 3.65514Z" stroke="#FFCA5D" stroke-width="1.5" stroke-linecap="round" stroke-linejoin="round"/>
<path d="M10.9238 2.0625C13.7003 2.37075 15.8926 4.56075 16.2046 7.3365" stroke="#FFCA5D" stroke-width="1.5" stroke-linecap="round" stroke-linejoin="round"/>
<path d="M10.9238 4.71975C12.2513 4.9785 13.2886 6.01575 13.5473 7.34325" stroke="#FFCA5D" stroke-width="1.5" stroke-linecap="round" stroke-linejoin="round"/>
</svg>
