<svg width="38" height="38" viewBox="0 0 38 38" fill="none" xmlns="http://www.w3.org/2000/svg">
<path fill-rule="evenodd" clip-rule="evenodd" d="M27.9262 10.0628C27.7964 10.0628 27.6776 9.98689 27.5652 9.75122C27.1155 8.79748 26.5645 7.63179 26.2336 6.98015C25.5084 5.55349 24.2639 4.76107 22.717 4.75H15.2722C13.7364 4.76107 12.4903 5.55349 11.7651 6.98173C11.4437 7.61439 10.9133 8.73737 10.4715 9.6753L10.3781 9.87143C10.3227 9.98847 10.2055 10.0628 10.0741 10.0628C6.2646 10.0628 3.16602 13.1581 3.16602 16.962V26.3508C3.16602 30.1547 6.2646 33.25 10.0741 33.25H11.2537C11.9092 33.25 12.4412 32.7186 12.4412 32.0638C12.4412 31.4089 11.9092 30.8775 11.2537 30.8775H10.0741C7.57402 30.8775 5.54102 28.8466 5.54102 26.3508V16.962C5.54102 14.4662 7.57402 12.4353 10.0741 12.4353C11.1175 12.4353 12.0802 11.8264 12.5251 10.8853L12.6185 10.6876C13.0508 9.7702 13.5701 8.67253 13.8836 8.0541C14.2082 7.4151 14.6436 7.12724 15.2833 7.1225H22.7075C23.3567 7.12724 23.7905 7.4151 24.1151 8.05251C24.4381 8.69151 24.978 9.83189 25.4752 10.8853C25.9201 11.8264 26.8828 12.4353 27.9262 12.4353C30.4247 12.4353 32.4577 14.4662 32.4577 16.962V26.3508C32.4577 28.8466 30.4247 30.8775 27.9262 30.8775H16.751C16.0955 30.8775 15.5635 31.4089 15.5635 32.0638C15.5635 32.7186 16.0955 33.25 16.751 33.25H27.9262C31.7341 33.25 34.8327 30.1547 34.8327 26.3508V16.962C34.8327 13.1581 31.7341 10.0628 27.9262 10.0628ZM19.0006 27.3189C20.6647 27.3189 22.2322 26.6641 23.4149 25.4747C24.5914 24.2916 25.2342 22.7353 25.2199 21.1014C25.2215 19.4438 24.5724 17.8796 23.3928 16.7012C22.2148 15.5245 20.6552 14.8776 19.0006 14.8776H18.9974C18.5414 14.8776 18.0854 14.9266 17.6437 15.0278C17.004 15.1686 16.6003 15.8044 16.7444 16.4434C16.8869 17.0808 17.5202 17.4889 18.1614 17.3402C18.4354 17.2801 18.7156 17.2501 18.999 17.2501H19.0006C20.0219 17.2501 20.9845 17.6518 21.7129 18.3794C22.4444 19.1101 22.8465 20.0749 22.8449 21.1093C22.8529 22.1153 22.457 23.0706 21.7303 23.8029C20.9972 24.5399 20.0266 24.9464 19.0006 24.9464H18.9974C17.9714 24.9449 17.0072 24.5431 16.2804 23.814C15.5521 23.0848 15.1531 22.1184 15.1547 21.0903C15.1547 20.6965 15.2164 20.3058 15.3368 19.931C15.5347 19.3078 15.1895 18.6403 14.5641 18.441C13.9355 18.2449 13.2705 18.5866 13.0726 19.2113C12.8794 19.8203 12.7797 20.4498 12.7797 21.0888C12.7765 22.7463 13.4225 24.3106 14.5974 25.4889C15.7722 26.6673 17.3334 27.3173 18.9943 27.3189H19.0006ZM28.4678 17.0242C28.357 17.1349 28.2303 17.2298 28.0878 17.2931C27.9453 17.3563 27.787 17.3737 27.6287 17.3737C27.3278 17.3737 27.027 17.2614 26.7895 17.0242C26.5678 16.8028 26.4412 16.5022 26.4412 16.1875C26.4412 16.0436 26.4728 15.8854 26.5362 15.7446C26.5995 15.6023 26.6945 15.4599 26.7895 15.3492C26.9003 15.2527 27.0428 15.1578 27.1853 15.0946C27.4703 14.9838 27.8028 14.9838 28.0878 15.0946C28.2303 15.1578 28.3728 15.2527 28.4678 15.3492C28.5787 15.4599 28.6737 15.6023 28.737 15.7446C28.8003 15.8854 28.832 16.0436 28.832 16.1875C28.832 16.5022 28.7053 16.8028 28.4678 17.0242Z" fill="white"/>
</svg>
