<svg id="Layer_1" data-name="Layer 1" xmlns="http://www.w3.org/2000/svg" viewBox="0 0 87.75 72.32">
    <defs>
        <style>
            .cls-1{fill:#f7f9fa;}.cls-2{fill:#87a7d7;}.cls-3{fill:#334362;}.cls-4{fill:#cfe7ff;}.cls-5{fill:none;stroke:#e2e6e8;stroke-miterlimit:10;stroke-width:0.3px;}.cls-6{fill:#e2e6e8;}
        </style>
    </defs>
    <path fill="#fff" xxx="0000"/>
    <title>05c79ee812c45a7535f749cf5e49e94e</title>
    <rect class="cls-1" width="87.75" height="72.32" />
    <path class="cls-2"
        d="M26.82,33.38a3,3,0,0,1,2.68-2.79H56.72l-1.4,20.57s-.53,2.36-1.71,2.47-22.18,0-22.18,0Z" />
    <path class="cls-3"
        d="M37.22,35s-.06-2.14,1.39-2h2.62s2.31-1.28,0-2.83h-4s-1.24-.22-1.4-1,.81-1.39,1.29-1.34h8.57A1.44,1.44,0,0,0,47.07,26c-.19-1.18-1.62-1.27-2.37-1.23a1.56,1.56,0,0,1-1.07-.44,2.17,2.17,0,0,1,.43-3.23,1.7,1.7,0,0,1,1-.19H64s3.59.3,3.06,3.53c-.46,2.78-3.59,2.74-3.59,2.74l-3.94,0a1.29,1.29,0,0,0-1,1.55c.09,1.29,1.66,1.05,1.66,1.05h7.59a1.92,1.92,0,0,1,1.54,2.29c-.19,2.06-1.77,2.06-1.77,2.06l-2.83-.08a1.28,1.28,0,0,0,.32,2.52h1.07s1,0,.94,1.49c-.07,1.32-1.72,1.27-1.72,1.27l-8.09,0a1.33,1.33,0,0,0-1.1,1.26,1.19,1.19,0,0,0,1.08,1.22h.54a1.45,1.45,0,0,1,1.47,1.47v0A1.27,1.27,0,0,1,58,44.63H38.72a1.47,1.47,0,0,1-1.46-1.46Z" />
    <path class="cls-4"
        d="M32.77,33.86H51.36s2.3.11,2.36,3l1,15a2.29,2.29,0,0,1-2.19,2.46H28.16a3.06,3.06,0,0,1-2.94-2.73L23.56,35.2a2.32,2.32,0,0,1,2.14-2.79H30a2.81,2.81,0,0,1,1.45.65A4,4,0,0,0,32.77,33.86Z" />
    <circle class="cls-1" cx="49.89" cy="23.56" r="0.26" />
    <circle class="cls-1" cx="55.26" cy="25.96" r="0.26" />
    <circle class="cls-1" cx="61.99" cy="22.6" r="0.26" />
    <circle class="cls-1" cx="54.23" cy="29.65" r="0.26" />
    <circle class="cls-1" cx="55.78" cy="35.31" r="0.26" />
    <circle class="cls-1" cx="49.89" cy="32" r="0.26" />
    <circle class="cls-1" cx="60.6" cy="37.06" r="0.26" />
    <circle class="cls-1" cx="43.47" cy="29.91" r="0.26" />
    <circle class="cls-1" cx="62.65" cy="31.74" r="0.26" />
    <circle class="cls-1" cx="66.89" cy="32.93" r="0.26" />
    <circle class="cls-1" cx="57.29" cy="43.11" r="0.26" />
    <circle class="cls-5" cx="24.41" cy="19.34" r="1.98" />
    <circle class="cls-5" cx="66.32" cy="52.34" r="1.4" />
    <rect class="cls-6" x="64.11" y="15.13" width="1.74" height="0.32" rx="0.15" />
    <rect class="cls-6" x="67.24" y="15.13" width="1.74" height="0.32" rx="0.15" />
    <rect class="cls-6" x="65.66" y="13.72" width="1.74" height="0.32" rx="0.15"
        transform="translate(79.93 -52.75) rotate(89.58)" />
    <rect class="cls-6" x="65.69" y="16.86" width="1.74" height="0.32" rx="0.15"
        transform="translate(83.09 -49.66) rotate(89.58)" />
    <rect class="cls-6" x="11.51" y="40.84" width="1.44" height="0.27" rx="0.13" />
    <rect class="cls-6" x="14.09" y="40.84" width="1.44" height="0.27" rx="0.13" />
    <rect class="cls-6" x="12.79" y="39.68" width="1.44" height="0.27" rx="0.13"
        transform="translate(53.22 26.01) rotate(89.58)" />
    <rect class="cls-6" x="12.81" y="42.26" width="1.44" height="0.27" rx="0.13"
        transform="translate(55.82 28.56) rotate(89.58)" />
    <rect class="cls-6" x="72.59" y="44.59" width="1.44" height="0.27" rx="0.13" />
    <rect class="cls-6" x="75.18" y="44.59" width="1.44" height="0.27" rx="0.13" />
    <rect class="cls-6" x="73.88" y="43.43" width="1.44" height="0.27" rx="0.13"
        transform="translate(117.61 -31.35) rotate(89.58)" />
    <rect class="cls-6" x="73.9" y="46.02" width="1.44" height="0.27" rx="0.13"
        transform="translate(120.22 -28.8) rotate(89.58)" />
    <circle class="cls-3" cx="33.84" cy="43.11" r="0.71" />
    <circle class="cls-3" cx="43.73" cy="43.11" r="0.71" />
    <path class="cls-3"
        d="M35.66,48a3.68,3.68,0,0,1,1.28-1.32,4,4,0,0,1,1.8-.62,3,3,0,0,1,1.89.5A3,3,0,0,1,41.8,48a8.88,8.88,0,0,0-1.52-.75,3.4,3.4,0,0,0-1.48-.19A10.39,10.39,0,0,0,35.66,48Z" />
</svg>