<svg id="Layer_1" data-name="Layer 1" xmlns="http://www.w3.org/2000/svg" viewBox="0 0 2350 2253"><title>download_manager</title><path d="M1737.8,2064.7c-.75,0-1.4-36.23-1.4-80.64s.65-80.64,1.4-80.64,1.45,36.18,1.45,80.64S1738.61,2064.7,1737.8,2064.7Z" fill="#263238"/><path d="M1769.41,2135.35c-.75,0-1.39-46.62-1.39-104.14s.64-104.14,1.39-104.14,1.45,46.61,1.45,104.14S1770.22,2135.35,1769.41,2135.35Z" fill="#263238"/><path d="M1168.75,1710.26v212.67h-64l138,183.41,129.5-179.68h-65.46v-216.4Z" fill="#92e3a9"/><path d="M1767.71,1165.42c-71.39-277.19-354-444-631.15-372.63A518.32,518.32,0,0,0,861,971.07,438.51,438.51,0,0,0,811.07,968c-238,0-431,193-431,431s193,431,431,431h938.47c183.65.07,332.58-148.75,332.65-332.39.06-176.69-138.06-322.57-314.48-332.16Z" fill="#92e3a9"/><path d="M917.36,1243.86a9.16,9.16,0,0,1-.43-2.85c0-2.15-.33-4.84-.54-8.12a38.9,38.9,0,0,0-.32-5.91c-.33-2.15-.54-4.46-.81-6.94-.7-5-1.13-10.75-2.53-16.88-.59-3.12-1.23-6.4-1.93-9.78s-1.78-6.78-2.69-10.38c-1.67-7.26-4.46-14.73-7.15-22.63A285.27,285.27,0,0,0,877,1112a289.75,289.75,0,0,0-33.6-42.63c-6-5.81-11.56-11.51-17.37-16.13-2.85-2.37-5.38-4.79-8.23-6.88l-8-5.92c-4.94-3.92-9.94-6.77-14.14-9.51l-5.91-3.77-5.38-2.79-7.09-4a9.64,9.64,0,0,1-2.42-1.56,14.65,14.65,0,0,1,2.63,1.07l7.42,3.55,5.38,2.64c1.88,1,3.87,2.25,6.07,3.54a160.53,160.53,0,0,1,14.52,9.25l8.12,5.81c2.85,2,5.37,4.51,8.44,6.82a230.86,230.86,0,0,1,17.69,16.13,253.6,253.6,0,0,1,58.22,92.21,229,229,0,0,1,7,22.9c.86,3.65,1.94,7.09,2.58,10.75s1.18,6.72,1.72,9.84a166.76,166.76,0,0,1,2.15,17.1c0,2.52.48,4.83.59,7s0,4.08,0,5.91v8.17a18.76,18.76,0,0,1,.06,2.37Z" fill="#263238"/><path d="M741,1160.53c-.38.37-6-5.38-16.13-12.85A178.54,178.54,0,0,0,633,1113.06c-12.74-1.08-20.7-.6-20.7-1.08a18.84,18.84,0,0,1,5.38-.75,111,111,0,0,1,15.26,0,161.67,161.67,0,0,1,93,34.94,112.13,112.13,0,0,1,11.35,10.22A23.93,23.93,0,0,1,741,1160.53Z" fill="#263238"/><path d="M938.43,1528.42a41.53,41.53,0,0,1-8.49,0c-5.38,0-13.45,0-23.23-.48-19.57-.7-46.61-2.31-76.39-5.38s-56.62-6.61-76-9.78c-9.68-1.56-17.47-2.91-22.85-4a48.43,48.43,0,0,1-8.33-1.94,62,62,0,0,1,8.49.86l23,3.12c19.36,2.64,46.18,6,75.91,8.93s56.72,4.84,76.24,6l23.12,1.4A61.37,61.37,0,0,1,938.43,1528.42Z" fill="#263238"/><path d="M1753.63,1162.79a15.19,15.19,0,0,1-3,.37l-8.65.59a108.76,108.76,0,0,0-13.6,1.13c-5.27.7-11.4,1-18,2.21l-10.43,1.66c-3.6.6-7.31,1.51-11.19,2.26-7.74,1.45-15.86,3.77-24.46,6a360.76,360.76,0,0,0-104.13,48.66c-7.26,5.11-14.25,9.84-20.33,14.89-3.11,2.47-6.18,4.73-8.92,7.1l-8,6.93c-5.37,4.3-9.41,8.71-13.28,12.37s-7,7-9.62,9.78l-6,6.24a13.05,13.05,0,0,1-2.26,2,14.38,14.38,0,0,1,1.83-2.42c1.45-1.77,3.34-3.92,5.38-6.61a91.27,91.27,0,0,1,9.35-10.11c4-3.76,7.91-8.33,13-12.74l7.91-7.1c2.74-2.47,5.8-4.78,8.87-7.31,6.07-5.37,13.06-10,20.32-15.21a348.06,348.06,0,0,1,105.37-49c8.66-2.2,16.88-4.46,24.68-5.81,3.92-.75,7.69-1.61,11.34-2.15l10.76-1.45c6.66-1.07,12.79-1.34,18.11-1.83a134.74,134.74,0,0,1,13.77-.64h8.65a11.43,11.43,0,0,1,2.48.11Z" fill="#263238"/><path d="M606.4,2019.38c-.76,0-1.4-38.87-1.4-86.77s.64-86.83,1.4-86.83,1.39,38.82,1.39,86.83S607.15,2019.38,606.4,2019.38Z" fill="#263238"/><path d="M641.66,2179.48c-.75,0-1.39-54.67-1.39-122.09s.64-122.1,1.39-122.1,1.4,54.63,1.4,122.1S642.36,2179.48,641.66,2179.48Z" fill="#263238"/><path d="M1099.34,1646.43c7.2-1.83,15.27-9.25,21.51-13.23q22.89-14.73,45.32-30.26c-53.77-15.59-99.19-27.91-152.85-43a182.06,182.06,0,0,0,5.91,64c5,16.62,14.41,34.3,31.19,38.71,15.21,4,30.69-4.41,44.14-12.69l3.71-2.31" fill="#e0e0e0"/><path d="M1049.23,1569.93c.49,0-1.07,5.37-1.18,14.57a66.38,66.38,0,0,0,8.44,33.38,87.73,87.73,0,0,0,21.94,26.88,81,81,0,0,0,12.74,6.94,9.26,9.26,0,0,1-4-.65,36.29,36.29,0,0,1-9.89-4.67,80.74,80.74,0,0,1-23.28-27.15,63,63,0,0,1-7.9-34.84,51.4,51.4,0,0,1,1.66-10.75A10.57,10.57,0,0,1,1049.23,1569.93Z" fill="#455a64"/><path d="M1079,1639.55a34.86,34.86,0,0,1-8.55-6.88,77,77,0,0,1-16.13-21.08,46.54,46.54,0,0,1-4.89-26,19.58,19.58,0,0,1,3.55-10.43c.43,0-1.19,4-1.56,10.75a50.57,50.57,0,0,0,5.37,24.63,96,96,0,0,0,15,21,55.58,55.58,0,0,1,7.26,8.07Z" fill="#92e3a9"/><path d="M1154.18,1610.41a90.09,90.09,0,0,1-18.93,11.77,91.82,91.82,0,0,1-20.21,9.36,85.93,85.93,0,0,1,18.92-11.83A90.13,90.13,0,0,1,1154.18,1610.41Z" fill="#92e3a9"/><path d="M1458.42,1510.57c.32.49-201.66,49.2-201.66,49.2l-29.68-69.52,13.6-21s85.38-19.3,154.84-58.6Z" fill="#ffbe9d"/><path d="M984.45,1312.51s-9.25-13.49-48.38-32.68c-32.53-16.13-116-29.25-149.84,36.07s-7.85,165.53,48.39,186.93,149.83,50.7,188.16,63.06,164.41,43.93,164.41,43.93l51.82-30.38,6.13-96.77s-71.45-73.38-132.25-93.65S984.45,1312.51,984.45,1312.51Z" fill="#263238"/><path d="M867.79,1266.92c.53-.8,57.31.81,98.76,16.45,15.59,5.86,30.86,12.15,30.86,12.15l22.9-65.26L1192,1173.05h190l61.83,122.47v6.19s74.24,1.23,106.39-13.6,132.31-58.17,158.28-66.83,142.25-25.27,168.22,45.48,7.58,144.57-35.86,171.56c-20.48,12.68-366.06,102.15-366.06,102.15l-81.67-129.89s-124.41,61.66-166.07,54.94S867.79,1266.92,867.79,1266.92Z" fill="#263238"/><path d="M1709.54,1265.47a24.69,24.69,0,0,1-3.49.86l-10,2.05c-8.71,1.82-21.24,4.73-36.51,9a656.65,656.65,0,0,0-115,45.64c-43.33,21.51-80.64,44.62-108,61.13l-32.26,19.68-8.82,5.37a22.28,22.28,0,0,1-3.17,1.67,16.88,16.88,0,0,1,2.9-2.15l8.5-5.7c7.42-4.89,18.17-11.94,31.61-20.43,26.88-17,64.51-40.16,107.79-62a613.38,613.38,0,0,1,115.75-45c15.43-4.09,28.07-6.67,36.83-8.12,4.35-.86,7.8-1.24,10.11-1.56A15.34,15.34,0,0,1,1709.54,1265.47Z" fill="#455a64"/><path d="M881.12,1300.85a18.72,18.72,0,0,1,4.79-3.07,100.43,100.43,0,0,1,14.08-6.13,113,113,0,0,1,50.32-5.37A139.71,139.71,0,0,1,999,1300.15a66.28,66.28,0,0,1,12.69,8.71,18.82,18.82,0,0,1,3.92,4,159.81,159.81,0,0,0-17.52-11,152.84,152.84,0,0,0-48.39-12.8,119.67,119.67,0,0,0-49.3,4.3C888.32,1297.3,881.34,1301.33,881.12,1300.85Z" fill="#455a64"/><path d="M1245.09,1482.72a10.35,10.35,0,0,1-2.53-1.93l-6.88-5.86c-6-5.38-14.78-12.37-25.75-21.18-21.94-17.58-52.9-41.13-87-67.21l-24.84-19.08c-8.12-6-16.13-11.18-24.3-16.13-16.13-9.52-30.64-17.63-42.31-25.64a169.29,169.29,0,0,1-26-21.08,84.08,84.08,0,0,1-6.13-6.67,12.13,12.13,0,0,1-1.93-2.52s3.06,3.12,8.81,8.44a190.31,190.31,0,0,0,26.29,20.16c11.72,7.74,26.51,15.64,42.58,25.11,8,4.78,16.13,9.94,24.57,16.12s16.13,12.58,24.89,19.09c34.14,26.07,65,49.84,86.62,67.9,10.75,9,19.51,16.45,25.21,21.83,3,2.69,5.11,4.84,6.56,6.34a16.22,16.22,0,0,1,2.15,2.31Z" fill="#455a64"/><path d="M1353.31,1541l-32.25,75.27c11.88,10.75,57,17.63,73,16.82s38.92-.64,54.78-2.42a347.61,347.61,0,0,1,60.7.43,268.63,268.63,0,0,0,60.65-1.12,98,98,0,0,0,53.76-25.7,55.75,55.75,0,0,0-16.61-93.71,98.67,98.67,0,0,0-51.46-7,284.92,284.92,0,0,0-51.18,11.61c-17.9,5.38-36.23,10.75-54.83,9.14-3.77-.32-7.53,0-11.24-.86-24.3-4.52-49.62-4.73-71.5,9C1362.77,1535.14,1357.88,1537.56,1353.31,1541Z" fill="#e0e0e0"/><path d="M1358,1549.39a19.61,19.61,0,0,1,2.85-2.69,67.36,67.36,0,0,1,49.3-15c8.71.86,18.06,2.63,28.17,4.14a126.79,126.79,0,0,0,32.26,1.56,193.38,193.38,0,0,0,34.84-8,175.55,175.55,0,0,1,38.06-8.07,107.48,107.48,0,0,1,38.82,3.34,91.73,91.73,0,0,1,17.31,7,51.23,51.23,0,0,1,14.3,10.76,65,65,0,0,1,15.43,29.08,35.18,35.18,0,0,1,.48,15.11,40.48,40.48,0,0,1-5.37,13,53.08,53.08,0,0,1-16.72,16.66,94.48,94.48,0,0,1-15.86,8.12c-4.52,1.88-8.07,3.12-10.49,4a17,17,0,0,1-3.76,1.07,24.62,24.62,0,0,1,3.55-1.61c2.36-1,5.86-2.42,10.27-4.41a107.73,107.73,0,0,0,15.42-8.44,51.33,51.33,0,0,0,15.86-16.4,33.84,33.84,0,0,0,4.14-26.55,63.57,63.57,0,0,0-15-27.8,65.91,65.91,0,0,0-30.48-17,106.63,106.63,0,0,0-37.64-3.23c-26.23,1.94-49.51,13.93-72.84,16.13a127.44,127.44,0,0,1-32.8-1.83c-10.11-1.66-19.41-3.54-28-4.51a69,69,0,0,0-39.35,7.63,141.42,141.42,0,0,0-12.69,8.12Z" fill="#455a64"/><path d="M1396.11,1521.49c.7.32,0,3.06-.92,6.29s-2.25,5.8-3,5.37-.75-3.11.33-6.5S1395.41,1521.16,1396.11,1521.49Z" fill="#455a64"/><path d="M1425.62,1520.9c.7.26.33,3.44-.86,7.09s-2.79,6.45-3.49,6.19-.38-3.39.8-7S1424.87,1520.68,1425.62,1520.9Z" fill="#455a64"/><path d="M1453.31,1524.39c.75,0,.48,3.39-.59,7.1s-2.58,6.56-3.28,6.34-.48-3.39.59-7.15S1452.56,1524.18,1453.31,1524.39Z" fill="#455a64"/><path d="M1502.56,1532.4c-.81,0-1.89-3.23-2.48-7.42s-.43-7.69.33-7.79,1.88,3.22,2.47,7.42S1503.42,1532.29,1502.56,1532.4Z" fill="#455a64"/><path d="M1526.53,1508.91c.76,0,2,3,2.75,7s.75,7.42,0,7.53-2-3-2.75-7S1525.78,1509,1526.53,1508.91Z" fill="#455a64"/><path d="M1557.5,1503.21c.75,0,.43,4.57-.64,9.84s-2.69,9.46-3.44,9.3-.43-4.57.69-9.84S1556.75,1503.05,1557.5,1503.21Z" fill="#455a64"/><path d="M1584.06,1504c.7.32-1.18,5.38-4.25,10.75s-6.07,10-6.72,9.63a25.94,25.94,0,0,1,4.25-10.76C1580.35,1507.94,1583.2,1503.64,1584.06,1504Z" fill="#455a64"/><path d="M1611.1,1511.06c.65.43-1.83,5.37-5.37,11.07s-7.26,10-7.91,9.57,1.83-5.37,5.38-11.07S1610.46,1510.63,1611.1,1511.06Z" fill="#455a64"/><path d="M1640.67,1548.15c.65.43-1.77,4.79-5.86,9.3s-8.17,7.32-8.65,6.78,2.63-4.25,6.61-8.66S1640,1547.67,1640.67,1548.15Z" fill="#455a64"/><path d="M1638.9,1579.82c.59.43-.76,3.06-3.93,4.46s-6.07.65-6,0,2.32-1.34,4.84-2.47S1638.31,1579.28,1638.9,1579.82Z" fill="#455a64"/><path d="M1523.15,1534.28a46,46,0,0,1-11.94,5.65,154,154,0,0,1-63,9.46,47.8,47.8,0,0,1-13.07-1.88,350.1,350.1,0,0,0,44.62-2.31,341.84,341.84,0,0,0,43.34-10.92Z" fill="#92e3a9"/><path d="M1509.81,1621.43a155,155,0,0,1-29.51,3.44,160,160,0,0,1-29.68.65,155.09,155.09,0,0,1,29.52-3.44A159.86,159.86,0,0,1,1509.81,1621.43Z" fill="#92e3a9"/><path d="M1581.16,1623.53a47.45,47.45,0,0,0,18.92-7,41.63,41.63,0,0,0,14.09-16.4,43,43,0,0,0,2.9-26,48.32,48.32,0,0,0-11.94-23.6,56.12,56.12,0,0,0-17.74-12.69,100.37,100.37,0,0,0-19.67-5.75,15.72,15.72,0,0,1,5.64,0,56,56,0,0,1,14.79,3.82,54.87,54.87,0,0,1,18.87,12.74,49.49,49.49,0,0,1,12.79,24.84,44.29,44.29,0,0,1-3.33,27.68,42.41,42.41,0,0,1-15.32,16.94,37.69,37.69,0,0,1-14.41,5.37,15,15,0,0,1-5.59.06Z" fill="#92e3a9"/><path d="M1241.06,1491.38l139.78,62.1a110.75,110.75,0,0,1-8.6,52c-10.22,21-41.24,16.78-41.24,16.78l-123-28.6,27.42-16.13Z" fill="#ffbe9d"/><path d="M1366,1616.48a85.14,85.14,0,0,1-15-13.44,28.81,28.81,0,0,1-7.1-18.44,38.49,38.49,0,0,1,6-17.15,29.85,29.85,0,0,1,13.93-14.3c7.74-2.9,16.12.43,23.71,4.14l1.45,31.18Z" fill="#e0e0e0"/><path d="M1540.19,989.78a10.19,10.19,0,0,0,10.74-9.61h0v-.11c1.56-44.19-27.58-144.3-41.56-185.86-8.54-25.37-37.63-43.92-57.63-57.58-24.41-16.5-110.7-36.72-139.14-44.57H1303l-132.21-9.83L1098.21,717s-100.69,38.17-129.89,91.4-51.39,208.75-51.39,208.75-13.39,44.47,0,64.52c8.33,12.53,39.35,23.39,67.25,28.71-15.1,50.32-3.17,87.68-3.71,94.08-1.13,13.23-11.29,44,12.53,42.15s210-51.07,265.37-53.28a260.89,260.89,0,0,1,134.08,32.91c27.9,15.64,27.69,16.77,37.63-10.76s-21.82-58.54-21.82-58.54,28.49-103,41.77-170.27Z" fill="#455a64"/><path d="M1438,812a41.36,41.36,0,0,1,1.83,7.1c1.07,5.37,2.47,11.66,4.09,19.51,3.33,16.5,8.11,39.35,10.75,65a279.67,279.67,0,0,1-.32,66c-1.24,8.33-2.48,15-3.66,19.62a41.49,41.49,0,0,1-2,7.09,36.73,36.73,0,0,1,.91-7.31c.86-4.57,1.83-11.34,2.75-19.67a310.42,310.42,0,0,0-.49-65.43c-2.85-25.43-7.31-48.39-10.1-64.89-1.46-8.28-2.59-15.06-3.23-19.68A31.7,31.7,0,0,1,1438,812Z" fill="#263238"/><path d="M1096.71,948.6a28.92,28.92,0,0,1-.38,6.23c-.43,4-1.13,9.68-2,16.72-1.88,14.14-4.73,33.66-8.66,55.06a481.07,481.07,0,0,1-12.69,54.3,146.72,146.72,0,0,1-5.8,15.86,26.92,26.92,0,0,1-3,5.37c-.43,0,3.33-8.17,6.88-21.93s7.9-32.9,11.83-54.25,7-40.75,9.46-54.78q1.67-9.84,2.9-16.61a26.42,26.42,0,0,1,1.46-6Z" fill="#263238"/><path d="M1500.08,511.4a77,77,0,0,0-20.26-60.4,65,65,0,0,0-60.11-18.49A78.22,78.22,0,0,0,1378.8,454a41.22,41.22,0,0,0-8.28,11.88c-.38.65-.7,1.35-1.08,2a28.08,28.08,0,0,0-1.18,2.69V471a78.52,78.52,0,0,0-4.73,48.39,74,74,0,0,0,48.38,53.17,68.85,68.85,0,0,0,69.14-17.85,73.49,73.49,0,0,0,19-43.39Z" fill="#263238"/><path d="M1411.43,481.73c-.81-.49,5.64-10.75,10.75-24.52a115.62,115.62,0,0,0,5.65-26,17.3,17.3,0,0,1,1,8,59.78,59.78,0,0,1-4,19,71.59,71.59,0,0,1-13.39,23.55Z" fill="#92e3a9"/><path d="M1412.24,463a121.42,121.42,0,0,0-107.53-125.81,117.91,117.91,0,0,0-130.24,104.13v0c-.16,1.43-.29,2.86-.4,4.29L1163.32,711a23,23,0,0,0,4.35,14.36,108.12,108.12,0,0,0,69.89,43,113.28,113.28,0,0,0,69.62-15.81A22.6,22.6,0,0,0,1318.26,733V673.82a.38.38,0,0,1,.38-.38h0a81,81,0,0,0,16.61-.75c15.64-4.14,55.37-20.27,67.68-79.24C1406.54,573.45,1410,518.07,1412.24,463Z" fill="#ffbe9d"/><path d="M1326.7,551.3a71.37,71.37,0,0,1,17.15-2.15c2.69,0,5.38-.54,5.81-2.32a13.6,13.6,0,0,0-1.45-7.85c-2.21-6.5-4.57-13.33-7-20.43-9.68-29.08-16.56-52.9-15.38-53.27s10,22.9,19.68,51.93c2.31,7.2,4.57,14,6.66,20.54a15,15,0,0,1,.92,10.37,6.76,6.76,0,0,1-4.57,3.66,18,18,0,0,1-4.57.38,70.78,70.78,0,0,1-17.26-.86Z" fill="#263238"/><path d="M1386.7,502.59a9.67,9.67,0,0,1-9.84,9.19,9.33,9.33,0,0,1-6.73-2.55,9.43,9.43,0,0,1-2.11-3,9.23,9.23,0,0,1-.78-3.59,9.58,9.58,0,0,1,9.84-9.19,9.32,9.32,0,0,1,9.62,9v.15Z" fill="#263238"/><path d="M1396.38,473.39c-1,1-8.77.54-18.66,3.88s-16.45,8.54-17.74,8.28,0-1.73,3.06-4.09a45.42,45.42,0,0,1,14-7.46,39.81,39.81,0,0,1,15.11-2.26C1395.46,472.05,1396.86,472.86,1396.38,473.39Z" fill="#263238"/><path d="M1285.84,496a9.69,9.69,0,0,1-9.84,9.2,9.47,9.47,0,0,1-3.61-.62,9.33,9.33,0,0,1-6-8.52,9.63,9.63,0,0,1,9.84-9.2,9.31,9.31,0,0,1,9.62,9V496Z" fill="#263238"/><path d="M1289.28,482c-1.56,0-7.26-6.13-17.47-10.76s-19.14-5.8-19.89-7,1.45-1.13,5.37-.76a49.83,49.83,0,0,1,16.13,4.84,43.56,43.56,0,0,1,13.44,9.52C1289.55,480.33,1290,481.94,1289.28,482Z" fill="#263238"/><path d="M1317.78,673.07s-40.59,1.18-89.84-31.29c0,0,13.55,53.38,89.84,50.26Z" fill="#eb996e"/><path d="M1295.57,556.83c1.67,0,1.19,11.19,10.75,19.63s21.51,7.79,21.51,9.35c0,.7-2.8,2-7.9,1.94a29,29,0,0,1-18-7.21,24.53,24.53,0,0,1-8.18-16.13C1293.37,559.47,1294.77,556.73,1295.57,556.83Z" fill="#263238"/><path d="M1296.32,440.38c-1.45,2.58-11.55-.48-23.92-1.18s-22.74.91-23.92-1.88c-.49-1.29,1.61-3.6,6-5.38A40.21,40.21,0,0,1,1273,429a39.57,39.57,0,0,1,18,5.37C1295.14,436.51,1297,439.15,1296.32,440.38Z" fill="#263238"/><path d="M1396.16,441.89c-1.93,2.26-9-.54-17.69-1.07s-16.13.75-17.68-1.78c-.7-1.24.59-3.55,3.87-5.38A26.31,26.31,0,0,1,1393.2,436C1396.16,438.45,1397,440.92,1396.16,441.89Z" fill="#263238"/><path d="M1313.53,323.61c-5.38-9.19-16.13-13.22-27.31-14.78-46.56-6.13-97.85,22.79-123.12,62.36s-25.59,98.12-5.75,140.59l17.47,2.74c36.24-2.85,95.38-105,145.16-161.82C1326.16,345.71,1318.47,331.79,1313.53,323.61Z" fill="#263238"/><path d="M1403,352.59c-19.79-21.5-51.88-48.06-91.88-32.26-5.75,11.4,6.5,25.86,16.61,34.2,14.89,12.31,27.85,20.53,37.64,29.3,19.73,17.79,44.35,47.36,46.88,80.64,0,2.1,1.77,2.37,3.87,2s8.65-14.14,11.56-32.26C1433.69,395.71,1422.83,374.31,1403,352.59Z" fill="#263238"/><path d="M1177.67,453.83a58.37,58.37,0,0,0-12.26-24.14h0A56.07,56.07,0,0,0,1151.87,418a65,65,0,0,0-62.91-.91,76.81,76.81,0,0,0-37.63,51.18,73.6,73.6,0,0,0,4.68,47.25,68.7,68.7,0,0,0,60.43,38A74,74,0,0,0,1179,517.91C1187.89,502.75,1185.36,476,1177.67,453.83Z" fill="#263238"/><path d="M1186,493.18c-1.07-.54-44.3-16.72-46.18,28.44s43.87,37.63,44,36.45S1186,493.18,1186,493.18Z" fill="#ffbe9d"/><path d="M1170.68,540.38a12.36,12.36,0,0,1-2.15,1.08,8,8,0,0,1-5.91,0c-4.68-2-8.39-9.73-8.28-17.85a25.39,25.39,0,0,1,2.69-11.18,9,9,0,0,1,2.37-3.67,9.25,9.25,0,0,1,3.81-2.14,4,4,0,0,1,2.69.36,4.14,4.14,0,0,1,1.83,2c.59,1.29.26,2.16.48,2.26s1-.7.7-2.58a4.59,4.59,0,0,0-1.67-2.9,5.89,5.89,0,0,0-4.3-1.34,11,11,0,0,0-5.11,2.23,11.16,11.16,0,0,0-3.38,4.43,26.88,26.88,0,0,0-3.23,12.47c0,9.09,4.19,17.8,10.75,20a8.47,8.47,0,0,0,7.26-.91C1170.58,541.46,1170.84,540.49,1170.68,540.38Z" fill="#eb996e"/><path d="M1286.22,309a17.31,17.31,0,0,1,9.08.65,39.16,39.16,0,0,1,18.55,11.66,34.58,34.58,0,0,1,3.76,5.38,26.68,26.68,0,0,1,2.26,5.37,62.09,62.09,0,0,1,2.53,9.47,14,14,0,0,1-.65,9.08c-.48,0,0-3.49-1.29-8.65a79.45,79.45,0,0,0-3.06-9,26.64,26.64,0,0,0-2.15-5,31.87,31.87,0,0,0-3.5-4.68,42.9,42.9,0,0,0-17-11.66C1289.66,309.74,1286.22,309.47,1286.22,309Z" fill="#455a64"/><path d="M1167,489.25c-.43,0,.91-4.67,1.88-12.09a80,80,0,0,0-1.67-29,60.54,60.54,0,0,0-13.65-25.32c-5.38-5.38-9.14-8-8.82-8.5s1.13.38,3,1.51a40.63,40.63,0,0,1,7.2,5.37,55.85,55.85,0,0,1,15,26,68.92,68.92,0,0,1,.91,29.94,34.32,34.32,0,0,1-3.81,12Z" fill="#92e3a9"/><path d="M1259.71,1092a11.3,11.3,0,0,1-10.72-11.85,11.08,11.08,0,0,1,.88-3.85c14.52-32.68,54.14-95.59,56.72-99.67,3.77-5.7,5.76-12.74,17.8-14.2,4.62-.53,77.2-2.2,94.24-2.58a10.7,10.7,0,0,1,4,.65,10.46,10.46,0,0,1,3.48,2.15c3.39,3.23,6.94,9.35,1.56,19-6,10.75-49.89,78.87-67.69,105.1a18.31,18.31,0,0,1-15.75,8Z" fill="#263238"/><path d="M1371.7,983.27a5.41,5.41,0,0,0-5.81-1.61,12,12,0,0,0-5.1,3.28,4.49,4.49,0,0,0-1.08,5.7,5.35,5.35,0,0,0,2.23,1.46,5.46,5.46,0,0,0,2.66.21,9.38,9.38,0,0,0,6.08-2.74,5.72,5.72,0,0,0,1-6.3Z" fill="#fff"/><path d="M1409,998.06a33.61,33.61,0,0,1,2.85-6.29c1.08-2.1,2.26-4.52,3.66-7.15.75-1.4,1.5-2.9,2.31-4.46a10.93,10.93,0,0,0,1.83-4.79,5.53,5.53,0,0,0-.55-2.53,5.36,5.36,0,0,0-1.66-2,7.52,7.52,0,0,0-5.7-1l-14.84.59-33.9,1.23-34,1h-3.76a5.37,5.37,0,0,0-2.8,1.08,30.58,30.58,0,0,0-3.87,5.38c-2.47,3.87-4.78,7.52-7,10.75l-10.21,15.64a32.35,32.35,0,0,1-4.09,5.38,31.51,31.51,0,0,1,3.17-6.13l9.47-16.13,6.66-11.07,1.83-3a11.58,11.58,0,0,1,2.47-3.18,7.56,7.56,0,0,1,4.09-1.72h4l33.81-.91,34-1,14.79-.32a9.82,9.82,0,0,1,7.15,1.56,7.69,7.69,0,0,1,2.85,6.29,7.09,7.09,0,0,1-.92,3.17l-1.34,2.42-2.53,4.35c-1.5,2.58-2.85,4.9-4.08,6.94A31.1,31.1,0,0,1,1409,998Z" fill="#455a64"/><path d="M1530.51,989.89s-7.36,51.18-14.89,84.08c-6.72,29.3-17.42,128.33-44.62,140.8s-61.13,4.68-73.66-19.46-26-88.38-26-88.38l-57-24s-13.12-47.79-5.65-53.17,81,2.69,81,2.69l19.73-4.47s-31.39-4.51-38.11-6.29a11.06,11.06,0,0,1-4.31-1.55,11.37,11.37,0,0,1-5.26-11.89c1.56-6.29,2.85-12.58,19.84-12.58s43.65-2.52,48.38-.86c6,2,12.8,5.38,14.14,20.59s-5.81,43-5.81,43l1.56,2.37,10.15-74Z" fill="#ffbe9d"/><path d="M1434.82,1078.27a14.6,14.6,0,0,1-4.63,1.83,115.55,115.55,0,0,1-13.06,3.55,162.31,162.31,0,0,1-44.46,3.39,148.57,148.57,0,0,1-43.6-9.52,102.76,102.76,0,0,1-12.37-5.38,17.43,17.43,0,0,1-4.25-2.58c0-.43,6.56,2.58,17.31,6.24a173.28,173.28,0,0,0,43,8.55,188.27,188.27,0,0,0,43.77-2.69C1427.93,1079.72,1434.71,1077.84,1434.82,1078.27Z" fill="#eb996e"/><path d="M1424,1057.74a16.35,16.35,0,0,1-4.62,1.45c-3,.75-7.42,1.72-12.91,2.63a168.88,168.88,0,0,1-43.54,1.61,116.74,116.74,0,0,1-41.83-12.15,80.51,80.51,0,0,1-11.24-7c-2.47-1.88-3.76-3.06-3.65-3.22s5.8,3.76,15.75,8.44a130.29,130.29,0,0,0,41.29,11.13,195.67,195.67,0,0,0,43-.81C1417.18,1058.54,1424,1057.3,1424,1057.74Z" fill="#eb996e"/><path d="M1441.81,1004.89c.32,0,1.34,2.52,1.07,6.88a16.52,16.52,0,0,1-2.1,7.58,9.51,9.51,0,0,1-3.65,3.33,24,24,0,0,1-4.52,2,63.4,63.4,0,0,1-16.4,2.8,56,56,0,0,1-6.72.53c0-.37,2.26-1.72,6.46-2.47a121.68,121.68,0,0,0,15.8-3.49,14.29,14.29,0,0,0,6.88-4.09,17.24,17.24,0,0,0,2.32-6.4A49.87,49.87,0,0,1,1441.81,1004.89Z" fill="#eb996e"/><path d="M1414.71,1091a10.75,10.75,0,0,1,0,9.3,19.89,19.89,0,0,1-5.71,8.7,23.22,23.22,0,0,1-11.51,5.38,29.68,29.68,0,0,1-12.58-.54,46.38,46.38,0,0,1-9.35-3.82,40.36,40.36,0,0,1-8-4.57,23.53,23.53,0,0,1,8.76,2.74,35.43,35.43,0,0,0,20.65,3.44,22.37,22.37,0,0,0,10.32-4.51,20,20,0,0,0,5.38-7.37,32.24,32.24,0,0,0,2-8.71Z" fill="#eb996e"/><path d="M1438.42,999.73s.37,0,1,.59a9.59,9.59,0,0,1,2.26,2.69,28.29,28.29,0,0,1,3.22,12.41,151.69,151.69,0,0,1-5.37,43.44v-.75a134.21,134.21,0,0,0,10.16,21.18,234.13,234.13,0,0,0,18.49,26.88,121.31,121.31,0,0,1,16.13,21.89,24.91,24.91,0,0,1,1.56,18.22,15.21,15.21,0,0,1-2.42,4.46c-.7.86-1.18,1.24-1.24,1.19a36.53,36.53,0,0,0,2.58-6,24.53,24.53,0,0,0-2.25-17,134.61,134.61,0,0,0-16.13-21.13,217.49,217.49,0,0,1-18.93-26.88,133.78,133.78,0,0,1-10.26-21.51v-.8a172.13,172.13,0,0,0,6.12-42.75,31.25,31.25,0,0,0-2.31-12,38.83,38.83,0,0,0-2.63-4.08Z" fill="#eb996e"/><path d="M935.31,1095.37s-8.33,114.3,44.84,133.44c73.28,26.45,156.82-46.56,157.15-47.74s88.92-72.53,88.92-72.53l-27.58-76s-11.08,0-29,12.8c-6.5,4.62-109.19,58.76-109.19,58.76S1015.63,1103.76,935.31,1095.37Z" fill="#ffbe9d"/><path d="M1064.18,1102.41c.38.86-19,8.71-42.36,19.19-11.67,5.38-21.94,10.76-29.3,14.63a85.41,85.41,0,0,1-12,6.34,52.75,52.75,0,0,1,11-8.06,255,255,0,0,1,29.2-15.43c11.72-5.38,22.58-9.57,30.48-12.48a71.41,71.41,0,0,1,13-4.19Z" fill="#eb996e"/><path d="M1296.86,991.18s-13.87-19.63-19.35-19.57S1239,977,1239,977l-46.72,50.92s-3.22,16.5,6.88,22.47c0,0-3.38,26,9.09,33.44,0,0,9.3,24.41,18,24.89a62,62,0,0,0,11.07,0s-1.88,14.68,11.4,15.59a233.94,233.94,0,0,0,39.25-3.92,14.65,14.65,0,0,0,9.57-6l11.4-16.13a14.7,14.7,0,0,0,0-17.15h0a39,39,0,0,0,6.88-12,52.44,52.44,0,0,0,0-15.32s19.73-16.72,20.21-21.08-.48-8.55-9.19-8.06c0,0-1.83-13.5-12.85-13.17s-63.23,0-63.23,0l10-9.68s26,9.89,28.71,3.33Z" fill="#ffbe9d"/><path d="M1221.92,1049.67a56.09,56.09,0,0,1,8.49-.59c5.38-.32,13.34-.81,23.12-1.94a301.25,301.25,0,0,0,34.25-6.07c6.39-1.56,13.06-3.39,19.94-5.38a49.69,49.69,0,0,0,18.07-12l.32-.27h.38a11.66,11.66,0,0,1,7.63.75,6.44,6.44,0,0,1,2.69,3.5,12.66,12.66,0,0,1,.48,3.92,6.63,6.63,0,0,1,0,1.78,5.6,5.6,0,0,1-.8,2,26.28,26.28,0,0,1-2,2.68c-1.35,1.62-2.85,3.12-4.31,4.63-3,3-5.91,5.7-8.92,8.33a355,355,0,0,1-32.26,22.9,81.37,81.37,0,0,1-29.78,10.76,60,60,0,0,1-21-.54,35.85,35.85,0,0,1-5.37-1.56,5.75,5.75,0,0,1-1.78-.81,66.81,66.81,0,0,0,27.9,1.13,82.88,82.88,0,0,0,28.87-10.75c10.17-6.08,20.43-14.52,31.78-23.06,3-2.64,5.91-5.38,8.76-8.28,1.45-1.46,2.85-2.91,4.14-4.47a22.07,22.07,0,0,0,1.77-2.31c.54-.75.43-.86.43-.91a5.47,5.47,0,0,0,0-1.4c0-2.26-.37-4.25-1.82-5a9.13,9.13,0,0,0-5.7-.43l.75-.32a87,87,0,0,1-9,7.36,30.54,30.54,0,0,1-10.21,5.38c-6.94,2.15-13.71,3.92-20.22,5.38a265.41,265.41,0,0,1-34.57,5.37,227.19,227.19,0,0,1-23.33,1.13h-6.29A8.68,8.68,0,0,1,1221.92,1049.67Z" fill="#eb996e"/><path d="M1315.73,1053.65a24.32,24.32,0,0,1,1.13,8.17v6.83a7.4,7.4,0,0,1-.8,2.79,46.54,46.54,0,0,1-2.69,5.38l-1.62,2.69-.86,1.34a9.45,9.45,0,0,1-.53.86l-.38.33c-.27,0,0,.37-1.29,0a1.25,1.25,0,0,1-.48-1.51.61.61,0,0,1,0-.27l.27-.38,2.15,1.3a60.35,60.35,0,0,1-13.71,16.82,57.46,57.46,0,0,1-33.34,13.77,52.2,52.2,0,0,1-10.75-.33,12,12,0,0,1-3.92-.91c0-.54,5.7.43,14.73-.7a60.42,60.42,0,0,0,31.72-14,63.09,63.09,0,0,0,13.28-16.13l2.2,1.29a72.48,72.48,0,0,0,4.89-27.36Z" fill="#eb996e"/><path d="M1261.86,1002.09c0,.65-5.37-1.34-8-7.58a14,14,0,0,1-.43-8c.54-2,1.29-3.06,1.62-3s-.43,5,1.45,10S1262.4,1001.39,1261.86,1002.09Z" fill="#eb996e"/><path d="M1238.48,1109a8.31,8.31,0,0,1-4.14,1,22.54,22.54,0,0,1-11.4-2.15,23.91,23.91,0,0,1-11.88-12.53,26.88,26.88,0,0,1-1.94-10.1,4.5,4.5,0,0,0-1.77-3.6,21,21,0,0,1-9.41-17.37,69.56,69.56,0,0,1,.48-12.74l.6,1.18a19.56,19.56,0,0,1-9-17,10.75,10.75,0,0,1,2.1-7.1,54.85,54.85,0,0,0-.64,7,18.44,18.44,0,0,0,8.81,15l.65.38v.75a70.4,70.4,0,0,0,0,12.32,21.47,21.47,0,0,0,4.62,12,21.88,21.88,0,0,0,3.87,3.38,7.47,7.47,0,0,1,2,2.4,7.12,7.12,0,0,1,.79,3,25.54,25.54,0,0,0,1.56,9.36,22.54,22.54,0,0,0,10.38,11.72A31.64,31.64,0,0,0,1238.48,1109Z" fill="#eb996e"/></svg>