<svg width="16" height="16" viewBox="0 0 16 16" fill="none" xmlns="http://www.w3.org/2000/svg">
<path d="M7.66003 1.85938H5.16736C3.11736 1.85938 1.83203 3.31071 1.83203 5.36537V10.908C1.83203 12.9627 3.11136 14.414 5.16736 14.414H11.05C13.1067 14.414 14.386 12.9627 14.386 10.908V8.22271" stroke="#373737" stroke-width="1.5" stroke-linecap="round" stroke-linejoin="round"/>
<path fill-rule="evenodd" clip-rule="evenodd" d="M5.88444 7.28062L10.8664 2.29862C11.4871 1.67862 12.4931 1.67862 13.1138 2.29862L13.9251 3.10995C14.5458 3.73062 14.5458 4.73728 13.9251 5.35728L8.9191 10.3633C8.64777 10.6346 8.27977 10.7873 7.89577 10.7873H5.39844L5.4611 8.26728C5.47044 7.89662 5.62177 7.54328 5.88444 7.28062Z" stroke="#373737" stroke-width="1.5" stroke-linecap="round" stroke-linejoin="round"/>
<path d="M10.1094 3.06836L13.1534 6.11236" stroke="#373737" stroke-width="1.5" stroke-linecap="round" stroke-linejoin="round"/>
</svg>
