<svg id="Layer_1" data-name="Layer 1" xmlns="http://www.w3.org/2000/svg" viewBox="0 0 214.07 198.64"><defs><style>.cls-1{fill:#e0ecfe;}.cls-2{fill:#6c6da5;}.cls-3{fill:#ffac3e;}.cls-4{fill:#7374ab;}.cls-5{fill:#7578aa;}.cls-6{fill:#fcfcfc;}.cls-7{fill:#ccd3dd;}.cls-8{fill:#a5c8f2;}.cls-9{fill:#dce7fd;}.cls-10{fill:#dbe6f8;}.cls-11{fill:#d8e3f9;}.cls-12{fill:#7476ac;}.cls-13{fill:#7375a8;}.cls-14{fill:#7476a9;}.cls-15{fill:#7676ad;}.cls-16{fill:#7475ac;}.cls-17{fill:#6d6ca4;}.cls-18{fill:#6c6da4;}</style></defs><title>pngtree-writing-novel-book-story-blue-icon-on-abstract-cloud-backgrou-png-image_1652334</title><path class="cls-1" d="M197.26,84.49c-4.33,6.9-8.5,13.9-10.37,22a41.68,41.68,0,0,0-1,12.88c.68,8.45.78,17-2.49,25.07-4.25,10.43-12.06,16.71-23.24,18.54a108,108,0,0,0-16.21,3.66c-6.8,2.24-11.37,7.21-15.67,12.71-5.32,6.81-12.39,11.37-20.54,14.29-9.22,3.31-16.65.1-23.28-6.2-4.92-4.67-9.29-9.93-14.65-14.14-4.74-3.73-9.86-6.41-16.11-7-3.6-.37-7,.35-10.58.21-13.38-.53-24.27-6.08-32-16.74-5.77-7.92-6.11-16.48-.46-25.36,3.75-5.9,8.12-11.46,10.29-18.23a42.32,42.32,0,0,0,2.1-18c-1.19-10.3-.9-20.51,2.89-30.45,2.31-6,5.11-11.66,9.87-16.1,5.11-4.77,11.33-7.15,18.14-8.28,2.61-.43,5.24-.76,7.86-1h.14l.22,0,.95-.1.26,0,.45-.05c3.79-.51,12.14-2.13,18.48-7l.05,0c4.42-4.16,8.77-8.38,13.53-12.18,3.87-3.08,8-5.55,12.89-6.32,7.53-1.2,14.67-.3,20.35,5.55,3.2,3.31,6.23,6.79,9.55,10,7.14,6.85,15.86,10.48,25.49,12.33,5.11,1,10.38,1,15.37,2.79a32.48,32.48,0,0,1,13.6,9.36,34.05,34.05,0,0,1,7.46,14.4C202.62,69.13,201.91,77.07,197.26,84.49Z"/><path class="cls-1" d="M63.05,32.05l-.95.1Z"/><path class="cls-2" d="M103,122.63c-16.92,0-33.84,0-50.75.05-2.24,0-2.88-.59-2.87-2.84q.13-29.37,0-58.76c0-2.08.47-3,2.68-2.75a39.78,39.78,0,0,0,4.37,0c2.22,0,4.43.43,5.53-2.47.5-1.32,2.2-1.77,3.77-1.77,11,0,22,0,33,0,1.8,0,3,1.75,4.32,1.66s2.4-1.66,4.1-1.65c11,0,22,0,33,0a4.55,4.55,0,0,1,4.49,2.73,2.33,2.33,0,0,0,2.63,1.53c2.34-.09,4.7.06,7-.06,1.73-.09,2.21.57,2.19,2.24-.07,8.34,0,16.68,0,25,0,11.5,0,23,0,34.49,0,2-.53,2.61-2.58,2.6C137,122.6,120,122.63,103,122.63Z"/><path class="cls-3" d="M85.36,133.29c-10.27,0-20.53,0-30.8,0-3.38,0-5.36-2-5.1-5,.22-2.49,2.12-4.07,5.11-4.09,6.47,0,12.94,0,19.4,0,13.91,0,27.82-.05,41.72,0,4.39,0,8.15,2.4,12.15,3.81,1.26.44.68,1.41-.19,1.68-4.44,1.35-8.51,3.79-13.43,3.68C104.61,133.15,95,133.29,85.36,133.29Z"/><path class="cls-4" d="M100.32,137.21H74.09c-.64,0-1.29,0-1.94,0s-1-.27-1-.81c0-.71.51-1,1.12-1s1,0,1.45,0H127.6c.73,0,1.69,0,1.73.9,0,1.21-1.06.95-1.81,1h-27.2Z"/><path class="cls-4" d="M124.63,140.62c-6.06,0-12.12,0-18.18,0-.71,0-1.9.43-1.94-.76s1.2-1.05,2-1.05q18.3,0,36.6,0c.78,0,1.93-.2,2,.86,0,1.37-1.25.95-2,.95C136.91,140.64,130.77,140.62,124.63,140.62Z"/><path class="cls-5" d="M78.94,138.7H87.4c.73,0,1.59,0,1.51,1.05-.07.88-.85.83-1.49.83H70.5c-.73,0-1.6,0-1.52-1,.07-.86.85-.84,1.5-.84Z"/><path class="cls-4" d="M150.7,140.63c-.85-.35-2.82.72-2.85-.79,0-1.82,2-.79,3.1-1.07a2.17,2.17,0,0,1,.72,0c.88.1,2.29-.33,2.25,1s-1.5.61-2.32.83A4.21,4.21,0,0,1,150.7,140.63Z"/><path class="cls-6" d="M102.06,81q0,10.32,0,20.64c0,3.5-1,4.52-4.41,4.52q-15.42,0-30.84,0c-3.26,0-4.47-1.1-4.48-4.32q-.06-20.88,0-41.77c0-3,1.17-4.07,4.15-4.08q15.8,0,31.58,0c3.07,0,4,1,4,4.12Q102.07,70.5,102.06,81Z"/><path class="cls-6" d="M103.92,80.75q0-10.32,0-20.64c0-3.27.89-4.16,4.19-4.17h31.33c3.11,0,4.2,1.09,4.21,4.27q0,20.64,0,41.29c0,3.55-1.12,4.61-4.68,4.61q-15.3,0-30.6,0c-3.46,0-4.44-1-4.45-4.47Q103.91,91.2,103.92,80.75Z"/><path class="cls-7" d="M56.9,60a7,7,0,0,0-1.65,5.2q0,22.1,0,44.19c0,4.47,1.9,6.4,6.32,6.4,10.93,0,21.86.12,32.78-.07,2.78,0,5.58.08,8.32,0,6.83-.3,13.64.35,20.46.16s13.92,0,20.88,0c4.95,0,6.69-1.77,6.69-6.76V65.79c0-1.94.19-3.91-1.35-5.45.34-.2.46-.33.59-.34,5-.18,5-.17,5,4.84,0,17.8,0,35.61,0,53.42,0,2-.46,2.6-2.53,2.59q-49.41-.09-98.83,0c-2.23,0-2.64-.68-2.63-2.74.08-18.21,0-36.42.06-54.64,0-4-.72-3.44,3.65-3.51Z"/><path class="cls-8" d="M56.88,87c0-7.37,0-14.73,0-22.09,0-1.73.35-3.22,2-4.09,1-.55,1.9-.67,1.82,1,0,.56,0,1.13,0,1.7q0,19.17,0,38.34c0,4.15,1.87,6,6.08,6.07,9.79,0,19.58,0,29.36.06,1.09,0,3-1,3.06,1.46s-.85,4-2.84,4.4a8.73,8.73,0,0,1-1.7.07q-16.5,0-33,0c-3.61,0-4.77-1.18-4.77-4.81Q56.88,98.07,56.88,87Z"/><path class="cls-8" d="M149.1,87.35q0,10.92,0,21.85c0,3.48-1.2,4.72-4.62,4.72q-16.62,0-33.25,0a5.22,5.22,0,0,1-2.61-.4c-1.93-1-2.07-2.85-1.76-4.63s1.84-.91,2.81-.91c9.63-.06,19.25,0,28.88,0,5.07,0,6.73-1.66,6.73-6.65,0-12.86,0-25.72,0-38.59,0-.72-.52-1.82.5-2.12s1.83.45,2.46,1.24a4.71,4.71,0,0,1,.84,3.2Q149.09,76.19,149.1,87.35Z"/><path class="cls-1" d="M104.93,110.58c0,3.41-.3,3.78-2.8,3.32a1.7,1.7,0,0,1-.86-.3c-.59-.6-.23-6.1.47-6.64.45-.35.86-1.2,1.58-.7s1.64.8,1.62,1.91C104.92,109,104.93,109.78,104.93,110.58Z"/><path class="cls-9" d="M88.2,126c7,0,14.06,0,21.08,0,.75,0,2-.5,1.92,1-.07,1.29-1.17.85-1.87.85q-21.33,0-42.65,0c-.77,0-2,.45-1.94-1,.07-1.28,1.19-.84,1.89-.84C73.82,126,81,126,88.2,126Z"/><path class="cls-10" d="M87.93,131.46c-7,0-14.07,0-21.11,0-.75,0-2,.56-2-.9s1.25-1,2-1q21.24,0,42.48,0c.78,0,2-.41,1.9,1.08-.09,1.28-1.21.82-1.91.82C102.17,131.48,95.05,131.46,87.93,131.46Z"/><path class="cls-1" d="M125.11,128.75c-3.71,1.09-6.55,2.95-10,2.74-1.4-.08-2-.35-2-1.9,0-3.63,1.2-4.55,5.09-3.38C120.31,126.86,122.39,127.75,125.11,128.75Z"/><path class="cls-3" d="M56,131.45c-3.54,0-5-.79-5-2.66S52.45,126,55.74,126s4.27,1.14,3.36,4.47C58.58,132.4,56.89,131,56,131.45Z"/><path class="cls-11" d="M63.07,128.71v1.69c0,.86-.53,1.06-1.28,1s-1-.33-1-1c0-.89,0-1.78,0-2.66s-.3-1.69,1-1.77,1.33.82,1.31,1.74v1Z"/><path class="cls-12" d="M82.09,73c-4.21,0-8.42,0-12.63,0-.76,0-1.87.19-1.87-1s1.16-.87,1.88-.87q12.77,0,25.51,0c.77,0,1.93-.24,2,.81.08,1.33-1.19,1-2,1C90.67,73,86.38,73,82.09,73Z"/><path class="cls-13" d="M82.32,76.49c-4.29,0-8.58,0-12.87,0-.71,0-1.87.39-1.86-.87s1.12-1,1.89-1q12.87,0,25.74,0c.79,0,1.86-.07,1.76,1.08-.08.93-1.08.77-1.79.77C90.9,76.5,86.61,76.49,82.32,76.49Z"/><path class="cls-14" d="M82.3,87.19c-4.29,0-8.58,0-12.86,0-.7,0-1.89.42-1.85-.87,0-1.13,1.15-.93,1.91-.93q12.87,0,25.73,0c.72,0,1.7-.08,1.74.86,0,1.2-1,1-1.8,1C90.88,87.2,86.59,87.19,82.3,87.19Z"/><path class="cls-15" d="M82.33,92.55c4.2,0,8.39,0,12.59,0,.81,0,2.06-.31,2,1,0,1.09-1.17.86-1.93.86q-12.71,0-25.41,0c-.81,0-2.1.31-2-1s1.37-.81,2.15-.82C74,92.52,78.14,92.55,82.33,92.55Z"/><path class="cls-16" d="M82.11,83.71c-4.21,0-8.42,0-12.63,0-.76,0-1.86.21-1.88-.94s1.12-.9,1.85-.9q12.75,0,25.5,0c.81,0,2.08-.32,2,1,0,1.06-1.21.82-2,.82C90.69,83.72,86.4,83.71,82.11,83.71Z"/><path class="cls-2" d="M82.13,80c-4.29,0-8.58,0-12.86,0-.66,0-1.71.26-1.67-.83s1.08-.74,1.73-.74q13,0,26,0c.67,0,1.72-.23,1.68.82s-1.07.76-1.75.76C90.87,80,86.5,80,82.13,80Z"/><path class="cls-17" d="M82.32,90.69c-4.28,0-8.56,0-12.85,0-.71,0-1.88.36-1.86-.85,0-1,1.1-.72,1.75-.72q12.86,0,25.7,0c.73,0,2-.31,1.87.86s-1.27.71-2,.71C90.73,90.71,86.52,90.69,82.32,90.69Z"/><path class="cls-18" d="M82.38,96.26c4.29,0,8.57,0,12.85,0C95.9,96.28,97,96,97,97s-1,.83-1.71.83H69.31c-.67,0-1.71.27-1.71-.79s1-.8,1.69-.8C73.66,96.25,78,96.26,82.38,96.26Z"/><path class="cls-3" d="M77.55,65.8c-2.82,0-5.64,0-8.46,0-.62,0-1.44.13-1.51-.76s.76-1.1,1.5-1.1H86.22c.66,0,1.42.07,1.42.92s-.72,1-1.4,1Z"/><path class="cls-3" d="M77.64,60.44h8.47c.64,0,1.45-.07,1.48.81s-.73,1-1.39,1q-8.72,0-17.42,0c-.57,0-1.19-.17-1.22-.9,0-1,.74-.9,1.37-.91Z"/><path class="cls-1" d="M89.23,99.78c2.1,0,4.21,0,6.31,0,.65,0,1.44,0,1.46.86s-.74,1-1.4,1c-4.21,0-8.42,0-12.63,0-.65,0-1.44-.13-1.45-.95,0-1.12,1-.85,1.64-.86C85.18,99.76,87.21,99.78,89.23,99.78Z"/><path class="cls-1" d="M77.65,69.26c-2.9,0-5.81,0-8.71,0-.61,0-1.43.1-1.35-.89.06-.77.78-.68,1.32-.68q8.58,0,17.17,0c.63,0,1.49-.09,1.51.77s-.84.81-1.48.81Z"/><path class="cls-2" d="M123.58,76.49c-4.21,0-8.42,0-12.63,0-.75,0-1.89.3-2-.82s1-1,1.83-1q12.87,0,25.74,0c.77,0,1.88-.16,1.82,1s-1.21.8-1.93.81C132.16,76.51,127.87,76.49,123.58,76.49Z"/><path class="cls-2" d="M123.67,81.85c4.29,0,8.58,0,12.87,0,.73,0,1.89-.32,1.84.92s-1.15.92-1.91.92H110.73c-.71,0-1.7.11-1.74-.84,0-1.19,1-1,1.81-1C115.09,81.84,119.38,81.85,123.67,81.85Z"/><path class="cls-2" d="M123.68,73c-4.27,0-8.55,0-12.82,0-.77,0-1.87.17-1.87-.94s1.14-.91,1.89-.91q12.83,0,25.65,0c.72,0,1.87-.35,1.85.89s-1.11.94-1.87.95C132.23,73,128,73,123.68,73Z"/><path class="cls-2" d="M123.76,87.19c-4.29,0-8.58,0-12.87,0-.74,0-1.9.3-1.9-.87s1.12-.94,1.9-.94q12.75,0,25.49,0c.83,0,2.09-.26,2,1.08-.08,1.16-1.28.71-2,.72C132.18,87.21,128,87.19,123.76,87.19Z"/><path class="cls-2" d="M123.64,93.52c-4.29,0-8.58,0-12.86,0-.77,0-1.86.16-1.79-1,.06-.95,1-.83,1.75-.83q13,0,26,0c.69,0,1.64-.12,1.66.9s-.93.94-1.63.94C132.37,93.53,128,93.52,123.64,93.52Z"/><path class="cls-2" d="M123.6,90.69c-4.28,0-8.57,0-12.86,0-.68,0-1.72.22-1.76-.77s1-.82,1.68-.82q13,0,26,0c.66,0,1.74-.28,1.73.75,0,1.23-1.19.82-1.9.83C132.18,90.71,127.89,90.69,123.6,90.69Z"/><path class="cls-2" d="M123.43,80c-4.21,0-8.42,0-12.62,0-.68,0-1.75.27-1.81-.69-.07-1.27,1.13-.88,1.83-.88q12.87,0,25.74,0c.65,0,1.72-.33,1.79.68.08,1.3-1.13.87-1.82.88C132.17,80,127.8,80,123.43,80Z"/><path class="cls-2" d="M123.84,95.38c4.28,0,8.57,0,12.85,0,.67,0,1.71-.25,1.69.81s-1,.78-1.72.78H110.71c-.69,0-1.72.17-1.7-.83s1.06-.76,1.73-.76C115.11,95.36,119.47,95.38,123.84,95.38Z"/><path class="cls-1" d="M128.39,64.91h-8.5c-.75,0-1.62,0-1.54-1,.06-.81.86-.84,1.52-.84h17c.73,0,1.6,0,1.53,1.08s-.88.78-1.51.78C134.06,64.92,131.22,64.91,128.39,64.91Z"/><path class="cls-1" d="M128.34,60.44c2.74,0,5.48,0,8.22,0,.72,0,1.88-.36,1.82.91,0,1.11-1.15.91-1.91.91q-8,0-16,0c-.85,0-2.12.18-2.07-1s1.38-.78,2.17-.79C123.18,60.4,125.76,60.44,128.34,60.44Z"/><path class="cls-9" d="M116.71,99.78c2.1,0,4.2,0,6.3,0,.62,0,1.41-.09,1.36.9,0,.73-.67.88-1.23.89q-6.54,0-13.07,0c-.6,0-1.17-.29-1.14-1s.67-.79,1.25-.79Z"/><path class="cls-3" d="M128.49,67.67c2.82,0,5.64,0,8.46,0,.6,0,1.48-.14,1.45.8s-.89.77-1.5.77q-8.44,0-16.91,0c-.62,0-1.52.16-1.57-.7-.06-1.09,1-.86,1.61-.87C122.85,67.66,125.67,67.67,128.49,67.67Z"/></svg>