<svg width="374" height="169" viewBox="0 0 374 169" fill="none" xmlns="http://www.w3.org/2000/svg">
<rect width="374" height="169" rx="20" fill="#F2F8FC"/>
<path d="M50.3731 131H164.7C165.064 130.999 165.413 130.805 165.67 130.463C165.927 130.12 166.072 129.655 166.073 129.171C166.072 128.686 165.927 128.222 165.67 127.879C165.413 127.536 165.064 127.343 164.7 127.341H50.3731C50.0093 127.343 49.6607 127.536 49.4034 127.879C49.1462 128.222 49.0012 128.686 49.0001 129.171C49.0012 129.655 49.1462 130.12 49.4034 130.463C49.6607 130.805 50.0093 130.999 50.3731 131Z" fill="#FFAC00"/>
<path opacity="0.3" d="M51.2125 131H94.3476C94.934 130.999 95.4958 130.805 95.9105 130.463C96.3251 130.12 96.5588 129.655 96.5605 129.171C96.5588 128.686 96.3251 128.222 95.9105 127.879C95.4958 127.536 94.934 127.343 94.3476 127.341H51.2125C50.6261 127.343 50.0643 127.536 49.6497 127.879C49.235 128.222 49.0013 128.686 48.9996 129.171C49.0013 129.655 49.235 130.12 49.6497 130.463C50.0643 130.805 50.6261 130.999 51.2125 131Z" fill="#263238"/>
<path d="M137.123 120.671C137.372 120.671 137.611 120.769 137.787 120.945C137.964 121.12 138.064 121.358 138.065 121.607V125.645C138.065 125.895 137.966 126.135 137.789 126.311C137.613 126.488 137.373 126.587 137.123 126.587H106.599C106.518 126.587 106.441 126.556 106.383 126.499C106.325 126.442 106.292 126.365 106.29 126.284V120.94C106.292 120.859 106.325 120.782 106.383 120.726C106.441 120.669 106.518 120.637 106.599 120.637L137.123 120.671Z" fill="#FFAC00"/>
<path opacity="0.9" d="M119.058 121.236H106.27V126.056H119.058C119.203 126.056 119.342 125.998 119.444 125.896C119.546 125.794 119.604 125.655 119.604 125.51V121.775C119.602 121.631 119.544 121.495 119.441 121.394C119.339 121.293 119.202 121.236 119.058 121.236Z" fill="white"/>
<path d="M121.158 120.671H151.991C152.512 120.671 152.934 121.093 152.934 121.613V125.685C152.934 126.206 152.512 126.628 151.991 126.628H121.158C120.638 126.628 120.216 126.206 120.216 125.685V121.613C120.216 121.093 120.638 120.671 121.158 120.671Z" fill="#FFAC00"/>
<path opacity="0.2" d="M121.158 120.671H151.991C152.512 120.671 152.934 121.093 152.934 121.613V125.685C152.934 126.206 152.512 126.628 151.991 126.628H121.158C120.638 126.628 120.216 126.206 120.216 125.685V121.613C120.216 121.093 120.638 120.671 121.158 120.671Z" fill="black"/>
<path opacity="0.5" d="M136.321 120.671H140.999C141.211 120.671 141.383 120.843 141.383 121.055V126.244C141.383 126.456 141.211 126.628 140.999 126.628H136.321C136.109 126.628 135.938 126.456 135.938 126.244V121.055C135.938 120.843 136.109 120.671 136.321 120.671Z" fill="#FFAC00"/>
<path opacity="0.5" d="M129.572 120.671H134.243C134.455 120.671 134.627 120.843 134.627 121.055V126.244C134.627 126.456 134.455 126.628 134.243 126.628H129.572C129.36 126.628 129.189 126.456 129.189 126.244V121.055C129.189 120.843 129.36 120.671 129.572 120.671Z" fill="#FFAC00"/>
<path d="M142.642 113.335C142.765 113.335 142.888 113.359 143.002 113.406C143.117 113.454 143.22 113.523 143.308 113.611C143.395 113.698 143.465 113.802 143.512 113.916C143.56 114.031 143.584 114.153 143.584 114.277V119.729C143.584 119.853 143.56 119.975 143.512 120.089C143.465 120.204 143.395 120.308 143.308 120.395C143.22 120.483 143.117 120.552 143.002 120.599C142.888 120.647 142.765 120.671 142.642 120.671H109.574C109.493 120.669 109.416 120.636 109.359 120.578C109.303 120.52 109.271 120.442 109.271 120.362V113.631C109.271 113.55 109.303 113.472 109.359 113.414C109.416 113.356 109.493 113.323 109.574 113.321L142.642 113.335Z" fill="#FFAC00"/>
<path opacity="0.9" d="M124.558 113.907H109.253V120.106H124.558C124.703 120.106 124.841 120.048 124.944 119.946C125.046 119.844 125.103 119.705 125.103 119.561V114.465C125.105 114.393 125.092 114.32 125.066 114.253C125.039 114.185 124.999 114.123 124.949 114.071C124.898 114.019 124.837 113.978 124.77 113.95C124.703 113.921 124.631 113.907 124.558 113.907Z" fill="white"/>
<path d="M126.685 113.335H152.611C153.132 113.335 153.554 113.757 153.554 114.277V119.722C153.554 120.243 153.132 120.664 152.611 120.664H126.685C126.164 120.664 125.742 120.243 125.742 119.722V114.277C125.742 113.757 126.164 113.335 126.685 113.335Z" fill="#FFAC00"/>
<path opacity="0.2" d="M126.685 113.335H152.611C153.132 113.335 153.554 113.757 153.554 114.277V119.722C153.554 120.243 153.132 120.664 152.611 120.664H126.685C126.164 120.664 125.742 120.243 125.742 119.722V114.277C125.742 113.757 126.164 113.335 126.685 113.335Z" fill="white"/>
<path opacity="0.6" d="M129.113 114.788H148.101C148.417 114.788 148.673 115.045 148.673 115.361V118.638C148.673 118.954 148.417 119.211 148.101 119.211H129.113C128.797 119.211 128.541 118.954 128.541 118.638V115.361C128.541 115.045 128.797 114.788 129.113 114.788Z" fill="#FFAC00"/>
<path d="M132.945 109.828C133.464 109.828 133.888 110.077 133.888 110.38V112.783C133.888 113.086 133.464 113.335 132.945 113.335H102.415C102.247 113.335 102.112 113.254 102.112 113.16V110.01C102.112 109.909 102.247 109.828 102.415 109.828H132.945Z" fill="#FFAC00"/>
<path opacity="0.9" d="M115.001 110.158H102.111V112.998H115.001C115.111 112.998 115.217 112.954 115.296 112.876C115.374 112.798 115.418 112.691 115.418 112.581V110.562C115.414 110.453 115.369 110.351 115.291 110.275C115.213 110.2 115.109 110.158 115.001 110.158Z" fill="white"/>
<path d="M116.756 109.828H148.034C148.431 109.828 148.754 110.15 148.754 110.548V112.621C148.754 113.019 148.431 113.341 148.034 113.341H116.756C116.358 113.341 116.036 113.019 116.036 112.621V110.548C116.036 110.15 116.358 109.828 116.756 109.828Z" fill="#FFAC00"/>
<path opacity="0.2" d="M116.756 109.828H148.034C148.431 109.828 148.754 110.15 148.754 110.548V112.621C148.754 113.019 148.431 113.341 148.034 113.341H116.756C116.358 113.341 116.036 113.019 116.036 112.621V110.548C116.036 110.15 116.358 109.828 116.756 109.828Z" fill="black"/>
<path opacity="0.5" d="M144.103 109.828H145.079C145.157 109.828 145.221 109.891 145.221 109.969V113.2C145.221 113.278 145.157 113.341 145.079 113.341H144.103C144.025 113.341 143.962 113.278 143.962 113.2V109.969C143.962 109.891 144.025 109.828 144.103 109.828Z" fill="#FFAC00"/>
<path opacity="0.5" d="M118.715 109.828H119.671C119.749 109.828 119.812 109.891 119.812 109.969V113.2C119.812 113.278 119.749 113.341 119.671 113.341H118.715C118.637 113.341 118.574 113.278 118.574 113.2V109.969C118.574 109.891 118.637 109.828 118.715 109.828Z" fill="#FFAC00"/>
<path d="M138.463 104.753C138.981 104.753 139.405 105.002 139.405 105.305V109.269C139.405 109.579 138.981 109.828 138.463 109.828H105.395C105.227 109.828 105.085 109.747 105.085 109.646V104.935C105.085 104.834 105.227 104.753 105.395 104.753H138.463Z" fill="#FFAC00"/>
<path opacity="0.9" d="M120.518 105.083H105.085V109.491H120.518C120.629 109.491 120.735 109.447 120.813 109.369C120.892 109.291 120.936 109.185 120.936 109.074V105.5C120.936 105.389 120.892 105.283 120.813 105.205C120.735 105.127 120.629 105.083 120.518 105.083Z" fill="white"/>
<path d="M122.283 104.753H148.654C149.052 104.753 149.374 105.075 149.374 105.473V109.108C149.374 109.505 149.052 109.828 148.654 109.828H122.283C121.885 109.828 121.563 109.505 121.563 109.108V105.473C121.563 105.075 121.885 104.753 122.283 104.753Z" fill="#FFAC00"/>
<path opacity="0.1" d="M122.283 104.753H148.654C149.052 104.753 149.374 105.075 149.374 105.473V109.108C149.374 109.505 149.052 109.828 148.654 109.828H122.283C121.885 109.828 121.563 109.505 121.563 109.108V105.473C121.563 105.075 121.885 104.753 122.283 104.753Z" fill="black"/>
<path d="M64.7078 125.504H92.4854C92.6342 125.504 92.777 125.562 92.8828 125.667C92.9887 125.772 93.049 125.914 93.0508 126.062C93.049 126.211 92.9887 126.353 92.8828 126.458C92.777 126.562 92.6342 126.621 92.4854 126.621H64.7078C64.5596 126.621 64.4175 126.562 64.3128 126.457C64.208 126.353 64.1491 126.211 64.1491 126.062C64.1491 125.914 64.208 125.772 64.3128 125.667C64.4175 125.563 64.5596 125.504 64.7078 125.504Z" fill="white"/>
<path d="M87.9144 124.171H69.6608L68.0117 126.56H89.5635L87.9144 124.171Z" fill="#263238"/>
<path d="M59.7282 83.3898C59.7282 83.8756 59.8723 84.3506 60.1422 84.7546C60.4122 85.1586 60.7958 85.4735 61.2447 85.6595C61.6936 85.8454 62.1876 85.894 62.6642 85.7993C63.1407 85.7045 63.5785 85.4705 63.922 85.1269C64.2656 84.7833 64.4996 84.3456 64.5944 83.869C64.6892 83.3925 64.6405 82.8985 64.4546 82.4496C64.2686 82.0007 63.9538 81.617 63.5498 81.3471C63.1457 81.0771 62.6708 80.933 62.1849 80.933C61.862 80.9322 61.5422 80.9951 61.2437 81.1182C60.9452 81.2414 60.6741 81.4223 60.4458 81.6506C60.2175 81.8789 60.0365 82.1501 59.9134 82.4486C59.7902 82.747 59.7273 83.0669 59.7282 83.3898Z" fill="black"/>
<path d="M78.1844 125.787C78.3123 125.786 78.4382 125.754 78.551 125.694C78.6638 125.633 78.76 125.546 78.8311 125.44C78.9023 125.333 78.9462 125.211 78.959 125.084C78.9718 124.957 78.9531 124.828 78.9045 124.71L61.3172 83.0869C61.2265 82.9131 61.0736 82.7798 60.8891 82.7134C60.7045 82.6471 60.5018 82.6527 60.3212 82.729C60.1405 82.8053 59.9953 82.9468 59.9142 83.1254C59.8331 83.3039 59.8222 83.5064 59.8836 83.6927L77.4709 125.309C77.5301 125.449 77.6292 125.57 77.756 125.654C77.8828 125.739 78.0317 125.785 78.1844 125.787Z" fill="#263238"/>
<path d="M60.6013 84.1772C60.7684 84.1753 60.9308 84.1212 61.0657 84.0224L93.0029 60.0678C93.1671 59.9447 93.2757 59.7613 93.3047 59.5581C93.3337 59.3549 93.2809 59.1484 93.1577 58.9842C93.0345 58.82 92.8511 58.7114 92.6479 58.6824C92.4447 58.6533 92.2383 58.7062 92.074 58.8294L60.1301 82.7705C60.0011 82.8696 59.9062 83.0066 59.8588 83.1623C59.8114 83.3179 59.8138 83.4845 59.8657 83.6388C59.9176 83.793 60.0164 83.9272 60.1483 84.0225C60.2802 84.1178 60.4385 84.1696 60.6013 84.1705V84.1772Z" fill="#263238"/>
<path d="M58.1452 83.3898C58.1452 83.8756 58.2893 84.3506 58.5592 84.7546C58.8291 85.1586 59.2128 85.4735 59.6617 85.6595C60.1107 85.8454 60.6046 85.894 61.0812 85.7993C61.5577 85.7045 61.9955 85.4705 62.339 85.1269C62.6826 84.7833 62.9166 84.3456 63.0114 83.869C63.1062 83.3925 63.0575 82.8985 62.8716 82.4496C62.6856 82.0007 62.3708 81.617 61.9668 81.3471C61.5628 81.0771 61.0878 80.933 60.6019 80.933C60.279 80.9322 59.9591 80.9951 59.6607 81.1182C59.3622 81.2414 59.091 81.4223 58.8627 81.6506C58.6344 81.8789 58.4535 82.1501 58.3304 82.4486C58.2072 82.747 58.1443 83.0669 58.1452 83.3898Z" fill="#263238"/>
<path d="M92.5383 61.8986C91.1852 61.8986 90.0883 60.8017 90.0883 59.4486C90.0883 58.0956 91.1852 56.9987 92.5383 56.9987C93.8914 56.9987 94.9883 58.0956 94.9883 59.4486C94.9883 60.8017 93.8914 61.8986 92.5383 61.8986Z" fill="#263238"/>
<path d="M96.336 70.6486C97.1042 71.4167 98.0828 71.9398 99.1482 72.1517C100.214 72.3636 101.318 72.2548 102.321 71.8391C103.325 71.4235 104.183 70.7195 104.786 69.8163C105.39 68.9131 105.712 67.8512 105.712 66.765C105.712 65.6787 105.39 64.6168 104.786 63.7136C104.183 62.8104 103.325 62.1065 102.321 61.6908C101.318 61.2751 100.214 61.1663 99.1482 61.3782C98.0828 61.5902 97.1042 62.1133 96.336 62.8814C95.3077 63.9122 94.7302 65.3089 94.7302 66.765C94.7302 68.2211 95.3077 69.6177 96.336 70.6486Z" fill="#FFAC00"/>
<path opacity="0.7" d="M96.336 70.6486C97.1042 71.4167 98.0828 71.9398 99.1482 72.1517C100.214 72.3636 101.318 72.2548 102.321 71.8391C103.325 71.4235 104.183 70.7195 104.786 69.8163C105.39 68.9131 105.712 67.8512 105.712 66.765C105.712 65.6787 105.39 64.6168 104.786 63.7136C104.183 62.8104 103.325 62.1065 102.321 61.6908C101.318 61.2751 100.214 61.1663 99.1482 61.3782C98.0828 61.5902 97.1042 62.1133 96.336 62.8814C95.3077 63.9122 94.7302 65.3089 94.7302 66.765C94.7302 68.2211 95.3077 69.6177 96.336 70.6486Z" fill="white"/>
<path d="M92.5394 59.4486C93.6315 58.3553 94.9283 57.4881 96.3558 56.8963C97.7832 56.3046 99.3133 56 100.859 56C102.404 56 103.934 56.3046 105.361 56.8963C106.789 57.4881 108.086 58.3553 109.178 59.4486L92.5394 76.1004C91.445 75.0076 90.5767 73.7098 89.9842 72.2812C89.3918 70.8525 89.0869 69.3211 89.0869 67.7745C89.0869 66.2279 89.3918 64.6965 89.9842 63.2678C90.5767 61.8392 91.445 60.5414 92.5394 59.4486Z" fill="#263238"/>
<g opacity="0.2">
<path opacity="0.2" d="M109.185 59.4487L179.063 126.621H107.375L92.5403 76.0937L109.185 59.4487Z" fill="#FFAC00"/>
<path opacity="0.7" d="M109.185 59.4487L179.063 126.621H107.375L92.5403 76.0937L109.185 59.4487Z" fill="white"/>
</g>
</svg>
