<svg id="Layer_1" data-name="Layer 1" xmlns="http://www.w3.org/2000/svg"
    xmlns:xlink="http://www.w3.org/1999/xlink" viewBox="0 0 184 263">
    <defs>
        <style>
            .cls-1{fill:none;}.cls-2{clip-path:url(#clip-path);}.cls-3{fill:url(#linear-gradient);}.cls-4{fill:url(#linear-gradient-2);}.cls-5{fill:#ff5f54;}.cls-6{fill:#f6f0f4;}.cls-7{fill:#ffa573;}.cls-8{fill:#511812;}.cls-9{fill:#021e40;}.cls-10{fill:#194070;}.cls-11{fill:url(#linear-gradient-3);}.cls-12{fill:url(#linear-gradient-4);}.cls-13{fill:url(#linear-gradient-5);}.cls-14{fill:#ffcdd4;}.cls-15{fill:#f7546f;}
        </style>
        <clipPath id="clip-path">
            <rect class="cls-1" x="0.91" y="-0.65" width="184" height="263" />
        </clipPath>
        <linearGradient id="linear-gradient" x1="26.11" y1="-473.44" x2="77.11" y2="-536.44"
            gradientTransform="matrix(1, 0, 0, -1, 0, -334.25)" gradientUnits="userSpaceOnUse">
            <stop offset="0" stop-color="#f6625a" />
            <stop offset="1" stop-color="#d95149" />
        </linearGradient>
        <linearGradient id="linear-gradient-2" x1="7.86" y1="-440.26" x2="51.24" y2="-442.62"
            gradientTransform="matrix(1, 0, 0, -1, 0, -334.25)" gradientUnits="userSpaceOnUse">
            <stop offset="0" stop-color="#ffecef" />
            <stop offset="1" stop-color="#fff" />
        </linearGradient>
        <linearGradient id="linear-gradient-3" x1="39.79" y1="-389.76" x2="61.83" y2="-390.32"
            xlink:href="#linear-gradient-2" />
        <linearGradient id="linear-gradient-4" x1="130.91" y1="-376.5" x2="148.11" y2="-376.82"
            xlink:href="#linear-gradient-2" />
        <linearGradient id="linear-gradient-5" x1="50.1" y1="-430.67" x2="155.1" y2="-452.17"
            xlink:href="#linear-gradient-2" />
    </defs>
    <title>Foxlearn</title>
    <g class="cls-2">
        <path class="cls-3"
            d="M74.09,201.86l-2.9,5.76c-5.91,3.16-17.08,2.55-23.8,1.56C33.08,207,21.89,193.9,18.23,180.46c-3.49-12.77,2.1-23.77,4.53-36a50.56,50.56,0,0,0,.86-7.47,44.87,44.87,0,0,0,15.51-5.16C46,128,50,123.07,54.24,117.18a63.72,63.72,0,0,1,5.37,18.63c1.38,10,.19,20.38-.31,30.3C58.59,180,59.61,195,74.09,201.86Z" />
        <path class="cls-4"
            d="M54.21,117.18C50,123.07,45.94,128,39.1,131.82A44.82,44.82,0,0,1,23.6,137a81.54,81.54,0,0,0-4.4-29C15.15,95.75,8.74,85.55.88,75.52c8.06,3.19,16.1,5,23.74,9.27a70,70,0,0,1,20.93,18.5A72.55,72.55,0,0,1,54.21,117.18Z" />
        <path class="cls-5"
            d="M130.6,178a78.69,78.69,0,0,1-1.36,9.55A30.82,30.82,0,0,1,99.05,212H91.81A35,35,0,0,1,57,174.48c.24-3.35.65-6.88,1.27-10.57,2.17-12.76,7-27.45,16.22-43.31l44,1.79S133,148.05,130.6,178Z" />
        <path class="cls-5"
            d="M120.09,125.85l-5.59,15.7c18.65,14,23.73,26.85,24.75,35.11A7.67,7.67,0,0,0,149,183a7.77,7.77,0,0,0,5.57-7.57C154.15,134.57,120.09,125.85,120.09,125.85Z" />
        <path class="cls-5"
            d="M71.2,192.28l25.64-.36-13.93,51a7.52,7.52,0,0,1-.46,3,7.43,7.43,0,0,1-1.58,2.55,7.45,7.45,0,0,1-12.73-3.82Z" />
        <path class="cls-5"
            d="M98.08,193.36l25.65-.72L126.21,244a7.44,7.44,0,0,1-.45,3,7.5,7.5,0,0,1-4.05,4.27,7.47,7.47,0,0,1-10.32-5.54Z" />
        <path class="cls-6"
            d="M124.24,175.26c0,2.82-.13,5.59-.39,8.26a22.43,22.43,0,0,1-44.66,0c-.26-2.67-.4-5.44-.4-8.26,0-24.4,10.18-44.2,22.73-44.2S124.24,150.85,124.24,175.26Z" />
        <path class="cls-7"
            d="M139.26,209c-2.17,1-.09.24-2.17,1-18.56,6.84-57.56,7.32-68.95,2-7.81-3.71-12.42,3.94-18.24-2.46,2.16-12.75,8.79-72.52,24.55-88.88l44,1.79S141.71,179.1,139.26,209Z" />
        <path class="cls-8"
            d="M123.74,173.24c-8.88,4.49-23.43,2.26-32.74.51-.68-.13-1,.92-.29,1,10.07,1.89,24.05,4.18,33.57-.59C124.91,173.86,124.36,172.93,123.74,173.24Z" />
        <path class="cls-6"
            d="M142.83,153.74s-6.5-6.5-28.69-4.06c0,0-15.43,3.25-20.84-1.09l-29,33.31,1.35,3.79,69,2.7,35.18-37.1v-3.48s-1.19.28-2.81.6a61.53,61.53,0,0,1-10.91,1.19C152.63,149.68,146.87,150.4,142.83,153.74Z" />
        <path class="cls-9"
            d="M64,188.43,93.3,153.21l45.89,4.28H149l22.52-7L134.06,191l-16.24.86h-12Z" />
        <path class="cls-10" d="M149,157.49l-31.2,34.36H105.13l33.21-34.36Z" />
        <path class="cls-5"
            d="M75.93,126.29a8.48,8.48,0,0,1,4.13,3.29,8.39,8.39,0,0,1,1.36,5.11c-1.23,19.58,4.92,32.11,9.61,38a7.65,7.65,0,0,1,1.46,6.22,7.71,7.71,0,0,1-13.06,3.83C60,163.25,61.66,143,64.82,132a8.47,8.47,0,0,1,1.61-3.09,8.5,8.5,0,0,1,6.06-3.1A8.57,8.57,0,0,1,75.93,126.29Z" />
        <path class="cls-5"
            d="M55.49,88.81l.12-.25c-28.73-35.37-17-65.74-17-65.74C55,37.07,61.19,61.57,63.26,72.81L73.32,52.13C73.18,51,66.5,21.46,39.48,16.39,39.5,16.39,16.7,68.15,55.49,88.81Z" />
        <path class="cls-11"
            d="M55.61,88.56l7.68-15.75c-2.08-11.24-8.28-35.74-24.63-50C38.64,22.82,26.88,53.19,55.61,88.56Z" />
        <path class="cls-5"
            d="M117,69.65l22.06,7.66c-1.48-5.51-12.62-47.68-10.65-71.52,23,22.67,25,47.14,15.58,72.51,3.08-4,19.91-28.89-7.5-66.39L126.83-.62S109,31.84,117,69.65Z" />
        <path class="cls-12"
            d="M128.38,5.81c-2,23.83,9.18,66,10.66,71.52l4.47,1.55s.17-.18.46-.56C153.36,52.94,151.41,28.48,128.38,5.81Z" />
        <path class="cls-5"
            d="M43.67,94.71c36.06,4.4,60.67-5.3,60.67-5.3,33,10,50.44,8.9,59.6,5.19a48.26,48.26,0,0,0,6.33-10.49s-5.11,2.54-7.32.73c0,0,7.7-3.08,9.31-6.33,0,0-8.87,4.73-15.75-2.53,0,0-17.66-44.15-56.73-45.27-.65,0-1.31-.05-2-.1-3.45-.27-18.08-.42-31.26,14.27,0,0-11.82,12-20.93,45.88A13,13,0,0,1,43.67,94.71Z" />
        <path class="cls-13"
            d="M29.82,100.24s8.84,13.67,43.49,25.21l11,3a61.49,61.49,0,0,0,46.36-6.08l.36-.19s20.68-11.78,32.85-27.53c-9.17,3.71-26.56,4.82-59.6-5.19,0,0-24.61,9.7-60.67,5.3C41.62,97.65,37.5,101,29.82,100.24Z" />
        <path class="cls-8"
            d="M94.94,92.45c-.2,2.54,3,4.87,7.07,5.2s7.61-1.45,7.82-4-3-4.87-7.07-5.21S95.15,89.94,94.94,92.45Z" />
        <path class="cls-14"
            d="M135.31,102.51c-.21,2.54,3,4.87,7.07,5.2s7.61-1.45,7.81-4-3-4.88-7.06-5.21S135.52,100,135.31,102.51Z" />
        <path class="cls-14"
            d="M55.8,102c-.27,2.54,2.83,5,6.93,5.37s7.65-1.26,7.92-3.79-2.83-5-6.93-5.37S56.08,99.45,55.8,102Z" />
        <path class="cls-8"
            d="M74.55,93.29c2.53-.3,4.17-3.86,3.72-8s-2.92-7.16-5.45-6.89-4.17,3.86-3.72,8S72,93.59,74.55,93.29Z" />
        <path class="cls-8"
            d="M130.22,92.64c2.54-.29,4.18-3.86,3.72-8a9.83,9.83,0,0,0-2.15-5.34,3.94,3.94,0,0,0-3.3-1.55c-2.53.27-4.17,3.86-3.72,8S127.69,92.92,130.22,92.64Z" />
        <path class="cls-8"
            d="M87.87,98v0c3,9.06,10.78,7.64,10.86,7.63a1.08,1.08,0,0,0-.41-2.13c-.27.05-6,1-8.39-6.17a1.08,1.08,0,0,0-1.34-.66,1.1,1.1,0,0,0-.73,1.3Z" />
        <path class="cls-8"
            d="M36.85,111.08c-.49-.5-1.26.26-.77.77,16.5,16.84,17.8,45.79,11.15,67.37a.5.5,0,0,0,.07.39.53.53,0,0,0,.31.24.61.61,0,0,0,.4,0,.59.59,0,0,0,.26-.3C55,157.51,53.64,128.25,36.85,111.08Z" />
        <path class="cls-8"
            d="M40.59,133.81c-1-5.51-2.42-14.38-7.24-18-.56-.41-1.1.53-.55.94,5.92,4.47,7.21,18.95,7.69,25.41a173.3,173.3,0,0,1-.16,21.62c0,.7,1.05.69,1.09,0C41.92,153.78,42.34,143.68,40.59,133.81Z" />
    </g>
    <path class="cls-7"
        d="M64.91,39.28,70.48,20s19.28,8.58,14.14,19.29L70.05,45.71l-5.14,5.14L54.28,65.65S37.05,54.71,39.62,50.85l18.86-8Z" />
    <path class="cls-15"
        d="M64.91,39.28s5.78,3.43,5.14,6.43-5.14,5.14-5.14,5.14-2.34-9.77-6.43-8C58.48,42.82,62.64,37.66,64.91,39.28Z" />
    <circle class="cls-15" cx="85.49" cy="130.85" r="1.33" />
    <circle class="cls-15" cx="96.89" cy="141.87" r="1.33" />
    <circle class="cls-15" cx="85.49" cy="153.87" r="1.33" />
    <circle class="cls-15" cx="62.33" cy="168.55" r="1.33" />
    <circle class="cls-15" cx="79.53" cy="201.82" r="1.33" />
    <circle class="cls-15" cx="102.03" cy="194.26" r="1.33" />
    <circle class="cls-15" cx="95.55" cy="210.82" r="1.33" />
    <circle class="cls-15" cx="121.91" cy="206.64" r="1.33" />
    <circle class="cls-15" cx="126.41" cy="194.26" r="1.33" />
    <circle class="cls-15" cx="137.02" cy="206.64" r="1.33" />
    <circle class="cls-15" cx="62.33" cy="189.5" r="1.33" />
    <circle class="cls-15" cx="55.58" cy="206.64" r="1.33" />
    <circle class="cls-15" cx="111.77" cy="132.19" r="1.33" />
    <circle class="cls-15" cx="113.11" cy="146.97" r="1.33" />
    <circle class="cls-15" cx="122.75" cy="139.2" r="1.33" />
    <path class="cls-8"
        d="M131.36,79.65c.34-.18.68-.38,1-.58a10.37,10.37,0,0,0,.93-.66,3.36,3.36,0,0,0,1.29-1.82,2.16,2.16,0,0,1-.33,1.13,3.73,3.73,0,0,1-.8.88A5.72,5.72,0,0,1,131.36,79.65Z" />
    <path class="cls-8"
        d="M132,80.61a2,2,0,0,0,.84,0,4.59,4.59,0,0,0,.8-.24c.54-.18,1-.45,1.57-.67a4.54,4.54,0,0,1-.7.52,5.12,5.12,0,0,1-.78.38A2.21,2.21,0,0,1,132,80.61Z" />
    <path class="cls-8"
        d="M129.83,78.79a2.12,2.12,0,0,0,1-.6,4.38,4.38,0,0,0,.71-.94,7.7,7.7,0,0,0,.55-1.07l.46-1.12a8.22,8.22,0,0,1-.28,1.19,6,6,0,0,1-.51,1.13,3.68,3.68,0,0,1-.81,1A1.8,1.8,0,0,1,129.83,78.79Z" />
    <path class="cls-8"
        d="M70.64,81.42a5.7,5.7,0,0,1-2.09-1,3.94,3.94,0,0,1-.8-.88,2.18,2.18,0,0,1-.33-1.13,3.34,3.34,0,0,0,1.29,1.81,6.23,6.23,0,0,0,.93.66C70,81,70.29,81.24,70.64,81.42Z" />
    <path class="cls-8"
        d="M70,82.39a2.26,2.26,0,0,1-1.73-.06,4.83,4.83,0,0,1-.79-.39,4.38,4.38,0,0,1-.7-.52c.54.22,1,.5,1.58.68a4.59,4.59,0,0,0,.8.24A2.15,2.15,0,0,0,70,82.39Z" />
    <path class="cls-8"
        d="M72.16,80.57A1.86,1.86,0,0,1,71,80.11a3.73,3.73,0,0,1-.81-1A5.94,5.94,0,0,1,69.71,78a8.35,8.35,0,0,1-.28-1.2L69.89,78A8.24,8.24,0,0,0,70.43,79a4.37,4.37,0,0,0,.72.93A2.19,2.19,0,0,0,72.16,80.57Z" />
</svg>