<svg width="117" height="23" viewBox="0 0 117 23" fill="none" xmlns="http://www.w3.org/2000/svg">
<path d="M12.6951 0.999999V4.96H4.29508V9.94H12.4551V13.9H4.29508V22H0.155078V0.999999H12.6951ZM28.3117 20.14C26.7917 21.66 24.9117 22.42 22.6717 22.42C20.4317 22.42 18.5517 21.66 17.0317 20.14C15.5117 18.62 14.7517 16.74 14.7517 14.5C14.7517 12.28 15.5117 10.41 17.0317 8.89C18.5717 7.35 20.4517 6.58 22.6717 6.58C24.8917 6.58 26.7717 7.35 28.3117 8.89C29.8517 10.43 30.6217 12.3 30.6217 14.5C30.6217 16.72 29.8517 18.6 28.3117 20.14ZM19.7617 17.47C20.5417 18.25 21.5117 18.64 22.6717 18.64C23.8317 18.64 24.8017 18.25 25.5817 17.47C26.3617 16.69 26.7517 15.7 26.7517 14.5C26.7517 13.3 26.3617 12.31 25.5817 11.53C24.8017 10.75 23.8317 10.36 22.6717 10.36C21.5117 10.36 20.5417 10.75 19.7617 11.53C19.0017 12.33 18.6217 13.32 18.6217 14.5C18.6217 15.68 19.0017 16.67 19.7617 17.47ZM40.6295 14.32L46.1195 22H41.6495L38.4095 17.44L35.1395 22H30.6695L36.1595 14.35L30.9095 7H35.3795L38.4095 11.23L41.4395 7H45.8795L40.6295 14.32Z" fill="#FF5F54"/>
<path d="M51.9213 22H48.0513V0.0999994H51.9213V22ZM70.0434 16.09H58.7334C59.2334 17.97 60.6434 18.91 62.9634 18.91C64.4434 18.91 65.5634 18.41 66.3234 17.41L69.4434 19.21C67.9634 21.35 65.7834 22.42 62.9034 22.42C60.4234 22.42 58.4334 21.67 56.9334 20.17C55.4334 18.67 54.6834 16.78 54.6834 14.5C54.6834 12.26 55.4234 10.38 56.9034 8.86C58.3634 7.34 60.2634 6.58 62.6034 6.58C64.8234 6.58 66.6334 7.34 68.0334 8.86C69.4734 10.38 70.1934 12.26 70.1934 14.5C70.1934 14.92 70.1434 15.45 70.0434 16.09ZM58.6734 13.09H66.3234C66.1034 12.11 65.6534 11.36 64.9734 10.84C64.3134 10.32 63.5234 10.06 62.6034 10.06C61.5634 10.06 60.7034 10.33 60.0234 10.87C59.3434 11.39 58.8934 12.13 58.6734 13.09ZM84.1778 8.77V7H88.0478V22H84.1778V20.23C83.0178 21.69 81.3878 22.42 79.2878 22.42C77.2878 22.42 75.5678 21.66 74.1278 20.14C72.7078 18.6 71.9978 16.72 71.9978 14.5C71.9978 12.3 72.7078 10.43 74.1278 8.89C75.5678 7.35 77.2878 6.58 79.2878 6.58C81.3878 6.58 83.0178 7.31 84.1778 8.77ZM77.0378 17.56C77.8178 18.34 78.8078 18.73 80.0078 18.73C81.2078 18.73 82.1978 18.34 82.9778 17.56C83.7778 16.76 84.1778 15.74 84.1778 14.5C84.1778 13.26 83.7778 12.25 82.9778 11.47C82.1978 10.67 81.2078 10.27 80.0078 10.27C78.8078 10.27 77.8178 10.67 77.0378 11.47C76.2578 12.25 75.8678 13.26 75.8678 14.5C75.8678 15.74 76.2578 16.76 77.0378 17.56ZM95.4271 7V9.58C95.7671 8.64 96.3471 7.93 97.1671 7.45C97.9871 6.95 98.9271 6.7 99.9871 6.7V11.02C98.8071 10.86 97.7471 11.1 96.8071 11.74C95.8871 12.36 95.4271 13.39 95.4271 14.83V22H91.5571V7H95.4271ZM110.59 6.58C112.25 6.58 113.6 7.13 114.64 8.23C115.72 9.35 116.26 10.87 116.26 12.79V22H112.39V13.27C112.39 12.29 112.12 11.53 111.58 10.99C111.06 10.45 110.34 10.18 109.42 10.18C108.4 10.18 107.59 10.5 106.99 11.14C106.41 11.76 106.12 12.68 106.12 13.9V22H102.25V7H106.12V8.68C107.04 7.28 108.53 6.58 110.59 6.58Z" fill="#021E40"/>
</svg>
