<svg width="20" height="20" viewBox="0 0 20 20" fill="none" xmlns="http://www.w3.org/2000/svg">
<path d="M3.33333 1.44531C3.47997 1.44543 3.62399 1.48423 3.75083 1.55781L17.0875 9.27948C17.2138 9.35273 17.3186 9.45788 17.3915 9.58438C17.4643 9.71089 17.5027 9.85432 17.5027 10.0003C17.5027 10.1463 17.4643 10.2897 17.3915 10.4162C17.3186 10.5427 17.2138 10.6479 17.0875 10.7211L3.75083 18.4428C3.62419 18.5161 3.48048 18.5548 3.33415 18.5549C3.18782 18.5551 3.04403 18.5167 2.91725 18.4436C2.79046 18.3706 2.68515 18.2654 2.61191 18.1387C2.53866 18.012 2.50007 17.8683 2.5 17.722V2.27865C2.5 2.05763 2.5878 1.84567 2.74408 1.68939C2.90036 1.53311 3.11232 1.44531 3.33333 1.44531ZM10.2433 11.1786L6.495 14.927L11.2442 12.1778L10.2442 11.1778L10.2433 11.1786ZM4.16667 5.09865V14.8986L9.06667 9.99865L4.16667 5.09865ZM12.7367 8.68365L11.4217 10.0003L12.7367 11.3145L15.0067 10.0003L12.7358 8.68448L12.7367 8.68365ZM6.495 5.07031L10.245 8.82031L11.2442 7.82031L6.495 5.07031Z" fill="white"/>
</svg>
