<svg width="327" height="122" viewBox="0 0 327 122" fill="none" xmlns="http://www.w3.org/2000/svg">
<path d="M9.38244 107.69C10.5311 108.092 11.7645 108.193 12.9636 107.982C14.1628 107.772 15.2873 107.258 16.2289 106.49C18.6269 104.486 19.3789 101.187 19.9905 98.1309L21.7999 89.0918L18.0117 91.688C15.2873 93.555 12.5017 95.482 10.6155 98.1862C8.72934 100.89 7.90645 104.582 9.4215 107.508" fill="#E6E6E6"/>
<path d="M9.96916 119.263C9.49236 115.805 9.00179 112.303 9.33704 108.809C9.63414 105.705 10.5855 102.675 12.5222 100.188C13.5503 98.8716 14.8012 97.7434 16.2188 96.8544C16.5883 96.6223 16.9285 97.2051 16.5605 97.4363C14.1077 98.9792 12.2105 101.257 11.1424 103.943C9.96284 106.929 9.77343 110.184 9.97661 113.356C10.0994 115.274 10.3604 117.18 10.6225 119.083C10.6432 119.169 10.6303 119.26 10.5864 119.337C10.5424 119.414 10.4708 119.471 10.3859 119.498C10.2993 119.521 10.207 119.509 10.129 119.465C10.0511 119.421 9.9937 119.348 9.96939 119.262L9.96916 119.263Z" fill="#F2F2F2"/>
<path d="M13.4004 113.716C13.893 114.461 14.5702 115.068 15.3667 115.477C16.1632 115.886 17.0522 116.084 17.948 116.052C20.2507 115.944 22.1696 114.345 23.8969 112.826L29.0069 108.336L25.6251 108.175C23.193 108.059 20.6982 107.95 18.3817 108.697C16.0652 109.445 13.9289 111.24 13.5054 113.627" fill="#E6E6E6"/>
<path d="M8.62072 121.25C10.9162 117.208 13.5785 112.715 18.3361 111.279C19.6588 110.881 21.0458 110.738 22.4223 110.859C22.8562 110.896 22.7478 111.562 22.3148 111.525C20.0074 111.334 17.7045 111.94 15.7936 113.242C13.9974 114.539 12.4745 116.175 11.3115 118.056C10.5692 119.181 9.90436 120.354 9.2395 121.525C9.02707 121.899 8.4058 121.629 8.62072 121.25Z" fill="#F2F2F2"/>
<path d="M219.356 102.406C220.938 102.959 222.636 103.098 224.287 102.808C225.939 102.519 227.487 101.811 228.784 100.753C232.086 97.9941 233.122 93.4505 233.964 89.2423L236.455 76.7949L231.239 80.37C227.487 82.941 223.651 85.5946 221.054 89.3185C218.456 93.0424 217.323 98.1262 219.41 102.156" fill="#E6E6E6"/>
<path d="M220.161 118.343C219.505 113.582 218.829 108.759 219.291 103.947C219.7 99.6731 221.01 95.4996 223.677 92.0762C225.093 90.2628 226.815 88.7091 228.767 87.485C229.276 87.1653 229.745 87.968 229.238 88.2864C225.86 90.411 223.248 93.5483 221.777 97.246C220.153 101.358 219.892 105.841 220.172 110.209C220.341 112.85 220.7 115.474 221.061 118.095C221.089 118.214 221.072 118.339 221.011 118.445C220.951 118.551 220.852 118.63 220.735 118.666C220.616 118.698 220.489 118.682 220.381 118.622C220.274 118.561 220.195 118.46 220.162 118.342L220.161 118.343Z" fill="#F2F2F2"/>
<path d="M224.887 110.703C225.565 111.73 226.498 112.565 227.594 113.129C228.691 113.692 229.915 113.965 231.149 113.921C234.32 113.772 236.963 111.57 239.341 109.479L246.378 103.295L241.721 103.073C238.372 102.913 234.936 102.764 231.746 103.793C228.556 104.822 225.614 107.295 225.031 110.581" fill="#E6E6E6"/>
<path d="M218.304 121.08C221.465 115.513 225.131 109.326 231.682 107.348C233.504 106.8 235.414 106.604 237.309 106.77C237.907 106.821 237.757 107.738 237.161 107.687C233.984 107.424 230.812 108.259 228.181 110.051C225.649 111.767 223.677 114.152 222.009 116.681C220.987 118.23 220.071 119.845 219.156 121.458C218.863 121.973 218.008 121.601 218.304 121.08Z" fill="#F2F2F2"/>
<path d="M189.729 18.6433C189.395 18.4988 189.127 18.2373 188.975 17.9087C188.823 17.58 188.797 17.2072 188.903 16.861C188.92 16.808 188.931 16.7531 188.935 16.6975C188.945 16.5389 188.903 16.3814 188.816 16.2484C188.729 16.1153 188.601 16.0138 188.451 15.9588C188.301 15.9038 188.138 15.8983 187.984 15.9431C187.831 15.9878 187.697 16.0805 187.601 16.2074C187.568 16.2524 187.54 16.3011 187.518 16.3526C187.373 16.6844 187.111 16.9514 186.78 17.103C186.45 17.2545 186.076 17.2798 185.728 17.1743C185.674 17.1572 185.619 17.1464 185.563 17.1422C185.404 17.1326 185.246 17.1742 185.112 17.2611C184.979 17.3479 184.877 17.4753 184.821 17.6244C184.766 17.7734 184.761 17.9363 184.806 18.0887C184.85 18.2411 184.944 18.3751 185.071 18.4707C185.116 18.5036 185.165 18.5311 185.217 18.5526C185.55 18.6971 185.819 18.9585 185.971 19.2872C186.123 19.6158 186.149 19.9887 186.043 20.3348C186.025 20.3879 186.015 20.4428 186.01 20.4984C186.001 20.657 186.042 20.8144 186.13 20.9475C186.217 21.0805 186.345 21.1821 186.495 21.2371C186.645 21.292 186.808 21.2976 186.961 21.2528C187.114 21.208 187.249 21.1153 187.345 20.9884C187.378 20.9434 187.406 20.8947 187.427 20.8432C187.572 20.5115 187.835 20.2444 188.165 20.0929C188.496 19.9414 188.87 19.916 189.218 20.0216C189.271 20.0386 189.326 20.0494 189.382 20.0536C189.542 20.0633 189.7 20.0216 189.833 19.9348C189.967 19.8479 190.069 19.7205 190.124 19.5715C190.18 19.4224 190.185 19.2596 190.14 19.1071C190.095 18.9547 190.002 18.8207 189.875 18.7251C189.829 18.6922 189.78 18.6647 189.729 18.6433Z" fill="#CBCBCB"/>
<path d="M217.953 84.0583C217.62 83.9138 217.352 83.6524 217.2 83.3237C217.047 82.9951 217.022 82.6222 217.128 82.2761C217.145 82.223 217.156 82.1681 217.16 82.1125C217.17 81.9539 217.128 81.7964 217.041 81.6634C216.953 81.5303 216.825 81.4288 216.676 81.3738C216.526 81.3188 216.362 81.3133 216.209 81.3581C216.056 81.4029 215.921 81.4956 215.825 81.6224C215.792 81.6674 215.765 81.7162 215.743 81.7676C215.598 82.0994 215.335 82.3665 215.005 82.518C214.675 82.6695 214.3 82.6949 213.952 82.5893C213.899 82.5722 213.844 82.5615 213.788 82.5572C213.629 82.5476 213.471 82.5893 213.337 82.6761C213.203 82.763 213.101 82.8904 213.046 83.0394C212.991 83.1885 212.985 83.3513 213.03 83.5037C213.075 83.6562 213.168 83.7901 213.296 83.8858C213.341 83.9187 213.39 83.9461 213.442 83.9676C213.775 84.1121 214.043 84.3736 214.195 84.7022C214.348 85.0308 214.373 85.4037 214.267 85.7498C214.25 85.8029 214.239 85.8578 214.235 85.9134C214.225 86.072 214.267 86.2295 214.354 86.3625C214.442 86.4956 214.57 86.5971 214.719 86.6521C214.869 86.7071 215.033 86.7126 215.186 86.6678C215.339 86.623 215.474 86.5303 215.57 86.4035C215.603 86.3585 215.63 86.3097 215.652 86.2583C215.797 85.9265 216.06 85.6594 216.39 85.5079C216.72 85.3564 217.095 85.331 217.443 85.4366C217.496 85.4537 217.551 85.4644 217.607 85.4687C217.766 85.4783 217.924 85.4366 218.058 85.3498C218.192 85.263 218.294 85.1356 218.349 84.9865C218.404 84.8374 218.41 84.6746 218.365 84.5222C218.32 84.3697 218.227 84.2358 218.099 84.1401C218.054 84.1072 218.005 84.0798 217.953 84.0583Z" fill="#F1F1F1"/>
<path d="M69.9768 45.9333C69.6435 45.7888 69.3751 45.5274 69.2229 45.1987C69.0707 44.8701 69.0452 44.4972 69.1513 44.1511C69.1684 44.098 69.1792 44.0431 69.1835 43.9875C69.1932 43.8289 69.1513 43.6714 69.0641 43.5384C68.9768 43.4053 68.8488 43.3038 68.699 43.2488C68.5493 43.1938 68.3857 43.1883 68.2325 43.2331C68.0794 43.2779 67.9448 43.3706 67.8487 43.4974C67.8156 43.5424 67.788 43.5912 67.7665 43.6426C67.6213 43.9744 67.3586 44.2415 67.0284 44.393C66.6982 44.5445 66.3236 44.5699 65.9758 44.4643C65.9225 44.4472 65.8674 44.4365 65.8115 44.4322C65.6522 44.4226 65.494 44.4643 65.3603 44.5511C65.2266 44.638 65.1246 44.7654 65.0693 44.9144C65.0141 45.0635 65.0086 45.2263 65.0536 45.3787C65.0985 45.5312 65.1917 45.6651 65.3191 45.7608C65.3643 45.7937 65.4133 45.8211 65.465 45.8426C65.7983 45.9871 66.0667 46.2486 66.2189 46.5772C66.3711 46.9058 66.3966 47.2787 66.2906 47.6249C66.2734 47.6779 66.2626 47.7328 66.2583 47.7884C66.2486 47.947 66.2905 48.1045 66.3778 48.2375C66.465 48.3706 66.593 48.4721 66.7428 48.5271C66.8925 48.5821 67.0561 48.5876 67.2093 48.5428C67.3624 48.498 67.497 48.4053 67.5931 48.2785C67.6262 48.2335 67.6538 48.1847 67.6753 48.1333C67.8205 47.8015 68.0832 47.5344 68.4134 47.3829C68.7436 47.2314 69.1182 47.206 69.466 47.3116C69.5193 47.3287 69.5745 47.3394 69.6303 47.3437C69.7896 47.3533 69.9479 47.3116 70.0815 47.2248C70.2152 47.138 70.3172 47.0106 70.3725 46.8615C70.4277 46.7124 70.4333 46.5496 70.3883 46.3972C70.3433 46.2447 70.2502 46.1108 70.1227 46.0151C70.0775 45.9822 70.0285 45.9548 69.9768 45.9333Z" fill="#F1F1F1"/>
<path d="M131.708 22.474C133.044 22.474 134.128 21.3959 134.128 20.0661C134.128 18.7363 133.044 17.6582 131.708 17.6582C130.372 17.6582 129.289 18.7363 129.289 20.0661C129.289 21.3959 130.372 22.474 131.708 22.474Z" fill="#F1F1F1"/>
<path d="M260.734 16.0531C262.07 16.0531 263.153 14.975 263.153 13.6452C263.153 12.3154 262.07 11.2373 260.734 11.2373C259.398 11.2373 258.314 12.3154 258.314 13.6452C258.314 14.975 259.398 16.0531 260.734 16.0531Z" fill="#FDD26C"/>
<path d="M72.8411 4.81579C74.1772 4.81579 75.2603 3.73774 75.2603 2.40789C75.2603 1.07805 74.1772 0 72.8411 0C71.505 0 70.4219 1.07805 70.4219 2.40789C70.4219 3.73774 71.505 4.81579 72.8411 4.81579Z" fill="#CBCBCB"/>
<path d="M63.5369 114.251C73.1273 114.251 80.9019 106.513 80.9019 96.9672C80.9019 87.4217 73.1273 79.6836 63.5369 79.6836C53.9465 79.6836 46.1719 87.4217 46.1719 96.9672C46.1719 106.513 53.9465 114.251 63.5369 114.251Z" fill="#2F2E41"/>
<path d="M60.8985 110.531H55.623V119.939H60.8985V110.531Z" fill="#2F2E41"/>
<path d="M71.4512 110.531H66.1758V119.939H71.4512V110.531Z" fill="#2F2E41"/>
<path d="M60.0193 121.689C62.4472 121.689 64.4155 120.954 64.4155 120.048C64.4155 119.142 62.4472 118.407 60.0193 118.407C57.5913 118.407 55.623 119.142 55.623 120.048C55.623 120.954 57.5913 121.689 60.0193 121.689Z" fill="#2F2E41"/>
<path d="M70.572 121.47C73 121.47 74.9682 120.736 74.9682 119.829C74.9682 118.923 73 118.188 70.572 118.188C68.144 118.188 66.1758 118.923 66.1758 119.829C66.1758 120.736 68.144 121.47 70.572 121.47Z" fill="#2F2E41"/>
<path d="M82.2501 89.415C86.0108 85.669 88.1016 81.6798 86.9201 80.5047C85.7386 79.3297 81.7321 81.4138 77.9715 85.1597C74.2108 88.9057 72.1199 92.895 73.3014 94.07C74.4829 95.2451 78.4894 93.1609 82.2501 89.415Z" fill="#2F2E41"/>
<path d="M49.5392 95.2736C50.7207 94.0985 48.6299 90.1093 44.8692 86.3633C41.1085 82.6174 37.1021 80.5332 35.9206 81.7083C34.739 82.8834 36.8299 86.8726 40.5906 90.6186C44.3513 94.3645 48.3577 96.4487 49.5392 95.2736Z" fill="#2F2E41"/>
<path d="M62.806 100.425C66.0837 100.425 68.7408 97.7807 68.7408 94.5184C68.7408 91.256 66.0837 88.6113 62.806 88.6113C59.5282 88.6113 56.8711 91.256 56.8711 94.5184C56.8711 97.7807 59.5282 100.425 62.806 100.425Z" fill="white"/>
<path d="M62.8064 96.4869C63.899 96.4869 64.7847 95.6053 64.7847 94.5179C64.7847 93.4304 63.899 92.5488 62.8064 92.5488C61.7138 92.5488 60.8281 93.4304 60.8281 94.5179C60.8281 95.6053 61.7138 96.4869 62.8064 96.4869Z" fill="#3F3D56"/>
<path d="M67.5185 105.442C67.7018 106.445 67.4776 107.479 66.8951 108.316C66.3126 109.154 65.4196 109.727 64.4125 109.91C63.4054 110.092 62.3667 109.869 61.5249 109.289C60.6832 108.71 60.1073 107.821 59.924 106.818L59.9226 106.811C59.5429 104.723 61.1646 103.985 63.2622 103.607C65.3597 103.229 67.1388 103.355 67.5185 105.442Z" fill="white"/>
<path d="M80.5641 115.106C80.1732 115.107 79.7985 115.262 79.5221 115.537C79.2457 115.812 79.0903 116.185 79.0898 116.574V119.639C79.0903 120.028 79.2457 120.401 79.5221 120.676C79.7985 120.951 80.1732 121.106 80.5641 121.106H104.285C104.675 121.106 105.05 120.951 105.327 120.676C105.603 120.401 105.758 120.028 105.759 119.639V116.574C105.758 116.185 105.603 115.812 105.327 115.537C105.05 115.262 104.675 115.107 104.285 115.106H80.5641Z" fill="#E5E5E5"/>
<path d="M94.2053 113.065C94.0585 112.981 93.884 112.958 93.7202 113.002C93.5564 113.045 93.4168 113.152 93.332 113.298L92.4505 114.818L91.5867 113.119C91.5101 112.968 91.3766 112.854 91.2155 112.801C91.0544 112.749 90.8789 112.762 90.7276 112.838C90.5763 112.914 90.4617 113.047 90.4088 113.207C90.356 113.368 90.3693 113.543 90.4458 113.693L91.118 115.016H90.8717V121.197H94.1597V115.016H93.8122L94.4394 113.934C94.5241 113.788 94.5471 113.615 94.5032 113.452C94.4593 113.289 94.3522 113.15 94.2053 113.065Z" fill="#FDD26C"/>
<path d="M63.09 85.6311C60.0046 85.628 56.9373 85.1616 53.9917 84.2477C53.787 84.1819 53.6085 84.0535 53.4816 83.8807C53.3547 83.7079 53.2859 83.4996 53.2852 83.2855V76.2504C53.2855 75.9844 53.3918 75.7294 53.5807 75.5413C53.7697 75.3532 54.0259 75.2474 54.2932 75.2471H72.0342C72.3015 75.2474 72.5577 75.3532 72.7467 75.5413C72.9356 75.7294 73.0419 75.9844 73.0422 76.2504V83.2814C73.0423 83.4973 72.9727 83.7074 72.8435 83.8808C72.7143 84.0542 72.5326 84.1817 72.325 84.2443C69.3316 85.1546 66.22 85.6219 63.09 85.6311Z" fill="#FDD26C"/>
<path opacity="0.2" d="M72.8402 76.2499V77.4257L63.2399 80.7767C63.0604 80.8384 62.865 80.8355 62.6874 80.7687L53.4863 77.3294V76.2499C53.4869 76.0372 53.5721 75.8334 53.7232 75.683C53.8743 75.5326 54.0791 75.4479 54.2927 75.4473H72.0338C72.2475 75.4479 72.4522 75.5326 72.6033 75.683C72.7544 75.8334 72.8396 76.0372 72.8402 76.2499Z" fill="black"/>
<path d="M62.9725 79.4168C62.8516 79.4169 62.7315 79.3953 62.6182 79.3531L48.8685 74.2144C48.6741 74.1418 48.507 74.0111 48.39 73.8403C48.273 73.6695 48.2119 73.467 48.215 73.2603C48.218 73.0536 48.2851 72.8529 48.4071 72.6857C48.5291 72.5184 48.7001 72.3927 48.8965 72.3258L61.8336 67.9207C62.0426 67.8503 62.269 67.8493 62.4786 67.918L76.9174 72.7085C77.1168 72.7747 77.2905 72.9013 77.4141 73.0705C77.5377 73.2398 77.605 73.4433 77.6066 73.6526C77.6082 73.8618 77.5441 74.0664 77.4231 74.2375C77.3022 74.4087 77.1305 74.5379 76.9321 74.6071L63.3058 79.3606C63.1987 79.3979 63.086 79.4169 62.9725 79.4168Z" fill="#FDD26C"/>
<path d="M50.4618 79.0593H50.0586V73.2402H62.3564V73.6416H50.4618V79.0593Z" fill="#3F3D56"/>
<path d="M50.2615 80.2635C50.7068 80.2635 51.0679 79.9041 51.0679 79.4608C51.0679 79.0176 50.7068 78.6582 50.2615 78.6582C49.8161 78.6582 49.4551 79.0176 49.4551 79.4608C49.4551 79.9041 49.8161 80.2635 50.2615 80.2635Z" fill="#3F3D56"/>
<path d="M163.935 114.251C173.526 114.251 181.3 106.513 181.3 96.9672C181.3 87.4217 173.526 79.6836 163.935 79.6836C154.345 79.6836 146.57 87.4217 146.57 96.9672C146.57 106.513 154.345 114.251 163.935 114.251Z" fill="#2F2E41"/>
<path d="M161.297 110.531H156.021V119.939H161.297V110.531Z" fill="#2F2E41"/>
<path d="M171.85 110.531H166.574V119.939H171.85V110.531Z" fill="#2F2E41"/>
<path d="M160.418 121.689C162.846 121.689 164.814 120.954 164.814 120.048C164.814 119.142 162.846 118.407 160.418 118.407C157.99 118.407 156.021 119.142 156.021 120.048C156.021 120.954 157.99 121.689 160.418 121.689Z" fill="#2F2E41"/>
<path d="M170.97 121.47C173.398 121.47 175.367 120.736 175.367 119.829C175.367 118.923 173.398 118.188 170.97 118.188C168.542 118.188 166.574 118.923 166.574 119.829C166.574 120.736 168.542 121.47 170.97 121.47Z" fill="#2F2E41"/>
<path d="M182.648 89.415C186.409 85.6691 188.5 81.6798 187.318 80.5047C186.137 79.3297 182.131 81.4138 178.37 85.1597C174.609 88.9057 172.518 92.895 173.7 94.07C174.881 95.2451 178.888 93.161 182.648 89.415Z" fill="#2F2E41"/>
<path d="M148.435 105.458C151.47 101.108 152.818 96.8135 151.446 95.8653C150.074 94.9172 146.502 97.6747 143.467 102.024C140.433 106.374 139.085 110.669 140.457 111.617C141.829 112.565 145.401 109.808 148.435 105.458Z" fill="#2F2E41"/>
<path d="M163.204 100.425C166.482 100.425 169.139 97.7807 169.139 94.5184C169.139 91.256 166.482 88.6113 163.204 88.6113C159.927 88.6113 157.27 91.256 157.27 94.5184C157.27 97.7807 159.927 100.425 163.204 100.425Z" fill="white"/>
<path d="M165.22 94.4801C166.313 94.4801 167.199 93.5985 167.199 92.511C167.199 91.4236 166.313 90.542 165.22 90.542C164.128 90.542 163.242 91.4236 163.242 92.511C163.242 93.5985 164.128 94.4801 165.22 94.4801Z" fill="#3F3D56"/>
<path d="M170.321 105.442C170.903 107.53 168.782 109.53 165.584 109.91C162.386 110.29 159.321 108.906 158.739 106.818L158.737 106.811C158.158 104.723 160.631 103.985 163.83 103.607C167.029 103.229 169.742 103.355 170.321 105.442Z" fill="white"/>
<path d="M157.859 86.7952C154.995 87.9379 151.975 88.6441 148.899 88.89C148.685 88.905 148.471 88.8521 148.288 88.7389C148.106 88.6257 147.964 88.4579 147.883 88.2596L145.246 81.7324C145.147 81.4854 145.15 81.2094 145.255 80.9647C145.36 80.72 145.558 80.5267 145.805 80.4272L162.266 73.8397C162.514 73.7407 162.791 73.7437 163.037 73.8481C163.283 73.9524 163.477 74.1496 163.577 74.3962L166.212 80.9197C166.293 81.1199 166.307 81.3408 166.253 81.5496C166.198 81.7585 166.077 81.9442 165.908 82.0794C163.472 84.0355 160.76 85.6244 157.859 86.7952Z" fill="#FDD26C"/>
<path opacity="0.2" d="M163.389 74.4712L163.83 75.5622L156.179 82.2361C156.035 82.3599 155.853 82.4298 155.663 82.4337L145.837 82.6593L145.433 81.6577C145.353 81.4601 145.356 81.2394 145.44 81.0438C145.524 80.8481 145.682 80.6935 145.88 80.6135L162.34 74.026C162.539 73.9472 162.76 73.9498 162.957 74.0333C163.153 74.1167 163.309 74.2741 163.389 74.4712Z" fill="black"/>
<path d="M155.421 81.0737C155.308 81.1187 155.189 81.1433 155.068 81.1462L140.385 81.484C140.177 81.4887 139.973 81.4296 139.801 81.3146C139.628 81.1995 139.495 81.0343 139.421 80.8414C139.346 80.6485 139.333 80.4374 139.384 80.2369C139.434 80.0364 139.546 79.8563 139.703 79.7213L150.055 70.8305C150.222 70.6875 150.432 70.6026 150.652 70.5885L165.844 69.6718C166.054 69.6591 166.263 69.7121 166.441 69.8232C166.619 69.9344 166.758 70.0982 166.838 70.2918C166.918 70.4853 166.935 70.6989 166.887 70.9026C166.839 71.1063 166.728 71.29 166.57 71.4279L155.709 80.8978C155.623 80.9722 155.526 81.0317 155.421 81.0737Z" fill="#FDD26C"/>
<path d="M143.68 85.3871L143.306 85.5368L141.125 80.1379L152.535 75.5713L152.685 75.9437L141.649 80.3606L143.68 85.3871Z" fill="#3F3D56"/>
<path d="M143.644 86.6365C144.09 86.6365 144.451 86.2772 144.451 85.8339C144.451 85.3906 144.09 85.0312 143.644 85.0312C143.199 85.0312 142.838 85.3906 142.838 85.8339C142.838 86.2772 143.199 86.6365 143.644 86.6365Z" fill="#3F3D56"/>
<path d="M230.044 56.132C227.427 54.5062 225.071 52.4967 223.055 50.1713C222.917 50.0078 222.833 49.8049 222.817 49.5914C222.801 49.378 222.854 49.165 222.967 48.9829L226.702 43.0106C226.844 42.785 227.07 42.6245 227.33 42.5642C227.59 42.5039 227.864 42.5489 228.091 42.6892L243.151 52.0222C243.378 52.1631 243.539 52.3877 243.6 52.6467C243.661 52.9058 243.615 53.1782 243.474 53.4042L239.741 59.3729C239.626 59.5562 239.455 59.6979 239.254 59.7772C239.052 59.8565 238.83 59.869 238.62 59.813C235.596 59.0111 232.706 57.7708 230.044 56.132Z" fill="#FDD26C"/>
<path opacity="0.2" d="M243.304 53.2982L242.679 54.2964L232.75 52.0907C232.565 52.0486 232.401 51.9433 232.285 51.7932L226.301 44.0332L226.874 43.1168C226.988 42.9366 227.168 42.8084 227.376 42.7602C227.584 42.712 227.803 42.7478 227.985 42.8597L243.045 52.1926C243.226 52.3056 243.355 52.4852 243.404 52.6924C243.452 52.8995 243.416 53.1173 243.304 53.2982Z" fill="black"/>
<path d="M233.243 50.794C233.14 50.7305 233.05 50.649 232.976 50.5536L224.033 38.958C223.906 38.7941 223.834 38.5952 223.825 38.3887C223.816 38.1822 223.872 37.9781 223.985 37.8043C224.097 37.6304 224.26 37.4954 224.453 37.4176C224.645 37.3398 224.857 37.323 225.059 37.3695L238.381 40.4358C238.596 40.4859 238.788 40.6042 238.93 40.7728L248.643 52.4352C248.777 52.5963 248.858 52.7951 248.873 53.0039C248.888 53.2126 248.837 53.4207 248.727 53.5992C248.617 53.7777 248.454 53.9175 248.261 53.9992C248.067 54.0809 247.853 54.1003 247.647 54.0547L233.556 50.9216C233.445 50.897 233.339 50.8538 233.243 50.794Z" fill="#FDD26C"/>
<path d="M222.815 43.9099L222.473 43.6976L225.563 38.7578L236.003 45.2274L235.789 45.5677L225.692 39.3104L222.815 43.9099Z" fill="#3F3D56"/>
<path d="M222.429 44.9471C222.875 44.9471 223.236 44.5877 223.236 44.1444C223.236 43.7011 222.875 43.3418 222.429 43.3418C221.984 43.3418 221.623 43.7011 221.623 44.1444C221.623 44.5877 221.984 44.9471 222.429 44.9471Z" fill="#3F3D56"/>
<path d="M272.054 94.5867C281.645 94.5867 289.419 86.8486 289.419 77.3031C289.419 67.7577 281.645 60.0195 272.054 60.0195C262.464 60.0195 254.689 67.7577 254.689 77.3031C254.689 86.8486 262.464 94.5867 272.054 94.5867Z" fill="#2F2E41"/>
<path d="M284.093 86.2648L279.592 89.0029L284.521 97.0301L289.022 94.292L284.093 86.2648Z" fill="#2F2E41"/>
<path d="M275.091 91.7404L270.59 94.4785L275.519 102.506L280.02 99.7676L275.091 91.7404Z" fill="#2F2E41"/>
<path d="M286.187 98.0672C288.259 96.8071 289.554 95.1586 289.079 94.3854C288.604 93.6122 286.54 94.0069 284.468 95.2671C282.396 96.5273 281.102 98.1757 281.576 98.9489C282.051 99.7222 284.116 99.3274 286.187 98.0672Z" fill="#2F2E41"/>
<path d="M277.07 103.356C279.142 102.096 280.436 100.448 279.962 99.6745C279.487 98.9012 277.422 99.2959 275.351 100.556C273.279 101.816 271.985 103.465 272.459 104.238C272.934 105.011 274.998 104.616 277.07 103.356Z" fill="#2F2E41"/>
<path d="M262.291 74.4054C263.473 73.2304 261.382 69.2411 257.621 65.4952C253.86 61.7492 249.854 59.6651 248.673 60.8401C247.491 62.0152 249.582 66.0045 253.343 69.7504C257.103 73.4964 261.11 75.5805 262.291 74.4054Z" fill="#2F2E41"/>
<path d="M295.532 91.952C296.904 91.0039 295.556 86.7091 292.521 82.3593C289.487 78.0095 285.915 75.252 284.543 76.2002C283.171 77.1484 284.519 81.4432 287.553 85.7929C290.588 90.1427 294.16 92.9002 295.532 91.952Z" fill="#2F2E41"/>
<path d="M266.738 78.3522C270.015 78.3522 272.672 75.7075 272.672 72.4451C272.672 69.1828 270.015 66.5381 266.738 66.5381C263.46 66.5381 260.803 69.1828 260.803 72.4451C260.803 75.7075 263.46 78.3522 266.738 78.3522Z" fill="white"/>
<path d="M264.721 72.4078C265.813 72.4078 266.699 71.5262 266.699 70.4388C266.699 69.3513 265.813 68.4697 264.721 68.4697C263.628 68.4697 262.742 69.3513 262.742 70.4388C262.742 71.5262 263.628 72.4078 264.721 72.4078Z" fill="#3F3D56"/>
<path d="M259.093 82.299C257.967 84.1342 259.467 86.617 262.442 87.8445C265.417 89.0719 268.741 88.5792 269.867 86.744L269.871 86.7375C270.993 84.9011 268.813 83.5271 265.837 82.3015C262.86 81.0759 260.215 80.4626 259.093 82.299Z" fill="white"/>
<path d="M266.228 55.6009C267.779 49.3857 274.623 45.7282 281.515 47.4316C288.408 49.135 292.738 55.5544 291.188 61.7696C289.637 67.9847 284.493 68.0048 277.601 66.3014C270.708 64.5979 264.677 61.8161 266.228 55.6009Z" fill="#E6E6E6"/>
<path d="M326.597 122H0.403206C0.296269 122 0.193712 121.958 0.118096 121.882C0.0424802 121.807 0 121.705 0 121.599C0 121.492 0.0424802 121.39 0.118096 121.315C0.193712 121.24 0.296269 121.197 0.403206 121.197H326.597C326.704 121.197 326.806 121.24 326.882 121.315C326.958 121.39 327 121.492 327 121.599C327 121.705 326.958 121.807 326.882 121.882C326.806 121.958 326.704 122 326.597 122Z" fill="#CBCBCB"/>
</svg>
