<svg width="303" height="302" viewBox="0 0 303 302" fill="none" xmlns="http://www.w3.org/2000/svg">
<path d="M151.756 301.933C235.286 301.933 303 262.836 303 214.608C303 166.379 235.286 127.283 151.756 127.283C68.2257 127.283 0.51123 166.379 0.51123 214.608C0.51123 262.836 68.2257 301.933 151.756 301.933Z" fill="#F5F5F5" fill-opacity="0.42"/>
<path d="M211.28 185.919L262.223 215.326C262.865 215.699 263.594 215.895 264.336 215.895C265.078 215.895 265.807 215.699 266.449 215.326L294.792 198.95C294.983 198.839 295.142 198.68 295.253 198.489C295.363 198.297 295.421 198.08 295.421 197.859C295.421 197.638 295.363 197.421 295.253 197.23C295.142 197.039 294.983 196.88 294.792 196.769L243.863 167.437C243.222 167.068 242.496 166.874 241.756 166.874C241.017 166.874 240.291 167.068 239.65 167.437L211.287 183.732C211.095 183.843 210.936 184.002 210.825 184.193C210.715 184.385 210.656 184.602 210.655 184.824C210.655 185.045 210.712 185.262 210.821 185.455C210.931 185.647 211.089 185.807 211.28 185.919Z" fill="#E0E0E0"/>
<path d="M171.193 174.982L48.6572 245.897C47.6593 246.476 46.5273 246.784 45.3736 246.79C44.22 246.796 43.0848 246.5 42.0811 245.931L10.2501 227.916C9.91945 227.726 9.64475 227.452 9.45372 227.122C9.2627 226.792 9.16211 226.418 9.16211 226.036C9.16211 225.655 9.2627 225.281 9.45372 224.951C9.64475 224.621 9.91945 224.347 10.2501 224.157L132.555 153.519C133.551 152.948 134.677 152.643 135.825 152.636C136.972 152.629 138.102 152.919 139.105 153.479L171.166 171.446C171.48 171.621 171.742 171.876 171.925 172.185C172.109 172.494 172.207 172.847 172.209 173.206C172.212 173.566 172.119 173.919 171.941 174.231C171.762 174.543 171.504 174.802 171.193 174.982Z" fill="#E0E0E0"/>
<path d="M190.806 246.154C209.377 246.154 224.432 237.461 224.432 226.737C224.432 216.014 209.377 207.321 190.806 207.321C172.235 207.321 157.18 216.014 157.18 226.737C157.18 237.461 172.235 246.154 190.806 246.154Z" fill="#E0E0E0"/>
<path d="M263.537 237.905C270.011 237.905 275.26 234.873 275.26 231.133C275.26 227.392 270.011 224.36 263.537 224.36C257.062 224.36 251.813 227.392 251.813 231.133C251.813 234.873 257.062 237.905 263.537 237.905Z" fill="#E0E0E0"/>
<path d="M263.917 124.425L263.931 213.802L292.876 197.074V107.784L263.917 124.425Z" fill="#E6E6E6"/>
<path d="M214.755 185.411L263.93 213.802V124.506L214.768 96.2034L214.755 185.411Z" fill="#EBEBEB"/>
<path d="M214.755 96.1153L263.93 124.506L292.876 107.784L243.721 79.4752L214.755 96.1153Z" fill="#F5F5F5"/>
<path d="M220.518 128.8L257.882 150.377C258.046 150.47 258.231 150.52 258.419 150.519C258.607 150.519 258.792 150.47 258.955 150.376C259.118 150.282 259.253 150.147 259.348 149.984C259.443 149.822 259.493 149.637 259.494 149.449V130.493C259.492 130.025 259.365 129.565 259.127 129.162C258.889 128.759 258.548 128.426 258.14 128.197L220.837 106.701C220.673 106.607 220.487 106.558 220.299 106.559C220.11 106.559 219.925 106.609 219.761 106.704C219.598 106.798 219.463 106.934 219.368 107.098C219.274 107.261 219.225 107.447 219.225 107.635V126.504C219.22 126.966 219.338 127.422 219.565 127.825C219.792 128.227 220.121 128.564 220.518 128.8Z" fill="#FAFAFA"/>
<path d="M242.638 124.052C242.509 124.051 242.383 124.016 242.272 123.95L235.676 120.158C235.524 120.051 235.418 119.891 235.377 119.71C235.337 119.529 235.366 119.339 235.459 119.178C235.551 119.017 235.7 118.897 235.877 118.84C236.053 118.783 236.245 118.794 236.414 118.871L243.01 122.67C243.141 122.756 243.241 122.881 243.296 123.027C243.351 123.173 243.358 123.333 243.317 123.483C243.275 123.634 243.187 123.767 243.065 123.865C242.943 123.962 242.794 124.018 242.638 124.025V124.052Z" fill="#E0E0E0"/>
<path d="M220.518 155.267L257.882 176.837C258.046 176.931 258.23 176.98 258.419 176.98C258.607 176.979 258.792 176.93 258.955 176.836C259.118 176.742 259.253 176.607 259.348 176.445C259.443 176.282 259.493 176.098 259.494 175.909V156.946C259.491 156.478 259.364 156.019 259.126 155.616C258.888 155.213 258.548 154.88 258.14 154.65L220.836 133.202C220.673 133.108 220.488 133.059 220.3 133.059C220.112 133.06 219.927 133.109 219.764 133.203C219.601 133.297 219.466 133.432 219.371 133.594C219.276 133.757 219.226 133.942 219.225 134.13V152.998C219.226 153.456 219.346 153.905 219.572 154.303C219.799 154.701 220.125 155.033 220.518 155.267Z" fill="#FAFAFA"/>
<path d="M242.638 150.512C242.51 150.511 242.385 150.478 242.272 150.418L235.676 146.618C235.524 146.511 235.418 146.352 235.377 146.17C235.337 145.989 235.366 145.8 235.459 145.639C235.551 145.478 235.7 145.357 235.877 145.3C236.053 145.243 236.245 145.254 236.414 145.331L243.01 149.131C243.141 149.216 243.241 149.341 243.296 149.487C243.351 149.633 243.358 149.793 243.317 149.944C243.275 150.094 243.187 150.228 243.065 150.325C242.943 150.422 242.794 150.478 242.638 150.485V150.512Z" fill="#E0E0E0"/>
<path d="M220.518 181.727L257.883 203.298C258.046 203.391 258.231 203.44 258.419 203.44C258.607 203.44 258.792 203.39 258.955 203.296C259.118 203.203 259.253 203.068 259.348 202.905C259.443 202.742 259.493 202.558 259.494 202.37V183.407C259.491 182.939 259.364 182.48 259.126 182.076C258.888 181.673 258.548 181.34 258.14 181.111L220.837 159.615C220.673 159.521 220.489 159.472 220.3 159.472C220.112 159.473 219.927 159.522 219.764 159.616C219.601 159.71 219.466 159.845 219.371 160.007C219.276 160.17 219.226 160.354 219.225 160.543V179.418C219.219 179.882 219.335 180.34 219.562 180.746C219.789 181.151 220.119 181.489 220.518 181.727Z" fill="#FAFAFA"/>
<path d="M242.637 176.973C242.509 176.974 242.383 176.942 242.272 176.878L235.675 173.079C235.591 173.03 235.517 172.966 235.458 172.889C235.399 172.812 235.356 172.724 235.33 172.63C235.305 172.536 235.299 172.439 235.311 172.342C235.324 172.246 235.356 172.153 235.404 172.069C235.453 171.985 235.517 171.911 235.594 171.852C235.671 171.793 235.759 171.75 235.853 171.726C235.947 171.701 236.045 171.696 236.141 171.709C236.237 171.723 236.33 171.756 236.413 171.805L243.01 175.598C243.094 175.646 243.168 175.711 243.227 175.788C243.286 175.865 243.329 175.953 243.354 176.046C243.38 176.14 243.386 176.238 243.373 176.334C243.361 176.43 243.329 176.523 243.281 176.607C243.216 176.72 243.122 176.814 243.009 176.878C242.896 176.943 242.767 176.975 242.637 176.973Z" fill="#E0E0E0"/>
<path d="M245.494 34.4242V58.311L266.184 70.251V46.3642L245.494 34.4242Z" fill="#FAFAFA"/>
<path d="M247.736 35.711L266.212 46.3642V67.6639L247.763 57.0174V35.711H247.736ZM246.639 33.7741L245.521 34.4513V58.3381L266.212 70.251L267.329 69.5737V45.7208L246.612 33.7741H246.639Z" fill="#E0E0E0"/>
<path d="M246.612 36.3544L265.06 47.0076V68.3073L246.612 57.654V36.3544ZM245.494 34.4174V58.3042L266.211 70.251V46.3642L245.494 34.4242V34.4174Z" fill="#EBEBEB"/>
<path d="M248.528 52.8455L264.179 61.8801L259.554 49.8521L256.357 53.6515L253.079 48.992L248.528 52.8455Z" fill="#E0E0E0"/>
<path d="M253.96 45.3416C253.987 45.837 254.13 46.3192 254.378 46.7488C254.627 47.1784 254.973 47.5432 255.389 47.8135C256.175 48.2673 256.818 47.8948 256.818 46.9873C256.79 46.4921 256.647 46.0103 256.398 45.5809C256.15 45.1515 255.804 44.7864 255.389 44.5153C254.597 44.0616 253.96 44.4273 253.96 45.3416Z" fill="#E0E0E0"/>
<path d="M272.381 63.3362V82.3671L288.859 91.8825V72.8516L272.381 63.3362Z" fill="#FAFAFA"/>
<path d="M274.163 64.3724L288.859 72.8516V89.8575L274.163 81.3715V64.4401V64.3724ZM273.269 62.8892L272.381 63.4039V82.4348L288.859 91.8893L289.753 91.3746V72.3437L273.269 62.8621V62.8892Z" fill="#E0E0E0"/>
<path d="M273.269 64.8871L287.965 73.3664V90.3384L273.269 81.8524V64.8871ZM272.381 63.3362V82.3671L288.859 91.8893V72.8584L272.381 63.3769V63.3362Z" fill="#EBEBEB"/>
<path d="M274.798 78.0123L287.26 85.2115L283.582 75.6284L281.029 78.6625L278.422 74.9444L274.798 78.0123Z" fill="#E0E0E0"/>
<path d="M279.12 72.039C279.142 72.4337 279.256 72.8178 279.454 73.1601C279.651 73.5025 279.927 73.7936 280.258 74.0098C280.888 74.3687 281.396 74.0775 281.396 73.3325C281.375 72.9375 281.261 72.553 281.063 72.2105C280.866 71.868 280.59 71.5771 280.258 71.3617C279.628 71.0163 279.12 71.3143 279.12 72.039Z" fill="#E0E0E0"/>
<path d="M264.227 213.876C264.227 213.876 257.021 206.84 261.125 195.055C263.421 188.452 271.033 183.603 275.347 183.143C273.912 184.849 272.768 186.78 271.961 188.859L266.502 192.489L271.521 190.917L270.451 195.211C270.451 195.211 265.785 198.035 265.094 198.652L270.126 197.338C270.126 197.338 269.76 209.501 264.227 213.876Z" fill="#BA68C8"/>
<path opacity="0.4" d="M264.227 213.876C264.227 213.876 257.021 206.84 261.125 195.055C263.421 188.452 271.033 183.603 275.347 183.143C273.912 184.849 272.768 186.78 271.961 188.859L266.502 192.489L271.521 190.917L270.451 195.211C270.451 195.211 265.785 198.035 265.094 198.652L270.126 197.338C270.126 197.338 269.76 209.501 264.227 213.876Z" fill="black"/>
<path d="M264.228 213.876C264.228 213.876 260.496 199.153 266.016 190.565C266.016 190.565 259.548 198.144 264.228 213.876Z" fill="white"/>
<path d="M272.469 215.867L263.665 215.759H263.577L254.773 215.867C254.773 215.867 254.671 226.704 258.017 231.146C258.945 232.325 261.105 233.178 263.631 233.178C266.157 233.178 268.331 232.345 269.252 231.146C272.571 226.717 272.469 215.867 272.469 215.867Z" fill="#37474F"/>
<path d="M272.47 215.867C272.47 218.495 268.508 220.608 263.611 220.608C258.715 220.608 254.753 218.475 254.753 215.867C254.753 213.26 258.722 211.127 263.611 211.127C268.501 211.127 272.47 213.24 272.47 215.867Z" fill="#455A64"/>
<path d="M263.611 214.608C266.659 214.608 269.239 215.583 270.154 216.938C270.376 216.625 270.499 216.252 270.506 215.867C270.506 213.991 267.417 212.481 263.611 212.481C259.805 212.481 256.717 214.005 256.717 215.867C256.723 216.253 256.848 216.627 257.076 216.938C257.983 215.583 260.564 214.608 263.611 214.608Z" fill="#263238"/>
<path d="M263.611 214.608C260.564 214.608 257.983 215.583 257.076 216.938C257.983 218.292 260.564 219.274 263.611 219.274C266.659 219.274 269.239 218.292 270.153 216.938C269.239 215.583 266.659 214.608 263.611 214.608Z" fill="#E0E0E0"/>
<path d="M263.72 217.527C263.72 217.527 260.333 217.398 257.381 212.86C256.168 210.991 255.586 210.009 255.586 210.009L260.327 209.65L254.997 208.296L252.477 204.442L256.9 204.11C255.076 203.475 253.177 203.081 251.251 202.939C251.251 202.939 247.188 195.733 245.976 194.703C249.072 194.892 252.1 195.701 254.878 197.081C257.656 198.462 260.128 200.387 262.148 202.742C268.833 210.673 264.715 217.73 263.72 217.527Z" fill="#BA68C8"/>
<path d="M263.72 217.527C263.72 217.527 265.86 204.659 252.207 196.925C252.227 196.925 266.375 203.724 263.72 217.527Z" fill="white"/>
<path d="M263.72 217.527C263.72 217.527 266.815 217.73 269.883 213.917C271.149 212.339 271.766 211.506 271.766 211.506L267.506 210.741L272.443 210.063L275.077 206.819L271.115 206.108C272.821 205.705 274.572 205.53 276.324 205.587C276.324 205.587 280.685 199.491 281.857 198.652C279.058 198.527 276.262 198.964 273.635 199.936C271.007 200.908 268.601 202.397 266.558 204.314C259.758 210.863 262.826 217.615 263.72 217.527Z" fill="#BA68C8"/>
<path opacity="0.2" d="M263.72 217.527C263.72 217.527 266.815 217.73 269.883 213.917C271.149 212.339 271.766 211.506 271.766 211.506L267.506 210.741L272.443 210.063L275.077 206.819L271.115 206.108C272.821 205.705 274.572 205.53 276.324 205.587C276.324 205.587 280.685 199.491 281.857 198.652C279.058 198.527 276.262 198.964 273.635 199.936C271.007 200.908 268.601 202.397 266.558 204.314C259.758 210.863 262.826 217.615 263.72 217.527Z" fill="black"/>
<path d="M263.72 217.527C263.72 217.527 263.002 205.722 276.032 200.02C276.032 200.02 262.629 204.821 263.72 217.527Z" fill="white"/>
<path d="M129.264 53.1842L126.183 51.9313L125.871 51.8026H125.837C125.285 51.6031 124.695 51.527 124.11 51.5796C123.525 51.6323 122.959 51.8124 122.451 52.1073L16.7046 113.142C14.4823 114.422 12.6367 116.266 11.3538 118.487C10.0709 120.708 9.39596 123.228 9.39697 125.793V217.859C9.39751 218.837 9.65562 219.798 10.1454 220.645C10.6351 221.492 11.3392 222.196 12.1869 222.684C13.0346 223.173 13.996 223.43 14.9745 223.429C15.953 223.429 16.914 223.17 17.7611 222.681L123.609 161.572C125.119 160.699 126.373 159.444 127.245 157.933C128.116 156.422 128.574 154.708 128.573 152.964V55.6562C128.575 54.9593 128.398 54.2736 128.059 53.665L129.264 53.1842Z" fill="#BA68C8"/>
<path opacity="0.3" d="M129.264 53.1842L126.183 51.9313L125.871 51.8026H125.837C125.285 51.6031 124.695 51.527 124.11 51.5796C123.525 51.6323 122.959 51.8124 122.451 52.1073L16.7046 113.142C14.4823 114.422 12.6367 116.266 11.3538 118.487C10.0709 120.708 9.39596 123.228 9.39697 125.793V217.859C9.39751 218.837 9.65562 219.798 10.1454 220.645C10.6351 221.492 11.3392 222.196 12.1869 222.684C13.0346 223.173 13.996 223.43 14.9745 223.429C15.953 223.429 16.914 223.17 17.7611 222.681L123.609 161.572C125.119 160.699 126.373 159.444 127.245 157.933C128.116 156.422 128.574 154.708 128.573 152.964V55.6562C128.575 54.9593 128.398 54.2736 128.059 53.665L129.264 53.1842Z" fill="black"/>
<path d="M131.377 56.7668V154.109C131.378 155.853 130.919 157.567 130.047 159.077C129.174 160.587 127.918 161.84 126.406 162.71L20.5579 223.825C19.7101 224.313 18.7488 224.57 17.7706 224.569C16.7923 224.568 15.8314 224.31 14.9842 223.821C14.137 223.332 13.4333 222.629 12.9435 221.782C12.4538 220.935 12.1952 219.975 12.1938 218.996V126.89C12.1944 124.366 12.8502 121.885 14.0969 119.691C15.0413 118.063 16.4047 116.718 18.0453 115.796L127.375 52.6695C128.435 52.7025 129.441 53.1435 130.185 53.9006C130.928 54.6576 131.35 55.6722 131.364 56.733L131.377 56.7668Z" fill="#BA68C8"/>
<path opacity="0.1" d="M131.377 56.7668V154.109C131.378 155.853 130.919 157.567 130.047 159.077C129.174 160.587 127.918 161.84 126.406 162.71L20.5579 223.825C19.7101 224.313 18.7488 224.57 17.7706 224.569C16.7923 224.568 15.8314 224.31 14.9842 223.821C14.137 223.332 13.4333 222.629 12.9435 221.782C12.4538 220.935 12.1952 219.975 12.1938 218.996V126.89C12.1944 124.366 12.8502 121.885 14.0969 119.691C15.0413 118.063 16.4047 116.718 18.0453 115.796L127.375 52.6695C128.435 52.7025 129.441 53.1435 130.185 53.9006C130.928 54.6576 131.35 55.6722 131.364 56.733L131.377 56.7668Z" fill="black"/>
<path d="M126.406 162.71L20.5582 223.825C19.7389 224.305 18.8098 224.564 17.8607 224.58C16.9116 224.595 15.9746 224.366 15.1401 223.913L78.3415 128.793L131.377 154.102C131.378 155.847 130.918 157.561 130.046 159.072C129.173 160.583 127.918 161.838 126.406 162.71Z" fill="#BA68C8"/>
<path opacity="0.2" d="M126.406 162.71L20.5582 223.825C19.7389 224.305 18.8098 224.564 17.8607 224.58C16.9116 224.595 15.9746 224.366 15.1401 223.913L78.3415 128.793L131.377 154.102C131.378 155.847 130.918 157.561 130.046 159.072C129.173 160.583 127.918 161.838 126.406 162.71Z" fill="black"/>
<path d="M129.596 53.3941L86.4342 143.679C85.5841 145.453 84.3769 147.032 82.8883 148.318C81.3996 149.603 79.6616 150.568 77.7829 151.151C75.9043 151.734 73.9255 151.923 71.9705 151.706C70.0155 151.489 68.1263 150.87 66.4214 149.889L14.0967 119.711C14.9898 118.125 16.2927 116.808 17.869 115.898L127.374 52.6695C128.17 52.6883 128.942 52.9403 129.596 53.3941Z" fill="#BA68C8"/>
<path d="M24.9604 90.7244L55.9652 72.8178V50.6242L33.4329 63.045C30.8666 64.4576 28.7265 66.5332 27.2362 69.0552C25.7458 71.5772 24.9599 74.4531 24.9604 77.3825V90.7244Z" fill="#BA68C8"/>
<path opacity="0.5" d="M24.9604 90.7244L55.9652 72.8178V50.6242L33.4329 63.045C30.8666 64.4576 28.7265 66.5332 27.2362 69.0552C25.7458 71.5772 24.9599 74.4531 24.9604 77.3825V90.7244Z" fill="white"/>
<path d="M153.111 4.77402L150.273 3.16893C146.669 1.08501 142.578 -0.00827903 138.415 4.72046e-05C134.251 0.00837344 130.165 1.11802 126.569 3.21634L37.896 54.8773C33.9599 57.1696 30.694 60.4542 28.4241 64.4032C26.1543 68.3522 24.96 72.8276 24.9604 77.3825C24.9601 75.0425 25.5777 72.744 26.7508 70.7194C27.9239 68.6947 29.6108 67.0157 31.6409 65.8522C33.6711 64.6887 35.9725 64.0819 38.3124 64.0932C40.6523 64.1045 42.9477 64.7335 44.9665 65.9166L48.6779 68.0905C52.542 70.3523 55.7472 73.5857 57.9748 77.4696C60.2025 81.3535 61.3752 85.7526 61.3764 90.23V221.983L55.3285 237.336L66.6861 230.422L157.987 177.447C161.23 175.567 163.921 172.867 165.791 169.618C167.661 166.369 168.643 162.686 168.64 158.937V31.722C168.639 26.2634 167.204 20.9009 164.479 16.1714C161.753 11.442 157.833 7.51161 153.111 4.77402Z" fill="#BA68C8"/>
<path opacity="0.7" d="M153.111 4.77402L150.273 3.16893C146.669 1.08501 142.578 -0.00827903 138.415 4.72046e-05C134.251 0.00837344 130.165 1.11802 126.569 3.21634L37.896 54.8773C33.9599 57.1696 30.694 60.4542 28.4241 64.4032C26.1543 68.3522 24.96 72.8276 24.9604 77.3825C24.9601 75.0425 25.5777 72.744 26.7508 70.7194C27.9239 68.6947 29.6108 67.0157 31.6409 65.8522C33.6711 64.6887 35.9725 64.0819 38.3124 64.0932C40.6523 64.1045 42.9477 64.7335 44.9665 65.9166L48.6779 68.0905C52.542 70.3523 55.7472 73.5857 57.9748 77.4696C60.2025 81.3535 61.3752 85.7526 61.3764 90.23V221.983L55.3285 237.336L66.6861 230.422L157.987 177.447C161.23 175.567 163.921 172.867 165.791 169.618C167.661 166.369 168.643 162.686 168.64 158.937V31.722C168.639 26.2634 167.204 20.9009 164.479 16.1714C161.753 11.442 157.833 7.51161 153.111 4.77402Z" fill="white"/>
<path d="M28.6377 225.363C28.6377 225.363 34.9971 234.661 45.2169 237.743C56.2087 241.055 61.3762 233.767 61.3762 224.103V206.623L28.6377 225.363Z" fill="#BA68C8"/>
<path opacity="0.5" d="M28.6377 225.363C28.6377 225.363 34.9971 234.661 45.2169 237.743C56.2087 241.055 61.3762 233.767 61.3762 224.103V206.623L28.6377 225.363Z" fill="white"/>
<path d="M81.1321 131.847C80.9125 131.844 80.6999 131.769 80.5267 131.634C80.3535 131.499 80.2291 131.311 80.1724 131.099C80.1157 130.887 80.1298 130.662 80.2126 130.458C80.2953 130.255 80.4422 130.084 80.6309 129.971L148.356 90.8531C148.587 90.7202 148.861 90.6844 149.119 90.7536C149.376 90.8228 149.595 90.9914 149.728 91.2222C149.861 91.453 149.897 91.7271 149.827 91.9843C149.758 92.2415 149.59 92.4607 149.359 92.5936L81.6333 131.712C81.4805 131.799 81.308 131.846 81.1321 131.847Z" fill="white"/>
<path d="M81.1317 146.848C80.9114 146.848 80.6974 146.775 80.5228 146.641C80.3481 146.507 80.2226 146.318 80.1655 146.106C80.1085 145.893 80.1231 145.667 80.2072 145.464C80.2912 145.26 80.44 145.09 80.6305 144.979L148.356 105.854C148.587 105.721 148.861 105.686 149.118 105.755C149.375 105.824 149.594 105.993 149.727 106.223C149.86 106.454 149.896 106.728 149.827 106.986C149.758 107.243 149.589 107.462 149.358 107.595L81.6328 146.747C81.477 146.822 81.3046 146.857 81.1317 146.848Z" fill="white"/>
<path d="M81.1317 161.843C80.9114 161.842 80.6974 161.769 80.5228 161.635C80.3481 161.501 80.2226 161.313 80.1655 161.1C80.1085 160.887 80.1231 160.662 80.2072 160.458C80.2912 160.255 80.44 160.084 80.6305 159.974L148.356 120.855C148.585 120.736 148.851 120.71 149.099 120.783C149.346 120.855 149.557 121.02 149.686 121.243C149.815 121.467 149.853 121.731 149.792 121.982C149.731 122.233 149.576 122.45 149.358 122.589L81.6328 161.707C81.4801 161.795 81.3076 161.841 81.1317 161.843Z" fill="white"/>
<path d="M81.1317 176.837C80.9114 176.837 80.6974 176.764 80.5228 176.63C80.3481 176.495 80.2226 176.307 80.1655 176.095C80.1085 175.882 80.1231 175.656 80.2072 175.453C80.2912 175.249 80.44 175.079 80.6305 174.968L148.356 135.85C148.585 135.731 148.851 135.705 149.099 135.777C149.346 135.849 149.557 136.014 149.686 136.238C149.815 136.461 149.853 136.726 149.792 136.976C149.731 137.227 149.576 137.445 149.358 137.584L81.6328 176.702C81.4814 176.792 81.308 176.839 81.1317 176.837Z" fill="white"/>
<path d="M81.1317 191.832C80.9114 191.831 80.6974 191.758 80.5228 191.624C80.3481 191.49 80.2226 191.302 80.1655 191.089C80.1085 190.876 80.1231 190.651 80.2072 190.447C80.2912 190.243 80.44 190.073 80.6305 189.962L148.356 150.844C148.585 150.725 148.851 150.699 149.099 150.771C149.346 150.844 149.557 151.009 149.686 151.232C149.815 151.455 149.853 151.72 149.792 151.971C149.731 152.221 149.576 152.439 149.358 152.578L81.6328 191.696C81.4814 191.786 81.308 191.833 81.1317 191.832Z" fill="white"/>
<path d="M125.608 181.145C125.432 181.146 125.259 181.1 125.106 181.012C124.954 180.924 124.828 180.797 124.741 180.643C124.613 180.415 124.579 180.145 124.647 179.892C124.716 179.638 124.881 179.422 125.107 179.289L148.37 165.839C148.599 165.72 148.866 165.694 149.113 165.766C149.361 165.838 149.571 166.003 149.701 166.226C149.83 166.45 149.868 166.714 149.807 166.965C149.746 167.216 149.59 167.433 149.373 167.572L126.109 181.016C125.956 181.101 125.783 181.145 125.608 181.145Z" fill="white"/>
<path d="M128.296 75.3914L108.777 86.6609V77.0439C108.777 70.3594 112.841 62.5913 117.859 59.6926L119.214 58.9138C124.226 56.0151 128.296 59.0899 128.296 65.7744V75.3914Z" fill="#BA68C8"/>
<path d="M132.841 78.5812L104.233 95.0995L108.778 84.5749L128.296 73.3054L132.841 78.5812Z" fill="#BA68C8"/>
<path d="M118.57 62.4761C117.724 62.9637 117.04 62.5709 117.04 61.5957V57.8505C117.069 57.3199 117.223 56.8038 117.489 56.3438C117.755 55.8837 118.125 55.4927 118.57 55.2024C119.41 54.7148 120.094 55.1076 120.094 56.0828V59.8348C120.064 60.3636 119.911 60.878 119.646 61.3367C119.382 61.7954 119.013 62.1857 118.57 62.4761Z" fill="#BA68C8"/>
<path d="M115.286 90.1284C115.367 92.0721 116.79 92.8374 118.537 91.8283C119.453 91.2297 120.22 90.4309 120.782 89.4924C121.344 88.5539 121.686 87.5 121.781 86.4103L115.286 90.1284Z" fill="#BA68C8"/>
<path d="M214.754 60.8439C222.62 60.8439 228.997 54.4673 228.997 46.6013C228.997 38.7353 222.62 32.3586 214.754 32.3586C206.888 32.3586 200.511 38.7353 200.511 46.6013C200.511 54.4673 206.888 60.8439 214.754 60.8439Z" fill="#BA68C8"/>
<path d="M212.215 57.6744C212.215 57.6744 213.488 62.1984 208.334 66.3974C208.334 66.3974 216.271 65.5983 216.705 58.0536L212.215 57.6744Z" fill="#BA68C8"/>
<path d="M216.156 47.9151H213.095L212.33 40.5669H216.921L216.156 47.9151ZM214.625 52.6559C214.344 52.6752 214.061 52.6374 213.794 52.5448C213.527 52.4521 213.282 52.3066 213.072 52.1169C212.863 51.9272 212.694 51.6972 212.576 51.4407C212.458 51.1842 212.392 50.9065 212.384 50.6241C212.445 50.0721 212.707 49.5619 213.121 49.1912C213.534 48.8206 214.07 48.6157 214.625 48.6157C215.181 48.6157 215.717 48.8206 216.13 49.1912C216.544 49.5619 216.806 50.0721 216.867 50.6241C216.857 50.9053 216.79 51.1816 216.671 51.4365C216.552 51.6914 216.383 51.9198 216.174 52.1081C215.965 52.2964 215.72 52.4407 215.454 52.5325C215.188 52.6242 214.906 52.6616 214.625 52.6424V52.6559Z" fill="white"/>
<path d="M186.634 101.655C185.168 101.542 183.697 101.791 182.35 102.382C181.003 102.973 179.823 103.886 178.914 105.042C175.9 109.01 169.52 118.397 169.52 118.397C169.52 118.397 166.852 115.437 165.104 113.358C163.357 111.279 161.718 109.518 161.718 109.518C161.488 108.399 161.316 107.269 161.203 106.132C161.054 104.52 160.838 103.423 159.659 102.319C158.481 101.215 157.58 100.179 157.485 99.3391C157.39 98.4993 156.808 97.6595 156.063 98.5196C155.318 99.3797 155.386 102.021 156.943 103.782C156.943 103.782 154.16 102.488 152.88 100.971C151.6 99.4542 149.947 96.8129 149.216 97.5443C148.485 98.2758 147.083 106.152 149.216 107.906C151.349 109.66 156.625 112.647 156.625 112.647C156.625 112.647 163.52 129.524 168.369 129.524C173.218 129.524 181.237 117.049 181.237 117.049L186.634 101.655Z" fill="#FFA8A7"/>
<path d="M178.027 189.766L179.524 212.664C179.524 212.664 180.878 215.089 183.486 215.089L185.856 212.502C185.824 209.439 186.08 206.38 186.621 203.365C187.502 198.74 189.208 191.974 189.703 188.066L178.027 189.766Z" fill="#FFA8A7"/>
<path d="M179.374 138.037C179.374 138.037 178.182 145.738 177.593 153.228C177.125 159.202 176.821 167.484 176.712 170.593C176.686 171.406 176.704 172.22 176.766 173.031L178.026 189.766C178.026 189.766 185.428 193.017 189.715 188.066C189.715 188.066 190.237 183.271 189.492 179.939C189.056 177.835 189.109 175.66 189.648 173.58L194.287 154.942V137.875L179.374 138.037Z" fill="#37474F"/>
<path d="M182.971 144.424C183.284 145.792 183.966 147.049 184.942 148.058C185.919 149.067 187.153 149.789 188.511 150.147L191.281 167.01L195.344 152.233V144.424H182.971Z" fill="#263238"/>
<path d="M197.369 193.179L202.048 218.99H207.108C207.108 218.99 209.024 197.243 208.923 191.31L197.369 193.179Z" fill="#FFA8A7"/>
<path d="M181.738 137.868C181.738 137.868 180.749 147.831 189.662 148.704L194.288 178.375L197.369 193.173C197.369 193.173 204.589 197.88 208.923 191.303C208.923 191.303 209.363 183.854 207.569 178.72C207.101 177.387 206.907 175.972 207 174.562C207.501 167.288 208.883 145.948 208.205 141.22L203.749 135.389L181.738 137.868Z" fill="#37474F"/>
<path d="M197.964 102.725H202.488L205.516 117.835L203.524 124.303C203.104 125.643 203.2 127.093 203.795 128.366C205.15 131.319 207.662 137.089 208.211 141.234C206.944 141.327 205.676 141.074 204.542 140.503C203.408 139.931 202.45 139.063 201.77 137.99C201.77 137.99 197.971 142.995 188.726 142.995C184.243 142.995 180.599 139.697 179.374 138.044L181.033 130.554C181.17 129.945 181.22 129.321 181.182 128.698C181.094 127.147 180.924 123.957 180.965 121.533C180.965 121.533 176.671 119.826 177.775 114.543C178.879 109.261 186.634 101.676 186.634 101.676L189.959 101.804L197.964 102.725Z" fill="#BA68C8"/>
<path d="M187.054 73.6034C187.054 73.6034 181.568 71.7003 180.227 77.3147C178.886 82.9292 183.017 88.3811 176.841 90.2503C176.841 90.2503 180.484 93.2844 183.695 87.6158L186.404 99.1291C186.404 99.1291 186.404 99.759 185.442 100.24C185.442 100.24 201.019 103.707 204.019 95.9325C204.433 96.38 204.714 96.9329 204.834 97.5304C204.953 98.1278 204.906 98.7466 204.696 99.3188C204.696 99.3188 209.295 97.4563 208.001 91.5032C208.001 91.5032 211.638 91.4016 212.505 88.442C212.505 88.442 206.687 88.7197 206.721 82.2993C206.762 74.8834 202.861 75.9602 202.861 75.9602C202.861 75.9602 198.086 68.8626 187.054 73.6034Z" fill="#455A64"/>
<path d="M189.959 96.8332V101.784C189.959 101.784 184.832 107.486 189.831 107.94C194.829 108.394 197.958 102.725 197.958 102.725V92.255L189.959 96.8332Z" fill="#FFA8A7"/>
<path d="M197.877 90.6025V90.8869C196.095 97.9304 191.456 99.461 189.959 99.8199L189.905 88.9229L197.653 88.8823L197.877 90.6025Z" fill="#F28F8F"/>
<path d="M190.467 74.9579C187.507 75.2017 181.358 77.3622 181.27 85.1574C181.182 92.9526 182.367 98.8989 186.41 99.1427C190.453 99.3865 199.481 95.7564 199.901 85.5976C200.321 75.4388 193.345 74.687 190.467 74.9579Z" fill="#FFA8A7"/>
<path d="M186.723 88.2524L186.797 92.8307L184.102 92.0518L186.723 88.2524Z" fill="#F28F8F"/>
<path d="M190.745 88.1305C190.75 88.3159 190.698 88.4983 190.598 88.6544C190.498 88.8106 190.354 88.9336 190.184 89.0076C190.014 89.0817 189.826 89.1035 189.644 89.0703C189.461 89.0371 189.293 88.9504 189.16 88.8212C189.027 88.6921 188.935 88.5262 188.897 88.3449C188.858 88.1635 188.875 87.9748 188.944 87.8027C189.013 87.6306 189.131 87.483 189.285 87.3785C189.438 87.2741 189.619 87.2176 189.804 87.2162C189.926 87.2135 190.048 87.2351 190.161 87.2798C190.275 87.3244 190.379 87.3912 190.466 87.4763C190.554 87.5614 190.624 87.6631 190.672 87.7754C190.719 87.8877 190.745 88.0084 190.745 88.1305Z" fill="#263238"/>
<path d="M184.602 87.5684C184.605 87.6908 184.583 87.8125 184.539 87.9266C184.494 88.0406 184.427 88.1447 184.342 88.2328C184.257 88.321 184.156 88.3914 184.043 88.4401C183.931 88.4888 183.81 88.5148 183.688 88.5165C183.503 88.5205 183.321 88.4695 183.165 88.3699C183.009 88.2702 182.886 88.1265 182.811 87.9569C182.737 87.7873 182.715 87.5995 182.748 87.4173C182.78 87.2351 182.866 87.0667 182.995 86.9334C183.123 86.8001 183.288 86.708 183.469 86.6688C183.65 86.6295 183.839 86.6449 184.011 86.7129C184.183 86.7809 184.331 86.8985 184.436 87.0509C184.542 87.2032 184.599 87.3833 184.602 87.5684Z" fill="#263238"/>
<path d="M189.241 94.3138C188.226 94.5728 187.227 94.8894 186.248 95.262C186.248 95.262 185.97 93.6705 187.291 93.3047C187.683 93.2219 188.091 93.2772 188.446 93.4611C188.802 93.645 189.083 93.9463 189.241 94.3138Z" fill="#F28F8F"/>
<path d="M184.264 84.1212L182.456 85.2251C182.456 85.2251 183.133 85.943 183.851 85.496C184.05 85.335 184.196 85.1176 184.27 84.8724C184.343 84.6271 184.341 84.3653 184.264 84.1212Z" fill="#263238"/>
<path d="M195.222 88.1034C195.222 88.1034 195.154 90.9885 197.044 90.9885H200.748V84.7375C200.748 77.7211 195.425 70.3932 184.102 76.1905C184.102 76.1905 183.438 85.9498 195.222 88.1034Z" fill="#455A64"/>
<path d="M182.74 90.8328C180.979 90.8328 179.543 89.6137 179.543 88.1237C179.543 86.6338 180.979 85.4147 182.74 85.4147C184.5 85.4147 185.936 86.6338 185.936 88.1237C185.936 89.6137 184.5 90.8328 182.74 90.8328ZM182.74 85.9362C181.284 85.9362 180.098 86.9115 180.098 88.1034C180.098 89.2954 181.284 90.2774 182.74 90.2774C184.196 90.2774 185.381 89.3022 185.381 88.1034C185.381 86.9047 184.196 85.9362 182.74 85.9362Z" fill="#BA68C8"/>
<path d="M190.603 90.8531C188.632 90.8531 187.02 89.6205 187.02 88.1034C187.02 86.5864 188.632 85.3944 190.603 85.3944C192.573 85.3944 194.185 86.627 194.185 88.1034C194.185 89.5798 192.58 90.8531 190.603 90.8531ZM190.603 85.9497C188.957 85.9497 187.609 86.9182 187.609 88.1034C187.609 89.2886 188.964 90.2639 190.603 90.2639C192.242 90.2639 193.596 89.2954 193.596 88.1034C193.596 86.9115 192.255 85.9497 190.603 85.9497Z" fill="#BA68C8"/>
<path d="M187.318 87.8122H185.659V88.4014H187.318V87.8122Z" fill="#BA68C8"/>
<path d="M198.175 87.8122H193.895V88.4014H198.175V87.8122Z" fill="#BA68C8"/>
<path d="M197.03 90.6093C197.007 89.8944 197.146 89.1836 197.436 88.5301C197.578 88.1232 197.835 87.7666 198.177 87.5042C198.519 87.2419 198.93 87.0853 199.36 87.0537C201.567 87.0198 201.838 89.1464 201.804 89.8981C201.703 91.8825 200.077 94.0091 197.064 94.0565L197.03 90.6093Z" fill="#FFA8A7"/>
<path d="M202.489 102.725C202.489 102.725 197.328 115.065 205.516 117.835L207.311 114.002C207.311 114.002 222.292 100.28 225.956 97.2734C229.62 94.2664 224.919 89.8237 220.375 85.6585C215.831 81.4934 211.273 77.4638 211.273 77.4638L208.997 73.4341C208.747 72.994 208.406 72.612 207.998 72.3132C207.589 72.0143 207.122 71.8055 206.627 71.7003C204.243 71.2059 199.753 70.3458 197.328 70.488C193.942 70.6709 199.055 74.8902 199.915 74.8902C200.69 74.9133 201.446 75.1346 202.111 75.533C202.776 75.9313 203.328 76.4935 203.715 77.1658C204.744 79.0011 204.927 82.3061 208.212 82.1571L215.824 93.5282L202.489 102.725Z" fill="#FFA8A7"/>
<path d="M215.824 93.5282L218.465 96.9077L214.348 94.5509L215.824 93.5282Z" fill="#F28F8F"/>
<path d="M169.52 118.404L171.87 121.12L170.509 116.961L169.52 118.404Z" fill="#F28F8F"/>
<path opacity="0.2" d="M189.817 121.777C189.817 121.777 196.59 122.325 198.689 115.891C198.689 115.891 198.771 124.093 189.817 121.777Z" fill="black"/>
<path d="M178.879 213.653C178.879 213.653 177.938 210.7 179.394 210.544C180.85 210.389 183.424 211.161 183.681 211.933C183.838 212.443 183.902 212.978 183.871 213.511C184.581 213.27 185.253 212.93 185.868 212.502V211.411C185.868 211.411 187.385 211.56 187.501 212.698C187.616 213.836 187.636 215.224 187.683 216.518C187.771 219.132 188.158 220.879 185.184 221.651C183.064 222.184 181.15 223.334 179.685 224.956C178.669 226.029 177.403 226.835 176.001 227.301C174.599 227.768 173.103 227.881 171.646 227.631C167.169 227.008 167.427 223.229 169.005 222.017C170.521 220.9 172.143 219.934 173.847 219.132L178.879 213.653Z" fill="#BA68C8"/>
<path d="M177.281 222.003C177.214 222.005 177.148 221.988 177.09 221.953C177.033 221.918 176.986 221.867 176.956 221.807C176.238 220.651 175.095 219.822 173.773 219.498C173.725 219.487 173.68 219.467 173.639 219.439C173.599 219.411 173.564 219.375 173.538 219.333C173.511 219.292 173.493 219.245 173.485 219.197C173.477 219.148 173.478 219.099 173.489 219.051C173.499 219.003 173.519 218.959 173.547 218.919C173.575 218.879 173.61 218.846 173.651 218.82C173.692 218.794 173.738 218.776 173.785 218.768C173.833 218.76 173.882 218.762 173.929 218.773C174.691 218.957 175.409 219.291 176.041 219.757C176.672 220.222 177.205 220.808 177.607 221.482C177.637 221.538 177.653 221.601 177.652 221.665C177.65 221.729 177.633 221.791 177.6 221.846C177.567 221.901 177.52 221.946 177.464 221.977C177.408 222.009 177.345 222.025 177.281 222.024V222.003Z" fill="#FAFAFA"/>
<path d="M178.995 220.175C178.928 220.177 178.861 220.159 178.804 220.124C178.746 220.089 178.7 220.039 178.67 219.978C177.951 218.822 176.809 217.993 175.487 217.669C175.391 217.648 175.307 217.59 175.254 217.507C175.201 217.425 175.182 217.325 175.202 217.229C175.212 217.181 175.231 217.135 175.259 217.095C175.286 217.055 175.321 217.02 175.362 216.994C175.403 216.967 175.449 216.949 175.497 216.941C175.546 216.932 175.595 216.933 175.642 216.944C176.405 217.127 177.124 217.461 177.755 217.927C178.387 218.392 178.919 218.979 179.32 219.653C179.366 219.74 179.376 219.841 179.348 219.934C179.32 220.028 179.257 220.107 179.171 220.155C179.114 220.174 179.054 220.181 178.995 220.175Z" fill="#FAFAFA"/>
<path d="M180.709 218.346C180.642 218.346 180.576 218.328 180.519 218.294C180.461 218.259 180.415 218.209 180.384 218.15C179.661 216.997 178.52 216.169 177.2 215.84C177.106 215.818 177.024 215.759 176.972 215.677C176.92 215.595 176.902 215.495 176.923 215.4C176.932 215.353 176.95 215.307 176.977 215.267C177.004 215.227 177.038 215.192 177.079 215.165C177.119 215.139 177.165 215.121 177.212 215.112C177.26 215.104 177.309 215.105 177.356 215.116C178.12 215.299 178.839 215.634 179.472 216.099C180.104 216.564 180.638 217.151 181.04 217.825C181.086 217.912 181.095 218.014 181.066 218.107C181.037 218.201 180.972 218.28 180.885 218.326C180.828 218.346 180.768 218.353 180.709 218.346Z" fill="#FAFAFA"/>
<path d="M202.049 218.99C201.993 218.701 202.006 218.403 202.085 218.119C202.164 217.835 202.307 217.574 202.504 217.355C202.7 217.136 202.945 216.965 203.219 216.857C203.492 216.748 203.787 216.704 204.081 216.728C206.451 216.728 208.144 216.795 207.934 218.556V219.816C207.934 219.816 207.934 226.094 208.408 228.126C208.882 230.158 210.047 236.591 205.212 237.533C200.376 238.474 198.615 234.35 199.495 230.442C200.041 228.24 200.373 225.99 200.484 223.724C200.593 222.295 200.044 217.066 201.615 216.728L202.049 218.99Z" fill="#BA68C8"/>
<path d="M206.478 226.765C206.415 226.763 206.354 226.744 206.301 226.71C205.073 226.121 203.663 226.036 202.373 226.473C202.328 226.491 202.28 226.499 202.231 226.497C202.183 226.496 202.135 226.484 202.091 226.464C202.047 226.444 202.007 226.415 201.974 226.38C201.941 226.344 201.916 226.302 201.899 226.257C201.882 226.211 201.874 226.162 201.875 226.113C201.877 226.064 201.888 226.016 201.908 225.971C201.928 225.927 201.957 225.886 201.993 225.853C202.028 225.819 202.07 225.793 202.116 225.776C202.856 225.521 203.64 225.416 204.421 225.466C205.202 225.516 205.965 225.72 206.667 226.067C206.752 226.116 206.814 226.198 206.84 226.293C206.865 226.388 206.852 226.49 206.803 226.575C206.771 226.633 206.724 226.681 206.666 226.715C206.609 226.748 206.544 226.765 206.478 226.765Z" fill="#FAFAFA"/>
<path d="M206.735 223.954C206.671 223.951 206.609 223.935 206.552 223.907C205.328 223.314 203.919 223.226 202.631 223.663C202.585 223.688 202.534 223.703 202.482 223.707C202.43 223.711 202.378 223.703 202.329 223.685C202.279 223.667 202.235 223.639 202.198 223.602C202.161 223.565 202.132 223.521 202.113 223.472C202.095 223.423 202.087 223.371 202.09 223.319C202.093 223.266 202.108 223.216 202.133 223.169C202.157 223.123 202.191 223.083 202.233 223.051C202.275 223.02 202.322 222.997 202.373 222.985C203.112 222.727 203.894 222.62 204.675 222.67C205.456 222.72 206.218 222.927 206.918 223.277C206.96 223.3 206.998 223.332 207.028 223.369C207.058 223.407 207.08 223.451 207.094 223.497C207.107 223.544 207.111 223.593 207.105 223.641C207.099 223.689 207.084 223.736 207.06 223.778C207.026 223.833 206.978 223.878 206.921 223.909C206.864 223.94 206.8 223.955 206.735 223.954Z" fill="#FAFAFA"/>
<path d="M206.992 221.184C206.928 221.181 206.866 221.165 206.809 221.137C205.581 220.548 204.172 220.461 202.881 220.893C202.835 220.919 202.784 220.934 202.731 220.939C202.678 220.943 202.625 220.936 202.575 220.918C202.526 220.899 202.48 220.871 202.443 220.833C202.405 220.796 202.377 220.751 202.358 220.701C202.34 220.652 202.332 220.598 202.337 220.546C202.341 220.493 202.356 220.442 202.382 220.395C202.408 220.349 202.444 220.309 202.487 220.278C202.529 220.247 202.578 220.226 202.63 220.215C203.369 219.957 204.152 219.85 204.932 219.9C205.713 219.95 206.475 220.156 207.175 220.507C207.217 220.53 207.255 220.562 207.285 220.599C207.315 220.637 207.338 220.681 207.351 220.728C207.364 220.774 207.368 220.823 207.362 220.871C207.356 220.919 207.341 220.966 207.317 221.008C207.283 221.063 207.235 221.108 207.178 221.139C207.121 221.17 207.057 221.185 206.992 221.184Z" fill="#FAFAFA"/>
<path d="M172.154 219.999C171.056 220.598 170.004 221.277 169.005 222.031C167.427 223.243 167.169 227.022 171.646 227.645C173.531 227.955 175.465 227.669 177.179 226.825C176.969 225.362 176.4 223.972 175.524 222.781C174.647 221.59 173.489 220.634 172.154 219.999Z" fill="white"/>
<path d="M185.185 221.076C183.065 221.608 181.15 222.758 179.685 224.381C178.669 225.454 177.403 226.259 176.001 226.726C174.599 227.192 173.103 227.306 171.646 227.056C169.14 226.71 168.118 225.369 167.982 224.042C167.854 225.532 168.775 227.232 171.646 227.631C173.103 227.881 174.599 227.768 176.001 227.301C177.403 226.835 178.669 226.029 179.685 224.956C181.15 223.334 183.065 222.184 185.185 221.651C187.528 221.048 187.785 219.829 187.745 218.062C187.697 219.518 187.264 220.568 185.185 221.076Z" fill="#37474F"/>
<path d="M208.842 230.598C207.619 229.352 205.956 228.637 204.211 228.608C202.466 228.579 200.779 229.238 199.516 230.442C198.636 234.35 200.396 238.474 205.232 237.533C208.74 236.822 209.099 233.286 208.842 230.598Z" fill="#F5F5F5"/>
<path d="M205.259 236.768C201.371 237.526 199.475 235.007 199.333 231.959C199.17 235.345 201.046 238.352 205.259 237.533C208.381 236.923 209.004 234.038 208.93 231.519C208.828 233.828 208.036 236.219 205.259 236.768Z" fill="#455A64"/>
</svg>
