<svg width="346" height="276" viewBox="0 0 346 276" fill="none" xmlns="http://www.w3.org/2000/svg">
<path d="M50.5776 248.859C118.014 284.089 227.358 284.089 294.795 248.859C362.232 213.63 362.232 156.51 294.795 121.272C227.358 86.0349 118.045 86.0426 50.5776 121.272C-16.89 156.502 -16.8284 213.63 50.5776 248.859Z" fill="#F5F5F5" fill-opacity="0.33"/>
<path d="M31.7786 191.084L9.85742 178.431V131.412L31.7786 144.072V191.084Z" fill="#E0E0E0"/>
<path d="M31.7788 144.072L63.0992 125.991V173.003L31.7788 191.084V144.072Z" fill="#EBEBEB"/>
<path d="M63.099 125.991L31.7786 144.072L9.85742 131.412L41.1778 113.33L63.099 125.991Z" fill="#F5F5F5"/>
<path d="M34.9169 145.877L59.9686 131.412L60.5469 131.743V149.161L35.4875 163.627L34.9092 163.295L34.9169 145.877Z" fill="#E0E0E0"/>
<path d="M35.4878 146.216L60.5472 131.743V149.161L35.4878 163.627V146.216Z" fill="#F5F5F5"/>
<path d="M45.311 143.494L49.5749 141.035C50.1224 140.711 50.5696 140.857 50.5696 141.358C50.5299 141.665 50.4193 141.959 50.2467 142.216C50.0741 142.473 49.8441 142.686 49.5749 142.839L45.311 145.298C44.7558 145.622 44.3086 145.476 44.3086 144.975C44.3486 144.667 44.46 144.373 44.6341 144.115C44.8082 143.858 45.04 143.646 45.311 143.494Z" fill="#E0E0E0"/>
<path d="M34.3389 167.914L59.3906 153.449V170.867L59.9689 171.198L34.9094 185.663L34.3389 185.332V167.914Z" fill="#E0E0E0"/>
<path d="M34.9092 168.245L59.9686 153.78V171.198L34.9092 185.663V168.245Z" fill="#F5F5F5"/>
<path d="M44.7329 165.531L49.0354 163.079C49.5905 162.755 50.0378 162.902 50.0378 163.403C49.9978 163.711 49.8863 164.005 49.7122 164.262C49.5382 164.519 49.3064 164.732 49.0354 164.883L44.7714 167.343C44.2163 167.667 43.769 167.52 43.769 167.019C43.8037 166.714 43.9088 166.42 44.076 166.162C44.2432 165.904 44.4681 165.688 44.7329 165.531Z" fill="#E0E0E0"/>
<path d="M31.7786 141.358L9.85742 128.698V81.6861L31.7786 94.3392V141.358Z" fill="#E0E0E0"/>
<path d="M31.7788 94.3392L63.0992 76.2578V123.277L31.7788 141.358V94.3392Z" fill="#EBEBEB"/>
<path d="M63.0995 76.2579L31.7791 94.3392L9.85791 81.6861L41.1783 63.6048L63.0995 76.2579Z" fill="#F5F5F5"/>
<path d="M34.9092 96.1512L59.9686 81.6861L60.5469 82.0177V99.4359L35.4875 113.901L34.9092 113.562V96.1512Z" fill="#E0E0E0"/>
<path d="M45.311 93.7609L49.5672 91.3012C50.1224 90.9851 50.5696 91.1316 50.5696 91.6328C50.5284 91.9403 50.4165 92.234 50.2426 92.4909C50.0686 92.7478 49.8375 92.9608 49.5672 93.1132L45.311 95.5729C44.7558 95.889 44.3086 95.7502 44.3086 95.249C44.3492 94.9403 44.4608 94.6453 44.6348 94.3871C44.8087 94.1288 45.0402 93.9145 45.311 93.7609Z" fill="#E0E0E0"/>
<path d="M34.3389 118.188L59.3906 103.723V121.133L59.9689 121.465L34.9094 135.93L34.3389 135.599V118.188Z" fill="#E0E0E0"/>
<path d="M34.9092 118.52L59.9686 104.055V121.465L34.9092 135.93V118.52Z" fill="#F5F5F5"/>
<path d="M44.7324 115.798L49.0349 113.338C49.5823 113.022 50.0372 113.168 50.0372 113.67C49.9938 113.976 49.881 114.269 49.7073 114.526C49.5336 114.782 49.3036 114.996 49.0349 115.15L44.7324 117.587C44.1772 117.903 43.73 117.756 43.73 117.263C43.7739 116.958 43.8871 116.668 44.0609 116.414C44.2347 116.16 44.4644 115.949 44.7324 115.798Z" fill="#E0E0E0"/>
<path d="M34.9092 96.1512L59.9686 81.6861V99.0966L34.9092 113.562V96.1512Z" fill="#E0E0E0"/>
<path d="M72.4984 90.2911L58.7812 82.3723V97.7164L72.4984 105.627V90.2911Z" fill="#E0E0E0"/>
<path d="M44.3086 116.044V94.3392L49.6829 91.2241L50.5696 92.5349L66.2298 83.4904V103.384L44.3086 116.044Z" fill="#EBEBEB"/>
<path d="M44.3086 116.044L45.8738 97.0533L67.795 84.4002L66.2298 103.384L44.3086 116.044Z" fill="#F5F5F5"/>
<path d="M47.4392 104.756L35.4878 97.8552V113.199L47.4392 120.093V104.756Z" fill="#EBEBEB"/>
<path d="M47.439 103.384L72.4984 88.9186V106.329L47.439 120.794V103.384Z" fill="#F5F5F5"/>
<path d="M57.2626 100.662L61.5189 98.2022C62.074 97.886 62.5212 98.0325 62.5212 98.5337C62.4795 98.841 62.3674 99.1346 62.1935 99.3914C62.0196 99.6482 61.7887 99.8613 61.5189 100.014L57.2626 102.474C56.7075 102.79 56.2603 102.643 56.2603 102.15C56.3008 101.841 56.4125 101.546 56.5864 101.288C56.7603 101.03 56.9918 100.815 57.2626 100.662Z" fill="#E0E0E0"/>
<path d="M47.4392 103.384L46.6064 102.906V120.316L47.4392 120.794V103.384Z" fill="#E0E0E0"/>
<path d="M46.6064 102.906L71.6581 88.4329L72.4986 88.9186L47.4392 103.384L46.6064 102.906Z" fill="#EBEBEB"/>
<path d="M290.762 162.601L268.833 149.94V102.929L290.762 115.582V162.601Z" fill="#E0E0E0"/>
<path d="M290.762 115.582L322.083 97.5005V144.52L290.762 162.601V115.582Z" fill="#EBEBEB"/>
<path d="M322.082 97.5005L290.762 115.582L268.833 102.929L300.161 84.8397L322.082 97.5005Z" fill="#F5F5F5"/>
<path d="M293.893 117.394L318.952 102.929L319.53 103.26L319.523 120.671L294.471 135.136L293.893 134.804V117.394Z" fill="#E0E0E0"/>
<path d="M294.471 117.725L319.53 103.26L319.522 120.671L294.471 135.136V117.725Z" fill="#F5F5F5"/>
<path d="M304.294 115.004L308.55 112.544C309.105 112.228 309.552 112.374 309.552 112.868C309.512 113.176 309.4 113.471 309.226 113.73C309.052 113.988 308.821 114.202 308.55 114.356L304.294 116.816C303.739 117.132 303.292 116.985 303.292 116.492C303.332 116.183 303.444 115.888 303.618 115.63C303.792 115.372 304.023 115.157 304.294 115.004Z" fill="#E0E0E0"/>
<path d="M293.314 139.431L318.374 124.958V142.376L318.952 142.708L293.893 157.173L293.314 156.841V139.431Z" fill="#E0E0E0"/>
<path d="M293.893 139.762L318.952 125.297V142.708L293.893 157.173V139.762Z" fill="#F5F5F5"/>
<path d="M303.716 137.04L307.98 134.581C308.527 134.265 308.974 134.411 308.974 134.905C308.933 135.212 308.823 135.506 308.65 135.764C308.478 136.022 308.248 136.237 307.98 136.393L303.716 138.852C303.161 139.169 302.713 139.022 302.713 138.521C302.755 138.214 302.867 137.92 303.041 137.663C303.215 137.406 303.446 137.193 303.716 137.04Z" fill="#E0E0E0"/>
<path d="M82.1916 211.741C82.1916 211.741 82.2765 199.512 74.5659 190.344C67.742 182.224 64.1103 177.074 66.2616 174.699C68.4128 172.324 73.0392 171.753 79.277 178.323C85.5149 184.892 86.0007 203.089 85.1371 207.207L82.1916 211.741Z" fill="#BA68C8"/>
<path opacity="0.2" d="M82.1916 211.741C82.1916 211.741 82.2765 199.512 74.5659 190.344C67.742 182.224 64.1103 177.074 66.2616 174.699C68.4128 172.324 73.0392 171.753 79.277 178.323C85.5149 184.892 86.0007 203.089 85.1371 207.207L82.1916 211.741Z" fill="black"/>
<path d="M83.4867 198.594C83.3989 198.594 83.3136 198.565 83.2449 198.51C83.1762 198.455 83.1282 198.379 83.1089 198.293C80.4102 185.671 73.4861 178.693 69.5922 175.655C69.5116 175.593 69.459 175.501 69.446 175.4C69.433 175.298 69.4606 175.196 69.5228 175.115C69.5867 175.034 69.6799 174.981 69.7823 174.968C69.8847 174.955 69.9882 174.983 70.0703 175.046C74.0412 178.13 81.1118 185.27 83.8645 198.131C83.8758 198.181 83.8772 198.231 83.8685 198.281C83.8598 198.331 83.8412 198.378 83.8139 198.421C83.7866 198.463 83.7511 198.5 83.7095 198.528C83.6678 198.556 83.6209 198.576 83.5715 198.586L83.4867 198.594Z" fill="white"/>
<path d="M81.8983 216.282L78.7601 218.094C78.4254 217.179 77.8608 216.366 77.1208 215.733C76.3808 215.1 75.4902 214.667 74.5347 214.478C71.1035 213.707 67.5412 213.838 65.1355 210.862C62.7298 207.885 65.6598 204.647 65.1355 202.457C64.6112 200.267 64.2719 199.635 59.9694 197.445C55.6669 195.255 53.9706 191.624 57.209 189.164C60.4475 186.704 65.6907 188.509 68.8675 190.706C71.6895 192.634 74.3728 193.143 77.5264 193.536C80.6801 193.929 85.8153 195.679 85.0288 203.005C84.5138 207.539 83.463 211.996 81.8983 216.282Z" fill="#BA68C8"/>
<path d="M69.8547 206.659C69.7725 206.659 69.6927 206.632 69.6263 206.584C69.5599 206.535 69.5103 206.467 69.4846 206.389C69.4554 206.291 69.4656 206.186 69.5132 206.095C69.5607 206.004 69.6417 205.936 69.739 205.904C70.0166 205.819 76.6786 203.706 79.5083 205.973C79.5786 206.039 79.6214 206.13 79.6283 206.226C79.6351 206.322 79.6056 206.418 79.5455 206.493C79.4854 206.569 79.3991 206.619 79.3037 206.634C79.2083 206.649 79.1107 206.628 79.0303 206.575C76.532 204.57 70.0397 206.621 69.9703 206.644L69.8547 206.659Z" fill="white"/>
<path d="M82.2454 215.696C82.1515 215.697 82.0608 215.662 81.991 215.599C81.9211 215.537 81.8771 215.45 81.8676 215.357C80.1481 199.118 60.5863 191.415 60.3936 191.338C60.3458 191.32 60.302 191.293 60.2648 191.258C60.2277 191.223 60.1978 191.181 60.177 191.135C60.1562 191.088 60.1449 191.038 60.1437 190.987C60.1425 190.936 60.1514 190.885 60.17 190.837C60.2079 190.744 60.2802 190.668 60.3721 190.627C60.4639 190.585 60.5682 190.58 60.6635 190.614C60.8716 190.698 80.8652 198.563 82.6309 215.287C82.6418 215.389 82.6122 215.49 82.5486 215.569C82.4851 215.649 82.3927 215.7 82.2917 215.712L82.2454 215.696Z" fill="white"/>
<path d="M274.031 205.618C274.115 205.349 277.423 188.324 274.031 176.249C270.946 165.176 266.921 161.09 261.185 160.188C255.448 159.285 252.958 163.418 256.003 169.016C259.049 174.614 266.382 182.039 268.178 194.546C268.949 199.697 269.535 204.169 269.535 204.169L274.031 205.618Z" fill="#BA68C8"/>
<path opacity="0.2" d="M274.031 205.618C274.115 205.349 277.423 188.324 274.031 176.249C270.946 165.176 266.921 161.09 261.185 160.188C255.448 159.285 252.958 163.418 256.003 169.016C259.049 174.614 266.382 182.039 268.178 194.546C268.949 199.697 269.535 204.169 269.535 204.169L274.031 205.618Z" fill="black"/>
<path d="M272.095 195.841C272.045 195.838 271.995 195.826 271.95 195.803C271.904 195.781 271.863 195.75 271.829 195.712C271.796 195.674 271.77 195.63 271.753 195.582C271.737 195.534 271.73 195.483 271.733 195.433C272.504 181.646 268.001 169.34 259.928 163.303C259.846 163.241 259.792 163.15 259.778 163.049C259.763 162.948 259.79 162.845 259.851 162.763C259.914 162.683 260.005 162.63 260.105 162.616C260.206 162.601 260.308 162.626 260.391 162.686C268.664 168.854 273.306 181.438 272.496 195.479C272.49 195.58 272.445 195.674 272.37 195.742C272.295 195.81 272.196 195.846 272.095 195.841Z" fill="white"/>
<path d="M282.906 214.486C282.466 211.317 284.286 206.567 288.611 205.441C292.937 204.315 294.865 201.833 293.307 199.118C291.75 196.404 292.112 193.914 296.037 192.788C299.961 191.662 303.4 189.704 301.141 185.555C299.499 182.556 299.136 180.613 303.161 174.707C306.5 169.803 303.77 166.927 299.591 167.466C295.412 168.006 292.829 172.987 290.215 173.82C287.601 174.653 287 170.211 283.553 172.201C280.107 174.19 280.315 179.287 280.207 182.841C280.099 186.396 279.868 187.198 276.753 186.766C273.637 186.334 270.584 186.843 270.654 194.376C270.707 200.838 274.154 208.841 274.154 208.841L282.906 214.486Z" fill="#BA68C8"/>
<path d="M277.439 209.666H277.4C277.297 209.655 277.203 209.603 277.138 209.522C277.073 209.441 277.043 209.338 277.053 209.235C279.228 189.812 295.898 173.427 300.247 170.103C300.329 170.041 300.432 170.014 300.534 170.027C300.636 170.041 300.728 170.095 300.79 170.177C300.853 170.258 300.88 170.362 300.866 170.464C300.853 170.566 300.799 170.658 300.717 170.72C296.422 173.997 279.968 190.166 277.824 209.319C277.813 209.414 277.768 209.502 277.697 209.566C277.626 209.629 277.534 209.665 277.439 209.666Z" fill="white"/>
<path d="M285.041 188.902C284.963 188.901 284.887 188.878 284.823 188.834C284.758 188.79 284.708 188.728 284.679 188.655C284.646 188.558 284.652 188.452 284.695 188.358C284.738 188.265 284.815 188.192 284.91 188.154C291.125 185.841 298.172 186.936 298.473 186.982C298.573 186.999 298.662 187.055 298.721 187.137C298.781 187.219 298.805 187.321 298.789 187.421C298.771 187.521 298.715 187.61 298.633 187.67C298.552 187.73 298.45 187.757 298.35 187.745C298.28 187.745 291.202 186.635 285.18 188.879C285.135 188.894 285.089 188.902 285.041 188.902Z" fill="white"/>
<path d="M279.505 200.576C279.451 200.575 279.398 200.563 279.349 200.541C279.3 200.518 279.256 200.485 279.22 200.445C276.635 197.435 274.884 193.801 274.139 189.904C274.131 189.854 274.133 189.803 274.145 189.754C274.158 189.704 274.179 189.658 274.209 189.617C274.24 189.576 274.277 189.542 274.321 189.516C274.364 189.49 274.412 189.472 274.463 189.465C274.513 189.457 274.564 189.459 274.613 189.472C274.662 189.484 274.709 189.505 274.749 189.535C274.79 189.566 274.825 189.603 274.851 189.647C274.877 189.69 274.895 189.738 274.902 189.789C275.639 193.532 277.325 197.023 279.798 199.928C279.846 199.985 279.878 200.054 279.888 200.128C279.898 200.202 279.887 200.277 279.857 200.345C279.826 200.412 279.777 200.47 279.715 200.511C279.652 200.552 279.58 200.574 279.505 200.576Z" fill="white"/>
<path d="M81.8984 96.9454V216.29L204.05 145.769L204.042 37.2731L113.219 89.7128L110.081 80.6683L81.8984 96.9454Z" fill="#BA68C8"/>
<path opacity="0.7" d="M81.8984 96.9454V216.29L204.05 145.769L204.042 37.2731L113.219 89.7128L110.081 80.6683L81.8984 96.9454Z" fill="black"/>
<path d="M81.8984 216.29L88.1594 107.794L210.311 37.2731L204.05 145.769L81.8984 216.29Z" fill="#E0E0E0"/>
<path d="M81.8979 216.29L91.2895 109.606L213.441 39.0774L204.049 145.769L81.8979 216.29Z" fill="#BA68C8"/>
<path opacity="0.7" d="M81.8979 216.29L91.2895 109.606L213.441 39.0774L204.049 145.769L81.8979 216.29Z" fill="black"/>
<path d="M100.688 107.794V227.146L222.84 156.618V48.1219L132.009 100.562L128.878 91.5171L100.688 107.794Z" fill="#BA68C8"/>
<path opacity="0.5" d="M100.688 107.794V227.146L222.84 156.618V48.1219L132.009 100.562L128.878 91.5171L100.688 107.794Z" fill="black"/>
<path d="M100.688 227.146L106.949 118.643L229.101 48.1219L222.84 156.618L100.688 227.146Z" fill="#E0E0E0"/>
<path d="M100.688 227.146L110.08 120.455L232.231 49.9262L222.84 156.618L100.688 227.146Z" fill="#BA68C8"/>
<path opacity="0.5" d="M100.688 227.146L110.08 120.455L232.231 49.9262L222.84 156.618L100.688 227.146Z" fill="black"/>
<path d="M204.018 265.121C182.089 252.46 161.749 238.697 152.465 222.551L180.686 206.258L204.018 265.121Z" fill="#E0E0E0"/>
<path d="M122.61 120.455V239.799L244.761 169.278V60.7827L153.931 113.222L150.8 104.178L122.61 120.455Z" fill="#BA68C8"/>
<path opacity="0.2" d="M122.61 120.455V239.799L244.761 169.278V60.7827L153.931 113.222L150.8 104.178L122.61 120.455Z" fill="black"/>
<path d="M157.801 155.739C157.493 155.739 157.447 155.384 157.447 155.176V53.396C157.472 53.0011 157.587 52.6174 157.785 52.2749C157.983 51.9324 158.258 51.6405 158.588 51.422L246.751 0.532155C246.871 0.456849 247.01 0.414323 247.152 0.408783C247.46 0.408783 247.506 0.763473 247.506 0.971659V102.751C247.482 103.147 247.367 103.532 247.169 103.876C246.971 104.22 246.696 104.513 246.365 104.733L158.202 155.623C158.081 155.695 157.943 155.734 157.801 155.739Z" fill="white"/>
<path d="M247.105 0.76347C247.112 0.819842 247.112 0.876732 247.105 0.933104V102.713C247.08 103.041 246.982 103.36 246.818 103.645C246.654 103.931 246.428 104.176 246.157 104.363L157.994 155.253L157.84 155.322C157.83 155.266 157.83 155.209 157.84 155.153V53.3728C157.866 53.0459 157.965 52.7289 158.129 52.4449C158.293 52.1609 158.518 51.9168 158.788 51.7305L246.951 0.840575C247 0.806561 247.055 0.782941 247.113 0.771182L247.105 0.76347ZM247.159 0.00012318C246.949 0.00637429 246.745 0.0675202 246.566 0.177469L158.403 51.0674C158.015 51.3219 157.693 51.6638 157.461 52.0655C157.229 52.4672 157.095 52.9176 157.069 53.3805V155.16C157.069 155.762 157.37 156.109 157.84 156.109C158.05 156.103 158.255 156.042 158.434 155.931L246.596 105.041C246.986 104.789 247.31 104.447 247.541 104.045C247.773 103.643 247.907 103.192 247.93 102.728V0.948528C247.93 0.347102 247.63 -0.00758741 247.159 0.00012318Z" fill="#BA68C8"/>
<path opacity="0.7" d="M247.105 0.76347C247.112 0.819842 247.112 0.876732 247.105 0.933104V102.713C247.08 103.041 246.982 103.36 246.818 103.645C246.654 103.931 246.428 104.176 246.157 104.363L157.994 155.253L157.84 155.322C157.83 155.266 157.83 155.209 157.84 155.153V53.3728C157.866 53.0459 157.965 52.7289 158.129 52.4449C158.293 52.1609 158.518 51.9168 158.788 51.7305L246.951 0.840575C247 0.806561 247.055 0.782941 247.113 0.771182L247.105 0.76347ZM247.159 0.00012318C246.949 0.00637429 246.745 0.0675202 246.566 0.177469L158.403 51.0674C158.015 51.3219 157.693 51.6638 157.461 52.0655C157.229 52.4672 157.095 52.9176 157.069 53.3805V155.16C157.069 155.762 157.37 156.109 157.84 156.109C158.05 156.103 158.255 156.042 158.434 155.931L246.596 105.041C246.986 104.789 247.31 104.447 247.541 104.045C247.773 103.643 247.907 103.192 247.93 102.728V0.948528C247.93 0.347102 247.63 -0.00758741 247.159 0.00012318Z" fill="white"/>
<path d="M166.46 57.259L197.781 39.1776V75.3403L166.46 93.4216V57.259Z" fill="#BA68C8"/>
<path opacity="0.8" d="M166.46 57.259L197.781 39.1776V75.3403L166.46 93.4216V57.259Z" fill="white"/>
<path d="M193.085 48.1913V59.0632L192.098 59.6107V56.2874C192.098 54.4523 190.61 53.8278 188.759 54.8918L175.489 62.5638C173.646 63.6279 172.151 65.9796 172.151 67.8148V71.138L171.171 71.724V60.8752L193.085 48.1913Z" fill="white"/>
<path d="M187.055 75.8723C185.452 76.7976 184.149 75.8261 184.149 73.6902V56.2874L180.116 58.4772V76.0188C180.116 78.1469 178.813 80.6452 177.209 81.5473L174.294 83.2282V84.3848L189.955 75.3403V74.1914L187.055 75.8723Z" fill="white"/>
<path d="M204.019 37.3965C204.019 38.3989 204.921 38.6842 206.023 38.0519L236.496 20.4332C237.036 20.1267 237.499 19.6992 237.846 19.1842C238.194 18.6692 238.418 18.0806 238.5 17.4646C238.5 16.4699 237.598 16.1769 236.496 16.8169L206.046 34.3971C205.497 34.7029 205.027 35.1338 204.675 35.6548C204.322 36.1759 204.098 36.7725 204.019 37.3965Z" fill="#455A64"/>
<path d="M204.019 48.1913C204.019 49.1937 204.921 49.4867 206.023 48.8467L236.472 31.2666C237.013 30.9601 237.475 30.5326 237.823 30.0176C238.171 29.5026 238.395 28.914 238.477 28.298C238.477 27.3033 237.575 27.0103 236.472 27.6503L206.023 45.2304C205.484 45.5361 205.022 45.9624 204.674 46.476C204.326 46.9896 204.102 47.5767 204.019 48.1913Z" fill="#455A64"/>
<path d="M204.019 59.0632C204.019 60.0656 204.921 60.3586 206.023 59.7186L236.472 42.1385C237.012 41.8328 237.474 41.4065 237.822 40.8929C238.169 40.3793 238.394 39.7923 238.477 39.1776C238.477 38.1752 237.575 37.8822 236.472 38.5222L206.023 56.1024C205.484 56.4081 205.022 56.8343 204.674 57.348C204.326 57.8616 204.102 58.4486 204.019 59.0632Z" fill="#455A64"/>
<path d="M204.019 69.912C204.019 70.9144 204.921 71.2074 206.023 70.5674L236.472 52.9873C237.012 52.6816 237.474 52.2553 237.822 51.7417C238.169 51.2281 238.394 50.6411 238.477 50.0264C238.477 49.0241 237.575 48.7311 236.472 49.371L206.023 66.9512C205.484 67.2569 205.022 67.6831 204.674 68.1968C204.326 68.7104 204.102 69.2974 204.019 69.912Z" fill="#455A64"/>
<path d="M166.46 102.466C166.46 103.469 167.355 103.762 168.465 103.122L236.496 63.7975C237.036 63.4928 237.499 63.0667 237.846 62.553C238.194 62.0392 238.418 61.4517 238.5 60.8367C238.5 59.8343 237.598 59.549 236.496 60.1813L168.465 99.5053C167.924 99.8096 167.462 100.235 167.114 100.749C166.766 101.263 166.542 101.851 166.46 102.466Z" fill="#455A64"/>
<path d="M166.46 113.315C166.46 114.317 167.355 114.61 168.465 113.97L236.496 74.6926C237.036 74.3861 237.499 73.9587 237.847 73.4436C238.194 72.9286 238.418 72.34 238.5 71.724C238.5 70.7294 237.598 70.4363 236.496 71.0763L168.465 110.354C167.924 110.658 167.462 111.084 167.114 111.598C166.766 112.112 166.542 112.7 166.46 113.315Z" fill="#455A64"/>
<path d="M166.46 124.171C166.46 125.166 167.355 125.459 168.465 124.819L236.496 85.5414C237.036 85.235 237.499 84.8075 237.847 84.2924C238.194 83.7774 238.418 83.1888 238.5 82.5728C238.5 81.5782 237.598 81.2852 236.496 81.9251L168.465 121.203C167.923 121.508 167.46 121.935 167.112 122.45C166.764 122.966 166.541 123.555 166.46 124.171Z" fill="#455A64"/>
<path d="M122.61 239.799L144.532 143.965L266.683 73.4358L244.762 169.278L122.61 239.799Z" fill="#BA68C8"/>
<path d="M152.497 151.467V222.551L180.686 206.274V135.198L152.497 151.467Z" fill="#BA68C8"/>
<path opacity="0.2" d="M152.497 151.467V222.551L180.686 206.274V135.198L152.497 151.467Z" fill="black"/>
<path d="M204.073 264.658C201.675 262.87 178.559 245.205 166.808 219.937C154.301 193.073 154.316 161.737 154.316 149.948V149.578L238.115 101.202C238.115 113.099 238.115 144.481 250.676 171.437C262.157 196.111 284.386 213.553 287.91 216.22L204.073 264.658Z" fill="white"/>
<path d="M237.729 101.896C237.729 114.294 237.968 145.075 250.328 171.63C261.424 195.456 282.52 212.589 287.216 216.205L204.096 264.196C200.849 261.752 178.604 244.38 167.162 219.806C154.671 193.019 154.671 161.745 154.671 149.971V149.825L237.698 101.888L237.729 101.896ZM238.469 100.554L153.9 149.385C153.9 160.481 153.668 192.719 166.429 220.13C178.99 247.032 204.019 265.121 204.019 265.121L288.611 216.282C288.611 216.282 263.552 198.193 251.03 171.291C238.261 143.88 238.5 111.642 238.5 100.546L238.469 100.554Z" fill="#BA68C8"/>
<path opacity="0.7" d="M237.729 101.896C237.729 114.294 237.968 145.075 250.328 171.63C261.424 195.456 282.52 212.589 287.216 216.205L204.096 264.196C200.849 261.752 178.604 244.38 167.162 219.806C154.671 193.019 154.671 161.745 154.671 149.971V149.825L237.698 101.888L237.729 101.896ZM238.469 100.554L153.9 149.385C153.9 160.481 153.668 192.719 166.429 220.13C178.99 247.032 204.019 265.121 204.019 265.121L288.611 216.282C288.611 216.282 263.552 198.193 251.03 171.291C238.261 143.88 238.5 111.642 238.5 100.546L238.469 100.554Z" fill="white"/>
<path d="M228.932 116.931L202.192 132.352C201.656 132.647 201.2 133.067 200.862 133.575C200.524 134.084 200.313 134.667 200.249 135.275C200.287 136.254 201.22 136.532 202.323 135.892L229.071 120.47C229.6 120.179 230.051 119.765 230.388 119.263C230.724 118.761 230.936 118.187 231.006 117.587C230.96 116.569 230.042 116.291 228.932 116.931Z" fill="#455A64"/>
<path d="M229.502 127.456L202.761 142.877C202.233 143.162 201.784 143.575 201.458 144.079C201.132 144.584 200.938 145.162 200.896 145.761C200.98 146.71 201.952 146.964 203.054 146.324L229.802 130.903C230.329 130.62 230.774 130.207 231.097 129.704C231.419 129.2 231.608 128.623 231.645 128.027C231.568 127.071 230.612 126.839 229.502 127.456Z" fill="#455A64"/>
<path d="M230.574 137.688L203.826 153.109C202.723 153.749 201.922 155.022 202.053 155.939C202.184 156.857 203.194 157.096 204.304 156.456L231.052 141.035C232.155 140.395 232.941 139.13 232.802 138.212C232.664 137.295 231.677 137.048 230.574 137.688Z" fill="#455A64"/>
<path d="M232.178 147.612L205.43 163.033C204.327 163.673 203.564 164.922 203.749 165.816C203.934 166.711 204.983 166.911 206.062 166.271L232.802 150.85C233.913 150.21 234.653 148.969 234.468 148.074C234.283 147.18 233.319 146.972 232.178 147.612Z" fill="#455A64"/>
<path d="M234.352 157.204L207.604 172.625C206.501 173.265 205.784 174.483 206.062 175.339C206.339 176.195 207.396 176.388 208.498 175.748L235.246 160.326C236.357 159.686 237.051 158.476 236.789 157.612C236.526 156.749 235.455 156.564 234.352 157.204Z" fill="#455A64"/>
<path d="M237.174 166.449L171.989 204.084C170.886 204.724 170.216 205.911 170.516 206.736C170.817 207.561 171.966 207.716 173.068 207.076L238.254 169.44C239.364 168.8 240.004 167.621 239.703 166.788C239.403 165.955 238.238 165.809 237.174 166.449Z" fill="#455A64"/>
<path d="M240.606 175.277L175.428 212.913C174.318 213.553 173.708 214.709 174.079 215.496C174.449 216.282 175.621 216.406 176.746 215.766L241.932 178.13C243.042 177.49 243.636 176.334 243.266 175.547C242.896 174.761 241.716 174.645 240.606 175.277Z" fill="#455A64"/>
<path d="M244.885 183.69L179.7 221.325C178.589 221.965 178.042 223.091 178.481 223.839C178.921 224.586 180.178 224.664 181.288 224.024L246.427 186.388C247.53 185.756 248.062 184.638 247.622 183.89C247.183 183.142 245.965 183.05 244.885 183.69Z" fill="#455A64"/>
<path d="M249.874 191.647L184.696 229.274C183.586 229.914 183.092 231.017 183.593 231.719C184.095 232.42 185.413 232.49 186.523 231.842L251.701 194.207C252.811 193.567 253.289 192.48 252.788 191.77C252.287 191.061 250.984 191.007 249.874 191.647Z" fill="#455A64"/>
<path d="M255.564 199.211L190.379 236.839C189.276 237.479 188.837 238.55 189.392 239.221C189.947 239.892 191.312 239.923 192.422 239.283L257.608 201.632C258.71 200.992 259.15 199.936 258.579 199.265C258.009 198.594 256.675 198.548 255.564 199.211Z" fill="#455A64"/>
<path d="M261.848 206.413L196.686 244.04C195.576 244.68 195.144 245.729 195.792 246.353C196.439 246.978 197.812 246.993 198.914 246.353L264.1 208.718C265.21 208.078 265.596 207.045 264.979 206.405C264.362 205.765 262.974 205.78 261.848 206.413Z" fill="#455A64"/>
<path d="M268.787 213.298L203.602 250.926C202.5 251.566 202.137 252.591 202.831 253.2C203.525 253.81 204.944 253.786 206.054 253.146L271.185 215.511C272.288 214.871 272.635 213.869 271.956 213.252C271.278 212.635 269.867 212.658 268.787 213.298Z" fill="#455A64"/>
<path d="M192.499 137.973L161.749 155.708C162.088 166.85 163.361 182.918 168.018 199.103L198.775 181.369C194.11 165.184 192.838 149.108 192.499 137.973Z" fill="#BA68C8"/>
<path opacity="0.8" d="M192.499 137.973L161.749 155.708C162.088 166.85 163.361 182.918 168.018 199.103L198.775 181.369C194.11 165.184 192.838 149.108 192.499 137.973Z" fill="white"/>
<path d="M174.286 153.256C174.328 152.537 174.216 151.817 173.958 151.144C173.7 150.471 173.302 149.861 172.791 149.354L161.749 155.723C161.842 158.669 161.996 161.961 162.266 165.508C163.702 165.673 165.155 165.405 166.437 164.737C170.778 162.748 174.286 157.589 174.286 153.256Z" fill="#BA68C8"/>
<path opacity="0.6" d="M174.286 153.256C174.328 152.537 174.216 151.817 173.958 151.144C173.7 150.471 173.302 149.861 172.791 149.354L161.749 155.723C161.842 158.669 161.996 161.961 162.266 165.508C163.702 165.673 165.155 165.405 166.437 164.737C170.778 162.748 174.286 157.589 174.286 153.256Z" fill="white"/>
<path d="M196.162 170.728C194.111 168.145 189.939 160.165 188.158 156.687C188.088 156.55 187.978 156.436 187.843 156.362C187.708 156.287 187.554 156.255 187.4 156.269C187.247 156.283 187.101 156.343 186.982 156.441C186.862 156.539 186.775 156.67 186.731 156.818C184.805 163.405 183.686 170.202 183.401 177.058C180.833 175.02 178.625 172.565 176.87 169.795C176.795 169.688 176.691 169.604 176.57 169.554C176.449 169.504 176.317 169.489 176.188 169.512C176.059 169.534 175.939 169.593 175.843 169.682C175.746 169.77 175.677 169.885 175.644 170.011C172.282 182.957 173.97 195.695 173.97 195.695L198.775 181.369C197.742 177.791 196.886 174.229 196.162 170.728Z" fill="#BA68C8"/>
<path opacity="0.6" d="M196.162 170.728C194.111 168.145 189.939 160.165 188.158 156.687C188.088 156.55 187.978 156.436 187.843 156.362C187.708 156.287 187.554 156.255 187.4 156.269C187.247 156.283 187.101 156.343 186.982 156.441C186.862 156.539 186.775 156.67 186.731 156.818C184.805 163.405 183.686 170.202 183.401 177.058C180.833 175.02 178.625 172.565 176.87 169.795C176.795 169.688 176.691 169.604 176.57 169.554C176.449 169.504 176.317 169.489 176.188 169.512C176.059 169.534 175.939 169.593 175.843 169.682C175.746 169.77 175.677 169.885 175.644 170.011C172.282 182.957 173.97 195.695 173.97 195.695L198.775 181.369C197.742 177.791 196.886 174.229 196.162 170.728Z" fill="white"/>
</svg>
