<svg width="321" height="327" viewBox="0 0 321 327" fill="none" xmlns="http://www.w3.org/2000/svg">
<path d="M273.524 167.555C210.657 131.258 109.075 131.258 46.6256 167.555C-15.824 203.853 -15.5017 262.691 47.3581 298.989C110.218 335.286 211.807 335.279 274.264 298.989C336.721 262.698 336.384 203.846 273.524 167.555Z" fill="#F5F5F5" fill-opacity="0.4"/>
<path opacity="0.1" d="M149.168 222.474L130.854 211.86L119.998 218.123L107.661 210.973L17.3239 263.131C17.1944 263.204 17.0867 263.311 17.0118 263.439C16.9369 263.568 16.8975 263.714 16.8975 263.863C16.8975 264.012 16.9369 264.158 17.0118 264.287C17.0867 264.416 17.1944 264.522 17.3239 264.596L33.9454 274.229C34.4625 274.526 35.0485 274.682 35.6449 274.682C36.2412 274.682 36.8272 274.526 37.3444 274.229L46.4939 268.94L57.1304 275.108C57.6469 275.407 58.2331 275.564 58.8299 275.564C59.4267 275.564 60.013 275.407 60.5295 275.108L149.168 223.932C149.293 223.857 149.398 223.75 149.47 223.622C149.542 223.494 149.58 223.35 149.58 223.203C149.58 223.056 149.542 222.912 149.47 222.784C149.398 222.657 149.293 222.55 149.168 222.474Z" fill="black"/>
<path opacity="0.1" d="M133.081 211.032L139.447 214.709L192.871 183.862L186.506 180.184L133.081 211.032Z" fill="black"/>
<path opacity="0.1" d="M276.44 223.983L243.981 205.245C243.769 205.113 243.594 204.93 243.473 204.712C243.351 204.494 243.288 204.249 243.288 203.999C243.288 203.75 243.351 203.505 243.473 203.287C243.594 203.069 243.769 202.886 243.981 202.754L272.594 186.133C272.817 186.004 273.07 185.936 273.327 185.936C273.584 185.936 273.837 186.004 274.059 186.133L307.244 205.289C307.454 205.42 307.627 205.604 307.748 205.821C307.868 206.038 307.931 206.282 307.931 206.53C307.931 206.779 307.868 207.023 307.748 207.24C307.627 207.457 307.454 207.64 307.244 207.772L279.326 223.983C278.888 224.237 278.39 224.371 277.883 224.371C277.376 224.371 276.879 224.237 276.44 223.983Z" fill="black"/>
<path opacity="0.1" d="M242.992 240.18C228.07 231.565 203.955 231.565 189.135 240.18C174.316 248.795 174.382 262.764 189.304 271.379C204.226 279.994 228.341 279.994 243.168 271.379C257.995 262.764 257.936 248.787 242.992 240.18Z" fill="black"/>
<path d="M253.138 38.6931L252.925 114.446L257.137 116.878L257.357 41.1251L253.138 38.6931Z" fill="#E0E0E0"/>
<path d="M257.357 41.1251L257.137 116.878L260.807 114.746L261.005 43.2349L257.357 41.1251Z" fill="#F0F0F0"/>
<path opacity="0.2" d="M257.35 44.5315L257.357 41.1251L253.138 38.6931L253.13 42.0921L257.35 44.5315Z" fill="black"/>
<path opacity="0.2" d="M257.35 44.5315L260.302 42.8246L257.357 41.1251L257.35 44.5315Z" fill="black"/>
<path d="M202.416 9.40589L206.079 7.27419L205.866 83.0268L202.204 85.1585L202.416 9.40589Z" fill="#F0F0F0"/>
<path d="M202.204 85.1585L205.866 83.0268L311.536 144.033L307.873 146.165L202.204 85.1585Z" fill="#F5F5F5"/>
<path d="M198.219 2.10242L312.313 68.0316L312.071 153.468L197.97 87.5686L198.219 2.10242ZM307.874 146.165L308.086 70.4123L202.416 9.42788L202.204 85.1805L307.874 146.187" fill="#E0E0E0"/>
<path d="M198.219 2.13171L201.881 0L315.976 65.8779L312.313 68.0023L198.219 2.13171Z" fill="#F5F5F5"/>
<path d="M312.313 68.0023L315.976 65.8779L315.734 151.315L312.071 153.439L312.313 68.0023Z" fill="#F0F0F0"/>
<path d="M249.827 202.095L246.984 203.743L246.992 200.461L249.827 202.095Z" fill="#E6E6E6"/>
<path d="M247.109 168.588L274.733 184.536L247.109 168.588Z" fill="#CFCFCF"/>
<path d="M249.827 202.087L274.667 216.431V219.713L277.597 221.419L277.707 182.829L244.113 163.431L244.003 202.029L246.933 203.736V200.454L249.827 202.087ZM274.697 197.048L247.072 181.1L247.109 168.581L274.733 184.506L274.697 197.048ZM274.653 212.988L247.028 197.04L247.065 184.587V184.506L274.689 200.461L274.653 212.988Z" fill="#EBEBEB"/>
<path d="M247.028 197.048L247.065 184.565V184.528L274.689 200.483L274.653 212.995L247.028 197.048Z" fill="#F5F5F5"/>
<path d="M247.072 181.107L247.109 168.588L274.733 184.536L274.697 197.055L247.072 181.107Z" fill="#F5F5F5"/>
<path d="M277.73 182.836L307.053 165.79L306.943 204.388L277.62 221.427L277.73 182.836Z" fill="#E6E6E6"/>
<path d="M277.729 182.836L244.135 163.438L273.459 146.399L307.053 165.79L277.729 182.836Z" fill="#F5F5F5"/>
<path d="M284.608 150.626L275.253 150.904L265.891 150.626C265.488 156.948 266.726 163.387 268.426 166.537C268.825 167.349 269.474 168.012 270.279 168.427C271.822 169.212 273.529 169.621 275.26 169.621C276.992 169.621 278.698 169.212 280.242 168.427C281.055 168.003 281.706 167.324 282.095 166.493C283.787 163.321 285.01 156.919 284.608 150.626Z" fill="#37474F"/>
<path d="M281.817 146.795C285.48 148.912 285.48 152.348 281.861 154.465C278.242 156.582 272.294 156.574 268.631 154.472C264.968 152.37 264.968 148.919 268.587 146.802C272.206 144.685 278.154 144.678 281.817 146.795Z" fill="#455A64"/>
<path d="M280.396 147.637C283.26 149.293 283.274 151.967 280.432 153.615C278.833 154.431 277.063 154.856 275.268 154.856C273.472 154.856 271.702 154.431 270.103 153.615C267.246 151.967 267.232 149.293 270.103 147.637C271.698 146.83 273.461 146.409 275.249 146.409C277.037 146.409 278.8 146.83 280.396 147.637Z" fill="#263238"/>
<path d="M274.491 150.89C275.241 151.519 276.13 151.961 277.084 152.178C278.038 152.396 279.03 152.384 279.978 152.142C280.891 151.864 281.721 151.362 282.393 150.683C283.064 150.004 283.556 149.169 283.824 148.253C282.716 147.725 281.701 147.02 280.821 146.165C282.226 145.817 283.7 145.87 285.077 146.319C285.458 145.72 285.687 145.037 285.743 144.33C285.799 143.622 285.681 142.912 285.399 142.26C283.801 141.549 282.003 141.425 280.322 141.909C281.02 141.301 281.836 140.844 282.718 140.566C283.6 140.287 284.53 140.193 285.45 140.29C285.584 137.608 285.165 134.928 284.22 132.415C280.733 132.591 277.348 134.1 276.206 135.177C276.154 136.425 276.285 137.673 276.594 138.883C276.144 138.653 275.759 138.313 275.476 137.894C275.193 137.475 275.021 136.991 274.975 136.488C272.777 137.037 271.854 138.122 271.517 138.957C271.833 140.508 272.545 141.951 273.583 143.147C271.532 142.524 270.704 140.217 270.704 140.217C268.631 145.015 269.049 150.428 274.491 150.89Z" fill="#F7B15C"/>
<path opacity="0.2" d="M274.491 150.89C275.241 151.519 276.13 151.961 277.084 152.178C278.038 152.396 279.03 152.384 279.978 152.142C280.891 151.864 281.721 151.362 282.393 150.683C283.064 150.004 283.556 149.169 283.824 148.253C282.716 147.725 281.701 147.02 280.821 146.165C282.226 145.817 283.7 145.87 285.077 146.319C285.458 145.72 285.687 145.037 285.743 144.33C285.799 143.622 285.681 142.912 285.399 142.26C283.801 141.549 282.003 141.425 280.322 141.909C281.02 141.301 281.836 140.844 282.718 140.566C283.6 140.287 284.53 140.193 285.45 140.29C285.584 137.608 285.165 134.928 284.22 132.415C280.733 132.591 277.348 134.1 276.206 135.177C276.154 136.425 276.285 137.673 276.594 138.883C276.144 138.653 275.759 138.313 275.476 137.894C275.193 137.475 275.021 136.991 274.975 136.488C272.777 137.037 271.854 138.122 271.517 138.957C271.833 140.508 272.545 141.951 273.583 143.147C271.532 142.524 270.704 140.217 270.704 140.217C268.631 145.015 269.049 150.428 274.491 150.89Z" fill="black"/>
<path d="M274.345 151.41C274.318 151.408 274.292 151.401 274.269 151.389C274.245 151.377 274.224 151.36 274.206 151.339C274.189 151.319 274.177 151.295 274.169 151.269C274.161 151.244 274.159 151.217 274.162 151.19C274.492 146.795 277.012 139.513 283.026 133.514C283.043 133.489 283.065 133.469 283.091 133.454C283.117 133.439 283.146 133.43 283.176 133.427C283.206 133.425 283.236 133.429 283.264 133.439C283.292 133.449 283.318 133.465 283.339 133.487C283.36 133.508 283.376 133.533 283.386 133.561C283.397 133.59 283.401 133.62 283.398 133.649C283.395 133.679 283.386 133.708 283.371 133.734C283.356 133.76 283.336 133.782 283.311 133.8C277.378 139.719 274.887 146.89 274.565 151.227C274.563 151.253 274.556 151.28 274.544 151.303C274.532 151.327 274.515 151.348 274.494 151.365C274.474 151.382 274.45 151.395 274.424 151.403C274.399 151.411 274.372 151.413 274.345 151.41Z" fill="#F5F5F5"/>
<path d="M275.993 153.249C275.293 153.82 274.469 154.218 273.586 154.41C272.704 154.601 271.789 154.582 270.915 154.353C270.042 154.123 269.235 153.691 268.56 153.09C267.886 152.49 267.363 151.738 267.034 150.897C268.038 150.44 268.957 149.816 269.752 149.051C268.425 148.731 267.036 148.771 265.73 149.168C265.333 148.664 265.073 148.067 264.974 147.433C264.875 146.799 264.941 146.15 265.166 145.55C266.687 144.926 268.372 144.825 269.957 145.264C268.542 144.166 266.766 143.643 264.983 143.799C264.682 141.434 264.912 139.031 265.657 136.766C268.982 136.964 272.25 138.341 273.414 139.316C273.544 140.415 273.5 141.527 273.283 142.612C273.685 142.42 274.027 142.121 274.27 141.748C274.513 141.374 274.648 140.941 274.66 140.495C276.74 141 277.685 141.96 278.051 142.693C277.85 144.048 277.268 145.318 276.374 146.355C276.96 146.147 277.491 145.809 277.927 145.366C278.364 144.923 278.694 144.388 278.894 143.799C281.084 148.077 281.026 152.846 275.993 153.249Z" fill="#F7B15C"/>
<path d="M276.132 153.739C276.083 153.74 276.036 153.722 275.999 153.689C275.963 153.657 275.94 153.612 275.934 153.564C275.356 149.732 272.572 143.359 266.594 138.041C266.569 138.025 266.548 138.004 266.532 137.979C266.516 137.953 266.505 137.925 266.501 137.896C266.497 137.866 266.5 137.836 266.509 137.807C266.517 137.779 266.532 137.753 266.552 137.731C266.572 137.709 266.597 137.691 266.624 137.679C266.652 137.668 266.681 137.662 266.711 137.663C266.741 137.664 266.77 137.671 266.797 137.685C266.823 137.698 266.847 137.717 266.865 137.741C272.916 143.132 275.744 149.601 276.33 153.505C276.336 153.558 276.323 153.612 276.292 153.655C276.26 153.699 276.214 153.729 276.161 153.739H276.132Z" fill="white"/>
<path d="M62.4482 49.5787L62.5142 71.7236L65.1953 73.2839L65.122 48.033L62.4482 49.5787Z" fill="#F0F0F0"/>
<path d="M33.5347 88.4549L33.542 91.5536L65.1953 73.2839L62.5142 71.7236L33.5347 88.4549Z" fill="#F5F5F5"/>
<path d="M68.36 42.4364L30.2163 64.4567L30.3115 97.1576L68.4479 75.1372L68.36 42.4364ZM33.5421 91.5536V88.4549L33.4835 66.3027L62.4557 49.5714L65.1295 48.033L65.2027 73.2839L33.5421 91.5536Z" fill="#E0E0E0"/>
<path d="M68.36 42.4364L65.6715 40.8761L27.5352 62.8964L30.2163 64.4567L68.36 42.4364Z" fill="#F5F5F5"/>
<path d="M27.5352 62.8964L27.6304 95.5973L30.3115 97.1576L30.2163 64.4567L27.5352 62.8964Z" fill="#F0F0F0"/>
<path d="M110.972 22.2181L111.038 44.363L113.719 45.9233L113.653 20.6725L110.972 22.2181Z" fill="#F0F0F0"/>
<path d="M82.0586 61.0943L82.0732 64.193L113.719 45.9233L111.038 44.363L82.0586 61.0943Z" fill="#F5F5F5"/>
<path d="M116.884 15.0758L78.7476 37.0961L78.8355 69.797L116.994 47.7767L116.884 15.0758ZM82.0733 64.193V61.0944L82.0147 38.9422L110.987 22.2181L113.668 20.6725L113.734 45.9233L82.0733 64.193Z" fill="#E0E0E0"/>
<path d="M116.884 15.0758L114.203 13.5155L76.0591 35.5358L78.7475 37.0961L116.884 15.0758Z" fill="#F5F5F5"/>
<path d="M76.0591 35.5358L76.1543 68.2367L78.8354 69.797L78.7475 37.0961L76.0591 35.5358Z" fill="#F0F0F0"/>
<path d="M53.2399 57.981L61.1441 64.2077L61.1661 70.2878L34.8823 85.4588L34.8604 79.3787L39.871 69.4307L44.3688 72.925L42.7792 77.8623L45.0867 73.4744L53.2399 57.981Z" fill="#E0E0E0"/>
<path d="M44.6107 61.0504C45.8487 60.3178 46.8523 60.9039 46.8596 62.325C46.8192 63.1004 46.5956 63.8551 46.2072 64.5274C45.8189 65.1997 45.2768 65.7704 44.6254 66.1929C43.3874 66.9254 42.3838 66.3394 42.3765 64.9182C42.4181 64.1432 42.6422 63.3889 43.0304 62.7168C43.4187 62.0446 43.9601 61.4737 44.6107 61.0504Z" fill="#E0E0E0"/>
<path d="M101.772 30.6278L109.669 36.8471L109.69 42.9272L83.4067 58.0982L83.3848 52.0181L88.3954 42.0701L92.8932 45.5644L91.3036 50.5091L93.6111 46.1211L101.772 30.6278Z" fill="#E0E0E0"/>
<path d="M93.1346 33.6898C94.3727 32.9573 95.3762 33.5506 95.3836 34.9718C95.3413 35.7467 95.117 36.5008 94.7288 37.1728C94.3406 37.8448 93.7995 38.4159 93.1493 38.8396C91.9113 39.5721 90.9077 38.9788 90.9004 37.5576C90.942 36.7826 91.1661 36.0283 91.5543 35.3562C91.9426 34.6841 92.484 34.1131 93.1346 33.6898Z" fill="#E0E0E0"/>
<path d="M186.505 67.6213L133.081 98.4615L133.3 174.712L186.725 143.865L186.505 67.6213Z" fill="#F7B15C"/>
<path d="M189.509 69.3794L136.084 100.22L136.304 176.47L189.728 145.623L189.509 69.3794Z" fill="#F7B15C"/>
<path opacity="0.4" d="M189.509 69.3794L136.084 100.22L136.304 176.47L189.728 145.623L189.509 69.3794Z" fill="white"/>
<path d="M192.871 71.2987L139.446 102.146L139.659 178.39L193.083 147.549L192.871 71.2987Z" fill="#F7B15C"/>
<path opacity="0.6" d="M192.871 71.2987L139.446 102.146L139.659 178.39L193.083 147.549L192.871 71.2987Z" fill="white"/>
<path d="M165.342 76.573C170.521 73.5842 174.741 75.987 174.755 81.9426C174.77 87.8982 170.58 95.1284 165.401 98.1465C160.221 101.165 155.995 98.7399 155.98 92.7843C155.965 86.8287 160.214 79.5692 165.342 76.573Z" fill="#EBEBEB"/>
<path d="M165.774 83.6787C166.162 83.4517 166.507 83.6348 166.507 84.089V86.4551L168.572 85.2684C168.968 85.0413 169.305 85.2171 169.305 85.6713C169.288 85.9205 169.213 86.1624 169.086 86.3774C168.959 86.5924 168.783 86.7746 168.572 86.9093L166.514 88.096V90.4621C166.499 90.7118 166.425 90.9544 166.297 91.1696C166.17 91.3849 165.993 91.5668 165.781 91.7001C165.386 91.9272 165.049 91.7441 165.049 91.2899V88.9238L162.99 90.1105C162.587 90.3376 162.258 90.1545 162.258 89.7003C162.274 89.4518 162.349 89.2108 162.476 88.9968C162.603 88.7829 162.78 88.6022 162.99 88.4696L165.049 87.2829V84.8801C165.066 84.6369 165.141 84.4012 165.267 84.1924C165.393 83.9836 165.567 83.8076 165.774 83.6787Z" fill="#F7B15C"/>
<path d="M123.638 95.4727L35.2856 146.48L35.6446 272.58L123.997 221.566L123.638 95.4727Z" fill="#F7B15C"/>
<path d="M17.9976 136.437L18.3565 262.53L35.6446 272.58L35.2856 146.48L17.9976 136.437Z" fill="#F7B15C"/>
<path d="M123.638 95.4727L106.35 85.4222L17.9976 136.437L35.2856 146.48L123.638 95.4727Z" fill="#F7B15C"/>
<path opacity="0.2" d="M123.638 95.4727L35.2856 146.48L35.6446 272.58L123.997 221.566L123.638 95.4727Z" fill="white"/>
<path opacity="0.5" d="M123.638 95.4727L106.35 85.4222L17.9976 136.437L35.2856 146.48L123.638 95.4727Z" fill="white"/>
<path opacity="0.2" d="M35.2856 146.48C35.2856 204.175 41.7394 247.806 46.6401 266.229L123.997 221.544L123.638 95.4507L35.2856 146.48Z" fill="black"/>
<path d="M148.662 216.006L60.3094 266.984C53.5041 258.801 35.2856 218.914 35.2856 146.48L123.638 95.4727C123.638 163.995 139.564 203.34 148.662 216.006Z" fill="#F7B15C"/>
<path opacity="0.6" d="M148.662 216.006L60.3094 266.984C53.5041 258.801 35.2856 218.914 35.2856 146.48L123.638 95.4727C123.638 163.995 139.564 203.34 148.662 216.006Z" fill="white"/>
<path d="M111.353 155.813L54.5298 188.623C54.647 189.6 54.7642 190.577 54.8814 191.553L111.815 158.684C111.661 157.739 111.5 156.78 111.353 155.813Z" fill="#F7B15C"/>
<path d="M114.115 171.079L56.7417 204.205C56.9077 205.181 57.0762 206.134 57.2472 207.061L114.715 173.884C114.51 172.954 114.312 172.053 114.115 171.079Z" fill="#F7B15C"/>
<path d="M112.642 163.497L55.5405 196.462C55.6797 197.443 55.8189 198.41 55.9654 199.392L113.17 166.369L112.642 163.497Z" fill="#F7B15C"/>
<path d="M110.225 148.033L53.7095 180.668C53.7974 181.671 53.8926 182.668 53.9952 183.649L110.628 150.956C110.489 149.981 110.357 149.007 110.225 148.033Z" fill="#F7B15C"/>
<path d="M108.445 132.203L52.603 164.435C52.647 165.468 52.6983 166.486 52.7495 167.504L108.731 135.184C108.628 134.193 108.533 133.199 108.445 132.203Z" fill="#F7B15C"/>
<path d="M109.258 140.165L53.0645 172.603C53.1279 173.618 53.2012 174.629 53.2842 175.635L109.602 143.118C109.485 142.129 109.368 141.147 109.258 140.165Z" fill="#F7B15C"/>
<path d="M122.122 200.183L63.7305 233.88C64.0162 234.796 64.2945 235.682 64.5802 236.539L123.074 202.82C122.744 201.926 122.429 201.055 122.122 200.183Z" fill="#F7B15C"/>
<path d="M115.778 178.551L58.1558 211.816C58.3462 212.775 58.5367 213.713 58.7345 214.636L116.452 181.312C116.261 180.397 115.998 179.474 115.778 178.551Z" fill="#F7B15C"/>
<path d="M119.748 193.114L61.6206 226.679C61.8697 227.602 62.1261 228.51 62.3532 229.397L120.576 195.78C120.312 194.894 120.027 194.029 119.748 193.114Z" fill="#F7B15C"/>
<path d="M117.646 185.898L59.7744 219.31C59.9942 220.255 60.2139 221.178 60.441 222.079L118.407 188.616C118.151 187.715 117.895 186.814 117.646 185.898Z" fill="#F7B15C"/>
<g opacity="0.1">
<path opacity="0.1" d="M111.353 155.813L54.5298 188.623C54.647 189.6 54.7642 190.577 54.8814 191.553L111.815 158.684C111.661 157.739 111.5 156.779 111.353 155.813Z" fill="black"/>
<path opacity="0.1" d="M114.115 171.079L56.7417 204.205C56.9077 205.181 57.0762 206.134 57.2472 207.061L114.715 173.884C114.51 172.954 114.312 172.053 114.115 171.079Z" fill="black"/>
<path opacity="0.1" d="M112.642 163.497L55.5405 196.462C55.6797 197.443 55.8189 198.41 55.9654 199.392L113.17 166.369L112.642 163.497Z" fill="black"/>
<path opacity="0.1" d="M110.225 148.033L53.709 180.668C53.7969 181.671 53.8921 182.668 53.9947 183.649L110.628 150.956C110.489 149.981 110.357 149.007 110.225 148.033Z" fill="black"/>
<path opacity="0.1" d="M108.445 132.203L52.603 164.435C52.647 165.468 52.6983 166.486 52.7495 167.504L108.731 135.184C108.628 134.193 108.533 133.199 108.445 132.203Z" fill="black"/>
<path opacity="0.1" d="M109.258 140.165L53.0645 172.602C53.1279 173.618 53.2012 174.629 53.2842 175.635L109.602 143.118C109.485 142.129 109.368 141.147 109.258 140.165Z" fill="black"/>
<path opacity="0.1" d="M122.121 200.183L63.73 233.88C64.0157 234.796 64.294 235.682 64.5797 236.539L123.074 202.82C122.744 201.926 122.429 201.055 122.121 200.183Z" fill="black"/>
<path opacity="0.1" d="M115.778 178.551L58.1558 211.816C58.3462 212.775 58.5367 213.713 58.7345 214.636L116.452 181.312C116.261 180.397 115.998 179.474 115.778 178.551Z" fill="black"/>
<path opacity="0.1" d="M119.748 193.114L61.6206 226.679C61.8697 227.602 62.1261 228.51 62.3532 229.397L120.576 195.78C120.312 194.894 120.027 194.029 119.748 193.114Z" fill="black"/>
<path opacity="0.1" d="M117.646 185.898L59.7744 219.31C59.9942 220.255 60.2139 221.178 60.441 222.079L118.407 188.616C118.151 187.715 117.895 186.814 117.646 185.898Z" fill="black"/>
</g>
<g opacity="0.3">
<path opacity="0.3" d="M111.353 155.813L54.5298 188.623C54.647 189.6 54.7642 190.577 54.8814 191.553L111.815 158.684C111.661 157.739 111.5 156.779 111.353 155.813Z" fill="white"/>
<path opacity="0.3" d="M114.115 171.079L56.7417 204.205C56.9077 205.181 57.0762 206.134 57.2472 207.061L114.715 173.884C114.51 172.954 114.312 172.053 114.115 171.079Z" fill="white"/>
<path opacity="0.3" d="M112.642 163.497L55.5405 196.462C55.6797 197.443 55.8189 198.41 55.9654 199.392L113.17 166.369L112.642 163.497Z" fill="white"/>
<path opacity="0.3" d="M110.225 148.033L53.709 180.668C53.7969 181.671 53.8921 182.668 53.9947 183.649L110.628 150.956C110.489 149.981 110.357 149.007 110.225 148.033Z" fill="white"/>
<path opacity="0.3" d="M108.445 132.203L52.603 164.435C52.647 165.468 52.6983 166.486 52.7495 167.504L108.731 135.184C108.628 134.193 108.533 133.199 108.445 132.203Z" fill="white"/>
<path opacity="0.3" d="M109.258 140.165L53.0645 172.602C53.1279 173.618 53.2012 174.629 53.2842 175.635L109.602 143.118C109.485 142.129 109.368 141.147 109.258 140.165Z" fill="white"/>
<path opacity="0.3" d="M122.121 200.183L63.73 233.88C64.0157 234.796 64.294 235.682 64.5797 236.539L123.074 202.82C122.744 201.926 122.429 201.055 122.121 200.183Z" fill="white"/>
<path opacity="0.3" d="M115.778 178.551L58.1558 211.816C58.3462 212.775 58.5367 213.713 58.7345 214.636L116.452 181.312C116.261 180.397 115.998 179.474 115.778 178.551Z" fill="white"/>
<path opacity="0.3" d="M119.748 193.114L61.6206 226.679C61.8697 227.602 62.1261 228.51 62.3532 229.397L120.576 195.78C120.312 194.894 120.027 194.029 119.748 193.114Z" fill="white"/>
<path opacity="0.3" d="M117.646 185.898L59.7744 219.31C59.9942 220.255 60.2139 221.178 60.441 222.079L118.407 188.616C118.151 187.715 117.895 186.814 117.646 185.898Z" fill="white"/>
</g>
<path d="M218.371 264.911C217.866 265.966 216.276 266.94 214.533 267.225C212.789 267.511 211.016 267.138 209.266 266.889C206.661 266.526 204.024 266.46 201.405 266.691C199.785 266.9 198.153 267.015 196.519 267.035C194.869 267.049 193.257 266.536 191.919 265.57C190.999 264.842 190.385 263.797 190.197 262.64C190.12 263.391 190.238 264.15 190.539 264.843C190.841 265.536 191.316 266.14 191.919 266.595C193.257 267.561 194.869 268.074 196.519 268.061C198.154 268.042 199.785 267.925 201.405 267.709C204.025 267.48 206.662 267.549 209.266 267.914C211.016 268.156 212.928 268.647 214.657 268.368C216.386 268.09 217.99 267.108 218.496 266.061L218.371 264.911Z" fill="#263238"/>
<path d="M199.296 261.805C200.761 261.805 200.219 259.607 201.618 258.179C201.046 258.179 200.482 258.222 199.911 258.215C198.658 260.025 198.307 261.805 199.296 261.805Z" fill="white"/>
<path d="M202.343 261.687C203.808 261.687 203.427 259.102 204.877 257.592C204.548 257.708 204.213 257.806 203.874 257.886C203.588 257.944 203.295 257.995 203.002 258.039C201.713 259.871 201.339 261.687 202.343 261.687Z" fill="white"/>
<path d="M216.855 256.728C216.759 256.256 216.5 255.833 216.122 255.534L208.196 255.336C207.351 256.402 206.205 257.188 204.907 257.592C203.442 259.102 203.845 261.687 202.372 261.687C201.369 261.687 201.742 259.871 203.031 258.025C202.57 258.091 202.108 258.135 201.647 258.164C200.248 259.629 200.79 261.79 199.325 261.79C198.336 261.79 198.687 260.01 199.94 258.201H198.827C198.49 258.201 198.153 258.2 197.816 258.142C194.886 260.449 194.651 262.947 195.032 266.874C195.533 266.962 196.04 267.013 196.548 267.028C198.182 267.008 199.814 266.893 201.435 266.683C204.054 266.452 206.691 266.519 209.295 266.881C211.046 267.13 212.818 267.504 214.562 267.218C216.305 266.932 217.895 265.958 218.4 264.903L216.855 256.728Z" fill="#455A64"/>
<path d="M197.786 258.149C196.473 257.944 195.136 257.944 193.823 258.149C193.009 258.309 192.251 258.68 191.624 259.225C190.998 259.77 190.526 260.47 190.256 261.255C190.145 261.711 190.125 262.184 190.197 262.647C190.385 263.804 190.999 264.85 191.919 265.577C192.825 266.256 193.884 266.702 195.003 266.874C194.644 262.955 194.871 260.457 197.786 258.149Z" fill="white"/>
<path d="M207.939 253.08V256.897C207.939 257.312 208.105 257.711 208.399 258.005C208.693 258.299 209.091 258.464 209.507 258.464H213.507C214.175 258.465 214.817 258.205 215.297 257.74C215.777 257.275 216.057 256.641 216.078 255.974L216.173 253.08H207.939Z" fill="#FFA8A7"/>
<path d="M234.348 251.381C234.131 251.848 233.794 252.25 233.372 252.545C232.951 252.841 232.458 253.021 231.945 253.065C230.878 253.145 229.812 252.889 228.898 252.333C227.528 251.461 226.993 250.084 226.055 248.846C225.074 247.648 223.96 246.565 222.737 245.615C221.423 244.645 220.342 243.394 219.572 241.953C219.381 241.527 219.256 241.075 219.199 240.612C219.08 241.49 219.209 242.383 219.572 243.191C220.34 244.633 221.421 245.884 222.737 246.853C223.959 247.807 225.072 248.893 226.055 250.091C226.993 251.329 227.52 252.706 228.898 253.578C229.812 254.134 230.878 254.391 231.945 254.311C232.458 254.266 232.951 254.087 233.372 253.791C233.794 253.495 234.131 253.093 234.348 252.626C234.508 251.93 234.557 251.213 234.494 250.501C234.493 250.8 234.444 251.097 234.348 251.381Z" fill="#263238"/>
<path d="M225.345 243C225.203 243.186 225.135 243.419 225.155 243.652C225.178 243.765 225.23 243.87 225.306 243.958C225.381 244.045 225.478 244.111 225.587 244.15C225.742 244.189 225.905 244.188 226.06 244.147C226.215 244.106 226.357 244.026 226.473 243.916C226.706 243.694 226.915 243.449 227.096 243.183C227.625 242.515 228.33 242.007 229.132 241.718C229.524 241.574 229.933 241.482 230.348 241.447L229.359 240.546C228.736 240.577 228.125 240.727 227.557 240.986C226.633 241.418 225.862 242.12 225.345 243Z" fill="white"/>
<path d="M225.557 239.85C224.635 240.291 223.869 241.001 223.36 241.887C223.221 242.077 223.153 242.311 223.169 242.546C223.193 242.658 223.245 242.762 223.321 242.848C223.397 242.934 223.493 242.999 223.601 243.037C223.757 243.077 223.92 243.076 224.075 243.035C224.23 242.994 224.373 242.914 224.488 242.802C224.722 242.582 224.931 242.337 225.111 242.07C225.584 241.462 226.202 240.984 226.909 240.678C227.615 240.372 228.387 240.249 229.154 240.319L228.158 239.447C227.271 239.348 226.373 239.487 225.557 239.85Z" fill="white"/>
<path d="M227.528 238.861C226.629 237.983 225.576 237.278 224.422 236.781C223.723 236.477 222.954 236.372 222.2 236.477C221.445 236.581 220.734 236.892 220.144 237.374C219.743 237.796 219.448 238.306 219.284 238.864C219.12 239.422 219.091 240.011 219.199 240.583C219.256 241.046 219.382 241.498 219.573 241.923C219.832 242.483 220.161 243.008 220.554 243.484C220.935 240.07 223.902 238.473 227.528 238.861Z" fill="white"/>
<path d="M234.429 248.033C234.446 246.875 234.179 245.731 233.652 244.7L231.726 242.678L230.348 241.425C229.933 241.46 229.524 241.552 229.132 241.696C228.33 241.985 227.625 242.493 227.096 243.161C226.915 243.427 226.706 243.672 226.473 243.894C226.357 244.004 226.215 244.084 226.06 244.125C225.905 244.166 225.742 244.167 225.587 244.128C225.478 244.089 225.381 244.023 225.306 243.936C225.23 243.848 225.178 243.743 225.155 243.63C225.135 243.397 225.203 243.164 225.345 242.978C225.854 242.092 226.621 241.382 227.543 240.942C228.11 240.683 228.722 240.534 229.345 240.502L229.125 240.297C228.358 240.227 227.586 240.35 226.879 240.656C226.173 240.962 225.555 241.44 225.081 242.048C224.902 242.315 224.693 242.56 224.459 242.78C224.343 242.892 224.201 242.972 224.046 243.013C223.891 243.054 223.728 243.055 223.572 243.015C223.464 242.977 223.368 242.912 223.292 242.826C223.216 242.74 223.164 242.636 223.14 242.524C223.124 242.289 223.192 242.055 223.331 241.865C223.804 241.029 224.513 240.35 225.368 239.913C226.224 239.476 227.188 239.298 228.143 239.403L228.107 239.367L227.513 238.839C223.887 238.451 220.92 240.048 220.54 243.462C221.207 244.232 221.943 244.94 222.737 245.579C223.961 246.528 225.074 247.612 226.056 248.809C226.993 250.047 227.521 251.424 228.898 252.296C229.812 252.852 230.878 253.109 231.945 253.029C232.459 252.984 232.951 252.805 233.373 252.509C233.795 252.213 234.131 251.811 234.348 251.344C234.445 251.058 234.494 250.759 234.495 250.457C234.531 249.6 234.451 248.384 234.429 248.033Z" fill="#455A64"/>
<path d="M227.477 242.004L227.704 246.099C230.29 247.564 233.007 246.78 233.908 245.835L234.084 242.004H227.477Z" fill="#FFA8A7"/>
<path d="M232.568 153.439C232.345 153.001 232.213 152.523 232.179 152.033L231.952 148.516L206.899 150.128C206.569 151.879 206.232 154.032 205.903 156.472C214.859 158.811 224.365 157.73 232.568 153.439Z" fill="#FFA8A7"/>
<path d="M232.077 139.257L237.417 149.564L232.568 157.681L237.93 166.193L246.025 153.622C246.57 152.771 246.925 151.812 247.068 150.811C247.211 149.81 247.138 148.79 246.853 147.82C245.468 142.922 243.71 138.136 241.593 133.507L232.077 139.257Z" fill="#FFA8A7"/>
<path d="M227.835 119.31C233.982 118.167 237.49 120.211 242.677 134.107C240.56 138.861 231.564 140.612 231.564 140.612L227.835 119.31Z" fill="#455A64"/>
<path opacity="0.2" d="M227.835 119.31C233.982 118.167 237.49 120.211 242.677 134.107C240.56 138.861 231.564 140.612 231.564 140.612L227.835 119.31Z" fill="white"/>
<path d="M207.104 104.901L205.039 108.505L207.302 109.34L207.104 104.901Z" fill="#FF9192"/>
<path d="M206.877 103.296C207.207 100.139 208.13 97.1649 210.189 95.6559C209.637 99.5818 210.474 103.577 212.555 106.952C212.759 105.909 213.296 104.96 214.086 104.249C214.466 103.88 214.942 103.625 215.46 103.513C215.979 103.402 216.518 103.439 217.016 103.619C217.696 103.944 218.222 104.522 218.481 105.23C218.756 105.911 218.83 106.657 218.694 107.378C218.558 108.1 218.217 108.767 217.712 109.3C217.207 109.834 216.56 110.211 215.847 110.387C215.134 110.562 214.385 110.53 213.69 110.292C213.974 111.695 214.661 112.985 215.667 114.004C216.673 115.023 217.953 115.726 219.353 116.028C221.193 116.399 223.102 116.218 224.84 115.508L225.697 119.757C222.232 123.419 216.313 120.973 216.313 120.973L215.536 116.782C208.723 117.193 208.086 117.076 207.339 113.325C206.722 110.019 206.567 106.644 206.877 103.296Z" fill="#FFA8A7"/>
<path d="M206.064 95.7365C206.677 94.3503 207.571 93.1064 208.689 92.0838C209.808 91.0611 211.126 90.2819 212.562 89.7955C215.442 88.8377 218.514 88.6037 221.506 89.1142C223.364 89.3254 225.171 89.8584 226.846 90.6892C228.543 91.5503 229.924 92.9243 230.795 94.6156L231.146 91.6855C231.508 91.762 231.843 91.9323 232.118 92.1791C232.394 92.4259 232.599 92.7407 232.714 93.092C232.811 93.4636 232.813 93.8537 232.72 94.2263C232.626 94.5989 232.44 94.9419 232.179 95.2237H232.45C233.651 95.2227 234.839 95.4583 235.948 95.9169C237.058 96.3755 238.065 97.0483 238.914 97.8966C239.764 98.745 240.437 99.7523 240.897 100.861C241.356 101.97 241.593 103.158 241.593 104.359V119.874C240.414 119.875 239.247 119.643 238.157 119.193C237.068 118.742 236.079 118.081 235.245 117.248C234.412 116.414 233.751 115.425 233.3 114.335C232.849 113.246 232.618 112.079 232.619 110.9V107.369C231.508 110.008 229.743 112.32 227.491 114.087C226.692 114.671 225.82 115.148 224.898 115.508C223.16 116.218 221.251 116.399 219.411 116.028C218.012 115.726 216.731 115.023 215.725 114.004C214.719 112.985 214.033 111.695 213.749 110.292C214.443 110.53 215.192 110.562 215.905 110.387C216.618 110.211 217.265 109.834 217.77 109.3C218.275 108.767 218.616 108.1 218.752 107.378C218.889 106.657 218.815 105.911 218.539 105.23C218.28 104.522 217.754 103.944 217.074 103.619C216.576 103.439 216.037 103.402 215.519 103.513C215.001 103.625 214.524 103.88 214.144 104.249C213.355 104.96 212.817 105.909 212.613 106.952C210.532 103.577 209.695 99.5818 210.247 95.6559C208.189 97.1649 207.266 100.139 206.936 103.296C206.175 102.207 205.698 100.946 205.545 99.6265C205.393 98.3068 205.572 96.9701 206.064 95.7365Z" fill="#F7B15C"/>
<path opacity="0.4" d="M206.064 95.7365C206.677 94.3503 207.571 93.1064 208.689 92.0838C209.808 91.0611 211.126 90.2819 212.562 89.7955C215.442 88.8377 218.514 88.6037 221.506 89.1142C223.364 89.3254 225.171 89.8584 226.846 90.6892C228.543 91.5503 229.924 92.9243 230.795 94.6156L231.146 91.6855C231.508 91.762 231.843 91.9323 232.118 92.1791C232.394 92.4259 232.599 92.7407 232.714 93.092C232.811 93.4636 232.813 93.8537 232.72 94.2263C232.626 94.5989 232.44 94.9419 232.179 95.2237H232.45C233.651 95.2227 234.839 95.4583 235.948 95.9169C237.058 96.3755 238.065 97.0483 238.914 97.8966C239.764 98.745 240.437 99.7523 240.897 100.861C241.356 101.97 241.593 103.158 241.593 104.359V119.874C240.414 119.875 239.247 119.643 238.157 119.193C237.068 118.742 236.079 118.081 235.245 117.248C234.412 116.414 233.751 115.425 233.3 114.335C232.849 113.246 232.618 112.079 232.619 110.9V107.369C231.508 110.008 229.743 112.32 227.491 114.087C226.692 114.671 225.82 115.148 224.898 115.508C223.16 116.218 221.251 116.399 219.411 116.028C218.012 115.726 216.731 115.023 215.725 114.004C214.719 112.985 214.033 111.695 213.749 110.292C214.443 110.53 215.192 110.562 215.905 110.387C216.618 110.211 217.265 109.834 217.77 109.3C218.275 108.767 218.616 108.1 218.752 107.378C218.889 106.657 218.815 105.911 218.539 105.23C218.28 104.522 217.754 103.944 217.074 103.619C216.576 103.439 216.037 103.402 215.519 103.513C215.001 103.625 214.524 103.88 214.144 104.249C213.355 104.96 212.817 105.909 212.613 106.952C210.532 103.577 209.695 99.5818 210.247 95.6559C208.189 97.1649 207.266 100.139 206.936 103.296C206.175 102.207 205.698 100.946 205.545 99.6265C205.393 98.3068 205.572 96.9701 206.064 95.7365Z" fill="black"/>
<path d="M216.335 120.973L209.632 122.291C208.167 125.002 206.636 127.551 205.156 130.261C204.042 132.305 202.892 134.473 202.958 136.803C203.023 138.045 203.434 139.243 204.145 140.264C204.855 141.284 205.838 142.085 206.98 142.575L206.203 151.732C216.73 154.948 229.601 152.121 232.429 149.688C233.264 145.85 233.996 141.77 234.824 137.931C235.446 135.456 235.826 132.927 235.959 130.379C236.087 127.818 235.474 125.275 234.194 123.053L234.201 122.973C233.321 121.648 232.075 120.609 230.614 119.981C229.153 119.353 227.541 119.163 225.975 119.434L216.335 120.973Z" fill="#455A64"/>
<path opacity="0.3" d="M216.335 120.973L209.632 122.291C208.167 125.002 206.636 127.551 205.156 130.261C204.042 132.305 202.892 134.473 202.958 136.803C203.023 138.045 203.434 139.243 204.145 140.264C204.855 141.284 205.838 142.085 206.98 142.575L206.203 151.732C216.73 154.948 229.601 152.121 232.429 149.688C233.264 145.85 233.996 141.77 234.824 137.931C235.446 135.456 235.826 132.927 235.959 130.379C236.087 127.818 235.474 125.275 234.194 123.053L234.201 122.973C233.321 121.648 232.075 120.609 230.614 119.981C229.153 119.353 227.541 119.163 225.975 119.434L216.335 120.973Z" fill="white"/>
<path d="M232.956 154.084C232.804 153.883 232.674 153.667 232.568 153.439C224.366 157.73 214.859 158.811 205.903 156.472C204.013 170.529 202.394 194.33 203.39 210.036C204.218 228.313 207.58 254.201 207.58 254.201C211.976 255.512 215.258 254.714 216.503 253.761C217.968 235.623 221.184 223.199 218.7 211.208C220.363 202.82 221.433 192.293 221.433 192.293L222.7 210.812L226.993 243.374C228.197 243.993 229.543 244.283 230.895 244.215C232.247 244.147 233.557 243.723 234.692 242.986C237.813 224.364 238.985 211.75 236.252 202.505C240.413 171.951 240.626 164.134 232.956 154.084Z" fill="#455A64"/>
<path opacity="0.3" d="M223.272 188.631L225.572 178.983C228.253 178.543 232.443 176.785 234.648 173.123C231.469 175.615 227.56 176.994 223.521 177.049L221.426 192.308L221.873 198.828L222.056 196.454C222.251 193.818 222.657 191.202 223.272 188.631Z" fill="black"/>
<path d="M192.087 122.929C188.596 122.879 185.118 122.497 181.7 121.786C181.7 121.786 174.99 114.05 171.942 109.472C171.572 108.914 171.35 108.271 171.298 107.604C171.257 107.283 171.257 106.958 171.298 106.637L172.309 100.271C172.399 99.7153 172.357 99.146 172.185 98.6099C172.013 98.0738 171.717 97.5861 171.32 97.1869L167.979 93.8098C167.819 93.6621 167.609 93.5799 167.39 93.5795C167.172 93.5791 166.962 93.6606 166.801 93.8079C166.64 93.9551 166.54 94.1574 166.52 94.3748C166.501 94.5921 166.564 94.8088 166.697 94.9819L169.159 97.9121L164.434 99.0549C164.161 99.1208 163.911 99.258 163.709 99.4523C163.507 99.6467 163.36 99.8913 163.284 100.161L162.742 102.11C162.628 102.513 162.666 102.945 162.85 103.322C163.034 103.698 163.35 103.995 163.738 104.153L164.375 104.424V104.871C164.347 105.982 164.754 107.06 165.511 107.875C165.701 108.446 166.404 109.926 166.404 109.926L173.21 127.368C173.638 128.499 174.354 129.499 175.286 130.27C176.219 131.041 177.336 131.555 178.528 131.763L190.066 133.778C191.41 132.36 192.317 130.585 192.68 128.665C193.042 126.745 192.844 124.761 192.109 122.951L192.087 122.929Z" fill="#FFA8A7"/>
<path d="M208.562 122.167C204.409 122.364 198.182 123.046 192.065 122.899C192.8 124.71 192.998 126.693 192.636 128.613C192.273 130.533 191.366 132.308 190.021 133.726L204.423 136.246C205.943 136.486 207.498 136.152 208.784 135.308C210.071 134.465 210.997 133.172 211.383 131.682C211.829 129.858 212.313 128.327 212.591 126.555C212.668 125.991 212.62 125.417 212.451 124.874C212.281 124.331 211.993 123.833 211.608 123.414C211.223 122.995 210.751 122.665 210.224 122.45C209.698 122.234 209.13 122.138 208.562 122.167Z" fill="#455A64"/>
<path opacity="0.2" d="M208.562 122.167C204.409 122.364 198.182 123.046 192.065 122.899C192.8 124.71 192.998 126.693 192.636 128.613C192.273 130.533 191.366 132.308 190.021 133.726L204.423 136.246C205.943 136.486 207.498 136.152 208.784 135.308C210.071 134.465 210.997 133.172 211.383 131.682C211.829 129.858 212.313 128.327 212.591 126.555C212.668 125.991 212.62 125.417 212.451 124.874C212.281 124.331 211.993 123.833 211.608 123.414C211.223 122.995 210.751 122.665 210.224 122.45C209.698 122.234 209.13 122.138 208.562 122.167Z" fill="white"/>
</svg>
