<svg width="235" height="185" viewBox="0 0 235 185" fill="none" xmlns="http://www.w3.org/2000/svg">
<g clip-path="url(#clip0)">
<path opacity="0.1" d="M137.817 31.264C122.947 30.7521 108.783 25.9994 95.2598 20.7986C81.7366 15.5978 68.3421 9.83504 53.8286 7.07993C44.4938 5.30764 33.8172 5.05738 26.2974 10.0125C19.0579 14.7902 16.719 23.0146 15.4623 30.6543C14.5157 36.4011 13.9597 42.4482 16.5536 47.8288C18.3525 51.5645 21.5484 54.7041 23.7563 58.2941C31.4461 70.7434 26.0125 86.0956 17.6794 98.2513C13.7736 103.955 9.23596 109.399 6.22161 115.465C3.20726 121.53 1.81037 128.489 4.44792 134.682C7.0648 140.825 13.298 145.43 20.0481 148.672C33.762 155.258 49.9159 157.142 65.6792 158.209C100.563 160.572 135.63 159.549 170.605 158.525C183.549 158.145 196.548 157.76 209.281 155.779C216.353 154.678 223.652 152.933 228.787 148.715C235.303 143.361 236.918 134.295 232.553 127.584C225.226 116.324 204.983 113.528 199.855 101.443C197.038 94.7932 199.933 87.3855 204.027 81.2155C212.813 67.9837 227.537 56.374 228.314 41.2493C228.847 30.859 221.766 20.4574 210.821 15.5409C199.349 10.3697 183.436 11.0249 174.977 19.5542C166.26 28.3428 150.945 31.7144 137.817 31.264Z" fill="white"/>
<path d="M100.045 157.094L21.4057 156.714L13.5918 138.566L41.2218 136.58L36.4062 116.682L91.0552 109.668L38.7244 91.6538L43.347 90.5663L127.494 104.16L122.86 135.212L116.236 152.278L100.045 157.094Z" fill="white"/>
<path d="M22.6133 149.113C22.6133 149.113 27.4381 148.349 30.333 151.725C30.333 151.725 28.21 153.381 23.6426 151.088L22.6133 149.113Z" fill="white"/>
<path d="M22.1072 149.038C22.1072 149.038 19.0285 152.789 20.5449 156.966C20.5449 156.966 23.0538 155.972 23.3272 150.908L22.1072 149.038Z" fill="white"/>
<path d="M19.3418 142.87C19.3418 142.87 21.2717 139.364 28.9914 144.272C28.9914 144.272 27.9621 146.629 24.5526 146.438C21.1431 146.246 20.2424 144.718 19.3418 142.87Z" fill="white"/>
<path d="M18.8401 142.618C18.8401 142.618 14.8355 142.163 14.4473 151.24C14.4473 151.24 16.986 151.761 18.7896 148.89C20.5931 146.019 19.8533 144.408 18.8401 142.618Z" fill="white"/>
<path d="M16.5117 135.376C16.5117 135.376 18.7633 129.197 26.9333 133.592C26.9333 133.592 25.0677 139.262 17.348 137.478L16.5117 135.376Z" fill="white"/>
<path d="M14.002 126.139C14.002 126.139 18.2478 119.896 25.7745 125.684C25.7745 125.684 23.1369 131.545 14.6453 128.36L14.002 126.139Z" fill="white"/>
<path d="M13.1016 117.348C13.1016 117.348 18.055 111.613 25.5082 117.348C25.5082 117.348 20.8121 122.381 13.1016 118.814V117.348Z" fill="white"/>
<path d="M12.3281 108.81C12.3281 108.81 17.3459 102.822 24.4866 108.492C24.4866 108.492 18.8255 113.779 12.3281 110.211V108.81Z" fill="white"/>
<path d="M12.7812 101.229C12.7812 101.229 18.0656 93.5213 24.7468 98.745C24.7468 98.745 19.0857 105.37 12.7812 102.695V101.229Z" fill="white"/>
<path d="M14.002 92.3748C14.002 92.3748 19.5987 84.7305 26.0961 90.5911C26.0961 90.5911 19.4701 97.2162 14.002 93.7762V92.3748Z" fill="white"/>
<path d="M15.8657 84.4599C15.8657 84.4599 22.4917 77.2752 28.2723 80.1372C28.2723 80.1372 21.3682 87.7678 15.5762 86.3664L15.8657 84.4599Z" fill="white"/>
<path d="M18.1848 76.9566C18.1848 76.9566 25.831 68.1566 30.279 71.096C30.279 71.096 24.6454 77.9212 17.6426 78.6038L18.1848 76.9566Z" fill="white"/>
<path d="M21.5272 68.2545C21.5272 68.2545 28.2199 61.0697 33.1091 62.8534C33.1091 62.8534 27.3836 70.3066 20.6289 70.4977L21.5272 68.2545Z" fill="white"/>
<path d="M24.5482 60.1142C24.5482 60.1142 31.9462 53.2344 35.1628 54.4447C35.1628 54.4447 29.8233 62.089 24.2266 61.6431L24.5482 60.1142Z" fill="white"/>
<path d="M27.5098 52.5974C27.5098 52.5974 33.8785 44.3776 37.3547 45.0146C37.3547 45.0146 33.4925 52.3426 27.5098 53.4323V52.5974Z" fill="white"/>
<path d="M30.7203 42.4621C30.7203 42.4621 36.3493 36.1624 39.3912 36.176C39.3912 36.176 34.9478 44.5938 30.4883 44.5165L30.7203 42.4621Z" fill="white"/>
<path d="M32.6232 35.7141L38.0615 22.5914C38.0615 22.5914 38.3326 34.4537 31.9316 38.1484L32.6232 35.7141Z" fill="white"/>
<path d="M34.8336 21.2423C34.8336 21.2423 35.7343 10.2833 35.1553 9.39148C35.1553 9.39148 39.0427 18.5031 34.7969 26.0837L34.8336 21.2423Z" fill="white"/>
<path d="M16.3006 135.23C16.3006 135.23 10.6625 131.77 7.01172 140.236C7.01172 140.236 12.0295 143.534 16.9646 137.389L16.3006 135.23Z" fill="white"/>
<path d="M13.8207 125.787C13.8207 125.787 6.90517 122.663 3.55078 131.502C3.55078 131.502 8.89253 135.142 14.4502 128.021L13.8207 125.787Z" fill="white"/>
<path d="M12.7816 117.874C12.7816 117.874 7.82817 112.138 0.375 117.874C0.375 117.874 5.07114 122.907 12.7816 119.339V117.874Z" fill="white"/>
<path d="M12.1585 108.81C12.1585 108.81 7.14071 102.822 0 108.492C0 108.492 5.6611 113.779 12.1585 110.211V108.81Z" fill="white"/>
<path d="M12.7799 101.448C12.7799 101.448 9.26013 92.8139 1.60938 96.5268C1.60938 96.5268 5.74492 104.182 12.4675 102.881L12.7799 101.448Z" fill="white"/>
<path d="M14.4454 92.3319C14.4454 92.3319 10.9462 83.5477 3.1875 87.6202C3.1875 87.6202 7.93878 95.6717 14.1007 93.6878L14.4454 92.3319Z" fill="white"/>
<path d="M16.6124 84.5029C16.6124 84.5029 15.2339 74.8725 8.80078 74.0103C8.80078 74.0103 10.1655 84.1662 15.7462 86.2388L16.6124 84.5029Z" fill="white"/>
<path d="M18.3466 76.9748C18.3466 76.9748 17.809 65.3719 12.4902 64.9669C12.4902 64.9669 12.6694 73.7737 17.747 78.6174L18.3466 76.9748Z" fill="white"/>
<path d="M22.0769 67.9292C22.0769 67.9292 20.4916 58.2807 15.4141 57.1022C15.4141 57.1022 16.0436 66.4459 21.5737 70.2976L22.0769 67.9292Z" fill="white"/>
<path d="M25.1509 60.1938C25.1509 60.1938 25.098 50.1425 21.9964 48.666C21.9964 48.666 20.0733 57.7663 24.2525 61.477L25.1509 60.1938Z" fill="white"/>
<path d="M27.7458 52.4837C27.7458 52.4837 27.3115 42.1343 24.0996 40.676C24.0996 40.676 23.0014 48.8663 27.2656 53.1616L27.7458 52.4837Z" fill="white"/>
<path d="M31.1716 43.2878C31.1716 43.2878 31.1532 34.87 28.8603 32.8953C28.8603 32.8953 26.5811 42.1161 29.9746 44.9805L31.1716 43.2878Z" fill="white"/>
<path d="M32.3548 35.3002L30.1239 21.2903C30.1239 21.2903 27.0935 32.7703 32.4605 37.8301L32.3548 35.3002Z" fill="white"/>
<path d="M32.7897 21.3745C32.7897 21.3745 27.0643 11.9557 27.1815 10.9092C27.1815 10.9092 27.7903 20.7807 34.993 25.6972L32.7897 21.3745Z" fill="white"/>
<path d="M33.4597 18.592C33.4597 18.592 28.0559 5.21453 25.6113 4.13159C25.6113 4.13159 33.331 8.01742 33.91 18.2098L33.4597 18.592Z" fill="white"/>
<path d="M30.4617 44.5961L30.0918 44.4846C34.6524 29.7581 35.7897 20.3688 33.2968 18.0141L33.5611 17.7366C36.2055 20.221 35.1326 29.5078 30.4617 44.5961Z" fill="#444053"/>
<path d="M17.9042 79.0771L17.3574 78.8837C17.8422 77.5346 18.3637 76.165 18.9105 74.8158C23.671 63.0674 27.7239 52.1379 30.3224 43.7474L30.7979 43.5199C28.1948 51.9263 24.2132 63.2744 19.4482 75.0388C18.9037 76.3629 18.3844 77.7257 17.9042 79.0771Z" fill="#444053"/>
<path d="M29.4114 160.133C29.3379 160.054 21.9468 151.811 16.7934 137.74C13.7739 129.502 12.0934 120.841 11.8147 112.082C11.4609 101.132 13.7814 88.9054 17.7561 77.7985L18.188 78.299C9.26446 103.227 12.8095 124.588 17.5126 137.451C22.6108 151.395 29.9192 159.546 29.9904 159.628L29.4114 160.133Z" fill="#444053"/>
<path d="M144.913 142.634C144.913 142.634 139.704 148.929 143.84 158.446L102.255 176.305L98.2638 177.133L96.4258 169.17L97.655 159.121V153.629L144.913 142.634Z" fill="#D5D6DB"/>
<path d="M13.5918 138.566L71.1494 128.175L147.416 140.206L100.045 157.094L13.5918 138.566Z" fill="white"/>
<path d="M13.5918 138.566L71.1494 128.175L147.416 140.206L100.045 157.094L13.5918 138.566Z" fill="white"/>
<path d="M13.5926 138.563C13.5926 138.563 8.20948 148.662 14.4128 157.99L99.7658 176.305C99.7658 176.305 94.4677 168.26 100.039 157.094L13.5926 138.563Z" fill="white"/>
<path opacity="0.1" d="M13.5926 138.563C13.5926 138.563 8.20948 148.662 14.4128 157.99L99.7658 176.305C99.7658 176.305 94.4677 168.26 100.039 157.094L13.5926 138.563Z" fill="black"/>
<path opacity="0.1" d="M16.1349 142.065C16.1349 142.065 13.0585 149.454 16.1349 154.236Z" fill="black"/>
<path d="M99.7651 176.305L147.416 156.17C147.416 156.17 150.081 156.739 148.358 158.673C146.635 160.607 100.684 178.239 100.684 178.239L14.4121 157.99L99.7651 176.305Z" fill="white"/>
<path opacity="0.1" d="M99.7651 176.305L147.416 156.17C147.416 156.17 150.081 156.739 148.358 158.673C146.635 160.607 100.684 178.239 100.684 178.239L14.4121 157.99L99.7651 176.305Z" fill="black"/>
<path opacity="0.1" d="M95.8587 159.128C95.8587 159.128 91.2636 164.588 95.8587 172.779Z" fill="black"/>
<path opacity="0.1" d="M118.107 159.036L97.4961 165.845L97.5688 166.061L118.18 159.251L118.107 159.036Z" fill="black"/>
<path opacity="0.1" d="M122.234 158.358L97.4883 167.676L97.5699 167.889L122.316 158.571L122.234 158.358Z" fill="black"/>
<path opacity="0.1" d="M126.028 158.325L97.6289 169.836L97.7159 170.046L126.115 158.536L126.028 158.325Z" fill="black"/>
<path opacity="0.1" d="M130.149 157.34L97.959 171.739L98.0536 171.946L130.244 157.547L130.149 157.34Z" fill="black"/>
<path opacity="0.1" d="M133.612 157.344L98.2129 172.666L98.3049 172.874L133.704 157.553L133.612 157.344Z" fill="black"/>
<path opacity="0.1" d="M141.188 156.07L98.7461 174.222L98.8372 174.431L141.279 156.279L141.188 156.07Z" fill="black"/>
<path opacity="0.3" d="M34.9746 139.676L75.411 131.258L100.045 135.922L66.9102 146.501L34.9746 139.676Z" fill="white"/>
<path d="M147.418 140.206C147.418 140.206 149.509 141.041 148.282 142.331C147.055 143.621 100.041 157.094 100.041 157.094L147.418 140.206Z" fill="white"/>
<path d="M167.725 120.752C167.725 120.752 162.519 127.045 166.654 136.564L125.069 154.423L121.078 155.256L119.24 147.293L120.488 137.246V131.747L167.725 120.752Z" fill="#D5D6DB"/>
<path d="M36.4043 116.682L93.9596 106.294L170.228 118.324L122.858 135.212L36.4043 116.682Z" fill="#3A3768"/>
<path d="M36.3969 116.682C36.3969 116.682 31.0115 126.781 37.2148 136.109L122.568 154.423C122.568 154.423 117.272 146.372 122.85 135.21L36.3969 116.682Z" fill="#3A3768"/>
<path opacity="0.1" d="M36.3969 116.682C36.3969 116.682 31.0115 126.781 37.2148 136.109L122.568 154.423C122.568 154.423 117.272 146.372 122.85 135.21L95.8591 129.424L36.3969 116.682Z" fill="black"/>
<path opacity="0.1" d="M38.9463 120.183C38.9463 120.183 35.8723 127.57 38.9463 132.355Z" fill="black"/>
<path d="M122.58 154.423L170.233 134.289C170.233 134.289 172.895 134.857 171.172 136.791C169.449 138.725 123.499 156.357 123.499 156.357L37.2266 136.109L122.58 154.423Z" fill="#3A3768"/>
<path opacity="0.1" d="M122.58 154.423L170.233 134.289C170.233 134.289 172.895 134.857 171.172 136.791C169.449 138.725 123.499 156.357 123.499 156.357L37.2266 136.109L122.58 154.423Z" fill="black"/>
<path opacity="0.1" d="M118.673 137.246C118.673 137.246 114.078 142.706 118.673 150.897Z" fill="black"/>
<path opacity="0.1" d="M140.917 137.156L120.307 143.966L120.379 144.181L140.99 137.372L140.917 137.156Z" fill="black"/>
<path opacity="0.1" d="M145.048 136.477L120.303 145.795L120.384 146.008L145.13 136.69L145.048 136.477Z" fill="black"/>
<path opacity="0.1" d="M148.836 136.442L120.438 147.952L120.525 148.163L148.923 136.652L148.836 136.442Z" fill="black"/>
<path opacity="0.1" d="M152.966 135.456L120.775 149.856L120.87 150.063L153.06 135.664L152.966 135.456Z" fill="black"/>
<path opacity="0.1" d="M156.426 135.458L121.027 150.78L121.119 150.988L156.518 135.667L156.426 135.458Z" fill="black"/>
<path opacity="0.1" d="M164.002 134.185L121.561 152.336L121.652 152.545L164.093 134.393L164.002 134.185Z" fill="black"/>
<path opacity="0.45" d="M57.791 117.794L98.2275 109.377L122.862 114.04L89.7266 124.62L57.791 117.794Z" fill="white"/>
<path d="M170.23 118.324C170.23 118.324 172.318 119.159 171.094 120.447C169.869 121.735 122.859 135.21 122.859 135.21L170.23 118.324Z" fill="#3A3768"/>
<path d="M169.884 95.7192C169.884 95.7192 164.676 107.019 168.811 116.536L127.226 129.39L123.244 130.225L121.406 122.262L122.635 112.213V106.715L169.884 95.7192Z" fill="#D5D6DB"/>
<path d="M38.5723 91.6515L96.1299 81.2612L172.398 93.2918L125.026 110.18L38.5723 91.6515Z" fill="white"/>
<path d="M38.5716 91.6492C38.5716 91.6492 33.1794 101.748 39.3827 111.076L124.736 129.39C124.736 129.39 119.438 121.339 125.016 110.18L38.5716 91.6492Z" fill="white"/>
<path opacity="0.1" d="M38.5716 91.6492C38.5716 91.6492 33.1794 101.748 39.3827 111.076L124.736 129.39C124.736 129.39 119.438 121.339 125.016 110.18L38.5716 91.6492Z" fill="black"/>
<path opacity="0.1" d="M41.1153 95.1504C41.1153 95.1504 38.0389 102.54 41.1153 107.322Z" fill="black"/>
<path d="M124.744 129.39L172.394 114.261C172.394 114.261 175.059 114.83 173.336 116.764C171.613 118.698 125.663 131.324 125.663 131.324L39.3906 111.076L124.744 129.39Z" fill="white"/>
<path opacity="0.1" d="M124.744 129.39L172.394 114.261C172.394 114.261 175.059 114.83 173.336 116.764C171.613 118.698 125.663 131.324 125.663 131.324L39.3906 111.076L124.744 129.39Z" fill="black"/>
<path opacity="0.1" d="M120.841 112.214C120.841 112.214 116.246 117.674 120.841 125.864Z" fill="black"/>
<path opacity="0.1" d="M143.089 112.123L122.479 118.932L122.551 119.148L143.162 112.339L143.089 112.123Z" fill="black"/>
<path opacity="0.1" d="M147.218 111.446L122.473 120.764L122.554 120.976L147.3 111.658L147.218 111.446Z" fill="black"/>
<path opacity="0.1" d="M151.004 111.411L122.605 122.922L122.693 123.132L151.091 111.622L151.004 111.411Z" fill="black"/>
<path opacity="0.1" d="M155.134 110.424L122.943 124.823L123.038 125.03L155.228 110.631L155.134 110.424Z" fill="black"/>
<path opacity="0.1" d="M158.594 110.428L123.195 125.749L123.287 125.958L158.686 110.636L158.594 110.428Z" fill="black"/>
<path opacity="0.1" d="M166.172 109.155L123.73 127.307L123.822 127.516L166.263 109.364L166.172 109.155Z" fill="black"/>
<path opacity="0.3" d="M59.9551 92.7618L100.391 84.344L125.025 89.0079L91.8906 99.5871L59.9551 92.7618Z" fill="white"/>
<path d="M172.398 93.2915C172.398 93.2915 174.488 94.1265 173.262 95.4164C172.035 96.7064 125.027 110.179 125.027 110.179L172.398 93.2915Z" fill="white"/>
<path d="M71.3169 24.2295C71.3169 24.2295 62.5862 23.7085 63.6063 29.7738C63.6063 29.7738 63.4019 30.8454 64.3829 31.3322C64.3829 31.3322 64.399 30.8772 65.2789 31.0342C65.593 31.0876 65.9124 31.1029 66.2301 31.0797C66.6584 31.0507 67.0657 30.8846 67.3904 30.6065V30.6065C67.3904 30.6065 69.8464 29.6009 70.8022 25.6241C70.8022 25.6241 71.5099 24.7573 71.4915 24.5343L70.0119 25.1577C70.0119 25.1577 70.515 26.211 70.1198 27.087C70.1198 27.087 70.0716 25.1964 69.7867 25.2396C69.7293 25.2396 69.0216 25.6059 69.0216 25.6059C69.0216 25.6059 69.8878 27.4419 69.233 28.7751C69.233 28.7751 69.4811 26.5136 68.7505 25.7378L67.712 26.3385C67.712 26.3385 68.7252 28.2336 68.0383 29.7806C68.0383 29.7806 68.2152 27.4077 67.4938 26.4841L66.5518 27.2121C66.5518 27.2121 67.5053 29.0799 66.924 30.3631C66.924 30.3631 66.8482 27.6011 66.3496 27.3918C66.3496 27.3918 65.5248 28.1107 65.4007 28.4065C65.4007 28.4065 66.0532 29.7715 65.6466 30.4791C65.6466 30.4791 65.4007 28.6386 65.187 28.6294C65.187 28.6294 64.3668 29.8489 64.2818 30.677C64.3215 29.905 64.5647 29.1567 64.9872 28.5066C64.5144 28.5952 64.0783 28.819 63.7327 29.1504C63.7327 29.1504 63.8591 28.2882 65.1916 28.2131C65.1916 28.2131 65.8694 27.2872 66.0509 27.2326C66.0509 27.2326 64.7252 27.1211 63.9234 27.4737C63.9234 27.4737 64.631 26.6615 66.2922 27.0187L67.2112 26.2679C67.2112 26.2679 65.4696 26.0404 64.7298 26.293C64.7298 26.293 65.5822 25.574 67.4616 26.0973L68.4748 25.499C68.4748 25.499 66.9883 25.1827 66.1038 25.2965C66.1038 25.2965 67.0366 24.7982 68.7712 25.3374L69.4926 25.0166C69.4926 25.0166 68.4059 24.8051 68.0865 24.7709C67.7672 24.7368 67.7511 24.6503 67.7511 24.6503C68.4408 24.5382 69.1485 24.6169 69.7959 24.8779C69.7959 24.8779 71.3467 24.325 71.3169 24.2295Z" fill="white"/>
<path opacity="0.1" d="M194.145 49.1599C194.145 49.1599 185.414 48.6389 186.434 54.7042C186.434 54.7042 186.23 55.7758 187.211 56.2627C187.211 56.2627 187.227 55.8076 188.107 55.9646C188.421 56.0168 188.74 56.0321 189.058 56.0101C189.483 55.9792 189.886 55.8132 190.207 55.5369V55.5369C190.207 55.5369 192.665 54.5313 193.619 50.5545C193.619 50.5545 194.326 49.6877 194.308 49.4647L192.833 50.0881C192.833 50.0881 193.336 51.1415 192.941 52.0174C192.941 52.0174 192.893 50.1268 192.61 50.17C192.553 50.17 191.843 50.5363 191.843 50.5363C191.843 50.5363 192.709 52.3723 192.057 53.7055C192.057 53.7055 192.305 51.4441 191.572 50.6683L190.533 51.2689C190.533 51.2689 191.546 53.164 190.86 54.7111C190.86 54.7111 191.036 52.3382 190.315 51.4145L189.375 52.1425C189.375 52.1425 190.326 54.0103 189.745 55.2935C189.745 55.2935 189.669 52.5315 189.171 52.3222C189.171 52.3222 188.348 53.0412 188.222 53.3369C188.222 53.3369 188.874 54.702 188.47 55.4095C188.47 55.4095 188.222 53.569 188.011 53.5599C188.011 53.5599 187.19 54.7793 187.105 55.6074C187.145 54.8351 187.389 54.0866 187.813 53.437C187.34 53.5258 186.903 53.7496 186.556 54.0809C186.556 54.0809 186.685 53.2186 188.015 53.1435C188.015 53.1435 188.693 52.2176 188.874 52.1607C188.874 52.1607 187.551 52.0515 186.747 52.4041C186.747 52.4041 187.455 51.5919 189.116 51.9491L190.035 51.1983C190.035 51.1983 188.291 50.9708 187.553 51.2234C187.553 51.2234 188.403 50.5044 190.285 51.0277L191.296 50.4294C191.296 50.4294 189.81 50.1131 188.925 50.2269C188.925 50.2269 189.858 49.7286 191.592 50.2678L192.316 49.9471C192.316 49.9471 191.227 49.7355 190.908 49.7013C190.588 49.6672 190.572 49.5808 190.572 49.5808C191.262 49.4672 191.97 49.5459 192.617 49.8083C192.617 49.8083 194.173 49.2554 194.145 49.1599Z" fill="white"/>
<path opacity="0.1" d="M86.0254 61.7001C86.0254 61.7001 82.2207 53.8898 77.3775 57.7392C77.3775 57.7392 76.3321 58.085 76.3826 59.1703C76.3826 59.1703 76.7847 58.9632 77.0719 59.8005C77.1792 60.0964 77.3211 60.3789 77.4946 60.6422C77.7297 60.9992 78.0757 61.2707 78.4803 61.4158C78.4803 61.4158 80.5641 63.0493 84.5366 61.9345C84.5366 61.9345 85.6463 62.1233 85.8278 61.9914L84.5595 61.0199C84.5595 61.0199 83.8703 61.9686 82.9099 62.0528C82.9099 62.0528 84.5549 61.0904 84.378 60.8675C84.3413 60.822 83.6888 60.3829 83.6888 60.3829C83.6888 60.3829 82.4918 62.0278 80.9984 62.1119C80.9984 62.1119 83.1121 61.2247 83.4383 60.2122L82.4045 59.6071C82.4045 59.6071 81.2258 61.4089 79.528 61.5682C79.528 61.5682 81.706 60.5649 82.1678 59.491L81.0696 59.036C81.0696 59.036 79.8864 60.7696 78.4711 60.8948C78.4711 60.8948 80.8697 59.4819 80.81 58.9473C80.81 58.9473 79.7738 58.5878 79.4521 58.622C79.4521 58.622 78.5745 59.8482 77.7474 59.8482C77.7474 59.8482 79.2477 58.7357 79.1558 58.556C79.1558 58.556 77.6807 58.4422 76.9042 58.7835C77.6039 58.4391 78.3826 58.2822 79.1626 58.3285C78.8532 57.9631 78.4428 57.695 77.9817 57.5572C77.9817 57.5572 78.8042 57.2478 79.5188 58.3603C79.5188 58.3603 80.6675 58.4946 80.8031 58.6242C80.8031 58.6242 80.254 57.4275 79.5532 56.9065C79.5532 56.9065 80.6147 57.1181 81.0995 58.7266L82.2138 59.1634C82.2138 59.1634 81.5727 57.5436 80.9823 57.0317C80.9823 57.0317 82.03 57.4162 82.4872 59.3068L83.5073 59.8892C83.5073 59.8892 83.0638 58.4491 82.5308 57.7415C82.5308 57.7415 83.4246 58.3057 83.7945 60.0666L84.4309 60.5353C84.4309 60.5353 84.0862 59.491 83.9714 59.1998C83.8565 58.9086 83.9139 58.8495 83.9139 58.8495C84.351 59.3896 84.6278 60.0395 84.7135 60.7264C84.7135 60.7264 85.9426 61.7684 86.0254 61.7001Z" fill="white"/>
<path opacity="0.1" d="M174.197 38.1258C174.197 38.1258 170.395 30.3154 165.549 34.1649C165.549 34.1649 164.506 34.5107 164.554 35.5959C164.554 35.5959 164.959 35.3911 165.244 36.2261C165.351 36.5233 165.493 36.8066 165.669 37.0702C165.903 37.4264 166.248 37.6972 166.652 37.8414V37.8414C166.652 37.8414 168.738 39.4749 172.708 38.3624C172.708 38.3624 173.818 38.549 174.002 38.417L172.74 37.4433C172.74 37.4433 172.051 38.3942 171.093 38.4784C171.093 38.4784 172.736 37.5138 172.559 37.2908C172.522 37.2453 171.87 36.8062 171.87 36.8062C171.87 36.8062 170.675 38.4511 169.179 38.5353C169.179 38.5353 171.295 37.648 171.622 36.6379L170.572 36.0373C170.572 36.0373 169.395 37.8369 167.695 37.9984C167.695 37.9984 169.873 36.9928 170.337 35.919L169.237 35.464C169.237 35.464 168.053 37.1998 166.641 37.3227C166.641 37.3227 169.037 35.9099 168.977 35.3775C168.977 35.3775 167.943 35.0158 167.622 35.0522C167.622 35.0522 166.744 36.2762 165.914 36.2762C165.914 36.2762 167.417 35.1636 167.325 34.9839C167.325 34.9839 165.85 34.8702 165.071 35.2114C165.771 34.8669 166.55 34.71 167.33 34.7564C167.021 34.3908 166.612 34.1226 166.151 33.9852C166.151 33.9852 166.974 33.6757 167.688 34.7883C167.688 34.7883 168.837 34.9248 168.972 35.0544C168.972 35.0544 168.423 33.8555 167.72 33.3345C167.72 33.3345 168.782 33.5483 169.267 35.1659L170.383 35.6027C170.383 35.6027 169.742 33.9806 169.152 33.4687C169.152 33.4687 170.199 33.8532 170.654 35.7438L171.677 36.3262C171.677 36.3262 171.231 34.8884 170.698 34.1785C170.698 34.1785 171.594 34.7427 171.962 36.5037L172.598 36.9723C172.598 36.9723 172.256 35.9281 172.138 35.6369C172.021 35.3456 172.081 35.2888 172.081 35.2888C172.517 35.8294 172.793 36.4791 172.878 37.1657C172.878 37.1657 174.126 38.1986 174.197 38.1258Z" fill="white"/>
<path opacity="0.1" d="M186.352 76.7589C186.352 76.7589 182.55 68.9463 177.698 72.7958C177.698 72.7958 176.655 73.1416 176.703 74.2268C176.703 74.2268 177.107 74.022 177.392 74.857C177.498 75.154 177.64 75.4374 177.815 75.701C178.049 76.0573 178.394 76.3281 178.798 76.4723C178.798 76.4723 180.884 78.1081 184.857 76.9933C184.857 76.9933 185.964 77.1821 186.148 77.0479L184.88 76.0764C184.88 76.0764 184.19 77.0274 183.23 77.1116C183.23 77.1116 184.873 76.1469 184.696 75.924C184.659 75.8785 184.007 75.4394 184.007 75.4394C184.007 75.4394 182.812 77.0843 181.316 77.1707C181.316 77.1707 183.432 76.2812 183.759 75.271L182.722 74.6659C182.722 74.6659 181.546 76.4677 179.846 76.627C179.846 76.627 182.024 75.6214 182.488 74.5476L181.387 74.0925C181.387 74.0925 180.204 75.8262 178.791 75.9513C178.791 75.9513 181.19 74.5385 181.13 74.0038C181.13 74.0038 180.094 73.6421 179.772 73.6785C179.772 73.6785 178.895 74.9025 178.065 74.9025C178.065 74.9025 179.568 73.79 179.476 73.6102C179.476 73.6102 178.001 73.4965 177.222 73.8377C177.923 73.4934 178.702 73.3366 179.483 73.3827C179.174 73.0165 178.763 72.7483 178.302 72.6115C178.302 72.6115 179.124 72.2998 179.839 73.4146C179.839 73.4146 180.988 73.5488 181.123 73.6785C181.123 73.6785 180.574 72.4818 179.873 71.9585C179.873 71.9585 180.935 72.1724 181.42 73.79L182.534 74.2268C182.534 74.2268 181.893 72.6046 181.302 72.095C181.302 72.095 182.35 72.4772 182.805 74.3701L183.827 74.9502C183.827 74.9502 183.382 73.5124 182.849 72.8026C182.849 72.8026 183.745 73.3668 184.115 75.13L184.751 75.585C184.751 75.585 184.406 74.5407 184.292 74.2495C184.177 73.9583 184.234 73.9014 184.234 73.9014C184.671 74.4415 184.947 75.0915 185.031 75.7784C185.031 75.7784 186.281 76.8272 186.352 76.7589Z" fill="white"/>
<path opacity="0.1" d="M46.3972 178.402C49.3144 178.402 51.6793 178.141 51.6793 177.818C51.6793 177.495 49.3144 177.233 46.3972 177.233C43.4801 177.233 41.1152 177.495 41.1152 177.818C41.1152 178.141 43.4801 178.402 46.3972 178.402Z" fill="white"/>
<path opacity="0.1" d="M11.7722 168.465C14.6894 168.465 17.0543 168.203 17.0543 167.88C17.0543 167.557 14.6894 167.295 11.7722 167.295C8.85507 167.295 6.49023 167.557 6.49023 167.88C6.49023 168.203 8.85507 168.465 11.7722 168.465Z" fill="white"/>
<path opacity="0.1" d="M72.7918 185.002C75.709 185.002 78.0738 184.74 78.0738 184.417C78.0738 184.095 75.709 183.833 72.7918 183.833C69.8746 183.833 67.5098 184.095 67.5098 184.417C67.5098 184.74 69.8746 185.002 72.7918 185.002Z" fill="white"/>
<path opacity="0.1" d="M208.05 170.626C210.967 170.626 213.332 170.364 213.332 170.041C213.332 169.718 210.967 169.457 208.05 169.457C205.132 169.457 202.768 169.718 202.768 170.041C202.768 170.364 205.132 170.626 208.05 170.626Z" fill="white"/>
<path opacity="0.1" d="M164.095 167.789C167.012 167.789 169.377 167.527 169.377 167.204C169.377 166.881 167.012 166.62 164.095 166.62C161.177 166.62 158.812 166.881 158.812 167.204C158.812 167.527 161.177 167.789 164.095 167.789Z" fill="white"/>
<path opacity="0.1" d="M135.659 181.626C139.109 181.626 141.906 181.15 141.906 180.564C141.906 179.977 139.109 179.501 135.659 179.501C132.209 179.501 129.412 179.977 129.412 180.564C129.412 181.15 132.209 181.626 135.659 181.626Z" fill="white"/>
<path d="M138.445 169.885C138.445 169.885 129.746 174.335 134.24 179.576C134.24 179.576 134.663 180.714 135.885 180.634C135.885 180.634 135.642 180.193 136.575 179.84C136.907 179.713 137.222 179.547 137.514 179.347C137.909 179.076 138.205 178.686 138.355 178.234V178.234C138.355 178.234 140.133 175.877 138.755 171.516C138.755 171.516 138.934 170.283 138.778 170.082L137.721 171.518C137.721 171.518 138.812 172.244 138.939 173.311C138.939 173.311 137.79 171.52 137.56 171.718C137.51 171.759 137.036 172.503 137.036 172.503C137.036 172.503 138.93 173.775 139.07 175.427C139.07 175.427 138.004 173.113 136.853 172.783L136.193 173.948C136.193 173.948 138.261 175.195 138.491 177.069C138.491 177.069 137.289 174.692 136.062 174.212L135.577 175.443C135.577 175.443 137.572 176.698 137.756 178.259C137.756 178.259 136.088 175.65 135.488 175.731C135.488 175.731 135.111 176.887 135.162 177.244C135.162 177.244 136.57 178.177 136.595 179.094C136.595 179.094 135.295 177.467 135.095 177.574C135.095 177.574 135.012 179.21 135.412 180.061C135.412 180.061 134.723 178.846 134.835 177.574C134.432 177.927 134.143 178.389 134.001 178.903C134.001 178.903 133.627 178.004 134.861 177.176C134.861 177.176 134.978 175.904 135.12 175.747C135.12 175.747 133.785 176.393 133.218 177.185C133.218 177.185 133.427 176.004 135.237 175.417L135.697 174.171C135.697 174.171 133.887 174.931 133.328 175.599C133.328 175.599 133.73 174.428 135.839 173.866L136.464 172.728C136.464 172.728 134.856 173.265 134.07 173.866C134.07 173.866 134.679 172.858 136.657 172.394L137.165 171.677C137.165 171.677 135.998 172.089 135.672 172.237C135.345 172.385 135.281 172.312 135.281 172.312C135.877 171.813 136.602 171.486 137.374 171.37C137.374 171.37 138.525 169.962 138.445 169.885Z" fill="white"/>
<path d="M164.266 85.8362C162.763 81.7934 154.492 81.4134 150.903 82.444C148.353 83.1789 142.977 84.007 140.105 84.4234L139.919 84.2482C140.291 84.139 140.3 83.8705 140.254 83.4724C140.227 82.9477 140.235 82.4218 140.277 81.898C142.037 82.4395 143.604 81.1586 143.604 81.1586C145.672 80.2486 145.116 76.3537 145.511 75.2889C145.807 74.4927 146.127 69.8015 146.269 67.4627H146.299L146.315 66.6778C146.336 66.3388 146.345 66.1409 146.345 66.1409C146.345 66.1409 146.547 60.4213 146.942 59.2633C147.31 58.1986 147.608 52.8339 147.654 51.9831C147.654 51.9103 147.654 51.8716 147.654 51.8716L147.625 51.3756C147.645 51.0139 147.654 50.6112 147.652 50.188C147.652 48.2428 147.448 45.7926 147.422 45.3967C147.422 45.3398 147.422 45.2716 147.422 45.1897C147.438 44.3593 147.333 40.2005 143.76 38.6284C142.444 38.046 140.861 37.3521 139.328 36.6764C138.933 33.2979 138.03 29.9376 138.108 26.5341C138.108 26.0222 138.154 25.5103 138.205 25.0007C138.205 25.1486 138.189 25.2987 138.186 25.4557C138.186 25.7856 138.186 26.1177 138.186 26.4476C138.322 22.191 139.946 17.9115 139.795 13.7459C139.781 14.1531 139.751 14.5626 139.712 14.9721C139.791 13.5631 139.642 12.1507 139.271 10.7883C139.133 10.3082 138.947 9.81227 138.549 9.49149C138.174 9.23313 137.743 9.06418 137.29 8.99779C136.203 8.72223 135.099 8.51854 133.984 8.38807C133.815 7.87476 133.563 7.39163 133.24 6.95705C130.91 3.79015 127.459 0.814349 123.379 0.131827C121.332 -0.209435 118.977 0.0749497 117.584 1.52417C117.439 1.65148 117.302 1.78829 117.175 1.93369C116.426 2.81869 116.105 3.98125 115.337 4.86398C115.287 4.92314 115.229 4.97774 115.174 5.03461C113.672 6.36553 111.331 6.64309 109.66 7.83751C109.366 8.05192 109.09 8.2901 108.835 8.5496C108.162 9.21004 107.559 9.93649 107.034 10.7178C106.283 11.7643 105.511 12.854 105.272 14.1031C104.792 16.6056 106.513 18.9786 106.832 21.4971C107.544 27.1324 101.247 32.133 102.439 37.6933C102.757 39.0593 103.46 40.308 104.466 41.2948C102.009 43.497 99.9187 45.6333 99.9187 45.6333V45.7607H99.5305L99.5695 46.2157H99.5305L99.7441 48.6842L99.5305 52.2788C99.5305 52.2788 99.5305 52.3175 99.5305 52.3903V52.4085V52.5063C99.5305 52.5063 99.5305 52.545 99.5305 52.6178H99.5443C99.6155 53.9351 99.8981 58.6718 100.234 59.6705C100.629 60.8286 100.829 66.5481 100.829 66.5481C100.829 66.5481 101.265 74.6314 101.665 75.7007C102.065 76.77 101.497 80.6536 103.572 81.5704C104.179 82.0314 104.897 82.3264 105.656 82.4258C105.55 83.2767 105.617 83.8933 105.959 84.0866C106.105 84.1719 106.271 84.2189 106.441 84.2232C106.301 84.4299 106.175 84.6466 106.067 84.8715C105.243 84.7864 104.434 84.5976 103.659 84.3096C101.431 83.3996 94.0348 81.352 91.8866 82.7921C89.7384 84.2322 84.569 85.5381 86.9561 91.335C89.3432 97.1319 90.4552 97.2775 90.4552 97.2775C91.19 97.8057 91.8346 98.4471 92.3645 99.1772C93.0813 100.244 99.7602 102.685 101.431 102.685C102.14 102.675 102.85 102.71 103.556 102.79C103.556 102.79 101.743 104.364 101.984 105.279C102.225 106.194 101.433 113.515 101.433 113.515C101.433 113.515 103.271 115.348 104.057 112.944L104.084 112.98C104.231 113.178 105.026 114.072 106.522 112.944C107.134 112.484 107.784 112.076 108.466 111.724L115.707 110.71C116.462 110.663 117.219 110.658 117.975 110.694C119.124 110.787 120.252 110.114 120.962 109.593C122.462 110.157 124.148 110.773 124.95 110.999C126.577 111.454 134.053 113.44 135.802 112.819C136.165 112.675 136.488 112.448 136.743 112.154L138.411 112.207L137.63 112.361C137.63 112.361 139.151 112.386 141.219 112.414L141.132 112.464L143.726 112.441C147.521 112.475 151.785 112.486 152.346 112.361C153.224 112.168 157.784 112.304 159.128 112.361H159.503C159.503 112.361 164.514 111.372 162.446 106.337C160.856 102.469 155.969 101.345 153.8 101.036C154.411 100.915 154.938 100.822 155.287 100.767C156.801 100.54 159.742 99.1749 159.981 98.7086C160.22 98.2422 162.685 96.8885 163.321 96.1172C163.958 95.346 165.775 89.879 164.266 85.8362ZM122.761 97.1501L122.515 97.2298L122.349 97.2844L122.032 97.5938C121.78 97.4254 121.509 97.248 121.226 97.066C121.725 97.0955 122.237 97.1251 122.761 97.1501Z"/>
<path d="M137.406 73.1619C137.406 73.1619 140.921 82.2622 142.92 81.3522C144.919 80.4421 144.377 76.5745 144.758 75.5143C145.14 74.4541 145.562 66.414 145.562 66.414C145.562 66.414 145.755 60.7263 146.137 59.5751C146.491 58.5172 146.778 53.1822 146.826 52.3427C146.826 52.2699 146.826 52.2312 146.826 52.2312L146.447 45.6335L144.301 45.1034L139.325 46.9235L138.635 50.8207L138.367 52.3427L138.252 52.9911L137.406 73.1619Z" fill="#FFC4B0"/>
<path opacity="0.1" d="M138.566 71.6375C138.566 71.6375 141.921 74.3562 142.932 74.595C143.943 74.8339 144.563 76.9543 144.563 76.9543" fill="black"/>
<path d="M109.92 73.56C109.92 73.56 106.405 82.6603 104.406 81.7502C102.407 80.8402 102.949 76.9726 102.568 75.9124C102.186 74.8522 101.764 66.8121 101.764 66.8121C101.764 66.8121 101.571 61.1244 101.189 59.9732C100.835 58.9153 100.548 53.5803 100.5 52.7408C100.5 52.6679 100.5 52.6293 100.5 52.6293L100.881 46.0316L103.027 45.5015L108.004 47.3215L108.693 51.2187L108.962 52.7408L109.077 53.3891L109.92 73.56Z" fill="#FFC4B0"/>
<path d="M132.807 24.8597H124.961V36.97H132.807V24.8597Z" fill="#3E373A"/>
<path opacity="0.1" d="M132.807 24.8597H124.961V36.97H132.807V24.8597Z" fill="black"/>
<path d="M108.537 82.6239C108.537 82.6239 105.855 85.5428 106.85 86.0729C107.845 86.603 114.28 96.5382 114.28 96.5382C114.28 96.5382 135.418 99.1159 139.404 95.2482C143.39 91.3806 143.31 84.4712 143.31 84.4712C143.31 84.4712 140.107 85.1538 139.758 84.7829C139.408 84.4121 137.49 82.6239 137.49 82.6239C137.49 82.6239 110.375 80.9949 108.537 82.6239Z" fill="#4B4B5B"/>
<path opacity="0.02" d="M108.537 82.6239C108.537 82.6239 105.855 85.5428 106.85 86.0729C107.845 86.603 114.28 96.5382 114.28 96.5382C114.28 96.5382 135.418 99.1159 139.404 95.2482C143.39 91.3806 143.31 84.4712 143.31 84.4712C143.31 84.4712 140.107 85.1538 139.758 84.7829C139.408 84.4121 137.49 82.6239 137.49 82.6239C137.49 82.6239 110.375 80.9949 108.537 82.6239Z" fill="black"/>
<path d="M146.593 45.7291L139.7 51.1893L137.616 51.3394L136.851 51.394L124.001 52.3268L110.675 51.3622L108.692 51.2188L106.165 51.0368L100.881 46.0317C100.881 46.0317 104.621 42.0639 107.898 39.3862C109.189 38.3283 110.409 37.4728 111.298 37.1361L111.449 37.0838C112.009 36.8678 112.508 36.5231 112.906 36.0782C115.493 33.4368 117.885 26.9188 117.885 26.9188C117.885 26.9188 129.297 21.0809 127.918 28.7388C126.54 36.3967 133.049 34.5039 133.049 34.5039L135.194 35.473L136.042 35.8575L138.204 36.8381L143.082 39.054C146.91 40.799 146.593 45.7291 146.593 45.7291Z" fill="#FFC4B0"/>
<path opacity="0.1" d="M123.462 33.1546C129.13 33.1546 133.725 28.6046 133.725 22.9919C133.725 17.3791 129.13 12.8291 123.462 12.8291C117.794 12.8291 113.199 17.3791 113.199 22.9919C113.199 28.6046 117.794 33.1546 123.462 33.1546Z" fill="black"/>
<path opacity="0.1" d="M146.609 52.9684H100.5C100.5 52.8956 100.5 52.8569 100.5 52.8569L100.881 46.2592C100.881 46.2592 104.622 42.2915 107.898 39.6137L136.847 38.4762L138.193 37.0702L143.071 39.2861C146.901 41.0288 146.593 45.9589 146.593 45.9589C146.593 45.9589 147.117 51.6716 146.609 52.9684Z" fill="black"/>
<path d="M146.609 52.7409H100.5C100.5 52.6681 100.5 52.6294 100.5 52.6294L100.881 46.0317C100.881 46.0317 104.622 42.064 107.898 39.3862L136.847 38.2486L138.193 36.8427L143.071 39.0586C146.901 40.8013 146.593 45.7314 146.593 45.7314C146.593 45.7314 147.117 51.4441 146.609 52.7409Z" fill="#E7C7CA"/>
<path opacity="0.1" d="M116.071 34.2399C116.071 34.2399 123.345 43.4175 133.034 34.051C142.722 24.6845 134.107 54.9431 134.107 54.9431L113.199 57.4001L116.071 34.2399Z" fill="black"/>
<path d="M116.071 34.6948C116.071 34.6948 123.345 43.8725 133.034 34.506C142.722 25.1395 134.107 55.398 134.107 55.398L113.199 57.8551L116.071 34.6948Z" fill="#E7C7CA"/>
<path opacity="0.1" d="M136.031 36.3056L136.801 47.9289L137.625 51.7965L138.255 54.7541C138.255 54.7541 139.863 77.5049 139.404 78.6424C138.944 79.78 139.634 80.69 139.73 81.2952C139.827 81.9003 139.634 83.4201 139.709 84.1026C139.785 84.7851 139.709 85.0877 137.949 84.8443C136.19 84.6008 133.736 84.1777 133.736 84.1777C133.736 84.1777 127.532 84.6327 125.389 83.8751C123.245 83.1175 119.186 83.1152 119.186 83.1152C119.186 83.1152 113.058 83.2677 111.068 83.0401C109.079 82.8126 108.004 85.4677 106.703 84.7078C105.403 83.9479 108.233 76.5949 109.152 74.4699C110.071 72.345 107.928 66.9622 107.928 66.9622L110.685 51.817L111.298 48.3839V37.591L111.45 37.5387C112.009 37.3227 112.508 36.978 112.906 36.5331L113.596 47.3943L135.192 48.1542V35.9302" fill="black"/>
<path d="M136.031 35.8506L136.801 47.474L137.625 51.3416L138.255 54.2992C138.255 54.2992 139.863 77.0499 139.404 78.1875C138.944 79.325 139.634 80.235 139.73 80.8402C139.827 81.4454 139.634 82.9651 139.709 83.6476C139.785 84.3302 139.709 84.6328 137.949 84.3893C136.19 84.1459 133.736 83.7227 133.736 83.7227C133.736 83.7227 127.532 84.1777 125.389 83.4201C123.245 82.6625 119.186 82.6603 119.186 82.6603C119.186 82.6603 113.058 82.8127 111.068 82.5852C109.079 82.3577 108.004 85.0127 106.703 84.2528C105.403 83.4929 108.233 76.1399 109.152 74.015C110.071 71.8901 107.928 66.5072 107.928 66.5072L110.685 51.3621L111.298 47.929V37.136L111.45 37.0837C112.009 36.8677 112.508 36.523 112.906 36.0781L113.596 46.9393L135.192 47.6992V35.4752" fill="#E7C7CA"/>
<path opacity="0.1" d="M138.514 11.5937C138.383 11.1182 138.201 10.6245 137.824 10.306C137.465 10.0502 137.049 9.88182 136.611 9.81458C135.563 9.54171 134.498 9.33952 133.422 9.20941C133.269 8.70423 133.036 8.22599 132.733 7.79204C130.481 4.64334 127.15 1.67437 123.23 1.00322C121.179 0.650585 118.801 0.96682 117.487 2.56847C116.765 3.44893 116.455 4.61604 115.727 5.48057C114.323 7.15957 111.789 7.3666 110.02 8.66567C109.075 9.34819 108.391 10.3378 107.722 11.2979C106.998 12.3376 106.254 13.4206 106.024 14.6628C105.565 17.1449 107.221 19.5109 107.527 22.0158C108.216 27.6193 102.151 32.5903 103.297 38.1188C103.966 41.3426 106.973 43.6131 110.084 44.7643C111.18 45.1715 112.432 45.5765 112.944 46.6184C113.174 47.0735 113.213 47.599 113.429 48.0586C114.155 49.592 116.542 49.6511 117.824 48.5341C119.106 47.417 119.511 45.6106 119.662 43.9248C120.278 36.5626 117.3 29.2892 117.647 21.9089C117.751 19.677 118.385 17.1449 120.404 16.1347C123.122 14.7697 126.392 17.0448 129.383 16.6102C130.799 20.0209 131.099 23.7851 130.242 27.3736C129.767 29.337 128.944 31.2412 128.885 33.266C128.795 36.3488 130.474 39.1653 131.927 41.8908C132.238 42.4005 132.446 42.9654 132.54 43.5539C132.563 44.1511 132.451 44.7457 132.211 45.2944C131.391 47.4807 129.976 49.5101 129.815 51.8375C129.768 52.1091 129.83 52.3883 129.987 52.6155C130.149 52.7672 130.358 52.8602 130.58 52.8795C133.062 53.3003 135.207 51.1231 136.418 48.9367C137.768 46.5219 138.555 43.8384 138.72 41.0832C138.971 36.4511 137.294 31.8942 137.397 27.2576C137.516 21.9862 139.922 16.6785 138.514 11.5937Z" fill="black"/>
<path d="M138.742 11.3662C138.611 10.8907 138.429 10.397 138.053 10.0785C137.693 9.82263 137.277 9.65429 136.84 9.58705C135.792 9.31417 134.726 9.11199 133.651 8.98188C133.497 8.4767 133.264 7.99845 132.961 7.56451C130.71 4.4158 127.378 1.44683 123.459 0.775682C121.407 0.423046 119.029 0.739281 117.715 2.34093C116.994 3.22139 116.683 4.3885 115.955 5.25303C114.551 6.93204 112.017 7.13907 110.248 8.43814C109.304 9.12066 108.619 10.1103 107.951 11.0704C107.227 12.1101 106.482 13.193 106.253 14.4352C105.793 16.9173 107.45 19.2834 107.755 21.7883C108.445 27.3918 102.379 32.3628 103.526 37.8913C104.194 41.115 107.202 43.3856 110.312 44.5368C111.408 44.944 112.66 45.349 113.173 46.3909C113.403 46.846 113.442 47.3715 113.658 47.8311C114.384 49.3645 116.771 49.4236 118.053 48.3066C119.335 47.1895 119.739 45.3831 119.891 43.6973C120.507 36.3351 117.529 29.0617 117.876 21.6813C117.979 19.4495 118.613 16.9173 120.633 15.9072C123.351 14.5422 126.62 16.8172 129.612 16.3827C131.027 19.7933 131.328 23.5575 130.471 27.1461C129.995 29.1095 129.173 31.0137 129.113 33.0385C129.023 36.1213 130.703 38.9378 132.155 41.6633C132.467 42.173 132.675 42.7379 132.768 43.3264C132.791 43.9236 132.679 44.5182 132.44 45.0668C131.62 47.2532 130.204 49.2826 130.044 51.61C129.996 51.8816 130.058 52.1608 130.216 52.388C130.378 52.5397 130.587 52.6327 130.809 52.6519C133.29 53.0728 135.436 50.8956 136.647 48.7092C137.997 46.2944 138.783 43.6109 138.949 40.8557C139.199 36.2236 137.522 31.6667 137.625 27.03C137.745 21.7587 140.15 16.4509 138.742 11.3662Z" fill="#3E373A"/>
<path d="M133.67 112.1L142.784 112.389L141.477 105.696L134.495 106.353L133.67 112.1Z" fill="#C3C7D9"/>
<path d="M161.909 96.2358C161.295 96.9934 158.922 98.3584 158.692 98.8135C158.463 99.2685 155.63 100.634 154.173 100.861C152.716 101.089 148.124 102.076 147.28 102.606C146.676 102.988 141.826 104.199 138.64 104.87C137.776 105.072 136.903 105.228 136.023 105.336C134.644 105.411 119.559 100.331 119.559 100.331L122.467 97.3733L122.628 97.3187C123.451 97.0434 127.251 95.7717 129.36 95.1665C131.735 94.484 134.492 91.6788 134.492 91.6788C134.492 91.6788 138.55 90.3138 139.088 90.1613C139.625 90.0089 137.709 84.8536 137.709 84.8536C137.709 84.8536 146.515 83.6432 149.962 82.6172C153.408 81.5911 161.373 81.9711 162.828 85.9911C164.282 90.0112 162.531 95.4782 161.909 96.2358Z" fill="#4B4B5B"/>
<path d="M121.777 109.051C121.777 109.051 120.017 110.871 118.255 110.721C116.493 110.571 110.331 111.176 110.331 111.176C109.214 111.617 108.168 112.217 107.227 112.957C105.786 114.081 105.021 113.185 104.879 112.994L104.853 112.957C104.086 115.349 102.326 113.526 102.326 113.526C102.326 113.526 103.091 106.246 102.857 105.336C102.623 104.426 104.371 102.863 104.371 102.863L106.439 102.342L111.677 101.013L119.183 103.591L121.777 109.051Z" fill="#E7C7CA"/>
<path opacity="0.1" d="M106.43 102.342L104.879 112.994L104.853 112.958C104.086 115.349 102.326 113.526 102.326 113.526C102.326 113.526 103.091 106.246 102.857 105.336C102.623 104.426 104.371 102.863 104.371 102.863L106.43 102.342Z" fill="black"/>
<path opacity="0.1" d="M117.27 72.0426C117.27 72.0426 121.327 73.4077 124.851 72.0426Z" fill="black"/>
<path opacity="0.1" d="M131.121 74.6224C131.121 74.6224 132.805 75.4552 134.108 74.6224Z" fill="black"/>
<path opacity="0.1" d="M131.121 76.5972C131.121 76.5972 133.954 76.9725 134.492 76.215Z" fill="black"/>
<path opacity="0.1" d="M130.201 80.8404C130.201 80.8404 135.522 80.1578 136.843 79.2478Z" fill="black"/>
<path opacity="0.1" d="M113.969 79.2478C113.969 79.2478 116.956 80.9154 119.177 80.8403Z" fill="black"/>
<path opacity="0.1" d="M138.639 104.87C137.776 105.072 136.903 105.227 136.023 105.336C134.644 105.411 119.559 100.331 119.559 100.331L122.467 97.3732L122.628 97.3186C123.088 97.6394 123.464 97.9147 123.733 98.124C124.999 99.1114 126.221 97.8214 126.681 97.8214C127.14 97.8214 131.122 101.082 131.122 101.082C131.122 101.082 134.798 101.917 135.411 102.674C136.025 103.432 138.168 103.282 138.55 103.812C138.665 103.975 138.679 104.378 138.639 104.87Z" fill="black"/>
<path d="M110.333 85.1629C110.333 85.1629 106.616 85.3744 104.472 84.4803C102.329 83.5862 95.2065 81.5227 93.1387 82.972C91.0709 84.4212 86.0922 85.7021 88.3897 91.4671C90.6872 97.2321 91.7602 97.3823 91.7602 97.3823C92.471 97.9102 93.0916 98.5477 93.5982 99.2706C94.2875 100.333 100.721 102.758 102.329 102.758C103.937 102.758 106.77 102.758 110.752 105.488C114.733 108.218 118.333 108.523 118.333 108.523C118.333 108.523 123.388 110.571 124.962 111.026C126.536 111.481 133.727 113.451 135.413 112.846C137.1 112.241 138.17 108.446 138.17 108.446C138.17 108.446 138.935 105.033 138.552 104.503C138.168 103.973 136.024 104.123 135.413 103.366C134.802 102.608 131.124 101.773 131.124 101.773C131.124 101.773 127.151 98.5107 126.692 98.5107C126.232 98.5107 125.01 99.7984 123.744 98.8133C121.222 96.9638 118.573 95.2913 115.815 93.8081C112.907 92.2907 110.333 85.1629 110.333 85.1629Z" fill="#4B4B5B"/>
<path opacity="0.1" d="M102.859 87.3628C103.521 87.2289 104.205 87.2482 104.859 87.419C105.512 87.5899 106.116 87.9078 106.625 88.348C108.463 89.8655 114.648 92.9118 114.648 92.9118" fill="black"/>
<path opacity="0.1" d="M148.811 87.2673C148.811 87.2673 140.616 88.4959 139.086 90.1635Z" fill="black"/>
<path d="M158.235 112.389H157.875C156.579 112.343 152.188 112.207 151.343 112.389C150.348 112.616 137.174 112.389 137.174 112.389L139.749 111.859C139.749 111.859 138.794 108.542 139.4 108.266C139.4 108.266 135.954 106.018 138.552 104.501C141.151 102.984 143.952 103.623 143.952 103.623L150.474 101.434L151.726 101.013C151.726 101.013 159.078 101.393 161.068 106.398C163.058 111.404 158.235 112.389 158.235 112.389Z" fill="#E7C7CA"/>
<path opacity="0.1" d="M158.234 112.389H157.873C160.012 110.641 164.851 105.322 150.473 101.446L151.725 101.025C151.725 101.025 159.077 101.405 161.067 106.41C163.056 111.415 158.234 112.389 158.234 112.389Z" fill="black"/>
<path d="M144.715 106.492C144.937 106.492 145.117 106.314 145.117 106.094C145.117 105.874 144.937 105.696 144.715 105.696C144.493 105.696 144.312 105.874 144.312 106.094C144.312 106.314 144.493 106.492 144.715 106.492Z" fill="#4B4B5B"/>
<path d="M142.377 107.149C142.599 107.149 142.779 106.971 142.779 106.751C142.779 106.531 142.599 106.353 142.377 106.353C142.155 106.353 141.975 106.531 141.975 106.751C141.975 106.971 142.155 107.149 142.377 107.149Z" fill="#4B4B5B"/>
<g opacity="0.1">
<path opacity="0.1" d="M130.999 22.6164C131.088 20.114 130.639 17.6214 129.68 15.3043C126.694 15.7456 123.422 13.4637 120.702 14.8288C118.689 15.8389 118.057 18.3711 117.945 20.6029C117.917 21.1922 117.912 21.7814 117.924 22.3706C117.924 22.1613 117.924 21.9498 117.945 21.7404C118.05 19.5086 118.682 16.9764 120.702 15.9663C123.422 14.6013 126.689 16.8763 129.68 16.4418C130.492 18.4045 130.939 20.4963 130.999 22.6164V22.6164Z" fill="black"/>
<path opacity="0.1" d="M107.85 22.2C107.889 21.7043 107.879 21.2059 107.82 20.7121C107.576 18.7101 106.471 16.7967 106.271 14.8447C106.014 17.1994 107.528 19.4609 107.82 21.8497C107.85 21.9725 107.85 22.0817 107.85 22.2Z" fill="black"/>
<path opacity="0.1" d="M119.957 42.6165C119.815 44.3047 119.412 46.1088 118.119 47.2281C116.825 48.3475 114.443 48.286 113.724 46.7526C113.494 46.2976 113.46 45.7675 113.237 45.3125C112.727 44.2705 111.472 43.8656 110.376 43.4583C107.263 42.3049 104.26 40.0457 103.592 36.8128C103.532 36.5199 103.491 36.2236 103.47 35.9255C103.413 36.6028 103.454 37.2845 103.592 37.9504C104.26 41.1741 107.268 43.4424 110.376 44.5959C111.472 45.0031 112.727 45.4081 113.237 46.45C113.466 46.9051 113.506 47.4306 113.724 47.8902C114.447 49.4236 116.835 49.4827 118.119 48.3657C119.403 47.2486 119.803 45.4422 119.957 43.7541C120.027 42.8656 120.051 41.9741 120.028 41.0831C120.028 41.5996 119.998 42.1092 119.957 42.6165Z" fill="black"/>
<path opacity="0.1" d="M137.703 25.9517C137.703 26.2816 137.703 26.6092 137.703 26.9368C137.832 22.7052 139.399 18.4508 139.245 14.3079C139.125 18.1391 137.79 22.0568 137.703 25.9517Z" fill="black"/>
<path opacity="0.1" d="M132.774 43.0692C132.83 42.7993 132.848 42.5228 132.827 42.2479C132.734 41.6592 132.526 41.0941 132.213 40.5849C130.885 38.0823 129.371 35.5205 129.192 32.7427C129.192 32.861 129.176 32.9702 129.174 33.0976C129.082 36.178 130.761 38.9969 132.213 41.7224C132.46 42.1445 132.649 42.5975 132.774 43.0692V43.0692Z" fill="black"/>
<path opacity="0.1" d="M139.023 39.7775C138.852 42.5338 138.06 45.2172 136.705 47.6311C135.492 49.8174 133.348 51.9947 130.865 51.5738C130.642 51.5548 130.433 51.4608 130.272 51.3076C130.225 51.2555 130.189 51.1953 130.164 51.1301C130.136 51.3076 130.113 51.4873 130.1 51.6693C130.052 51.9403 130.114 52.2189 130.272 52.4451C130.433 52.5984 130.642 52.6923 130.865 52.7113C133.348 53.1322 135.492 50.955 136.705 48.7686C138.06 46.3548 138.852 43.6714 139.023 40.9151C139.051 40.3827 139.053 39.8526 139.037 39.3225C139.032 39.4749 139.032 39.6251 139.023 39.7775Z" fill="black"/>
</g>
<path opacity="0.1" d="M139.396 108.266C139.396 108.266 145.212 110.682 149.046 105.336" stroke="black" stroke-miterlimit="10"/>
<path opacity="0.1" d="M140.541 112.489C140.541 112.489 145.29 109.431 151.339 112.389" stroke="black" stroke-miterlimit="10"/>
<path opacity="0.1" d="M108.754 111.795C108.754 111.795 110.748 107.34 116.074 110.737" stroke="black" stroke-miterlimit="10"/>
<path opacity="0.1" d="M102.287 45.9178L106.354 42.2777C106.354 42.2777 122.122 41.2539 122.774 46.5617C122.774 46.5617 128.364 40.2688 140.12 41.6703L145.095 45.5925L131.346 51.5668L117.986 56.1557L108.146 51.7943L102.287 45.9178Z" fill="black"/>
<path d="M102.287 46.1454L106.354 42.5053C106.354 42.5053 122.122 41.4815 122.774 46.7892C122.774 46.7892 128.364 40.4964 140.12 41.8978L145.095 45.82L131.346 51.7944L117.986 56.3832L108.146 52.0219L102.287 46.1454Z" fill="#D5D6DB"/>
<path opacity="0.1" d="M100.486 46.6005L102.285 67.911L121.355 68.8597L120.528 47.6402L120.512 47.283L100.486 46.6005Z" fill="black"/>
<path d="M100.486 46.1455L102.285 67.4562L121.355 68.4049L120.528 47.1852L120.512 46.828L100.486 46.1455Z" fill="white"/>
<path opacity="0.1" d="M145.966 46.1455L126.295 49.0667V70.4729L145.518 67.7223L145.966 46.1455Z" fill="black"/>
<path d="M145.966 45.6904L126.295 48.6116V70.0178L145.518 67.2673L145.966 45.6904Z" fill="white"/>
<path opacity="0.3" d="M141.327 50.9138L130.701 52.0832L130.933 55.6687L141.32 54.5448L141.327 50.9138Z" fill="white"/>
<path d="M103.319 78.8679L104.401 81.7504C104.401 81.7504 106.01 83.1155 107.769 82.4329C109.529 81.7504 111.064 81.4114 111.829 80.7471C112.594 80.0828 113.667 76.7452 113.667 76.7452C113.667 76.7452 114.74 73.1051 115.811 72.1951C116.882 71.2851 119.717 58.7471 115.811 59.9734C111.905 61.1996 108.918 72.575 108.918 72.575C108.918 72.575 108.229 73.4077 107.234 73.4851C106.239 73.5624 104.247 73.3326 103.864 74.1676C103.48 75.0025 102.17 77.2003 103.319 78.8679Z" fill="#FFC4B0"/>
<path opacity="0.1" d="M126.298 49.0642C125.291 49.2889 124.245 49.2772 123.243 49.0299C122.241 48.7826 121.312 48.3066 120.529 47.64L121.359 68.8574C121.359 68.8574 123.312 70.9505 126.298 70.4727V49.0642Z" fill="black"/>
<path d="M126.298 48.6092C125.291 48.834 124.245 48.8222 123.243 48.5749C122.241 48.3276 121.312 47.8517 120.529 47.1851L121.359 68.4023C121.359 68.4023 123.312 70.4954 126.298 70.0176V48.6092Z" fill="white"/>
<path opacity="0.1" d="M126.298 48.6092C125.291 48.834 124.245 48.8222 123.243 48.5749C122.241 48.3276 121.312 47.8517 120.529 47.1851L121.359 68.4023C121.359 68.4023 123.312 70.4954 126.298 70.0176V48.6092Z" fill="black"/>
<path opacity="0.1" d="M126.754 46.2181C126.754 46.2181 134.756 43.7952 136.842 44.1365Z" fill="black"/>
<path opacity="0.1" d="M117.806 45.1602C117.806 45.1602 110.05 43.3401 108.754 43.8565Z" fill="black"/>
<path opacity="0.1" d="M131.803 46.5207C131.803 46.5207 137.154 44.5778 139.088 45.5015Z" fill="black"/>
<path opacity="0.1" d="M129.109 95.2596C129.939 94.643 130.821 94.1002 131.747 93.6375C133.125 92.98 135.653 91.2737 135.653 91.2737" fill="black"/>
<path opacity="0.1" d="M108.752 72.0426C108.752 72.0426 105.396 74.7613 104.387 75.0002C103.378 75.2391 102.756 77.3595 102.756 77.3595" fill="black"/>
<path d="M143.996 78.463L142.925 81.3523C142.925 81.3523 141.317 82.7173 139.555 82.0348C137.793 81.3523 136.262 81.0133 135.495 80.349C134.728 79.6847 133.657 76.3471 133.657 76.3471C133.657 76.3471 132.586 72.707 131.513 71.797C130.441 70.887 127.608 58.349 131.513 59.5753C135.419 60.8016 138.406 72.1769 138.406 72.1769C138.406 72.1769 139.095 73.0096 140.09 73.087C141.085 73.1643 143.077 72.9345 143.461 73.7695C143.844 74.6044 145.145 76.8021 143.996 78.463Z" fill="#FFC4B0"/>
<path opacity="0.1" d="M142.119 73.1482C142.119 73.1482 144.313 74.5451 144.304 76.215Z" fill="black"/>
<path d="M123.501 32.6566C129.169 32.6566 133.764 28.1066 133.764 22.4938C133.764 16.8811 129.169 12.3311 123.501 12.3311C117.833 12.3311 113.238 16.8811 113.238 22.4938C113.238 28.1066 117.833 32.6566 123.501 32.6566Z" fill="#FFC4B0"/>
<path d="M117.056 19.7658C118.302 19.5724 119.393 18.8558 120.583 18.444C123.246 17.518 126.191 18.1528 128.886 18.9877C129.92 19.3085 130.97 19.6703 132.055 19.6703C133.139 19.6703 134.29 19.2312 134.844 18.3052C135.354 17.4543 135.255 16.3487 134.825 15.4546C134.396 14.5604 133.677 13.8415 132.951 13.1636C130.561 10.9294 127.598 8.84091 124.319 9.06842C123 9.1617 121.739 9.62809 120.526 10.1445C118.998 10.7963 117.511 11.5378 116.073 12.365C114.968 12.9997 112.921 13.8484 112.285 15.0086C110.837 17.6227 114.805 20.1162 117.056 19.7658Z" fill="#3E373A"/>
<path opacity="0.1" d="M134.845 17.3498C134.291 18.2758 133.14 18.7149 132.056 18.7149C130.971 18.7149 129.921 18.3668 128.885 18.046C126.19 17.2111 123.247 16.574 120.582 17.5023C119.394 17.9141 118.3 18.6398 117.055 18.8218C115.24 19.1039 112.318 17.5387 112.001 15.548C111.644 17.8481 115.033 19.8183 117.055 19.5043C118.3 19.3109 119.394 18.5943 120.582 18.1848C123.247 17.2566 126.19 17.8936 128.885 18.7285C129.921 19.0493 130.969 19.4111 132.056 19.3974C133.142 19.3837 134.291 18.9606 134.845 18.0324C135.132 17.5274 135.245 16.9435 135.167 16.3693C135.131 16.715 135.021 17.0492 134.845 17.3498Z" fill="black"/>
<path d="M218.13 140.647C218.13 140.647 219.493 142.411 217.501 145.075C215.509 147.739 213.868 149.987 214.53 151.647C214.53 151.647 217.535 146.701 219.98 146.631C222.424 146.56 220.816 143.621 218.13 140.647Z" fill="white"/>
<path opacity="0.1" d="M218.132 140.647C218.251 140.818 218.345 141.004 218.41 141.2C220.795 143.976 222.068 146.567 219.773 146.631C217.636 146.692 215.074 150.476 214.461 151.429C214.481 151.506 214.504 151.582 214.532 151.657C214.532 151.657 217.537 146.711 219.982 146.64C222.426 146.569 220.818 143.621 218.132 140.647Z" fill="black"/>
<path d="M220.658 142.895C220.658 143.516 220.587 144.019 220.502 144.019C220.417 144.019 220.344 143.516 220.344 142.895C220.344 142.274 220.431 142.568 220.518 142.568C220.606 142.568 220.658 142.274 220.658 142.895Z" fill="#FFD037"/>
<path d="M221.531 143.637C220.981 143.933 220.501 144.112 220.46 144.037C220.419 143.962 220.83 143.66 221.379 143.355C221.928 143.05 221.712 143.273 221.753 143.355C221.795 143.437 222.082 143.339 221.531 143.637Z" fill="#FFD037"/>
<path d="M210.933 140.647C210.933 140.647 209.57 142.411 211.562 145.075C213.554 147.739 215.195 149.987 214.531 151.647C214.531 151.647 211.528 146.701 209.081 146.631C206.634 146.56 208.254 143.621 210.933 140.647Z" fill="white"/>
<path opacity="0.1" d="M210.933 140.647C210.814 140.818 210.72 141.004 210.655 141.2C208.27 143.976 206.997 146.567 209.292 146.631C211.427 146.692 213.991 150.476 214.604 151.429C214.585 151.506 214.56 151.582 214.531 151.657C214.531 151.657 211.528 146.711 209.081 146.64C206.634 146.569 208.254 143.621 210.933 140.647Z" fill="black"/>
<path d="M208.396 142.895C208.396 143.516 208.465 144.019 208.553 144.019C208.64 144.019 208.711 143.516 208.711 142.895C208.711 142.274 208.622 142.568 208.537 142.568C208.452 142.568 208.396 142.274 208.396 142.895Z" fill="#FFD037"/>
<path d="M207.532 143.637C208.081 143.933 208.561 144.112 208.602 144.037C208.644 143.962 208.232 143.66 207.683 143.355C207.134 143.05 207.35 143.273 207.309 143.355C207.267 143.437 206.98 143.339 207.532 143.637Z" fill="#FFD037"/>
<path opacity="0.1" d="M214.532 165.143C222.399 165.143 228.776 164.175 228.776 162.98C228.776 161.785 222.399 160.816 214.532 160.816C206.665 160.816 200.287 161.785 200.287 162.98C200.287 164.175 206.665 165.143 214.532 165.143Z" fill="white"/>
<path d="M221.861 149.27L221.792 149.82L221.696 150.599L221.657 150.924L221.56 151.702L221.519 152.027L221.425 152.803L220.333 161.653C220.237 162.443 218.934 163.059 217.36 163.059H211.697C210.123 163.059 208.823 162.443 208.724 161.653L207.633 152.803L207.536 152.027L207.497 151.702L207.401 150.924L207.359 150.599L207.265 149.82L207.196 149.27C207.143 148.815 207.846 148.446 208.738 148.446H220.322C221.211 148.446 221.916 148.822 221.861 149.27Z" fill="#65617D"/>
<path d="M221.791 149.821L221.697 150.599H207.36L207.264 149.821H221.791Z" fill="#9D9CB5"/>
<path d="M221.657 150.924L221.562 151.702H207.497L207.4 150.924H221.657Z" fill="#9D9CB5"/>
<path d="M221.522 152.027L221.425 152.805H207.633L207.539 152.027H221.522Z" fill="#9D9CB5"/>
</g>
<defs>

<clipPath id="clip0">
<rect width="235" height="185" fill="white"/>
</clipPath>
</defs>
</svg>
