<svg width="97" height="106" viewBox="0 0 97 106" fill="none" xmlns="http://www.w3.org/2000/svg">
<path d="M51.7838 0L43.1797 0.637278L47.0037 52.8988L55.6078 52.2615L51.7838 0Z" fill="#DADAED"/>
<path d="M46.5258 7.40894L43.5781 7.64798L43.6579 8.28525L46.6055 8.04631L46.5258 7.40894Z" fill="#989BD7"/>
<path d="M47.0043 13.2247L44.0566 13.4637L44.1362 14.101L47.0838 13.862L47.0043 13.2247Z" fill="#989BD7"/>
<path d="M47.4808 19.12L44.5332 19.3589L44.6129 19.9963L47.5606 19.7573L47.4808 19.12Z" fill="#989BD7"/>
<path d="M47.8793 24.9357L44.9316 25.1747L45.0114 25.812L47.959 25.573L47.8793 24.9357Z" fill="#989BD7"/>
<path d="M48.2777 30.8312L45.3301 31.0702L45.4098 31.7075L48.3575 31.4686L48.2777 30.8312Z" fill="#989BD7"/>
<path d="M42.9403 17.9252L37.4434 18.8811L44.6929 60.1487L50.1901 59.1926L42.9403 17.9252Z" fill="#FFADB2"/>
<path d="M42.9403 17.925L37.4434 18.881L38.3196 10.9939L39.435 10.755L42.9403 17.925Z" fill="#EBDBCD"/>
<path d="M38.6393 14.6585L39.436 14.1805L40.0734 14.2602L40.9496 13.8618L39.5155 10.9142L38.4003 11.1532L38.002 14.2602L38.6393 14.6585Z" fill="#FF7A82"/>
<path d="M55.685 51.5445C54.729 51.3852 54.0916 50.5088 54.251 49.5528L58.5531 21.9881C58.6328 21.7491 58.6327 21.51 58.7124 21.3507L61.1821 14.4197C61.5008 13.623 62.3772 13.145 63.1738 13.3043L63.5722 13.384C64.4485 13.5433 65.006 14.34 65.006 15.2164L64.4484 22.5457C64.4484 22.7847 64.3688 23.0237 64.3688 23.2627L57.836 50.3495C57.5173 51.1462 56.641 51.7835 55.685 51.5445Z" fill="#2B31BA"/>
<path d="M87.9501 70.4255H52.1797V82.3756H87.9501V70.4255Z" fill="#F8D7BC"/>
<path d="M89.4671 69.5493V70.4256H52.1031V82.3756H89.4671V83.252H12.668V69.4696H89.4671V69.5493Z" fill="#FFA941"/>
<path d="M40.9503 103.806H93.7695V84.5266H40.9503C38.3213 84.5266 36.25 86.6776 36.25 89.227V99.026C36.25 101.735 38.3213 103.806 40.9503 103.806Z" fill="#F8ECE2"/>
<path d="M9.71934 83.3315H96.158C96.4767 83.3315 96.7954 83.6502 96.7954 83.9688C96.7954 84.2875 96.4767 84.6062 96.158 84.6062H85.5623H45.8881C40.5504 84.6062 36.2485 88.9082 36.2485 94.2459C36.2485 99.5836 40.5504 103.886 45.8881 103.886H94.8833H96.158C96.4767 103.886 96.7954 104.204 96.7954 104.523C96.7954 104.842 96.4767 105.16 96.158 105.16H9.63959C4.3019 105.16 0 100.858 0 95.5205V93.1305C0.079667 87.6335 4.38165 83.3315 9.71934 83.3315Z" fill="#2B31BA"/>
<path d="M93.8489 87.6337H43.7383V88.2709H93.8489V87.6337Z" fill="#EBD0BE"/>
<path d="M93.8475 95.6003H40.0723V96.2376H93.8475V95.6003Z" fill="#EBD0BE"/>
<path d="M93.8486 99.7432H46.6855V100.381H93.8486V99.7432Z" fill="#EBD0BE"/>
<path d="M93.8479 91.8561H41.666V92.4935H93.8479V91.8561Z" fill="#EBD0BE"/>
<path d="M52.8185 69.0714H19.916V62.1404H52.8185C53.7745 62.1404 54.4914 62.8574 54.4914 63.8134V67.3187C54.4914 68.2747 53.7745 69.0714 52.8185 69.0714Z" fill="#F8E7D8"/>
<path d="M73.2925 61.6621H18.5613C18.4816 61.6621 18.3223 61.7418 18.3223 61.9011C18.3223 62.0605 18.402 62.1402 18.5613 62.1402H50.9857C52.8977 62.1402 54.4115 63.7335 54.4115 65.5658C54.4115 67.4778 52.8181 68.9915 50.9857 68.9915H18.5613C18.4816 68.9915 18.3223 69.0711 18.3223 69.2305C18.3223 69.3101 18.402 69.4695 18.5613 69.4695H73.2925C75.2045 69.4695 76.7182 67.8761 76.7182 66.0438V65.0082C76.7182 63.1758 75.2045 61.6621 73.2925 61.6621Z" fill="#FF5856"/>
<path d="M39.1165 32.7432H63.1761C63.8134 32.7432 64.2912 33.3008 64.2116 33.9382L60.7063 61.6622H41.4269L38.081 33.9382C38.0013 33.3008 38.4791 32.7432 39.1165 32.7432Z" fill="#AAACE3"/>
<path d="M63.6533 13.0653L63.255 12.9856C62.3786 12.8263 61.5024 13.3043 61.1837 14.101L58.6342 21.1913C58.5546 21.271 58.5547 21.3507 58.5547 21.51C59.3514 22.1474 60.387 22.705 61.5023 22.8643C62.538 23.0237 63.5736 22.944 64.45 22.705C64.45 22.6254 64.5297 22.5457 64.5297 22.3864L65.0873 14.8976C65.167 14.0213 64.5296 13.3043 63.6533 13.0653Z" fill="#D7D7E6"/>
<path d="M63.7347 2.39C63.9737 1.91199 64.6109 1.91199 64.85 2.39C65.2483 3.18667 65.7264 4.14267 66.1247 4.78001C66.762 5.97501 67.1604 8.68367 66.7621 10.038C66.3637 11.6313 65.2484 13.2246 64.9297 13.7823C64.85 13.862 64.7702 13.9417 64.6109 14.0214C64.2922 14.101 63.6551 14.2603 62.7787 14.101C61.5837 13.7823 61.504 13.0653 61.504 13.0653C61.504 13.0653 60.8667 10.516 60.9463 8.92265C61.026 7.32931 61.9023 5.33762 62.3006 5.01895C62.5396 4.62061 63.2567 3.346 63.7347 2.39Z" fill="#C7645D"/>
<path d="M96.1577 103.806H94.8829H90.6607C90.342 104.284 90.0233 104.682 89.625 105.001H96.0779C96.3966 105.001 96.7153 104.683 96.7153 104.364C96.7153 104.125 96.4763 103.806 96.1577 103.806Z" fill="#2B31BA"/>
<path d="M96.159 84.5266C96.4777 84.5266 96.7964 84.2079 96.7964 83.8892C96.7964 83.5706 96.4777 83.252 96.159 83.252H91.7773V84.447L96.159 84.5266Z" fill="#2B31BA"/>
</svg>
