<svg width="20" height="20" viewBox="0 0 20 20" fill="none" xmlns="http://www.w3.org/2000/svg">
<path d="M18.5352 2.79297H17.5093C17.3475 2.79297 17.2164 2.9241 17.2164 3.08594C17.2164 3.24777 17.3475 3.37891 17.5093 3.37891H18.5352C19.0198 3.37891 19.4141 3.7732 19.4141 4.25781V5.60547H0.585938V4.25781C0.585938 3.7732 0.980195 3.37891 1.46484 3.37891H16.223C16.3848 3.37891 16.516 3.24777 16.516 3.08594C16.516 2.9241 16.3848 2.79297 16.223 2.79297H1.46484C0.657109 2.79297 0 3.45008 0 4.25781V7.48754C0 7.64937 0.131172 7.78051 0.292969 7.78051C0.454766 7.78051 0.585938 7.64937 0.585938 7.48754V6.19141H19.4141V13.7448C19.4141 13.9066 19.5452 14.0377 19.707 14.0377C19.8689 14.0377 20 13.9066 20 13.7448V4.25781C20 3.45008 19.3429 2.79297 18.5352 2.79297Z" fill="white"/>
<path d="M19.707 14.6876C19.5452 14.6876 19.4141 14.8187 19.4141 14.9805V15.7425C19.4141 16.2271 19.0198 16.6214 18.5352 16.6214H1.46484C0.980195 16.6214 0.585938 16.2271 0.585938 15.7425V8.74512C0.585938 8.58328 0.454766 8.45215 0.292969 8.45215C0.131172 8.45215 0 8.58328 0 8.74512V15.7425C0 16.5502 0.657109 17.2073 1.46484 17.2073H18.5352C19.3429 17.2073 20 16.5502 20 15.7425V14.9805C20 14.8187 19.8689 14.6876 19.707 14.6876Z" fill="white"/>
<path d="M4.23723 9.15805C4.12282 9.04367 3.93731 9.04367 3.82293 9.15805L2.06238 10.9186C2.00742 10.9735 1.97656 11.048 1.97656 11.1258C1.97656 11.2035 2.00742 11.278 2.06238 11.333L3.79965 13.0702C3.85684 13.1274 3.93184 13.156 4.0068 13.156C4.08176 13.156 4.15676 13.1274 4.21395 13.0702C4.32836 12.9558 4.32836 12.7703 4.21395 12.6559L2.68383 11.1258L4.23723 9.57242C4.35168 9.45797 4.35168 9.2725 4.23723 9.15805Z" fill="white"/>
<path d="M8.17745 13.0702C8.23464 13.1274 8.30964 13.156 8.3846 13.156C8.45956 13.156 8.53456 13.1274 8.59175 13.0702L10.329 11.333C10.384 11.278 10.4148 11.2035 10.4148 11.1258C10.4148 11.048 10.384 10.9736 10.329 10.9186L8.56847 9.15805C8.45405 9.04367 8.26854 9.04367 8.15417 9.15805C8.03976 9.2725 8.03976 9.45797 8.15417 9.57238L9.7076 11.1258L8.17749 12.6558C8.06304 12.7703 8.06304 12.9558 8.17745 13.0702Z" fill="white"/>
<path d="M5.15626 14.1496C5.27442 14.1496 5.38579 14.0775 5.4302 13.9605L7.512 8.47616C7.56943 8.32487 7.49333 8.15569 7.34208 8.09826C7.19083 8.0408 7.02161 8.11694 6.96423 8.26819L4.88243 13.7526C4.82501 13.9038 4.9011 14.073 5.05235 14.1304C5.08657 14.1434 5.12169 14.1496 5.15626 14.1496Z" fill="white"/>
<path d="M1.28906 4.50684C1.28906 4.99145 1.68332 5.38574 2.16797 5.38574C2.65261 5.38574 3.04687 4.99145 3.04687 4.50684C3.04687 4.02223 2.65261 3.62793 2.16797 3.62793C1.68332 3.62793 1.28906 4.02223 1.28906 4.50684ZM2.46094 4.50684C2.46094 4.6684 2.32953 4.79981 2.16797 4.79981C2.0064 4.79981 1.875 4.6684 1.875 4.50684C1.875 4.34527 2.0064 4.21387 2.16797 4.21387C2.32953 4.21387 2.46094 4.34527 2.46094 4.50684Z" fill="white"/>
<path d="M3.56055 4.50684C3.56055 4.99145 3.9548 5.38574 4.43945 5.38574C4.9241 5.38574 5.31836 4.99145 5.31836 4.50684C5.31836 4.02223 4.9241 3.62793 4.43945 3.62793C3.9548 3.62793 3.56055 4.02223 3.56055 4.50684ZM4.73242 4.50684C4.73242 4.6684 4.60102 4.79981 4.43945 4.79981C4.27789 4.79981 4.14648 4.6684 4.14648 4.50684C4.14648 4.34527 4.27789 4.21387 4.43945 4.21387C4.60102 4.21387 4.73242 4.34527 4.73242 4.50684Z" fill="white"/>
<path d="M5.83398 4.50684C5.83398 4.99145 6.22824 5.38574 6.71289 5.38574C7.19754 5.38574 7.5918 4.99145 7.5918 4.50684C7.5918 4.02223 7.19754 3.62793 6.71289 3.62793C6.22824 3.62793 5.83398 4.02223 5.83398 4.50684ZM7.00586 4.50684C7.00586 4.6684 6.87445 4.79981 6.71289 4.79981C6.55133 4.79981 6.41992 4.6684 6.41992 4.50684C6.41992 4.34527 6.55133 4.21387 6.71289 4.21387C6.87445 4.21387 7.00586 4.34527 7.00586 4.50684Z" fill="white"/>
<path d="M13.1055 9.46777H14.9414C15.426 9.46777 15.8203 9.07348 15.8203 8.58887C15.8203 8.10426 15.426 7.70996 14.9414 7.70996H13.1055C12.6209 7.70996 12.2266 8.10426 12.2266 8.58887C12.2266 9.07348 12.6209 9.46777 13.1055 9.46777ZM13.1055 8.2959H14.9414C15.103 8.2959 15.2344 8.4273 15.2344 8.58887C15.2344 8.75043 15.103 8.88184 14.9414 8.88184H13.1055C12.9439 8.88184 12.8125 8.75043 12.8125 8.58887C12.8125 8.4273 12.9439 8.2959 13.1055 8.2959Z" fill="white"/>
<path d="M13.1055 11.8115H17.9492C18.4338 11.8115 18.8281 11.4172 18.8281 10.9326C18.8281 10.448 18.4338 10.0537 17.9492 10.0537H13.1055C12.6209 10.0537 12.2266 10.448 12.2266 10.9326C12.2266 11.4172 12.6209 11.8115 13.1055 11.8115ZM13.1055 10.6396H17.9492C18.1108 10.6396 18.2422 10.7711 18.2422 10.9326C18.2422 11.0942 18.1108 11.2256 17.9492 11.2256H13.1055C12.9439 11.2256 12.8125 11.0942 12.8125 10.9326C12.8125 10.7711 12.9439 10.6396 13.1055 10.6396Z" fill="white"/>
<path d="M13.1055 14.1553H16.5104C16.995 14.1553 17.3893 13.761 17.3893 13.2764C17.3893 12.7918 16.995 12.3975 16.5104 12.3975H13.1055C12.6209 12.3975 12.2266 12.7918 12.2266 13.2764C12.2266 13.761 12.6209 14.1553 13.1055 14.1553ZM13.1055 12.9834H16.5104C16.6719 12.9834 16.8033 13.1148 16.8033 13.2764C16.8033 13.4379 16.6719 13.5693 16.5104 13.5693H13.1055C12.9439 13.5693 12.8125 13.4379 12.8125 13.2764C12.8125 13.1148 12.9439 12.9834 13.1055 12.9834Z" fill="white"/>
</svg>
