<svg width="105" height="86" viewBox="0 0 105 86" fill="none" xmlns="http://www.w3.org/2000/svg">
<path d="M0.796875 60.3711L42.7682 84.4752L102.844 49.7861L60.8726 25.682L0.796875 60.3711Z" fill="#455A64"/>
<path d="M43.1408 83.0168L2.34659 59.4397C3.1848 56.6879 3.12635 53.7408 2.17969 51.0244L42.7631 74.3818C42.7631 74.3818 43.3692 76.4461 43.1408 83.0168Z" fill="#F5F5F5"/>
<path d="M41.1158 71.7904C42.0184 72.376 42.7698 73.1666 43.3087 74.0978C43.8476 75.0291 44.1587 76.0745 44.2166 77.1489V83.4121C44.2166 85.3885 42.8287 86.1879 41.1158 85.1689L0.787109 61.9257V60.3709L40.6853 83.2891C41.7043 83.8864 42.5388 83.4033 42.5388 82.2174V76.411C42.5019 75.7667 42.3142 75.1401 41.9907 74.5816C41.6672 74.0232 41.2171 73.5485 40.6766 73.1959L0.787109 50.2689V48.5121L41.1158 71.7904Z" fill="#263238"/>
<path d="M0.787109 48.5121L60.8629 13.823L101.183 37.1014C102.086 37.6888 102.837 38.4811 103.376 39.4137C103.915 40.3464 104.226 41.393 104.284 42.4685V48.7317C104.328 49.1135 104.269 49.5 104.115 49.8519C103.961 50.2038 103.716 50.5084 103.405 50.7346L43.3206 85.4237C43.6293 85.1957 43.8728 84.8908 44.0269 84.5394C44.181 84.188 44.2404 83.8024 44.1991 83.4209V77.1489C44.14 76.0746 43.8294 75.0293 43.2923 74.097C42.7552 73.1648 42.0067 72.3717 41.107 71.7817L0.787109 48.5121Z" fill="#455A64"/>
<path d="M43.3125 74.101C43.8609 75.0253 44.1634 76.0747 44.1909 77.1492V83.4211C44.2322 83.8026 44.1729 84.1883 44.0187 84.5397C43.8646 84.8911 43.6211 85.1959 43.3125 85.4239L103.397 50.7348C103.708 50.5086 103.953 50.2041 104.107 49.8522C104.261 49.5003 104.319 49.1137 104.275 48.732V42.4688C104.244 41.3923 103.942 40.3411 103.397 39.4119L43.3125 74.101Z" fill="#37474F"/>
<path d="M10.9238 43.9094L47.7651 65.062L102.957 33.2014L69.5501 14.0341L10.9238 43.9094Z" fill="#FDB844"/>
<path opacity="0.35" d="M10.9238 43.9094L47.7651 65.062L102.957 33.2014L69.5501 14.0341L10.9238 43.9094Z" fill="black"/>
<path d="M48.1505 63.6036L12.4862 43.0132C13.3259 40.2611 13.2643 37.3126 12.3105 34.5979L47.7639 55.0477C47.7639 55.0477 48.3788 57.033 48.1505 63.6036Z" fill="#EBEBEB"/>
<path d="M48.1505 63.6036L12.4862 43.0132C13.3259 40.2611 13.2643 37.3126 12.3105 34.5979L47.7639 55.0477C47.7639 55.0477 48.3788 57.033 48.1505 63.6036Z" fill="#F5F5F5"/>
<path d="M46.1234 52.4124C47.0256 52.9985 47.7766 53.7892 48.3154 54.7203C48.8543 55.6515 49.1657 56.6966 49.2243 57.7708V64.0428C49.2243 66.0105 47.8364 66.8186 46.1234 65.7997L10.9336 45.4728V43.918L45.7018 63.8935C46.7296 64.482 47.5641 63.9989 47.5641 62.813V57.0066C47.5268 56.3634 47.3398 55.7378 47.018 55.1796C46.6962 54.6214 46.2486 54.1461 45.7106 53.7915L10.9775 33.8161V32.0592L46.1234 52.4124Z" fill="#FDB844"/>
<path opacity="0.25" d="M46.1234 52.4124C47.0256 52.9985 47.7766 53.7892 48.3154 54.7203C48.8543 55.6515 49.1657 56.6966 49.2243 57.7708V64.0428C49.2243 66.0105 47.8364 66.8186 46.1234 65.7997L10.9336 45.4728V43.918L45.7018 63.8935C46.7296 64.482 47.5641 63.9989 47.5641 62.813V57.0066C47.5268 56.3634 47.3398 55.7378 47.018 55.1796C46.6962 54.6214 46.2486 54.1461 45.7106 53.7915L10.9775 33.8161V32.0592L46.1234 52.4124Z" fill="black"/>
<path d="M10.9336 32.0505L66.1253 0.181152L101.315 20.5168C102.215 21.1043 102.964 21.8956 103.501 22.8266C104.038 23.7575 104.349 24.802 104.407 25.8752V32.1384C104.451 32.5201 104.393 32.9067 104.239 33.2586C104.084 33.6105 103.839 33.9151 103.529 34.1412L48.3107 66.0106C48.6214 65.7844 48.8664 65.4799 49.0207 65.128C49.1751 64.7761 49.2332 64.3895 49.1892 64.0078V57.7358C49.1305 56.6616 48.8191 55.6164 48.2803 54.6853C47.7415 53.7542 46.9904 52.9634 46.0883 52.3774L10.9336 32.0505Z" fill="#FDB844"/>
<path opacity="0.15" d="M48.3223 54.6877C48.8707 55.6121 49.1731 56.6615 49.2007 57.7359V64.0079C49.2447 64.3896 49.1866 64.7762 49.0323 65.1281C48.878 65.48 48.6329 65.7846 48.3223 66.0107L103.514 34.1413C103.825 33.9152 104.07 33.6106 104.224 33.2587C104.378 32.9068 104.436 32.5202 104.392 32.1385V25.8753C104.365 24.8009 104.062 23.7515 103.514 22.8271L48.3223 54.6877Z" fill="black"/>
</svg>
