<svg width="20" height="20" viewBox="0 0 20 20" fill="none" xmlns="http://www.w3.org/2000/svg">
<path d="M8.33268 5.83366C8.33251 6.99253 8.67752 8.12518 9.3237 9.08717C9.96989 10.0492 10.888 10.7969 11.9608 11.235C13.0337 11.6731 14.2127 11.7817 15.3476 11.5469C16.4824 11.3122 17.5216 10.7448 18.3327 9.91699V10.0003C18.3327 14.6028 14.6018 18.3337 9.99935 18.3337C5.39685 18.3337 1.66602 14.6028 1.66602 10.0003C1.66602 5.39783 5.39685 1.66699 9.99935 1.66699H10.0827C9.52771 2.2096 9.08697 2.8578 8.78642 3.57339C8.48587 4.28899 8.33159 5.05751 8.33268 5.83366ZM3.33268 10.0003C3.33208 11.4878 3.82895 12.9328 4.74426 14.1053C5.65956 15.2778 6.94071 16.1106 8.38386 16.471C9.82701 16.8315 11.3493 16.6989 12.7084 16.0945C14.0675 15.49 15.1855 14.4484 15.8843 13.1353C14.6405 13.4284 13.3425 13.3987 12.1134 13.0493C10.8842 12.6998 9.76477 12.0421 8.86119 11.1385C7.95761 10.2349 7.29989 9.11544 6.95042 7.88631C6.60095 6.65717 6.57132 5.35913 6.86435 4.11533C5.79733 4.68377 4.905 5.53171 4.2829 6.56836C3.66079 7.60501 3.33233 8.79134 3.33268 10.0003Z" fill="white"/>
</svg>
