<svg width="382" height="88" viewBox="0 0 382 88" fill="none" xmlns="http://www.w3.org/2000/svg">
<g filter="url(#filter0_d)">
<path d="M14 38C14 21.4315 27.4315 8 44 8H338C354.569 8 368 21.4315 368 38V68H44C27.4315 68 14 54.5685 14 38Z" fill="#6479F6"/>
<path d="M14.5 38C14.5 21.7076 27.7076 8.5 44 8.5H338C354.292 8.5 367.5 21.7076 367.5 38V67.5H44C27.7076 67.5 14.5 54.2924 14.5 38Z" stroke="#6479F6"/>
</g>
<circle cx="311" cy="10.1172" r="2" fill="white"/>
<path d="M311.5 8.92099C311.667 6.61401 318 -2.04487 328 7.11695" stroke="#FAB95B"/>
<circle cx="279" cy="10.1172" r="2" fill="white"/>
<path d="M279.5 8.92099C279.667 6.61401 286 -2.04487 296 7.11695" stroke="#FAB95B"/>
<circle cx="296" cy="10.1172" r="2" fill="white"/>
<path d="M296.5 8.92099C296.667 6.61401 303 -2.04487 313 7.11695" stroke="#FAB95B"/>
<defs>
<filter id="filter0_d" x="0" y="0" width="382" height="88" filterUnits="userSpaceOnUse" color-interpolation-filters="sRGB">
<feFlood flood-opacity="0" result="BackgroundImageFix"/>
<feColorMatrix in="SourceAlpha" type="matrix" values="0 0 0 0 0 0 0 0 0 0 0 0 0 0 0 0 0 0 127 0"/>
<feOffset dy="6"/>
<feGaussianBlur stdDeviation="7"/>
<feColorMatrix type="matrix" values="0 0 0 0 0.392157 0 0 0 0 0.47451 0 0 0 0 0.964706 0 0 0 0.3 0"/>
<feBlend mode="normal" in2="BackgroundImageFix" result="effect1_dropShadow"/>
<feBlend mode="normal" in="SourceGraphic" in2="effect1_dropShadow" result="shape"/>
</filter>
</defs>
</svg>
