<svg width="374" height="169" viewBox="0 0 374 169" fill="none" xmlns="http://www.w3.org/2000/svg">
<rect width="374" height="169" rx="20" fill="#FFCA5D"/>
<path d="M76.3115 82.1641L152.444 81.6121L154.564 133.372L75.7305 132.642L76.3115 82.1641Z" fill="#835CC7"/>
<path d="M76.3066 82.1641L112.341 53.0081C113.081 52.4097 114.005 52.0849 114.957 52.0885C115.909 52.092 116.831 52.4236 117.567 53.0274L152.442 81.6121" fill="#835CC7"/>
<g opacity="0.3">
<path opacity="0.3" d="M76.3066 82.1641L112.341 53.0081C113.081 52.4097 114.005 52.0849 114.957 52.0885C115.909 52.092 116.831 52.4236 117.567 53.0274L152.442 81.6121" fill="black"/>
</g>
<path d="M75.7296 132.642C75.636 132.552 81.7299 125.896 89.3441 117.779C96.9583 109.661 103.204 103.151 103.301 103.238C103.398 103.325 97.3004 109.981 89.6862 118.101C82.072 126.222 75.8264 132.73 75.7296 132.642Z" fill="#263238"/>
<path d="M154.563 133.372C154.466 133.459 148.53 126.939 141.306 118.812C134.083 110.684 128.305 104.022 128.396 103.935C128.486 103.848 134.428 110.368 141.652 118.498C148.875 126.629 154.666 133.285 154.563 133.372Z" fill="#263238"/>
<g opacity="0.5">
<path opacity="0.5" d="M152.443 81.6121L114.21 112.153L76.3105 82.1641" fill="black"/>
</g>
<path d="M80.1416 84.9915L80.0254 61.2162L146.687 60.4254L147.44 85.4434L114.207 111.753L80.1416 84.9915Z" fill="#FAFAFA"/>
<path d="M80.1413 84.9915C80.1413 84.9915 80.3576 85.1529 80.7675 85.4725L82.575 86.8797L89.4662 92.2604L114.258 111.698H114.174L147.397 85.3789L147.365 85.4466C147.223 80.6761 147.071 75.6667 146.916 70.5733C146.816 67.1422 146.713 63.7531 146.613 60.4286L146.697 60.5093L80.0348 61.2678L80.0865 61.2161C80.1123 68.6948 80.1349 74.637 80.1478 78.7104C80.1478 80.7471 80.1478 82.3158 80.1478 83.3777V84.5816C80.1478 84.8527 80.1478 84.9915 80.1478 84.9915C80.1478 84.9915 80.1478 84.856 80.1478 84.5881C80.1478 84.3202 80.1478 83.9167 80.1478 83.3906C80.1478 82.3287 80.1252 80.7632 80.1091 78.7298C80.0832 74.6499 80.0445 68.7045 79.9961 61.2161V61.1613H80.0477L146.713 60.3447H146.794V60.4286C146.894 63.7499 146.994 67.139 147.097 70.5701C147.252 75.6666 147.401 80.6728 147.546 85.4466V85.4886L147.514 85.5144L114.268 111.811L114.226 111.843L114.184 111.811L89.4081 92.3088L82.5589 86.9023L80.7514 85.4821C80.3447 85.1594 80.1413 84.9915 80.1413 84.9915Z" fill="#263238"/>
<path d="M136.153 72.4002C136.153 72.4454 125.957 72.5454 113.385 72.6197C100.813 72.6939 90.6133 72.723 90.6133 72.6746C90.6133 72.6261 100.806 72.5293 113.385 72.4518C125.963 72.3744 136.153 72.3518 136.153 72.4002Z" fill="#263238"/>
<path d="M136.153 79.1139C136.153 79.1623 125.957 79.2623 113.385 79.3366C100.813 79.4108 90.6133 79.4366 90.6133 79.3914C90.6133 79.3463 100.806 79.2462 113.385 79.1687C125.963 79.0913 136.153 79.0687 136.153 79.1139Z" fill="#263238"/>
<path d="M136.153 86.8572C136.153 86.9023 125.957 87.0024 113.385 87.0799C100.813 87.1573 90.6133 87.1799 90.6133 87.1315C90.6133 87.0831 100.806 86.9863 113.385 86.912C125.963 86.8378 136.153 86.8087 136.153 86.8572Z" fill="#263238"/>
<path d="M136.153 94.5972C136.153 94.6456 126.428 94.7392 114.431 94.8135C102.433 94.8877 92.7083 94.9071 92.7051 94.8619C92.7019 94.8167 102.43 94.7199 114.431 94.6456C126.432 94.5714 136.153 94.552 136.153 94.5972Z" fill="#263238"/>
<path d="M127.625 101.392C127.538 101.406 127.449 101.413 127.36 101.411L126.592 101.434L123.778 101.479L114.485 101.611C110.857 101.672 107.568 101.692 105.189 101.695H102.375H101.606C101.518 101.697 101.429 101.691 101.342 101.679C101.429 101.664 101.518 101.658 101.606 101.659L102.375 101.64L105.189 101.592L114.482 101.459C118.11 101.398 121.399 101.379 123.774 101.375H126.592H127.36C127.449 101.375 127.537 101.381 127.625 101.392Z" fill="#263238"/>
<path d="M119.043 107.924C119.043 107.97 116.87 108.008 114.201 108.008C111.532 108.008 109.359 107.97 109.359 107.924C109.359 107.879 111.535 107.841 114.201 107.841C116.867 107.841 119.043 107.876 119.043 107.924Z" fill="#263238"/>
<path d="M141.481 102.65C145.929 102.65 149.534 99.0449 149.534 94.5972C149.534 90.1496 145.929 86.5441 141.481 86.5441C137.033 86.5441 133.428 90.1496 133.428 94.5972C133.428 99.0449 137.033 102.65 141.481 102.65Z" fill="#263238"/>
<path d="M139.387 102.65C143.835 102.65 147.44 99.0449 147.44 94.5972C147.44 90.1496 143.835 86.5441 139.387 86.5441C134.94 86.5441 131.334 90.1496 131.334 94.5972C131.334 99.0449 134.94 102.65 139.387 102.65Z" fill="#455A64"/>
<path d="M140.409 90.8498V97.5441H139.173V91.8795H137.756V90.8369L140.409 90.8498Z" fill="#EBEBEB"/>
<path d="M80.666 50.3549H88.0317L87.0343 49.2123V46.4719C87.0343 45.7597 86.7514 45.0766 86.2478 44.573C85.7441 44.0694 85.0611 43.7865 84.3488 43.7865C83.9963 43.7865 83.6473 43.856 83.3216 43.9909C82.996 44.1259 82.7002 44.3238 82.4511 44.5732C82.202 44.8226 82.0045 45.1187 81.8699 45.4445C81.7352 45.7703 81.6662 46.1194 81.6666 46.4719V49.0767L80.666 50.3549Z" fill="#835CC7"/>
<path d="M83.3359 49.9934C83.3441 50.1537 83.3861 50.3106 83.4593 50.4535C83.5325 50.5964 83.6351 50.7222 83.7605 50.8226C83.8858 50.923 84.031 50.9956 84.1865 51.0358C84.3419 51.076 84.5041 51.0827 84.6624 51.0556C84.8207 51.0285 84.9714 50.9681 85.1047 50.8785C85.2379 50.7889 85.3507 50.6721 85.4355 50.5357C85.5202 50.3994 85.5752 50.2466 85.5966 50.0875C85.6181 49.9283 85.6055 49.7664 85.5598 49.6125" fill="#835CC7"/>
<path d="M84.7582 42.6697H84.0352V44.2061H84.7582V42.6697Z" fill="#835CC7"/>
<path d="M95.0873 45.3164C95.0654 45.2532 95.0481 45.1885 95.0356 45.1227C95.0034 44.984 94.9614 44.8 94.9065 44.5547C94.8392 44.2459 94.7518 43.9419 94.6451 43.6444C94.5805 43.4701 94.5353 43.2733 94.4482 43.0764L94.1738 42.4502C93.6773 41.3924 93.0184 40.4188 92.2211 39.5646C91.1738 38.4606 89.9058 37.5896 88.4995 37.0083C87.6986 36.6711 86.8597 36.4327 86.0013 36.2982C85.0753 36.1632 84.1359 36.148 83.206 36.253C82.7168 36.3044 82.2316 36.3885 81.7536 36.5047C81.5115 36.5564 81.2759 36.65 81.0306 36.7242C80.7842 36.7926 80.5436 36.88 80.3108 36.9857C79.3219 37.3856 78.4016 37.9378 77.5834 38.6221C75.7674 40.1194 74.4873 42.1664 73.936 44.4546C73.6458 45.6805 73.5747 46.9481 73.7262 48.1988C73.8591 49.4925 74.2347 50.7496 74.8333 51.9042L75.0205 52.256L75.0431 52.3012V52.3496C74.446 54.2862 73.865 56.2229 73.2969 58.0724L73.1452 57.9336L77.7577 55.5289L77.8125 55.4999L77.8642 55.5386C79.7925 57.0256 82.1693 57.8127 84.604 57.7704C87.0388 57.7282 89.3868 56.8592 91.2624 55.3062C92.2241 54.5022 93.0436 53.5419 93.6865 52.4658C94.2004 51.5671 94.5963 50.606 94.8646 49.606C95.0456 48.8467 95.1536 48.0717 95.1873 47.2918C95.1873 46.969 95.1873 46.6914 95.1873 46.4429C95.1873 46.1943 95.1486 45.9975 95.1357 45.8264C95.1228 45.6553 95.1099 45.5423 95.1034 45.4487C95.0984 45.4059 95.0984 45.3625 95.1034 45.3196C95.1148 45.3608 95.1224 45.4029 95.126 45.4455C95.126 45.5402 95.1422 45.6661 95.1744 45.8232C95.1938 45.9942 95.2164 46.1976 95.2454 46.4429C95.2745 46.6882 95.2454 46.9755 95.2454 47.295C95.2274 48.0817 95.1301 48.8647 94.9549 49.6319C94.6973 50.6471 94.3065 51.6239 93.793 52.5368C93.15 53.6364 92.3249 54.6187 91.3528 55.4418C90.1626 56.4353 88.7744 57.1639 87.2806 57.5791C85.7869 57.9943 84.2218 58.0865 82.6896 57.8496C80.8862 57.5632 79.1818 56.8347 77.7286 55.729H77.8383L73.2324 58.1401L73 58.2628L73.0775 58.0013L74.8204 52.2786V52.3722L74.63 52.0139C74.0194 50.8339 73.6362 49.5495 73.5003 48.2278C73.3423 46.9479 73.4167 45.65 73.7198 44.3965C74.2844 42.0636 75.593 39.9778 77.4478 38.4543C78.2851 37.7616 79.2247 37.203 80.2333 36.7985C80.4702 36.6912 80.7152 36.6027 80.966 36.5338C81.2145 36.4628 81.4534 36.3692 81.7019 36.3175C82.1869 36.1982 82.6799 36.114 83.177 36.0658C84.1223 35.9617 85.0771 35.9812 86.0174 36.1239C86.8871 36.268 87.7365 36.5151 88.5479 36.8598C89.9694 37.4583 91.2478 38.3516 92.2985 39.4807C93.0961 40.3506 93.7498 41.3421 94.2352 42.4179C94.3288 42.6439 94.4191 42.8537 94.4998 43.0635C94.5805 43.2733 94.6289 43.4637 94.6903 43.6412C94.7949 43.941 94.8759 44.2486 94.9324 44.5611C94.9775 44.8032 95.0163 44.9936 95.0421 45.1357C95.0611 45.1948 95.0762 45.2552 95.0873 45.3164Z" fill="#263238"/>
</svg>
