<svg width="237" height="192" viewBox="0 0 237 192" fill="none" xmlns="http://www.w3.org/2000/svg">
<path d="M109.377 41.7735H34.9688V126.643H109.377V41.7735Z" fill="#BDBDBD"/>
<path d="M106.022 46.2603H38.3262V126.638H106.022V46.2603Z" fill="#DBDBDB"/>
<path d="M106.022 60.0582H38.3262V64.5496H106.022V60.0582Z" fill="#BDBDBD"/>
<path d="M93.6329 0.96405H88.7598V2.48052H93.6329V0.96405Z" fill="#BDBDBD"/>
<path d="M93.6329 3.08417H88.7598V4.60064H93.6329V3.08417Z" fill="#BDBDBD"/>
<path d="M93.6329 5.20425H88.7598V6.72073H93.6329V5.20425Z" fill="#BDBDBD"/>
<path d="M93.6329 7.32462H88.7598V8.84109H93.6329V7.32462Z" fill="#BDBDBD"/>
<path d="M93.6329 9.44473H88.7598V10.9612H93.6329V9.44473Z" fill="#BDBDBD"/>
<path d="M93.6329 11.5697H88.7598V13.0862H93.6329V11.5697Z" fill="#BDBDBD"/>
<path d="M93.6329 13.6898H88.7598V15.2063H93.6329V13.6898Z" fill="#BDBDBD"/>
<path d="M93.6329 15.8099H88.7598V17.3264H93.6329V15.8099Z" fill="#BDBDBD"/>
<path d="M93.6329 17.9303H88.7598V19.4468H93.6329V17.9303Z" fill="#BDBDBD"/>
<path d="M93.6329 20.0504H88.7598V21.5669H93.6329V20.0504Z" fill="#BDBDBD"/>
<path d="M93.6329 22.1754H88.7598V23.6919H93.6329V22.1754Z" fill="#BDBDBD"/>
<path d="M93.6329 24.2955H88.7598V25.812H93.6329V24.2955Z" fill="#BDBDBD"/>
<path d="M93.6329 26.4156H88.7598V27.9321H93.6329V26.4156Z" fill="#BDBDBD"/>
<path d="M93.6329 28.5357H88.7598V30.0522H93.6329V28.5357Z" fill="#BDBDBD"/>
<path d="M93.6329 30.6561H88.7598V32.1726H93.6329V30.6561Z" fill="#BDBDBD"/>
<path d="M93.6329 32.7762H88.7598V34.2927H93.6329V32.7762Z" fill="#BDBDBD"/>
<path d="M93.6329 34.9012H88.7598V36.4177H93.6329V34.9012Z" fill="#BDBDBD"/>
<path d="M93.6329 37.0213H88.7598V38.5378H93.6329V37.0213Z" fill="#BDBDBD"/>
<path d="M93.6329 39.1414H88.7598V40.6579H93.6329V39.1414Z" fill="#BDBDBD"/>
<path d="M93.6329 41.2615H88.7598V42.778H93.6329V41.2615Z" fill="#BDBDBD"/>
<path d="M157.322 41.7735H119.303V126.643H157.322V41.7735Z" fill="#BDBDBD"/>
<path d="M154.36 46.2603H122.271V126.638H154.36V46.2603Z" fill="#DBDBDB"/>
<path d="M154.36 60.0582H122.271V64.5496H154.36V60.0582Z" fill="#BDBDBD"/>
<path d="M141.578 0.96405H136.705V2.48052H141.578V0.96405Z" fill="#BDBDBD"/>
<path d="M141.578 3.08417H136.705V4.60064H141.578V3.08417Z" fill="#BDBDBD"/>
<path d="M141.578 5.20425H136.705V6.72073H141.578V5.20425Z" fill="#BDBDBD"/>
<path d="M141.578 7.32462H136.705V8.84109H141.578V7.32462Z" fill="#BDBDBD"/>
<path d="M141.578 9.44473H136.705V10.9612H141.578V9.44473Z" fill="#BDBDBD"/>
<path d="M141.578 11.5697H136.705V13.0862H141.578V11.5697Z" fill="#BDBDBD"/>
<path d="M141.578 13.6898H136.705V15.2063H141.578V13.6898Z" fill="#BDBDBD"/>
<path d="M141.578 15.8099H136.705V17.3264H141.578V15.8099Z" fill="#BDBDBD"/>
<path d="M141.578 17.9303H136.705V19.4468H141.578V17.9303Z" fill="#BDBDBD"/>
<path d="M141.578 20.0504H136.705V21.5669H141.578V20.0504Z" fill="#BDBDBD"/>
<path d="M141.578 22.1754H136.705V23.6919H141.578V22.1754Z" fill="#BDBDBD"/>
<path d="M141.578 24.2955H136.705V25.812H141.578V24.2955Z" fill="#BDBDBD"/>
<path d="M141.578 26.4156H136.705V27.9321H141.578V26.4156Z" fill="#BDBDBD"/>
<path d="M141.578 28.5357H136.705V30.0522H141.578V28.5357Z" fill="#BDBDBD"/>
<path d="M141.578 30.6561H136.705V32.1726H141.578V30.6561Z" fill="#BDBDBD"/>
<path d="M141.578 32.7762H136.705V34.2927H141.578V32.7762Z" fill="#BDBDBD"/>
<path d="M141.578 34.9012H136.705V36.4177H141.578V34.9012Z" fill="#BDBDBD"/>
<path d="M141.578 37.0213H136.705V38.5378H141.578V37.0213Z" fill="#BDBDBD"/>
<path d="M141.578 39.1414H136.705V40.6579H141.578V39.1414Z" fill="#BDBDBD"/>
<path d="M141.578 41.2615H136.705V42.778H141.578V41.2615Z" fill="#BDBDBD"/>
<path d="M125.866 114.941H18.7871V133.602H125.866V114.941Z" fill="#BDBDBD"/>
<path d="M26.9611 119.003C26.9611 119.45 26.8277 119.887 26.5779 120.259C26.3281 120.631 25.973 120.92 25.5577 121.091C25.1423 121.262 24.6854 121.307 24.2446 121.219C23.8038 121.132 23.3991 120.916 23.0816 120.599C22.7641 120.283 22.5481 119.879 22.461 119.441C22.3739 119.002 22.4196 118.547 22.5923 118.134C22.765 117.722 23.0569 117.369 23.4311 117.121C23.8052 116.873 24.2449 116.742 24.6944 116.742C24.9925 116.742 25.2876 116.801 25.5629 116.915C25.8383 117.028 26.0884 117.195 26.2989 117.405C26.5095 117.615 26.6763 117.864 26.7899 118.138C26.9036 118.412 26.9617 118.706 26.9611 119.003Z" fill="#92E3A9"/>
<path d="M37.1733 116.742H31.2178V121.258H37.1733V116.742Z" fill="#92E3A9"/>
<path d="M44.5503 116.742H38.5947V121.258H44.5503V116.742Z" fill="#808080"/>
<path d="M125.866 72.0546H18.7871V114.994H125.866V72.0546Z" fill="#DBDBDB"/>
<path d="M125.866 133.631H18.7871V191.156H125.866V133.631Z" fill="#DBDBDB"/>
<path d="M99.3976 73.6775H45.249V113.376H99.3976V73.6775Z" fill="#BDBDBD"/>
<path d="M47.159 106.876C46.9495 107.584 46.9089 108.332 47.0404 109.059C47.1719 109.786 47.472 110.472 47.9167 111.064C48.3615 111.655 48.9387 112.135 49.6025 112.466C50.2664 112.797 50.9985 112.969 51.7409 112.969C52.4833 112.969 53.2155 112.797 53.8794 112.466C54.5432 112.135 55.1204 111.655 55.5651 111.064C56.0099 110.472 56.3099 109.786 56.4415 109.059C56.573 108.332 56.5324 107.584 56.3229 106.876H47.159Z" fill="#92E3A9"/>
<path d="M53.5995 103.234V96.9557H49.8913V103.234C48.7165 103.667 47.7322 104.497 47.1104 105.579C46.4886 106.661 46.269 107.926 46.49 109.153C46.711 110.38 47.3585 111.49 48.3192 112.29C49.2799 113.09 50.4927 113.528 51.7454 113.528C52.9981 113.528 54.2109 113.09 55.1716 112.29C56.1323 111.49 56.7798 110.38 57.0008 109.153C57.2218 107.926 57.0022 106.661 56.3804 105.579C55.7586 104.497 54.7743 103.667 53.5995 103.234Z" stroke="white" stroke-miterlimit="10"/>
<path d="M68.7781 106.876C68.5686 107.584 68.528 108.332 68.6595 109.059C68.7911 109.786 69.0911 110.472 69.5359 111.064C69.9806 111.655 70.5579 112.135 71.2217 112.466C71.8855 112.797 72.6177 112.969 73.3601 112.969C74.1025 112.969 74.8347 112.797 75.4985 112.466C76.1623 112.135 76.7395 111.655 77.1843 111.064C77.629 110.472 77.9291 109.786 78.0606 109.059C78.1922 108.332 78.1516 107.584 77.942 106.876H68.7781Z" fill="#92E3A9"/>
<path d="M75.2323 103.234V96.9557H71.5241V103.234C70.3494 103.667 69.365 104.497 68.7432 105.579C68.1214 106.661 67.9018 107.926 68.1228 109.153C68.3438 110.38 68.9913 111.49 69.952 112.29C70.9127 113.09 72.1255 113.528 73.3782 113.528C74.6309 113.528 75.8437 113.09 76.8044 112.29C77.7651 111.49 78.4126 110.38 78.6336 109.153C78.8546 107.926 78.635 106.661 78.0132 105.579C77.3914 104.497 76.4071 103.667 75.2323 103.234Z" stroke="white" stroke-miterlimit="10"/>
<path d="M58.7086 108.605C58.6088 108.927 58.5581 109.262 58.5581 109.6C58.5405 110.073 58.619 110.546 58.789 110.988C58.959 111.431 59.217 111.835 59.5475 112.177C59.8781 112.518 60.2744 112.789 60.7127 112.975C61.1511 113.16 61.6226 113.256 62.0989 113.256C62.5753 113.256 63.0467 113.16 63.4851 112.975C63.9235 112.789 64.3198 112.518 64.6503 112.177C64.9808 111.835 65.2388 111.431 65.4088 110.988C65.5788 110.546 65.6574 110.073 65.6397 109.6C65.6387 109.263 65.5896 108.928 65.4941 108.605H58.7086Z" fill="#92E3A9"/>
<path d="M63.4769 105.91V101.245H60.7296V105.91C59.8579 106.231 59.1273 106.846 58.6657 107.649C58.204 108.451 58.0408 109.39 58.2045 110.3C58.3683 111.211 58.8485 112.035 59.5613 112.628C60.274 113.222 61.1738 113.547 62.1033 113.547C63.0327 113.547 63.9325 113.222 64.6452 112.628C65.358 112.035 65.8383 111.211 66.002 110.3C66.1657 109.39 66.0025 108.451 65.5409 107.649C65.0792 106.846 64.3486 106.231 63.4769 105.91V105.91Z" stroke="white" stroke-miterlimit="10"/>
<path d="M53.9963 79.4392H51.584V82.5156H53.9963V79.4392Z" fill="#858585"/>
<path d="M51.0173 82.5251H54.5605C54.8027 82.5251 55.0426 82.5726 55.2664 82.6648C55.4901 82.7571 55.6935 82.8923 55.8647 83.0627C56.036 83.2331 56.1719 83.4354 56.2646 83.6581C56.3572 83.8807 56.405 84.1194 56.405 84.3604V91.5515H49.1729V84.3604C49.1729 84.1194 49.2206 83.8807 49.3133 83.6581C49.4059 83.4354 49.5418 83.2331 49.7131 83.0627C49.8843 82.8923 50.0877 82.7571 50.3114 82.6648C50.5352 82.5726 50.7751 82.5251 51.0173 82.5251Z" fill="#DBDBDB"/>
<path d="M69.2424 79.4392H66.8301V82.5156H69.2424V79.4392Z" fill="#858585"/>
<path d="M66.2662 82.5252H69.8095C70.0517 82.5252 70.2915 82.5726 70.5153 82.6649C70.7391 82.7571 70.9424 82.8923 71.1137 83.0627C71.285 83.2331 71.4208 83.4354 71.5135 83.6581C71.6062 83.8807 71.6539 84.1194 71.6539 84.3604V91.5516H64.4121V84.3604C64.4121 84.1186 64.4601 83.8791 64.5534 83.6558C64.6467 83.4326 64.7835 83.2298 64.9558 83.0593C65.1281 82.8887 65.3325 82.7538 65.5574 82.6621C65.7823 82.5704 66.0232 82.5239 66.2662 82.5252Z" fill="#DBDBDB"/>
<path d="M82.4553 79.4392H80.043V82.5156H82.4553V79.4392Z" fill="#858585"/>
<path d="M79.4588 82.5251H83.002C83.2442 82.5251 83.4841 82.5726 83.7079 82.6648C83.9316 82.7571 84.135 82.8923 84.3062 83.0627C84.4775 83.2331 84.6134 83.4354 84.7061 83.6581C84.7987 83.8807 84.8465 84.1194 84.8465 84.3604V91.5515H77.6289V84.3604C77.6289 83.8761 77.8212 83.4115 78.164 83.0678C78.5067 82.724 78.9721 82.529 79.4588 82.5251Z" fill="#DBDBDB"/>
<path d="M92.0041 79.4392H89.5918V82.5156H92.0041V79.4392Z" fill="#858585"/>
<path d="M89.0163 82.5251H92.5596C92.8018 82.5251 93.0416 82.5726 93.2654 82.6648C93.4892 82.7571 93.6925 82.8923 93.8638 83.0627C94.035 83.2331 94.1709 83.4354 94.2636 83.6581C94.3563 83.8807 94.404 84.1194 94.404 84.3604V91.5515H87.1719V84.3604C87.1719 83.8736 87.3662 83.4068 87.7121 83.0627C88.058 82.7185 88.5271 82.5251 89.0163 82.5251Z" fill="#DBDBDB"/>
<path d="M99.3976 91.4984H45.249V95.5504H99.3976V91.4984Z" fill="#DBDBDB"/>
<path d="M26.0771 136.292L27.1644 138.282H33.319L34.4062 136.292H26.0771Z" fill="#808080"/>
<path d="M54.4209 136.292L55.5081 138.282H61.6627L62.75 136.292H54.4209Z" fill="#808080"/>
<path d="M82.7676 136.292L83.85 138.282H90.0094L91.0966 136.292H82.7676Z" fill="#808080"/>
<path d="M111.115 136.292L112.198 138.282H118.357L119.444 136.292H111.115Z" fill="#808080"/>
<path d="M26.0771 149.351L27.1644 151.341H33.319L34.4062 149.351H26.0771Z" fill="#808080"/>
<path d="M54.4209 149.351L55.5081 151.341H61.6627L62.75 149.351H54.4209Z" fill="#808080"/>
<path d="M82.7676 149.351L83.85 151.341H90.0094L91.0966 149.351H82.7676Z" fill="#808080"/>
<path d="M111.115 149.351L112.198 151.341H118.357L119.444 149.351H111.115Z" fill="#808080"/>
<path d="M19.9902 136.292H124.137" stroke="#808080" stroke-miterlimit="10"/>
<path d="M19.9902 149.293H124.137" stroke="#808080" stroke-miterlimit="10"/>
<path d="M203.936 109.633L201.796 101.375V99.1001H198.772V101.355L196.636 109.614C196.602 109.743 196.598 109.878 196.625 110.009C196.652 110.14 196.708 110.263 196.79 110.368C196.872 110.474 196.978 110.559 197.099 110.618C197.219 110.676 197.352 110.706 197.486 110.705H203.082C203.214 110.705 203.345 110.675 203.464 110.618C203.583 110.561 203.687 110.477 203.769 110.374C203.851 110.271 203.909 110.151 203.938 110.023C203.967 109.895 203.966 109.761 203.936 109.633Z" fill="#BDBDBD"/>
<path d="M202.19 105.461H198.38L197.258 109.807C197.249 109.841 197.247 109.877 197.255 109.912C197.263 109.946 197.279 109.978 197.302 110.005C197.322 110.034 197.349 110.057 197.381 110.073C197.412 110.089 197.447 110.097 197.482 110.097H203.088C203.123 110.096 203.159 110.088 203.19 110.072C203.222 110.056 203.25 110.033 203.272 110.005C203.294 109.977 203.308 109.945 203.315 109.911C203.322 109.876 203.32 109.841 203.311 109.807L202.19 105.461Z" fill="#808080"/>
<path d="M216.852 109.633L214.716 101.375V99.1001H211.692V101.355L209.556 109.614C209.522 109.743 209.518 109.878 209.545 110.009C209.571 110.14 209.628 110.263 209.71 110.368C209.792 110.474 209.898 110.559 210.018 110.618C210.139 110.676 210.272 110.706 210.406 110.705H216.002C216.134 110.705 216.265 110.676 216.383 110.618C216.502 110.561 216.606 110.478 216.688 110.374C216.77 110.271 216.827 110.151 216.855 110.022C216.884 109.894 216.882 109.761 216.852 109.633Z" fill="#BDBDBD"/>
<path d="M215.102 105.461H211.301L210.18 109.807C210.17 109.841 210.169 109.877 210.177 109.912C210.184 109.946 210.201 109.978 210.224 110.005C210.244 110.034 210.271 110.057 210.302 110.073C210.334 110.089 210.368 110.097 210.404 110.097H216C216.036 110.096 216.071 110.088 216.103 110.072C216.135 110.056 216.163 110.033 216.184 110.005C216.206 109.977 216.22 109.945 216.227 109.911C216.234 109.876 216.232 109.841 216.223 109.807L215.102 105.461Z" fill="#808080"/>
<path d="M200.074 101.032V76.4013" stroke="#BDBDBD" stroke-miterlimit="10"/>
<path d="M230.179 110.691H148.242V158.706H230.179V110.691Z" fill="#DBDBDB"/>
<path d="M227.916 112.599H150.508V158.706H227.916V112.599Z" fill="#BDBDBD"/>
<path d="M191.854 131.183L194.644 134.993H216.244L219.209 131.183H191.854Z" fill="#808080"/>
<path d="M214.171 133.356H197.406V134.993H214.171V133.356Z" fill="#5C5C5C"/>
<path d="M189.358 124.846H175.598V128.995H189.358V124.846Z" fill="#808080"/>
<path d="M197.501 119.234H195.467V124.19H197.501V119.234Z" fill="#263238" stroke="#263238" stroke-miterlimit="10"/>
<path d="M195.272 121.838H197.699C198.188 121.838 198.657 122.031 199.003 122.375C199.349 122.719 199.543 123.186 199.543 123.673V129.468H193.428V123.673C193.428 123.186 193.622 122.719 193.968 122.375C194.314 122.031 194.783 121.838 195.272 121.838Z" fill="#DBDBDB"/>
<path d="M205.887 119.234H203.854V124.19H205.887V119.234Z" fill="#263238" stroke="#263238" stroke-miterlimit="10"/>
<path d="M203.659 121.838H206.086C206.575 121.838 207.044 122.031 207.39 122.375C207.736 122.719 207.93 123.186 207.93 123.673V129.468H201.814V123.673C201.814 123.186 202.009 122.719 202.355 122.375C202.701 122.031 203.17 121.838 203.659 121.838Z" fill="#DBDBDB"/>
<path d="M214.268 119.234H212.234V124.19H214.268V119.234Z" fill="#263238" stroke="#263238" stroke-miterlimit="10"/>
<path d="M212.047 121.838H214.473C214.963 121.838 215.432 122.031 215.778 122.375C216.124 122.719 216.318 123.186 216.318 123.673V129.468H210.197V123.673C210.197 123.431 210.245 123.192 210.338 122.969C210.431 122.746 210.567 122.544 210.739 122.373C210.911 122.203 211.115 122.068 211.339 121.976C211.564 121.884 211.804 121.837 212.047 121.838Z" fill="#DBDBDB"/>
<path d="M189.358 121.277H175.598V124.846H189.358V121.277Z" fill="#A3A3A3"/>
<path d="M227.916 128.715H150.508V131.835H227.916V128.715Z" fill="#DBDBDB"/>
<path d="M178.921 143.102H173.562V159.353H178.921V143.102Z" fill="#263238" stroke="#263238" stroke-linecap="round" stroke-linejoin="round"/>
<path d="M188.715 135.172H163.762V155.712H188.715V135.172Z" fill="#545454"/>
<path d="M186.98 136.601H165.502V154.282H186.98V136.601Z" fill="white"/>
<path d="M170.109 140.827L176.749 145.589L172.274 148.048" stroke="#828282" stroke-miterlimit="10"/>
<path d="M179.988 141.136L176.746 145.589L178.29 151.428" stroke="#828282" stroke-miterlimit="10"/>
<path d="M176.746 145.589L183.697 149.588" stroke="#828282" stroke-miterlimit="10"/>
<path d="M170.709 140.441C170.709 140.76 170.614 141.072 170.436 141.337C170.258 141.602 170.005 141.809 169.708 141.931C169.412 142.053 169.086 142.085 168.772 142.023C168.457 141.961 168.168 141.807 167.942 141.582C167.715 141.356 167.561 141.069 167.498 140.756C167.435 140.443 167.467 140.118 167.59 139.824C167.713 139.529 167.921 139.277 168.187 139.1C168.454 138.923 168.767 138.828 169.088 138.828C169.518 138.828 169.93 138.998 170.234 139.3C170.538 139.603 170.709 140.013 170.709 140.441Z" fill="#92E3A9"/>
<path d="M173.893 148.047C173.893 148.366 173.798 148.678 173.619 148.943C173.441 149.209 173.188 149.416 172.892 149.538C172.596 149.66 172.27 149.692 171.955 149.629C171.641 149.567 171.352 149.414 171.125 149.188C170.898 148.962 170.744 148.675 170.682 148.362C170.619 148.049 170.651 147.725 170.774 147.43C170.896 147.135 171.104 146.883 171.371 146.706C171.637 146.529 171.951 146.434 172.272 146.434C172.702 146.434 173.114 146.604 173.418 146.907C173.722 147.209 173.893 147.62 173.893 148.047Z" fill="#92E3A9"/>
<path d="M181.606 141.117C181.606 141.436 181.511 141.748 181.332 142.013C181.154 142.279 180.901 142.485 180.605 142.607C180.309 142.73 179.983 142.761 179.668 142.699C179.354 142.637 179.065 142.483 178.838 142.258C178.611 142.032 178.457 141.745 178.394 141.432C178.332 141.119 178.364 140.795 178.487 140.5C178.609 140.205 178.817 139.953 179.084 139.776C179.35 139.599 179.664 139.504 179.984 139.504C180.414 139.504 180.827 139.674 181.131 139.977C181.435 140.279 181.606 140.689 181.606 141.117Z" fill="#92E3A9"/>
<path d="M185.318 149.588C185.318 149.907 185.222 150.218 185.043 150.483C184.864 150.748 184.611 150.954 184.314 151.075C184.018 151.196 183.692 151.228 183.378 151.165C183.064 151.102 182.776 150.948 182.549 150.722C182.323 150.496 182.169 150.209 182.107 149.896C182.045 149.583 182.077 149.259 182.2 148.965C182.323 148.67 182.531 148.419 182.797 148.242C183.064 148.065 183.377 147.97 183.697 147.97C183.911 147.97 184.122 148.012 184.319 148.094C184.516 148.175 184.695 148.294 184.845 148.444C184.996 148.595 185.115 148.773 185.196 148.969C185.278 149.166 185.319 149.376 185.318 149.588Z" fill="#92E3A9"/>
<path d="M178.289 153.041C179.184 153.041 179.91 152.319 179.91 151.428C179.91 150.537 179.184 149.815 178.289 149.815C177.394 149.815 176.668 150.537 176.668 151.428C176.668 152.319 177.394 153.041 178.289 153.041Z" fill="#92E3A9"/>
<path d="M212.627 148.825H206.094V150.255H212.627V148.825Z" fill="#263238" stroke="#263238" stroke-linecap="round" stroke-linejoin="round"/>
<path d="M197.277 159.223V156.021C197.278 155.557 197.377 155.099 197.57 154.677C197.763 154.254 198.043 153.878 198.394 153.572L202.369 150.124H216.872L220.653 153.577C220.985 153.882 221.249 154.252 221.431 154.663C221.612 155.074 221.706 155.519 221.706 155.968V159.744L197.277 159.223Z" fill="#C4C4C4"/>
<path d="M216.479 154.219C216.479 155.548 213.353 156.634 209.489 156.634C205.626 156.634 202.5 155.557 202.5 154.219C202.5 152.882 205.631 151.805 209.489 151.805C213.348 151.805 216.479 152.891 216.479 154.219Z" fill="#DBDBDB"/>
<path d="M230.504 158.701H148.242V191.151H230.504V158.701Z" fill="#DBDBDB"/>
<path d="M148.217 175.605H230.134" stroke="#808080" stroke-miterlimit="10"/>
<path d="M230.504 158.701H204.92V191.151H230.504V158.701Z" fill="#BDBDBD"/>
<path d="M232.096 158.701H146.65V161.821H232.096V158.701Z" fill="#808080"/>
<path d="M188.461 161.85L189.752 164.222H197.091L198.387 161.85H188.461Z" fill="#808080"/>
<path d="M188.461 175.503L189.752 177.874H197.091L198.387 175.503H188.461Z" fill="#808080"/>
<path d="M160.893 161.85L162.184 164.222H169.527L170.823 161.85H160.893Z" fill="#808080"/>
<path d="M160.893 175.503L162.184 177.874H169.527L170.823 175.503H160.893Z" fill="#808080"/>
<path d="M198.453 84.853H221.193" stroke="#BDBDBD" stroke-miterlimit="10"/>
<path d="M196.434 84.853H198.448" stroke="#BDBDBD" stroke-width="3" stroke-miterlimit="10"/>
<path d="M213.178 85.0944V100.307" stroke="#BDBDBD" stroke-miterlimit="10"/>
<path d="M37.9272 130.622H33.9229V135.128H37.9272V130.622Z" fill="#263238" stroke="#263238" stroke-miterlimit="10"/>
<path d="M39.499 128.889H31.835V131.661H39.499V128.889Z" fill="#263238" stroke="#263238" stroke-miterlimit="10"/>
<path d="M44.3743 133.742H27.1289V179.502H44.3743V133.742Z" fill="white" stroke="#263238" stroke-miterlimit="10"/>
<path d="M33.8357 151.771C36.2885 151.771 38.2769 149.793 38.2769 147.352C38.2769 144.911 36.2885 142.933 33.8357 142.933C31.3829 142.933 29.3945 144.911 29.3945 147.352C29.3945 149.793 31.3829 151.771 33.8357 151.771Z" fill="#263238" stroke="#263238" stroke-miterlimit="10"/>
<path d="M70.0532 191.156L62.1416 181.274H39.3192L31.4707 191.156H70.0532Z" fill="white" stroke="#263238" stroke-miterlimit="10"/>
<path d="M35.833 178.464H72.5905V178.671C72.5905 179.398 72.3006 180.094 71.7845 180.608C71.2684 181.121 70.5684 181.41 69.8385 181.41H38.5851C37.8552 181.41 37.1552 181.121 36.6391 180.608C36.123 180.094 35.833 179.398 35.833 178.671V178.464Z" fill="white" stroke="#263238" stroke-miterlimit="10"/>
<path d="M57.7535 118.168L50.8281 122.658L51.7318 124.038L58.6571 119.548L57.7535 118.168Z" fill="white" stroke="#263238" stroke-miterlimit="10"/>
<path d="M61.6776 113.447L55.2158 117.637L57.9241 121.772L64.3858 117.582L61.6776 113.447Z" fill="#263238" stroke="#263238" stroke-miterlimit="10"/>
<path d="M36.5326 107.223H34.9648V112.251H36.5326V107.223Z" fill="#263238" stroke="#263238" stroke-miterlimit="10"/>
<path d="M37.2322 111.903H34.0967V121.784H37.2322V111.903Z" fill="white" stroke="#263238" stroke-miterlimit="10"/>
<path d="M39.3224 120.741H32.0078V126.459H39.3224V120.741Z" fill="white" stroke="#263238" stroke-miterlimit="10"/>
<path d="M51.1441 118.008L42.8102 125.01L24.3125 126.633L24.7299 131.366L47.0524 129.41L54.5951 123.808L51.1441 118.008Z" fill="white" stroke="#263238" stroke-miterlimit="10"/>
<path d="M187.784 63.1395L186.954 71.8326C186.954 71.8326 182.135 71.4994 180.722 68.6886C179.31 65.8778 179.931 62.1929 179.931 62.1929L180.547 58.8122C181.347 58.4347 182.229 58.2601 183.113 58.3039C183.997 58.3477 184.857 58.6086 185.615 59.0634C186.34 59.4544 186.933 60.0499 187.319 60.7751C187.705 61.5004 187.867 62.3229 187.784 63.1395Z" fill="#B5B5B5" stroke="#263238" stroke-miterlimit="10"/>
<path d="M153.514 90.9961L171.182 86.7123L179.918 62.1927C179.918 62.1927 181.996 66.0322 183.481 67.8047C184.966 69.5771 187.786 71.1853 187.786 71.1853C187.786 71.1853 184.816 87.287 183.777 92.4353C182.738 97.5836 182.593 98.4915 181.253 99.6796C179.913 100.868 163.915 110.942 163.915 110.942C163.915 110.942 169.255 120.838 169.856 127.783C170.458 134.728 170.895 142.851 170.895 142.851C170.895 142.851 157.829 122.166 153.082 116.11C148.335 110.053 146.398 100.897 147.437 96.1685C148.476 91.4404 153.514 90.9961 153.514 90.9961Z" fill="white" stroke="#263238" stroke-miterlimit="10"/>
<path d="M159.793 95.7099L163.909 110.942L166.918 92.9039" stroke="#263238" stroke-miterlimit="10"/>
<path d="M171.678 87.1422C173.101 87.7319 174.343 88.6834 175.28 89.9015C176.217 91.1195 176.816 92.5613 177.017 94.0822" stroke="#263238" stroke-miterlimit="10"/>
<path d="M174.936 87.1422C174.936 87.1422 180.576 88.3206 180.872 94.2319" stroke="#263238" stroke-miterlimit="10"/>
<path d="M153.998 96.7432L161.419 112.106L159.789 114.912L163.502 117.868L164.54 123.629" stroke="#263238" stroke-miterlimit="10"/>
<path d="M127.46 77.744C127.46 77.744 118.724 80.5547 115.879 86.0169C113.035 91.4791 119.889 101.385 120.927 105.074C121.966 108.764 120.481 110.097 119.146 109.063C117.811 108.03 116.326 110.097 117.811 112.444C119.296 114.791 127.46 113.033 130.13 111.705C132.8 110.377 132.212 101.51 130.727 95.7678C129.242 90.0255 127.46 83.5056 128.349 80.6996C129.237 77.8937 127.46 77.744 127.46 77.744Z" fill="#263238" stroke="#263238" stroke-miterlimit="10"/>
<path d="M155.148 65.7377C155.148 65.7377 159.453 70.9053 159.75 72.982C159.929 74.0556 159.98 75.1467 159.9 76.2323C159.9 76.2323 161.977 78.5939 162.424 78.8885C162.87 79.1831 164.365 80.0718 163.463 81.255C163.173 81.6086 162.812 81.8966 162.401 82.0998C161.991 82.303 161.542 82.4168 161.084 82.4334C161.084 82.4334 161.235 87.0166 160.788 89.0837C160.342 91.1507 159.453 91.8896 157.818 92.0345C156.182 92.1794 154.109 92.1842 154.109 92.1842L152.474 100.457L154.551 111.242L139.111 94.541C139.111 94.541 140.616 88.4751 140.616 87.3064C140.616 86.1376 138.388 83.9257 140.32 77.7005C142.252 71.4752 155.148 65.7377 155.148 65.7377Z" fill="#B5B5B5" stroke="#263238" stroke-miterlimit="10"/>
<path d="M140.13 81.5449C140.13 81.5449 142.804 82.4287 143.527 80.5114C144.251 78.594 143.081 76.2276 146.794 74.1557C150.507 72.0838 157.074 70.606 158.414 67.2253C159.754 63.8446 158.263 60.2804 156.186 59.8361C154.109 59.3918 151.585 60.575 147.575 60.7248C143.566 60.8745 131.815 60.8117 128.102 66.4236C124.389 72.0355 127.976 82.1437 129.015 84.3605C130.053 86.5772 130.053 92.3389 134.354 92.6335C138.654 92.9281 141.634 89.6778 141.926 87.321C142.217 84.9642 140.13 81.5449 140.13 81.5449Z" fill="#263238" stroke="#263238" stroke-miterlimit="10"/>
<g opacity="0.5">
<path opacity="0.5" d="M139.111 79.7846L160.516 72.5403C160.516 72.5403 164.375 74.902 161.706 78.0073L150.717 81.5522L139.262 81.2335L139.111 79.7846Z" fill="white"/>
</g>
<path d="M139.111 79.782L160.516 72.5377C160.516 72.5377 164.375 74.8993 161.706 78.0047L150.717 81.5496L139.262 81.2308L139.111 79.782Z" stroke="#263238" stroke-miterlimit="10"/>
<path d="M139.111 79.7725L160.492 72.533" stroke="#263238" stroke-width="2" stroke-miterlimit="10" stroke-linecap="round"/>
<path d="M148.461 77.1113L150.689 81.5448" stroke="#263238" stroke-miterlimit="10"/>
<path d="M142.973 82.5782C142.527 82.5782 138.668 77.4058 136.736 78.8836C134.804 80.3615 136.586 85.6788 138.964 86.7123C141.343 87.7458 143.269 85.2345 143.269 85.2345" fill="#B5B5B5"/>
<path d="M142.973 82.5782C142.527 82.5782 138.668 77.4058 136.736 78.8836C134.804 80.3615 136.586 85.6788 138.964 86.7123C141.343 87.7458 143.269 85.2345 143.269 85.2345" stroke="#263238" stroke-miterlimit="10"/>
<path d="M157.375 76.6669C157.375 77.401 157.108 77.9998 156.778 77.9998C156.448 77.9998 156.186 77.401 156.186 76.6669C156.186 75.9328 156.453 75.3388 156.778 75.3388C157.103 75.3388 157.375 75.9183 157.375 76.6669Z" fill="#263238"/>
<path d="M138.672 92.7687C138.672 92.7687 146.389 99.1244 150.694 106.064C155 113.004 165.989 125.416 167.77 129.555C169.551 133.694 171.037 137.973 171.037 141.518C171.037 145.063 171.333 171.944 171.333 172.543V191.156H125.746C125.746 191.156 128.571 152.302 128.571 144.029C128.571 135.756 125.003 128.222 127.678 116.404C130.352 104.587 134.789 97.7914 138.672 92.7687Z" fill="white" stroke="#263238" stroke-miterlimit="10"/>
<path d="M135.699 97.0523L152.178 119.655L156.333 118.326L156.036 123.349L166.433 128.816" stroke="#263238" stroke-miterlimit="10"/>
<path d="M166.823 171.785H142.846V175.6H164.906" stroke="#263238" stroke-miterlimit="10"/>
<path d="M191.167 72.5377H193.409V79.0141C193.409 79.2894 193.299 79.5536 193.104 79.7483C192.908 79.943 192.643 80.0524 192.366 80.0524H192.206C191.929 80.0524 191.663 79.943 191.468 79.7483C191.272 79.5536 191.162 79.2894 191.162 79.0141V72.5377H191.167Z" fill="white" stroke="#263238" stroke-miterlimit="10"/>
<path d="M193.957 71.1614H190.637V73.3926H193.957V71.1614Z" fill="white" stroke="#263238" stroke-miterlimit="10"/>
<path d="M203.66 59.2517C203.66 59.2517 204.825 61.0725 204.655 62.1495C204.485 63.2265 202.912 67.9449 202.413 68.0222C201.913 68.0994 201.83 67.5392 201.995 65.873C202.16 64.2068 202.413 63.1443 202.413 62.6469C202.413 62.1495 202.743 58.2617 203.66 59.2517Z" fill="#92E3A9" stroke="#263238" stroke-linecap="round" stroke-linejoin="round"/>
<path d="M181.301 57.0204C181.301 57.0204 179.389 60.3287 180.816 62.2267C182.243 64.1247 185.306 64.2985 185.306 64.2985C185.306 64.2985 185.791 68.0173 186.553 68.5968C187.315 69.1764 189.126 71.7409 189.378 72.6488C189.63 73.5568 191.373 72.4025 191.373 71.6539C191.373 70.9053 190.126 67.9352 189.791 67.1093C189.456 66.2835 190.208 64.0474 190.456 63.3037C190.566 62.924 190.73 62.5615 190.941 62.2267C190.941 62.2267 193.368 64.5449 193.601 65.8681C193.834 67.1914 193.183 72.0693 193.848 72.6295C194.513 73.1897 196.275 73.0448 196.591 72.0499C196.906 71.0551 197.508 65.2886 197.508 64.2792C197.508 63.2699 195.926 59.894 195.926 59.894C195.926 59.894 198.503 62.4585 198.586 63.3664C198.668 64.2744 197.921 70.065 198.338 70.2292C198.593 70.3787 198.885 70.4505 199.18 70.4359C199.476 70.4214 199.76 70.3209 199.998 70.1471C200.47 69.6146 200.837 68.9986 201.08 68.3312C201.08 68.3312 202.74 64.4434 203.405 62.6227C204.07 60.802 204.653 58.7591 203.158 57.9912C200.924 56.8334 198.62 55.8125 196.261 54.9341C192.023 53.2776 186.039 52.0364 183.879 53.6108C181.719 55.1852 181.301 57.0204 181.301 57.0204Z" fill="#92E3A9" stroke="#263238" stroke-linecap="round" stroke-linejoin="round"/>
<path d="M185.294 64.2987L184.959 58.3438" stroke="#263238" stroke-miterlimit="10"/>
<path d="M185.212 62.1446C185.212 62.1446 181.888 62.0625 181.553 57.8463" stroke="#263238" stroke-miterlimit="10"/>
<path d="M201.995 65.8682C201.995 65.8682 203.078 62.7241 202.165 61.2366C201.253 59.7491 197.758 57.431 197.758 57.431" stroke="#263238" stroke-miterlimit="10"/>
<path d="M178.658 115.154C178.949 114.956 184.124 109.518 184.221 109.131C184.318 108.745 184.415 103.5 185.002 102.336C185.589 101.172 187.536 97.7673 187.638 96.7C187.74 95.6326 187.735 92.0395 187.638 90.779C187.541 89.5184 188.807 89.417 189.686 90.5858C190.564 91.7545 190.759 93.4014 190.759 94.8551C190.759 96.3088 190.856 97.4775 191.05 97.7528C191.244 98.0281 192.904 99.5011 193.685 99.6846C194.467 99.8681 199.151 97.5451 200.52 97.0622C201.888 96.5792 202.762 92.5949 202.946 92.2037C203.131 91.8125 203.243 88.9051 203.34 88.2241C203.437 87.5432 204.703 86.669 205.194 88.3207C205.684 89.9724 205.485 93.8554 205.388 94.9227C205.291 95.99 205.388 98.2261 204.902 98.8105C204.417 99.3948 201.291 102.109 201.019 102.5C200.748 102.891 199.563 106.673 199.165 107.257C198.767 107.842 195.457 109.102 193.215 110.459C191.592 111.498 190.058 112.667 188.628 113.956C188.809 114.154 188.909 114.412 188.909 114.68C188.909 114.948 188.809 115.206 188.628 115.405C188.052 115.9 187.395 116.293 186.686 116.569L184.638 121.427L178.658 115.154Z" fill="#B5B5B5" stroke="#263238" stroke-miterlimit="10"/>
<path d="M199.149 107.31C199.543 106.726 200.712 102.964 201.004 102.553C201.295 102.143 204.401 99.443 204.887 98.8634C205.372 98.2839 205.28 96.0478 205.372 94.9757C205.464 93.9035 205.663 90.0254 205.178 88.3737C204.692 86.722 203.421 87.5961 203.324 88.2771C203.227 88.9581 203.13 91.8703 202.931 92.2566C202.731 92.643 201.858 96.6274 200.504 97.1151C199.149 97.6029 194.451 99.9308 193.67 99.7376C192.888 99.5444 191.243 98.0859 191.034 97.8058C190.825 97.5257 190.743 96.3569 190.743 94.9081C190.743 93.4592 190.549 91.8027 189.67 90.6387C188.791 89.4748 187.52 89.5666 187.622 90.8319C187.724 92.0973 187.719 95.6615 187.622 96.7529C187.525 97.8444 185.569 101.22 184.986 102.389C184.404 103.558 184.297 108.759 184.219 109.131C183.334 110.267 182.381 111.349 181.365 112.372L186.573 116.81L186.656 116.607C187.365 116.332 188.021 115.938 188.597 115.443C188.778 115.245 188.879 114.987 188.879 114.719C188.879 114.451 188.778 114.193 188.597 113.994C190.027 112.706 191.561 111.536 193.184 110.498C195.461 109.131 198.761 107.871 199.149 107.31Z" fill="#92E3A9" stroke="#263238" stroke-linecap="round" stroke-linejoin="round"/>
<path d="M201.007 102.529L197.691 104.953" stroke="#263238" stroke-miterlimit="10"/>
<path d="M135.277 108.136C135.277 108.136 140.325 107.248 143.295 109.609C146.266 111.971 147.304 116.404 147.45 116.853C147.596 117.303 161.531 130.009 161.531 130.009L179.048 113.903L187.663 122.325C187.663 122.325 176.674 136.21 171.034 141.528C165.394 146.845 161.235 149.351 160.196 149.81C159.157 150.269 158.119 149.81 156.929 149.071C155.74 148.332 131.098 123.663 131.098 123.663" fill="white"/>
<path d="M135.277 108.136C135.277 108.136 140.325 107.248 143.295 109.609C146.266 111.971 147.304 116.404 147.45 116.853C147.596 117.303 161.531 130.009 161.531 130.009L179.048 113.903L187.663 122.325C187.663 122.325 176.674 136.21 171.034 141.528C165.394 146.845 161.235 149.351 160.196 149.81C159.157 150.269 158.119 149.81 156.929 149.071C155.74 148.332 131.098 123.663 131.098 123.663" stroke="#263238" stroke-miterlimit="10"/>
<path d="M134.955 118.476C134.955 118.476 139.556 114.192 141.935 114.043C144.313 113.893 145.939 115.815 145.939 115.815" stroke="#263238" stroke-miterlimit="10"/>
<path d="M132.578 114.931C132.578 114.931 138.223 111.237 141.49 113" stroke="#263238" stroke-miterlimit="10"/>
<path d="M161.53 130.009C161.53 130.009 157.671 138.132 158.263 141.972" stroke="#263238" stroke-miterlimit="10"/>
<path d="M160.787 130.439C158.219 132.202 156.292 134.743 155.293 137.683" stroke="#263238" stroke-miterlimit="10"/>
<path d="M196.539 82.9115H198.781V89.3879C198.776 89.6591 198.665 89.9175 198.471 90.108C198.277 90.2984 198.015 90.4057 197.743 90.4069H197.583C197.306 90.4069 197.04 90.2975 196.845 90.1028C196.649 89.9081 196.539 89.644 196.539 89.3686V82.9115Z" fill="white" stroke="#263238" stroke-miterlimit="10"/>
<path d="M199.326 81.5544H196.006V83.7856H199.326V81.5544Z" fill="white" stroke="#263238" stroke-miterlimit="10"/>
<path d="M200.736 82.9115H202.979V89.3879C202.979 89.6633 202.869 89.9274 202.673 90.1221C202.477 90.3169 202.212 90.4262 201.935 90.4262H201.77C201.493 90.4262 201.228 90.3169 201.032 90.1221C200.836 89.9274 200.727 89.6633 200.727 89.3879V82.9115H200.736Z" fill="white" stroke="#263238" stroke-miterlimit="10"/>
<path d="M203.517 81.5544H200.197V83.7856H203.517V81.5544Z" fill="white" stroke="#263238" stroke-miterlimit="10"/>
<path d="M204.421 86.3115H190.17V93.5944H204.421V86.3115Z" fill="#263238" stroke="#263238" stroke-miterlimit="10"/>
<path d="M60.3047 103.22C60.3047 103.22 60.1349 108.817 61.3289 111.024C62.5229 113.231 64.5663 114.076 64.7265 115.946C64.8867 117.815 64.0421 120.355 65.2362 121.036C66.4302 121.717 74.9437 130.212 77.6861 130.028C80.4284 129.845 83.3358 125.957 83.3358 125.957L89.4758 129.859L97.6593 113.062L92.2036 108.141C92.2036 108.141 89.9855 94.9032 86.9179 91.17C83.8503 87.4368 72.4246 86.4226 66.6243 89.1368C60.8241 91.851 58.7807 97.9603 57.4022 99.1484C56.0237 100.336 53.1454 101.515 54.6986 103.727C56.2518 105.939 60.3047 103.22 60.3047 103.22Z" fill="white" stroke="#263238" stroke-miterlimit="10"/>
<path d="M90.6612 111.531C91.3116 111.048 91.962 109.735 92.4959 108.407L92.195 108.141C92.195 108.141 89.9768 94.9032 86.9092 91.17C83.8417 87.4368 72.4159 86.4226 66.6157 89.1368C60.8154 91.851 58.772 97.9603 57.3935 99.1484C56.0151 100.336 53.1465 101.515 54.6997 103.727C56.1558 105.784 59.7816 103.563 60.2669 103.244L60.3252 103.21C61.9084 102.711 63.4488 102.086 64.9314 101.341C66.3113 100.545 67.623 99.637 68.8532 98.6268C68.8532 98.6268 65.2712 104.567 66.6351 106.431C67.999 108.296 72.0907 107.45 72.0907 107.45C72.0907 107.45 74.8185 111.015 76.527 110.165C78.2356 109.315 75.8427 106.093 78.4006 104.905C80.9585 103.717 83.0068 108.807 83.0068 109.657C83.0068 110.507 89.1274 112.719 90.6612 111.531Z" fill="#263238" stroke="#263238" stroke-miterlimit="10"/>
<path d="M92.5245 108.436L80.6036 122.224C80.6036 122.224 77.6914 121.881 75.6577 120.355C73.6239 118.829 71.9057 115.096 71.9057 115.096C71.9057 115.096 80.6036 105.596 85.0351 102.882C88.9181 100.51 90.1801 100.081 90.4373 99.9839C90.2869 99.4092 90.1267 98.8297 89.952 98.2549C89.0249 98.6606 86.3068 100.018 81.9578 103.534C77.206 107.397 67.149 117.394 64.6348 119.915C64.6429 120.133 64.7026 120.346 64.8088 120.536C64.9151 120.727 65.065 120.89 65.2463 121.012C66.4404 121.688 74.9539 130.188 77.6962 130.004C78.257 129.95 78.8015 129.786 79.298 129.521C79.8222 127.406 80.7201 124.209 81.4482 122.871C82.3316 121.263 91.0878 111.816 93.4661 109.261L92.5245 108.436Z" fill="#92E3A9" stroke="#263238" stroke-linecap="round" stroke-linejoin="round"/>
<path d="M77.3601 110.691C77.3601 110.691 75.8263 105.258 77.8746 104.244C79.9228 103.229 82.4759 105.432 82.8205 107.803C83.1652 110.174 81.9663 113.067 81.9663 113.067C82.6792 114.602 82.9174 116.314 82.6507 117.984" fill="white"/>
<path d="M77.3601 110.691C77.3601 110.691 75.8263 105.258 77.8746 104.244C79.9228 103.229 82.4759 105.432 82.8205 107.803C83.1652 110.174 81.9663 113.067 81.9663 113.067C82.6792 114.602 82.9174 116.314 82.6507 117.984" stroke="#263238" stroke-miterlimit="10"/>
<path d="M68.5894 114.888C68.9291 115.545 68.9243 116.216 68.5894 116.39C68.2545 116.564 67.6963 116.177 67.3565 115.521C67.0168 114.864 67.0216 114.192 67.3565 114.019C67.6914 113.845 68.2496 114.231 68.5894 114.888Z" fill="#263238"/>
<path d="M64.1836 111.734C64.1836 111.734 64.3826 109.363 67.2609 109.856" stroke="#263238" stroke-miterlimit="10"/>
<path d="M97.3349 111.072L84.4434 131.526L89.4961 135.167L101.339 112.98L97.3349 111.072Z" fill="white" stroke="#263238" stroke-miterlimit="10"/>
<path d="M100.469 113.328C100.469 113.328 90.5385 130.492 88.6213 134.303C86.704 138.113 81.1319 147.473 80.7824 153.022C80.433 158.571 78.6953 191.175 78.6953 191.175H118.773C118.773 191.175 121.738 166.39 121.564 156.857C121.389 147.323 118.948 133.279 111.633 123.745C104.318 114.212 100.469 113.328 100.469 113.328Z" fill="white" stroke="#263238" stroke-miterlimit="10"/>
<path d="M103.952 115.926C103.952 115.926 98.0252 127.034 94.0208 133.433C90.0165 139.832 84.7938 146.782 83.3959 150.776C81.998 154.77 81.998 156.499 81.998 156.499" stroke="#263238" stroke-miterlimit="10"/>
<path d="M52.5627 159.609L47.8594 156.142C47.8594 156.142 45.5927 150.424 44.1996 148.864C42.8066 147.304 40.8894 147.647 39.6711 146.261C38.4528 144.875 37.0598 141.755 36.3608 141.431C35.6619 141.107 34.099 141.953 34.099 143.339C34.099 144.725 35.6667 146.98 35.6667 147.497V148.019C35.6667 148.019 29.7403 146.285 29.0462 146.806C28.3521 147.328 27.6532 149.057 28.1725 149.926C28.6919 150.796 29.7403 151.138 29.7403 151.834C29.7403 152.529 28.522 154.78 29.2209 155.644C29.7066 156.214 30.2983 156.684 30.9634 157.03C30.9634 157.03 30.9634 160.324 32.007 161.71C33.0506 163.096 41.0641 164.125 43.5056 164.487C45.947 164.849 53.0869 168.298 53.0869 168.298L52.5627 159.609Z" fill="#92E3A9" stroke="#263238" stroke-linecap="round" stroke-linejoin="round"/>
<path d="M98.7289 129.797C98.7289 129.797 91.2396 133.433 88.4487 142.967C85.6578 152.5 83.9201 162.381 83.9201 162.381C83.9201 162.381 82.1776 162.034 82.1776 163.077C82.1955 163.602 82.1366 164.128 82.0029 164.637L51.696 158.914L50.9971 173.127C50.9971 173.127 90.3659 180.41 92.4579 180.41C94.5499 180.41 96.8263 179.715 97.5107 177.995C98.195 176.276 109.529 150.95 109.529 150.95" fill="white"/>
<path d="M98.7289 129.797C98.7289 129.797 91.2396 133.433 88.4487 142.967C85.6578 152.5 83.9201 162.381 83.9201 162.381C83.9201 162.381 82.1776 162.034 82.1776 163.077C82.1955 163.602 82.1366 164.128 82.0029 164.637L51.696 158.914L50.9971 173.127C50.9971 173.127 90.3659 180.41 92.4579 180.41C94.5499 180.41 96.8263 179.715 97.5107 177.995C98.195 176.276 109.529 150.95 109.529 150.95" stroke="#263238" stroke-miterlimit="10"/>
<path d="M102.213 137.77C102.213 137.77 108.134 141.059 109.178 145.57" stroke="#263238" stroke-miterlimit="10"/>
<path d="M98.0273 142.793C98.5515 142.793 107.439 143.488 109.351 148.516" stroke="#263238" stroke-miterlimit="10"/>
<path d="M106.215 158.223C106.215 158.223 113.01 155.103 115.102 148.342" stroke="#263238" stroke-miterlimit="10"/>
<path d="M83.5703 164.811C83.5703 164.811 87.0505 171.219 86.8757 175.73" stroke="#263238" stroke-miterlimit="10"/>
<path d="M85.6582 163.768C85.6582 163.768 89.1626 164.463 91.5895 169.128" stroke="#263238" stroke-miterlimit="10"/>
<path d="M132.504 157.18H126.228C125.639 157.204 125.074 157.421 124.621 157.798C124.168 158.174 123.853 158.689 123.724 159.262L117.244 191.137H127.694L134.174 159.262C134.241 159.011 134.248 158.749 134.195 158.496C134.141 158.242 134.029 158.005 133.866 157.802C133.704 157.6 133.496 157.438 133.26 157.33C133.023 157.222 132.764 157.171 132.504 157.18Z" fill="#263238" stroke="#263238" stroke-miterlimit="10"/>
<path d="M0 191.156H236.364" stroke="#263238" stroke-miterlimit="10"/>
<path d="M12.2822 168.501H16.4953V188.133C16.4953 188.645 16.2907 189.136 15.9266 189.499C15.5625 189.861 15.0687 190.064 14.5538 190.064H14.2529C13.7379 190.064 13.2441 189.861 12.88 189.499C12.5159 189.136 12.3113 188.645 12.3113 188.133V168.501H12.2822Z" fill="white" stroke="#263238" stroke-linecap="round" stroke-linejoin="round"/>
<path d="M12.2822 176.455V187.964C12.2822 188.519 12.5042 189.053 12.8992 189.446C13.2943 189.839 13.8301 190.06 14.3888 190.06C14.9474 190.06 15.4833 189.839 15.8783 189.446C16.2734 189.053 16.4953 188.519 16.4953 187.964V176.455H12.2822Z" fill="#92E3A9" stroke="#263238" stroke-linecap="round" stroke-linejoin="round"/>
<path d="M17.2403 167.882H11.5371V171.828H17.2403V167.882Z" fill="white" stroke="#263238" stroke-linecap="round" stroke-linejoin="round"/>
<path d="M22.589 190.074C22.3107 190.075 22.0351 190.021 21.778 189.915C21.5209 189.809 21.2874 189.653 21.0911 189.457C20.8948 189.261 20.7395 189.028 20.6342 188.771C20.5289 188.515 20.4757 188.24 20.4776 187.964V168.501H24.6955V187.964C24.6974 188.24 24.6444 188.514 24.5394 188.77C24.4344 189.026 24.2795 189.259 24.0837 189.455C23.8879 189.651 23.655 189.807 23.3985 189.913C23.142 190.019 22.8668 190.074 22.589 190.074Z" fill="white" stroke="#263238" stroke-linecap="round" stroke-linejoin="round"/>
<path d="M20.4775 176.455V187.964C20.5035 188.503 20.7371 189.011 21.1297 189.384C21.5224 189.756 22.044 189.964 22.5865 189.964C23.1289 189.964 23.6506 189.756 24.0433 189.384C24.4359 189.011 24.6695 188.503 24.6955 187.964V176.455H20.4775Z" fill="#92E3A9" stroke="#263238" stroke-linecap="round" stroke-linejoin="round"/>
<path d="M25.4366 167.882H19.7334V171.828H25.4366V167.882Z" fill="white" stroke="#263238" stroke-linecap="round" stroke-linejoin="round"/>
<path d="M30.7804 190.074C30.5025 190.074 30.2274 190.019 29.9709 189.913C29.7144 189.807 29.4815 189.651 29.2857 189.455C29.0899 189.259 28.935 189.026 28.83 188.77C28.725 188.514 28.672 188.24 28.6739 187.964V168.501H32.8918V187.964C32.8937 188.24 32.8405 188.515 32.7352 188.771C32.6299 189.028 32.4746 189.261 32.2783 189.457C32.082 189.653 31.8485 189.809 31.5914 189.915C31.3343 190.021 31.0587 190.075 30.7804 190.074Z" fill="white" stroke="#263238" stroke-linecap="round" stroke-linejoin="round"/>
<path d="M28.6738 176.455V187.964C28.6738 188.519 28.8958 189.053 29.2908 189.446C29.6859 189.839 30.2217 190.06 30.7804 190.06C31.0574 190.06 31.3319 190.006 31.588 189.901C31.8441 189.796 32.0769 189.642 32.273 189.447C32.4692 189.253 32.6248 189.021 32.7309 188.767C32.8371 188.512 32.8917 188.239 32.8917 187.964V176.455H28.6738Z" fill="#92E3A9" stroke="#263238" stroke-linecap="round" stroke-linejoin="round"/>
<path d="M33.6329 167.882H27.9297V171.828H33.6329V167.882Z" fill="white" stroke="#263238" stroke-linecap="round" stroke-linejoin="round"/>
<path d="M38.9806 190.074C38.7027 190.074 38.4276 190.019 38.1711 189.913C37.9146 189.807 37.6817 189.651 37.4859 189.455C37.2901 189.259 37.1352 189.026 37.0302 188.77C36.9252 188.514 36.8722 188.24 36.8741 187.964V168.501H41.1114V187.964C41.1134 188.242 41.0595 188.518 40.953 188.776C40.8465 189.033 40.6894 189.267 40.4911 189.464C40.2927 189.66 40.0569 189.815 39.7976 189.92C39.5382 190.025 39.2605 190.077 38.9806 190.074Z" fill="white" stroke="#263238" stroke-linecap="round" stroke-linejoin="round"/>
<path d="M36.874 176.455V187.964C36.874 188.523 37.0972 189.059 37.4946 189.454C37.8919 189.85 38.4308 190.072 38.9927 190.072C39.5546 190.072 40.0935 189.85 40.4908 189.454C40.8881 189.059 41.1114 188.523 41.1114 187.964V176.455H36.874Z" fill="#92E3A9" stroke="#263238" stroke-linecap="round" stroke-linejoin="round"/>
<path d="M41.8331 167.882H36.1299V171.828H41.8331V167.882Z" fill="white" stroke="#263238" stroke-linecap="round" stroke-linejoin="round"/>
<path d="M45.3966 173.958H8.68758V175.199H45.3966V188.142H6.90625V191.156H47.8914V190.446V188.142V175.199V173.958H45.3966Z" fill="white" stroke="#263238" stroke-linecap="round" stroke-linejoin="round"/>
<path d="M183.012 188.698L178.211 170.147V165.076H171.416V170.147L166.616 188.698C166.54 188.988 166.532 189.293 166.593 189.587C166.654 189.881 166.782 190.158 166.968 190.395C167.153 190.633 167.39 190.825 167.661 190.957C167.933 191.088 168.231 191.157 168.533 191.156H181.095C181.397 191.157 181.695 191.088 181.966 190.957C182.237 190.825 182.475 190.633 182.66 190.395C182.845 190.158 182.973 189.881 183.034 189.587C183.095 189.293 183.087 188.988 183.012 188.698Z" fill="white" stroke="#263238" stroke-miterlimit="10"/>
<path d="M179.076 179.323H170.543L168.024 189.06C168.001 189.136 167.998 189.216 168.014 189.293C168.03 189.371 168.065 189.443 168.116 189.504C168.162 189.568 168.223 189.621 168.294 189.656C168.365 189.691 168.444 189.709 168.523 189.707H181.09C181.17 189.71 181.25 189.693 181.322 189.657C181.394 189.622 181.456 189.569 181.502 189.504C181.553 189.443 181.588 189.371 181.604 189.293C181.62 189.216 181.617 189.136 181.595 189.06L179.076 179.323Z" fill="#92E3A9"/>
<path d="M196.834 173.615V162.903H190.524V173.615C188.521 174.352 186.842 175.766 185.781 177.61C184.72 179.454 184.344 181.611 184.72 183.703C185.096 185.795 186.2 187.689 187.838 189.053C189.475 190.417 191.543 191.164 193.679 191.164C195.815 191.164 197.882 190.417 199.52 189.053C201.158 187.689 202.261 185.795 202.638 183.703C203.014 181.611 202.638 179.454 201.577 177.61C200.516 175.766 198.837 174.352 196.834 173.615Z" fill="white" stroke="#263238" stroke-miterlimit="10"/>
<path d="M185.888 179.806C185.527 181.014 185.455 182.288 185.676 183.528C185.898 184.768 186.407 185.94 187.164 186.949C187.921 187.959 188.904 188.778 190.035 189.343C191.167 189.908 192.415 190.202 193.681 190.202C194.947 190.202 196.195 189.908 197.326 189.343C198.458 188.778 199.441 187.959 200.198 186.949C200.955 185.94 201.464 184.768 201.685 183.528C201.907 182.288 201.834 181.014 201.474 179.806H185.888Z" fill="#92E3A9"/>
<path d="M215.542 179.579V159.952H211.378V179.579C210.055 180.066 208.946 180.999 208.245 182.217C207.545 183.435 207.297 184.859 207.545 186.24C207.793 187.622 208.522 188.872 209.603 189.773C210.685 190.673 212.05 191.167 213.46 191.167C214.87 191.167 216.236 190.673 217.317 189.773C218.398 188.872 219.127 187.622 219.375 186.24C219.623 184.859 219.376 183.435 218.675 182.217C217.974 180.999 216.865 180.066 215.542 179.579Z" fill="white" stroke="#263238" stroke-miterlimit="10"/>
<path d="M208.317 183.665C208.169 184.155 208.093 184.665 208.094 185.177C208.073 185.891 208.195 186.603 208.455 187.27C208.715 187.936 209.107 188.544 209.607 189.057C210.108 189.57 210.707 189.978 211.368 190.257C212.03 190.535 212.741 190.679 213.46 190.679C214.179 190.679 214.89 190.535 215.552 190.257C216.213 189.978 216.812 189.57 217.313 189.057C217.813 188.544 218.205 187.936 218.465 187.27C218.725 186.603 218.848 185.891 218.826 185.177C218.827 184.665 218.751 184.155 218.603 183.665H208.317Z" fill="#92E3A9"/>
</svg>
