<svg id="Layer_1" data-name="Layer 1" xmlns="http://www.w3.org/2000/svg" viewBox="0 0 103 97"><title>pana</title><path d="M88,23.25H14.23V76H88Z" fill="#263238"/><path d="M85.76,25.36H16V74H85.76Z" fill="#455a64"/><path d="M92.1,76H11.82v2.1H92.1Z" fill="#263238"/><path d="M90.23,76H26.68s14.24-.06,31.78-.06S90.23,75.94,90.23,76Z" fill="#455a64"/><path d="M75.77,50.82V38.62l0,.05H63.59l.06-.06V50.76h-.08V38.53H75.85V50.67A.18.18,0,0,1,75.77,50.82Z" fill="#fff"/><path d="M75.77,50.82l.1-.07.28-.18,1.08-.68,4-2.47h0v-12H69.29L65.11,37.8,64,38.42l-.29.16-.1.05.09-.06.3-.17,1.11-.64,4.08-2.34H81.28V47.48h0l-4,2.44-1.1.67-.28.17Z" fill="#fff"/><path d="M81.22,35.44s-1.19.76-2.69,1.64-2.74,1.56-2.76,1.54,1.2-.76,2.7-1.64S81.2,35.42,81.22,35.44Z" fill="#fff"/><path d="M64.16,50.32a1.2,1.2,0,0,1-.26.22c-.16.1-.3.14-.32.11s.1-.12.26-.22S64.14,50.29,64.16,50.32Z" fill="#fff"/><path d="M65.32,49.65a1.09,1.09,0,0,1-.26.23c-.16.1-.31.14-.32.11s.1-.12.26-.22S65.3,49.62,65.32,49.65Z" fill="#fff"/><path d="M66.47,49a1.2,1.2,0,0,1-.26.22c-.16.1-.3.15-.32.12s.1-.13.26-.23A.72.72,0,0,1,66.47,49Z" fill="#fff"/><path d="M67.63,48.32a1.09,1.09,0,0,1-.26.23c-.16.1-.3.14-.32.11s.1-.12.26-.22S67.61,48.3,67.63,48.32Z" fill="#fff"/><path d="M68.8,47.66a1.2,1.2,0,0,1-.26.22c-.16.1-.3.14-.32.12s.1-.13.26-.23S68.77,47.63,68.8,47.66Z" fill="#fff"/><path d="M69.08,46.49a1,1,0,0,1,.06.33c0,.18,0,.34-.07.34s0-.15,0-.34S69.05,46.49,69.08,46.49Z" fill="#fff"/><path d="M69.09,45.16a.52.52,0,0,1,0,.33c-.06.18,0,.33-.06.33s0-.15,0-.33S69.06,45.16,69.09,45.16Z" fill="#fff"/><path d="M69.1,43.82a1,1,0,0,1,.06.34c0,.19,0,.33-.06.33s-.06-.15-.06-.33S69.07,43.82,69.1,43.82Z" fill="#fff"/><path d="M69.11,42.49a1,1,0,0,1,.06.33c0,.18,0,.34-.06.34s-.06-.16-.06-.34S69.08,42.49,69.11,42.49Z" fill="#fff"/><path d="M69.12,41.15a1,1,0,0,1,.06.34c0,.19,0,.33-.06.33s-.06-.15-.06-.33S69.09,41.15,69.12,41.15Z" fill="#fff"/><path d="M69.13,39.82a1,1,0,0,1,.06.33c0,.18,0,.34-.06.34s-.06-.15-.06-.34S69.1,39.82,69.13,39.82Z" fill="#fff"/><path d="M69.14,38.49a.92.92,0,0,1,.06.33c0,.19,0,.33-.06.33s-.06-.15-.06-.33S69.11,38.49,69.14,38.49Z" fill="#fff"/><path d="M69.15,37.15a1,1,0,0,1,.06.33c0,.18,0,.34-.06.34s-.06-.15-.06-.34S69.12,37.15,69.15,37.15Z" fill="#fff"/><path d="M69.16,35.82a1,1,0,0,1,.06.33c0,.18,0,.33-.06.33s-.06-.15-.06-.33S69.13,35.82,69.16,35.82Z" fill="#fff"/><path d="M80.55,47.46a1,1,0,0,1,.34-.06c.19,0,.33,0,.33.06s-.15,0-.33,0S80.55,47.49,80.55,47.46Z" fill="#fff"/><path d="M79.22,47.46a1,1,0,0,1,.34-.06c.19,0,.33,0,.33.06s-.15,0-.33,0S79.22,47.49,79.22,47.46Z" fill="#fff"/><path d="M77.89,47.46a1,1,0,0,1,.33-.06c.18,0,.34,0,.34.06s-.15,0-.34,0S77.89,47.49,77.89,47.46Z" fill="#fff"/><path d="M76.55,47.46a1,1,0,0,1,.34-.06c.19,0,.33,0,.33.06s-.15,0-.33,0S76.55,47.49,76.55,47.46Z" fill="#fff"/><path d="M75.22,47.46a1,1,0,0,1,.33-.06c.18,0,.34,0,.34.06s-.15,0-.34,0S75.22,47.49,75.22,47.46Z" fill="#fff"/><path d="M73.88,47.46a1,1,0,0,1,.34-.06c.19,0,.33,0,.33.06s-.15,0-.33,0S73.88,47.49,73.88,47.46Z" fill="#fff"/><path d="M72.55,47.46a1,1,0,0,1,.33-.06c.18,0,.34,0,.34.06s-.15,0-.34,0S72.55,47.49,72.55,47.46Z" fill="#fff"/><path d="M71.22,47.46a1,1,0,0,1,.33-.06c.18,0,.33,0,.33.06s-.14,0-.33,0S71.22,47.49,71.22,47.46Z" fill="#fff"/><path d="M69.88,47.46a1,1,0,0,1,.33-.06c.18,0,.34,0,.34.06s-.15,0-.34,0S69.88,47.49,69.88,47.46Z" fill="#fff"/><path d="M69.07,47.46v-.05h.08s0,.05,0,.06Z" fill="#fff"/><path d="M82.7,43.39a.76.76,0,0,0,.3,0,1,1,0,0,0,.37-.17,1,1,0,0,0,.27-.31,1.43,1.43,0,0,0,.12-.58,1.33,1.33,0,0,0-.16-.58.29.29,0,0,0-.1-.12.37.37,0,0,0-.14-.07.43.43,0,0,0-.16,0l-.15.07a1.49,1.49,0,0,0-.39.65,3.4,3.4,0,0,0-.17.83h-.11V40.26a.81.81,0,0,1,0-.22.81.81,0,0,1,0,.22v.64c0,.55,0,1.33.06,2.21h-.12a3.22,3.22,0,0,1,.18-.86,2.59,2.59,0,0,1,.17-.38,1,1,0,0,1,.26-.32.66.66,0,0,1,.19-.09h.21a.31.31,0,0,1,.18.09.34.34,0,0,1,.13.16,1.33,1.33,0,0,1,.16.62,1.39,1.39,0,0,1-.15.63.89.89,0,0,1-.29.32,1,1,0,0,1-.4.16h-.24Z" fill="#fff"/><path d="M76.79,34.05h0l-.12.09a.45.45,0,0,1-.23,0,.42.42,0,0,1-.3-.12.9.9,0,0,1-.2-.34,3.12,3.12,0,0,1-.15-.43,5.35,5.35,0,0,1-.17-1h.11a3.61,3.61,0,0,1,0,1.39,1.25,1.25,0,0,1-.43.71.57.57,0,0,1-.4.09.66.66,0,0,1-.19-.09.47.47,0,0,1-.13-.15,1.43,1.43,0,0,1-.15-.64,1.38,1.38,0,0,1,.17-.63,1.36,1.36,0,0,1,.64-.59l.22-.08h.08a.52.52,0,0,0-.28.13,1.35,1.35,0,0,0-.58.58,1.33,1.33,0,0,0-.15.55,1.15,1.15,0,0,0,.14.63.29.29,0,0,0,.1.12l.15.07h.17a.3.3,0,0,0,.15-.07,1.14,1.14,0,0,0,.38-.64,3.88,3.88,0,0,0,0-1.36h.11a5.62,5.62,0,0,0,.15,1c0,.14.08.28.13.42a.76.76,0,0,0,.17.32.46.46,0,0,0,.23.12.49.49,0,0,0,.24,0A.35.35,0,0,0,76.79,34.05Z" fill="#fff"/><path d="M50.48,50.87a2.46,2.46,0,0,1-.38-.43,1.36,1.36,0,0,1-.29-.49,2.62,2.62,0,0,1,.38.42A1.49,1.49,0,0,1,50.48,50.87Z" fill="#fff"/><path d="M50,52.05a6.14,6.14,0,0,1,.39-1.19,7,7,0,0,1,.49-1.16,7.27,7.27,0,0,1-.38,1.2A6.9,6.9,0,0,1,50,52.05Z" fill="#fff"/><path d="M63.17,61A6.68,6.68,0,0,1,62,59.63,7.64,7.64,0,0,1,63.17,61Z" fill="#fff"/><path d="M62.9,62.8a2.29,2.29,0,0,1,.11-.52c.08-.31.21-.75.38-1.21s.34-.89.47-1.18a2.12,2.12,0,0,1,.25-.47,3,3,0,0,1-.17.5c-.12.3-.28.72-.45,1.19s-.3.88-.41,1.19A2.3,2.3,0,0,1,62.9,62.8Z" fill="#fff"/><path d="M67.07,60.37a7,7,0,0,1-1.83,0A7,7,0,0,1,67.07,60.37Z" fill="#fff"/><path d="M67.27,61.87a10.63,10.63,0,0,1-2.11,0A9.31,9.31,0,0,1,67.27,61.87Z" fill="#fff"/><path d="M70.13,62.57a16.43,16.43,0,0,1-1.73-2,6.63,6.63,0,0,1,.91,1A7.15,7.15,0,0,1,70.13,62.57Z" fill="#fff"/><path d="M70,60.3a2.46,2.46,0,0,1-.25.45l-.63,1.08L68.5,62.9a2.66,2.66,0,0,1-.29.45,2.06,2.06,0,0,1,.21-.48c.15-.28.36-.67.61-1.1s.48-.79.66-1.05A2.07,2.07,0,0,1,70,60.3Z" fill="#fff"/><path d="M71.73,59.68a6.08,6.08,0,0,0-1.35,0h-.1l.06-.08.64-1c.18-.3.43-.58.36-.86a.3.3,0,0,0-.08-.16.32.32,0,0,0-.17-.09.65.65,0,0,0-.34,0,.94.94,0,0,0-.36.38.61.61,0,0,1-.12.16.58.58,0,0,1,.08-.18,1.07,1.07,0,0,1,.36-.43.56.56,0,0,1,.4-.07.44.44,0,0,1,.22.1.48.48,0,0,1,.12.22.68.68,0,0,1-.1.5c-.08.15-.18.29-.27.44l-.67,1v-.08a5.6,5.6,0,0,1,1,.06A1.68,1.68,0,0,1,71.73,59.68Z" fill="#fff"/><path d="M77.35,58l.22.11a.91.91,0,0,0,.65,0,.78.78,0,0,0,.46-.77.62.62,0,0,0-.09-.26.61.61,0,0,0-.2-.19.63.63,0,0,0-.27-.1.76.76,0,0,0-.3,0v-.11h.07a1.4,1.4,0,0,0,.57-.29.63.63,0,0,0,.16-.23.61.61,0,0,0,0-.27.7.7,0,0,0-.11-.23.75.75,0,0,0-.2-.15.69.69,0,0,0-.45,0,1,1,0,0,0-.54.39c-.1.13-.14.22-.15.21a.66.66,0,0,1,.11-.24,1,1,0,0,1,.56-.44.74.74,0,0,1,.51,0,.58.58,0,0,1,.26.18.61.61,0,0,1,.1.61.7.7,0,0,1-.19.26,1.42,1.42,0,0,1-.61.31h-.07v-.11a.78.78,0,0,1,.34,0,.94.94,0,0,1,.32.11.69.69,0,0,1,.24.24.68.68,0,0,1,.11.31.88.88,0,0,1-.13.52.92.92,0,0,1-1.1.33.54.54,0,0,1-.16-.1Z" fill="#fff"/><path d="M80.73,55.27a.14.14,0,0,1,.09,0H81a.47.47,0,0,1,.1.1.31.31,0,0,1,.07.21.5.5,0,0,1-.06.24,2.15,2.15,0,0,1-.4.45,4.81,4.81,0,0,1-.57.44.71.71,0,0,0-.29.25.77.77,0,0,0-.12.36.7.7,0,0,0,.15.39.63.63,0,0,0,.34.23,1,1,0,0,0,.45.05,1.08,1.08,0,0,0,.42-.16.57.57,0,0,0,.24-.36.41.41,0,0,0,0-.22.69.69,0,0,0-.1-.19,1.45,1.45,0,0,0-.74-.44,1.61,1.61,0,0,1-.73-.41.72.72,0,0,1-.19-.34.55.55,0,0,1,0-.36.88.88,0,0,1,.43-.42,1.67,1.67,0,0,1,.44-.11h.38l-.37.05a1.45,1.45,0,0,0-.42.12.87.87,0,0,0-.38.4.44.44,0,0,0,0,.32.57.57,0,0,0,.17.28,1.55,1.55,0,0,0,.69.37,1.47,1.47,0,0,1,.79.47.55.55,0,0,1,.12.49.55.55,0,0,1-.1.25.7.7,0,0,1-.18.2,1.08,1.08,0,0,1-.49.18.89.89,0,0,1-.51-.06.81.81,0,0,1-.4-.28.78.78,0,0,1-.15-.44.6.6,0,0,1,.14-.43,2,2,0,0,1,.31-.27,6,6,0,0,0,.57-.42,1.56,1.56,0,0,0,.4-.41.32.32,0,0,0,.07-.19.67.67,0,0,0,0-.2l-.1-.1a.24.24,0,0,0-.12,0Z" fill="#fff"/><path d="M78.48,62.45v.25h-.06c0-.39-.09-.83-.14-1.34-.09-.87-.19-1.57-.16-1.57a1.36,1.36,0,0,1,.11.44c.06.28.12.67.17,1.11s.07.89.08,1.34h-.06A.46.46,0,0,1,78.48,62.45Z" fill="#fff"/><path d="M81,59.54a4.91,4.91,0,0,1-1.45.41,2.52,2.52,0,0,1,.71-.26A2.38,2.38,0,0,1,81,59.54Z" fill="#fff"/><path d="M79.54,62.17h.18a.94.94,0,0,0,.47-.05.89.89,0,0,0,.53-.44.7.7,0,0,0,.09-.4.67.67,0,0,0,0-.2.43.43,0,0,0-.36-.25h-.24a1.69,1.69,0,0,0-.41.24l-.07.06V61a4.92,4.92,0,0,1,0-.94,1.09,1.09,0,0,1,0-.36s0,.52.06,1.29h-.08a1.5,1.5,0,0,1,.44-.26.61.61,0,0,1,.3-.05.54.54,0,0,1,.27.11.53.53,0,0,1,.16.2.67.67,0,0,1,.07.24.88.88,0,0,1-.11.45,1,1,0,0,1-.6.46.89.89,0,0,1-.51,0C79.59,62.21,79.53,62.17,79.54,62.17Z" fill="#fff"/><path d="M76.39,59.66a.9.9,0,0,1-.46.06.94.94,0,0,1-.47-.06A1.83,1.83,0,0,1,76.39,59.66Z" fill="#fff"/><path d="M26.05,39.15a8.84,8.84,0,0,1-.74-1.26h.1a8.29,8.29,0,0,1-.63,1.35,9.83,9.83,0,0,1,.53-1.4h0v-.11l.06.1A10.27,10.27,0,0,1,26.05,39.15Z" fill="#fff"/><path d="M25.28,36.4a.88.88,0,0,1-.34-.31c-.14-.22-.18-.42-.15-.43s.11.17.24.37S25.3,36.38,25.28,36.4Z" fill="#fff"/><path d="M24.94,37a3.6,3.6,0,0,1,.27-.78,4.18,4.18,0,0,1,.31-.76,2.41,2.41,0,0,1-.2.8A2.26,2.26,0,0,1,24.94,37Z" fill="#fff"/><path d="M23.84,41.82a5.16,5.16,0,0,0,.2-.67v-.69a1.23,1.23,0,0,1,.09.71,1.25,1.25,0,0,1-.32.65Z" fill="#fff"/><path d="M24.06,40.92s0,.1-.17.13a.33.33,0,0,1-.14,0,.31.31,0,0,1-.13-.06l-.09-.11a.29.29,0,0,1,0-.13.33.33,0,0,1,0-.14l.08-.12.12-.07a.33.33,0,0,1,.14,0c.14,0,.19.1.18.11h-.27l-.08.06a.27.27,0,0,0-.06.17.23.23,0,0,0,.08.17.27.27,0,0,0,.17.06C24,41,24,40.9,24.06,40.92Z" fill="#fff"/><path d="M53.67,31.05h.12l.35.12a6.67,6.67,0,0,1,1.24.65A6.77,6.77,0,0,1,57,33.36a5.85,5.85,0,0,1,.77,6.15,5.42,5.42,0,0,1-1.13,1.63,5.63,5.63,0,0,1-.81.65c-.15.09-.31.19-.47.27a4.31,4.31,0,0,1-.49.22,9.56,9.56,0,0,1-4.47.41c-.78-.07-1.56-.18-2.37-.31a15.05,15.05,0,0,1-2.39-.55,6.35,6.35,0,0,1-2.15-1.21,4.64,4.64,0,0,1-.78-.93,4.81,4.81,0,0,1-.5-1.08,5.78,5.78,0,0,1-.23-2.3,6.26,6.26,0,0,1,.63-2.12,7.06,7.06,0,0,1,2.89-2.84,9.61,9.61,0,0,1,3.39-1.08,13,13,0,0,1,2.93,0,20.22,20.22,0,0,1,2.18.36c.6.13,1,.26,1.36.34l.35.1h0L55.37,31,54,30.65a19.93,19.93,0,0,0-2.19-.33,12.87,12.87,0,0,0-2.91,0,9.68,9.68,0,0,0-3.35,1.08,7,7,0,0,0-2.84,2.81,5.81,5.81,0,0,0-.61,2.08,5.53,5.53,0,0,0,.22,2.25,4.17,4.17,0,0,0,1.25,2,5.88,5.88,0,0,0,2.11,1.19,14.64,14.64,0,0,0,2.36.53c.8.13,1.59.24,2.36.32a9.79,9.79,0,0,0,4.43-.4,5.19,5.19,0,0,0,2.85-2.71A5.79,5.79,0,0,0,58.15,36,6,6,0,0,0,57,33.4a6.91,6.91,0,0,0-1.6-1.5,8.13,8.13,0,0,0-1.23-.67l-.34-.13Z" fill="#fff"/><path d="M45.91,38.58a1,1,0,0,1-.24,0H44.8a1,1,0,0,1-.25,0h-.07a.06.06,0,0,1,0-.06.33.33,0,0,1,0-.14v-.27a8,8,0,0,0-.06-1.17,9.72,9.72,0,0,1-.06-1.18,1.06,1.06,0,0,1,.13-.52.71.71,0,0,1,.35-.31,1.64,1.64,0,0,1,.66-.07.59.59,0,0,1,.23,0H45.5a1.47,1.47,0,0,0-.62.1.63.63,0,0,0-.31.27,1.12,1.12,0,0,0-.1.48,8.11,8.11,0,0,0,.06,1.17c.06.42,0,.81.06,1.18,0,.17,0,.39.1.41h1.1Z" fill="#fff"/><path d="M45.58,36.67a1.73,1.73,0,0,1-.6.07,1.58,1.58,0,0,1-.61-.05,2.05,2.05,0,0,1,.6-.07A1.8,1.8,0,0,1,45.58,36.67Z" fill="#fff"/><path d="M48.61,36.13a4.71,4.71,0,0,1-.92,0,7.06,7.06,0,0,1-.92,0,2.63,2.63,0,0,1,.92-.13A2.88,2.88,0,0,1,48.61,36.13Z" fill="#fff"/><path d="M48.78,37.52a2.8,2.8,0,0,1-.91.06,2.74,2.74,0,0,1-.9-.1,4.61,4.61,0,0,1,.91,0A4.52,4.52,0,0,1,48.78,37.52Z" fill="#fff"/><path d="M53.68,38.36V38a4.2,4.2,0,0,0-.18-1,1,1,0,0,0-.33-.55.25.25,0,0,0-.17,0,.2.2,0,0,0-.15.06.7.7,0,0,0-.24.3,4,4,0,0,0-.3,1.81H52.2a7.5,7.5,0,0,0,0-1.34,3.35,3.35,0,0,0-.08-.54.67.67,0,0,0-.24-.42.38.38,0,0,0-.21-.07.44.44,0,0,0-.22.07.65.65,0,0,0-.26.37,2.33,2.33,0,0,0-.08.46,3.38,3.38,0,0,0,0,.45,5.75,5.75,0,0,0,0,.83H51q0-1-.06-1.59v-.43a.38.38,0,0,1,0-.15v.58c0,.39.06.93.1,1.58h0q0-.42,0-.84a3.53,3.53,0,0,1,0-.46,2.67,2.67,0,0,1,.08-.48.76.76,0,0,1,.31-.43.54.54,0,0,1,.28-.08.44.44,0,0,1,.27.09.8.8,0,0,1,.29.49,5.21,5.21,0,0,1,.08.55,7.72,7.72,0,0,1,0,1.36H52.2a4,4,0,0,1,.32-1.85,1,1,0,0,1,.28-.33.37.37,0,0,1,.2-.07.26.26,0,0,1,.21,0,1,1,0,0,1,.37.6,3.77,3.77,0,0,1,.14,1v.27Z" fill="#fff"/><path d="M56.23,38.17a.21.21,0,0,1-.14.1,1,1,0,0,1-.44.11A1.14,1.14,0,0,1,55,38.2a1.18,1.18,0,0,1-.37-1.54,1.22,1.22,0,0,1,.51-.47,1.35,1.35,0,0,1,.45-.11h.16a1.66,1.66,0,0,0-.58.15,1.24,1.24,0,0,0-.46.45,1.11,1.11,0,0,0-.09.76,1.13,1.13,0,0,0,.43.64,1.19,1.19,0,0,0,.61.19A1.59,1.59,0,0,0,56.23,38.17Z" fill="#fff"/><path d="M56.92,34.87a6.23,6.23,0,0,0-1.29.23l-.2.06.15-.15a4.13,4.13,0,0,0,.72-.89,1.31,1.31,0,0,0,.15-.89.24.24,0,0,0-.22-.24.63.63,0,0,0-.33.09,1,1,0,0,0-.4.32c-.08.09-.11.16-.12.15a.42.42,0,0,1,.08-.18,1.28,1.28,0,0,1,.4-.37.87.87,0,0,1,.38-.11h.12l.1.07a.65.65,0,0,1,.11.22,1.4,1.4,0,0,1-.16,1,3.6,3.6,0,0,1-.75.9V35a4.24,4.24,0,0,1,1-.15A1.15,1.15,0,0,1,56.92,34.87Z" fill="#fff"/><path d="M85.14,63.06s-1.74.31-3.89.62-3.91.52-3.92.49,1.74-.3,3.9-.61S85.14,63,85.14,63.06Z" fill="#fff"/><path d="M71.2,64.22s-1.73.23-3.86.44-3.88.38-3.88.35,1.72-.24,3.86-.45S71.19,64.19,71.2,64.22Z" fill="#fff"/><path d="M71.62,65.18s-1.61.24-3.61.47-3.63.39-3.63.35S66,65.76,68,65.54,71.62,65.16,71.62,65.18Z" fill="#fff"/><path d="M53.65,66.32V76H70.29Zm2.56,3.9,6.91,4.1H56.21Z" fill="#fdb844"/><path d="M8.77,46.56a1.84,1.84,0,0,0-.72-.77,2,2,0,0,0-2,0,2,2,0,0,0,0,3.48,2,2,0,0,0,1,.24A3.88,3.88,0,0,0,9.55,48" fill="#263238"/><path d="M9.56,46.19A.6.6,0,0,0,9.5,46a.43.43,0,0,0-.12-.11.35.35,0,0,0-.14-.06H9.08A.62.62,0,0,0,8.8,46a.76.76,0,0,0-.15.28,1.16,1.16,0,0,0,0,.64,2.5,2.5,0,0,0,.45.89c.14.18.36.36.57.28s.27-.39.24-.63a4.21,4.21,0,0,0-.46-1.55" fill="#fdb844"/><path d="M15.09,37.48a11,11,0,0,1,4.08-3.72,7.19,7.19,0,0,1,5.42-.5,5.4,5.4,0,0,1,3.59,3.94c.27,1.45,0,3.7,1.11,4.7,2.22,2.05,1.88,5.92.58,8.14A3.52,3.52,0,0,0,30,54.73s1.28.91.64,3.38c-1,3.85,3.38,6,.73,5.39l-8.86-1-1-10" fill="#263238"/><path d="M9.86,42.9a2.1,2.1,0,0,0-.7,1.85,11.45,11.45,0,0,0,.49,2,3.11,3.11,0,0,1,0,2C9.2,49.87,7.94,50.32,7,51a5.33,5.33,0,0,0-2.2,4.73,3.56,3.56,0,0,1,0,1.59c-.22.57-.8.91-1.16,1.41a2.72,2.72,0,0,0,0,2.73,7.82,7.82,0,0,0,1.83,2.18,47.36,47.36,0,0,1,10.84-7.07" fill="#263238"/><path d="M43,57.12l4.34,1.41s3-1.86,3.19-2.54-.15-.78-.26-.77,1.07-.94.5-1.79c0,0,1-1,.31-1.62l-.35-.28a2.08,2.08,0,0,0,.1-1.64.51.51,0,0,0-.28-.24.62.62,0,0,0-.38,0L46.62,51l-2.27,1.5Z" fill="#ffbe9d"/><path d="M48.31,51.05l1.21-4.4,1-.1-1,3.5Z" fill="#fafafa"/><path d="M43.38,55.75l1.07-3.54,3.84-2.88a1.3,1.3,0,0,1,0,1.32,12.65,12.65,0,0,1-1.12,1.52c-.13.2-.69,1.25-.69,1.25a4.53,4.53,0,0,1,.13,2.93" fill="#ffbe9d"/><path d="M50.74,51.54a1.45,1.45,0,0,1-.26.17l-.72.45-1.07.63A1.2,1.2,0,0,1,48,53a.62.62,0,0,1-.38-.2.67.67,0,0,1-.13-.41,1.37,1.37,0,0,1,.34-.74c.16-.19.32-.38.49-.56a7,7,0,0,1,1-.8,6.59,6.59,0,0,1,.72-.44,1.48,1.48,0,0,1,.29-.12,1.2,1.2,0,0,1-.27.16c-.16.1-.41.25-.69.46a6.58,6.58,0,0,0-.93.82,6.3,6.3,0,0,0-.48.55,1.22,1.22,0,0,0-.31.67.52.52,0,0,0,.1.34.44.44,0,0,0,.3.15,1.14,1.14,0,0,0,.67-.19l1.09-.61.74-.4A1.33,1.33,0,0,1,50.74,51.54Z" fill="#eb996e"/><path d="M50.78,53.43a1.24,1.24,0,0,1-.22.18l-.65.44a9.12,9.12,0,0,1-1,.6,1,1,0,0,1-.33.13.52.52,0,0,1-.38-.1.74.74,0,0,1-.22-.33A.65.65,0,0,1,48,54a1.43,1.43,0,0,1,.37-.67,5.79,5.79,0,0,1,.51-.48,7.9,7.9,0,0,1,.94-.7l.67-.41a1.3,1.3,0,0,1,.26-.14,1.24,1.24,0,0,1-.22.18l-.66.44a10.71,10.71,0,0,0-.92.71c-.17.15-.33.31-.49.48a1.32,1.32,0,0,0-.34.61.65.65,0,0,0,0,.34.77.77,0,0,0,.19.28.38.38,0,0,0,.29.07,1,1,0,0,0,.3-.11,10.45,10.45,0,0,0,1-.57l.67-.42Z" fill="#eb996e"/><path d="M50.27,55.22a.62.62,0,0,1-.18.14l-.52.33a7.84,7.84,0,0,1-.82.41,2,2,0,0,1-.53.16.42.42,0,0,1-.31,0,.37.37,0,0,1-.13-.12.3.3,0,0,1-.05-.16.86.86,0,0,1,0-.32.63.63,0,0,1,.16-.26,2.4,2.4,0,0,1,.4-.38,7.85,7.85,0,0,1,.76-.52,5.54,5.54,0,0,1,.53-.3l.21-.1a.59.59,0,0,1-.18.13l-.52.34a7.54,7.54,0,0,0-.73.53c-.25.23-.6.47-.54.86a.21.21,0,0,0,0,.11.18.18,0,0,0,.08.09.49.49,0,0,0,.24,0,2.15,2.15,0,0,0,.51-.15,6,6,0,0,0,.81-.39C49.74,55.47,50,55.34,50.27,55.22Z" fill="#eb996e"/><path d="M50.49,56a.4.4,0,0,1-.1.18,3,3,0,0,1-.35.45,5.5,5.5,0,0,1-.62.56c-.13.09-.26.19-.41.28a1.47,1.47,0,0,1-.48.25.51.51,0,0,1-.3,0A.39.39,0,0,1,48,57.5a.68.68,0,0,1,.1-.5,2.55,2.55,0,0,1,.46-.71,2,2,0,0,1,.45-.36.46.46,0,0,1,.19-.08,2.5,2.5,0,0,0-1,1.18.59.59,0,0,0-.05.43.24.24,0,0,0,.14.17.28.28,0,0,0,.22,0,1.22,1.22,0,0,0,.44-.22l.4-.28A5.56,5.56,0,0,0,50,56.6,7.44,7.44,0,0,0,50.49,56Z" fill="#eb996e"/><path d="M42.66,57,37.32,68.42l-4.67-6.1c-2.92-3.72-5.33-4.61-5.33-4.61l-4.23-1.14-8.69-.46-.76.44-5.23,2.2A93.85,93.85,0,0,0,9.9,68.89c1,4.49,1.81,9.39,1.81,9.39.36,3.23-2,15.63-2,15.63h23.9L28.5,78.51q.87-2.82,1.46-5.71l4.44,3s6.68,3.75,9.1-2.55l4.21-14.68Z" fill="#fdb844"/><path d="M29.68,73a1.82,1.82,0,0,1,0-.33v-.91a11.73,11.73,0,0,0-.11-1.33,14.82,14.82,0,0,0-.33-1.61,12.62,12.62,0,0,0-.56-1.56q-.27-.62-.6-1.2c-.09-.16-.19-.31-.27-.44a2.7,2.7,0,0,0-.22-.33,1.67,1.67,0,0,1-.18-.28,1.31,1.31,0,0,1,.22.25,2.27,2.27,0,0,1,.22.32c.08.13.19.27.29.45a9,9,0,0,1,.63,1.19,11.39,11.39,0,0,1,.89,3.19,10.2,10.2,0,0,1,.09,1.35,4.51,4.51,0,0,1,0,.52v.39A1.3,1.3,0,0,1,29.68,73Z" fill="#263238"/><path d="M37.7,71.7a1.58,1.58,0,0,1-.25-.46A4.8,4.8,0,0,1,37.14,70a4.5,4.5,0,0,1,0-1.27,1.78,1.78,0,0,1,.14-.5,8.06,8.06,0,0,0,0,1.77A7.73,7.73,0,0,0,37.7,71.7Z" fill="#263238"/><path d="M26,40.62c-.33-2.45-2.59-5.12-7.38-4l-4.7,1.53a1.42,1.42,0,0,0-1.19,1.54l1.75,18.49a4.29,4.29,0,0,0,6,3.61,4.35,4.35,0,0,0,2.37-2.49,4.25,4.25,0,0,0,.27-1.73c-.1-2.22-.17-4-.17-4s3.1-.73,3.47-4.86A43.82,43.82,0,0,0,26,40.62Z" fill="#ffbe9d"/><path d="M24.73,43.43a.53.53,0,0,1-.12.38.52.52,0,0,1-.35.18.34.34,0,0,1-.2,0,.51.51,0,0,1-.18-.09.37.37,0,0,1-.13-.15.33.33,0,0,1-.06-.19.53.53,0,0,1,.12-.38.52.52,0,0,1,.35-.18h.2a.31.31,0,0,1,.18.09.47.47,0,0,1,.13.15A.6.6,0,0,1,24.73,43.43Z" fill="#263238"/><path d="M25.43,42.72c-.06.07-.47-.19-1-.15a8.25,8.25,0,0,0-1,.28c0-.07,0-.16.19-.3a1.53,1.53,0,0,1,.82-.31,1.36,1.36,0,0,1,.83.21C25.39,42.57,25.46,42.7,25.43,42.72Z" fill="#263238"/><path d="M19.33,43.71a.53.53,0,0,1-.12.38.52.52,0,0,1-.35.18.34.34,0,0,1-.2,0,.31.31,0,0,1-.18-.09.37.37,0,0,1-.13-.15.33.33,0,0,1-.06-.19.53.53,0,0,1,.12-.38.48.48,0,0,1,.35-.18H19a.51.51,0,0,1,.18.09.47.47,0,0,1,.13.15A.6.6,0,0,1,19.33,43.71Z" fill="#263238"/><path d="M19.84,43c-.06.08-.48-.19-1-.15s-1,.35-1,.28,0-.15.19-.3a1.53,1.53,0,0,1,.82-.31,1.36,1.36,0,0,1,.83.21C19.8,42.87,19.87,43,19.84,43Z" fill="#263238"/><path d="M22.13,46.93a3.14,3.14,0,0,1,.9-.23c.15,0,.28-.06.3-.16a.7.7,0,0,0-.13-.42l-.49-1.07a17.91,17.91,0,0,1-1.15-2.8A21.35,21.35,0,0,1,22.93,45c.16.38.33.74.48,1.08a.85.85,0,0,1,.11.56.31.31,0,0,1-.22.22h-.24A4.86,4.86,0,0,1,22.13,46.93Z" fill="#263238"/><path d="M23,53.57a10.49,10.49,0,0,1-5.56-1.09S19,55.27,23,54.61Z" fill="#eb996e"/><path d="M20.49,47.42c.09,0,.14.6.69,1s1.2.29,1.21.38-.14.12-.41.15a1.48,1.48,0,0,1-1-.28,1.36,1.36,0,0,1-.54-.84C20.39,47.58,20.45,47.42,20.49,47.42Z" fill="#263238"/><path d="M19.85,41.46c-.05.15-.61.12-1.27.24s-1.18.34-1.28.21,0-.22.25-.38a2.25,2.25,0,0,1,.93-.39,2.11,2.11,0,0,1,1,0C19.74,41.27,19.87,41.38,19.85,41.46Z" fill="#263238"/><path d="M25.17,41.4c-.1.14-.49,0-1,.05s-.86.15-1,0,0-.19.18-.33a1.39,1.39,0,0,1,1.54,0C25.14,41.21,25.21,41.34,25.17,41.4Z" fill="#263238"/><path d="M17.49,36.92c.77,1.23,2.88,1,4.33,1.15a4.58,4.58,0,0,1,1,.07,1.53,1.53,0,0,1,.92.44,3.88,3.88,0,0,1,.54,1.23,2.3,2.3,0,0,0,.8,1,2.21,2.21,0,0,0,1.18.41.7.7,0,0,0,.63-.26.79.79,0,0,0,0-.48,10,10,0,0,0-1-3.1A4.91,4.91,0,0,0,23,35.18a9.79,9.79,0,0,0-5.17.44" fill="#263238"/><path d="M17.33,35.34a5,5,0,0,1-.14,6.35c-.87,1-2.22,1.81-2.2,3.11,0,1.46,1.8,2.38,1.94,3.83s-1.48,2.59-1.68,4.08a3.84,3.84,0,0,0,1.54,3.11,11.55,11.55,0,0,1,2.53,2.55,4.89,4.89,0,0,1,.22,3.86,12.38,12.38,0,0,1-1.95,3.45,15.59,15.59,0,0,0-3.78-.47l.1-1.46a1.33,1.33,0,0,1-.85,1.31,3.69,3.69,0,0,1-1.65.18,27.19,27.19,0,0,1-5.07-.81A9.14,9.14,0,0,0,7.94,62a3,3,0,0,0-.23-2.79c-.46-.63-1.22-1-1.65-1.65a3,3,0,0,1,.37-3.29A19.63,19.63,0,0,1,9,51.85a4.23,4.23,0,0,0,1.57-3c0-1.53-1.4-2.79-1.39-4.31,0-1.73,1.73-3,2.29-4.59.41-1.19.22-2.42.93-3.46a3.18,3.18,0,0,1,1-1,3.13,3.13,0,0,1,1.36-.42,5,5,0,0,1,2.57.27" fill="#263238"/><path d="M15.26,79l3.82-9.18,12.79,5.85L24.73,92.24l-13-4.73Z" fill="#c48933"/><path d="M31.87,75.67,24.73,92.24l2.56.91,7-16.29Z" fill="#c48933"/><path d="M20.92,70.5l.88-1.75,11.94,5.79-.61,1.56Z" fill="#e0e0e0"/><path d="M19.58,70.05l.35-.79,13.63,6.41-.25.7Z" fill="#fafafa"/><path d="M30.8,75.21s-.87-1.7-2.44-1.13c-.62.22-2,4.4-2,4.4l.89-.28.55.93s1.78-4.38,2.05-4.35Z" fill="#fdb844"/><path d="M25.67,86.08a2.4,2.4,0,0,1-.38-.12l-1-.38c-.85-.32-2-.78-3.31-1.29s-2.46-1-3.3-1.31l-1-.42a2.21,2.21,0,0,1-.35-.16,2.29,2.29,0,0,1,.37.12l1,.38c.85.32,2,.78,3.32,1.29l3.29,1.32,1,.41Z" fill="#fff"/><path d="M19.71,83.47l1.92,1a11,11,0,0,1,2.3-.86,31.54,31.54,0,0,1,4,.31.82.82,0,0,1-.12.55.89.89,0,0,1-.45.34,12.18,12.18,0,0,1-1.91,0,.69.69,0,0,0-.23.74.77.77,0,0,0,.17.38,1,1,0,0,0,.32.25c.83.34,1.78.74,1.89.81a10.8,10.8,0,0,0,2.19-.31.54.54,0,0,1,.5.91.21.21,0,0,1-.13.07s.78.48-.58,1.07c0,0-.46,1.06-1.31,1.14A5.69,5.69,0,0,1,26.65,91C26,91.16,22,89.61,22,89.61l-3.94-2Z" fill="#ffbe9d"/><path d="M26.53,91A28.56,28.56,0,0,1,22,89.61l-3.94-2,1.67-4.09,1.92,1a12.75,12.75,0,0,1,2.3-.86h.36c1.11,0,3.66.32,3.69.33a.85.85,0,0,1-.13.54.82.82,0,0,1-.45.34,12.18,12.18,0,0,1-1.91,0,.69.69,0,0,0-.23.74.76.76,0,0,0,.16.38.7.7,0,0,0,.32.24c.8.33,1.78.75,1.89.82a8.53,8.53,0,0,0,2.19-.32H30a.53.53,0,0,1,.3.09.61.61,0,0,1,.21.24.54.54,0,0,1,.05.33.46.46,0,0,1-.17.28.33.33,0,0,1-.13.07.41.41,0,0,1,.16.16.52.52,0,0,1,.07.21q0,.36-.81.69a2.69,2.69,0,0,1-.33.54,1.64,1.64,0,0,1-.43.4,1.59,1.59,0,0,1-.55.2A5.56,5.56,0,0,1,26.64,91ZM18,87.56l3.94,2A28.41,28.41,0,0,0,26.53,91h.12a5.64,5.64,0,0,0,1.61-1.17,1.35,1.35,0,0,0,.55-.2,1.31,1.31,0,0,0,.42-.39,2.57,2.57,0,0,0,.34-.54c.52-.22.78-.46.8-.69a.38.38,0,0,0-.07-.21.57.57,0,0,0-.15-.16h0a.21.21,0,0,0,.13-.07.44.44,0,0,0,.17-.27.52.52,0,0,0-.05-.3.57.57,0,0,0-.25-.26.56.56,0,0,0-.36,0,17.84,17.84,0,0,1-2.07.33.24.24,0,0,1-.12,0c-.09-.06-.75-.34-1.89-.82a.78.78,0,0,1-.33-.24.87.87,0,0,1-.17-.38.94.94,0,0,1,0-.41.81.81,0,0,1,.24-.34,12.05,12.05,0,0,0,1.9,0,.69.69,0,0,0,.33-.19.83.83,0,0,0,.2-.32,1.09,1.09,0,0,0,0-.36c-.12,0-2.59-.33-3.68-.33a2.16,2.16,0,0,0-.36,0,11.1,11.1,0,0,0-2.29.86l-1.92-1Z" fill="#eb996e"/><path d="M25.32,87.43a2.22,2.22,0,0,0,.62.43,3.91,3.91,0,0,0,1.75.58A3.81,3.81,0,0,0,29.47,88a2.28,2.28,0,0,0,.65-.4,4.71,4.71,0,0,0-.71.27,3.9,3.9,0,0,1-1.71.4,4.35,4.35,0,0,1-1.69-.5A3.68,3.68,0,0,0,25.32,87.43Z" fill="#eb996e"/><path d="M25.15,88.5a1.78,1.78,0,0,0,.55.42,4.28,4.28,0,0,0,.69.31,2.39,2.39,0,0,0,.92.18,3.54,3.54,0,0,0,.91-.21l.71-.23a2.47,2.47,0,0,0,.63-.26,2.09,2.09,0,0,0-.66.13l-.72.19a4.2,4.2,0,0,1-.87.18,2.51,2.51,0,0,1-.86-.15c-.23-.08-.46-.17-.68-.27A5,5,0,0,0,25.15,88.5Z" fill="#eb996e"/><path d="M25.06,89.74a5.31,5.31,0,0,0,1.57.62.86.86,0,0,0,.39,0,1.65,1.65,0,0,0,.32-.07,2.82,2.82,0,0,0,.51-.19c.29-.14.43-.27.41-.29a2.51,2.51,0,0,0-.46.16,4.91,4.91,0,0,1-.51.15l-.3.06a.71.71,0,0,1-.29,0c-.45-.15-.86-.26-1.16-.34A1.58,1.58,0,0,0,25.06,89.74Z" fill="#eb996e"/><path d="M8.14,58.6s-2.26,1.45-3.61,5.47C3.38,67.48,1,73,.2,76.91a6,6,0,0,0,4.33,7.2L18,88.17l2.06-5.07L8,77l3.32-7.56Z" fill="#fdb844"/><path d="M3.34,83.66h.07l.22.06.84.25,3.1.93,10.49,3.21H18l1.31-3.23L20.06,83v.07c-2.54-1.25-4.88-2.47-6.93-3.53S9.33,77.65,8,77a2.58,2.58,0,0,0-1.35.09,3.39,3.39,0,0,0-.89.5l-.28.24a1.12,1.12,0,0,0-.18.2l-.11.12h0l.1-.13a1.8,1.8,0,0,1,.19-.2,2.23,2.23,0,0,1,.27-.26A2.67,2.67,0,0,1,6.6,77,2.56,2.56,0,0,1,8,76.91c1.37.67,3.14,1.56,5.2,2.62s4.4,2.26,6.93,3.51h.05v0L19.39,85l-1.3,3.23H18L7.54,85,4.45,84l-.83-.27-.22-.07Z" fill="#263238"/><path d="M11.88,65.36v.12a2,2,0,0,1,.07.35,4.3,4.3,0,0,1,0,1.34,8.91,8.91,0,0,1-.52,1.9c-.27.7-.61,1.44-1,2.23-.7,1.55-1.34,3-1.8,4l-.55,1.2c-.05.11-.1.22-.16.33a.24.24,0,0,1-.06.11v-.12L8,76.49l.52-1.22c.45-1,1.08-2.45,1.76-4l1-2.21a8.87,8.87,0,0,0,.54-1.89,4.79,4.79,0,0,0,0-1.31,2.14,2.14,0,0,0-.06-.35A.44.44,0,0,1,11.88,65.36Z" fill="#263238"/></svg>