<svg id="Layer_1" data-name="Layer 1" xmlns="http://www.w3.org/2000/svg" viewBox="0 0 171 126"><title>pos</title><path d="M135.73,7.58H18.23V43.74h117.5Z" fill="gray" stroke="#263238" stroke-linecap="round" stroke-linejoin="round"/><path d="M137.16,4.64H16.79V8.41H137.16Z" fill="#fff" stroke="#263238" stroke-linecap="round" stroke-linejoin="round"/><path d="M41.22,16.11H25.42V37.4h15.8Z" fill="#263238" stroke="#263238" stroke-linecap="round" stroke-linejoin="round"/><path d="M35.4,17.26H33.6V22.2h1.8Z" fill="#fff" stroke="#263238" stroke-linecap="round" stroke-linejoin="round"/><path d="M33,17.26H31.2V22.2H33Z" fill="#fff" stroke="#263238" stroke-linecap="round" stroke-linejoin="round"/><path d="M40.22,17.26H38.35V22.2h1.87Z" fill="#fff" stroke="#263238" stroke-linecap="round" stroke-linejoin="round"/><path d="M30.66,17.26h-1.8V22.2h1.8Z" fill="#fff" stroke="#263238" stroke-linecap="round" stroke-linejoin="round"/><path d="M37.78,17.26H36V22.2h1.8Z" fill="#fff" stroke="#263238" stroke-linecap="round" stroke-linejoin="round"/><path d="M40.22,23.53h-6V36.26h6Z" fill="#fff" stroke="#263238" stroke-linecap="round" stroke-linejoin="round"/><path d="M28.29,17.26H26.42V22.2h1.87Z" fill="#fff" stroke="#263238" stroke-linecap="round" stroke-linejoin="round"/><path d="M32.42,23.53h-6V36.26h6Z" fill="#fff" stroke="#263238" stroke-linecap="round" stroke-linejoin="round"/><path d="M83.82,16.11H68V37.4H83.82Z" fill="#263238" stroke="#263238" stroke-linecap="round" stroke-linejoin="round"/><path d="M78,17.26H76.2V22.2H78Z" fill="#fff" stroke="#263238" stroke-linecap="round" stroke-linejoin="round"/><path d="M75.64,17.26h-1.8V22.2h1.8Z" fill="#fff" stroke="#263238" stroke-linecap="round" stroke-linejoin="round"/><path d="M82.82,17.26H81V22.2h1.87Z" fill="#fff" stroke="#263238" stroke-linecap="round" stroke-linejoin="round"/><path d="M73.27,17.26H71.46V22.2h1.81Z" fill="#fff" stroke="#263238" stroke-linecap="round" stroke-linejoin="round"/><path d="M80.38,17.26h-1.8V22.2h1.8Z" fill="#fff" stroke="#263238" stroke-linecap="round" stroke-linejoin="round"/><path d="M82.82,23.53h-6V36.26h6Z" fill="#fff" stroke="#263238" stroke-linecap="round" stroke-linejoin="round"/><path d="M70.89,17.26H69V22.2h1.87Z" fill="#fff" stroke="#263238" stroke-linecap="round" stroke-linejoin="round"/><path d="M75,23.53H69V36.26h6Z" fill="#fff" stroke="#263238" stroke-linecap="round" stroke-linejoin="round"/><path d="M126.68,16.11h-15.8V37.4h15.8Z" fill="#263238" stroke="#263238" stroke-linecap="round" stroke-linejoin="round"/><path d="M120.87,17.26h-1.8V22.2h1.8Z" fill="#fff" stroke="#263238" stroke-linecap="round" stroke-linejoin="round"/><path d="M118.5,17.26h-1.8V22.2h1.8Z" fill="#fff" stroke="#263238" stroke-linecap="round" stroke-linejoin="round"/><path d="M125.68,17.26h-1.87V22.2h1.87Z" fill="#fff" stroke="#263238" stroke-linecap="round" stroke-linejoin="round"/><path d="M116.13,17.26h-1.8V22.2h1.8Z" fill="#fff" stroke="#263238" stroke-linecap="round" stroke-linejoin="round"/><path d="M123.24,17.26h-1.8V22.2h1.8Z" fill="#fff" stroke="#263238" stroke-linecap="round" stroke-linejoin="round"/><path d="M125.68,23.53h-6V36.26h6Z" fill="#fff" stroke="#263238" stroke-linecap="round" stroke-linejoin="round"/><path d="M113.76,17.26h-1.87V22.2h1.87Z" fill="#fff" stroke="#263238" stroke-linecap="round" stroke-linejoin="round"/><path d="M117.88,23.53h-6V36.26h6Z" fill="#fff" stroke="#263238" stroke-linecap="round" stroke-linejoin="round"/><path d="M135.76,41.9H18.26V123h117.5Z" fill="#263238" stroke="#263238" stroke-linecap="round" stroke-linejoin="round"/><path d="M88.5,77.24H63.4V123H88.5Z" fill="#ffac00" stroke="#263238" stroke-linecap="round" stroke-linejoin="round"/><path d="M65.11,118H86.47v-2.92h0v-2.93h0v-2.92h0v-2.92h0v-.49H65.05v14.62H86.47V118Z" fill="#d6d6d6" stroke="#263238" stroke-linecap="round" stroke-linejoin="round" stroke-width="0.77"/><path d="M65.11,100.46H86.47V97.53h0V94.61h0V91.69h0V88.76h0V85.84h0V82.91h0V80h0v-.53H65.05v23.82H86.47v-2.82Z" fill="#d6d6d6" stroke="#263238" stroke-linecap="round" stroke-linejoin="round" stroke-width="0.77"/><path d="M72.63,93.94l3-3.83,3.25,3.94" fill="none" stroke="#263238" stroke-linecap="round" stroke-linejoin="round"/><path d="M80.4,93.36H70.66v5.1H80.4Z" fill="#fff" stroke="#263238" stroke-linecap="round" stroke-linejoin="round"/><path d="M133.42,77.28h-38V123h38Z" fill="#d6d6d6" stroke="#263238" stroke-linecap="round" stroke-linejoin="round"/><path d="M95.57,121h37.86" fill="none" stroke="#263238" stroke-linecap="round" stroke-linejoin="round"/><path d="M95.57,118.05h37.86" fill="none" stroke="#263238" stroke-linecap="round" stroke-linejoin="round"/><path d="M95.57,115.13h37.86" fill="none" stroke="#263238" stroke-linecap="round" stroke-linejoin="round"/><path d="M95.57,112.21h37.86" fill="none" stroke="#263238" stroke-linecap="round" stroke-linejoin="round"/><path d="M95.57,109.28h37.86" fill="none" stroke="#263238" stroke-linecap="round" stroke-linejoin="round"/><path d="M95.57,106.36h37.86" fill="none" stroke="#263238" stroke-linecap="round" stroke-linejoin="round"/><path d="M95.57,100.51h37.86" fill="none" stroke="#263238" stroke-linecap="round" stroke-linejoin="round"/><path d="M95.57,94.66h37.86" fill="none" stroke="#263238" stroke-linecap="round" stroke-linejoin="round"/><path d="M95.57,91.74h37.86" fill="none" stroke="#263238" stroke-linecap="round" stroke-linejoin="round"/><path d="M95.57,88.81h37.86" fill="none" stroke="#263238" stroke-linecap="round" stroke-linejoin="round"/><path d="M95.57,85.89h37.86" fill="none" stroke="#263238" stroke-linecap="round" stroke-linejoin="round"/><path d="M95.57,83h37.86" fill="none" stroke="#263238" stroke-linecap="round" stroke-linejoin="round"/><path d="M57,77.28H21.07V123H57Z" fill="#d6d6d6" stroke="#263238" stroke-linecap="round" stroke-linejoin="round"/><path d="M21.17,121H57" fill="none" stroke="#263238" stroke-linecap="round" stroke-linejoin="round"/><path d="M21.17,118.05H57" fill="none" stroke="#263238" stroke-linecap="round" stroke-linejoin="round"/><path d="M21.17,115.13H57" fill="none" stroke="#263238" stroke-linecap="round" stroke-linejoin="round"/><path d="M21.17,112.21H57" fill="none" stroke="#263238" stroke-linecap="round" stroke-linejoin="round"/><path d="M21.17,109.28H57" fill="none" stroke="#263238" stroke-linecap="round" stroke-linejoin="round"/><path d="M21.17,106.36H57" fill="none" stroke="#263238" stroke-linecap="round" stroke-linejoin="round"/><path d="M21.17,103.43H57" fill="none" stroke="#263238" stroke-linecap="round" stroke-linejoin="round"/><path d="M21.17,100.51H57" fill="none" stroke="#263238" stroke-linecap="round" stroke-linejoin="round"/><path d="M21.17,97.59H57" fill="none" stroke="#263238" stroke-linecap="round" stroke-linejoin="round"/><path d="M21.17,94.66H57" fill="none" stroke="#263238" stroke-linecap="round" stroke-linejoin="round"/><path d="M21.17,91.74H57" fill="none" stroke="#263238" stroke-linecap="round" stroke-linejoin="round"/><path d="M21.17,88.81H57" fill="none" stroke="#263238" stroke-linecap="round" stroke-linejoin="round"/><path d="M21.17,85.89H57" fill="none" stroke="#263238" stroke-linecap="round" stroke-linejoin="round"/><path d="M21.17,83H57" fill="none" stroke="#263238" stroke-linecap="round" stroke-linejoin="round"/><path d="M134.85,63.38H19.26V78.92H134.85Z" fill="#fff" stroke="#263238" stroke-linecap="round" stroke-linejoin="round"/><path d="M30.76,63.38H25.44V78.92h5.32Z" fill="#ffac00" stroke="#263238" stroke-linecap="round" stroke-linejoin="round"/><path d="M42,63.38H36.71V78.92H42Z" fill="#ffac00" stroke="#263238" stroke-linecap="round" stroke-linejoin="round"/><path d="M53.32,63.38H48V78.92h5.32Z" fill="#ffac00" stroke="#263238" stroke-linecap="round" stroke-linejoin="round"/><path d="M64.05,63.38H58.73V78.92h5.32Z" fill="#ffac00" stroke="#263238" stroke-linecap="round" stroke-linejoin="round"/><path d="M74.78,63.38H69.46V78.92h5.32Z" fill="#ffac00" stroke="#263238" stroke-linecap="round" stroke-linejoin="round"/><path d="M85.51,63.38H80.19V78.92h5.32Z" fill="#ffac00" stroke="#263238" stroke-linecap="round" stroke-linejoin="round"/><path d="M96.24,63.38H90.92V78.92h5.32Z" fill="#ffac00" stroke="#263238" stroke-linecap="round" stroke-linejoin="round"/><path d="M107,63.38h-5.32V78.92H107Z" fill="#ffac00" stroke="#263238" stroke-linecap="round" stroke-linejoin="round"/><path d="M117.7,63.38h-5.32V78.92h5.32Z" fill="#ffac00" stroke="#263238" stroke-linecap="round" stroke-linejoin="round"/><path d="M128.43,63.38h-5.32V78.92h5.32Z" fill="#ffac00" stroke="#263238" stroke-linecap="round" stroke-linejoin="round"/><path d="M51.79,88.86h-25v17.71h25Z" fill="#ffac00" stroke="#263238" stroke-linecap="round" stroke-linejoin="round" stroke-width="0.9"/><path d="M72.21,95.46a.7.7,0,1,1,1.4,0V97a.7.7,0,0,1-1.4,0h0ZM72.68,97c0,.21.09.28.24.28s.25-.07.25-.28V95.44c0-.21-.09-.29-.25-.29s-.24.08-.24.29Z" fill="#263238"/><path d="M75.4,95.47v.38a.63.63,0,0,1-.53.72h0a.54.54,0,0,1-.18,0h-.22v1.1H74V94.74h.69a.64.64,0,0,1,.71.56A.49.49,0,0,1,75.4,95.47Zm-.93-.31v1h.22c.15,0,.23-.07.23-.28v-.44c0-.21-.08-.28-.23-.28Z" fill="#263238"/><path d="M76.24,96h.64v.42h-.64v.86h.81v.41H75.78v-3h1.27v.42h-.8Z" fill="#263238"/><path d="M77.74,95.55v2.12h-.43V94.74h.6l.5,1.76V94.74h.42v2.93h-.49Z" fill="#263238"/><path d="M127,88.86H102v17.71h25Z" fill="#ffac00" stroke="#263238" stroke-linecap="round" stroke-linejoin="round" stroke-width="0.9"/><path d="M147.52,122.92H7.24v2.57H147.52Z" fill="#fff" stroke="#263238" stroke-linecap="round" stroke-linejoin="round"/><path d="M0,125.49H155.83" fill="none" stroke="#263238" stroke-miterlimit="10"/></svg>