<svg id="Layer_1" data-name="Layer 1" xmlns="http://www.w3.org/2000/svg" viewBox="0 0 152 114"><title>profileit</title><path d="M62.67,32.09a2.18,2.18,0,0,0,.17.51l.19.54c.14.36.28.72.44,1.08a19.41,19.41,0,0,0,1,2.05,10.18,10.18,0,0,0,2.73,3.25l.19.13h0a1.34,1.34,0,0,0,.58-.17,7.09,7.09,0,0,0,1.7-1.23c.59-.54,1.14-1.1,1.67-1.69s1.07-1.24,1.57-1.86l1.45.88A21.49,21.49,0,0,1,71.55,40a9.33,9.33,0,0,1-2.16,2,4.17,4.17,0,0,1-1.77.65,3,3,0,0,1-1.78-.35l-.35-.19a10.29,10.29,0,0,1-2.28-1.88A15.48,15.48,0,0,1,61.59,38a18.64,18.64,0,0,1-1.26-2.43q-.27-.62-.51-1.26c-.08-.21-.15-.42-.22-.64s-.14-.42-.21-.69Z" fill="#b97964"/><path d="M65.81,37.46l-3.89,2.15-.3-.46c-.14-.21-.31-.49-.52-.82-1.14-1.85-3-5.24-2.54-6.68.75-2.21,3.54-2.17,4.91.39a38.64,38.64,0,0,1,1.78,4l.35.91Z" fill="#92e3a9"/><path d="M65.81,37.46l-3.89,2.15-.3-.46c-.14-.21-.31-.49-.52-.82-1.14-1.85-3-5.24-2.54-6.68.75-2.21,3.54-2.17,4.91.39a38.64,38.64,0,0,1,1.78,4l.35.91Z" opacity="0.2" style="isolation:isolate"/><path d="M62.1,49.7h-12c-.09-1.07.16-4.57,0-9a57.91,57.91,0,0,0-1.2-9.82,3.1,3.1,0,0,0-.17-.73s.61-.13,1.49-.25a23.83,23.83,0,0,1,2.53-.26,43.73,43.73,0,0,1,5.12,0c.73.07,1.45.18,2.17.32s1.32.3,1.32.3S64.19,37,62.1,49.7Z" fill="#92e3a9"/><path d="M62.1,49.7h-12c-.09-1.07.16-4.57,0-9a57.91,57.91,0,0,0-1.2-9.82,3.1,3.1,0,0,0-.17-.73s.61-.13,1.49-.25a23.83,23.83,0,0,1,2.53-.26,43.73,43.73,0,0,1,5.12,0c.73.07,1.45.18,2.17.32s1.32.3,1.32.3S64.19,37,62.1,49.7Z" opacity="0.2" style="isolation:isolate"/><path d="M45.68,103.54l1.78,1.6,3.4-3.54L49.08,100Z" fill="#b97964"/><path d="M51.79,106.87H54l.3-5.22H52.08Z" fill="#b97964"/><path d="M50.86,101.61l-1.75,1.82-1.79-1.6L49.07,100Z" fill="#a76755"/><path d="M52.08,101.66h2.26l-.15,2.69H51.93Z" fill="#a76755"/><path d="M62,49.58S64.36,66,65.17,75c.65,7.17-14.86,28.55-14.86,28.55l-3-2.82s11.33-19.22,10.46-27.2c-.85-7.74-3.71-24-3.71-24Z" fill="#92e3a9"/><path d="M62,49.58S64.36,66,65.17,75c.65,7.17-14.86,28.55-14.86,28.55l-3-2.82s11.33-19.22,10.46-27.2c-.85-7.74-3.71-24-3.71-24Z" opacity="0.7" style="isolation:isolate"/><path d="M54.16,106.63H51.58v.06l-.12,2a.41.41,0,0,0,.4.4c.88,0,1.3-.07,2.43-.07.68,0,3.59.07,4.54.07s.91-.93.52-1a17.31,17.31,0,0,1-4.66-1.41A.65.65,0,0,0,54.16,106.63Z" fill="#263238"/><path d="M48,104.5,45.78,103a.13.13,0,0,0-.12,0,.24.24,0,0,0-.12,0l-1.66,1.67a.33.33,0,0,0-.07.13.38.38,0,0,0,0,.15.3.3,0,0,0,.16.23A23.5,23.5,0,0,1,47.13,108c.91,1,1.41,1.18,3.53,1.18,1,0,1.54-.83,1.14-1-3.54-1.12-2.59-1.61-3.45-3.25A1.61,1.61,0,0,0,48,104.5Z" fill="#263238"/><path d="M50.86,33.39l-.53.91c-.19.32-.36.64-.53,1-.35.64-.68,1.29-1,1.94s-.61,1.31-.88,2a19.6,19.6,0,0,0-.68,2v.18h0v.06a1.31,1.31,0,0,0,0,.28,3.93,3.93,0,0,0,.18.84,14.64,14.64,0,0,0,.77,1.93c.61,1.31,1.35,2.63,2.08,3.91l-1.33,1a25.7,25.7,0,0,1-3-3.67,13.77,13.77,0,0,1-1.22-2.19,7.1,7.1,0,0,1-.44-1.35,4.12,4.12,0,0,1-.09-.86,4.34,4.34,0,0,1,0-.51V40.5a22.42,22.42,0,0,1,1.5-4.66c.32-.74.67-1.45,1-2.15a10,10,0,0,1,.58-1c.2-.3.39-.67.63-1Z" fill="#b97964"/><path d="M51.66,34.22a41.66,41.66,0,0,1-1.95,4.56c-.16.33-.3.63-.43.87-.21.42-.35.68-.35.68L44.38,37.8a1.32,1.32,0,0,1,.16-.51,7.21,7.21,0,0,0,.3-.93c.76-2.17,2.31-6,3.83-6.26C51,29.79,52.59,31.49,51.66,34.22Z" fill="#92e3a9"/><path d="M55,107a2.49,2.49,0,0,1-.61-.08h0c.07,0,.71-.49,1-.38a.16.16,0,0,1,.08.06.14.14,0,0,1,0,.09.38.38,0,0,1,0,.15.54.54,0,0,1-.07.13A.69.69,0,0,1,55,107Zm-.45-.15a1.1,1.1,0,0,0,.8,0,.14.14,0,0,0,0-.09.17.17,0,0,0,0-.1h0a2.19,2.19,0,0,0-.84.19Z" fill="#92e3a9"/><path d="M54.38,106.93h0a2,2,0,0,1,.18-.9.21.21,0,0,1,.1-.06.24.24,0,0,1,.12,0,.21.21,0,0,1,.19.16c.06.24-.28.71-.51.85Zm.3-.91h-.06a1.14,1.14,0,0,0-.15.72c.19-.17.42-.53.38-.69s0-.06-.1-.07Z" fill="#92e3a9"/><path d="M48.32,105.3h0s.43-.86,1-.61c.14.07.16.16.14.22,0,.24-.73.46-1,.47Zm.7-.63c-.28,0-.51.35-.61.51.33,0,.82-.24.85-.38s0-.06-.09-.1a.49.49,0,0,0-.17,0Z" fill="#92e3a9"/><path d="M49.59,47.88l2.24-.39-1.15,2.59s-2,0-2-1.06Z" fill="#b97964"/><path d="M53.5,48.79l-1,2.1-1.77-.81,1.15-2.59Z" fill="#b97964"/><path d="M47.13,100.52l3.37,3.16,1.08-1.16L47.73,99Z" fill="#92e3a9"/><path d="M57.72,49.59s.21,17.21-.15,23.65c-.4,7.07-2.4,30.46-2.4,30.46H51s.13-22.83-.12-29.82c-.27-7.59-1-24.3-1-24.3Z" fill="#92e3a9"/><path d="M57.72,49.59s.21,17.21-.15,23.65c-.4,7.07-2.4,30.46-2.4,30.46H51s.13-22.83-.12-29.82c-.27-7.59-1-24.3-1-24.3Z" opacity="0.7" style="isolation:isolate"/><path d="M50.86,103.7h4.46l.25-1.57-4.93.25Z" fill="#92e3a9"/><path d="M50.86,103.7h4.46l.25-1.57-4.93.25Z" fill="#fff" opacity="0.7" style="isolation:isolate"/><path d="M51.66,34.22a41.66,41.66,0,0,1-1.95,4.56c-.16.33-.3.63-.43.87-.21.42-.35.68-.35.68L44.38,37.8a1.32,1.32,0,0,1,.16-.51,7.21,7.21,0,0,0,.3-.93c.76-2.17,2.31-6,3.83-6.26C51,29.79,52.59,31.49,51.66,34.22Z" opacity="0.2" style="isolation:isolate"/><path d="M56.5,31.76c-3-.55-4-2.13-4-2.13,1.11-1.1.69-4.1.3-5.75L54.16,25,56,26.56a4.81,4.81,0,0,0-.12.76,1.87,1.87,0,0,0,1.41,2.24h.24S58.8,31.07,56.5,31.76Z" fill="#b97964"/><path d="M57.3,18.11c1.11.51,1.73,3.63.3,4.31S55.2,17.16,57.3,18.11Z" fill="#263238"/><path d="M52.25,21.5c.48,2.19.64,3.49,1.94,4.49a2.8,2.8,0,0,0,1.44.6,2.89,2.89,0,0,0,2.75-1.23,2.78,2.78,0,0,0,.52-1.47c.17-2-.64-5.28-2.94-5.9a2.84,2.84,0,0,0-1.53,0,3,3,0,0,0-1.34.72,3.09,3.09,0,0,0-.8,1.3A3,3,0,0,0,52.25,21.5Z" fill="#b97964"/><path d="M49.69,19.32c-1.06.47-.46,1.93.27,2.86,1,1.29,2.07,1.89,2.79,1.3.65-.33,1.08-2.25.51-3.43,1-.66,3.08.16,3.72-.91s1.11-1,2.25-.27,2.05-2.08-.91-2.6c1.64.74,1.27,2.17.07.7-.85-1-2.88-2.19-4.3-.64C53.05,17.46,49.39,15.71,49.69,19.32Z" fill="#263238"/><path d="M51.73,23.78a2.45,2.45,0,0,0,1.39.83c.69.11.85-.52.5-1.14s-1.06-1.29-1.68-1.13S51.28,23.24,51.73,23.78Z" fill="#b97964"/><path d="M55.69,21.71A.32.32,0,0,0,56,22c.11,0,.2-.17.17-.35s-.15-.31-.27-.31S55.66,21.53,55.69,21.71Z" fill="#263238"/><path d="M57.72,21.47a.3.3,0,0,0,.26.3c.12,0,.19-.17.17-.35a.32.32,0,0,0-.27-.3C57.76,21.12,57.72,21.29,57.72,21.47Z" fill="#263238"/><path d="M56.69,23.9a1.41,1.41,0,0,1-.61-.11,1.54,1.54,0,0,1-.52-.35h.08a1.47,1.47,0,0,0,.57.35,1.43,1.43,0,0,0,.68.07h-.25Z" fill="#263238"/><path d="M55,21.13a.06.06,0,0,1,0-.06A.09.09,0,0,1,55,21a1,1,0,0,1,.34-.36,1,1,0,0,1,.46-.18h.07a.09.09,0,0,1,0,.07m-.07.07a.67.67,0,0,0-.36.14.73.73,0,0,0-.26.29h0Z" fill="#263238"/><path d="M58.5,20.66h0a.78.78,0,0,0-.29-.28.91.91,0,0,0-.38-.13.1.1,0,0,1-.11-.09h0a.09.09,0,0,1,0-.07.11.11,0,0,1,.08,0,1.12,1.12,0,0,1,.85.5h0Z" fill="#263238"/><g opacity="0.9"><path d="M90.2,55.81a3.62,3.62,0,0,1,1.27-1.6,3.55,3.55,0,0,1,1.94-.65h26.78a2.42,2.42,0,0,1,2.49,2.35h0a2.59,2.59,0,0,1-.05.56l-8.48,50.58a3.56,3.56,0,0,1-1.18,2,3.62,3.62,0,0,1-2.21.87H43.61a2.47,2.47,0,0,1-1.07-.21,2.39,2.39,0,0,1-.86-.65,2.34,2.34,0,0,1-.49-1,2.46,2.46,0,0,1,0-1.08l7.19-43a3.59,3.59,0,0,1,3.39-2.91H82.7A8.38,8.38,0,0,0,90.2,55.81Z" fill="#92e3a9" opacity="0.9" style="isolation:isolate"/></g><path d="M90.2,55.81a3.62,3.62,0,0,1,1.27-1.6,3.55,3.55,0,0,1,1.94-.65h26.78a2.42,2.42,0,0,1,2.49,2.35h0a2.59,2.59,0,0,1-.05.56l-8.48,50.58a3.56,3.56,0,0,1-1.18,2,3.62,3.62,0,0,1-2.21.87H43.61a2.47,2.47,0,0,1-1.07-.21,2.39,2.39,0,0,1-.86-.65,2.34,2.34,0,0,1-.49-1,2.46,2.46,0,0,1,0-1.08l7.19-43a3.59,3.59,0,0,1,3.39-2.91H82.7A8.38,8.38,0,0,0,90.2,55.81Z" fill="#fff" opacity="0.5" style="isolation:isolate"/><path d="M79.54,10.9,59.28,81.32l46.36,13.34L125.9,24.24Z" fill="#92e3a9" opacity="0.9" style="isolation:isolate"/><path d="M79.54,10.9,59.28,81.32l46.36,13.34L125.9,24.24Z" fill="#fff" opacity="0.7" style="isolation:isolate"/><path d="M95.06,33.09a8.36,8.36,0,1,0-11.8.78h0A8.37,8.37,0,0,0,95.06,33.09Z" fill="#92e3a9"/><path d="M92,40.91,77.24,36.67l-1,3.32L91,44.23Z" fill="#92e3a9"/><path d="M77.34,66.92l-8.13-2.34L65.5,77.47l8.13,2.34Z" fill="#92e3a9"/><path d="M106.12,75.2,98,72.86,94.28,85.75l8.13,2.34Z" fill="#92e3a9"/><path d="M91.73,71.06,83.6,68.72,79.89,81.61,88,84Z" fill="#92e3a9"/><path d="M103.91,44.34l-10-2.87-1,3.32,10,2.87Z" fill="#92e3a9"/><path d="M107.51,68.9,71,58.39l-.39,1.37,36.52,10.5Z" fill="#fff"/><path d="M74.15,13.37,56.33,84.45l46.78,11.73,17.82-71.09Z" fill="#92e3a9"/><path d="M74.15,13.37,56.33,84.45l46.78,11.73,17.82-71.09Z" fill="#fff" opacity="0.8" style="isolation:isolate"/><path d="M87.58,37.22a8.36,8.36,0,1,0-11.16-3.9h0A8.36,8.36,0,0,0,87.58,37.22Z" fill="#92e3a9"/><path d="M90.45,30.89a6.62,6.62,0,1,0-7.7,5.33A6.63,6.63,0,0,0,90.45,30.89Z" fill="#fff"/><path d="M87.63,42.92,72.74,39.19l-.84,3.35,14.89,3.73Z" fill="#92e3a9"/><path d="M102.93,76.7l-8.21-2.06-3.26,13,8.21,2.06Z" fill="#92e3a9"/><path d="M88.41,73.06,80.2,71,76.94,84l8.21,2.06Z" fill="#92e3a9"/><path d="M99.66,45.94,89.58,43.41l-.84,3.35,10.08,2.52Z" fill="#92e3a9"/><path d="M72.32,66.37a2.19,2.19,0,0,1,2.41-1.94h26.78a3.57,3.57,0,0,1,3.45,2.5l8,40.51c.31,1.39-.75,2.51-2.35,2.51H43.49A3.57,3.57,0,0,1,40,107.44l-6.61-34c-.31-1.39.75-2.51,2.36-2.51H66.69C69.87,70.92,72.19,69,72.32,66.37Z" fill="#92e3a9" opacity="0.5" style="isolation:isolate"/></svg>