<svg id="Layer_1" data-name="Layer 1" xmlns="http://www.w3.org/2000/svg" viewBox="0 0 123 124"><title>question</title><path d="M51,27.11H48.88v7H51Z" fill="#ebebeb"/><path d="M51,27.11H48.88v2.17H51Z" fill="#dbdbdb"/><path d="M61.49,123.79c28.95,0,52.42-2.29,52.42-5.1s-23.47-5.11-52.42-5.11-52.41,2.29-52.41,5.11S32.55,123.79,61.49,123.79Z" fill="#ebebeb"/><path d="M51.05,85.3a32.74,32.74,0,0,1,2.28-12.53q2.28-5.55,9.4-9.68Q64.86,61.8,68,60.18a43.49,43.49,0,0,0,6.12-3.91,22.33,22.33,0,0,0,5.06-5.34,12.26,12.26,0,0,0,2.06-7,11.51,11.51,0,0,0-1.13-5.29,12.08,12.08,0,0,0-3-3.84,12.31,12.31,0,0,0-4.36-2.35,16.63,16.63,0,0,0-5-.78,14.59,14.59,0,0,0-5.7,1,19.72,19.72,0,0,0-4.63,2.71,23.12,23.12,0,0,0-3.7,3.7A41.62,41.62,0,0,0,50.92,43H48.78L38.53,34.45a27.91,27.91,0,0,1,4.91-7.84,30.35,30.35,0,0,1,7-5.77A32.91,32.91,0,0,1,58.9,17.3a37.1,37.1,0,0,1,20.1.36,27.05,27.05,0,0,1,9.47,5,25.87,25.87,0,0,1,6.84,8.76,28.72,28.72,0,0,1,2.63,12.75,27.42,27.42,0,0,1-1.07,8,22.39,22.39,0,0,1-3.06,6.34,26.94,26.94,0,0,1-4.7,5.13A53.09,53.09,0,0,1,83,68.07c-1.9,1.15-3.79,2.24-5.69,3.28a33.74,33.74,0,0,0-5.2,3.49,17.09,17.09,0,0,0-3.85,4.41,11.67,11.67,0,0,0-1.49,6.06Zm.29,33.18V98.83H67.15v19.65Z" fill="#92e3a9"/><g opacity="0.2"><path d="M51.05,85.3a32.74,32.74,0,0,1,2.28-12.53q2.28-5.55,9.4-9.68Q64.86,61.8,68,60.18a43.49,43.49,0,0,0,6.12-3.91,22.33,22.33,0,0,0,5.06-5.34,12.26,12.26,0,0,0,2.06-7,11.51,11.51,0,0,0-1.13-5.29,12.08,12.08,0,0,0-3-3.84,12.31,12.31,0,0,0-4.36-2.35,16.63,16.63,0,0,0-5-.78,14.59,14.59,0,0,0-5.7,1,19.72,19.72,0,0,0-4.63,2.71,23.12,23.12,0,0,0-3.7,3.7A41.62,41.62,0,0,0,50.92,43H48.78L38.53,34.45a27.91,27.91,0,0,1,4.91-7.84,30.35,30.35,0,0,1,7-5.77A32.91,32.91,0,0,1,58.9,17.3a37.1,37.1,0,0,1,20.1.36,27.05,27.05,0,0,1,9.47,5,25.87,25.87,0,0,1,6.84,8.76,28.72,28.72,0,0,1,2.63,12.75,27.42,27.42,0,0,1-1.07,8,22.39,22.39,0,0,1-3.06,6.34,26.94,26.94,0,0,1-4.7,5.13A53.09,53.09,0,0,1,83,68.07c-1.9,1.15-3.79,2.24-5.69,3.28a33.74,33.74,0,0,0-5.2,3.49,17.09,17.09,0,0,0-3.85,4.41,11.67,11.67,0,0,0-1.49,6.06Zm.29,33.18V98.83H67.15v19.65Z" opacity="0.2" style="isolation:isolate"/></g><path d="M48.92,85.3A32.74,32.74,0,0,1,51.2,72.77q2.28-5.55,9.4-9.68,2.13-1.29,5.27-2.91A43.59,43.59,0,0,0,72,56.27a22.33,22.33,0,0,0,5.06-5.34,12.26,12.26,0,0,0,2.06-7A11.5,11.5,0,0,0,78,38.61a12.23,12.23,0,0,0-3-3.85,12.82,12.82,0,0,0-4.36-2.35,17,17,0,0,0-5-.78,14.52,14.52,0,0,0-5.68,1,19.72,19.72,0,0,0-4.63,2.71,23.12,23.12,0,0,0-3.7,3.7,42.77,42.77,0,0,0-2.8,4L36.39,34.45a27.91,27.91,0,0,1,4.91-7.84,30.09,30.09,0,0,1,7-5.77,33,33,0,0,1,8.48-3.54,36.4,36.4,0,0,1,9.4-1.21,37.23,37.23,0,0,1,10.69,1.57,27.05,27.05,0,0,1,9.47,5,25.84,25.84,0,0,1,6.83,8.76,28.46,28.46,0,0,1,2.64,12.75,27.42,27.42,0,0,1-1.07,8,22.18,22.18,0,0,1-3.08,6.34A26.82,26.82,0,0,1,87,63.66a55.31,55.31,0,0,1-6.13,4.41c-1.9,1.15-3.79,2.24-5.69,3.28A34,34,0,0,0,70,74.84a17.09,17.09,0,0,0-3.85,4.41,11.67,11.67,0,0,0-1.49,6.06Zm.29,33.18V98.83H65v19.65Z" fill="#92e3a9"/><path d="M42.39,118.71c-.62.2-18.27,0-18.93-.46-.26-.17-.38-2.74-.43-5.85V100.87l11.81.12-.36,9v.36l-.07,1.88v.19s6.7,3.12,7.39,3.68S43,118.51,42.39,118.71Z" fill="#ad6359"/><path d="M42.39,118.71c-.62.2-18.27,0-18.93-.46-.26-.17-.38-2.74-.43-5.85V110h11.5v.36l-.07,1.87v.19s6.7,3.11,7.39,3.67S43,118.51,42.39,118.71Z" fill="#ebebeb"/><path d="M42.39,118.71c-.39.12-7.22.08-12.57-.07a45.21,45.21,0,0,1-6.37-.39c-.25-.17-.36-2.66-.42-5.72v-.23H34.42v.19s6.72,3.11,7.4,3.67S43,118.51,42.39,118.71Z" fill="#92e3a9"/><path d="M42.2,118c-3-.11-15-.29-17.93-.16h0c2.95.17,15,.25,17.92.19C42.26,118.07,42.26,118,42.2,118Z" fill="#263238"/><path d="M30.62,112.19a10.56,10.56,0,0,0,3.1.53.15.15,0,0,0,.15-.15h0a6.34,6.34,0,0,0-2.4-2.17c-.58-.29-1.48-.35-1.77.38S30.06,111.94,30.62,112.19Zm-.51-.84c-.52-1.2,1-.88,1.4-.65a4.75,4.75,0,0,1,.76.5,15.2,15.2,0,0,1,1.43,1.23c-.5-.09-1-.13-1.5-.2S30.4,112,30.11,111.35Z" fill="#263238"/><path d="M29.82,118.64a45.07,45.07,0,0,1-6.36-.39c-.26-.17-.37-2.66-.42-5.72C24.4,113.75,27.81,116.79,29.82,118.64Z" fill="#263238"/><path d="M19.45,51.41S22.1,81.23,22.53,83.5c.1.52.16,3.34.21,7,.09,7.91,0,22.16,0,22.16H35.21S34.84,88,34.29,83.42s-4.07-32-4.07-32Z" fill="#37474f"/><path d="M16.83,51.41s5.27,29.82,5.7,32.09c.1.52.16,3.34.21,7l5.94-39Z" fill="#263238"/><path d="M27.94,119.76c-.63.16-18.22-1.32-18.85-1.8-.25-.18-.18-2.75,0-5.86V112c0-.64.07-1.3.12-2v-.29c.29-4.48.69-9.13.69-9.13l11.76,1-1,9v.36l-.2,1.86v.2s6.47,3.57,7.12,4.17S28.57,119.61,27.94,119.76Z" fill="#ad6359"/><path d="M27.94,119.76c-.63.16-18.22-1.32-18.85-1.8-.25-.18-.18-2.75,0-5.86V112c0-.64.07-1.3.12-2v-.29l11.46.85v.35l-.2,1.87V113s6.47,3.58,7.12,4.18S28.57,119.61,27.94,119.76Z" fill="#ebebeb"/><path d="M27.94,119.76c-.63.16-18.22-1.32-18.85-1.8-.25-.18-.18-2.75,0-5.86V112l11.36.83V113s6.47,3.57,7.12,4.18S28.57,119.61,27.94,119.76Z" fill="#92e3a9"/><path d="M27.79,119.06c-3-.32-14.92-1.34-17.87-1.43h0c2.92.38,14.89,1.3,17.86,1.45C27.86,119.12,27.86,119.08,27.79,119.06Z" fill="#263238"/><path d="M16.67,112.43a10.08,10.08,0,0,0,3,.74.16.16,0,0,0,.16-.16h0a6.16,6.16,0,0,0-2.24-2.32c-.55-.33-1.45-.46-1.78.25S16.13,112.14,16.67,112.43Zm-.46-.88c-.42-1.23,1.05-.8,1.46-.55a7.72,7.72,0,0,1,.72.56,16.82,16.82,0,0,1,1.34,1.33c-.49-.13-1-.2-1.48-.29s-1.79-.37-2-1Z" fill="#263238"/><path d="M21,113.29l-12.43-.52S12,85.5,12,83.77c.16-4.35,3.05-32.42,3.05-32.42H30.23A59.09,59.09,0,0,1,27.64,62a19.41,19.41,0,0,0-3.18,1.45S23,82,23,84.31C22.87,88.9,21,113.29,21,113.29Z" fill="#37474f"/><path d="M36.41,25.87a11.91,11.91,0,0,1,1.92,5c0,.83-5.18,2.73-5.9,2.27s-3.59-4.49-3.62-6S35.44,24.7,36.41,25.87Z" fill="#ad6359"/><path d="M28.68,23.79c-.47-.49-2-1.95-2.67-1.29-.42.41.6,1.54,1,2a11.57,11.57,0,0,1,1.89,3.33c.32.8,1.82-.77,1.82-.77A12.73,12.73,0,0,0,28.68,23.79Z" fill="#ad6359"/><path d="M29.93,28.71s.53,1.41,1.38,1.38.64-1.25.63-1.33.54,1.36,1.4,1.24.5-1.32.47-1.39.71.87,1.34.63c1.09-.41-.54-2.53-.39-3.45,0,0,1.61.09,1.65.08s-1.51-2-2.77-2.19a.89.89,0,0,0-.53.11.82.82,0,0,0-.34.42,1.31,1.31,0,0,0-1.1-.64c-.35,0-.6.63-.6.63a1,1,0,0,0-.95-.45c-.48.08-.72.68-.75.91A11.38,11.38,0,0,0,29.93,28.71Z" fill="#ad6359"/><path d="M29.43,24.5h0A7.21,7.21,0,0,0,30,28.77h0A15.06,15.06,0,0,1,29.43,24.5Z" fill="#263238"/><path d="M31.07,24.18h0a6.8,6.8,0,0,0,.87,4.62c0,.05.11.06.08,0A12,12,0,0,1,31.07,24.18Z" fill="#263238"/><path d="M33.91,28.68a9.08,9.08,0,0,1-1.14-4.41h0a6,6,0,0,0,.16,2.53,4.24,4.24,0,0,0,1,1.91S33.91,28.71,33.91,28.68Z" fill="#263238"/><path d="M29.93,28.71a5,5,0,0,0,.45.74A1.5,1.5,0,0,0,31,30a.5.5,0,0,0,.38,0,.77.77,0,0,0,.32-.22.86.86,0,0,0,.16-.35,1.27,1.27,0,0,0,0-.39l-.11-.63.32.56a2.61,2.61,0,0,0,.53.66,1,1,0,0,0,.32.21.86.86,0,0,0,.39.06.55.55,0,0,0,.32-.14.53.53,0,0,0,.17-.31,1.73,1.73,0,0,0-.1-.81l-.26-.71.47.59a3.64,3.64,0,0,0,.45.43,1.06,1.06,0,0,0,.54.21.4.4,0,0,0,.26-.06.47.47,0,0,0,.19-.18,1.14,1.14,0,0,0,0-.58A7.84,7.84,0,0,0,35,27.08c-.07-.21-.14-.42-.2-.64a1.64,1.64,0,0,1-.07-.66,1.74,1.74,0,0,0,.13.64c.08.21.16.41.25.62a7.1,7.1,0,0,1,.42,1.28,1.23,1.23,0,0,1,0,.71.73.73,0,0,1-.26.29.75.75,0,0,1-.38.1,1.28,1.28,0,0,1-.68-.25,2.9,2.9,0,0,1-.51-.48l.22-.12a1.89,1.89,0,0,1,.13.94.81.81,0,0,1-.25.46.94.94,0,0,1-.47.2,1.23,1.23,0,0,1-.91-.35,2.92,2.92,0,0,1-.58-.73l.22-.07a1.24,1.24,0,0,1,0,.47,1.17,1.17,0,0,1-.22.43.91.91,0,0,1-.41.25.64.64,0,0,1-.47,0,1.55,1.55,0,0,1-.64-.63A4.19,4.19,0,0,1,29.93,28.71Z" fill="#263238"/><path d="M31.82,32.56s-5.54-2.83-3.37-4.45c.64-.49,3.86-1.7,4.12-1.06.33.83-.92,1.59-1.78,1.94,0,0,2,.7,2,2.25a1.53,1.53,0,0,1-.92,1.32Z" fill="#ad6359"/><path d="M28.28,28.25a3.49,3.49,0,0,1,.77-.55,6.79,6.79,0,0,1,.87-.39,11.64,11.64,0,0,1,1.83-.54,1.46,1.46,0,0,1,.51,0,.75.75,0,0,1,.29.09.29.29,0,0,1,.12.1.64.64,0,0,1,.08.14.75.75,0,0,1,0,.55,1.29,1.29,0,0,1-.27.45,3,3,0,0,1-.77.61,5.75,5.75,0,0,1-.87.41v-.21a3.61,3.61,0,0,1,.65.33,3.54,3.54,0,0,1,.58.44,2.51,2.51,0,0,1,.45.58,2.28,2.28,0,0,1,.23.68,2.2,2.2,0,0,0-.3-.64,2.23,2.23,0,0,0-.47-.5,3.27,3.27,0,0,0-.58-.39,3.52,3.52,0,0,0-.63-.27L30.5,29l.26-.12a6.52,6.52,0,0,0,.83-.43,2.87,2.87,0,0,0,.69-.56.75.75,0,0,0,.21-.34.86.86,0,0,0,0-.39c-.06-.21-.41-.2-.7-.15s-.6.12-.91.19-.6.16-.9.26A6,6,0,0,0,28.28,28.25Z" fill="#263238"/><path d="M25.44,36.57c4.9,6,12,10,13.78,8.69s-4.17-7.95-4.27-8a50.2,50.2,0,0,0-7.72-3.7C22.56,31.54,23.25,33.87,25.44,36.57Z" fill="#ad6359"/><path d="M32.75,35.87l-3.69,4.85s-3.1-3.19-4.74-5.31S22.85,31.65,26.51,33A46.29,46.29,0,0,1,32.75,35.87Z" fill="#92e3a9"/><path d="M28.71,39.61c.45-.66.92-1.31,1.4-2,.24-.31.47-.63.72-.94s.53-.63.78-1h0c-.24.32-.44.65-.68,1s-.48.65-.73,1c-.49.64-1,1.26-1.5,1.88C28.72,39.65,28.68,39.63,28.71,39.61Z" fill="#263238"/><path d="M30.83,38.39l-1.77,2.33s-3.1-3.2-4.74-5.31l-.15-.21-.07-.1L24,35a2.92,2.92,0,0,1-.24-.37l-.07-.13a3.56,3.56,0,0,1-.29-.7v-.33C25,34.54,28.74,37,30.83,38.39Z" fill="#263238"/><path d="M31,54.39s-16.81.29-16.91.18c-.26-.29,3.13-17.6,6.65-21.17,1.24-1.26,3.8-.75,4.23-.54a6,6,0,0,1,2.68,3.41C29.17,40.08,31.19,54.11,31,54.39Z" fill="#92e3a9"/><path d="M21.67,35.5c-1.14,1.55-7,8-7.16,8.57s1.13,1.91,1.1,2.16c-.08,1-2.25,7.7-3.12,7-1.15-.9-6-7.31-5.31-10.08s12-9.44,13.8-10S22.78,34,21.67,35.5Z" fill="#ad6359"/><path d="M17.1,41.35l-3.3-4.64A48.73,48.73,0,0,1,20,33.26c2.47-1,3.69-.46,1.43,2.73A57,57,0,0,1,17.1,41.35Z" fill="#92e3a9"/><path d="M14.78,36.41c.52.61,1,1.23,1.52,1.86.25.31.49.62.73.94s.47.67.71,1h0c-.25-.29-.52-.58-.77-.9l-.76-1c-.49-.63-1-1.28-1.43-1.94C14.73,36.42,14.76,36.39,14.78,36.41Z" fill="#263238"/><path d="M17.1,41.37c.5-.67,1.1-1.27,1.64-1.91s1.09-1.29,1.61-2h0c-.24.34-.48.69-.73,1l-.39.49.2-.16c.2-.15.4-.29.61-.42h0a6.71,6.71,0,0,1-.58.48c-.14.11-.29.21-.44.31l-.23.29a13.26,13.26,0,0,1-1.69,1.82S17.08,41.39,17.1,41.37Z" fill="#263238"/><path d="M15.33,55.79c.77-.53-.29-1.15-.29-1.15s1.74.52,2.32-.33-.74-1.52-.83-1.57c.09,0,1.7.46,2.21-.46s-.91-1.43-1-1.45c.1,0,1.36-.06,1.59-.84.38-1.35-3.23-1.5-4-2.33,0,0,.35-1.77.38-1.82a2.07,2.07,0,0,1-1,.87,4.05,4.05,0,0,0-1.8.72,1,1,0,0,0-.26.59,1.07,1.07,0,0,0,.14.63,1.54,1.54,0,0,0-1.41.6c-.21.36.18,1,.18,1a1.33,1.33,0,0,0-.65.13,1.22,1.22,0,0,0-.48.45A1.19,1.19,0,0,0,10.54,52s-.79.29-.89.91C9.46,54.15,13.67,56.91,15.33,55.79Z" fill="#ad6359"/><path d="M10.61,52.08h0a8.71,8.71,0,0,0,4.51,2.58c.05,0,.09-.07,0-.09A18.23,18.23,0,0,1,10.61,52.08Z" fill="#263238"/><path d="M11.5,50.27h0a8.28,8.28,0,0,0,5.09,2.51c.07,0,.13-.06.06-.07A14.72,14.72,0,0,1,11.5,50.27Z" fill="#263238"/><path d="M17.89,50.78A11.18,11.18,0,0,1,12.8,48.7h0a7.27,7.27,0,0,0,2.55,1.68,5.09,5.09,0,0,0,2.55.43Z" fill="#263238"/><path d="M10.51,52a1.19,1.19,0,0,1-.32-.58,1.23,1.23,0,0,1,0-.66.9.9,0,0,1,.45-.45,1.55,1.55,0,0,1,.74-.07,1.14,1.14,0,0,1-.22-.67,1.06,1.06,0,0,1,.2-.67,1,1,0,0,1,.58-.31,3.31,3.31,0,0,1,.77,0,1,1,0,0,1-.22-.91,1.14,1.14,0,0,1,.26-.47,1.23,1.23,0,0,1,.44-.3,5.56,5.56,0,0,1,1.22-.29,2.66,2.66,0,0,0,.63-.17,1.16,1.16,0,0,0,.52-.46h0a1.34,1.34,0,0,1-.31.36,1.92,1.92,0,0,1-.42.28,8.08,8.08,0,0,1-1.16.34,1.57,1.57,0,0,0-.87.58,1,1,0,0,0-.17.51,1,1,0,0,0,.13.51h0a3.25,3.25,0,0,0-.69.08,1,1,0,0,0-.49.29,1.36,1.36,0,0,0-.19.62,1.2,1.2,0,0,0,.14.62,2.08,2.08,0,0,0-.73.19.84.84,0,0,0-.34.38A1.09,1.09,0,0,0,10.57,52h0l-.26.1h0Z" fill="#263238"/><path d="M24.93,35.44c-.92.34-2.73-.92-3.52-2-.05-.08-.1-3.34-.18-4,0-.13,4.18.5,4.18.5a10.22,10.22,0,0,0-.1,2.53C25.32,32.55,25.82,35.11,24.93,35.44Z" fill="#ad6359"/><path d="M25.41,29.93s-.05.27-.09.67a4.86,4.86,0,0,1-4,1.55c0-1-.07-2.33-.12-2.72C21.21,29.3,25.41,29.93,25.41,29.93Z" fill="#263238"/><path d="M21.25,22.47a2.74,2.74,0,0,0-1.61,1.85,5.66,5.66,0,0,0,.11,2.83C19.86,27.22,21.25,22.47,21.25,22.47Z" fill="#263238"/><path d="M26.65,24.19c.34,1.48-.7,5.6-1.79,6.46a3.34,3.34,0,0,1-4.72-.21A3.68,3.68,0,0,1,19.8,30c-1.06-1.87.46-7.15,1.66-7.92a3.64,3.64,0,0,1,4.92,1.47A4,4,0,0,1,26.65,24.19Z" fill="#ad6359"/><path d="M22.5,26.51h0c-.06.29-.08.62.16.76h0C22.37,27.21,22.4,26.77,22.5,26.51Z" fill="#263238"/><path d="M22.81,26.25c.46.05.34,1-.09.93S22.42,26.21,22.81,26.25Z" fill="#263238"/><path d="M20.88,26.22h0c0,.29-.1.62-.37.68h0C20.8,26.93,20.9,26.5,20.88,26.22Z" fill="#263238"/><path d="M20.66,25.89c-.46-.1-.61.83-.19.91S21,26,20.66,25.89Z" fill="#263238"/><path d="M21.09,27.59a6.23,6.23,0,0,0-.15.62,4.16,4.16,0,0,1,1.14.34c.09,0,.1,0,0-.11a1.73,1.73,0,0,0-.95-.38c.07-.21.12-.43.17-.65a1.77,1.77,0,0,0-.46,0c.22-.87.58-1.72.8-2.61h-.05a14.91,14.91,0,0,0-1,2.76C20.57,27.7,21,27.61,21.09,27.59Z" fill="#263238"/><path d="M23.16,25.94a2.17,2.17,0,0,1-.29-.24c-.09-.08-.22-.15-.26-.29a.24.24,0,0,1,0-.12.2.2,0,0,1,.09-.09.39.39,0,0,1,.26,0,.48.48,0,0,1,.22.12.69.69,0,0,1,.29.42.24.24,0,0,1,0,.12.24.24,0,0,1-.2.12A.21.21,0,0,1,23.16,25.94Z" fill="#263238"/><path d="M20.46,24.86l.37-.08a.69.69,0,0,0,.36-.16.24.24,0,0,0,0-.12.24.24,0,0,0,0-.12.51.51,0,0,0-.23-.12.53.53,0,0,0-.25,0,.72.72,0,0,0-.44.26.21.21,0,0,0,0,.11.21.21,0,0,0,0,.11.3.3,0,0,0,.08.08A.15.15,0,0,0,20.46,24.86Z" fill="#263238"/><path d="M26,27.71c-.85-.08-.39-3.85-.39-3.85a5.27,5.27,0,0,1-1.63.29,7.33,7.33,0,0,1-1.67-.25,8.9,8.9,0,0,1,1.43-.48s-3.8.33-3.93-.38c0-.25.66-2.5,3.81-2.36A4.22,4.22,0,0,1,27,23.22s1.13,1.26.94,1.83C27.6,26.05,26.87,27.8,26,27.71Z" fill="#263238"/><path d="M25.44,27.73s1.06-1.26,1.65-.87-.29,2.28-1,2.49a.71.71,0,0,1-.29,0,.74.74,0,0,1-.29-.08,1,1,0,0,1-.23-.18.94.94,0,0,1-.14-.26Z" fill="#ad6359"/><path d="M39.6,45c2.4-1.78.1-11-1.27-14.44-.4-1-6.81.88-6.51,2C33.53,38.92,37,47,39.6,45Z" fill="#ad6359"/><path d="M32.88,36.05l.7,1.74c.25.58.48,1.17.74,1.75s.52,1.14.78,1.71.57,1.12.86,1.68a14,14,0,0,1-1-1.61c-.29-.55-.58-1.12-.84-1.7s-.48-1.16-.69-1.76A12.6,12.6,0,0,1,32.88,36.05Z" fill="#263238"/></svg>