<svg width="273" height="203" viewBox="0 0 273 203" fill="none" xmlns="http://www.w3.org/2000/svg">
<path d="M272.104 178.173H0V178.309H272.104V178.173Z" fill="#E6E6E6"/>
<path d="M41.7733 183.898H31.8633V184.035H41.7733V183.898Z" fill="#E6E6E6"/>
<path d="M65.1146 183.833H45.7681V183.969H65.1146V183.833Z" fill="#E6E6E6"/>
<path d="M92.1181 187.011H76.4395V187.147H92.1181V187.011Z" fill="#E6E6E6"/>
<path d="M142.865 181.205H111.421V181.341H142.865V181.205Z" fill="#E6E6E6"/>
<path d="M233.008 183.572H204.861V183.708H233.008V183.572Z" fill="#E6E6E6"/>
<path d="M201.841 183.572H196.486V183.708H201.841V183.572Z" fill="#E6E6E6"/>
<path d="M246.526 186.941H241.171V187.077H246.526V186.941Z" fill="#E6E6E6"/>
<path d="M128.977 153.902H23.8959C23.0727 153.9 22.2837 153.572 21.7022 152.99C21.1206 152.407 20.7939 151.618 20.7939 150.794V3.08021C20.8011 2.26174 21.1309 1.47914 21.7117 0.902414C22.2925 0.325685 23.0774 0.00140209 23.8959 0H128.977C129.801 0 130.591 0.327388 131.174 0.910143C131.757 1.4929 132.084 2.28328 132.084 3.10742V150.794C132.084 151.618 131.757 152.409 131.174 152.992C130.591 153.574 129.801 153.902 128.977 153.902ZM23.8959 0.108842C23.1088 0.110283 22.3544 0.423973 21.7984 0.981057C21.2423 1.53814 20.93 2.2931 20.93 3.08021V150.794C20.93 151.581 21.2423 152.336 21.7984 152.894C22.3544 153.451 23.1088 153.764 23.8959 153.766H128.977C129.765 153.764 130.519 153.451 131.076 152.894C131.633 152.337 131.947 151.582 131.948 150.794V3.08021C131.947 2.2926 131.633 1.53765 131.076 0.980725C130.519 0.423796 129.765 0.11028 128.977 0.108842H23.8959Z" fill="#E6E6E6"/>
<path d="M246.695 153.902H141.608C140.785 153.9 139.995 153.572 139.413 152.99C138.83 152.408 138.502 151.618 138.501 150.794V3.08021C138.51 2.26124 138.841 1.47865 139.422 0.902074C140.004 0.325495 140.789 0.0013868 141.608 0H246.695C247.512 0.00283232 248.296 0.327748 248.876 0.904324C249.455 1.4809 249.784 2.26268 249.791 3.08021V150.794C249.791 151.617 249.465 152.405 248.885 152.988C248.305 153.57 247.517 153.899 246.695 153.902ZM141.608 0.108842C140.821 0.11028 140.066 0.423796 139.509 0.980725C138.952 1.53765 138.638 2.2926 138.637 3.08021V150.794C138.638 151.582 138.952 152.337 139.509 152.894C140.066 153.451 140.821 153.764 141.608 153.766H246.695C247.482 153.764 248.237 153.451 248.794 152.894C249.351 152.337 249.665 151.582 249.666 150.794V3.08021C249.665 2.2926 249.351 1.53765 248.794 0.980725C248.237 0.423796 247.482 0.11028 246.695 0.108842H141.608Z" fill="#E6E6E6"/>
<path d="M172.508 10.2256H31.3462V73.7782H172.508V10.2256Z" fill="#E0E0E0"/>
<path d="M175.469 10.2256H32.729V73.7782H175.469V10.2256Z" fill="#F0F0F0"/>
<path d="M172.508 73.7782H31.3462V79.2801H172.508V73.7782Z" fill="#E0E0E0"/>
<path d="M180.405 73.7782H37.6646V79.2801H180.405V73.7782Z" fill="#EBEBEB"/>
<path d="M171.322 69.6313V14.3725L36.8759 14.3725V69.6313H171.322Z" fill="#FAFAFA"/>
<path d="M62.6221 69.6313L86.9536 14.3725H98.4363L74.1103 69.6313H62.6221Z" fill="white"/>
<path d="M38.7968 59.9118C38.7189 59.9118 38.6441 59.8808 38.589 59.8257C38.5339 59.7706 38.5029 59.6958 38.5029 59.6179V17.0663C38.5029 16.9884 38.5339 16.9136 38.589 16.8585C38.6441 16.8034 38.7189 16.7725 38.7968 16.7725C38.8747 16.7725 38.9495 16.8034 39.0046 16.8585C39.0597 16.9136 39.0907 16.9884 39.0907 17.0663V59.6179C39.0907 59.6958 39.0597 59.7706 39.0046 59.8257C38.9495 59.8808 38.8747 59.9118 38.7968 59.9118Z" fill="#EBEBEB"/>
<path d="M76.5752 69.6313L100.907 14.3725H105.386L81.054 69.6313H76.5752Z" fill="white"/>
<path d="M171.327 69.6313V14.3725H170.799V69.6313H171.327Z" fill="#E0E0E0"/>
<path d="M176.448 19.6731H35.2862L34.9053 15.9834H176.067L176.448 19.6731Z" fill="#E0E0E0"/>
<path d="M176.448 22.3778H35.2862L34.9053 18.6826H176.067L176.448 22.3778Z" fill="#E0E0E0"/>
<path d="M176.448 25.6213H35.2862L34.9053 21.9261H176.067L176.448 25.6213Z" fill="#E0E0E0"/>
<path d="M176.448 29.2294H35.2862L34.9053 25.5342H176.067L176.448 29.2294Z" fill="#E0E0E0"/>
<path d="M176.448 33.5504H35.2862L34.9053 29.8607H176.067L176.448 33.5504Z" fill="#E0E0E0"/>
<path d="M176.448 38.4156H35.2862L34.9053 34.7259H176.067L176.448 38.4156Z" fill="#E0E0E0"/>
<path d="M232.475 14.9167H196.834V61.7621H232.475V14.9167Z" fill="#E0E0E0"/>
<path d="M234.901 14.9167H198.091V61.7621H234.901V14.9167Z" fill="#F5F5F5"/>
<path d="M231.821 58.6819V18.0024L201.177 18.0024V58.6819H231.821Z" fill="white"/>
<path d="M223.958 46.0998H216.001C214.077 46.0969 212.233 45.3309 210.873 43.9699C209.513 42.609 208.749 40.7641 208.747 38.8401V30.8837C208.747 30.8452 208.755 30.8069 208.769 30.7713C208.784 30.7356 208.806 30.7032 208.833 30.6759C208.86 30.6487 208.893 30.627 208.928 30.6122C208.964 30.5975 209.002 30.5899 209.041 30.5899H216.997C218.92 30.5928 220.764 31.358 222.124 32.7178C223.483 34.0776 224.249 35.9211 224.252 37.8442V45.8005C224.252 45.8789 224.221 45.9542 224.166 46.0102C224.111 46.0662 224.036 46.0984 223.958 46.0998ZM209.34 31.1831V38.8401C209.342 40.6067 210.044 42.3007 211.293 43.5505C212.541 44.8002 214.235 45.5037 216.001 45.5066H223.669V37.8442C223.666 36.0775 222.963 34.384 221.713 33.1353C220.463 31.8866 218.769 31.1845 217.003 31.1831H209.34Z" fill="#EBEBEB"/>
<path d="M133.701 104.488C133.701 106.12 134.849 107.285 133.2 107.285C131.551 107.285 127.758 106.137 127.758 104.488C127.758 103.694 128.074 102.933 128.635 102.371C129.196 101.81 129.958 101.495 130.751 101.495C131.545 101.495 132.307 101.81 132.868 102.371C133.429 102.933 133.745 103.694 133.745 104.488H133.701Z" fill="#E6E6E6"/>
<path d="M138.806 105.919C138.806 107.552 139.954 108.711 138.305 108.711C136.656 108.711 132.863 107.563 132.863 105.919C132.863 105.125 133.178 104.364 133.739 103.803C134.301 103.241 135.062 102.926 135.856 102.926C136.65 102.926 137.411 103.241 137.972 103.803C138.534 104.364 138.849 105.125 138.849 105.919H138.806Z" fill="#E6E6E6"/>
<path d="M143.698 105.032C143.698 106.665 144.846 107.824 143.197 107.824C141.548 107.824 137.755 106.675 137.755 105.032C137.755 104.238 138.071 103.477 138.632 102.916C139.193 102.354 139.955 102.039 140.749 102.039C141.542 102.039 142.304 102.354 142.865 102.916C143.426 103.477 143.742 104.238 143.742 105.032H143.698Z" fill="#E6E6E6"/>
<path d="M125.908 105.429C125.908 105.429 126.153 111.247 135.502 111.247C144.852 111.247 145.096 105.429 145.096 105.429H125.908Z" fill="#F5F5F5"/>
<path d="M145.439 70.2735H200.067L203.24 103.247H148.612L145.439 70.2735Z" fill="#E6E6E6"/>
<path d="M172.834 77.3754H181.297L177.52 110.349H169.058L172.834 77.3754Z" fill="#E6E6E6"/>
<path d="M181.82 77.3754L178.647 105.076L178.043 110.349H169.581L170.185 105.076L173.357 77.3754H181.82Z" fill="#F0F0F0"/>
<path d="M181.82 77.3754L178.647 105.076H170.185L173.357 77.3754H181.82Z" fill="#E6E6E6"/>
<path d="M145.946 70.2735H201.787L204.96 103.247H149.119L145.946 70.2735Z" fill="#F0F0F0"/>
<path d="M150.528 101.745L147.638 71.7809H200.377L203.267 101.745H150.528Z" fill="white"/>
<path d="M172.378 110.349H164.895V111.252H172.378V110.349Z" fill="#E6E6E6"/>
<path d="M172.378 111.252H184.851V110.349H172.378V111.252Z" fill="#F0F0F0"/>
<path d="M232.91 111.252H228.67V178.173H232.91V111.252Z" fill="#E6E6E6"/>
<path d="M234.249 111.252H231.305V178.173H234.249V111.252Z" fill="#F0F0F0"/>
<path d="M64.8318 116.46L235.158 116.46V111.252L64.8318 111.252V116.46Z" fill="#F0F0F0"/>
<path d="M62.9376 116.46H58.6982V178.173H62.9376V116.46Z" fill="#E0E0E0"/>
<path d="M64.2713 116.46H61.3271V178.173H64.2713V116.46Z" fill="#F0F0F0"/>
<path d="M36.1027 116.46H31.8633V178.173H36.1027V116.46Z" fill="#E0E0E0"/>
<path d="M37.4412 116.46H34.4971V178.173H37.4412V116.46Z" fill="#F0F0F0"/>
<path d="M206.081 116.46H201.841V178.173H206.081V116.46Z" fill="#E6E6E6"/>
<path d="M207.419 116.46H204.475V178.173H207.419V116.46Z" fill="#F0F0F0"/>
<path d="M64.8314 111.252H31.8633V116.46H64.8314V111.252Z" fill="#E0E0E0"/>
<path d="M64.2764 89.201H99.6553L104.787 110.093H69.4028L64.2764 89.201Z" fill="#E6E6E6"/>
<path d="M69.4028 110.093L69.5443 111.252H104.929L104.787 110.093H69.4028Z" fill="#E6E6E6"/>
<path d="M65.3647 89.201H100.749L105.876 110.093H70.4912L65.3647 89.201Z" fill="#F0F0F0"/>
<path d="M71.242 109.141L66.5781 90.1534H99.9979L104.656 109.141H71.242Z" fill="white"/>
<path d="M79.7104 110.093L79.8519 111.252H118.817L118.676 110.093H79.7104Z" fill="#FAFAFA"/>
<path d="M108.297 178.173H107.116L103.753 161.586L103.165 158.68L99.4918 140.607H85.4077L77.7888 178.157H76.6079L84.352 139.916C84.3784 139.789 84.4463 139.675 84.5448 139.591C84.6434 139.507 84.767 139.459 84.8962 139.453H99.9163C100.048 139.452 100.175 139.498 100.275 139.583C100.375 139.668 100.441 139.786 100.461 139.916L103.682 155.79L104.275 158.691L108.297 178.173Z" fill="#F0F0F0"/>
<path d="M130.887 178.173H129.712L122.093 140.623H108.009L104.335 158.707L103.748 161.602L100.379 178.19H99.2036L103.16 158.696L103.742 155.807L106.969 139.932C106.995 139.805 107.063 139.69 107.161 139.606C107.26 139.522 107.384 139.474 107.514 139.469H122.528C122.658 139.473 122.783 139.521 122.882 139.605C122.981 139.689 123.048 139.805 123.073 139.932L130.887 178.173Z" fill="#F0F0F0"/>
<path d="M96.1943 140.03H122.055C124.432 140.038 126.717 139.112 128.419 137.452C130.121 135.792 131.103 133.531 131.154 131.154L132.117 91.8458C132.135 90.9673 131.977 90.0941 131.653 89.2774C131.328 88.4608 130.844 87.7169 130.229 87.0895C129.614 86.4622 128.88 85.9638 128.07 85.6237C127.259 85.2835 126.389 85.1084 125.511 85.1086H109.272C107.65 85.1087 106.084 85.7056 104.874 86.7855C103.664 87.8653 102.893 89.3527 102.708 90.9642L96.1943 140.03Z" fill="#E0E0E0"/>
<path d="M110.3 140.03H82.7412C82.3991 140.03 82.071 139.894 81.8291 139.652C81.5873 139.41 81.4514 139.082 81.4514 138.74V138.62C81.4514 137.681 81.8246 136.78 82.489 136.115C83.1534 135.451 84.0546 135.078 84.9942 135.078H110.3V140.03Z" fill="#E0E0E0"/>
<path d="M198.092 178.173H196.911L193.547 161.586L192.954 158.68L189.286 140.607H175.235L167.616 178.157H166.435L174.206 139.899C174.233 139.773 174.301 139.659 174.399 139.575C174.498 139.491 174.621 139.442 174.751 139.437H189.771C189.902 139.435 190.029 139.481 190.129 139.566C190.229 139.651 190.295 139.77 190.315 139.899L193.537 155.774L194.13 158.675L198.092 178.173Z" fill="#F0F0F0"/>
<path d="M220.693 178.173H219.517L211.898 140.623H197.814L194.141 158.707L193.553 161.602L190.184 178.19H189.009L192.96 158.696L193.547 155.807L196.775 139.932C196.8 139.805 196.868 139.69 196.967 139.606C197.065 139.522 197.189 139.474 197.319 139.469H212.334C212.463 139.473 212.588 139.521 212.687 139.605C212.786 139.689 212.853 139.805 212.878 139.932L220.693 178.173Z" fill="#F0F0F0"/>
<path d="M186 140.03H211.86C214.236 140.035 216.518 139.108 218.217 137.448C219.917 135.789 220.897 133.529 220.949 131.154L221.912 91.8458C221.929 90.9673 221.771 90.0941 221.447 89.2774C221.123 88.4608 220.639 87.7169 220.023 87.0895C219.408 86.4622 218.674 85.9638 217.864 85.6237C217.054 85.2835 216.184 85.1084 215.305 85.1086H199.077C197.455 85.1087 195.889 85.7056 194.679 86.7855C193.469 87.8653 192.698 89.3527 192.514 90.9642L186 140.03Z" fill="#F0F0F0"/>
<path d="M200.105 140.03H172.546C172.204 140.03 171.876 139.894 171.634 139.652C171.392 139.41 171.257 139.082 171.257 138.74V138.62C171.257 137.681 171.63 136.78 172.294 136.115C172.959 135.451 173.86 135.078 174.799 135.078H200.105V140.03Z" fill="#F0F0F0"/>
<path d="M54.3611 102.735C54.259 102.741 54.1572 102.752 54.0563 102.768V102.082C54.0563 101.854 53.9657 101.636 53.8045 101.474C53.6432 101.313 53.4245 101.223 53.1965 101.223H46.4864C46.2578 101.223 46.0386 101.313 45.8764 101.474C45.7143 101.635 45.6225 101.854 45.6211 102.082V111.247H54.0563V109.707C54.1573 109.721 54.2591 109.73 54.3611 109.734C55.0342 109.734 55.6798 109.467 56.1562 108.991C56.6327 108.516 56.9011 107.871 56.9025 107.198V105.277C56.9011 104.603 56.6328 103.958 56.1565 103.481C55.6802 103.005 55.0347 102.737 54.3611 102.735ZM55.8141 107.198C55.8127 107.582 55.6589 107.951 55.3866 108.222C55.1142 108.493 54.7455 108.646 54.3611 108.646C54.2586 108.646 54.1564 108.635 54.0563 108.613V103.856C54.1568 103.837 54.2588 103.826 54.3611 103.824C54.746 103.825 55.1147 103.979 55.3869 104.251C55.6591 104.523 55.8127 104.892 55.8141 105.277V107.198Z" fill="#E0E0E0"/>
<path d="M136.052 202.75C194.327 202.75 241.568 199.992 241.568 196.589C241.568 193.187 194.327 190.429 136.052 190.429C77.7769 190.429 30.5356 193.187 30.5356 196.589C30.5356 199.992 77.7769 202.75 136.052 202.75Z" fill="#F5F5F5"/>
<path d="M75.5356 69.4953L75.8404 74.3169L78.8444 74.4203L79.6281 69.7184L75.5356 69.4953Z" fill="#E4897B"/>
<path d="M103.399 60.641C102.572 63.2205 101.663 65.7021 100.651 68.2C99.6325 70.7406 98.4696 73.2207 97.168 75.6285L96.6238 76.5645L96.0143 77.5169C95.9544 77.6039 95.9326 77.6529 95.8456 77.7726C95.7585 77.8924 95.6877 77.9958 95.6007 78.1046C95.4309 78.3265 95.2492 78.5391 95.0565 78.7413C94.6294 79.1773 94.1374 79.5444 93.598 79.8297C92.5679 80.3538 91.415 80.5889 90.262 80.51C89.3447 80.4387 88.4446 80.222 87.5954 79.8678C86.8613 79.5745 86.1577 79.2099 85.4947 78.7794C84.8687 78.3891 84.2688 77.9582 83.6989 77.4897C83.147 77.0397 82.6185 76.562 82.1152 76.0584C81.6017 75.5583 81.1149 75.0315 80.6567 74.4802L82.8336 72.1292C83.3234 72.4176 83.8839 72.7659 84.4118 73.0652C84.9396 73.3646 85.5002 73.6421 86.0444 73.9142C87.0351 74.4181 88.0818 74.8035 89.1627 75.0625C89.5497 75.1404 89.947 75.1533 90.3382 75.1006C90.6375 75.057 90.7518 74.9591 90.7899 74.8883L90.8715 74.7523L90.9314 74.6326L90.9695 74.5564L91.0511 74.3931L91.4429 73.653L91.8293 72.8476C92.8361 70.6435 93.7612 68.2436 94.6429 65.8382C95.5245 63.4328 96.4115 60.9784 97.2659 58.5839L103.399 60.641Z" fill="#E4897B"/>
<path d="M82.9317 72.2L79.6338 69.7184L78.8447 74.4203C78.8447 74.4203 81.5658 76.4992 83.514 74.687L82.9317 72.2Z" fill="#E4897B"/>
<path d="M106.267 56.2819C107.649 59.939 100.33 72.9673 100.33 72.9673L91.1382 69.8381C91.1382 69.8381 94.4034 60.9022 97.2115 56.701C100.134 52.3854 104.754 52.2439 106.267 56.2819Z" fill="#9068D5"/>
<path opacity="0.3" d="M106.267 56.2819C107.649 59.939 100.33 72.9673 100.33 72.9673L91.1382 69.8381C91.1382 69.8381 94.4034 60.9022 97.2115 56.701C100.134 52.3854 104.754 52.2439 106.267 56.2819Z" fill="black"/>
<path d="M101.413 53.4792C101.413 53.4792 96.5801 62.6165 101.168 85.6201H123.05C123.203 82.2624 121.091 69.098 124.329 53.2724C121.91 52.8041 119.464 52.4951 117.004 52.3473C113.907 52.1676 110.801 52.1676 107.704 52.3473C105.58 52.5606 103.477 52.9391 101.413 53.4792Z" fill="#9068D5"/>
<path opacity="0.3" d="M101.413 53.4792C101.413 53.4792 96.5801 62.6165 101.168 85.6201H123.05C123.203 82.2624 121.091 69.098 124.329 53.2724C121.91 52.8041 119.464 52.4951 117.004 52.3473C113.907 52.1676 110.801 52.1676 107.704 52.3473C105.58 52.5606 103.477 52.9391 101.413 53.4792Z" fill="black"/>
<path d="M128.694 192.998H124.694L123.938 183.741H127.932L128.694 192.998Z" fill="#E4897B"/>
<path d="M123.938 183.746L124.329 188.513H128.329L127.937 183.746H123.938Z" fill="#CE6F64"/>
<path d="M105.184 192.998H101.189L101.053 183.741H105.053L105.184 192.998Z" fill="#E4897B"/>
<path d="M101.053 183.746L101.124 188.513H105.124L105.053 183.746H101.053Z" fill="#CE6F64"/>
<path d="M101.168 85.6201C101.168 85.6201 98.2291 123.127 97.6795 135.6C97.108 148.569 99.8291 187.371 99.8291 187.371H106.332C106.332 187.371 108.705 151.382 109.821 138.68C111.04 124.836 115.551 85.6201 115.551 85.6201H101.168Z" fill="#9068D5"/>
<path opacity="0.7" d="M101.168 85.6201C101.168 85.6201 98.2291 123.127 97.6795 135.6C97.108 148.569 99.8291 187.371 99.8291 187.371H106.332C106.332 187.371 108.705 151.382 109.821 138.68C111.04 124.836 115.551 85.6201 115.551 85.6201H101.168Z" fill="black"/>
<path d="M124.541 192.535H128.895C128.975 192.536 129.053 192.563 129.115 192.614C129.177 192.664 129.221 192.734 129.238 192.813L130.027 196.366C130.046 196.452 130.045 196.541 130.025 196.626C130.004 196.712 129.965 196.791 129.91 196.859C129.854 196.928 129.784 196.982 129.704 197.019C129.625 197.056 129.538 197.075 129.45 197.074C127.877 197.047 125.603 196.954 123.622 196.954C121.309 196.954 120.988 197.085 118.272 197.085C116.64 197.085 116.171 195.452 116.863 195.272C119.986 194.587 120.863 194.516 123.567 192.851C123.855 192.655 124.193 192.545 124.541 192.535Z" fill="#263238"/>
<path d="M101.032 192.535H105.385C105.465 192.535 105.542 192.562 105.604 192.613C105.666 192.664 105.708 192.734 105.723 192.813L106.517 196.366C106.536 196.452 106.535 196.541 106.515 196.626C106.495 196.712 106.455 196.791 106.4 196.859C106.344 196.928 106.274 196.982 106.195 197.019C106.115 197.056 106.028 197.075 105.94 197.074C104.362 197.047 102.087 196.954 100.112 196.954C97.7936 196.954 95.7964 197.085 93.0808 197.085C91.4481 197.085 90.9856 195.452 91.6713 195.272C94.8005 194.587 97.3528 194.516 100.058 192.851C100.345 192.654 100.683 192.544 101.032 192.535Z" fill="#263238"/>
<path d="M99.3829 193.15C99.1111 193.215 98.8253 193.187 98.572 193.068C98.4871 193.021 98.4166 192.951 98.3678 192.867C98.319 192.783 98.2936 192.687 98.2945 192.59C98.2855 192.534 98.2919 192.478 98.3131 192.426C98.3342 192.374 98.3692 192.329 98.4142 192.296C98.8169 191.996 100.254 192.589 100.417 192.66C100.434 192.668 100.448 192.68 100.459 192.696C100.469 192.711 100.476 192.729 100.477 192.747C100.476 192.767 100.47 192.785 100.459 192.802C100.449 192.818 100.434 192.831 100.417 192.84C100.084 192.979 99.7374 193.083 99.3829 193.15ZM98.6482 192.41C98.6051 192.413 98.5637 192.428 98.5285 192.453C98.5013 192.453 98.4795 192.497 98.4849 192.573C98.4869 192.639 98.5048 192.702 98.5371 192.759C98.5693 192.816 98.6149 192.864 98.67 192.9C99.1542 193.036 99.6722 192.981 100.118 192.747C99.654 192.542 99.1551 192.427 98.6482 192.41Z" fill="#9068D5"/>
<path d="M100.395 192.845H100.346C99.8888 192.682 98.9419 191.926 98.9582 191.463C98.9599 191.39 98.9869 191.321 99.0346 191.266C99.0824 191.211 99.1478 191.175 99.2194 191.164C99.2914 191.144 99.3667 191.139 99.4406 191.149C99.5146 191.159 99.5856 191.185 99.6494 191.224C100.194 191.534 100.46 192.682 100.471 192.731C100.476 192.747 100.476 192.765 100.471 192.781C100.467 192.798 100.457 192.812 100.444 192.824C100.43 192.835 100.413 192.842 100.395 192.845ZM99.3065 191.332H99.263C99.1432 191.37 99.1432 191.425 99.1378 191.452C99.1378 191.724 99.7528 192.312 100.226 192.541C100.125 192.085 99.8899 191.67 99.5514 191.349C99.4774 191.317 99.395 191.311 99.3174 191.332H99.3065Z" fill="#9068D5"/>
<path d="M107.584 187.534H99.5135L98.8115 184.486L107.726 184.644L107.584 187.534Z" fill="#9068D5"/>
<path d="M122.893 193.15C122.621 193.215 122.335 193.187 122.082 193.068C122 193.017 121.932 192.947 121.884 192.863C121.835 192.78 121.808 192.686 121.804 192.59C121.795 192.534 121.802 192.478 121.823 192.426C121.844 192.374 121.879 192.329 121.924 192.296C122.332 191.996 123.763 192.589 123.927 192.66C123.944 192.667 123.96 192.679 123.97 192.694C123.981 192.71 123.987 192.728 123.986 192.747C123.987 192.767 123.981 192.786 123.971 192.803C123.96 192.819 123.945 192.832 123.927 192.84C123.594 192.979 123.247 193.083 122.893 193.15ZM122.158 192.41C122.115 192.414 122.074 192.429 122.038 192.453C122.02 192.467 122.007 192.486 121.999 192.507C121.992 192.528 121.99 192.551 121.995 192.573C121.997 192.639 122.015 192.702 122.047 192.759C122.079 192.816 122.125 192.864 122.18 192.9C122.664 193.036 123.182 192.981 123.627 192.747C123.164 192.542 122.665 192.427 122.158 192.41Z" fill="#9068D5"/>
<path d="M123.905 192.845H123.856C123.404 192.682 122.452 191.926 122.468 191.463C122.471 191.39 122.499 191.32 122.548 191.266C122.596 191.211 122.662 191.175 122.735 191.164C122.806 191.142 122.88 191.137 122.953 191.147C123.027 191.157 123.097 191.183 123.159 191.224C123.703 191.534 123.97 192.682 123.981 192.731C123.99 192.745 123.994 192.761 123.994 192.777C123.994 192.794 123.99 192.81 123.981 192.823C123.959 192.84 123.932 192.848 123.905 192.845ZM122.816 191.332H122.778C122.653 191.37 122.653 191.425 122.653 191.452C122.653 191.724 123.263 192.312 123.741 192.54C123.638 192.084 123.401 191.669 123.061 191.349C122.987 191.317 122.905 191.311 122.827 191.332H122.816Z" fill="#9068D5"/>
<path d="M108.934 85.6201C108.934 85.6201 110.789 122.283 113.336 133.995C116.128 146.822 122.223 187.371 122.223 187.371H129.711C129.711 187.371 127.203 147.856 125.608 135.159C123.883 121.375 123.05 85.6364 123.05 85.6364L108.934 85.6201Z" fill="#9068D5"/>
<path opacity="0.7" d="M108.934 85.6201C108.934 85.6201 110.789 122.283 113.336 133.995C116.128 146.822 122.223 187.371 122.223 187.371H129.711C129.711 187.371 127.203 147.856 125.608 135.159C123.883 121.375 123.05 85.6364 123.05 85.6364L108.934 85.6201Z" fill="black"/>
<path d="M126.691 182.946C126.7 182.945 126.708 182.942 126.715 182.937C126.723 182.933 126.729 182.927 126.734 182.92C126.739 182.912 126.743 182.904 126.745 182.896C126.747 182.887 126.747 182.879 126.745 182.87C126.686 182.489 124.852 147.028 123.42 135.622C121.869 123.241 121.385 90.3928 121.352 90.1153C121.348 90.097 121.338 90.0809 121.323 90.0698C121.308 90.0588 121.289 90.0537 121.271 90.0554C121.262 90.056 121.253 90.0586 121.245 90.0629C121.237 90.0671 121.23 90.073 121.224 90.0802C121.218 90.0874 121.214 90.0957 121.212 90.1045C121.21 90.1134 121.209 90.1226 121.211 90.1316C121.244 90.4092 121.755 123.257 123.284 135.638C124.716 147.067 126.55 182.511 126.609 182.892C126.613 182.91 126.624 182.925 126.639 182.935C126.655 182.946 126.673 182.949 126.691 182.946Z" fill="#9068D5"/>
<path opacity="0.4" d="M126.691 182.946C126.7 182.945 126.708 182.942 126.715 182.937C126.723 182.933 126.729 182.927 126.734 182.92C126.739 182.912 126.743 182.904 126.745 182.896C126.747 182.887 126.747 182.879 126.745 182.87C126.686 182.489 124.852 147.028 123.42 135.622C121.869 123.241 121.385 90.3928 121.352 90.1153C121.348 90.097 121.338 90.0809 121.323 90.0698C121.308 90.0588 121.289 90.0537 121.271 90.0554C121.262 90.056 121.253 90.0586 121.245 90.0629C121.237 90.0671 121.23 90.073 121.224 90.0802C121.218 90.0874 121.214 90.0957 121.212 90.1045C121.21 90.1134 121.209 90.1226 121.211 90.1316C121.244 90.4092 121.755 123.257 123.284 135.638C124.716 147.067 126.55 182.511 126.609 182.892C126.613 182.91 126.624 182.925 126.639 182.935C126.655 182.946 126.673 182.949 126.691 182.946Z" fill="black"/>
<path d="M130.006 187.534H121.93L121.228 184.486L130.163 184.236L130.006 187.534Z" fill="#9068D5"/>
<path d="M116.084 41.8713C115.496 44.8644 114.909 50.3501 117.004 52.3473C117.004 52.3473 116.062 54.3554 110.501 54.3554C105.418 54.3554 107.703 52.3473 107.703 52.3473C111.039 51.5473 110.969 49.082 110.375 46.7474L116.084 41.8713Z" fill="#E4897B"/>
<path d="M113.739 43.8631L110.359 46.7474C110.504 47.2819 110.601 47.8283 110.648 48.38C111.736 49.414 113.674 46.7964 113.81 45.4631C113.882 44.9298 113.858 44.3879 113.739 43.8631Z" fill="#CE6F64"/>
<path d="M105.853 32.7504C104.036 33.964 104.009 39.7108 106.784 40.5053C109.56 41.2999 109.298 30.4756 105.853 32.7504Z" fill="#263238"/>
<path d="M116.46 37.3707C116.215 41.4196 116.275 43.8032 114.229 45.8875C111.149 49.0167 106.148 47.1555 105.179 43.1121C104.308 39.4713 104.863 33.4579 108.83 31.8416C109.704 31.4814 110.654 31.3506 111.592 31.4617C112.53 31.5729 113.424 31.9221 114.189 32.4764C114.954 33.0306 115.564 33.7713 115.961 34.628C116.359 35.4847 116.531 36.4289 116.46 37.3707Z" fill="#E4897B"/>
<path d="M117.864 32.2606L113.951 34.013C115.486 36.8755 112.035 41.7081 115.513 41.1802C117.107 40.9353 122.136 35.9612 117.864 32.2606Z" fill="#263238"/>
<path d="M116.852 39.602C115.883 39.3789 112.869 38.7585 112.836 38.753C112.813 38.7478 112.793 38.7343 112.78 38.7151C112.767 38.696 112.762 38.6726 112.765 38.6496C112.767 38.6381 112.771 38.6271 112.778 38.6172C112.784 38.6074 112.792 38.5989 112.802 38.5923C112.811 38.5857 112.822 38.5811 112.834 38.5788C112.845 38.5765 112.857 38.5765 112.869 38.5789C112.901 38.5789 115.922 39.2047 116.896 39.4278C116.919 39.4278 116.941 39.437 116.957 39.4533C116.974 39.4697 116.983 39.4918 116.983 39.5149C116.983 39.538 116.974 39.5602 116.957 39.5765C116.941 39.5928 116.919 39.602 116.896 39.602H116.852Z" fill="#263238"/>
<path d="M118.272 41.8332C118.003 42.2615 117.652 42.6324 117.239 42.9247C116.827 43.2171 116.36 43.425 115.867 43.5366C114.544 43.8305 113.957 42.6278 114.387 41.4196C114.778 40.3312 115.932 38.8727 117.227 39.1231C117.509 39.1837 117.771 39.3135 117.99 39.5007C118.209 39.688 118.378 39.9269 118.482 40.1958C118.586 40.4647 118.621 40.7552 118.584 41.0411C118.548 41.3269 118.44 41.5992 118.272 41.8332Z" fill="#E4897B"/>
<path d="M110.544 38.5027C110.544 38.8292 110.365 39.0959 110.153 39.0959C109.94 39.0959 109.761 38.8292 109.761 38.5027C109.761 38.1762 109.935 37.9041 110.153 37.9041C110.37 37.9041 110.544 38.1707 110.544 38.5027Z" fill="#263238"/>
<path d="M106.811 38.5027C106.811 38.8292 106.637 39.0959 106.419 39.0959C106.201 39.0959 106.033 38.8292 106.033 38.5027C106.033 38.1762 106.207 37.9041 106.419 37.9041C106.631 37.9041 106.811 38.1707 106.811 38.5027Z" fill="#263238"/>
<path d="M107.752 38.6659C107.359 39.673 106.83 40.6215 106.18 41.4849C106.404 41.6473 106.661 41.7583 106.933 41.8101C107.205 41.8618 107.484 41.853 107.752 41.7842V38.6659Z" fill="#DE5753"/>
<path d="M108.243 43.1937C108.23 43.193 108.217 43.1898 108.205 43.1842C108.194 43.1786 108.183 43.1708 108.175 43.1612C108.166 43.1516 108.16 43.1404 108.155 43.1282C108.151 43.1161 108.149 43.1032 108.15 43.0903C108.15 43.0777 108.153 43.0652 108.158 43.0536C108.163 43.042 108.17 43.0316 108.179 43.0229C108.188 43.0142 108.199 43.0075 108.211 43.0032C108.223 42.9989 108.235 42.9971 108.248 42.9978C108.658 43.0242 109.069 42.9537 109.447 42.7921C109.826 42.6304 110.16 42.3821 110.425 42.0672C110.44 42.0466 110.462 42.0324 110.488 42.0274C110.513 42.0224 110.539 42.0269 110.561 42.04C110.579 42.0583 110.588 42.0827 110.588 42.108C110.588 42.1334 110.579 42.1578 110.561 42.1761C110.283 42.5174 109.928 42.7877 109.525 42.9646C109.121 43.1416 108.682 43.2201 108.243 43.1937Z" fill="#263238"/>
<path d="M112.226 35.7218C112.197 35.725 112.167 35.7213 112.14 35.7109C112.112 35.7005 112.088 35.6837 112.068 35.6619C111.912 35.4739 111.712 35.3264 111.487 35.2316C111.262 35.1369 111.017 35.0978 110.773 35.1177C110.722 35.1241 110.67 35.1108 110.629 35.0804C110.587 35.0501 110.559 35.005 110.55 34.9544C110.542 34.904 110.554 34.8525 110.583 34.8108C110.613 34.7691 110.657 34.7406 110.708 34.7313C111.012 34.7035 111.32 34.7487 111.603 34.8632C111.887 34.9777 112.14 35.1582 112.34 35.3898C112.375 35.4263 112.395 35.4751 112.395 35.5259C112.395 35.5766 112.375 35.6254 112.34 35.6619C112.309 35.693 112.269 35.7138 112.226 35.7218Z" fill="#263238"/>
<path d="M119.474 63.2253L113.083 63.0111L113.066 63.5332L119.456 63.7475L119.474 63.2253Z" fill="#E0E0E0"/>
<path d="M105.151 35.6837C105.123 35.6746 105.097 35.6598 105.075 35.6401C105.039 35.6027 105.02 35.553 105.02 35.5014C105.02 35.4497 105.039 35.4 105.075 35.3626C105.287 35.1391 105.549 34.9696 105.84 34.8683C106.13 34.767 106.441 34.7368 106.746 34.7803C106.774 34.7822 106.801 34.7899 106.825 34.8031C106.85 34.8163 106.871 34.8346 106.888 34.8567C106.905 34.8788 106.917 34.9043 106.923 34.9315C106.93 34.9587 106.93 34.9869 106.925 35.0142C106.919 35.0415 106.908 35.0674 106.892 35.0901C106.876 35.1127 106.855 35.1316 106.83 35.1455C106.806 35.1595 106.779 35.1681 106.752 35.1708C106.724 35.1735 106.696 35.1702 106.67 35.1612C106.428 35.131 106.183 35.1581 105.954 35.2404C105.726 35.3226 105.519 35.4577 105.353 35.6347C105.327 35.6604 105.294 35.6785 105.259 35.6871C105.223 35.6957 105.186 35.6945 105.151 35.6837Z" fill="#263238"/>
<path d="M109.216 32.2606C109.216 32.2606 109.097 29.1042 112.286 29.2675C114.762 29.3926 119.404 32.9844 120.857 32.2606C120.857 32.2606 118.136 35.4714 114.555 34.4374C112.687 33.9517 110.892 33.2197 109.216 32.2606Z" fill="#263238"/>
<path d="M109.216 32.2606C109.216 32.2606 111.894 30.628 110.12 29.6974C107.54 28.3586 104.438 33.2239 102.991 32.5001C102.991 32.5001 103.306 34.8129 106.762 33.4579C107.61 33.122 108.43 32.7218 109.216 32.2606Z" fill="#263238"/>
<path d="M110.544 41.289C109.227 41.289 108.155 39.9503 108.155 38.3067C108.155 36.8483 109.004 36.0428 110.544 36.0428C112.084 36.0428 112.939 36.8483 112.939 38.3067C112.939 39.9503 111.867 41.289 110.544 41.289ZM110.544 36.217C109.538 36.217 108.329 36.5816 108.329 38.3067C108.329 39.8523 109.325 41.1094 110.544 41.1094C111.763 41.1094 112.759 39.8523 112.759 38.3067C112.759 36.5816 111.562 36.217 110.544 36.217Z" fill="#263238"/>
<path d="M105.146 41.289C104.057 41.289 103.138 39.9503 103.138 38.3067C103.138 36.3367 104.395 36.0428 105.146 36.0428C105.897 36.0428 107.154 36.3367 107.154 38.3067C107.154 39.9503 106.256 41.289 105.146 41.289ZM105.146 36.217C104.308 36.217 103.312 36.5816 103.312 38.3067C103.312 39.8523 104.134 41.1094 105.146 41.1094C106.158 41.1094 106.98 39.8523 106.98 38.3067C106.98 36.5816 105.984 36.217 105.146 36.217Z" fill="#263238"/>
<path d="M106.904 37.3435C106.888 37.3436 106.873 37.3397 106.86 37.332C106.846 37.3244 106.835 37.3133 106.828 37.3C106.821 37.2902 106.817 37.2791 106.815 37.2675C106.813 37.2559 106.813 37.2439 106.816 37.2326C106.819 37.2212 106.825 37.2106 106.833 37.2016C106.84 37.1925 106.85 37.1853 106.86 37.1802C107.107 37.0325 107.389 36.9545 107.677 36.9545C107.964 36.9545 108.246 37.0325 108.493 37.1802C108.513 37.1917 108.528 37.2104 108.535 37.2326C108.542 37.2548 108.541 37.2789 108.531 37.3C108.526 37.3105 108.519 37.3199 108.51 37.3275C108.501 37.3352 108.49 37.341 108.479 37.3445C108.468 37.3481 108.456 37.3493 108.445 37.3482C108.433 37.3471 108.422 37.3437 108.411 37.338C108.193 37.2044 107.941 37.1336 107.685 37.1336C107.428 37.1336 107.177 37.2044 106.958 37.338L106.904 37.3435Z" fill="#263238"/>
<path d="M111.638 53.7731C111.638 53.7731 113.042 55.7377 113.314 57.1581C114.991 56.4615 118.163 54.72 118.588 52.2602C117.975 52.0665 117.392 51.7919 116.852 51.4439C116.852 51.4439 115.159 52.8806 111.638 53.7731Z" fill="#F0F0F0"/>
<path d="M110.506 53.6806C109.632 54.517 109.058 55.619 108.874 56.8152C107.198 56.1186 106.539 53.8439 106.98 52.3364C107.616 52.0466 108.282 51.8276 108.966 51.6833C108.941 52.1455 109.083 52.6014 109.365 52.968C109.648 53.3345 110.053 53.5874 110.506 53.6806Z" fill="#F0F0F0"/>
<path d="M121.086 52.5323L120.052 52.4398C120.002 52.4363 119.953 52.451 119.914 52.4811C119.875 52.5112 119.848 52.5546 119.839 52.6031C116.96 68.0422 118.577 84.4338 118.577 84.4338H119.725C119.099 73.8509 119.62 63.2313 121.281 52.7609C121.285 52.7327 121.283 52.704 121.275 52.6768C121.267 52.6495 121.253 52.6242 121.235 52.6026C121.216 52.581 121.193 52.5636 121.168 52.5515C121.142 52.5394 121.114 52.5328 121.086 52.5323Z" fill="#9068D5"/>
<path opacity="0.7" d="M121.086 52.5323L120.052 52.4398C120.002 52.4363 119.953 52.451 119.914 52.4811C119.875 52.5112 119.848 52.5546 119.839 52.6031C116.96 68.0422 118.577 84.4338 118.577 84.4338H119.725C119.099 73.8509 119.62 63.2313 121.281 52.7609C121.285 52.7327 121.283 52.704 121.275 52.6768C121.267 52.6495 121.253 52.6242 121.235 52.6026C121.216 52.581 121.193 52.5636 121.168 52.5515C121.142 52.5394 121.114 52.5328 121.086 52.5323Z" fill="black"/>
<path d="M119.513 84.7984H118.724C118.627 84.7984 118.535 84.76 118.466 84.6916C118.398 84.6232 118.359 84.5305 118.359 84.4337C118.359 84.3365 118.398 84.2432 118.466 84.174C118.534 84.1047 118.627 84.0651 118.724 84.0637H119.513C119.611 84.0651 119.704 84.1045 119.773 84.1736C119.842 84.2427 119.882 84.336 119.883 84.4337C119.882 84.5309 119.842 84.6237 119.773 84.6919C119.704 84.7601 119.61 84.7984 119.513 84.7984Z" fill="#E0E0E0"/>
<path d="M118.637 85.7616V84.7276C118.637 84.6643 118.65 84.6015 118.674 84.5431C118.699 84.4846 118.734 84.4316 118.779 84.387C118.824 84.3425 118.878 84.3073 118.937 84.2836C118.995 84.2599 119.058 84.248 119.122 84.2487C119.249 84.2487 119.37 84.2992 119.46 84.389C119.55 84.4788 119.6 84.6006 119.6 84.7276V85.7616C119.599 85.8882 119.548 86.0092 119.459 86.0987C119.369 86.1882 119.248 86.2391 119.122 86.2405C118.994 86.2405 118.872 86.1902 118.781 86.1006C118.69 86.0109 118.639 85.8891 118.637 85.7616Z" fill="#E0E0E0"/>
<path d="M103.764 52.7391L102.741 52.9296C102.698 52.9374 102.66 52.9586 102.631 52.9899C102.601 53.0212 102.583 53.0611 102.577 53.1038C100.401 68.5484 102.79 84.4338 102.79 84.4338H103.943C102.24 67.6232 103.753 54.9541 104.014 52.9623C104.02 52.9291 104.018 52.8949 104.007 52.863C103.996 52.8311 103.977 52.8025 103.952 52.7801C103.927 52.7577 103.896 52.7421 103.863 52.7349C103.83 52.7277 103.796 52.7292 103.764 52.7391Z" fill="#9068D5"/>
<path opacity="0.7" d="M103.764 52.7391L102.741 52.9296C102.698 52.9374 102.66 52.9586 102.631 52.9899C102.601 53.0212 102.583 53.0611 102.577 53.1038C100.401 68.5484 102.79 84.4338 102.79 84.4338H103.943C102.24 67.6232 103.753 54.9541 104.014 52.9623C104.02 52.9291 104.018 52.8949 104.007 52.863C103.996 52.8311 103.977 52.8025 103.952 52.7801C103.927 52.7577 103.896 52.7421 103.863 52.7349C103.83 52.7277 103.796 52.7292 103.764 52.7391Z" fill="black"/>
<path d="M103.742 84.7984H102.953C102.855 84.7972 102.76 84.7591 102.689 84.6915C102.617 84.624 102.573 84.5319 102.567 84.4337C102.565 84.3861 102.573 84.3387 102.59 84.2942C102.607 84.2497 102.633 84.2091 102.666 84.1746C102.699 84.1402 102.738 84.1127 102.782 84.0936C102.826 84.0746 102.873 84.0644 102.92 84.0637H103.709C103.808 84.065 103.903 84.1041 103.974 84.1729C104.044 84.2417 104.086 84.3351 104.09 84.4337C104.093 84.481 104.087 84.5284 104.07 84.5729C104.054 84.6175 104.029 84.6581 103.996 84.6924C103.963 84.7267 103.924 84.7538 103.88 84.772C103.836 84.7902 103.789 84.7992 103.742 84.7984Z" fill="#E0E0E0"/>
<path d="M102.909 85.7616L102.86 84.7276C102.857 84.6653 102.867 84.6031 102.889 84.5447C102.911 84.4863 102.945 84.4331 102.988 84.3882C103.032 84.3434 103.084 84.3079 103.141 84.2839C103.199 84.2599 103.261 84.2479 103.323 84.2487C103.452 84.2499 103.575 84.3001 103.668 84.3891C103.761 84.478 103.817 84.5991 103.824 84.7276L103.873 85.7616C103.876 85.8235 103.866 85.8853 103.844 85.9433C103.823 86.0013 103.789 86.0543 103.747 86.099C103.704 86.1438 103.653 86.1794 103.596 86.2038C103.539 86.2281 103.477 86.2406 103.415 86.2405C103.286 86.2394 103.162 86.1894 103.068 86.1006C102.974 86.0117 102.918 85.8906 102.909 85.7616Z" fill="#E0E0E0"/>
<path d="M114.474 65.3049C114.395 65.2993 114.321 65.2632 114.268 65.2043C114.215 65.1454 114.188 65.0683 114.191 64.9892L114.343 62.2682C114.344 62.2286 114.354 62.1897 114.37 62.1539C114.387 62.118 114.411 62.0859 114.441 62.0594C114.47 62.033 114.505 62.0128 114.542 62.0001C114.58 61.9873 114.619 61.9822 114.659 61.9852C114.698 61.9873 114.737 61.9971 114.772 62.0141C114.808 62.0311 114.839 62.055 114.866 62.0843C114.892 62.1136 114.912 62.1478 114.925 62.185C114.938 62.2221 114.944 62.2615 114.942 62.3008L114.789 65.0219C114.788 65.0614 114.779 65.1003 114.762 65.1362C114.745 65.1721 114.721 65.2042 114.692 65.2306C114.662 65.257 114.628 65.2772 114.59 65.29C114.553 65.3028 114.513 65.3078 114.474 65.3049Z" fill="#9068D5"/>
<path d="M115.404 66.2845C115.38 66.2846 115.356 66.2796 115.334 66.2698C115.311 66.2601 115.292 66.2458 115.275 66.2278C115.259 66.2099 115.246 66.1887 115.239 66.1657C115.231 66.1426 115.228 66.1182 115.23 66.094L115.415 62.2192C115.418 62.1697 115.44 62.1232 115.477 62.0896C115.513 62.0561 115.562 62.0381 115.611 62.0396C115.636 62.041 115.659 62.0472 115.681 62.0578C115.703 62.0684 115.723 62.0832 115.739 62.1014C115.755 62.1196 115.768 62.1409 115.776 62.1639C115.783 62.1869 115.787 62.2112 115.785 62.2356L115.6 66.1103C115.599 66.1346 115.593 66.1584 115.582 66.1803C115.572 66.2023 115.557 66.2219 115.539 66.2381C115.52 66.2542 115.499 66.2667 115.476 66.2746C115.453 66.2826 115.429 66.2859 115.404 66.2845Z" fill="#9068D5"/>
<path opacity="0.7" d="M114.474 65.3049C114.395 65.2993 114.321 65.2632 114.268 65.2043C114.215 65.1454 114.188 65.0683 114.191 64.9892L114.343 62.2682C114.344 62.2286 114.354 62.1897 114.37 62.1539C114.387 62.118 114.411 62.0859 114.441 62.0594C114.47 62.033 114.505 62.0128 114.542 62.0001C114.58 61.9873 114.619 61.9822 114.659 61.9852C114.698 61.9873 114.737 61.9971 114.772 62.0141C114.808 62.0311 114.839 62.055 114.866 62.0843C114.892 62.1136 114.912 62.1478 114.925 62.185C114.938 62.2221 114.944 62.2615 114.942 62.3008L114.789 65.0219C114.788 65.0614 114.779 65.1003 114.762 65.1362C114.745 65.1721 114.721 65.2042 114.692 65.2306C114.662 65.257 114.628 65.2772 114.59 65.29C114.553 65.3028 114.513 65.3078 114.474 65.3049Z" fill="black"/>
<path opacity="0.7" d="M115.404 66.2845C115.38 66.2846 115.356 66.2796 115.334 66.2698C115.311 66.2601 115.292 66.2458 115.275 66.2278C115.259 66.2099 115.246 66.1887 115.239 66.1657C115.231 66.1426 115.228 66.1182 115.23 66.094L115.415 62.2192C115.418 62.1697 115.44 62.1232 115.477 62.0896C115.513 62.0561 115.562 62.0381 115.611 62.0396C115.636 62.041 115.659 62.0472 115.681 62.0578C115.703 62.0684 115.723 62.0832 115.739 62.1014C115.755 62.1196 115.768 62.1409 115.776 62.1639C115.783 62.1869 115.787 62.2112 115.785 62.2356L115.6 66.1103C115.599 66.1346 115.593 66.1584 115.582 66.1803C115.572 66.2023 115.557 66.2219 115.539 66.2381C115.52 66.2542 115.499 66.2667 115.476 66.2746C115.453 66.2826 115.429 66.2859 115.404 66.2845Z" fill="black"/>
<path d="M110.838 54.35L111.638 53.7731L113.336 55.4058L110.838 54.35Z" fill="#9068D5"/>
<path opacity="0.5" d="M110.838 54.35L111.638 53.7731L113.336 55.4058L110.838 54.35Z" fill="black"/>
<path d="M110.839 54.35L110.507 53.6806L108.313 55.4057L110.839 54.35Z" fill="#9068D5"/>
<path opacity="0.5" d="M110.839 54.35L110.507 53.6806L108.313 55.4057L110.839 54.35Z" fill="black"/>
<path d="M111.6 55.1881C112.547 54.8343 116.335 51.7759 117.412 53.365C118.49 54.9541 117.037 55.5418 117.51 56.6302C117.984 57.7186 118.697 59.5581 116.318 59.0792C113.663 58.535 112.465 56.6792 111.698 56.6357C111.655 55.9935 111.6 55.1881 111.6 55.1881Z" fill="#9068D5"/>
<path opacity="0.7" d="M111.6 55.1881C112.547 54.8343 116.335 51.7759 117.412 53.365C118.49 54.9541 117.037 55.5418 117.51 56.6302C117.984 57.7186 118.697 59.5581 116.318 59.0792C113.663 58.535 112.465 56.6792 111.698 56.6357C111.655 55.9935 111.6 55.1881 111.6 55.1881Z" fill="black"/>
<path d="M110.093 54.9649C109.299 54.6275 106.022 51.765 105.228 53.2344C104.433 54.7037 105.658 55.2425 105.326 56.2438C104.994 57.2452 104.515 58.9649 106.441 58.5295C108.586 58.0506 109.467 56.3255 110.093 56.2874V54.9649Z" fill="#9068D5"/>
<path opacity="0.7" d="M110.093 54.9649C109.299 54.6275 106.022 51.765 105.228 53.2344C104.433 54.7037 105.658 55.2425 105.326 56.2438C104.994 57.2452 104.515 58.9649 106.441 58.5295C108.586 58.0506 109.467 56.3255 110.093 56.2874V54.9649Z" fill="black"/>
<path d="M111.769 56.7173C112.161 56.0588 112.422 54.2466 111.584 54.5677C110.746 54.8887 110.653 54.9323 110.414 54.7745C110.174 54.6166 109.548 54.3282 109.44 54.9921C109.331 55.6561 109.494 56.9785 110.114 56.9513C110.735 56.9241 111.371 57.3921 111.769 56.7173Z" fill="#9068D5"/>
<path opacity="0.7" d="M111.769 56.7173C112.161 56.0588 112.422 54.2466 111.584 54.5677C110.746 54.8887 110.653 54.9323 110.414 54.7745C110.174 54.6166 109.548 54.3282 109.44 54.9921C109.331 55.6561 109.494 56.9785 110.114 56.9513C110.735 56.9241 111.371 57.3921 111.769 56.7173Z" fill="black"/>
<path d="M82.48 68.4177L81.2827 77.2774C81.2721 77.3466 81.2361 77.4094 81.1818 77.4536C81.1275 77.4979 81.0588 77.5204 80.9889 77.5169L77.1794 77.2883C77.1096 77.2817 77.0445 77.2499 76.9964 77.1988C76.9484 77.1478 76.9205 77.0809 76.9182 77.0108L76.891 75.0135L76.8202 70.3551L76.7876 68.0912L82.48 68.4177Z" fill="#FF7F2D"/>
<path opacity="0.3" d="M82.48 68.4177L81.2827 77.2774C81.2721 77.3466 81.2361 77.4094 81.1818 77.4536C81.1275 77.4979 81.0588 77.5204 80.9889 77.5169L77.1794 77.2883C77.1096 77.2817 77.0445 77.2499 76.9964 77.1988C76.9484 77.1478 76.9205 77.0809 76.9182 77.0108L76.891 75.0135L76.8202 70.3551L76.7876 68.0912L82.48 68.4177Z" fill="#FF7F2D"/>
<path d="M83.1266 68.0151L76.1787 67.5974L76.1248 68.4938L83.0727 68.9114L83.1266 68.0151Z" fill="#9068D5"/>
<path d="M82.6869 67.5378L76.6733 67.1763L76.6195 68.0726L82.633 68.4341L82.6869 67.5378Z" fill="#9068D5"/>
<path d="M82.6869 67.5378L76.6733 67.1763L76.6195 68.0726L82.633 68.4341L82.6869 67.5378Z" fill="#F5F5F5"/>
<path d="M83.1266 68.0151L76.1787 67.5974L76.1248 68.4938L83.0727 68.9114L83.1266 68.0151Z" fill="#EBEBEB"/>
<path opacity="0.43" d="M79.062 70.4748L78.7844 75.1115L76.8525 74.9972L76.7817 70.3388L79.062 70.4748Z" fill="#EBEBEB"/>
<path d="M131.861 97.9573L111.295 97.4947C111.028 97.4794 110.768 97.4087 110.529 97.2871C110.291 97.1655 110.081 96.9956 109.912 96.7883C109.743 96.581 109.619 96.3407 109.548 96.0829C109.477 95.8251 109.461 95.5553 109.5 95.2907L111.203 77.2611C111.21 76.9973 111.276 76.7384 111.395 76.5029C111.514 76.2673 111.684 76.0609 111.891 75.8982C112.099 75.7356 112.34 75.6208 112.598 75.5619C112.855 75.5031 113.122 75.5016 113.38 75.5577L133.515 80.1726C134.201 80.3304 134.691 81.2175 134.604 82.1426L133.298 96.292C133.2 97.2063 132.563 97.9573 131.861 97.9573Z" fill="#9068D5"/>
<path opacity="0.3" d="M131.861 97.9573L111.295 97.4947C111.028 97.4794 110.768 97.4087 110.529 97.2871C110.291 97.1655 110.081 96.9956 109.912 96.7883C109.743 96.581 109.619 96.3407 109.548 96.0829C109.477 95.8251 109.461 95.5553 109.5 95.2907L111.203 77.2611C111.21 76.9973 111.276 76.7384 111.395 76.5029C111.514 76.2673 111.684 76.0609 111.891 75.8982C112.099 75.7356 112.34 75.6208 112.598 75.5619C112.855 75.5031 113.122 75.5016 113.38 75.5577L133.515 80.1726C134.201 80.3304 134.691 81.2175 134.604 82.1426L133.298 96.292C133.2 97.2063 132.563 97.9573 131.861 97.9573Z" fill="white"/>
<path d="M132.242 97.9573L111.861 97.4947C111.598 97.4786 111.341 97.4081 111.106 97.2876C110.871 97.1672 110.664 96.9994 110.497 96.7949C110.331 96.5904 110.208 96.3536 110.138 96.0994C110.067 95.8452 110.05 95.5791 110.087 95.3179L111.78 77.3591C111.784 77.099 111.846 76.8431 111.96 76.6095C112.074 76.3758 112.238 76.17 112.441 76.0066C112.643 75.8432 112.879 75.7261 113.131 75.6636C113.384 75.6011 113.647 75.5947 113.902 75.6448L133.853 80.2162C134.538 80.3685 135.023 81.2556 134.941 82.1807L133.64 96.2703C133.553 97.2172 132.917 97.9573 132.242 97.9573Z" fill="#9068D5"/>
<path opacity="0.7" d="M132.242 97.9573L111.861 97.4947C111.598 97.4786 111.341 97.4081 111.106 97.2876C110.871 97.1672 110.664 96.9994 110.497 96.7949C110.331 96.5904 110.208 96.3536 110.138 96.0994C110.067 95.8452 110.05 95.5791 110.087 95.3179L111.78 77.3591C111.784 77.099 111.846 76.8431 111.96 76.6095C112.074 76.3758 112.238 76.17 112.441 76.0066C112.643 75.8432 112.879 75.7261 113.131 75.6636C113.384 75.6011 113.647 75.5947 113.902 75.6448L133.853 80.2162C134.538 80.3685 135.023 81.2556 134.941 82.1807L133.64 96.2703C133.553 97.2172 132.917 97.9573 132.242 97.9573Z" fill="white"/>
<path d="M132.318 97.1192L111.959 96.4553C111.835 96.452 111.712 96.4227 111.6 96.3693C111.487 96.3159 111.387 96.2395 111.306 96.1451C111.212 96.0336 111.142 95.9044 111.099 95.7651C111.056 95.6258 111.041 95.4793 111.056 95.3342L112.732 77.5659C112.744 77.4248 112.785 77.2878 112.853 77.1633C112.92 77.0388 113.012 76.9295 113.124 76.8421C113.224 76.7704 113.339 76.7203 113.459 76.695C113.58 76.6697 113.705 76.6697 113.826 76.6951L133.804 81.0488C133.995 81.1296 134.154 81.2735 134.253 81.4565C134.352 81.6396 134.385 81.8509 134.348 82.0556L133.042 96.2539C133.046 96.4612 132.975 96.6629 132.842 96.8219C132.709 96.9809 132.523 97.0865 132.318 97.1192ZM113.614 76.7822C113.455 76.7818 113.3 76.8334 113.173 76.9292C113.073 77.0066 112.99 77.1043 112.93 77.2159C112.87 77.3275 112.834 77.4504 112.825 77.5768L111.143 95.3451C111.118 95.6081 111.198 95.8702 111.366 96.0744C111.438 96.1571 111.527 96.224 111.626 96.2708C111.725 96.3177 111.833 96.3434 111.943 96.3465L132.302 97.0158C132.606 97.0158 132.884 96.6784 132.922 96.2594L134.228 82.061C134.264 81.8791 134.236 81.6903 134.147 81.5273C134.059 81.3643 133.916 81.2374 133.744 81.1685L113.771 76.8149C113.72 76.7973 113.667 76.7864 113.614 76.7822Z" fill="white"/>
<path d="M123.91 91.1874H123.703C123.384 91.1503 123.076 91.0504 122.795 90.8935C122.515 90.7366 122.269 90.5257 122.071 90.2731C121.482 89.5265 121.21 88.5786 121.314 87.6337C121.345 87.1724 121.47 86.7221 121.68 86.3105C121.891 85.8988 122.183 85.5343 122.539 85.2392C122.788 85.0395 123.075 84.8935 123.383 84.8101C123.691 84.7268 124.013 84.708 124.329 84.7548C124.675 84.8157 125.004 84.9483 125.296 85.1442C125.587 85.3401 125.835 85.5949 126.022 85.8922C126.026 85.8968 126.03 85.9023 126.033 85.9084C126.035 85.9144 126.037 85.921 126.037 85.9276C126.037 85.9342 126.035 85.9407 126.033 85.9468C126.03 85.9529 126.026 85.9584 126.022 85.963C126.017 85.9677 126.011 85.9715 126.005 85.9741C125.999 85.9767 125.993 85.9781 125.986 85.9781C125.98 85.9781 125.973 85.9767 125.967 85.9741C125.961 85.9715 125.955 85.9677 125.951 85.963C125.768 85.6788 125.529 85.4354 125.248 85.2481C124.967 85.0608 124.651 84.9336 124.318 84.8746C124.016 84.8304 123.709 84.8492 123.415 84.9298C123.121 85.0103 122.846 85.1509 122.609 85.3426C122.265 85.6278 121.983 85.9799 121.779 86.3774C121.575 86.775 121.454 87.2097 121.423 87.6555C121.323 88.5748 121.586 89.4968 122.158 90.2241C122.55 90.7126 123.119 91.0272 123.741 91.1003C124.07 91.1245 124.399 91.0772 124.707 90.9616C125.015 90.846 125.295 90.665 125.526 90.4309C125.536 90.4209 125.55 90.4154 125.564 90.4154C125.579 90.4154 125.592 90.4209 125.602 90.4309C125.611 90.4416 125.616 90.4551 125.616 90.469C125.616 90.4829 125.611 90.4964 125.602 90.5071C125.379 90.7265 125.115 90.8996 124.824 91.0164C124.534 91.1331 124.223 91.1912 123.91 91.1874Z" fill="white"/>
<path d="M125.532 90.4962C125.518 90.5012 125.502 90.5012 125.488 90.4962C125.016 89.7884 124.806 88.9373 124.895 88.0908C124.962 87.2653 125.325 86.492 125.918 85.914C125.929 85.9039 125.944 85.8985 125.958 85.899C125.973 85.8995 125.987 85.9059 125.997 85.9167C126.007 85.9275 126.013 85.9419 126.012 85.9567C126.012 85.9715 126.005 85.9855 125.995 85.9956C125.41 86.5568 125.055 87.3152 124.999 88.1235C124.915 88.9433 125.119 89.7668 125.575 90.4527C125.581 90.4573 125.586 90.4631 125.589 90.4697C125.592 90.4763 125.594 90.4835 125.594 90.4908C125.594 90.4981 125.592 90.5053 125.589 90.5119C125.586 90.5185 125.581 90.5243 125.575 90.5289L125.532 90.4962Z" fill="white"/>
<path d="M128.335 58.1213C129.08 60.9893 129.728 63.8518 130.305 66.7579C130.593 68.2109 130.849 69.664 131.105 71.1388C131.23 71.8735 131.355 72.6136 131.458 73.3646L131.611 74.4965L131.698 75.1006L131.736 75.389L131.769 75.7373C131.885 77.4139 131.801 79.0983 131.518 80.7549C131.274 82.2845 130.947 83.7996 130.539 85.2936C129.748 88.2111 128.731 91.0624 127.496 93.8213L124.449 92.8363C124.993 90.0282 125.434 87.1493 125.788 84.3521C125.962 82.9535 126.087 81.5603 126.152 80.2053C126.231 78.9533 126.178 77.6966 125.994 76.4557L125.962 76.2598L125.907 76.0094L125.804 75.4979L125.575 74.4693L125.091 72.3796L124.079 68.1347C123.393 65.3212 122.713 62.475 122.076 59.6506L128.335 58.1213Z" fill="#E4897B"/>
<path d="M127.627 91.4867L125.015 91.8513L122.914 95.2961L121.989 97.9246L126.163 97.7178L127.165 96.1233C127.165 96.1233 129.02 93.7614 127.627 91.4867Z" fill="#E4897B"/>
<path d="M124.329 53.2724C128.683 54.0452 133.445 70.2789 133.445 70.2789L123.393 73.7129C123.393 73.7129 120.041 65.6532 120.672 60.6519C121.271 55.7105 120.199 52.5378 124.329 53.2724Z" fill="#9068D5"/>
<path opacity="0.3" d="M124.329 53.2724C128.683 54.0452 133.445 70.2789 133.445 70.2789L123.393 73.7129C123.393 73.7129 120.041 65.6532 120.672 60.6519C121.271 55.7105 120.199 52.5378 124.329 53.2724Z" fill="black"/>
<path d="M172.546 47.1719C170.68 46.4535 165.814 44.7175 168.802 38.8564C171.79 32.9953 179.071 40.9951 181.547 38.3122C181.221 41.7135 178.309 49.3868 172.546 47.1719Z" fill="#263238"/>
<path d="M169.205 47.3787C166.995 46.2631 166.484 45.2019 166.337 44.723C166.319 44.656 166.317 44.5855 166.334 44.518C166.35 44.4504 166.383 44.3881 166.429 44.3366C166.843 43.8686 168.144 42.5897 169.259 43.689C170.375 44.7883 171.436 44.9026 169.738 47.2427C169.68 47.325 169.594 47.3839 169.496 47.4088C169.399 47.4338 169.295 47.4231 169.205 47.3787Z" fill="#9068D5"/>
<path opacity="0.3" d="M169.205 47.3787C166.995 46.2631 166.484 45.2019 166.337 44.723C166.319 44.656 166.317 44.5855 166.334 44.518C166.35 44.4504 166.383 44.3881 166.429 44.3366C166.843 43.8686 168.144 42.5897 169.259 43.689C170.375 44.7883 171.436 44.9026 169.738 47.2427C169.68 47.325 169.594 47.3839 169.496 47.4088C169.399 47.4338 169.295 47.4231 169.205 47.3787Z" fill="black"/>
<path d="M165.76 66.6055C163.07 66.4121 160.369 66.4121 157.679 66.6055C159.502 64.8695 158.99 59.8682 158.479 57.2669L161.913 60.2002L163.442 61.5063C163.318 61.9681 163.234 62.4397 163.192 62.9158C163.055 64.5212 163.523 66.0668 165.76 66.6055Z" fill="#E4897B"/>
<path d="M174.593 72.5537C174.685 73.5442 174.8 74.6326 174.936 75.672C175.072 76.7115 175.235 77.7781 175.409 78.823C175.753 80.9027 176.207 82.9627 176.77 84.9943C177.058 85.9956 177.368 86.9861 177.728 87.9493L178.201 89.1792C178.277 89.3713 178.392 89.5456 178.538 89.6908C178.741 89.844 178.982 89.9382 179.235 89.9629C179.632 90.0052 180.033 89.9943 180.427 89.9302C181.379 89.7642 182.308 89.4884 183.197 89.1085L184.465 90.9316C184.008 91.3481 183.516 91.725 182.995 92.0581C182.468 92.4077 181.906 92.703 181.319 92.9397C180.666 93.2078 179.976 93.3765 179.273 93.4404C178.399 93.5264 177.518 93.3686 176.729 92.9843C175.939 92.6 175.271 92.0044 174.8 91.2635C174.59 90.9615 174.407 90.6409 174.255 90.3057L173.896 89.5058C173.423 88.4173 173.02 87.3289 172.661 86.2405C171.952 84.0695 171.39 81.8532 170.979 79.6066C170.756 78.5182 170.582 77.3754 170.435 76.2543C170.288 75.1332 170.163 74.0285 170.092 72.8258L174.593 72.5537Z" fill="#E4897B"/>
<path d="M173.172 67.4817C174.979 67.9388 176.242 75.3727 176.242 75.3727L171.262 78.7577C171.262 78.7577 166.489 71.2585 167.877 69.2776C169.325 67.215 170.533 66.8232 173.172 67.4817Z" fill="#9068D5"/>
<path opacity="0.7" d="M173.172 67.4817C174.979 67.9388 176.242 75.3727 176.242 75.3727L171.262 78.7577C171.262 78.7577 166.489 71.2585 167.877 69.2776C169.325 67.215 170.533 66.8232 173.172 67.4817Z" fill="black"/>
<path d="M191.539 80.5808L184.154 79.3998L183.778 80.9236L180.1 88.8963L187.485 90.0772L191.163 82.1046L191.539 80.5808Z" fill="#263238"/>
<path d="M191.958 80.6515L184.573 79.4706L184.198 80.9889L180.519 88.967L187.904 90.1479L191.583 82.1699L191.958 80.6515Z" fill="#9068D5"/>
<path d="M184.28 91.0404L187.768 88.3194L183.414 87.4051C183.414 87.4051 181.58 89.5384 182.239 91.2146L184.28 91.0404Z" fill="#E4897B"/>
<path d="M188.655 84.7385L184.96 84.1671L183.403 87.3997L187.768 88.3139L188.655 84.7385Z" fill="#E4897B"/>
<path d="M173.172 67.4817C173.172 67.4817 175.257 68.2164 171.077 93.9356H153.276C153.575 86.6868 153.581 82.2243 150.12 67.3565C152.613 66.853 155.139 66.5311 157.679 66.3933C160.369 66.1999 163.07 66.1999 165.76 66.3933C169.249 66.6872 173.172 67.4817 173.172 67.4817Z" fill="#9068D5"/>
<path opacity="0.7" d="M173.172 67.4817C173.172 67.4817 175.257 68.2164 171.077 93.9356H153.276C153.575 86.6868 153.581 82.2243 150.12 67.3565C152.613 66.853 155.139 66.5311 157.679 66.3933C160.369 66.1999 163.07 66.1999 165.76 66.3933C169.249 66.6872 173.172 67.4817 173.172 67.4817Z" fill="black"/>
<path d="M163.251 192.606H167.632L168.22 182.456H163.839L163.251 192.606Z" fill="#E4897B"/>
<path d="M143.312 192.606H147.693L149.576 182.456H145.195L143.312 192.606Z" fill="#E4897B"/>
<path d="M148.139 192.105H143.241C143.156 192.104 143.074 192.134 143.01 192.189C142.946 192.244 142.904 192.321 142.893 192.404L142.348 196.301C142.338 196.399 142.348 196.499 142.378 196.593C142.409 196.687 142.459 196.774 142.525 196.847C142.591 196.921 142.672 196.98 142.763 197.019C142.853 197.059 142.951 197.08 143.05 197.079C144.765 197.052 145.592 196.949 147.758 196.949C149.091 196.949 151.023 197.09 152.879 197.09C154.735 197.09 154.816 195.267 154.049 195.104C150.615 194.364 150.071 193.346 148.917 192.383C148.7 192.198 148.423 192.099 148.139 192.105Z" fill="#263238"/>
<path d="M167.932 192.105H163.007C162.922 192.103 162.839 192.133 162.775 192.188C162.711 192.243 162.669 192.32 162.658 192.404L162.114 196.301C162.103 196.399 162.113 196.499 162.144 196.593C162.174 196.687 162.224 196.774 162.291 196.847C162.357 196.921 162.438 196.98 162.529 197.019C162.619 197.059 162.717 197.08 162.816 197.079C164.53 197.052 165.357 196.949 167.523 196.949C168.857 196.949 171.61 197.09 173.45 197.09C175.289 197.09 175.387 195.267 174.625 195.104C171.186 194.364 169.836 193.346 168.677 192.383C168.47 192.203 168.205 192.105 167.932 192.105Z" fill="#263238"/>
<path d="M168.22 182.462L167.915 187.692H163.534L163.839 182.462H168.22Z" fill="#CE6F64"/>
<path d="M145.195 182.462H149.576L148.607 187.692H144.221L145.195 182.462Z" fill="#CE6F64"/>
<path d="M158.446 65.0545C157.855 65.3256 157.346 65.748 156.971 66.279C157.401 66.981 160.715 68.2926 161.613 68.2109C161.581 67.4974 161.798 66.795 162.228 66.2246C162.228 66.2246 159.921 66.1484 158.446 65.0545Z" fill="#9068D5"/>
<path d="M163.806 65.1688C164.405 65.4278 164.957 65.7846 165.439 66.2246C165.254 66.8232 163.806 67.9116 163.175 68.1511C163.048 67.4289 162.713 66.7595 162.212 66.2246C162.817 65.9987 163.362 65.6376 163.806 65.1688Z" fill="#9068D5"/>
<path d="M171.077 93.9465C171.077 93.9465 174.532 127.687 174.244 141.069C173.945 154.974 168.851 186.679 168.851 186.679H162.925C162.925 186.679 163.866 155.785 163.338 142.131C162.767 127.247 158.043 93.9465 158.043 93.9465H171.077Z" fill="#FF7F2D"/>
<path d="M166.375 93.9465C166.375 93.9465 163.834 124.025 161.195 140.977C159.061 154.669 149.608 186.69 149.608 186.69H143.622C143.622 186.69 148.553 155.779 149.608 142.234C152.329 107.949 147.546 101.897 153.249 93.9574L166.375 93.9465Z" fill="#FF7F2D"/>
<path opacity="0.57" d="M162.301 79.9958L164.678 80.0797C165.786 80.1188 166.716 79.2519 166.755 78.1436L166.836 75.8648C166.875 74.7564 166.008 73.8262 164.9 73.7871L162.523 73.7033C161.415 73.6642 160.484 74.531 160.445 75.6394L160.365 77.9182C160.326 79.0265 161.193 79.9567 162.301 79.9958Z" fill="#9068D5"/>
<path d="M163.442 61.4954C163.318 61.9572 163.235 62.4288 163.192 62.9049C162 62.6981 160.438 61.5172 160.318 60.3907C160.246 59.923 160.268 59.4456 160.384 58.9866L161.913 60.1893L163.442 61.4954Z" fill="#CE6F64"/>
<path d="M157.069 51.3514C157.336 55.7051 157.358 57.5336 159.551 59.7648C162.849 63.1172 168.122 61.8383 169.156 57.5064C170.092 53.6044 169.499 47.1664 165.249 45.4304C164.313 45.0442 163.295 44.9037 162.29 45.0224C161.285 45.141 160.327 45.5149 159.507 46.1083C158.687 46.7017 158.033 47.4951 157.606 48.4128C157.179 49.3305 156.995 50.3421 157.069 51.3514Z" fill="#E4897B"/>
<path d="M156.389 53.2126C156.369 53.2182 156.349 53.2182 156.329 53.2126C156.313 53.2056 156.298 53.1952 156.285 53.1822C156.273 53.1692 156.264 53.1538 156.257 53.137C156.251 53.1201 156.249 53.1022 156.25 53.0843C156.251 53.0664 156.256 53.049 156.264 53.033C156.808 51.9119 161.2 51.1446 161.706 51.0575C163.13 50.8548 164.573 50.8183 166.005 50.9487C166.175 50.8679 166.361 50.826 166.549 50.826C166.738 50.826 166.923 50.8679 167.094 50.9487C168.023 50.8455 168.961 50.8455 169.891 50.9487C169.909 50.9499 169.927 50.955 169.943 50.9635C169.959 50.9721 169.973 50.9839 169.984 50.9983C169.996 51.0126 170.004 51.0292 170.008 51.0469C170.013 51.0646 170.014 51.0831 170.01 51.1011C170.005 51.1363 169.986 51.1679 169.958 51.1893C169.929 51.2107 169.893 51.22 169.858 51.2153C168.938 51.1142 168.009 51.1142 167.088 51.2153C167.065 51.2207 167.041 51.2207 167.017 51.2153C166.88 51.1433 166.726 51.1057 166.571 51.1057C166.416 51.1057 166.263 51.1433 166.125 51.2153C166.11 51.2215 166.094 51.2246 166.079 51.2246C166.063 51.2246 166.047 51.2215 166.032 51.2153C164.609 51.079 163.175 51.1155 161.76 51.3242C160.449 51.5473 156.939 52.3038 156.53 53.1473C156.517 53.1719 156.496 53.1916 156.471 53.2033C156.445 53.2151 156.416 53.2183 156.389 53.2126Z" fill="#263238"/>
<path d="M163.834 54.6112H163.703C163.426 54.6097 163.153 54.547 162.902 54.4275C162.652 54.308 162.431 54.1348 162.256 53.9201C161.472 52.9242 161.782 51.2426 161.793 51.199C161.794 51.1898 161.798 51.181 161.803 51.1731C161.807 51.1652 161.814 51.1585 161.822 51.1534C161.829 51.1482 161.838 51.1448 161.847 51.1433C161.856 51.1417 161.866 51.1422 161.875 51.1446C161.883 51.1459 161.892 51.149 161.899 51.1535C161.907 51.1581 161.913 51.1641 161.918 51.1712C161.923 51.1783 161.927 51.1864 161.929 51.1949C161.931 51.2034 161.931 51.2122 161.929 51.2208C161.929 51.2208 161.619 52.9187 162.365 53.8656C162.528 54.0654 162.734 54.2263 162.968 54.3364C163.201 54.4466 163.456 54.5033 163.714 54.5024C163.961 54.5273 164.21 54.4967 164.444 54.4129C164.677 54.3291 164.889 54.1942 165.064 54.018C165.984 53.0874 165.864 51.1283 165.864 51.1065C165.863 51.0979 165.864 51.0893 165.867 51.0811C165.869 51.0729 165.874 51.0653 165.879 51.0587C165.885 51.0521 165.891 51.0467 165.899 51.0428C165.907 51.0388 165.915 51.0365 165.924 51.0358C165.942 51.0357 165.959 51.0424 165.972 51.0545C165.985 51.0666 165.993 51.0833 165.994 51.1011C165.994 51.1827 166.114 53.1419 165.156 54.116C164.981 54.2831 164.773 54.4131 164.546 54.4981C164.318 54.5832 164.076 54.6217 163.834 54.6112Z" fill="#263238"/>
<path d="M168.661 54.5132C168.452 54.5211 168.243 54.4838 168.05 54.404C167.856 54.3242 167.682 54.2037 167.54 54.0507C166.712 53.1419 166.995 51.248 166.995 51.1664C166.996 51.1574 166.998 51.1486 167.003 51.1407C167.007 51.1329 167.013 51.126 167.02 51.1208C167.028 51.1156 167.036 51.1121 167.045 51.1105C167.054 51.109 167.063 51.1095 167.072 51.112C167.08 51.1133 167.089 51.1163 167.096 51.1209C167.103 51.1254 167.11 51.1315 167.115 51.1386C167.12 51.1457 167.124 51.1537 167.126 51.1622C167.127 51.1707 167.128 51.1796 167.126 51.1881C167.126 51.1881 166.843 53.0983 167.621 53.9582C167.766 54.1119 167.945 54.2299 168.143 54.3026C168.342 54.3754 168.554 54.4009 168.764 54.3772C168.906 54.3722 169.044 54.3354 169.17 54.2694C169.295 54.2035 169.404 54.1101 169.488 53.9963C170.136 53.1364 169.678 51.1065 169.673 51.0847C169.671 51.0669 169.675 51.0489 169.685 51.034C169.695 51.0191 169.71 51.0081 169.727 51.0031C169.736 51.0007 169.746 51.0002 169.755 51.0018C169.764 51.0033 169.773 51.0067 169.78 51.0119C169.788 51.017 169.795 51.0237 169.8 51.0316C169.805 51.0395 169.808 51.0483 169.809 51.0575C169.809 51.1446 170.282 53.1691 169.597 54.0779C169.5 54.2073 169.375 54.3136 169.232 54.3889C169.089 54.4642 168.931 54.5067 168.77 54.5132H168.661Z" fill="#263238"/>
<path d="M156.389 53.648C163.099 52.2875 165.935 46.1651 165.935 46.1651C165.935 46.1651 165.08 43.4441 161.162 43.8087C158.044 44.108 151.747 49.5664 156.389 53.648Z" fill="#263238"/>
<path d="M153.717 47.2372C155.84 46.5569 161.336 44.9298 157.635 38.5027C153.935 32.0756 145.902 40.3094 142.942 37.3163C143.492 40.9734 147.187 49.3324 153.717 47.2372Z" fill="#263238"/>
<path d="M169.2 50.8888C166.675 45.61 162.343 45.2128 162.343 45.2128C162.343 45.2128 164.775 43.0849 168.111 45.1529C170.5 46.6386 170.13 49.1963 169.2 50.8888Z" fill="#263238"/>
<path d="M156.019 53.7622C156.109 54.5995 156.528 55.3668 157.183 55.8955C158.054 56.5867 158.919 55.8955 159.039 54.8615C159.148 53.9146 158.821 52.418 157.771 52.1405C157.541 52.0829 157.3 52.0835 157.071 52.1422C156.841 52.201 156.63 52.3161 156.456 52.4771C156.282 52.6381 156.151 52.8399 156.075 53.0643C155.998 53.2887 155.979 53.5286 156.019 53.7622Z" fill="#E4897B"/>
<path d="M163.627 53.2072C163.858 53.2072 164.046 52.9196 164.046 52.565C164.046 52.2103 163.858 51.9228 163.627 51.9228C163.395 51.9228 163.208 52.2103 163.208 52.565C163.208 52.9196 163.395 53.2072 163.627 53.2072Z" fill="#263238"/>
<path d="M167.692 53.2072C167.923 53.2072 168.111 52.9196 168.111 52.565C168.111 52.2103 167.923 51.9228 167.692 51.9228C167.461 51.9228 167.273 52.2103 167.273 52.565C167.273 52.9196 167.461 53.2072 167.692 53.2072Z" fill="#263238"/>
<path d="M167.616 51.9446L168.465 51.6997C168.465 51.6997 168.003 52.3636 167.616 51.9446Z" fill="#263238"/>
<path d="M166.593 53.1691C166.909 53.9756 167.334 54.7354 167.855 55.4275C167.675 55.5561 167.468 55.6436 167.25 55.684C167.032 55.7244 166.808 55.7168 166.593 55.6615V53.1691Z" fill="#DE5753"/>
<path d="M165.352 57.0547C164.877 57.068 164.406 56.9673 163.978 56.7609C163.55 56.5544 163.177 56.2484 162.892 55.8683C162.878 55.8443 162.873 55.8157 162.879 55.7883C162.885 55.7609 162.902 55.737 162.925 55.7214C162.948 55.7071 162.976 55.7026 163.002 55.7087C163.029 55.7148 163.052 55.7311 163.066 55.754C163.336 56.1008 163.684 56.3797 164.08 56.5687C164.477 56.7576 164.913 56.8514 165.352 56.8425C165.379 56.8438 165.405 56.8551 165.424 56.8742C165.443 56.8933 165.454 56.9189 165.455 56.9459C165.456 56.9599 165.454 56.9739 165.449 56.9871C165.444 57.0003 165.437 57.0123 165.427 57.0225C165.417 57.0327 165.406 57.0408 165.393 57.0463C165.38 57.0519 165.366 57.0547 165.352 57.0547Z" fill="#263238"/>
<path d="M162.647 49.6154C162.603 49.6148 162.56 49.5999 162.525 49.5729C162.489 49.5459 162.464 49.5082 162.451 49.4654C162.439 49.4226 162.441 49.3771 162.457 49.3354C162.472 49.2938 162.501 49.2584 162.539 49.2344C162.905 49.0215 163.313 48.8934 163.735 48.8595C164.157 48.8256 164.582 48.8867 164.977 49.0385C165.002 49.0487 165.025 49.0638 165.045 49.0831C165.065 49.1023 165.08 49.1253 165.091 49.1506C165.102 49.1759 165.107 49.2031 165.107 49.2306C165.107 49.2581 165.102 49.2853 165.091 49.3106C165.068 49.3603 165.027 49.3993 164.977 49.4195C164.926 49.4398 164.87 49.4398 164.819 49.4195C164.483 49.2961 164.125 49.2472 163.769 49.2764C163.413 49.3055 163.067 49.4119 162.756 49.5882C162.723 49.6074 162.686 49.6168 162.647 49.6154Z" fill="#263238"/>
<path d="M168.536 49.4032C168.495 49.4034 168.456 49.392 168.421 49.3705C168.206 49.2234 167.959 49.1298 167.701 49.0976C167.443 49.0655 167.18 49.0956 166.936 49.1855C166.911 49.1969 166.884 49.2033 166.856 49.2043C166.829 49.2053 166.801 49.2009 166.775 49.1913C166.75 49.1816 166.726 49.1671 166.706 49.1483C166.686 49.1296 166.67 49.1071 166.658 49.0821C166.647 49.0571 166.64 49.03 166.639 49.0026C166.638 48.9751 166.643 48.9477 166.652 48.9219C166.662 48.8961 166.677 48.8725 166.695 48.8523C166.714 48.8322 166.737 48.816 166.762 48.8045C167.07 48.6872 167.402 48.6457 167.73 48.6836C168.057 48.7214 168.371 48.8376 168.644 49.0222C168.69 49.0513 168.723 49.0973 168.735 49.1503C168.747 49.2033 168.738 49.2589 168.71 49.3052C168.692 49.3353 168.666 49.3601 168.636 49.3773C168.605 49.3945 168.571 49.4034 168.536 49.4032Z" fill="#263238"/>
<path d="M149.657 192.867C149.266 192.858 148.878 192.807 148.498 192.715C148.477 192.71 148.458 192.699 148.444 192.683C148.429 192.668 148.42 192.648 148.416 192.628C148.412 192.607 148.413 192.586 148.421 192.566C148.429 192.547 148.442 192.53 148.46 192.519C148.612 192.415 149.951 191.556 150.457 191.79C150.515 191.816 150.564 191.857 150.601 191.909C150.639 191.96 150.662 192.02 150.669 192.083C150.688 192.181 150.682 192.283 150.651 192.378C150.621 192.473 150.567 192.559 150.495 192.628C150.254 192.806 149.956 192.891 149.657 192.867ZM148.802 192.557C149.559 192.709 150.125 192.682 150.348 192.481C150.395 192.434 150.429 192.375 150.447 192.312C150.465 192.248 150.466 192.181 150.451 192.116C150.451 192.089 150.444 192.062 150.429 192.039C150.415 192.016 150.394 191.998 150.37 191.985C150.087 191.866 149.325 192.23 148.786 192.557H148.802Z" fill="#9068D5"/>
<path d="M148.503 192.715C148.486 192.72 148.467 192.72 148.449 192.715C148.433 192.705 148.421 192.691 148.412 192.675C148.403 192.659 148.399 192.641 148.4 192.622C148.4 192.568 148.4 191.305 148.879 190.881C148.939 190.826 149.01 190.786 149.087 190.762C149.164 190.739 149.245 190.733 149.325 190.745C149.409 190.747 149.489 190.777 149.553 190.83C149.617 190.883 149.662 190.957 149.679 191.039C149.777 191.534 148.977 192.481 148.558 192.715C148.54 192.72 148.521 192.72 148.503 192.715ZM149.249 190.941C149.166 190.94 149.086 190.971 149.026 191.028C148.752 191.43 148.61 191.907 148.618 192.394C149.037 192.062 149.527 191.36 149.467 191.06C149.467 191.017 149.429 190.957 149.298 190.941H149.249Z" fill="#9068D5"/>
<path d="M169.575 192.867C169.112 192.858 168.651 192.807 168.198 192.715C168.176 192.71 168.156 192.699 168.141 192.684C168.125 192.668 168.115 192.647 168.112 192.625C168.108 192.603 168.111 192.581 168.121 192.561C168.131 192.541 168.146 192.524 168.165 192.513C168.367 192.41 170.114 191.517 170.652 191.811C170.704 191.838 170.747 191.878 170.778 191.927C170.81 191.975 170.828 192.031 170.832 192.089C170.843 192.183 170.831 192.278 170.798 192.367C170.765 192.456 170.711 192.536 170.641 192.6C170.326 192.807 169.95 192.901 169.575 192.867ZM168.557 192.557C169.52 192.72 170.233 192.677 170.495 192.437C170.54 192.397 170.574 192.346 170.595 192.289C170.616 192.232 170.623 192.171 170.614 192.111C170.615 192.088 170.609 192.066 170.597 192.047C170.586 192.028 170.569 192.012 170.549 192.002C170.261 191.838 169.248 192.219 168.557 192.557Z" fill="#9068D5"/>
<path d="M168.215 192.715C168.195 192.722 168.174 192.722 168.155 192.715C168.139 192.705 168.127 192.691 168.119 192.675C168.111 192.659 168.109 192.64 168.111 192.622C168.111 192.568 168.215 191.387 168.77 190.93C168.848 190.861 168.94 190.81 169.039 190.779C169.139 190.748 169.243 190.738 169.347 190.75C169.651 190.75 169.722 190.946 169.739 191.044C169.82 191.55 168.797 192.486 168.264 192.726L168.215 192.715ZM169.26 190.941C169.13 190.941 169.004 190.987 168.906 191.071C168.588 191.451 168.398 191.921 168.362 192.415C168.906 192.089 169.586 191.354 169.537 191.06C169.537 191.033 169.537 190.962 169.336 190.941H169.26Z" fill="#9068D5"/>
<path d="M163.523 51.9446L164.351 51.6997C164.351 51.6997 163.937 52.3636 163.523 51.9446Z" fill="#263238"/>
<path d="M149.858 186.821H143.17L143.23 182.924L151.153 183.011L149.858 186.821Z" fill="#9068D5"/>
<path opacity="0.7" d="M149.858 186.821H143.17L143.23 182.924L151.153 183.011L149.858 186.821Z" fill="white"/>
<path d="M169.635 186.821H162.386L162.441 182.924L170.109 183.011L169.635 186.821Z" fill="#9068D5"/>
<path opacity="0.7" d="M169.635 186.821H162.386L162.441 182.924L170.109 183.011L169.635 186.821Z" fill="white"/>
<path d="M153.08 93.0594L152.28 94.6539C152.215 94.7737 152.361 94.8988 152.568 94.8988H171.235C171.392 94.8988 171.528 94.8226 171.539 94.7192L171.697 93.1302C171.697 93.0159 171.572 92.9234 171.392 92.9234H153.368C153.312 92.9184 153.256 92.9284 153.206 92.9523C153.155 92.9762 153.111 93.0132 153.08 93.0594Z" fill="#9068D5"/>
<path opacity="0.6" d="M153.08 93.0594L152.28 94.6539C152.215 94.7737 152.361 94.8988 152.568 94.8988H171.235C171.392 94.8988 171.528 94.8226 171.539 94.7192L171.697 93.1302C171.697 93.0159 171.572 92.9234 171.392 92.9234H153.368C153.312 92.9184 153.256 92.9284 153.206 92.9523C153.155 92.9762 153.111 93.0132 153.08 93.0594Z" fill="white"/>
<path d="M154.74 94.9152H154.256C154.158 94.9152 154.087 94.8662 154.093 94.8064L154.321 92.7329C154.321 92.6731 154.408 92.6241 154.506 92.6241H154.991C155.083 92.6241 155.159 92.6731 155.154 92.7329L154.925 94.8064C154.92 94.8662 154.833 94.9152 154.74 94.9152Z" fill="#9068D5"/>
<path d="M170.337 94.9152H169.852C169.76 94.9152 169.684 94.8662 169.689 94.8064L169.918 92.7329C169.918 92.6731 170.01 92.6241 170.103 92.6241H170.587C170.685 92.6241 170.756 92.6731 170.75 92.7329L170.522 94.8064C170.516 94.8662 170.435 94.9152 170.337 94.9152Z" fill="#9068D5"/>
<path d="M164.03 94.9152H163.551C163.453 94.9152 163.382 94.8662 163.388 94.8064L163.611 92.7329C163.611 92.6731 163.703 92.6241 163.801 92.6241H164.285C164.378 92.6241 164.454 92.6731 164.443 92.7329L164.22 94.8064C164.215 94.8662 164.128 94.9152 164.03 94.9152Z" fill="#9068D5"/>
<path d="M156.623 91.971H157.412C157.513 91.9694 157.61 91.9319 157.686 91.865C157.762 91.7982 157.812 91.7065 157.826 91.6064C157.833 91.5603 157.83 91.5133 157.817 91.4685C157.804 91.4237 157.782 91.3822 157.751 91.347C157.72 91.3118 157.683 91.2836 157.64 91.2645C157.597 91.2454 157.551 91.2358 157.505 91.2364H156.732C156.63 91.2381 156.532 91.2765 156.456 91.3444C156.38 91.4124 156.331 91.5054 156.318 91.6064C156.311 91.6509 156.314 91.6963 156.326 91.7397C156.338 91.7831 156.359 91.8234 156.388 91.8579C156.417 91.8924 156.453 91.9204 156.493 91.9399C156.534 91.9594 156.578 91.97 156.623 91.971Z" fill="#E0E0E0"/>
<path d="M157.385 92.9288L157.51 91.8948C157.519 91.8344 157.516 91.7725 157.499 91.7137C157.481 91.655 157.452 91.6007 157.411 91.5549C157.37 91.5091 157.32 91.4728 157.264 91.4488C157.207 91.4248 157.146 91.4135 157.085 91.4159C156.952 91.415 156.822 91.4633 156.722 91.5516C156.621 91.6399 156.557 91.7621 156.541 91.8948L156.416 92.9288C156.406 92.9893 156.41 93.0511 156.427 93.1099C156.444 93.1687 156.474 93.223 156.515 93.2688C156.555 93.3146 156.606 93.3508 156.662 93.3749C156.718 93.3989 156.779 93.4101 156.84 93.4077C156.974 93.4087 157.103 93.3604 157.204 93.2721C157.304 93.1838 157.369 93.0616 157.385 92.9288Z" fill="#E0E0E0"/>
<path d="M167.91 91.971H168.704C168.805 91.9693 168.901 91.9315 168.976 91.8646C169.051 91.7976 169.099 91.706 169.112 91.6064C169.119 91.5603 169.116 91.5133 169.103 91.4685C169.091 91.4237 169.068 91.3822 169.037 91.347C169.007 91.3118 168.969 91.2836 168.927 91.2645C168.884 91.2454 168.838 91.2358 168.791 91.2364H167.997C167.895 91.2403 167.799 91.2794 167.723 91.3469C167.648 91.4145 167.598 91.5062 167.583 91.6064C167.577 91.6525 167.581 91.6995 167.594 91.744C167.608 91.7885 167.631 91.8296 167.662 91.8643C167.693 91.8989 167.731 91.9265 167.774 91.9449C167.817 91.9633 167.863 91.9723 167.91 91.971Z" fill="#E0E0E0"/>
<path d="M168.666 92.9288L168.792 91.8948C168.801 91.8344 168.797 91.7725 168.78 91.7137C168.763 91.655 168.733 91.6007 168.693 91.5549C168.652 91.5091 168.602 91.4728 168.545 91.4488C168.489 91.4248 168.428 91.4135 168.367 91.4159C168.233 91.415 168.104 91.4633 168.004 91.5516C167.903 91.6399 167.839 91.7621 167.823 91.8948L167.698 92.9288C167.689 92.9891 167.693 93.0506 167.711 93.109C167.728 93.1673 167.758 93.2212 167.799 93.2668C167.839 93.3123 167.889 93.3486 167.945 93.3729C168.001 93.3973 168.061 93.4092 168.122 93.4077C168.256 93.4087 168.385 93.3604 168.486 93.2721C168.586 93.1838 168.65 93.0616 168.666 92.9288Z" fill="#E0E0E0"/>
<path d="M154.147 66.3933L155.034 66.3062C155.101 66.3011 155.169 66.3194 155.224 66.3581C155.28 66.3968 155.32 66.4534 155.339 66.5185C159.034 78.7958 157.624 91.6282 157.624 91.6282H156.487C157.347 76.3577 154.37 68.3851 153.902 66.747C153.892 66.7075 153.89 66.6662 153.897 66.6259C153.904 66.5856 153.92 66.5474 153.943 66.5138C153.966 66.4801 153.996 66.452 154.032 66.4312C154.067 66.4104 154.106 66.3975 154.147 66.3933Z" fill="#9068D5"/>
<path opacity="0.6" d="M154.147 66.3933L155.034 66.3062C155.101 66.3011 155.169 66.3194 155.224 66.3581C155.28 66.3968 155.32 66.4534 155.339 66.5185C159.034 78.7958 157.624 91.6282 157.624 91.6282H156.487C157.347 76.3577 154.37 68.3851 153.902 66.747C153.892 66.7075 153.89 66.6662 153.897 66.6259C153.904 66.5856 153.92 66.5474 153.943 66.5138C153.966 66.4801 153.996 66.452 154.032 66.4312C154.067 66.4104 154.106 66.3975 154.147 66.3933Z" fill="white"/>
<path d="M167.801 66.3443L168.579 66.4532C168.639 66.4646 168.695 66.4942 168.737 66.538C168.78 66.5818 168.809 66.6376 168.819 66.698C171.028 76.2326 168.911 91.601 168.911 91.601H167.768C169.216 74.921 167.736 68.2001 167.485 66.6654C167.479 66.6223 167.483 66.5783 167.497 66.5369C167.51 66.4955 167.533 66.4577 167.564 66.4267C167.594 66.3956 167.631 66.372 167.673 66.3577C167.714 66.3434 167.758 66.3388 167.801 66.3443Z" fill="#9068D5"/>
<path opacity="0.6" d="M167.801 66.3443L168.579 66.4532C168.639 66.4646 168.695 66.4942 168.737 66.538C168.78 66.5818 168.809 66.6376 168.819 66.698C171.028 76.2326 168.911 91.601 168.911 91.601H167.768C169.216 74.921 167.736 68.2001 167.485 66.6654C167.479 66.6223 167.483 66.5783 167.497 66.5369C167.51 66.4955 167.533 66.4577 167.564 66.4267C167.594 66.3956 167.631 66.372 167.673 66.3577C167.714 66.3434 167.758 66.3388 167.801 66.3443Z" fill="white"/>
<path d="M152.514 72.717C152.514 73.9414 152.552 75.2475 152.623 76.5264C152.694 77.8053 152.748 79.0679 152.879 80.3359C153.009 81.6039 153.173 82.8175 153.423 84.0038C153.543 84.5916 153.679 85.1684 153.837 85.7126C153.92 85.9847 154.007 86.246 154.098 86.4963L154.223 86.8119C154.221 86.817 154.219 86.8226 154.219 86.8283C154.219 86.8339 154.221 86.8395 154.223 86.8446C154.223 86.8936 154.43 87.0677 154.838 87.1875C155.323 87.3162 155.822 87.382 156.324 87.3834C157.525 87.3921 158.726 87.2937 159.91 87.0895C161.145 86.899 162.397 86.6324 163.638 86.3276C164.879 86.0228 166.147 85.6854 167.366 85.3371L168.204 87.3888C165.776 88.6142 163.235 89.602 160.617 90.3384C159.24 90.7363 157.824 90.9898 156.394 91.0949C155.581 91.1522 154.764 91.1065 153.962 90.9588C153.482 90.8653 153.016 90.7117 152.574 90.5017C152.04 90.2504 151.562 89.8931 151.17 89.4513C150.959 89.214 150.776 88.9529 150.626 88.6731C150.539 88.5153 150.517 88.4609 150.468 88.3629L150.337 88.0963C150.18 87.7371 150.033 87.3834 149.902 87.0079C149.649 86.3238 149.435 85.6261 149.26 84.9181C148.922 83.567 148.665 82.1968 148.492 80.8148C148.137 78.1089 147.982 75.3804 148.03 72.6517L152.514 72.717Z" fill="#E4897B"/>
<path d="M166.402 85.8922L167.779 81.6855L170.125 85.495C170.125 85.495 168.748 87.9493 166.925 87.9112L166.402 85.8922Z" fill="#E4897B"/>
<path d="M170.838 79.6339L172.634 82.91L170.125 85.4732L167.779 81.6855L170.838 79.6339Z" fill="#E4897B"/>
<path d="M150.12 67.3674C148.335 67.9116 146.196 74.0503 146.196 74.0503L153.113 78.9971C153.113 78.9971 155.638 73.8707 154.887 71.5633C154.109 69.1633 152.155 66.747 150.12 67.3674Z" fill="#9068D5"/>
<path opacity="0.7" d="M150.12 67.3674C148.335 67.9116 146.196 74.0503 146.196 74.0503L153.113 78.9971C153.113 78.9971 155.638 73.8707 154.887 71.5633C154.109 69.1633 152.155 66.747 150.12 67.3674Z" fill="black"/>
<path d="M157.167 47.21C159.589 46.3012 160.269 45.2345 160.432 44.7719C160.458 44.704 160.467 44.6305 160.458 44.5582C160.448 44.4859 160.421 44.4172 160.378 44.3583C160.002 43.8141 158.794 42.3448 157.51 43.3624C156.225 44.3801 155.126 44.3801 156.601 47.0086C156.653 47.1066 156.74 47.1816 156.845 47.2188C156.95 47.256 157.064 47.2529 157.167 47.21Z" fill="#9068D5"/>
<path opacity="0.3" d="M157.167 47.21C159.589 46.3012 160.269 45.2345 160.432 44.7719C160.458 44.704 160.467 44.6305 160.458 44.5582C160.448 44.4859 160.421 44.4172 160.378 44.3583C160.002 43.8141 158.794 42.3448 157.51 43.3624C156.225 44.3801 155.126 44.3801 156.601 47.0086C156.653 47.1066 156.74 47.1816 156.845 47.2188C156.95 47.256 157.064 47.2529 157.167 47.21Z" fill="black"/>
</svg>
