<svg width="217" height="139" viewBox="0 0 217 139" fill="none" xmlns="http://www.w3.org/2000/svg">
<path d="M64.5814 39.4034H22.3105V10.4874H64.5814V39.4034ZM22.6443 39.0696H64.2476V10.8212H22.6443V39.0696Z" fill="#EBEBEB"/>
<path d="M25.6139 12.3499C25.6139 12.5163 25.5646 12.6789 25.4722 12.8172C25.3797 12.9556 25.2484 13.0634 25.0947 13.127C24.941 13.1907 24.7719 13.2074 24.6087 13.1749C24.4455 13.1425 24.2956 13.0623 24.178 12.9447C24.0604 12.8271 23.9803 12.6772 23.9478 12.514C23.9153 12.3509 23.932 12.1817 23.9957 12.028C24.0593 11.8743 24.1671 11.743 24.3055 11.6505C24.4438 11.5581 24.6064 11.5088 24.7728 11.5088C24.9959 11.5088 25.2098 11.5974 25.3676 11.7552C25.5253 11.9129 25.6139 12.1268 25.6139 12.3499Z" fill="#A6A6A6"/>
<path d="M29.0495 12.3499C29.0495 12.5163 29.0001 12.6789 28.9077 12.8172C28.8153 12.9556 28.6839 13.0634 28.5302 13.127C28.3765 13.1907 28.2074 13.2074 28.0442 13.1749C27.8811 13.1425 27.7312 13.0623 27.6136 12.9447C27.4959 12.8271 27.4158 12.6772 27.3834 12.514C27.3509 12.3509 27.3676 12.1817 27.4312 12.028C27.4949 11.8743 27.6027 11.743 27.741 11.6505C27.8793 11.5581 28.042 11.5088 28.2083 11.5088C28.4314 11.5088 28.6454 11.5974 28.8031 11.7552C28.9609 11.9129 29.0495 12.1268 29.0495 12.3499Z" fill="#EBEBEB"/>
<path d="M32.4878 12.3499C32.4884 12.5172 32.4394 12.681 32.3469 12.8204C32.2543 12.9597 32.1225 13.0685 31.968 13.1328C31.8136 13.1972 31.6435 13.2142 31.4794 13.1817C31.3153 13.1492 31.1645 13.0687 31.0462 12.9504C30.9279 12.8321 30.8474 12.6813 30.8149 12.5172C30.7824 12.3531 30.7994 12.183 30.8638 12.0286C30.9281 11.8741 31.0368 11.7423 31.1762 11.6497C31.3156 11.5572 31.4793 11.5081 31.6466 11.5088C31.8697 11.5088 32.0837 11.5974 32.2414 11.7552C32.3992 11.9129 32.4878 12.1269 32.4878 12.3499Z" fill="#FFAC00"/>
<path d="M64.4136 13.8286H22.4766V14.1624H64.4136V13.8286Z" fill="#EBEBEB"/>
<path d="M202.873 115.143H202.539V73.146L211.461 60.9694V38.2118H211.795V61.0762L202.873 73.2561V115.143Z" fill="#EBEBEB"/>
<path d="M211.627 38.3921C211.437 38.3921 211.251 38.3356 211.093 38.2299C210.935 38.1241 210.812 37.9737 210.739 37.7979C210.666 37.622 210.647 37.4286 210.685 37.242C210.722 37.0555 210.814 36.8842 210.949 36.7499C211.084 36.6156 211.255 36.5243 211.442 36.4875C211.629 36.4508 211.822 36.4703 211.998 36.5436C212.173 36.6169 212.323 36.7406 212.428 36.8992C212.533 37.0577 212.589 37.2439 212.589 37.4341C212.589 37.5602 212.564 37.6851 212.515 37.8015C212.467 37.9179 212.396 38.0237 212.307 38.1127C212.218 38.2017 212.112 38.2722 211.995 38.3201C211.878 38.3681 211.753 38.3925 211.627 38.3921ZM211.627 36.8066C211.503 36.8066 211.382 36.8434 211.279 36.9124C211.176 36.9813 211.095 37.0793 211.048 37.194C211 37.3087 210.988 37.4348 211.012 37.5566C211.036 37.6783 211.096 37.7901 211.184 37.8779C211.271 37.9656 211.383 38.0254 211.505 38.0496C211.627 38.0738 211.753 38.0614 211.867 38.0139C211.982 37.9664 212.08 37.886 212.149 37.7828C212.218 37.6796 212.255 37.5582 212.255 37.4341C212.255 37.2677 212.189 37.1081 212.071 36.9904C211.953 36.8727 211.794 36.8066 211.627 36.8066Z" fill="#EBEBEB"/>
<path d="M205.174 115.143H204.84V74.618L204.87 74.5713L213.762 62.4381V46.5565H214.096V62.5483L205.174 74.7248V115.143Z" fill="#EBEBEB"/>
<path d="M213.928 46.7367C213.737 46.7374 213.551 46.6815 213.392 46.5761C213.234 46.4707 213.11 46.3206 213.037 46.1448C212.964 45.969 212.944 45.7755 212.981 45.5887C213.018 45.4019 213.11 45.2303 213.244 45.0956C213.379 44.961 213.551 44.8694 213.737 44.8324C213.924 44.7954 214.118 44.8147 214.294 44.8879C214.469 44.9611 214.62 45.0848 214.725 45.2434C214.83 45.402 214.886 45.5883 214.886 45.7787C214.885 46.0325 214.783 46.2757 214.604 46.4551C214.424 46.6346 214.181 46.7358 213.928 46.7367ZM213.928 45.1512C213.803 45.1505 213.682 45.1868 213.578 45.2553C213.474 45.3239 213.393 45.4217 213.345 45.5363C213.297 45.6509 213.284 45.7771 213.308 45.8991C213.332 46.021 213.392 46.1332 213.479 46.2213C213.567 46.3094 213.679 46.3695 213.801 46.3939C213.922 46.4184 214.049 46.4062 214.164 46.3588C214.278 46.3114 214.377 46.231 214.446 46.1277C214.515 46.0244 214.552 45.903 214.552 45.7787C214.552 45.6129 214.486 45.4538 214.369 45.3362C214.252 45.2186 214.093 45.1521 213.928 45.1512Z" fill="#EBEBEB"/>
<path d="M200.66 59.5975H200.326V115.143H200.66V59.5975Z" fill="#EBEBEB"/>
<path d="M200.494 59.7644C200.304 59.7651 200.117 59.7092 199.959 59.6038C199.8 59.4984 199.676 59.3483 199.603 59.1725C199.53 58.9967 199.511 58.8032 199.548 58.6164C199.585 58.4296 199.676 58.258 199.811 58.1234C199.946 57.9887 200.117 57.8971 200.304 57.8601C200.491 57.8231 200.684 57.8424 200.86 57.9156C201.036 57.9888 201.186 58.1125 201.291 58.2711C201.397 58.4297 201.453 58.616 201.452 58.8064C201.451 59.0602 201.35 59.3034 201.17 59.4829C200.991 59.6623 200.748 59.7635 200.494 59.7644ZM200.494 58.1789C200.37 58.1783 200.248 58.2145 200.144 58.2831C200.041 58.3516 199.96 58.4494 199.912 58.564C199.864 58.6786 199.851 58.8049 199.875 58.9268C199.899 59.0488 199.958 59.1609 200.046 59.249C200.133 59.3371 200.245 59.3972 200.367 59.4216C200.489 59.4461 200.615 59.4339 200.73 59.3865C200.845 59.3391 200.943 59.2587 201.012 59.1554C201.081 59.0522 201.118 58.9307 201.118 58.8064C201.118 58.6406 201.052 58.4815 200.935 58.3639C200.819 58.2463 200.66 58.1798 200.494 58.1789Z" fill="#EBEBEB"/>
<path d="M198.527 115.143H198.194V86.9547L192.139 75.5292V55.0079H192.472V75.4491L198.527 86.8746V115.143Z" fill="#EBEBEB"/>
<path d="M192.301 55.1749C192.111 55.1749 191.925 55.1186 191.767 55.0129C191.609 54.9073 191.486 54.7572 191.413 54.5815C191.34 54.4058 191.321 54.2126 191.358 54.0261C191.395 53.8396 191.487 53.6683 191.621 53.5339C191.756 53.3994 191.927 53.3079 192.114 53.2708C192.3 53.2337 192.493 53.2527 192.669 53.3255C192.845 53.3983 192.995 53.5215 193.1 53.6796C193.206 53.8376 193.262 54.0235 193.262 54.2136C193.262 54.4686 193.161 54.7131 192.981 54.8934C192.801 55.0737 192.556 55.1749 192.301 55.1749ZM192.301 53.5894C192.177 53.5894 192.055 53.6263 191.952 53.6954C191.849 53.7645 191.768 53.8627 191.721 53.9776C191.674 54.0925 191.661 54.2188 191.686 54.3406C191.71 54.4624 191.771 54.5742 191.859 54.6619C191.947 54.7495 192.059 54.809 192.181 54.8328C192.303 54.8567 192.429 54.8438 192.544 54.7958C192.658 54.7477 192.756 54.6668 192.825 54.5632C192.893 54.4595 192.929 54.3379 192.929 54.2136C192.929 54.1314 192.912 54.0499 192.881 53.974C192.849 53.898 192.803 53.8291 192.745 53.7711C192.686 53.7131 192.617 53.6672 192.541 53.636C192.465 53.6048 192.383 53.589 192.301 53.5894Z" fill="#EBEBEB"/>
<path d="M196.407 115.143H196.073V88.1798L188.934 75.5492V62.0142H189.267V75.4591L196.407 88.093V115.143Z" fill="#EBEBEB"/>
<path d="M189.101 62.181C188.911 62.1817 188.725 62.1258 188.566 62.0204C188.407 61.915 188.284 61.7649 188.211 61.5891C188.137 61.4134 188.118 61.2198 188.155 61.033C188.192 60.8462 188.284 60.6746 188.418 60.54C188.553 60.4053 188.725 60.3137 188.911 60.2767C189.098 60.2397 189.292 60.2591 189.467 60.3322C189.643 60.4054 189.793 60.5291 189.899 60.6877C190.004 60.8463 190.06 61.0327 190.059 61.2231C190.058 61.4769 189.957 61.72 189.778 61.8995C189.598 62.0789 189.355 62.1802 189.101 62.181ZM189.101 60.5955C188.977 60.5949 188.855 60.6311 188.752 60.6997C188.648 60.7682 188.567 60.866 188.519 60.9806C188.471 61.0952 188.458 61.2215 188.482 61.3434C188.506 61.4654 188.565 61.5775 188.653 61.6656C188.741 61.7537 188.853 61.8138 188.974 61.8383C189.096 61.8628 189.223 61.8505 189.337 61.8031C189.452 61.7557 189.55 61.6753 189.62 61.572C189.689 61.4688 189.726 61.3473 189.726 61.2231C189.726 61.0572 189.66 60.8981 189.543 60.7805C189.426 60.6629 189.267 60.5964 189.101 60.5955Z" fill="#EBEBEB"/>
<path d="M15.1466 115.143H14.8128V93.2801L5.89062 81.1035V68.2527H6.22441V80.9934L15.1466 93.1733V115.143Z" fill="#EBEBEB"/>
<path d="M6.05839 68.4329C5.86798 68.4335 5.68166 68.3776 5.52306 68.2722C5.36447 68.1669 5.24074 68.0168 5.16757 67.841C5.09439 67.6652 5.07507 67.4716 5.11206 67.2848C5.14905 67.0981 5.24067 66.9265 5.37531 66.7918C5.50995 66.6572 5.68155 66.5655 5.86834 66.5286C6.05512 66.4916 6.24868 66.5109 6.42448 66.5841C6.60027 66.6572 6.75037 66.781 6.85574 66.9396C6.96112 67.0982 7.01702 67.2845 7.01636 67.4749C7.01636 67.729 6.91543 67.9726 6.73578 68.1523C6.55613 68.3319 6.31246 68.4329 6.05839 68.4329ZM6.05839 66.8474C5.93414 66.8467 5.81249 66.883 5.70885 66.9515C5.60522 67.0201 5.52427 67.1178 5.47626 67.2324C5.42826 67.347 5.41535 67.4733 5.43919 67.5953C5.46302 67.7172 5.52252 67.8293 5.61015 67.9174C5.69777 68.0055 5.80958 68.0656 5.9314 68.0901C6.05322 68.1146 6.17956 68.1024 6.29442 68.055C6.40928 68.0076 6.50748 67.9271 6.57658 67.8239C6.64568 67.7206 6.68257 67.5991 6.68257 67.4749C6.68258 67.309 6.61692 67.1499 6.49996 67.0323C6.383 66.9148 6.22424 66.8483 6.05839 66.8474Z" fill="#EBEBEB"/>
<path d="M12.8477 115.143H12.5139V94.7521L3.5918 82.5755V76.5974H3.92558V82.4654L12.8477 94.6453V115.143Z" fill="#EBEBEB"/>
<path d="M3.76599 76.7776C3.57572 76.7776 3.38973 76.7211 3.23157 76.6154C3.07341 76.5096 2.9502 76.3592 2.87754 76.1834C2.80488 76.0075 2.78604 75.8141 2.8234 75.6275C2.86077 75.441 2.95266 75.2697 3.08743 75.1354C3.22221 75.0011 3.39381 74.9098 3.5805 74.873C3.7672 74.8363 3.96059 74.8558 4.13619 74.9291C4.31178 75.0024 4.46169 75.1261 4.56691 75.2846C4.67214 75.4432 4.72796 75.6294 4.7273 75.8196C4.72641 76.074 4.62475 76.3177 4.44456 76.4972C4.26438 76.6768 4.02037 76.7776 3.76599 76.7776ZM3.76599 75.1921C3.64188 75.1921 3.52055 75.2289 3.41736 75.2979C3.31416 75.3668 3.23373 75.4648 3.18624 75.5795C3.13874 75.6941 3.12631 75.8203 3.15053 75.9421C3.17474 76.0638 3.23451 76.1756 3.32227 76.2634C3.41003 76.3511 3.52184 76.4109 3.64357 76.4351C3.76529 76.4593 3.89147 76.4469 4.00613 76.3994C4.1208 76.3519 4.2188 76.2715 4.28776 76.1683C4.35671 76.0651 4.39351 75.9437 4.39351 75.8196C4.39351 75.6532 4.3274 75.4936 4.20972 75.3759C4.09203 75.2582 3.93242 75.1921 3.76599 75.1921Z" fill="#EBEBEB"/>
<path d="M17.3611 79.6248H17.0273V115.143H17.3611V79.6248Z" fill="#EBEBEB"/>
<path d="M17.1937 79.7918C17.0035 79.7918 16.8175 79.7353 16.6593 79.6295C16.5011 79.5237 16.3779 79.3734 16.3053 79.1976C16.2326 79.0217 16.2138 78.8282 16.2511 78.6417C16.2885 78.4551 16.3804 78.2838 16.5152 78.1495C16.6499 78.0152 16.8215 77.9239 17.0082 77.8872C17.1949 77.8505 17.3883 77.87 17.5639 77.9433C17.7395 78.0166 17.8894 78.1403 17.9946 78.2988C18.0999 78.4573 18.1557 78.6435 18.155 78.8338C18.1542 79.0882 18.0525 79.3318 17.8723 79.5114C17.6921 79.6909 17.4481 79.7918 17.1937 79.7918ZM17.1937 78.2063C17.0696 78.2063 16.9483 78.2431 16.8451 78.312C16.7419 78.381 16.6615 78.479 16.614 78.5936C16.5665 78.7083 16.554 78.8345 16.5783 78.9562C16.6025 79.0779 16.6622 79.1898 16.75 79.2775C16.8378 79.3653 16.9496 79.425 17.0713 79.4492C17.193 79.4735 17.3192 79.461 17.4339 79.4135C17.5485 79.366 17.6465 79.2856 17.7155 79.1824C17.7844 79.0792 17.8212 78.9579 17.8212 78.8338C17.8212 78.6674 17.7551 78.5077 17.6375 78.3901C17.5198 78.2724 17.3602 78.2063 17.1937 78.2063Z" fill="#EBEBEB"/>
<path d="M19.4939 115.143H19.1602V96.8883L19.1768 96.8482L25.2151 85.4627V65.0216H25.5489V85.5429L25.5322 85.5796L19.4939 96.9684V115.143Z" fill="#EBEBEB"/>
<path d="M25.3812 65.1885C25.1911 65.1885 25.0052 65.1321 24.8472 65.0265C24.6891 64.9208 24.5659 64.7707 24.4931 64.5951C24.4203 64.4194 24.4013 64.2261 24.4384 64.0396C24.4755 63.8532 24.567 63.6819 24.7015 63.5474C24.8359 63.413 25.0072 63.3214 25.1937 63.2843C25.3802 63.2472 25.5735 63.2663 25.7491 63.339C25.9248 63.4118 26.0749 63.535 26.1805 63.6931C26.2862 63.8512 26.3425 64.037 26.3425 64.2272C26.3425 64.4821 26.2413 64.7266 26.061 64.9069C25.8807 65.0872 25.6362 65.1885 25.3812 65.1885ZM25.3812 63.603C25.257 63.603 25.1355 63.6399 25.0323 63.709C24.929 63.7781 24.8486 63.8763 24.8012 63.9912C24.7538 64.106 24.7415 64.2324 24.766 64.3542C24.7905 64.476 24.8506 64.5878 24.9387 64.6754C25.0268 64.763 25.1389 64.8225 25.2609 64.8464C25.3828 64.8702 25.5091 64.8573 25.6237 64.8093C25.7383 64.7613 25.8361 64.6803 25.9046 64.5767C25.9732 64.4731 26.0094 64.3514 26.0088 64.2272C26.0088 64.1449 25.9925 64.0635 25.9609 63.9875C25.9293 63.9116 25.8831 63.8426 25.8248 63.7846C25.7664 63.7266 25.6972 63.6807 25.6211 63.6495C25.545 63.6184 25.4635 63.6026 25.3812 63.603Z" fill="#EBEBEB"/>
<path d="M21.6131 115.143H21.2793V98.1066L21.2993 98.0666L28.419 85.4728V72.0278H28.7528V85.5629L28.7294 85.5996L21.6131 98.1934V115.143Z" fill="#EBEBEB"/>
<path d="M28.5857 72.1947C28.3953 72.1954 28.209 72.1395 28.0504 72.0341C27.8918 71.9287 27.7681 71.7786 27.6949 71.6028C27.6217 71.427 27.6024 71.2335 27.6394 71.0467C27.6764 70.8599 27.768 70.6883 27.9027 70.5537C28.0373 70.419 28.2089 70.3274 28.3957 70.2904C28.5825 70.2534 28.776 70.2727 28.9518 70.3459C29.1276 70.4191 29.2777 70.5428 29.3831 70.7014C29.4885 70.86 29.5444 71.0463 29.5437 71.2367C29.5428 71.4905 29.4416 71.7337 29.2622 71.9132C29.0827 72.0926 28.8395 72.1938 28.5857 72.1947ZM28.5857 70.6092C28.4615 70.6086 28.3398 70.6448 28.2362 70.7133C28.1326 70.7819 28.0516 70.8797 28.0036 70.9943C27.9556 71.1089 27.9427 71.2352 27.9665 71.3571C27.9904 71.479 28.0499 71.5912 28.1375 71.6793C28.2251 71.7674 28.3369 71.8275 28.4587 71.8519C28.5806 71.8764 28.7069 71.8642 28.8218 71.8168C28.9366 71.7694 29.0348 71.689 29.1039 71.5857C29.173 71.4824 29.2099 71.361 29.2099 71.2367C29.2099 71.0709 29.1443 70.9118 29.0273 70.7942C28.9103 70.6766 28.7516 70.6101 28.5857 70.6092Z" fill="#EBEBEB"/>
<path d="M212.049 32.5441L214.386 28.789L213.238 28.0781C213.07 27.9741 212.936 27.8249 212.849 27.6477C212.763 27.4705 212.729 27.2726 212.75 27.0767C212.768 26.8542 212.775 26.6317 212.77 26.4091C212.764 26.2154 212.812 26.0238 212.909 25.8558C213.006 25.6878 213.147 25.55 213.318 25.4578L214.509 24.817L212.383 20.945L211.191 21.5859C211.019 21.6763 210.826 21.7173 210.632 21.7043C210.438 21.6914 210.252 21.625 210.093 21.5125C209.913 21.389 209.726 21.2721 209.533 21.1787C209.361 21.0874 209.218 20.95 209.12 20.7819C209.022 20.6139 208.973 20.4218 208.978 20.2274L209.022 18.8722L204.606 18.7354L204.562 20.0939C204.555 20.2883 204.494 20.4768 204.385 20.6384C204.277 20.7999 204.125 20.928 203.948 21.0084C203.848 21.0552 203.751 21.1019 203.658 21.1553C203.564 21.2087 203.468 21.2588 203.374 21.3155C203.209 21.4171 203.019 21.4709 202.825 21.4709C202.631 21.4709 202.441 21.4171 202.276 21.3155L201.118 20.5979L198.781 24.353L199.933 25.0706C200.1 25.1743 200.235 25.3234 200.322 25.5007C200.408 25.678 200.442 25.8761 200.42 26.072C200.401 26.294 200.395 26.5169 200.4 26.7396C200.405 26.934 200.356 27.1261 200.259 27.2945C200.162 27.463 200.02 27.6013 199.849 27.6942L198.678 28.2883L200.767 32.1836L201.959 31.5461C202.131 31.4552 202.324 31.4137 202.518 31.426C202.712 31.4384 202.898 31.5042 203.057 31.6162C203.238 31.7375 203.425 31.8489 203.618 31.95C203.79 32.0413 203.932 32.1787 204.03 32.3467C204.128 32.5148 204.177 32.7069 204.172 32.9013L204.132 34.2565L208.548 34.3933L208.591 33.0381C208.598 32.8441 208.66 32.6559 208.768 32.4949C208.877 32.3339 209.028 32.2064 209.205 32.1269L209.496 31.98L209.78 31.8165C209.945 31.715 210.136 31.6613 210.33 31.6613C210.525 31.6613 210.715 31.715 210.881 31.8165L212.049 32.5441ZM208.311 29.757C207.679 30.0952 206.962 30.2386 206.249 30.169C205.536 30.0995 204.86 29.8201 204.306 29.3662C203.752 28.9124 203.345 28.3044 203.136 27.6192C202.928 26.934 202.927 26.2023 203.134 25.5167C203.341 24.8311 203.747 24.2224 204.3 23.7674C204.854 23.3125 205.529 23.0317 206.242 22.9608C206.955 22.8898 207.672 23.0318 208.305 23.3687C208.937 23.7056 209.454 24.2224 209.793 24.8537C210.017 25.2739 210.156 25.7342 210.202 26.2083C210.248 26.6823 210.2 27.1608 210.061 27.6162C209.921 28.0717 209.694 28.4952 209.391 28.8625C209.087 29.2299 208.715 29.5339 208.294 29.757H208.311Z" fill="#EBEBEB"/>
<path d="M8.83206 65.9262L11.5024 64.3775L11.0284 63.5563C10.9605 63.4381 10.927 63.3033 10.9317 63.167C10.9365 63.0308 10.9792 62.8985 11.0551 62.7853C11.1396 62.6562 11.2164 62.5227 11.2854 62.3847C11.3473 62.2611 11.4428 62.1574 11.5608 62.0854C11.6788 62.0134 11.8147 61.976 11.953 61.9775H12.9009V58.88H11.953C11.8147 58.8815 11.6788 58.8441 11.5608 58.7721C11.4428 58.7001 11.3473 58.5964 11.2854 58.4728C11.2164 58.3348 11.1396 58.2013 11.0551 58.0722C10.9792 57.959 10.9365 57.8267 10.9317 57.6905C10.927 57.5542 10.9605 57.4194 11.0284 57.3012L11.5024 56.48L8.83206 54.9313L8.35809 55.7557C8.29102 55.8717 8.19312 55.9667 8.07527 56.0304C7.95742 56.094 7.82423 56.1237 7.69051 56.1162H7.21987C7.08659 56.1233 6.95392 56.0938 6.83624 56.0308C6.71856 55.9678 6.62036 55.8739 6.55229 55.7591L6.07498 54.9313L3.40468 56.48L3.87866 57.3045C3.94655 57.4227 3.98003 57.5576 3.97531 57.6938C3.97059 57.8301 3.92786 57.9623 3.85195 58.0756C3.76807 58.2037 3.69118 58.3363 3.62164 58.4728C3.55971 58.5964 3.46429 58.7001 3.34625 58.7721C3.22821 58.8441 3.09232 58.8815 2.95406 58.88H1.99609V61.9775H2.94405C3.08231 61.976 3.2182 62.0134 3.33624 62.0854C3.45427 62.1574 3.5497 62.2611 3.61163 62.3847C3.68117 62.5212 3.75805 62.6538 3.84194 62.7819C3.91778 62.8958 3.96044 63.0286 3.96515 63.1654C3.96987 63.3021 3.93645 63.4375 3.86864 63.5563L3.39466 64.3775L6.06496 65.9262L6.54228 65.1018C6.61019 64.9866 6.70826 64.8922 6.82591 64.8286C6.94355 64.7651 7.07631 64.7349 7.20986 64.7413C7.28329 64.7413 7.36006 64.7413 7.43683 64.7413C7.5136 64.7413 7.59037 64.7413 7.66715 64.7413C7.80064 64.7353 7.93325 64.7656 8.05083 64.8291C8.16841 64.8926 8.26653 64.9869 8.33472 65.1018L8.83206 65.9262ZM7.43683 62.9655C6.93525 62.9649 6.44511 62.8155 6.02838 62.5364C5.61165 62.2572 5.28702 61.8608 5.09553 61.3972C4.90404 60.9336 4.85427 60.4237 4.95253 59.9318C5.05079 59.4399 5.29266 58.9882 5.64757 58.6338C6.00248 58.2794 6.4545 58.0381 6.94649 57.9405C7.43849 57.8429 7.94838 57.8933 8.41172 58.0854C8.87507 58.2775 9.27106 58.6026 9.54966 59.0197C9.82826 59.4368 9.97695 59.9272 9.97695 60.4287C9.9774 60.7623 9.91197 61.0926 9.78443 61.4008C9.65689 61.709 9.46975 61.989 9.23375 62.2247C8.99774 62.4604 8.71752 62.6472 8.40916 62.7743C8.1008 62.9014 7.77037 62.9664 7.43683 62.9655Z" fill="#EBEBEB"/>
<path d="M198.389 35.2611L196.844 32.5908L196.026 33.0548C195.907 33.1226 195.772 33.156 195.635 33.1513C195.498 33.1466 195.366 33.1039 195.252 33.0281C195.123 32.9435 194.989 32.8666 194.851 32.7978C194.727 32.7359 194.624 32.6404 194.552 32.5224C194.48 32.4044 194.442 32.2685 194.444 32.1302V31.1823H191.353V32.1302C191.355 32.2685 191.317 32.4044 191.245 32.5224C191.173 32.6404 191.069 32.7359 190.946 32.7978C190.807 32.8673 190.672 32.9442 190.542 33.0281C190.429 33.104 190.296 33.1467 190.16 33.1515C190.024 33.1562 189.889 33.1227 189.771 33.0548L188.95 32.5808L187.404 35.2511L188.229 35.7251C188.346 35.7952 188.441 35.8961 188.505 36.0167C188.568 36.1374 188.598 36.2732 188.589 36.4094C188.589 36.4861 188.589 36.5629 188.589 36.6363C188.589 36.7098 188.589 36.7899 188.589 36.8667C188.596 37.0003 188.566 37.1332 188.502 37.2509C188.439 37.3686 188.344 37.4666 188.229 37.5342L187.404 38.0115L188.95 40.6818L189.774 40.2079C189.892 40.14 190.027 40.1065 190.164 40.1112C190.3 40.1159 190.432 40.1587 190.545 40.2346C190.677 40.3191 190.81 40.3959 190.946 40.4649C191.069 40.5268 191.173 40.6222 191.245 40.7403C191.317 40.8583 191.355 40.9942 191.353 41.1325V42.0804H194.447V41.1325C194.446 40.9942 194.483 40.8583 194.555 40.7403C194.627 40.6222 194.731 40.5268 194.854 40.4649C194.992 40.3937 195.126 40.3169 195.255 40.2346C195.368 40.1587 195.5 40.1159 195.637 40.1112C195.773 40.1065 195.908 40.14 196.026 40.2079L196.85 40.6818L198.396 38.0115L197.571 37.5376C197.457 37.4692 197.363 37.371 197.3 37.2534C197.237 37.1357 197.208 37.0032 197.214 36.87C197.214 36.7932 197.214 36.7164 197.214 36.6397C197.214 36.5629 197.214 36.4895 197.214 36.4127C197.206 36.2765 197.235 36.1405 197.298 36.0198C197.362 35.8991 197.458 35.7982 197.575 35.7284L198.389 35.2611ZM195.429 36.633C195.429 37.1349 195.28 37.6255 195.001 38.0427C194.722 38.46 194.326 38.7851 193.862 38.977C193.398 39.1689 192.888 39.2189 192.396 39.1208C191.903 39.0226 191.451 38.7807 191.097 38.4256C190.742 38.0705 190.501 37.6182 190.403 37.1259C190.306 36.6335 190.357 36.1234 190.549 35.6599C190.742 35.1964 191.067 34.8005 191.485 34.5221C191.902 34.2438 192.393 34.0956 192.895 34.0962C193.228 34.0962 193.558 34.1619 193.865 34.2894C194.173 34.4169 194.452 34.6038 194.688 34.8394C194.923 35.075 195.11 35.3547 195.237 35.6625C195.364 35.9702 195.429 36.3 195.429 36.633Z" fill="#EBEBEB"/>
<path d="M15.9486 89.7286C13.8157 85.346 10.0839 83.0963 5.87819 84.3413C1.67247 85.5863 1.02158 91.4476 4.15918 92.9296C7.29679 94.4116 10.4411 90.0858 12.11 89.1979C13.7789 88.31 15.9486 89.7286 15.9486 89.7286Z" fill="#FFAC00"/>
<path d="M18.0112 101.388C18.0112 100.86 17.9812 100.33 17.9611 99.8022C17.9255 98.7475 17.8877 97.6927 17.8476 96.6379C17.7842 94.712 17.5706 92.8227 16.7829 91.0403C16.0772 89.428 14.8979 88.0683 13.4016 87.1417C12.8433 86.8009 12.2399 86.5402 11.6091 86.3673C11.0431 85.7926 10.3215 85.3958 9.53299 85.2257C8.55916 85.0278 7.55808 85.0029 6.57563 85.1523C6.56974 85.1543 6.56463 85.1582 6.56102 85.1633C6.55741 85.1683 6.55547 85.1744 6.55547 85.1807C6.55547 85.1869 6.55741 85.193 6.56102 85.1981C6.56463 85.2031 6.56974 85.207 6.57563 85.209C7.51181 85.0872 8.46291 85.1541 9.37277 85.406C9.76285 85.5141 10.1409 85.6617 10.501 85.8466C10.7335 85.9676 10.9567 86.106 11.1685 86.2605C10.0098 86.004 8.79999 86.1148 7.70717 86.5776C7.47703 86.5278 7.24147 86.5076 7.00622 86.5175C6.69862 86.5273 6.39303 86.571 6.09498 86.6477C5.48655 86.8195 4.90472 87.0745 4.36596 87.4054C4.33592 87.422 4.36596 87.4688 4.396 87.4521C4.92567 87.1626 5.49296 86.948 6.08163 86.8146C6.36737 86.7509 6.65745 86.7085 6.94948 86.6877C7.11204 86.6837 7.2747 86.6881 7.4368 86.7011C6.23954 87.2554 5.27706 88.2155 4.71977 89.4114C4.71977 89.4448 4.75315 89.4715 4.7665 89.4381C5.09832 88.7447 5.58211 88.1349 6.18193 87.6542C6.78176 87.1734 7.48219 86.8339 8.23122 86.661C8.32468 86.6376 8.41814 86.6243 8.51494 86.6076C8.48095 86.7484 8.45531 86.891 8.43817 87.0349C8.41146 87.2485 8.37475 87.4588 8.33136 87.669C8.24677 88.1039 8.13529 88.5331 7.99757 88.9541C7.85447 89.3787 7.68387 89.7934 7.48687 90.1958C7.29849 90.6232 7.05982 91.0266 6.7759 91.3975C6.7492 91.4275 6.79927 91.4642 6.8193 91.4308C7.07298 91.0336 7.36671 90.6698 7.59702 90.2592C7.82097 89.8676 8.01403 89.4592 8.17447 89.0376C8.33548 88.6115 8.46053 88.1727 8.54832 87.7258C8.59505 87.4888 8.63177 87.2518 8.65847 87.0115C8.68729 86.8688 8.69628 86.7227 8.68517 86.5776C9.18005 86.5014 9.68275 86.4902 10.1805 86.5442C9.99362 87.5923 9.79335 88.6804 9.20588 89.5883C9.18585 89.6184 9.23926 89.6484 9.25595 89.615C9.52961 89.1333 9.77049 88.6338 9.97693 88.1197C10.1714 87.6213 10.2928 87.0974 10.3374 86.5642C11.2062 86.6794 12.0447 86.9605 12.8074 87.392C14.2438 88.2276 15.3909 89.4818 16.0953 90.9869C16.835 92.6084 17.249 94.3595 17.3136 96.1406C17.4538 98.3836 17.4838 100.637 17.7074 102.87C17.7074 103.017 17.9511 103.067 17.9812 102.9C18.0388 102.398 18.0489 101.892 18.0112 101.388Z" fill="#263238"/>
<path d="M13.0844 86.7946C12.9426 86.6245 12.7787 86.4741 12.5971 86.3473C12.4235 86.2038 12.2433 86.0636 12.0563 85.9367C11.6877 85.6792 11.278 85.4862 10.8447 85.366C10.8113 85.366 10.798 85.4127 10.8447 85.4194C11.2778 85.5377 11.6806 85.7471 12.0263 86.0335C12.2066 86.1637 12.3601 86.3039 12.5437 86.4508C12.6914 86.6064 12.856 86.7453 13.0343 86.8647C13.0436 86.8713 13.0552 86.874 13.0665 86.8721C13.0777 86.8702 13.0878 86.864 13.0944 86.8547C13.1011 86.8454 13.1037 86.8338 13.1019 86.8225C13.1 86.8113 13.0937 86.8012 13.0844 86.7946Z" fill="#263238"/>
<path d="M6.27792 88.37C5.92456 88.7803 5.59789 89.2129 5.29992 89.6651C5.00675 90.1185 4.76282 90.6019 4.57227 91.1071C4.57227 91.1237 4.57227 91.1304 4.59563 91.1071C5.08336 90.1526 5.66003 89.2462 6.31798 88.4C6.34134 88.3967 6.29795 88.37 6.27792 88.37Z" fill="#263238"/>
<path d="M10.8643 87.9495C10.8195 88.2237 10.7387 88.4908 10.624 88.7439C10.5066 88.9877 10.3704 89.2221 10.2168 89.4449C10.2168 89.4449 10.2168 89.4749 10.2435 89.4649C10.6094 89.0411 10.8416 88.5184 10.9111 87.9629C10.9244 87.9295 10.871 87.9161 10.8643 87.9495Z" fill="#263238"/>
<path d="M17.7148 89.8387C17.7148 89.8387 20.7189 86.0436 26.5636 87.3887C32.1011 88.6671 34.6579 98.8243 29.0603 100.039C23.4627 101.254 24.4507 91.8548 22.4112 90.2593C20.9125 89.091 18.7596 89.3414 17.7148 89.8387Z" fill="#FFAC00"/>
<path d="M31.0621 92.9362C30.6831 92.6019 30.2816 92.2941 29.8604 92.015C29.4664 91.7434 29.036 91.5288 28.582 91.3774C28.3551 91.0314 28.1006 90.7044 27.821 90.3994C27.3083 89.8465 26.7153 89.3739 26.0619 88.9975H26.2355C26.5435 88.9808 26.8521 88.9808 27.1601 88.9975C27.7819 89.0366 28.3915 89.1881 28.9592 89.4448C28.9926 89.4448 29.0159 89.4081 28.9826 89.3947C28.4065 89.1468 27.804 88.9654 27.1868 88.854C26.886 88.8005 26.5811 88.7737 26.2755 88.7739C26.112 88.7739 25.9418 88.7739 25.7882 88.8039H25.6948C25.1635 88.5357 24.6037 88.3285 24.0258 88.1864L24.1894 88.143C24.4748 88.0801 24.7634 88.0322 25.0539 87.9995C25.6339 87.9382 26.2193 87.9506 26.7963 88.0362C26.833 88.0362 26.843 87.9861 26.7963 87.9828C26.2116 87.9127 25.6222 87.8893 25.0339 87.9127C24.5401 87.9249 24.049 87.9886 23.5685 88.103C23.2178 88.0384 22.8632 87.9971 22.5071 87.9795C20.4743 87.896 18.258 88.647 17.0063 90.316C15.7546 91.9849 15.5109 94.2179 15.2906 96.2374C14.9492 99.0467 14.8743 101.882 15.067 104.706C15.067 104.872 15.314 104.842 15.3206 104.686C15.3974 102.289 15.4809 99.8957 15.7112 97.5091C15.8146 96.4009 15.9348 95.2927 16.1184 94.1979C16.2518 93.2559 16.5217 92.3384 16.9195 91.4742C17.3512 90.5889 18.0368 89.8522 18.8888 89.358C19.7423 88.8706 20.6928 88.5777 21.6726 88.5002C22.5526 88.428 23.4385 88.5116 24.2895 88.7472C24.263 88.9175 24.263 89.0909 24.2895 89.2612C24.3098 89.4775 24.3523 89.6911 24.4163 89.8987C24.4809 90.0935 24.5624 90.2823 24.66 90.4628C24.7702 90.6631 24.9037 90.8434 25.0272 91.0336C25.0272 91.0637 25.0939 91.0336 25.0706 91.0002C24.8314 90.6587 24.6769 90.2651 24.62 89.852C24.5831 89.6558 24.5596 89.4573 24.5499 89.2579C24.5499 89.1077 24.5499 88.9575 24.5499 88.8072C25.4749 89.089 26.3388 89.5419 27.0967 90.1424C27.2368 90.2559 27.3737 90.3761 27.5072 90.4996C27.3144 90.6762 27.148 90.8797 27.0132 91.1037C26.8009 91.3985 26.6165 91.7126 26.4625 92.0417C26.1927 92.6899 26.0108 93.3713 25.9217 94.0677C25.9238 94.0736 25.9276 94.0787 25.9327 94.0823C25.9378 94.086 25.9439 94.0879 25.9501 94.0879C25.9563 94.0879 25.9624 94.086 25.9675 94.0823C25.9726 94.0787 25.9764 94.0736 25.9785 94.0677C26.088 93.3941 26.3138 92.7446 26.646 92.1485C26.801 91.8534 26.9737 91.568 27.1634 91.294C27.2636 91.1538 27.3637 91.0136 27.4705 90.8801C27.5272 90.81 27.5907 90.7365 27.6441 90.6564C28.3294 91.3308 28.889 92.122 29.2963 92.9929C29.0198 93.2834 28.789 93.6143 28.6121 93.9743C28.4025 94.3499 28.2207 94.7404 28.068 95.1425C27.7851 95.9179 27.5521 96.7106 27.3704 97.5158C27.3724 97.5217 27.3762 97.5268 27.3813 97.5304C27.3864 97.534 27.3925 97.5359 27.3987 97.5359C27.405 97.5359 27.4111 97.534 27.4161 97.5304C27.4212 97.5268 27.4251 97.5217 27.4271 97.5158C27.6051 96.7061 27.882 95.9213 28.2516 95.1792C28.4251 94.8154 28.6121 94.4549 28.8057 94.1011C29.0064 93.7719 29.1891 93.4321 29.3531 93.0831C29.7419 93.9325 29.9683 94.8473 30.0206 95.7801C30.0206 95.8168 30.0774 95.8135 30.0774 95.7801C29.9698 94.3162 29.5218 92.8978 28.7689 91.6378C29.1228 91.788 29.4799 91.9348 29.8237 92.1184C30.261 92.3514 30.6679 92.6373 31.0354 92.9696C31.052 93.003 31.0888 92.9596 31.0621 92.9362Z" fill="#263238"/>
<path d="M30.4693 91.7247C30.2398 91.5029 29.9788 91.3163 29.6949 91.1706C29.4071 91.0413 29.109 90.9363 28.8037 90.8568C28.7703 90.8568 28.757 90.9035 28.8037 90.9102C29.1041 90.9895 29.3926 91.1085 29.6615 91.264C29.9381 91.4065 30.2036 91.5694 30.4559 91.7514C30.4693 91.7647 30.4993 91.738 30.4693 91.7247Z" fill="#263238"/>
<path d="M20.584 84.7685C20.584 84.7685 21.1414 77.9525 26.2083 75.7562C30.4407 73.9104 32.864 78.6668 29.88 81.5775C27.4633 83.9206 23.5714 82.8559 20.584 84.7685Z" fill="#FFAC00"/>
<path d="M28.9371 77.0613C28.1659 77.3732 27.4136 77.7298 26.684 78.1294C26.0759 78.4792 25.4906 78.8671 24.9316 79.291C25.0151 79.1207 25.0885 78.9372 25.1753 78.7703C25.3057 78.5061 25.4494 78.2488 25.6059 77.9992C25.9165 77.4835 26.2911 77.0091 26.7207 76.5873C26.7474 76.5606 26.7207 76.5239 26.6807 76.5472C26.2537 76.9718 25.8608 77.4294 25.5057 77.9158C25.3304 78.163 25.1699 78.4205 25.0251 78.6868C24.8767 78.9309 24.7643 79.1951 24.6913 79.4712C24.6713 79.4879 24.6512 79.4979 24.6346 79.5146C23.7499 80.2196 22.9391 81.0125 22.2146 81.8812C22.2146 81.8144 22.2413 81.7477 22.258 81.6876C22.3548 81.3538 22.4583 81.02 22.5651 80.6862C22.7818 79.9813 23.0905 79.3079 23.483 78.6835C23.503 78.6534 23.4529 78.6267 23.4329 78.6568C23.0343 79.2777 22.6796 79.9257 22.3715 80.5961C22.2374 80.9218 22.1258 81.2564 22.0377 81.5974C21.9656 81.821 21.911 82.0498 21.8741 82.2817C21.6538 82.5621 21.4369 82.8458 21.2299 83.1362C19.057 86.2338 17.9621 89.9788 17.7018 93.7273C17.6245 94.8459 17.6055 95.9679 17.645 97.0885C17.652 98.2174 17.7514 99.3438 17.9421 100.456C17.9421 100.527 18.0656 100.507 18.0656 100.436C18.0389 99.4517 17.9388 98.4704 17.9187 97.4857C17.8987 96.5011 17.9187 95.5097 18.0122 94.525C18.1722 92.5571 18.5437 90.6121 19.1204 88.7238C19.7094 86.7912 20.5775 84.9549 21.6972 83.2731C21.9108 83.2297 22.1211 83.1729 22.3314 83.1162C22.5417 83.0594 22.8388 82.986 23.0891 82.9159C23.5763 82.7925 24.0495 82.6191 24.501 82.3985C24.5041 82.3968 24.5068 82.3944 24.509 82.3916C24.5111 82.3889 24.5127 82.3857 24.5136 82.3823C24.5146 82.3788 24.5148 82.3753 24.5144 82.3718C24.5139 82.3683 24.5128 82.3649 24.5111 82.3618C24.5093 82.3588 24.507 82.3561 24.5042 82.3539C24.5014 82.3517 24.4982 82.3501 24.4948 82.3492C24.4914 82.3483 24.4878 82.348 24.4843 82.3485C24.4808 82.3489 24.4774 82.3501 24.4743 82.3518C24.0263 82.5942 23.5414 82.7611 23.039 82.8458C22.6452 82.9259 22.2313 82.976 21.8341 83.0661C22.2012 82.532 22.5918 82.0147 23.0123 81.5173C23.9789 81.6053 24.9533 81.5331 25.8963 81.3037C26.3974 81.1821 26.8903 81.0282 27.3716 80.8431C27.879 80.6495 28.373 80.3958 28.8603 80.1755C28.9004 80.1588 28.8603 80.1021 28.8403 80.1221C27.9325 80.6178 26.9414 80.9425 25.9163 81.0801C25.012 81.2238 24.0982 81.2997 23.1826 81.3071C23.5431 80.8932 23.9136 80.4893 24.3108 80.1121C25.6459 78.8437 27.2214 77.6788 28.9838 77.0713C28.9871 77.1047 28.9705 77.0479 28.9371 77.0613Z" fill="#263238"/>
<path d="M24.8103 77.0847C24.5818 77.372 24.3744 77.6754 24.1895 77.9926C24.0009 78.3273 23.8508 78.6822 23.7422 79.0507H23.7622C23.9324 78.7169 24.076 78.3831 24.2462 78.0493C24.4145 77.7218 24.617 77.413 24.8504 77.1281C24.8737 77.0947 24.8337 77.0546 24.8103 77.0847Z" fill="#263238"/>
<path d="M16.6426 83.5435C16.6125 83.8372 15.8782 81.0668 11.5924 78.6101C7.70041 76.3771 3.05409 70.5658 6.86928 66.8975C9.95014 63.9368 18.0645 70.3923 16.6426 83.5435Z" fill="#FFAC00"/>
<path d="M19.5933 99.4217C19.5343 96.5386 19.3115 93.6612 18.9257 90.8034C18.5878 88.1781 17.9816 85.5944 17.1166 83.0929C16.7828 82.1916 16.449 81.3038 16.0384 80.4226C16.0652 80.0826 16.0652 79.7411 16.0384 79.4012C16.0151 78.9639 15.975 78.53 15.9349 78.0961C15.8949 77.6621 15.8515 77.2249 15.8014 76.791C15.7514 76.357 15.6546 75.9231 15.6379 75.4892C15.6379 75.4525 15.5745 75.4591 15.5845 75.4892C15.6691 75.9444 15.7204 76.4051 15.738 76.8677C15.7714 77.2883 15.7948 77.7089 15.8081 78.1328C15.8215 78.5567 15.8081 78.9739 15.8081 79.3978C15.8081 79.548 15.8081 79.7116 15.8081 79.8718C15.4042 79.0207 14.9736 78.1828 14.5063 77.3651C14.7967 75.5893 14.4196 73.7335 14.0557 71.9944C14.0557 71.9611 13.9956 71.9777 14.0023 72.0111C14.1803 72.9185 14.2753 73.8402 14.286 74.7649C14.286 75.4959 14.266 76.2235 14.266 76.9545C14.1625 76.7776 14.0591 76.604 13.9522 76.4305C13.3982 75.5226 12.8051 74.6325 12.1732 73.7602C12.225 73.3389 12.2114 72.9122 12.1331 72.4951C12.0617 72.0279 11.958 71.5661 11.8227 71.1132C11.6871 70.6605 11.5289 70.2149 11.3487 69.7781C11.1618 69.3275 10.9148 68.9002 10.7345 68.4429C10.7345 68.4062 10.6644 68.4429 10.6845 68.4663C10.913 68.8898 11.0932 69.3377 11.2219 69.8014C11.3634 70.2397 11.4804 70.6854 11.5723 71.1366C11.6625 71.5905 11.7359 72.0412 11.7993 72.4984C11.8427 72.7989 11.8694 73.1126 11.9195 73.4164C11.0018 72.1831 9.99792 71.0164 8.91539 69.925C8.89203 69.8982 8.85531 69.9249 8.87868 69.965C10.5054 71.8013 11.9581 73.7847 13.2179 75.8897C13.2646 75.9698 13.3114 76.0499 13.3548 76.1301C13.1211 75.9832 12.8508 75.863 12.6271 75.7395C12.2132 75.5092 11.796 75.2822 11.3787 75.072L10.1638 74.4044C9.95681 74.2876 9.74986 74.1674 9.53958 74.0706C9.28221 73.9624 9.03434 73.8329 8.79857 73.6834C8.76853 73.66 8.73181 73.7101 8.76519 73.7301C9.17909 73.9571 9.54292 74.2942 9.94346 74.5479C10.344 74.8016 10.7512 75.0486 11.1651 75.2789C11.9262 75.7061 12.754 76.0099 13.5016 76.4505C14.0223 77.3617 14.503 78.2963 14.9436 79.2476C14.4896 78.9539 14.0223 78.6802 13.5517 78.4132C13.248 78.2429 12.9442 78.0794 12.6371 77.9158C12.331 77.7732 12.0421 77.5963 11.776 77.3884C11.7493 77.3651 11.7125 77.3884 11.7359 77.4285C12.2355 77.8785 12.7894 78.2642 13.3848 78.5767C13.9356 78.9105 14.4896 79.2076 15.0537 79.488C15.5121 80.4915 15.9249 81.514 16.2921 82.5555C18.0979 87.6624 18.7588 93.0831 19.0759 98.4705C19.1727 100.076 19.2194 101.678 19.2394 103.287C19.2595 104.896 19.176 106.498 19.1794 108.1C19.1794 108.15 19.2561 108.16 19.2628 108.1C19.4564 106.678 19.4898 105.23 19.5532 103.794C19.6166 102.359 19.6266 100.88 19.5933 99.4217Z" fill="#263238"/>
<path d="M11.8072 76.3003C11.0254 75.9536 10.2652 75.5601 9.53075 75.122C8.78622 74.7029 8.06424 74.245 7.36781 73.7501C7.36781 73.7501 7.34444 73.7501 7.36781 73.7701C8.02508 74.3005 8.71761 74.7856 9.44063 75.2221C10.1948 75.6483 10.9752 76.0262 11.7771 76.3537C11.8139 76.3537 11.8406 76.3136 11.8072 76.3003Z" fill="#263238"/>
<path d="M13.0479 70.5257C12.9844 70.2754 12.9077 70.0317 12.8242 69.788C12.8266 69.784 12.8278 69.7794 12.8278 69.7747C12.8278 69.77 12.8266 69.7654 12.8242 69.7613C12.7708 69.6212 12.7141 69.4843 12.6573 69.3474L12.6373 69.2974C12.6373 69.2707 12.6139 69.2473 12.6039 69.2206C12.5939 69.1939 12.5872 69.2206 12.6039 69.2206C12.6206 69.2206 12.6306 69.3141 12.6473 69.3641C12.6525 69.3901 12.6591 69.4157 12.6673 69.4409C12.9502 70.393 13.1622 71.3648 13.3015 72.3482C13.3015 72.3782 13.3516 72.3782 13.3516 72.3482C13.3087 71.7324 13.207 71.1221 13.0479 70.5257Z" fill="#263238"/>
<path d="M24.1231 100.456L23.816 104.081L22.8814 115.136H12.8511L11.9165 104.081L11.6094 100.456H24.1231Z" fill="#37474F"/>
<path d="M24.1231 100.456L23.816 104.081H11.9165L11.6094 100.456H24.1231Z" fill="#263238"/>
<path d="M25.1086 99.0045H10.6289V102.483H25.1086V99.0045Z" fill="#37474F"/>
<path d="M0 115.136L27.0602 115.056L54.1203 115.026L108.241 114.969L162.361 115.026L189.421 115.056L216.481 115.136L189.421 115.22L162.361 115.247L108.241 115.303L54.1203 115.247L27.0602 115.216L0 115.136Z" fill="#263238"/>
<path d="M186.665 17.9675H29.2539V123.264H186.665V17.9675Z" fill="#EBEBEB"/>
<path d="M185.52 19.2526H30.3984V121.979H185.52V19.2526Z" fill="#263238"/>
<path d="M207.165 131.158H8.75195V138.385H207.165V131.158Z" fill="#DBDBDB"/>
<path d="M8.75195 131.158L29.2565 123.264H186.664L207.169 131.158H8.75195Z" fill="#EBEBEB"/>
<path d="M31.0859 128.358L44.3173 123.264H171.604L184.835 128.358H31.0859Z" fill="#263238"/>
<path d="M176.757 27.0565H39.166V114.175H176.757V27.0565Z" fill="white"/>
<path d="M176.758 27.0565H39.0508V30.4077H176.758V27.0565Z" fill="#455A64"/>
<path d="M41.713 28.7321C41.713 28.8965 41.6643 29.0572 41.573 29.1939C41.4816 29.3306 41.3518 29.4371 41.2 29.5C41.0481 29.5629 40.881 29.5794 40.7198 29.5473C40.5585 29.5152 40.4104 29.4361 40.2942 29.3198C40.178 29.2036 40.0988 29.0555 40.0668 28.8943C40.0347 28.7331 40.0511 28.5659 40.114 28.4141C40.177 28.2622 40.2835 28.1324 40.4202 28.0411C40.5568 27.9497 40.7175 27.901 40.8819 27.901C41.1023 27.901 41.3137 27.9886 41.4696 28.1444C41.6255 28.3003 41.713 28.5117 41.713 28.7321Z" fill="#C7C7C7"/>
<path d="M45.1076 28.7321C45.1076 28.8965 45.0588 29.0572 44.9675 29.1939C44.8762 29.3306 44.7464 29.4371 44.5945 29.5C44.4426 29.5629 44.2755 29.5794 44.1143 29.5473C43.9531 29.5152 43.805 29.4361 43.6887 29.3198C43.5725 29.2036 43.4934 29.0555 43.4613 28.8943C43.4292 28.7331 43.4457 28.5659 43.5086 28.4141C43.5715 28.2622 43.678 28.1324 43.8147 28.0411C43.9514 27.9498 44.1121 27.901 44.2764 27.901C44.3857 27.9006 44.494 27.9218 44.595 27.9634C44.6961 28.005 44.7879 28.0662 44.8651 28.1435C44.9424 28.2207 45.0036 28.3125 45.0452 28.4136C45.0868 28.5146 45.108 28.6229 45.1076 28.7321Z" fill="white"/>
<path d="M48.4923 28.7321C48.4923 28.8965 48.4436 29.0572 48.3523 29.1939C48.2609 29.3306 48.1311 29.4371 47.9793 29.5C47.8274 29.5629 47.6603 29.5794 47.4991 29.5473C47.3378 29.5152 47.1897 29.4361 47.0735 29.3198C46.9573 29.2036 46.8781 29.0555 46.846 28.8943C46.814 28.7331 46.8304 28.5659 46.8933 28.4141C46.9563 28.2622 47.0628 28.1324 47.1995 28.0411C47.3361 27.9498 47.4968 27.901 47.6612 27.901C47.7705 27.9006 47.8788 27.9218 47.9798 27.9634C48.0808 28.005 48.1726 28.0662 48.2499 28.1435C48.3272 28.2207 48.3884 28.3125 48.43 28.4136C48.4716 28.5146 48.4928 28.6229 48.4923 28.7321Z" fill="#FFAC00"/>
<path d="M176.758 30.4078H174.314V114.172H176.758V30.4078Z" fill="#DBDBDB"/>
<path d="M175.531 59.4473C175.364 59.4473 175.203 59.3808 175.085 59.2625C174.967 59.1442 174.9 58.9837 174.9 58.8164V31.5293C174.9 31.362 174.967 31.2015 175.085 31.0832C175.203 30.9649 175.364 30.8984 175.531 30.8984C175.699 30.8984 175.859 30.9649 175.977 31.0832C176.096 31.2015 176.162 31.362 176.162 31.5293V58.8164C176.162 58.9837 176.096 59.1442 175.977 59.2625C175.859 59.3808 175.699 59.4473 175.531 59.4473Z" fill="#A6A6A6"/>
<path d="M157.501 52.134H58.9805V67.0677H157.501V52.134Z" fill="white"/>
<path d="M157.667 67.2313H58.8125V51.9672H157.667V67.2313ZM59.1463 66.8975H157.333V52.301H59.1463V66.8975Z" fill="#DBDBDB"/>
<path d="M67.6778 56.1796C67.8695 56.7334 68.0005 57.3064 68.0684 57.8886C68.213 59.0244 68.213 60.174 68.0684 61.3099C67.9989 61.892 67.8669 62.465 67.6745 63.0189C67.4806 62.4655 67.3485 61.8923 67.2806 61.3099C67.1382 60.1739 67.1382 59.0245 67.2806 57.8886C67.3524 57.3065 67.4856 56.7336 67.6778 56.1796Z" fill="#37474F"/>
<path d="M71.0952 59.5975C70.5423 59.7945 69.969 59.9288 69.3862 59.9981C68.8194 60.0702 68.2485 60.1059 67.6772 60.1049C67.1058 60.1077 66.5348 60.072 65.9682 59.9981C65.3846 59.9306 64.8103 59.7985 64.2559 59.6042C64.8112 59.413 65.3851 59.281 65.9682 59.2104C66.535 59.1381 67.1058 59.1024 67.6772 59.1035C68.2486 59.1053 68.8193 59.1421 69.3862 59.2137C69.9681 59.2791 70.5412 59.4078 71.0952 59.5975Z" fill="#37474F"/>
<path d="M70.0944 57.1809C69.8383 57.7081 69.526 58.206 69.1631 58.6663C68.8146 59.119 68.4366 59.5483 68.0316 59.9513C67.6279 60.3567 67.1986 60.7357 66.7465 61.0862C66.2851 61.4492 65.786 61.7614 65.2578 62.0175C65.5139 61.4893 65.8262 60.9902 66.1891 60.5288C66.5396 60.0767 66.9186 59.6474 67.324 59.2437C67.7286 58.8404 68.1577 58.4625 68.609 58.1122C69.0698 57.75 69.5677 57.4378 70.0944 57.1809Z" fill="#37474F"/>
<path d="M70.0952 62.0175C69.5685 61.7605 69.0706 61.4484 68.6099 61.0862C68.1577 60.7357 67.7285 60.3566 67.3248 59.9513C66.9162 59.5476 66.5348 59.1172 66.1832 58.6629C65.8203 58.2015 65.5081 57.7024 65.252 57.1742C65.7808 57.4291 66.28 57.7414 66.7406 58.1055C67.6464 58.8054 68.4586 59.6187 69.1573 60.5254C69.5229 60.9874 69.8374 61.4877 70.0952 62.0175Z" fill="#37474F"/>
<path d="M81.0086 56.1796C81.2003 56.7334 81.3312 57.3064 81.3992 57.8886C81.4707 58.4554 81.5075 59.0262 81.5093 59.5976C81.5103 60.17 81.4746 60.742 81.4025 61.3099C81.3314 61.8918 81.1994 62.4646 81.0086 63.0189C80.8147 62.4655 80.6826 61.8923 80.6148 61.3099C80.541 60.7421 80.5053 60.1701 80.508 59.5976C80.5071 59.0262 80.5427 58.4554 80.6148 57.8886C80.6838 57.3063 80.8159 56.7333 81.0086 56.1796Z" fill="#37474F"/>
<path d="M84.4272 59.5975C83.8739 59.7918 83.3007 59.9239 82.7182 59.9914C82.1514 60.0634 81.5806 60.0991 81.0092 60.0982C80.4367 60.1009 79.8646 60.0652 79.2969 59.9914C78.7144 59.9235 78.1413 59.7914 77.5879 59.5975C78.1422 59.4067 78.715 59.2747 79.2969 59.2036C79.8648 59.1315 80.4367 59.0958 81.0092 59.0968C81.5806 59.0987 82.1513 59.1355 82.7182 59.207C83.3003 59.2749 83.8733 59.4058 84.4272 59.5975Z" fill="#37474F"/>
<path d="M83.4264 57.1809C83.1703 57.7081 82.8581 58.206 82.4952 58.6663C82.1466 59.119 81.7686 59.5483 81.3636 59.9513C80.9599 60.3567 80.5307 60.7357 80.0785 61.0862C79.6172 61.4492 79.118 61.7614 78.5898 62.0175C78.846 61.4893 79.1582 60.9902 79.5211 60.5288C79.8716 60.0767 80.2507 59.6474 80.656 59.2437C81.059 58.8387 81.4883 58.4607 81.9411 58.1122C82.4013 57.7493 82.8993 57.4371 83.4264 57.1809Z" fill="#37474F"/>
<path d="M83.4268 62.0175C82.8996 61.7613 82.4016 61.4491 81.9414 61.0862C81.4878 60.7374 81.0585 60.3582 80.6563 59.9513C80.2546 59.5469 79.8799 59.1165 79.5348 58.6629C79.1719 58.2015 78.8596 57.7024 78.6035 57.1742C79.1324 57.4291 79.6316 57.7414 80.0922 58.1055C80.998 58.8054 81.8102 59.6187 82.5088 60.5254C82.8675 60.9884 83.1752 61.4886 83.4268 62.0175Z" fill="#37474F"/>
<path d="M94.3366 56.1796C94.5309 56.7329 94.663 57.306 94.7305 57.8886C94.8025 58.4554 94.8382 59.0262 94.8373 59.5976C94.84 60.1701 94.8043 60.7421 94.7305 61.3099C94.6626 61.8923 94.5306 62.4655 94.3366 63.0189C94.1453 62.4649 94.0144 61.8919 93.9461 61.3099C93.8728 60.742 93.836 60.1701 93.8359 59.5976C93.8378 59.0262 93.8746 58.4554 93.9461 57.8886C94.014 57.3064 94.145 56.7334 94.3366 56.1796Z" fill="#37474F"/>
<path d="M97.7592 59.5975C97.2058 59.7914 96.6327 59.9235 96.0502 59.9914C95.4823 60.0635 94.9104 60.0992 94.3379 60.0982C93.7665 60.1008 93.1956 60.0651 92.6289 59.9914C92.0464 59.9239 91.4732 59.7918 90.9199 59.5975C91.4741 59.4064 92.047 59.2743 92.6289 59.2036C93.1957 59.1316 93.7666 59.0959 94.3379 59.0968C94.9104 59.0986 95.4822 59.1354 96.0502 59.207C96.6323 59.2753 97.2053 59.4062 97.7592 59.5975Z" fill="#37474F"/>
<path d="M96.7565 57.1809C96.5004 57.7081 96.1881 58.206 95.8252 58.6663C95.4767 59.119 95.0987 59.5483 94.6937 59.9513C94.29 60.3567 93.8608 60.7357 93.4086 61.0862C92.9472 61.4492 92.4481 61.7614 91.9199 62.0175C92.1749 61.4886 92.4872 60.9894 92.8512 60.5288C93.2015 60.0775 93.5794 59.6483 93.9827 59.2437C94.3877 58.8395 94.8181 58.4616 95.2712 58.1122C95.7314 57.7493 96.2294 57.4371 96.7565 57.1809Z" fill="#37474F"/>
<path d="M96.7565 62.0175C96.2294 61.7613 95.7314 61.4491 95.2712 61.0862C94.8172 60.7366 94.3868 60.3575 93.9827 59.9513C93.5784 59.5465 93.2004 59.1161 92.8512 58.6629C92.4872 58.2023 92.1749 57.7031 91.9199 57.1742C92.4488 57.4291 92.948 57.7414 93.4086 58.1055C94.3144 58.8054 95.1266 59.6187 95.8252 60.5254C96.1885 60.9877 96.5008 61.488 96.7565 62.0175Z" fill="#37474F"/>
<path d="M107.669 56.1796C107.861 56.7333 107.993 57.3063 108.063 57.8886C108.205 59.0245 108.205 60.1739 108.063 61.3099C107.995 61.8923 107.863 62.4655 107.669 63.0189C107.476 62.465 107.344 61.892 107.275 61.3099C107.203 60.742 107.167 60.17 107.168 59.5976C107.17 59.0262 107.207 58.4554 107.278 57.8886C107.346 57.3064 107.477 56.7334 107.669 56.1796Z" fill="#37474F"/>
<path d="M111.091 59.5975C110.538 59.7914 109.965 59.9235 109.382 59.9914C108.814 60.0635 108.242 60.0992 107.67 60.0982C107.099 60.1008 106.528 60.0651 105.961 59.9914C105.378 59.9239 104.805 59.7918 104.252 59.5975C104.806 59.4064 105.379 59.2743 105.961 59.2036C106.528 59.1316 107.099 59.0959 107.67 59.0968C108.242 59.0986 108.814 59.1354 109.382 59.207C109.964 59.2753 110.537 59.4062 111.091 59.5975Z" fill="#37474F"/>
<path d="M110.089 57.1809C109.832 57.7081 109.52 58.206 109.157 58.6663C108.808 59.119 108.428 59.5483 108.022 59.9513C107.62 60.3583 107.191 60.7374 106.737 61.0862C106.277 61.4491 105.779 61.7613 105.252 62.0175C105.506 61.4879 105.818 60.9885 106.183 60.5288C106.533 60.0767 106.911 59.6475 107.315 59.2437C107.719 58.8404 108.149 58.4625 108.6 58.1122C109.062 57.75 109.561 57.4378 110.089 57.1809Z" fill="#37474F"/>
<path d="M110.089 62.0175C109.561 61.7606 109.062 61.4484 108.6 61.0862C108.148 60.7357 107.718 60.3567 107.315 59.9513C106.91 59.5495 106.532 59.1213 106.183 58.6696C105.818 58.2099 105.506 57.7105 105.252 57.1809C105.78 57.4358 106.278 57.7481 106.737 58.1122C107.191 58.4598 107.62 58.8379 108.022 59.2437C108.428 59.6487 108.807 60.079 109.157 60.5321C109.52 60.9923 109.832 61.4903 110.089 62.0175Z" fill="#37474F"/>
<path d="M121 56.1796C121.192 56.7338 121.324 57.3066 121.394 57.8886C121.537 59.0245 121.537 60.1739 121.394 61.3099C121.326 61.8923 121.194 62.4655 121 63.0189C120.808 62.465 120.676 61.892 120.607 61.3099C120.462 60.174 120.462 59.0244 120.607 57.8886C120.676 57.3063 120.808 56.7333 121 56.1796Z" fill="#37474F"/>
<path d="M124.422 59.5975C123.867 59.7918 123.293 59.9239 122.71 59.9914C122.143 60.0636 121.572 60.0993 121.001 60.0982C120.429 60.1009 119.858 60.0652 119.292 59.9914C118.71 59.924 118.138 59.7919 117.586 59.5975C118.14 59.406 118.713 59.274 119.295 59.2036C119.862 59.1315 120.433 59.0958 121.004 59.0968C121.575 59.0985 122.146 59.1353 122.713 59.207C123.295 59.2751 123.868 59.4061 124.422 59.5975Z" fill="#37474F"/>
<path d="M123.421 57.1809C123.165 57.7089 122.851 58.207 122.486 58.6663C121.785 59.5709 120.973 60.3839 120.069 61.0862C119.609 61.4491 119.111 61.7613 118.584 62.0175C118.838 61.4879 119.15 60.9885 119.515 60.5288C119.865 60.0767 120.243 59.6475 120.647 59.2437C121.051 58.8404 121.481 58.4625 121.932 58.1122C122.393 57.7492 122.892 57.437 123.421 57.1809Z" fill="#37474F"/>
<path d="M123.421 62.0175C122.892 61.7614 122.393 61.4492 121.932 61.0862C121.48 60.7357 121.051 60.3567 120.647 59.9513C120.242 59.5495 119.864 59.1213 119.515 58.6696C119.15 58.2099 118.838 57.7105 118.584 57.1809C119.112 57.4358 119.61 57.7481 120.069 58.1122C120.523 58.4598 120.952 58.8379 121.354 59.2437C121.76 59.6479 122.138 60.0783 122.486 60.5321C122.851 60.9914 123.165 61.4895 123.421 62.0175Z" fill="#37474F"/>
<path d="M134.332 56.1796C134.524 56.7334 134.655 57.3064 134.723 57.8886C134.867 59.0244 134.867 60.174 134.723 61.3099C134.653 61.892 134.521 62.465 134.329 63.0189C134.135 62.4655 134.003 61.8923 133.935 61.3099C133.793 60.1739 133.793 59.0245 133.935 57.8886C134.007 57.3065 134.14 56.7336 134.332 56.1796Z" fill="#37474F"/>
<path d="M137.749 59.5975C137.196 59.7922 136.623 59.9243 136.04 59.9914C135.474 60.0635 134.903 60.0992 134.331 60.0982C133.76 60.101 133.189 60.0653 132.622 59.9914C132.039 59.9239 131.465 59.7918 130.91 59.5975C131.465 59.4063 132.039 59.2743 132.622 59.2036C133.189 59.1314 133.76 59.0957 134.331 59.0968C134.903 59.0986 135.474 59.1354 136.04 59.207C136.623 59.2745 137.196 59.4055 137.749 59.5975Z" fill="#37474F"/>
<path d="M136.749 57.1809C136.496 57.7094 136.183 58.2077 135.818 58.6663C135.47 59.1198 135.092 59.5491 134.686 59.9513C134.283 60.3567 133.854 60.7357 133.401 61.0862C132.941 61.4484 132.443 61.7606 131.916 62.0175C132.17 61.4887 132.481 60.9895 132.844 60.5288C133.546 59.6251 134.359 58.8132 135.264 58.1122C135.725 57.75 136.223 57.4378 136.749 57.1809Z" fill="#37474F"/>
<path d="M136.749 62.0175C136.223 61.7606 135.725 61.4484 135.264 61.0862C134.361 60.3828 133.549 59.5712 132.844 58.6696C132.481 58.2089 132.17 57.7097 131.916 57.1809C132.443 57.4366 132.941 57.7489 133.401 58.1122C133.853 58.4615 134.283 58.8395 134.686 59.2437C135.092 59.6479 135.47 60.0783 135.818 60.5321C136.183 60.9907 136.496 61.489 136.749 62.0175Z" fill="#37474F"/>
<path d="M125.087 56.5802V74.7582H119.95V56.5802C119.95 49.6674 114.7 44.0464 108.241 44.0464C101.782 44.0464 96.5315 49.6674 96.5315 56.5802V74.7582H91.3945V56.5802C91.3945 46.68 98.9515 38.6357 108.241 38.6357C117.53 38.6357 125.087 46.68 125.087 56.5802Z" fill="#455A64"/>
<path d="M91.3945 61.3066L96.5315 61.5136V74.7583H91.3945V61.3066Z" fill="#263238"/>
<path d="M125.088 62.6784V74.7582H119.951V62.4681L125.088 62.6784Z" fill="#263238"/>
<path d="M131.673 64.4075H84.8125V106.922H131.673V64.4075Z" fill="#FFAC00"/>
<path opacity="0.1" d="M131.669 64.4075H108.24V106.922H131.669V64.4075Z" fill="black"/>
<path d="M110.223 87.2219L112.182 96.5245H103.857L105.82 87.2219C105.053 86.7436 104.462 86.0285 104.137 85.1846C103.812 84.3406 103.771 83.4139 104.02 82.5445C104.268 81.6751 104.793 80.9103 105.515 80.3659C106.237 79.8215 107.117 79.527 108.021 79.527C108.926 79.527 109.805 79.8215 110.527 80.3659C111.249 80.9103 111.775 81.6751 112.023 82.5445C112.272 83.4139 112.231 84.3406 111.906 85.1846C111.581 86.0285 110.99 86.7436 110.223 87.2219Z" fill="#263238"/>
<path d="M94.6288 87.2051C94.6288 87.2051 92.1788 106.818 88.1533 111.238C83.3201 116.532 79.8087 115.757 77.8593 118.488C75.91 115.754 72.4019 116.532 67.562 111.234C63.5365 106.818 61.0898 87.2018 61.0898 87.2018C71.6976 82.0548 77.866 76.2836 77.866 76.2836C78.0496 76.4638 84.1846 82.1382 94.6288 87.2051Z" fill="#EBEBEB"/>
<path d="M77.8671 76.2869V118.484C75.9178 115.751 72.4097 116.528 67.5698 111.231C63.5443 106.815 61.0977 87.1984 61.0977 87.1984C71.6987 82.0547 77.8671 76.2836 77.8671 76.2836V76.2869Z" fill="#DBDBDB"/>
<path d="M92.028 88.7872C92.028 88.7872 89.9585 105.353 86.5572 109.085C82.4683 113.564 79.5043 112.907 77.8554 115.213C76.2065 112.907 73.2425 113.564 69.1569 109.085C65.7556 105.353 63.6895 88.7872 63.6895 88.7872C72.6517 84.448 77.8554 79.558 77.8554 79.558C77.8554 79.558 83.0658 84.4346 92.028 88.7872Z" fill="#DBDBDB"/>
<path d="M63.6934 88.7872C63.6934 88.7872 65.7628 105.353 69.1641 109.085C73.2464 113.561 76.197 112.907 77.866 115.207V79.5647C77.7024 79.7116 72.5254 84.5014 63.6934 88.7872Z" fill="#C7C7C7"/>
<path d="M82.5051 102.031C85.0705 99.4656 85.0705 95.3064 82.5051 92.741C79.9398 90.1757 75.7806 90.1757 73.2153 92.741C70.6499 95.3064 70.6499 99.4656 73.2153 102.031C75.7806 104.596 79.9398 104.596 82.5051 102.031Z" fill="#FFAC00"/>
<path d="M77.1109 101.655L74.1836 98.6106L75.2684 97.5659L76.8806 99.2448L80.3587 93.9109L81.6204 94.732L77.1109 101.655Z" fill="white"/>
<path d="M55.1973 120.064L55.9765 116.073L102.587 125.176C103.013 125.259 103.388 125.508 103.631 125.868C103.873 126.228 103.962 126.669 103.879 127.095L103.727 127.874C103.644 128.3 103.395 128.675 103.035 128.918C102.675 129.16 102.234 129.249 101.808 129.166L55.1973 120.064Z" fill="#FFAC00"/>
<path opacity="0.1" d="M55.9732 116.069L55.1934 120.063L60.8215 121.162L61.6014 117.168L55.9732 116.069Z" fill="black"/>
<path d="M38.1442 110.981L36.7724 118.077C36.5403 119.267 36.5448 120.49 36.7856 121.678C37.0264 122.866 37.4988 123.995 38.1759 125C38.853 126.006 39.7215 126.868 40.7318 127.538C41.742 128.207 42.8743 128.671 44.064 128.903C45.2536 129.136 46.4773 129.131 47.6652 128.89C48.8531 128.649 49.982 128.177 50.9873 127.5C51.9926 126.823 52.8547 125.954 53.5244 124.944C54.1941 123.934 54.6583 122.802 54.8904 121.612L56.2722 114.532C56.7432 112.128 56.2399 109.636 54.8731 107.603C53.5063 105.57 51.3879 104.163 48.984 103.692C46.5801 103.222 44.0875 103.725 42.0547 105.092C40.0218 106.458 38.6152 108.577 38.1442 110.981ZM53.3616 112.753C52.951 114.859 51.1119 116.378 48.8388 116.742C50.8081 117.94 51.943 120.033 51.5291 122.139C50.9817 124.956 47.8741 126.725 44.593 126.085C41.3119 125.444 39.1055 122.637 39.6563 119.823C40.0668 117.717 41.906 116.198 44.1824 115.817C42.2098 114.626 41.0782 112.526 41.4888 110.42C42.0395 107.599 45.1404 105.837 48.4182 106.478C51.696 107.119 53.9257 109.936 53.375 112.753H53.3616Z" fill="#FFAC00"/>
<path d="M56.3222 114.271L54.8399 121.861C54.76 122.27 55.0268 122.666 55.4357 122.746L55.796 122.817C56.2049 122.896 56.6012 122.63 56.681 122.221L58.1633 114.63C58.2432 114.221 57.9764 113.825 57.5675 113.745L57.2072 113.675C56.7983 113.595 56.4021 113.862 56.3222 114.271Z" fill="#FFAC00"/>
<path d="M58.164 114.631L56.6817 122.221C56.6018 122.63 56.8686 123.026 57.2775 123.106L57.6378 123.177C58.0467 123.256 58.4429 122.99 58.5228 122.581L60.0051 114.99C60.085 114.581 59.8182 114.185 59.4093 114.105L59.049 114.035C58.6401 113.955 58.2439 114.222 58.164 114.631Z" fill="#FFAC00"/>
<path d="M91.4463 121.288L92.8348 121.558L93.6192 117.526L94.8075 117.757L94.3969 119.859L95.7822 120.13L96.1927 118.027L97.2442 118.231L96.5933 121.555L97.9818 121.829L98.6327 118.504L100.121 118.795L99.2569 123.234L100.645 123.504L101.513 119.065L102.922 119.342L101.814 125.017L89.4102 122.593L90.515 116.919L92.2307 117.253L91.4463 121.288Z" fill="#FFAC00"/>
<path d="M139.283 100.503L130.187 107.847C128.442 109.242 126.936 110.497 126.219 111.221C126.033 111.374 125.884 111.565 125.781 111.782C125.781 111.782 125.781 111.782 125.781 111.802C125.845 112.6 136.593 126.876 137.13 127.246C137.667 127.617 138.776 126.101 138.799 125.217C138.822 124.332 137.153 117.022 137.153 117.022L146.166 109.592L139.283 100.503Z" fill="#C95F50"/>
<path d="M132.043 106.348L130.177 107.853C128.432 109.249 126.926 110.504 126.209 111.228C126.041 111.397 125.895 111.585 125.771 111.789C125.771 111.789 125.771 111.789 125.771 111.809C125.835 112.606 136.583 126.883 137.12 127.253C137.658 127.624 138.766 126.108 138.789 125.224C138.813 124.339 137.144 117.029 137.144 117.029L139.06 115.524L132.043 106.348Z" fill="#EBEBEB"/>
<path d="M137.111 127.263C136.567 126.893 125.822 112.62 125.762 111.815C125.732 111.512 127.721 109.813 130.181 107.857L130.262 107.793L137.281 116.926L137.124 117.039C137.124 117.039 138.793 124.342 138.77 125.234C138.746 126.125 137.652 127.637 137.111 127.263Z" fill="#FFAC00"/>
<path d="M137.541 126.686C135.788 124.236 128.492 114.519 126.572 112.229C126.572 112.209 126.546 112.229 126.572 112.229C128.241 114.696 135.631 124.356 137.517 126.706C137.544 126.756 137.581 126.756 137.541 126.686Z" fill="#263238"/>
<path d="M137.688 117.833C137.15 116.755 136.136 115.704 134.914 115.497C134.867 115.497 134.857 115.554 134.891 115.58C135.862 116.261 136.757 117.045 137.561 117.917C137.573 117.931 137.59 117.939 137.608 117.942C137.627 117.944 137.645 117.94 137.66 117.93C137.676 117.92 137.687 117.904 137.692 117.887C137.697 117.869 137.696 117.85 137.688 117.833Z" fill="#263238"/>
<path d="M137.792 118.828C137.255 117.747 136.237 116.699 135.018 116.492C134.972 116.492 134.962 116.552 134.992 116.575C135.963 117.256 136.858 118.04 137.662 118.912C137.667 118.92 137.675 118.928 137.683 118.933C137.691 118.939 137.701 118.943 137.711 118.945C137.72 118.948 137.731 118.948 137.741 118.946C137.751 118.944 137.76 118.941 137.769 118.935C137.777 118.93 137.785 118.922 137.791 118.914C137.796 118.906 137.8 118.896 137.803 118.886C137.805 118.877 137.805 118.866 137.803 118.856C137.801 118.846 137.798 118.837 137.792 118.828Z" fill="#263238"/>
<path d="M137.892 119.82C137.358 118.741 136.34 117.693 135.121 117.483C135.075 117.483 135.061 117.543 135.095 117.566C136.065 118.248 136.96 119.032 137.765 119.903C137.77 119.911 137.778 119.918 137.786 119.924C137.794 119.93 137.803 119.934 137.813 119.936C137.823 119.938 137.833 119.938 137.843 119.936C137.852 119.934 137.862 119.93 137.87 119.925C137.878 119.919 137.886 119.912 137.891 119.904C137.897 119.896 137.901 119.886 137.903 119.877C137.905 119.867 137.905 119.857 137.903 119.847C137.901 119.837 137.897 119.828 137.892 119.82Z" fill="#263238"/>
<path d="M144.19 91.7514C143.546 94.9323 130.352 107.62 130.352 107.62L139.551 118.237C139.551 118.237 158.283 99.5453 157.305 92.5124C156.454 86.4007 147.291 61.824 147.291 61.824H136.75C136.75 61.824 144.821 88.6238 144.19 91.7514Z" fill="#37474F"/>
<path d="M144.19 91.7514C143.546 94.9323 130.352 107.62 130.352 107.62L139.551 118.237C139.551 118.237 158.283 99.5453 157.305 92.5124C156.454 86.4007 147.291 61.824 147.291 61.824H136.75C136.75 61.824 144.821 88.6238 144.19 91.7514Z" fill="#37474F"/>
<path d="M140.595 115.714C139.373 114.192 139.747 114.612 138.509 113.104C137.901 112.366 133.913 107.523 133.225 106.932C133.225 106.932 133.185 106.932 133.195 106.959C133.656 107.736 137.728 112.51 138.349 113.237C139.617 114.719 139.27 114.282 140.552 115.751C140.578 115.777 140.618 115.741 140.595 115.714Z" fill="#263238"/>
<path d="M145.502 90.2026C145.349 89.4082 145.168 88.6171 145.011 87.826C144.667 86.2105 144.303 84.6005 143.92 82.9961C143.159 79.8118 142.332 76.6453 141.44 73.4965C140.542 70.3389 139.591 67.1846 138.493 64.0871C138.359 63.7032 138.219 63.3227 138.079 62.9422C138.079 62.936 138.076 62.9301 138.072 62.9257C138.067 62.9213 138.062 62.9188 138.055 62.9188C138.049 62.9188 138.043 62.9213 138.039 62.9257C138.034 62.9301 138.032 62.936 138.032 62.9422C138.983 66.0464 139.961 69.1406 140.849 72.2582C141.737 75.3758 142.555 78.4933 143.329 81.6309C143.716 83.2064 144.077 84.7886 144.431 86.3707C144.604 87.1485 144.764 87.9295 144.938 88.7072C145.144 89.4988 145.292 90.3042 145.382 91.1172C145.406 91.8874 145.189 92.6459 144.761 93.2868C144.364 93.9344 143.9 94.5418 143.449 95.1527C142.548 96.3743 133.956 105.951 133.679 106.211C133.656 106.231 133.679 106.261 133.713 106.241C134.864 105.206 142.154 97.3156 143.079 96.094C143.539 95.4898 143.983 94.879 144.414 94.2581C144.852 93.6978 145.206 93.0758 145.462 92.4123C145.665 91.6914 145.679 90.9304 145.502 90.2026Z" fill="#263238"/>
<path d="M145.479 61.824L143.563 86.9749C141.733 78.3665 136.75 61.824 136.75 61.824H145.479Z" fill="#263238"/>
<path d="M162.809 131.152C162.185 131.352 144.317 131.075 143.646 130.634C143.537 130.421 143.478 130.186 143.472 129.947C143.471 129.94 143.471 129.933 143.472 129.927C143.342 128.925 143.279 126.963 143.245 124.726L142.852 122.794H154.304L154.751 124.87C154.751 124.87 161.544 128.037 162.235 128.601C162.926 129.166 163.44 130.955 162.809 131.152Z" fill="#EBEBEB"/>
<path d="M162.809 131.152C162.182 131.352 144.317 131.075 143.646 130.634C143.386 130.471 143.276 127.864 143.232 124.713V124.613L154.758 124.663V124.86C154.758 124.86 161.547 128.024 162.235 128.588C162.923 129.152 163.437 130.955 162.809 131.152Z" fill="#FFAC00"/>
<path d="M162.619 130.457C159.615 130.337 147.455 130.124 144.471 130.244C144.447 130.244 144.447 130.26 144.471 130.264C147.451 130.447 159.605 130.551 162.619 130.507C162.682 130.504 162.682 130.461 162.619 130.457Z" fill="#263238"/>
<path d="M155.719 124.91C154.537 124.669 153.085 124.83 152.164 125.661C152.13 125.691 152.164 125.741 152.214 125.731C153.353 125.383 154.525 125.16 155.712 125.063C155.722 125.064 155.732 125.062 155.742 125.059C155.751 125.055 155.76 125.05 155.767 125.043C155.775 125.036 155.781 125.028 155.785 125.019C155.789 125.01 155.792 125 155.792 124.99C155.793 124.98 155.791 124.97 155.788 124.96C155.784 124.951 155.779 124.942 155.772 124.935C155.765 124.927 155.757 124.921 155.748 124.917C155.739 124.913 155.729 124.91 155.719 124.91Z" fill="#263238"/>
<path d="M156.563 125.437C155.385 125.197 153.929 125.357 153.011 126.188C152.978 126.222 153.011 126.272 153.062 126.258C154.199 125.911 155.371 125.687 156.556 125.591C156.577 125.592 156.597 125.584 156.612 125.571C156.627 125.557 156.636 125.538 156.636 125.517C156.637 125.497 156.63 125.477 156.616 125.462C156.603 125.447 156.583 125.438 156.563 125.437Z" fill="#263238"/>
<path d="M157.412 125.968C156.23 125.728 154.779 125.888 153.861 126.716C153.824 126.749 153.861 126.799 153.911 126.789C155.049 126.443 156.22 126.22 157.405 126.121C157.415 126.122 157.426 126.12 157.435 126.117C157.445 126.113 157.453 126.108 157.461 126.101C157.468 126.095 157.474 126.086 157.478 126.077C157.483 126.068 157.485 126.058 157.486 126.048C157.486 126.038 157.484 126.028 157.481 126.018C157.477 126.009 157.472 126 157.465 125.993C157.459 125.985 157.45 125.979 157.441 125.975C157.432 125.971 157.422 125.968 157.412 125.968Z" fill="#263238"/>
<path d="M146.294 61.824C145.883 63.5593 145.58 65.3184 145.386 67.0912C145.169 69.3008 144.892 71.2568 144.598 71.5005C144.305 71.7442 142.596 72.8357 142.035 73.1694C142.035 73.1694 147.235 88.9376 148.577 94.198C150.523 101.815 155.183 124.676 155.183 124.676H142.766C142.766 124.676 138.991 102.917 137.339 95.66C135.923 89.4416 130.503 70.7862 130.503 70.7862C129.931 69.3479 129.674 67.8037 129.749 66.2577C129.825 64.7117 130.231 63.1998 130.94 61.824C130.94 61.824 146.294 61.8173 146.294 61.824Z" fill="#37474F"/>
<path d="M154.728 122.273C152.775 122.273 153.336 122.239 151.39 122.249C150.435 122.249 144.16 122.296 143.272 122.46C143.267 122.46 143.262 122.462 143.258 122.466C143.254 122.469 143.252 122.474 143.252 122.48C143.252 122.485 143.254 122.49 143.258 122.494C143.262 122.498 143.267 122.5 143.272 122.5C144.167 122.633 150.438 122.48 151.393 122.456C153.346 122.406 152.785 122.4 154.731 122.33C154.737 122.327 154.742 122.323 154.745 122.318C154.748 122.312 154.75 122.306 154.75 122.3C154.749 122.294 154.747 122.288 154.743 122.283C154.739 122.278 154.734 122.274 154.728 122.273Z" fill="#263238"/>
<path d="M145.469 70.8763C144.263 71.54 143.118 72.3073 142.045 73.1694C142.038 73.1766 142.034 73.1857 142.033 73.1954C142.033 73.2051 142.035 73.2147 142.04 73.2228C142.046 73.2308 142.054 73.2369 142.063 73.2399C142.072 73.2429 142.082 73.2428 142.091 73.2395C143.253 72.5119 144.428 71.8042 145.559 71.0132C145.573 70.9996 145.582 70.9817 145.584 70.9624C145.586 70.9431 145.581 70.9237 145.571 70.9075C145.56 70.8914 145.544 70.8794 145.526 70.8737C145.507 70.868 145.487 70.8689 145.469 70.8763Z" fill="#263238"/>
<path d="M144.52 62.2979C144.52 62.2545 144.434 62.2579 144.44 62.2979C144.657 63.686 144.802 65.0841 144.878 66.4869C144.921 67.1345 144.954 70.7561 143.803 70.6693C143.609 70.6693 143.469 70.4891 143.412 70.212C143.36 69.8448 143.354 69.4727 143.392 69.1038C143.392 68.3428 143.392 67.5851 143.332 66.8241C143.243 65.4187 143.011 64.0262 142.638 62.6684C142.638 62.6587 142.634 62.6493 142.627 62.6424C142.62 62.6356 142.611 62.6317 142.601 62.6317C142.591 62.6317 142.582 62.6356 142.575 62.6424C142.568 62.6493 142.564 62.6587 142.564 62.6684C142.898 64.5964 143.085 66.5468 143.125 68.503C143.125 69.4476 142.882 70.9063 143.866 70.8963C144.851 70.8863 145.145 68.4663 145.165 67.8154C145.19 65.9561 144.973 64.1014 144.52 62.2979Z" fill="#263238"/>
<path d="M143.847 70.7695C143.785 71.0233 143.741 71.2809 143.713 71.5405C143.676 71.7458 143.676 71.956 143.713 72.1613C143.716 72.1693 143.722 72.176 143.729 72.1808C143.736 72.1855 143.745 72.1881 143.753 72.1881C143.762 72.1881 143.77 72.1855 143.777 72.1808C143.784 72.176 143.79 72.1693 143.793 72.1613C143.883 71.9626 143.939 71.7507 143.96 71.5338C144.01 71.2935 144.064 71.0565 144.107 70.8128C144.113 70.7783 144.104 70.7429 144.084 70.7144C144.064 70.686 144.033 70.6667 143.998 70.661C143.964 70.6552 143.929 70.6634 143.9 70.6838C143.872 70.7041 143.852 70.7349 143.847 70.7695Z" fill="#263238"/>
<path d="M132.274 70.7061C133.344 70.6466 134.401 70.4468 135.418 70.1119C136.574 69.7427 137.621 69.0964 138.469 68.2293C138.949 67.7529 139.345 67.1988 139.641 66.5905C139.641 66.5671 139.688 66.5905 139.681 66.6105C139.5 67.1996 139.22 67.7538 138.853 68.2494C138.474 68.7402 138.024 69.1722 137.518 69.5311C136.517 70.2653 135.338 70.7203 134.103 70.8496C133.494 70.9442 132.873 70.9352 132.267 70.8229C132.171 70.8095 132.197 70.7127 132.274 70.7061Z" fill="#263238"/>
<path d="M141.313 115.43C141.283 115.143 141.243 114.856 141.203 114.569C141.126 114.022 141.033 113.471 140.946 112.923C140.779 111.819 140.589 110.717 140.392 109.619C140.005 107.426 139.554 105.24 139.08 103.063C138.81 101.835 138.499 100.62 138.169 99.3917C138.149 99.3049 138.029 99.3483 138.042 99.4284C138.242 100.543 138.436 101.655 138.663 102.766C138.89 103.878 139.117 104.973 139.33 106.077C139.764 108.26 140.168 110.453 140.602 112.636C140.722 113.254 140.836 113.871 140.956 114.489C141.016 114.796 141.076 115.106 141.143 115.41C141.21 115.714 141.303 116.018 141.353 116.325C141.353 116.355 141.403 116.341 141.4 116.325C141.353 116.028 141.35 115.741 141.313 115.43Z" fill="#263238"/>
<path d="M149.879 98.9311C149.465 96.8717 148.908 94.8389 148.347 92.8128C147.219 88.7406 145.89 84.7251 144.565 80.7097C144.182 79.5548 143.799 78.3987 143.417 77.2416C143.226 76.6642 142.292 73.5432 142.175 73.2362C142.173 73.2311 142.17 73.2266 142.165 73.2235C142.161 73.2204 142.155 73.2188 142.15 73.2188C142.145 73.2188 142.139 73.2204 142.135 73.2235C142.13 73.2266 142.127 73.2311 142.125 73.2362C142.395 74.2976 142.763 75.8464 143.073 76.9078C143.383 77.9693 143.714 78.9806 144.038 80.012C144.672 82.0448 145.316 84.0776 145.93 86.1137C147.149 90.1425 148.357 94.1713 149.345 98.2635C149.622 99.4118 149.899 100.557 150.149 101.708C150.4 102.86 150.62 104.015 150.86 105.166C150.86 105.2 150.92 105.19 150.917 105.166C150.71 103.077 150.299 101.001 149.879 98.9311Z" fill="#263238"/>
<path d="M142.158 109.709C141.474 105.78 140.656 101.872 139.748 97.9864C138.84 94.1011 137.822 90.2025 136.704 86.3539C135.586 82.5054 134.347 78.6768 133.032 74.905C132.362 73.1255 131.799 71.3076 131.346 69.461C130.936 67.6251 130.729 65.6391 131.156 63.7866C131.26 63.3165 131.402 62.8555 131.58 62.408C131.58 62.378 131.547 62.3513 131.533 62.3813C130.041 65.8627 131.009 69.6679 132.148 73.0992C132.768 74.9785 133.433 76.8443 134.05 78.7269C134.668 80.6095 135.282 82.5988 135.863 84.5481C137.008 88.4101 138.072 92.2954 139.024 96.2073C139.975 100.119 140.826 104.058 141.574 108.017C142.321 111.975 142.952 115.978 143.593 119.966C143.677 120.487 143.74 121.008 143.81 121.528C143.81 121.558 143.857 121.558 143.853 121.528C143.359 117.573 142.839 113.634 142.158 109.709Z" fill="#263238"/>
<path d="M141.904 45.3382C143.366 50.6788 147.578 57.1209 149.581 58.0222C151.323 58.7965 159.408 55.8058 162.458 53.8632C163.326 53.3091 159.738 48.3123 158.693 48.6594C155.279 49.7976 151.564 51.4799 151.277 51.3831C150.696 51.1862 147.071 46.7401 144.431 43.7494C141.47 40.3882 141.323 43.212 141.904 45.3382Z" fill="#C95F50"/>
<path d="M168.223 49.3336C168.91 49.0466 174.201 48.8797 174.201 47.7315C174.201 46.5832 167.465 46.9037 167.465 46.9037L168.223 49.3336Z" fill="#C95F50"/>
<path d="M158.076 49.4672C159.001 48.3189 159.815 47.0806 160.62 46.8536C161.174 46.6967 167.165 46.9538 168.1 46.897C169.034 46.8403 172.376 46.9271 172.439 47.7482C172.549 48.9064 168.597 48.8964 168.177 49.4905C166.718 51.5367 161.167 54.5641 161.167 54.5641L158.076 49.4672Z" fill="#C95F50"/>
<path d="M172.542 47.7649C172.481 47.5517 172.344 47.3679 172.158 47.2475C171.721 47.0082 171.228 46.8873 170.73 46.8971C169.999 46.8314 169.265 46.8258 168.533 46.8804C168.533 46.8804 168.533 46.9037 168.533 46.9071C169.084 46.9071 169.628 46.9071 170.175 46.9672C170.678 46.9859 171.176 47.062 171.661 47.1941C171.878 47.2502 172.076 47.3657 172.232 47.5279C172.285 47.5889 172.322 47.6627 172.339 47.7422C172.356 47.8217 172.353 47.9042 172.328 47.9819C172.171 48.4859 171.173 48.6494 170.713 48.7396C170.112 48.8731 169.488 48.9899 168.884 49.1134C168.857 49.1134 168.884 49.1601 168.884 49.1535C169.511 49.03 170.172 48.9832 170.803 48.8697C171.33 48.8183 171.835 48.6346 172.272 48.3357C172.367 48.2765 172.443 48.1912 172.491 48.09C172.539 47.9888 172.556 47.8759 172.542 47.7649Z" fill="#263238"/>
<path d="M157.845 48.7595L162.585 55.6989C162.585 55.6989 155.242 59.3706 152.431 59.3139C149.761 59.2504 148.79 58.8566 147.945 58.0588C147.421 57.5648 144.447 53.3624 142.02 46.3763C139.984 40.5216 142.998 41.3695 145.692 44.6272C147.027 46.2428 151.313 51.0593 151.527 51.0426C151.74 51.0259 157.845 48.7595 157.845 48.7595Z" fill="#FFAC00"/>
<path d="M156.387 49.8877C157.098 50.9157 157.778 51.9638 158.449 53.0186C158.783 53.5326 160.012 55.6355 160.369 56.233C160.369 56.2563 160.319 56.2964 160.302 56.273C159.931 55.7456 158.593 53.6461 158.269 53.1254C157.602 52.0606 156.971 50.9925 156.357 49.9077C156.355 49.9057 156.354 49.9035 156.354 49.9012C156.353 49.8989 156.353 49.8965 156.354 49.8942C156.354 49.8918 156.355 49.8896 156.357 49.8876C156.358 49.8857 156.36 49.884 156.362 49.8827C156.364 49.8814 156.366 49.8804 156.368 49.88C156.37 49.8795 156.373 49.8795 156.375 49.88C156.377 49.8805 156.38 49.8814 156.382 49.8827C156.384 49.884 156.385 49.8857 156.387 49.8877Z" fill="#263238"/>
<path opacity="0.1" d="M153.853 59.137C153.388 59.2515 152.91 59.3108 152.431 59.3139C149.761 59.2505 148.79 58.8566 147.945 58.0589C147.424 57.5649 144.447 53.3658 142.024 46.3763C141.643 45.4087 141.418 44.3869 141.356 43.3488C141.356 43.2854 141.356 43.2187 141.356 43.1586C141.353 43.0997 141.353 43.0406 141.356 42.9817C141.361 42.9335 141.369 42.8856 141.379 42.8382C141.414 42.6203 141.516 42.4191 141.673 42.264C143.332 44.4871 151.109 54.9914 153.853 59.137Z" fill="black"/>
<path d="M171.254 45.9124H153.283V46.877H171.254V45.9124Z" fill="#C7C7C7"/>
<path d="M171.255 45.9124V46.877H160.34L161.078 45.9124H171.255Z" fill="#A6A6A6"/>
<path d="M161.871 46.877H173.891L180.146 36.2559H168.126L161.871 46.877Z" fill="#C7C7C7"/>
<path d="M170.559 41.5598C170.335 42.0504 170.499 42.5611 170.926 42.7147C171.165 42.7699 171.416 42.7372 171.633 42.6226C171.85 42.508 172.019 42.3191 172.108 42.0905C172.331 41.5998 172.168 41.0891 171.741 40.9356C171.502 40.881 171.251 40.914 171.034 41.0286C170.817 41.1431 170.649 41.3316 170.559 41.5598Z" fill="white"/>
<path d="M129.781 65.4823C129.824 65.529 148.597 65.3955 148.767 65.2019C149.001 64.9282 144.554 44.6339 142.602 42.1405C142.185 41.6064 140.823 41.4729 139.668 41.6265C139.367 41.6639 139.07 41.7275 138.78 41.8167H138.75C138.515 41.89 138.295 42.0029 138.099 42.1505C134.911 44.7507 132.298 53.7496 131.694 56.45C130.692 60.9027 129.624 65.3053 129.781 65.4823Z" fill="#EBEBEB"/>
<path d="M138.549 41.8635C138.549 41.8635 139.774 50.2082 140.065 52.3845C140.355 54.5608 140.065 65.9863 140.065 65.9863L128.285 66.9877C128.285 66.9877 130.755 59.3907 130.779 58.9101C130.779 58.9101 132.731 49.781 134.747 46.0125C135.648 44.3334 136.955 42.9069 138.549 41.8635Z" fill="#FFAC00"/>
<path d="M142.471 42.0104C142.471 42.0104 144.063 50.4619 144.203 51.1595C144.343 51.8571 146.383 65.5925 146.383 65.5925L149.33 65.6559L147.731 59.3807C147.731 59.3807 144.31 43.3088 142.471 42.0104Z" fill="#FFAC00"/>
<path d="M141.807 44.7106C140.912 44.8141 139.217 43.5691 138.743 42.2506C138.713 42.1572 138.98 41.2993 139.253 40.2479C139.417 39.6037 139.587 38.886 139.691 38.2185C139.711 38.0816 143.716 39.8874 143.716 39.8874C143.344 40.6832 143.072 41.5218 142.905 42.3841C142.897 42.4774 142.897 42.5712 142.905 42.6645V42.7112C142.892 43.2486 142.768 44.6038 141.807 44.7106Z" fill="#C95F50"/>
<path d="M142.893 42.6712C142.894 42.6868 142.894 42.7024 142.893 42.718C142.748 42.7128 142.604 42.6971 142.462 42.6712C140.009 42.2273 139.845 39.0396 139.842 38.2385C140.569 38.4622 143.72 39.9075 143.72 39.9075C143.349 40.7045 143.076 41.5442 142.909 42.4075C142.898 42.495 142.892 42.5831 142.893 42.6712Z" fill="#263238"/>
<path d="M139.738 32.8946C139.094 34.3299 139.341 38.7359 140.279 39.8274C141.641 41.4129 144.141 41.8635 145.556 40.1612C146.928 38.5156 146.507 32.7778 145.433 31.7564C143.851 30.2543 140.686 30.7784 139.738 32.8946Z" fill="#C95F50"/>
<path d="M142.982 36.0155C142.982 36.0155 142.958 36.0155 142.962 36.0422C142.985 36.3393 142.962 36.6797 142.701 36.7932C142.701 36.7932 142.701 36.8133 142.701 36.8099C143.028 36.7465 143.052 36.2992 142.982 36.0155Z" fill="#263238"/>
<path d="M142.701 35.7185C142.224 35.7185 142.234 36.6665 142.678 36.6765C143.121 36.6865 143.101 35.7285 142.701 35.7185Z" fill="#263238"/>
<path d="M144.811 35.9988C144.811 35.9988 144.834 36.0155 144.834 36.0255C144.834 36.3225 144.871 36.6664 145.141 36.7598C145.141 36.7598 145.141 36.7798 145.141 36.7765C144.811 36.7364 144.758 36.2992 144.811 35.9988Z" fill="#263238"/>
<path d="M145.072 35.6884C145.549 35.645 145.599 36.603 145.155 36.6431C144.711 36.6831 144.671 35.7218 145.072 35.6884Z" fill="#263238"/>
<path d="M142.319 35.2979C142.449 35.2611 142.562 35.2077 142.689 35.161C142.826 35.1322 142.95 35.0582 143.04 34.9507C143.062 34.912 143.07 34.8673 143.064 34.8233C143.058 34.7793 143.038 34.7385 143.006 34.7071C142.933 34.6546 142.847 34.6226 142.757 34.6144C142.668 34.6062 142.577 34.622 142.496 34.6603C142.319 34.7151 142.169 34.8342 142.075 34.9941C142.058 35.0308 142.051 35.0716 142.056 35.1119C142.061 35.1521 142.077 35.1902 142.102 35.2218C142.128 35.2535 142.161 35.2774 142.2 35.2908C142.238 35.3042 142.279 35.3067 142.319 35.2979Z" fill="#263238"/>
<path d="M145.439 34.8807C145.31 34.8563 145.181 34.8251 145.055 34.7872C144.917 34.7719 144.787 34.7122 144.685 34.617C144.657 34.581 144.643 34.5371 144.643 34.4918C144.643 34.4466 144.657 34.4027 144.685 34.3667C144.752 34.3075 144.834 34.2671 144.922 34.2495C145.01 34.232 145.1 34.2378 145.185 34.2665C145.366 34.3001 145.527 34.3987 145.639 34.5436C145.662 34.5777 145.675 34.6175 145.676 34.6586C145.677 34.6997 145.667 34.7402 145.646 34.7755C145.625 34.8108 145.594 34.8394 145.558 34.8581C145.521 34.8767 145.48 34.8845 145.439 34.8807Z" fill="#263238"/>
<path d="M142.886 38.7627C142.956 38.8328 143.029 38.9262 143.136 38.9362C143.252 38.9345 143.366 38.9071 143.47 38.8561C143.47 38.8561 143.487 38.8561 143.47 38.8728C143.428 38.9313 143.37 38.9774 143.304 39.0062C143.237 39.0349 143.165 39.0454 143.093 39.0364C143.032 39.0219 142.977 38.9897 142.935 38.9439C142.893 38.8982 142.865 38.8409 142.856 38.7793C142.853 38.7593 142.873 38.7526 142.886 38.7627Z" fill="#263238"/>
<path d="M143.185 37.8714C143.261 37.9868 143.359 38.0855 143.473 38.1613C143.588 38.2371 143.717 38.2884 143.853 38.312C143.974 38.3303 144.096 38.3303 144.217 38.312C144.24 38.3155 144.264 38.3155 144.287 38.312H144.35C144.366 38.3091 144.381 38.301 144.392 38.2889C144.403 38.2768 144.409 38.2615 144.41 38.2452C144.412 38.2353 144.412 38.2252 144.41 38.2152V38.1885C144.41 37.9582 144.387 37.6111 144.387 37.6111C144.471 37.6511 144.901 37.838 144.891 37.7179C144.852 36.6869 144.709 35.6626 144.464 34.6604C144.464 34.6533 144.461 34.6465 144.456 34.6415C144.451 34.6365 144.444 34.6337 144.437 34.6337C144.43 34.6337 144.423 34.6365 144.418 34.6415C144.413 34.6465 144.41 34.6533 144.41 34.6604C144.441 35.6117 144.637 36.5529 144.684 37.5109C144.531 37.442 144.369 37.3948 144.204 37.3707C144.17 37.3707 144.267 38.0383 144.257 38.1451C144.07 38.1667 143.88 38.1503 143.7 38.0969C143.519 38.0436 143.351 37.9544 143.206 37.8347C143.192 37.828 143.169 37.848 143.185 37.8714Z" fill="#263238"/>
<path d="M144.094 38.2118C143.971 38.3752 143.808 38.5049 143.62 38.589C143.514 38.631 143.398 38.6391 143.287 38.6123C143.05 38.5523 143.043 38.3353 143.083 38.1484C143.106 38.0489 143.141 37.9526 143.187 37.8613C143.444 38.0718 143.762 38.1946 144.094 38.2118Z" fill="#263238"/>
<path d="M143.622 38.589C143.516 38.631 143.4 38.6392 143.289 38.6124C143.052 38.5523 143.045 38.3354 143.085 38.1484C143.211 38.1514 143.332 38.1963 143.43 38.2762C143.527 38.356 143.595 38.4661 143.622 38.589Z" fill="#FF9BBC"/>
<path d="M139.37 36.7031C139.37 36.7031 138.306 34.0595 138.67 32.6976C138.833 32.0801 139.758 31.7964 139.758 31.7964C139.733 31.5309 139.782 31.2636 139.9 31.0244C140.018 30.7851 140.2 30.5833 140.425 30.4412C141.283 29.8604 143.059 30.311 143.059 30.311C143.059 30.311 144.501 28.8157 146.043 29.7536C147.585 30.6916 146.203 32.3872 146.203 32.3872C146.203 32.3872 146.67 33.3452 145.078 33.7758C143.486 34.2063 140.692 33.0715 140.692 33.0715C140.663 34.1075 140.479 35.1335 140.148 36.1156C140.084 36.275 139.978 36.4139 139.841 36.5174C139.704 36.6209 139.541 36.6851 139.37 36.7031Z" fill="#263238"/>
<path d="M143.353 30.3746C143.007 30.1655 142.624 30.0282 142.224 29.9707C141.87 29.9123 141.508 29.9123 141.153 29.9707C140.836 30.0081 140.536 30.1305 140.283 30.325C140.03 30.5196 139.835 30.7789 139.718 31.0755C139.667 31.2316 139.649 31.3962 139.663 31.5596C139.677 31.723 139.724 31.8819 139.801 32.0268C139.801 32.0268 139.824 32.0268 139.818 32.0268C139.514 31.4894 139.818 30.7885 140.292 30.458C140.844 30.1172 141.501 29.989 142.141 30.0975C142.551 30.1599 142.953 30.272 143.336 30.4313C143.34 30.4324 143.344 30.4328 143.347 30.4323C143.351 30.4319 143.355 30.4308 143.358 30.4289C143.362 30.427 143.365 30.4245 143.367 30.4215C143.37 30.4185 143.372 30.415 143.373 30.4113C143.374 30.4076 143.374 30.4037 143.374 30.3998C143.373 30.3959 143.372 30.3922 143.37 30.3888C143.368 30.3854 143.366 30.3824 143.363 30.3799C143.36 30.3775 143.356 30.3757 143.353 30.3746Z" fill="#263238"/>
<path d="M147.105 30.735C147.065 30.5035 146.968 30.2856 146.823 30.1009C146.678 29.9161 146.489 29.7704 146.274 29.6769C145.787 29.4351 145.233 29.3645 144.701 29.4766C144.167 29.5907 143.673 29.8454 143.27 30.2143C143.27 30.2143 143.27 30.2377 143.27 30.2143C143.631 29.8901 144.073 29.6694 144.55 29.5754C145.026 29.4814 145.519 29.5176 145.977 29.6802C146.19 29.7375 146.385 29.8467 146.546 29.998C146.706 30.1493 146.827 30.3381 146.897 30.5474C146.966 30.7567 146.983 30.98 146.945 31.1974C146.908 31.4148 146.817 31.6195 146.681 31.7931C146.361 32.2004 145.933 32.5093 145.446 32.6843C145.446 32.6843 145.446 32.7077 145.446 32.701C145.902 32.563 146.316 32.3128 146.651 31.9734C146.81 31.811 146.933 31.6166 147.011 31.4031C147.089 31.1895 147.121 30.9618 147.105 30.735Z" fill="#263238"/>
<path d="M140.378 36.5896C140.378 36.5896 139.55 35.0909 138.879 35.3746C138.208 35.6583 138.729 37.7545 139.443 38.1117C139.532 38.1632 139.63 38.1964 139.732 38.2092C139.834 38.222 139.937 38.2141 140.036 38.1861C140.135 38.1581 140.227 38.1104 140.307 38.046C140.387 37.9816 140.453 37.9018 140.501 37.8113L140.378 36.5896Z" fill="#C95F50"/>
<path d="M139.043 35.9655C139.043 35.9655 139.043 35.9655 139.043 35.9855C139.27 36.1292 139.464 36.3191 139.612 36.5429C139.76 36.7666 139.86 37.0191 139.904 37.2839C139.879 37.2288 139.843 37.1798 139.797 37.1401C139.752 37.1004 139.698 37.071 139.64 37.0539C139.582 37.0368 139.521 37.0324 139.461 37.041C139.401 37.0496 139.344 37.071 139.293 37.1037C139.293 37.1037 139.293 37.137 139.293 37.1337C139.388 37.1141 139.487 37.1245 139.576 37.1633C139.665 37.2021 139.74 37.2676 139.791 37.3507C139.871 37.4911 139.938 37.6385 139.991 37.7913C140.011 37.8413 140.098 37.8246 140.084 37.7679C140.168 37.1003 139.751 36.1157 139.043 35.9655Z" fill="#263238"/>
<path d="M136.184 43.7861C131.457 49.0934 127.902 56.5669 127.936 58.3293C127.983 60.2652 130.446 67.0845 132.792 70.2889C133.096 70.6994 134.925 70.5259 136.464 69.6747C138.096 68.7768 139.435 67.1746 139.114 66.6973C137.909 64.9049 135.055 57.9621 135.082 56.8773C135.106 55.8759 137.445 49.7276 138.337 46.1727C139.208 42.7514 138.383 41.3061 136.184 43.7861Z" fill="#C95F50"/>
<path d="M129.937 69.7581L138.739 65.4589C138.739 65.4589 135.278 57.735 135.278 56.9006C135.278 56.0661 137.554 49.5372 138.412 46.5198C139.27 43.5023 138.939 40.1111 135.181 44.6739C131.422 49.2368 128.138 56.0227 127.764 57.8252C127.39 59.6276 129.937 69.7581 129.937 69.7581Z" fill="#FFAC00"/>
<path d="M135.719 54.6843C135.9 54.1124 136.086 53.5416 136.28 52.972C136.497 52.3344 136.721 51.7002 136.948 51.0694C137.175 50.4385 137.432 49.851 137.679 49.2435C137.679 49.2002 137.772 49.2435 137.759 49.2736C137.465 50.0847 137.191 50.9058 136.918 51.7269C137.125 51.3531 137.332 50.9826 137.552 50.6154C137.556 50.6112 137.562 50.6085 137.568 50.6077C137.575 50.6069 137.581 50.608 137.586 50.611C137.592 50.6139 137.596 50.6185 137.599 50.6241C137.602 50.6296 137.603 50.636 137.602 50.6421C137.355 51.0961 137.095 51.54 136.831 51.9773C136.767 52.1742 136.701 52.3745 136.634 52.5714C136.263 53.6729 135.91 54.7811 135.592 55.9093C135.514 56.1591 135.461 56.4163 135.436 56.677C135.422 56.9742 135.466 57.2711 135.566 57.5515C135.726 58.0689 135.9 58.5796 136.086 59.0869C136.454 60.1117 136.854 61.1197 137.271 62.1211C137.749 63.2626 138.293 64.3875 138.834 65.499C138.834 65.499 138.5 65.5858 138.5 65.5925C138.5 65.5991 138.473 65.5925 138.48 65.5758C138.486 65.5591 138.687 65.4656 138.693 65.4656C138.143 64.5043 137.619 63.5597 137.155 62.5483C136.691 61.5369 136.287 60.5456 135.916 59.4975C135.726 58.9634 135.542 58.4294 135.376 57.8886C135.186 57.3874 135.134 56.8446 135.225 56.3165C135.349 55.7624 135.549 55.2217 135.719 54.6843Z" fill="#263238"/>
<path d="M129.788 67.2781C130.1 67.1093 130.421 66.9578 130.75 66.8241C131.037 66.6906 131.32 66.5537 131.611 66.4236C132.238 66.1398 132.866 65.8528 133.497 65.5724C134.128 65.292 134.755 65.0083 135.386 64.7346C136.017 64.4609 136.638 64.1672 137.279 63.9302C137.302 63.9302 137.319 63.9569 137.299 63.9702C136.714 64.3307 136.09 64.6378 135.476 64.9349C134.862 65.2319 134.258 65.519 133.64 65.796C133.023 66.0731 132.375 66.3435 131.738 66.6005C131.431 66.724 131.12 66.8375 130.806 66.9543C130.481 67.095 130.146 67.2143 129.805 67.3114C129.801 67.3118 129.797 67.311 129.794 67.309C129.79 67.307 129.787 67.3041 129.785 67.3005C129.784 67.2969 129.783 67.2928 129.783 67.2888C129.784 67.2848 129.786 67.2811 129.788 67.2781Z" fill="#263238"/>
</svg>
