<svg width="16" height="18" viewBox="0 0 16 18" fill="none" xmlns="http://www.w3.org/2000/svg">
<path fill-rule="evenodd" clip-rule="evenodd" d="M5.45216 4.72905C4.76611 5.10929 3.92459 5.10382 3.24378 4.71472L3.2138 4.68544C2.90746 4.49948 2.8135 4.10623 3.00392 3.80709C3.19435 3.50794 3.59705 3.41619 3.90339 3.60214C4.04013 3.68006 4.19485 3.72286 4.35312 3.72657C4.59571 3.73648 4.83237 3.65178 5.01093 3.49113C5.1895 3.33048 5.29532 3.10709 5.30506 2.87018C5.30045 1.67986 6.26787 0.702693 7.48626 0.666992H8.51315C9.75506 0.666992 10.7618 1.65012 10.7618 2.86286C10.7598 3.01722 10.8013 3.16915 10.8817 3.30204C11.0011 3.50776 11.1998 3.65832 11.4335 3.72019C11.6672 3.78206 11.9166 3.7501 12.126 3.63142C13.1812 3.07048 14.5015 3.4186 15.1242 4.42193C15.2963 4.72812 15.1905 5.11236 14.8844 5.29296C14.5733 5.46639 14.1773 5.36566 13.9924 5.06605C13.7384 4.64355 13.1831 4.49984 12.7481 4.74399C12.0598 5.11205 11.2248 5.10306 10.5449 4.72028C9.86509 4.3375 9.43878 3.6363 9.42012 2.87018C9.42824 2.63026 9.33629 2.39739 9.16531 2.22491C8.99433 2.05243 8.75898 1.95511 8.51315 1.95524H7.48626C7.23979 1.95516 7.00372 2.05225 6.83156 2.2245C6.65941 2.39675 6.56574 2.62957 6.57181 2.87018C6.56486 3.64048 6.1382 4.34882 5.45216 4.72905ZM6.57181 15.1598C6.57593 15.6501 6.98414 16.0454 7.48627 16.0454L7.47877 16.0601C7.71175 16.0601 7.92703 16.1814 8.04352 16.3785C8.16001 16.5755 8.16001 16.8182 8.04352 17.0153C7.92703 17.2123 7.71175 17.3337 7.47877 17.3337C6.23687 17.3337 5.23011 16.3505 5.23011 15.1378C5.23213 14.9834 5.19064 14.8315 5.11018 14.6986C4.85868 14.2735 4.30287 14.1263 3.86592 14.3692C2.81073 14.9302 1.49038 14.5821 0.867697 13.5787L0.358 12.7077C-0.21643 11.6773 0.140065 10.3879 1.16752 9.77987C1.3037 9.70164 1.41721 9.59079 1.49732 9.45781C1.64765 9.2532 1.70167 8.99577 1.64588 8.74991C1.59009 8.50405 1.42977 8.29301 1.205 8.16956C0.177543 7.5615 -0.178952 6.27215 0.395478 5.24174C0.491593 5.10064 0.641339 5.00277 0.811564 4.9698C0.981788 4.93682 1.15845 4.97147 1.30244 5.06607C1.58688 5.25494 1.66935 5.62862 1.48983 5.91514C1.24174 6.33963 1.3927 6.88014 1.82713 7.12287C2.15352 7.31818 2.42219 7.59315 2.60666 7.9207C3.18109 8.95111 2.8246 10.2405 1.79715 10.8485C1.36271 11.0913 1.21176 11.6318 1.45985 12.0563L1.97704 12.9273C2.09472 13.1349 2.29401 13.2866 2.52886 13.3473C2.76371 13.4081 3.01379 13.3727 3.2213 13.2493C3.5559 13.0598 3.93635 12.9613 4.32315 12.9639C5.56505 12.9639 6.57181 13.947 6.57181 15.1598ZM14.8245 9.77253C14.6151 9.65472 14.4625 9.46017 14.4005 9.23205C14.3386 9.00393 14.3725 8.76112 14.4946 8.55748C14.5748 8.4245 14.6883 8.31366 14.8245 8.23542C15.1321 8.05496 15.2326 7.6657 15.0493 7.36439C14.8672 7.06697 14.4785 6.96082 14.1648 7.12285C13.1374 7.73091 12.7809 9.02026 13.3553 10.0507C13.5378 10.4107 13.8211 10.7127 14.1723 10.9217C14.3812 11.0381 14.5337 11.2313 14.5957 11.4583C14.6576 11.6852 14.6239 11.9269 14.5021 12.1294L13.9924 13.0005C13.8697 13.2043 13.6709 13.3538 13.4378 13.4177C13.2042 13.4785 12.9553 13.4442 12.7482 13.3225C12.0587 12.9539 11.2222 12.9636 10.5419 13.3482C9.86156 13.7327 9.43626 14.4362 9.42016 15.2037C9.45605 15.531 9.73891 15.7792 10.076 15.7792C10.4131 15.7792 10.696 15.531 10.7319 15.2037C10.7257 14.8839 10.898 14.5861 11.1817 14.4262C11.4654 14.2664 11.8157 14.2698 12.0961 14.4351C13.1513 14.996 14.4716 14.6479 15.0943 13.6446L15.604 12.7736C16.2334 11.7341 15.8851 10.3934 14.8245 9.77253ZM7.99597 6.25184C6.85538 6.25184 5.82724 6.92318 5.39146 7.95249C4.95568 8.9818 5.19818 10.1661 6.00577 10.9527C6.81336 11.7392 8.0268 11.9728 9.0797 11.5446C10.1326 11.1163 10.8173 10.1105 10.8143 8.99668C10.8143 8.26743 10.5171 7.56816 9.98837 7.05319C9.45962 6.53822 8.74274 6.24989 7.99597 6.25184ZM7.99599 10.4679C7.16805 10.4679 6.49688 9.81249 6.49688 9.004C6.49688 8.1955 7.16805 7.54008 7.99599 7.54008C8.82392 7.54008 9.4951 8.1955 9.4951 9.004C9.4951 9.81249 8.82392 10.4679 7.99599 10.4679Z" fill="white"/>
</svg>
