<svg width="171" height="171" viewBox="0 0 171 171" fill="none" xmlns="http://www.w3.org/2000/svg">
<path d="M16.4444 144.053L14.9383 138.131C12.2681 137.002 9.53617 136.025 6.75554 135.204L6.56545 137.956L5.79452 134.924C2.34605 133.941 0 133.508 0 133.508C0 133.508 3.16816 145.523 9.81533 154.708L17.5599 156.064L11.5434 156.929C12.3795 157.932 13.2781 158.882 14.2338 159.772C23.9024 168.72 34.6716 172.826 38.2873 168.942C41.9029 165.058 36.9959 154.656 27.3272 145.709C24.3299 142.935 20.5646 140.709 16.7954 138.957L16.4444 144.053Z" fill="#F2F2F2"/>
<path d="M30.7669 137.62L32.548 131.775C30.8473 129.433 29.0154 127.188 27.0611 125.052L25.4715 127.31L26.3834 124.317C23.9405 121.699 22.1564 120.12 22.1564 120.12C22.1564 120.12 18.6404 132.038 19.5679 143.326L25.4945 148.479L19.8946 146.118C20.0906 147.408 20.3677 148.684 20.7243 149.939C24.3622 162.582 31.4527 171.646 36.5612 170.185C41.6698 168.724 42.8622 157.29 39.2243 144.648C38.0966 140.729 36.0272 136.882 33.7092 133.44L30.7669 137.62Z" fill="#F2F2F2"/>
<path d="M119.323 40.51H118.384V14.8512C118.384 12.9009 117.999 10.9697 117.25 9.16789C116.501 7.36606 115.404 5.72888 114.021 4.34982C112.638 2.97076 110.996 1.87682 109.188 1.13048C107.381 0.384137 105.444 0 103.488 0H48.962C45.0115 0 41.2227 1.56468 38.4292 4.34982C35.6358 7.13496 34.0664 10.9124 34.0664 14.8512V155.62C34.0664 157.57 34.4517 159.501 35.2003 161.303C35.9488 163.105 37.046 164.742 38.4292 166.121C39.8124 167.5 41.4545 168.594 43.2617 169.341C45.069 170.087 47.0059 170.471 48.962 170.471H103.488C107.439 170.471 111.227 168.906 114.021 166.121C116.814 163.336 118.384 159.559 118.384 155.62V58.7744H119.323L119.323 40.51Z" fill="#E6E6E6"/>
<path d="M104.088 3.8623H96.9716C97.2989 4.66242 97.4239 5.53051 97.3354 6.39011C97.2469 7.24971 96.9478 8.07442 96.4643 8.79159C95.9808 9.50875 95.3279 10.0964 94.563 10.5026C93.798 10.9089 92.9446 11.1214 92.0779 11.1214H60.8405C59.9739 11.1213 59.1205 10.9088 58.3557 10.5025C57.5908 10.0962 56.9379 9.50855 56.4545 8.7914C55.9711 8.07424 55.672 7.24956 55.5835 6.39C55.4951 5.53044 55.62 4.66238 55.9473 3.8623H49.2997C46.3495 3.8623 43.52 5.03079 41.4339 7.11071C39.3478 9.19062 38.1758 12.0116 38.1758 14.953V155.517C38.1758 158.459 39.3478 161.28 41.4339 163.36C43.52 165.44 46.3495 166.608 49.2997 166.608H104.088C107.039 166.608 109.868 165.44 111.954 163.36C114.04 161.28 115.212 158.459 115.212 155.517V14.9528C115.212 12.0114 114.04 9.19049 111.954 7.11062C109.868 5.03076 107.039 3.8623 104.088 3.8623Z" fill="white"/>
<path d="M69.7143 59.8559C69.7141 58.8734 69.9735 57.9081 70.4664 57.0573C70.9593 56.2065 71.6683 55.5002 72.522 55.0093C71.6687 54.518 70.7007 54.2593 69.7153 54.2592C68.73 54.259 67.7619 54.5176 66.9085 55.0087C66.0551 55.4999 65.3464 56.2064 64.8537 57.0572C64.361 57.908 64.1016 58.8731 64.1016 59.8556C64.1016 60.838 64.361 61.8031 64.8537 62.654C65.3464 63.5048 66.0551 64.2112 66.9085 64.7024C67.7619 65.1936 68.73 65.4521 69.7153 65.452C70.7007 65.4519 71.6687 65.1931 72.522 64.7018C71.6684 64.2111 70.9594 63.5049 70.4665 62.6542C69.9736 61.8035 69.7142 60.8383 69.7143 59.8559Z" fill="#CCCCCC"/>
<path d="M76.769 59.8559C76.7688 58.8734 77.0282 57.9081 77.5211 57.0573C78.014 56.2065 78.723 55.5001 79.5767 55.0093C78.7234 54.518 77.7554 54.2593 76.77 54.2592C75.7847 54.259 74.8166 54.5176 73.9632 55.0087C73.1098 55.4999 72.4011 56.2064 71.9084 57.0572C71.4156 57.908 71.1562 58.8731 71.1562 59.8556C71.1562 60.838 71.4156 61.8031 71.9084 62.654C72.4011 63.5048 73.1098 64.2112 73.9632 64.7024C74.8166 65.1936 75.7847 65.4521 76.77 65.452C77.7554 65.4519 78.7234 65.1931 79.5767 64.7018C78.7231 64.2111 78.0141 63.5049 77.5212 62.6542C77.0283 61.8035 76.7689 60.8383 76.769 59.8559Z" fill="#CCCCCC"/>
<path d="M83.6659 65.4521C86.7659 65.4521 89.279 62.9465 89.279 59.8557C89.279 56.7649 86.7659 54.2593 83.6659 54.2593C80.5658 54.2593 78.0527 56.7649 78.0527 59.8557C78.0527 62.9465 80.5658 65.4521 83.6659 65.4521Z" fill="#FDD26C"/>
<path d="M93.0457 77.3356H60.331C60.0195 77.3352 59.721 77.2117 59.5007 76.9921C59.2805 76.7726 59.1566 76.4749 59.1562 76.1643V43.5472C59.1566 43.2367 59.2805 42.939 59.5007 42.7194C59.721 42.4999 60.0195 42.3763 60.331 42.376H93.0457C93.3572 42.3763 93.6557 42.4999 93.876 42.7194C94.0962 42.939 94.2201 43.2367 94.2204 43.5472V76.1643C94.2201 76.4749 94.0962 76.7726 93.876 76.9921C93.6557 77.2117 93.3572 77.3352 93.0457 77.3356ZM60.331 42.8447C60.1441 42.8449 59.965 42.919 59.8328 43.0508C59.7007 43.1825 59.6264 43.3611 59.6262 43.5474V76.1646C59.6264 76.3509 59.7007 76.5295 59.8328 76.6612C59.965 76.793 60.1441 76.8671 60.331 76.8673H93.0457C93.2326 76.8671 93.4117 76.793 93.5439 76.6612C93.676 76.5295 93.7503 76.3509 93.7505 76.1646V43.5474C93.7503 43.3611 93.676 43.1825 93.5439 43.0508C93.4117 42.919 93.2326 42.8449 93.0457 42.8447H60.331Z" fill="#CCCCCC"/>
<path d="M100.35 102.338H50.1758V102.807H100.35V102.338Z" fill="#CCCCCC"/>
<path d="M51.7603 99.4129C52.6354 99.4129 53.3449 98.7056 53.3449 97.8331C53.3449 96.9606 52.6354 96.2533 51.7603 96.2533C50.8852 96.2533 50.1758 96.9606 50.1758 97.8331C50.1758 98.7056 50.8852 99.4129 51.7603 99.4129Z" fill="#FDD26C"/>
<path d="M100.35 118.135H50.1758V118.604H100.35V118.135Z" fill="#CCCCCC"/>
<path d="M51.7603 115.21C52.6354 115.21 53.3449 114.503 53.3449 113.63C53.3449 112.758 52.6354 112.051 51.7603 112.051C50.8852 112.051 50.1758 112.758 50.1758 113.63C50.1758 114.503 50.8852 115.21 51.7603 115.21Z" fill="#FDD26C"/>
<path d="M99.4326 136.124H83.5761C83.3022 136.124 83.0396 136.016 82.8459 135.822C82.6522 135.629 82.5433 135.368 82.543 135.094V129.553C82.5433 129.28 82.6522 129.019 82.8459 128.825C83.0396 128.632 83.3022 128.524 83.5761 128.523H99.4326C99.7065 128.524 99.9691 128.632 100.163 128.825C100.356 129.019 100.465 129.28 100.466 129.553V135.094C100.465 135.368 100.356 135.629 100.163 135.822C99.9691 136.016 99.7065 136.124 99.4326 136.124Z" fill="#FDD26C"/>
<path d="M56.9302 99.4129C57.8054 99.4129 58.5148 98.7056 58.5148 97.8331C58.5148 96.9606 57.8054 96.2533 56.9302 96.2533C56.0551 96.2533 55.3457 96.9606 55.3457 97.8331C55.3457 98.7056 56.0551 99.4129 56.9302 99.4129Z" fill="#FDD26C"/>
<path d="M62.0982 99.4129C62.9733 99.4129 63.6828 98.7056 63.6828 97.8331C63.6828 96.9606 62.9733 96.2533 62.0982 96.2533C61.2231 96.2533 60.5137 96.9606 60.5137 97.8331C60.5137 98.7056 61.2231 99.4129 62.0982 99.4129Z" fill="#FDD26C"/>
<path d="M56.9302 115.21C57.8054 115.21 58.5148 114.503 58.5148 113.63C58.5148 112.758 57.8054 112.051 56.9302 112.051C56.0551 112.051 55.3457 112.758 55.3457 113.63C55.3457 114.503 56.0551 115.21 56.9302 115.21Z" fill="#FDD26C"/>
<path d="M62.0982 115.21C62.9733 115.21 63.6828 114.503 63.6828 113.63C63.6828 112.758 62.9733 112.051 62.0982 112.051C61.2231 112.051 60.5137 112.758 60.5137 113.63C60.5137 114.503 61.2231 115.21 62.0982 115.21Z" fill="#FDD26C"/>
<path d="M170.36 171H5.52736C5.1745 171 4.88867 170.875 4.88867 170.721C4.88867 170.567 5.1745 170.442 5.52736 170.442H170.36C170.713 170.442 170.999 170.567 170.999 170.721C170.999 170.875 170.713 171 170.36 171Z" fill="#3F3D56"/>
<path d="M129.637 112.034C129.75 112.085 129.858 112.146 129.961 112.214L140.258 107.832L140.626 105.128L144.74 105.103L144.497 111.305L130.906 114.889C130.878 114.983 130.843 115.076 130.803 115.166C130.607 115.584 130.291 115.934 129.895 116.174C129.499 116.414 129.041 116.531 128.579 116.512C128.116 116.493 127.669 116.338 127.295 116.067C126.92 115.795 126.634 115.42 126.473 114.987C126.312 114.554 126.283 114.083 126.389 113.634C126.495 113.185 126.732 112.777 127.07 112.461C127.408 112.146 127.832 111.937 128.289 111.861C128.746 111.785 129.215 111.845 129.637 112.034Z" fill="#FFB8B8"/>
<path d="M146.236 168.24H143.421L142.082 157.417L146.236 157.417L146.236 168.24Z" fill="#FFB8B8"/>
<path d="M141.41 167.439H146.838V170.846H137.992C137.992 169.942 138.352 169.076 138.993 168.437C139.634 167.798 140.503 167.439 141.41 167.439Z" fill="#2F2E41"/>
<path d="M157.182 167.448L154.381 167.723L151.984 157.082L156.118 156.676L157.182 167.448Z" fill="#FFB8B8"/>
<path d="M152.302 167.121L157.704 166.591L158.039 169.982L149.235 170.846C149.191 170.401 149.236 169.951 149.366 169.523C149.496 169.095 149.71 168.697 149.995 168.351C150.279 168.005 150.63 167.718 151.026 167.507C151.421 167.296 151.855 167.165 152.302 167.121Z" fill="#2F2E41"/>
<path d="M147.02 93.6477C150.134 93.6477 152.658 91.1307 152.658 88.0259C152.658 84.921 150.134 82.4041 147.02 82.4041C143.905 82.4041 141.381 84.921 141.381 88.0259C141.381 91.1307 143.905 93.6477 147.02 93.6477Z" fill="#FFB8B8"/>
<path d="M142.793 166.052C142.551 166.052 142.317 165.968 142.132 165.813C141.946 165.658 141.821 165.443 141.78 165.205C140.323 157.143 135.561 130.779 135.447 130.049C135.444 130.032 135.443 130.015 135.443 129.998V128.032C135.443 127.961 135.466 127.891 135.507 127.832L136.137 126.954C136.166 126.912 136.206 126.877 136.251 126.852C136.297 126.827 136.347 126.813 136.399 126.811C139.986 126.643 151.731 126.152 152.299 126.859C152.869 127.569 152.667 129.722 152.621 130.146L152.623 130.19L157.9 163.836C157.942 164.104 157.875 164.378 157.716 164.598C157.556 164.818 157.316 164.967 157.047 165.011L153.751 165.553C153.506 165.592 153.255 165.542 153.043 165.412C152.831 165.282 152.673 165.081 152.598 164.845C151.578 161.597 148.16 150.672 146.976 146.445C146.968 146.418 146.951 146.395 146.928 146.38C146.905 146.365 146.877 146.358 146.849 146.362C146.821 146.366 146.796 146.38 146.778 146.401C146.76 146.422 146.75 146.449 146.75 146.477C146.81 150.506 146.953 160.788 147.002 164.339L147.007 164.721C147.01 164.98 146.914 165.23 146.74 165.423C146.566 165.615 146.326 165.735 146.068 165.76L142.89 166.047C142.857 166.05 142.825 166.052 142.793 166.052Z" fill="#2F2E41"/>
<path d="M143.441 95.8583C142.457 96.4415 141.868 97.5133 141.53 98.6039C140.904 100.623 140.528 102.711 140.408 104.82L140.051 111.138L135.631 127.886C139.462 131.118 141.672 130.383 146.83 127.74C151.987 125.096 152.577 128.621 152.577 128.621L153.608 114.371L155.081 98.7987C154.751 98.4016 154.376 98.0428 153.965 97.7289C152.603 96.6729 151.019 95.939 149.331 95.5823C147.643 95.2257 145.896 95.2556 144.222 95.6699L143.441 95.8583Z" fill="#FDD26C"/>
<path d="M142.006 115.416C142.125 115.461 142.24 115.515 142.351 115.577L152.532 110.497L152.701 107.744L156.901 107.455L157.126 113.73L143.52 118.216C143.409 118.691 143.155 119.121 142.793 119.449C142.431 119.777 141.977 119.987 141.492 120.052C141.007 120.116 140.514 120.032 140.078 119.81C139.642 119.589 139.284 119.24 139.052 118.81C138.82 118.381 138.724 117.891 138.778 117.406C138.832 116.921 139.033 116.464 139.353 116.096C139.674 115.728 140.1 115.465 140.573 115.344C141.047 115.222 141.547 115.248 142.006 115.416Z" fill="#FFB8B8"/>
<path d="M155.008 98.8699C157.513 99.7514 157.954 109.301 157.954 109.301C155.007 107.685 151.471 110.33 151.471 110.33C151.471 110.33 150.734 107.832 149.85 104.6C149.583 103.691 149.551 102.729 149.757 101.805C149.963 100.88 150.401 100.022 151.029 99.3113C151.029 99.3113 152.503 97.9879 155.008 98.8699Z" fill="#FDD26C"/>
<path d="M152.075 89.5126C151.373 88.9522 150.414 89.9708 150.414 89.9708L149.852 84.9275C149.852 84.9275 146.339 85.3471 144.091 84.7875C141.843 84.228 141.492 86.819 141.492 86.819C141.376 85.7724 141.352 84.7176 141.422 83.6669C141.562 82.4061 143.389 81.1453 146.62 80.3047C149.852 79.464 151.538 83.1065 151.538 83.1065C153.786 84.2271 152.778 90.0731 152.075 89.5126Z" fill="#2F2E41"/>
</svg>
