<svg width="374" height="169" viewBox="0 0 374 169" fill="none" xmlns="http://www.w3.org/2000/svg">
<rect width="374" height="169" rx="20" fill="#9188E5"/>
<path d="M195.744 49.1064C195.78 39.7021 195.619 30.2979 195.655 20.8936C195.655 17.0355 196.55 17.0355 196.55 20.8936C196.514 30.2979 196.693 39.7021 196.639 49.1064C196.621 52.9645 195.708 52.9645 195.744 49.1064Z" fill="white"/>
<path d="M167.744 167.213C167.78 161.404 167.619 155.596 167.655 149.787C167.655 147.404 168.55 147.404 168.55 149.787C168.514 155.596 168.693 161.404 168.639 167.213C168.621 169.596 167.708 169.596 167.744 167.213Z" fill="white"/>
<path d="M76.7442 31.8723C76.78 24.9575 76.6188 18.0425 76.6546 11.1277C76.6546 8.29078 77.5498 8.29078 77.5498 11.1277C77.514 18.0425 77.693 24.9575 77.6393 31.8723C77.6214 34.7092 76.7083 34.7092 76.7442 31.8723Z" fill="white"/>
<path d="M160.584 147.37C131.169 162.739 83.4774 162.739 54.0623 147.37C24.6471 132.001 24.6436 107.089 54.0623 91.7198C83.4809 76.351 131.169 76.3545 160.587 91.7198C190.006 107.085 190.002 131.998 160.584 147.37Z" fill="#F5F5F5" fill-opacity="0.37"/>
<path d="M123.416 134.023C115.488 137.802 102.638 137.802 94.7282 134.023C86.8182 130.245 86.8007 124.123 94.7282 120.344C102.656 116.566 115.502 116.566 123.416 120.344C131.329 124.123 131.357 130.248 123.416 134.023Z" fill="#EBEBEB"/>
<path d="M54.7901 124.672L83.1277 141.027C83.3624 141.146 83.6219 141.208 83.8851 141.208C84.1483 141.208 84.4078 141.146 84.6425 141.027L120.065 120.568C120.156 120.537 120.235 120.478 120.291 120.4C120.348 120.321 120.378 120.227 120.378 120.131C120.378 120.034 120.348 119.94 120.291 119.862C120.235 119.783 120.156 119.725 120.065 119.694L91.7269 103.338C91.4922 103.219 91.2327 103.157 90.9695 103.157C90.7063 103.157 90.4468 103.219 90.2121 103.338L54.7796 123.797C54.6885 123.829 54.6099 123.889 54.5546 123.968C54.4993 124.047 54.4702 124.142 54.4713 124.238C54.4725 124.335 54.5039 124.429 54.561 124.506C54.6182 124.584 54.6983 124.642 54.7901 124.672Z" fill="#EBEBEB"/>
<path d="M46.9051 34.7647V42.2759C46.9051 42.2759 49.9908 43.7208 55.6513 43.7208C61.3118 43.7208 64.3975 42.2724 64.3975 42.2724V34.9256L58.4921 18.2134C58.5725 18.7382 58.2646 19.263 57.572 19.6758C57.0652 19.9885 56.4892 20.1716 55.8949 20.2088C55.3006 20.2461 54.7062 20.1363 54.1644 19.8892C54.0123 19.8294 53.8649 19.758 53.7236 19.6758C52.989 19.2525 52.6741 18.6717 52.8175 18.119L46.9051 34.7647Z" fill="#F5F5F5"/>
<path opacity="0.5" d="M46.9051 34.7647V42.2759C46.9051 42.2759 49.9908 43.7208 55.6513 43.7208C61.3118 43.7208 64.3975 42.2724 64.3975 42.2724V34.9256L58.4921 18.2134C58.5725 18.7382 58.2646 19.263 57.572 19.6758C57.0652 19.9885 56.4892 20.1716 55.8949 20.2088C55.3006 20.2461 54.7062 20.1363 54.1644 19.8892C54.0123 19.8294 53.8649 19.758 53.7236 19.6758C52.989 19.2525 52.6741 18.6717 52.8175 18.119L46.9051 34.7647Z" fill="white"/>
<path d="M47.5839 87.4166C48.091 88.0846 48.7336 88.6378 49.4696 89.0399C52.8911 91.0165 58.4362 91.0165 61.8542 89.0399C62.5914 88.6382 63.2352 88.085 63.7433 87.4166C64.1381 86.8917 64.3715 86.2632 64.415 85.6079V89.5087C64.3521 90.7541 63.5019 91.9891 61.8542 92.9407C58.4362 94.9138 52.8911 94.9138 49.4696 92.9407C47.7623 91.9541 46.9052 90.6597 46.9052 89.3653V85.468C46.9182 86.1732 47.156 86.8559 47.5839 87.4166V87.4166Z" fill="#F5F5F5"/>
<path d="M47.5839 83.5158C48.091 84.1838 48.7336 84.737 49.4696 85.1391C49.6725 85.2545 49.8789 85.363 50.0923 85.4644C53.3214 87.0038 58.0058 87.0038 61.2314 85.4644C61.4448 85.363 61.6547 85.2545 61.8542 85.1391C62.5914 84.7374 63.2352 84.1842 63.7433 83.5158C64.138 82.9921 64.3714 82.3648 64.415 81.7106V85.6079C64.3715 86.2632 64.1381 86.8917 63.7433 87.4166C63.2352 88.085 62.5914 88.6382 61.8542 89.0399C58.4362 91.0165 52.8911 91.0165 49.4696 89.0399C48.7336 88.6378 48.091 88.0846 47.5839 87.4166C47.156 86.8558 46.9182 86.1732 46.9052 85.4679V81.5671C46.918 82.2724 47.1558 82.9552 47.5839 83.5158Z" fill="#EBEBEB"/>
<path d="M47.5839 79.615C48.0915 80.2834 48.734 80.8377 49.4696 81.2418C49.6725 81.3573 49.8789 81.4622 50.0923 81.5672C53.3214 83.1065 58.0058 83.1065 61.2314 81.5672C61.4448 81.4622 61.6547 81.3573 61.8542 81.2418C62.5907 80.8376 63.2343 80.2834 63.7433 79.615C64.138 79.0914 64.3714 78.4641 64.415 77.8098V81.7106C64.3714 82.3649 64.138 82.9922 63.7433 83.5158C63.2352 84.1842 62.5914 84.7374 61.8542 85.1391C61.6547 85.2546 61.4448 85.363 61.2314 85.4645C58.0058 87.0038 53.3214 87.0038 50.0923 85.4645C49.8789 85.363 49.6725 85.2546 49.4696 85.1391C48.7336 84.737 48.091 84.1838 47.5839 83.5158C47.1558 82.9552 46.918 82.2725 46.9052 81.5672V77.6664C46.9175 78.3717 47.1553 79.0546 47.5839 79.615V79.615Z" fill="#F5F5F5"/>
<path d="M64.415 34.9116V77.8099C64.3714 78.4641 64.138 79.0914 63.7433 79.6151C63.2343 80.2835 62.5907 80.8377 61.8542 81.2419C61.6547 81.3573 61.4448 81.4623 61.2314 81.5672C60.3857 81.9614 59.4952 82.2515 58.5796 82.4313L60.1644 37.2206L64.415 34.9116Z" fill="#F5F5F5"/>
<path d="M51.1597 37.2206L52.748 82.4313C51.8324 82.2515 50.942 81.9613 50.0962 81.5672C49.8828 81.4622 49.6764 81.3573 49.4735 81.2418C48.7379 80.8377 48.0954 80.2834 47.5878 79.615C47.1592 79.0547 46.9214 78.3718 46.9091 77.6664V34.7646L51.1597 37.2206Z" fill="#F5F5F5"/>
<path d="M64.415 34.9116V77.8099C64.3714 78.4641 64.138 79.0914 63.7433 79.6151C63.2343 80.2835 62.5907 80.8377 61.8542 81.2419C61.6547 81.3573 61.4448 81.4623 61.2314 81.5672C60.3857 81.9614 59.4952 82.2515 58.5796 82.4313L60.1644 37.2206L64.415 34.9116Z" fill="#E0E0E0"/>
<path d="M51.1597 37.2206L52.748 82.4313C51.8324 82.2515 50.942 81.9613 50.0962 81.5672C49.8828 81.4622 49.6764 81.3573 49.4735 81.2418C48.7379 80.8377 48.0954 80.2834 47.5878 79.615C47.1592 79.0547 46.9214 78.3718 46.9091 77.6664V34.7646L51.1597 37.2206Z" fill="#E0E0E0"/>
<path d="M60.1641 37.2206V82.001C59.6458 82.1801 59.1164 82.325 58.5793 82.4348C57.6188 82.6289 56.6414 82.7261 55.6615 82.7252C54.6818 82.7244 53.7045 82.6271 52.7438 82.4348C52.2066 82.325 51.6772 82.1801 51.159 82.001V37.2206H60.1641Z" fill="#EBEBEB"/>
<path d="M53.7374 19.6582C53.8787 19.7405 54.0261 19.8118 54.1782 19.8716C54.72 20.1187 55.3144 20.2285 55.9087 20.1913C56.503 20.1541 57.079 19.971 57.5857 19.6582C58.2854 19.2594 58.5863 18.7206 58.5058 18.1959L56.4907 12.5528C56.4244 12.3878 56.3097 12.2467 56.1617 12.1481C56.0138 12.0494 55.8394 11.9978 55.6616 12.0001V12.0001C55.4833 11.9976 55.3084 12.0491 55.1598 12.1477C55.0112 12.2463 54.8959 12.3876 54.829 12.5528L52.8348 18.0944C52.6984 18.6472 53.0027 19.2349 53.7374 19.6582Z" fill="#E0E0E0"/>
<path d="M49.4692 92.9407C52.408 94.6374 56.914 94.8718 60.2935 93.6404C60.4824 93.5751 60.6678 93.5016 60.8498 93.42L61.1017 93.315C61.364 93.1961 61.6159 93.0666 61.8538 92.9302C63.5016 91.9786 64.3517 90.7436 64.4147 89.4982V100.127C64.4777 101.47 63.6276 102.824 61.8538 103.845C61.6439 103.968 61.4235 104.083 61.1961 104.195C61.1122 104.237 61.0212 104.269 60.9372 104.307C60.7903 104.37 60.6469 104.437 60.4964 104.493C60.346 104.549 60.262 104.577 60.1466 104.615C60.0311 104.654 59.8982 104.706 59.7687 104.745C59.6393 104.783 59.4819 104.825 59.3384 104.863C59.195 104.902 59.118 104.926 59.0061 104.951C58.8941 104.975 58.6737 105.024 58.5058 105.056C58.4113 105.056 58.3169 105.098 58.2224 105.112C58.0335 105.147 57.8411 105.171 57.6487 105.199L57.4213 105.231C57.2079 105.255 56.9945 105.273 56.781 105.287H56.6131C56.3787 105.304 56.1443 105.311 55.9134 105.315H55.8015C55.5496 105.315 55.2977 105.315 55.0458 105.315H54.9898C54.7239 105.315 54.4581 105.283 54.1922 105.259C52.6339 105.126 51.1164 104.692 49.7246 103.978V103.978C49.6477 103.936 49.5672 103.901 49.4902 103.856C47.783 102.869 46.9259 101.575 46.9259 100.28V89.3652C46.9049 90.6597 47.762 91.9541 49.4692 92.9407Z" fill="#E0E0E0"/>
<path d="M155.084 99.14C156.095 98.8846 161.493 95.8129 162.042 95.4386C162.591 95.0643 163.676 94.2911 163.676 92.9582C163.676 91.7792 163.553 80.6611 162.588 75.2909C162.271 73.6204 161.615 72.0324 160.661 70.6246C159.708 69.2167 158.476 68.0188 157.043 67.1045C153.684 65.0229 150.308 63.5151 147.464 64.6976C144.62 65.88 142.024 68.0526 140.904 70.6764C139.785 73.3003 139.019 78.555 138.938 80.5876C138.858 82.6202 138.938 89.5892 138.938 90.2084C138.938 90.8276 139.05 91.6323 142.384 93.7069C145.718 95.7815 150.322 98.2549 151.746 98.8951C152.805 99.3256 153.973 99.4113 155.084 99.14V99.14Z" fill="#37474F"/>
<path d="M155.916 68.5494C156.224 68.7243 157.112 68.287 157.245 68.0666C157.378 67.8462 157.413 65.9395 156.748 64.8865C156.084 63.8334 151.938 61.8918 150.913 62.0352C150.529 62.0977 150.162 62.238 149.834 62.4473C149.506 62.6566 149.225 62.9307 149.006 63.2527C148.88 63.5221 148.74 65.2958 149.006 65.6597C149.272 66.0235 150.22 65.4637 150.304 65.3098C150.388 65.1559 149.993 63.8579 150.654 63.5886C151.263 63.3437 154.153 64.5716 155.328 65.5582C155.839 65.9885 155.814 67.0555 155.79 67.5838C155.765 68.1121 155.762 68.4584 155.916 68.5494Z" fill="#455A64"/>
<path d="M156.749 81.0669C156.154 75.2909 155.084 71.9184 149.434 69.403C143.784 66.8876 141.59 69.0287 140.789 70.9563C139.74 73.6572 139.015 78.625 138.939 80.5876C138.858 82.6202 138.939 89.5892 138.939 90.2084C138.939 90.8277 139.05 91.6323 142.385 93.7069C145.719 95.7815 150.323 98.2549 151.746 98.8951C152.804 99.3291 153.972 99.4185 155.084 99.1505C155.307 99.0826 155.525 98.9972 155.735 98.8951C157.494 96.6351 157.295 86.3426 156.749 81.0669Z" fill="#455A64"/>
<path d="M143.578 67.1465C145.055 66.2824 147.475 65.7121 151.03 67.297C157.383 70.1272 158.996 73.6712 159.636 79.8914C159.752 81.0319 159.923 82.3893 159.986 83.8482L160.511 83.5299C160.437 81.9555 160.283 80.6086 160.161 79.3912C159.461 73.1254 157.583 69.6619 151.513 66.9576C148.151 65.4603 145.943 65.6562 144.481 66.3943C144.167 66.6288 143.865 66.8799 143.578 67.1465Z" fill="#263238"/>
<path d="M143.357 67.3074C144.83 66.4433 147.255 65.8731 150.806 67.4579C157.162 70.2881 158.775 73.8321 159.415 80.0524C159.531 81.1929 159.702 82.5503 159.765 84.0091L160.29 83.6908C160.217 82.1165 160.063 80.7695 159.94 79.5521C159.24 73.2863 157.362 69.8193 151.292 67.1185C147.93 65.6212 145.663 65.8696 144.201 66.6042C143.907 66.8226 143.625 67.0574 143.357 67.3074V67.3074Z" fill="#455A64"/>
<path d="M145.414 72.8L147.334 71.7015C147.429 71.6483 147.541 71.6346 147.646 71.6635C147.751 71.6923 147.84 71.7613 147.894 71.8554L149.864 75.2804C149.919 75.3747 149.934 75.4868 149.907 75.5924C149.879 75.6979 149.811 75.7883 149.717 75.8437L147.821 76.9492C147.726 77.0041 147.614 77.0194 147.509 76.9919C147.403 76.9644 147.313 76.8962 147.257 76.8023L145.263 73.3563C145.236 73.3101 145.218 73.2588 145.211 73.2056C145.204 73.1524 145.207 73.0983 145.221 73.0464C145.235 72.9946 145.26 72.9461 145.293 72.9038C145.326 72.8614 145.367 72.8262 145.414 72.8V72.8Z" fill="#263238"/>
<path d="M147.474 76.5575L145.582 73.2934C145.568 73.27 145.559 73.2442 145.556 73.2174C145.552 73.1906 145.554 73.1633 145.561 73.1372C145.569 73.1112 145.581 73.0868 145.598 73.0655C145.614 73.0443 145.635 73.0266 145.659 73.0135L147.408 72.0199C147.455 71.9933 147.511 71.9865 147.564 72.0009C147.616 72.0153 147.661 72.0498 147.688 72.0969L149.56 75.347C149.586 75.3944 149.593 75.4503 149.579 75.5027C149.564 75.5551 149.53 75.5997 149.483 75.6269L147.765 76.6309C147.741 76.6459 147.715 76.6559 147.687 76.6603C147.659 76.6647 147.631 76.6635 147.604 76.6566C147.577 76.6497 147.551 76.6374 147.529 76.6203C147.507 76.6033 147.488 76.5819 147.474 76.5575V76.5575Z" fill="#455A64"/>
<path d="M147.068 74.9971C147.018 74.9666 146.975 74.9248 146.943 74.875C146.912 74.8252 146.892 74.7688 146.886 74.7102V73.1464C146.886 73.0449 146.967 73.0134 147.068 73.0694C147.119 73.0999 147.161 73.1417 147.193 73.1915C147.224 73.2412 147.244 73.2977 147.25 73.3563V74.9201C147.25 75.0216 147.17 75.053 147.068 74.9971Z" fill="#37474F"/>
<path d="M148.083 75.5848C148.032 75.5533 147.99 75.5108 147.958 75.4605C147.927 75.4102 147.907 75.3534 147.901 75.2944V73.7341C147.901 73.6326 147.985 73.5977 148.083 73.6571C148.134 73.6872 148.176 73.7289 148.208 73.7787C148.24 73.8286 148.259 73.8852 148.265 73.944V75.5078C148.254 75.6058 148.184 75.6408 148.083 75.5848Z" fill="#37474F"/>
<path d="M154.132 85.9507C154.132 85.9507 153.18 86.7344 152.495 89.6871C151.809 92.6398 151.396 96.3587 152.145 96.8065C152.894 97.2543 153.975 96.3167 154.244 95.9948C154.797 95.3336 154.66 88.3157 154.132 85.9507Z" fill="#263238"/>
<path d="M154.132 85.9508C154.132 85.9508 153.18 86.7345 152.495 89.6872C151.809 92.6399 151.396 96.3588 152.145 96.8066L140.6 89.9985C139.844 89.5507 139.659 85.643 140.341 82.6902C140.792 80.7486 141.621 79.825 142.132 79.4192C142.249 79.3287 142.391 79.2753 142.539 79.2659C142.686 79.2566 142.834 79.2917 142.961 79.3667L154.132 85.9508Z" fill="#37474F"/>
<path d="M142.371 79.8705C141.818 80.1433 140.88 80.8955 140.457 82.8931C140.386 83.1651 140.392 83.4516 140.475 83.72C140.559 83.9884 140.716 84.228 140.929 84.4115C141.314 84.6844 149.577 89.3828 150.672 90.037C151.617 90.6003 152.107 89.8516 152.313 89.3828C152.663 88.5502 152.964 87.9029 153.223 87.4062C153.42 86.8644 153.729 86.3699 154.129 85.9543L143.119 79.9019C143.007 79.8358 142.879 79.7983 142.749 79.7928C142.618 79.7873 142.488 79.814 142.371 79.8705V79.8705Z" fill="#263238"/>
<path d="M159.628 84.3345C159.468 84.9359 159.364 85.5507 159.316 86.1712C159.316 86.2972 159.488 86.3636 159.537 86.3636C159.937 86.2832 160.307 86.0944 160.607 85.8179C160.551 85.289 160.455 84.765 160.321 84.2505L159.628 84.3345Z" fill="#263238"/>
<path d="M159.271 83.8412C159.271 83.7091 159.31 83.5799 159.384 83.47C159.457 83.3601 159.561 83.2745 159.684 83.2239C159.806 83.1733 159.94 83.1601 160.07 83.1859C160.199 83.2117 160.318 83.2753 160.412 83.3687C160.505 83.4622 160.569 83.5813 160.595 83.7109C160.62 83.8405 160.607 83.9749 160.557 84.097C160.506 84.2191 160.42 84.3234 160.31 84.3968C160.201 84.4703 160.071 84.5094 159.939 84.5094C159.762 84.5094 159.592 84.4391 159.467 84.3137C159.341 84.1884 159.271 84.0185 159.271 83.8412V83.8412Z" fill="#263238"/>
<path d="M150.914 63.5571C150.183 63.4871 149.494 63.5571 149.319 64.2882C149.144 65.0194 149.207 65.6876 149.319 65.7786C149.689 65.7316 150.035 65.5674 150.305 65.3098C150.389 65.1524 149.994 63.8579 150.655 63.5885C150.736 63.5616 150.822 63.5509 150.907 63.5571H150.914Z" fill="#263238"/>
<path d="M142.891 79.3281C142.778 79.2613 142.65 79.2235 142.519 79.218C142.388 79.2126 142.257 79.2395 142.139 79.2966C141.586 79.5695 140.649 80.3217 140.225 82.3193C140.154 82.5912 140.161 82.8776 140.245 83.146C140.328 83.4143 140.485 83.6539 140.698 83.8376C141.083 84.1105 149.342 88.809 150.437 89.4632C151.382 90.0264 151.875 89.2778 152.082 88.809C153.226 86.416 154.132 85.9507 154.132 85.9507L142.891 79.3281Z" fill="#37474F"/>
<path d="M138.348 23.0868L142.109 25.2558C142.088 25.091 142.077 24.9251 142.077 24.759V23.671C142.077 21.7329 143.438 20.9457 145.114 21.9218C145.838 22.3656 146.457 22.9627 146.926 23.671C147.202 21.2221 149.113 20.3265 151.436 21.6664C153.948 23.1183 155.984 26.6447 155.984 29.5414V31.1717C156 31.8224 155.868 32.4683 155.599 33.0609L158.723 34.8626C159.214 35.183 159.622 35.6144 159.915 36.1219C160.208 36.6294 160.377 37.1987 160.409 37.7838C160.409 38.8579 159.654 39.2952 158.723 38.7564L138.348 26.9946C137.857 26.6742 137.449 26.2428 137.156 25.7353C136.863 25.2278 136.694 24.6584 136.662 24.0733C136.662 22.9853 137.41 22.548 138.348 23.0868Z" fill="#F0F0F0"/>
<path d="M60.2085 120.841L60.9082 120.446L60.4114 120.222C60.4114 120.222 60.0231 120.327 60.0126 120.344C60.0158 120.435 60.0252 120.525 60.0406 120.614L60.2085 120.841Z" fill="#E0E0E0"/>
<path d="M60.2085 120.841L60.9082 120.446L60.4114 120.222C60.4114 120.222 60.0231 120.327 60.0126 120.344C60.0158 120.435 60.0252 120.525 60.0406 120.614L60.2085 120.841Z" fill="#FFBA48"/>
<path opacity="0.1" d="M60.2085 120.841L60.9082 120.446L60.4114 120.222C60.4114 120.222 60.0231 120.327 60.0126 120.344C60.0158 120.435 60.0252 120.525 60.0406 120.614L60.2085 120.841Z" fill="white"/>
<path d="M86.2446 133.957C85.9345 134.114 85.5917 134.196 85.2441 134.196C84.8964 134.196 84.5536 134.114 84.2435 133.957L61.8043 121.012L95.3896 101.617L96.1733 101.166L118.612 114.11C119.162 114.428 119.162 114.95 118.612 115.264L86.2446 133.957Z" fill="#FFBA48"/>
<path opacity="0.8" d="M86.2446 133.957C85.9345 134.114 85.5917 134.196 85.2441 134.196C84.8964 134.196 84.5536 134.114 84.2435 133.957L61.8043 121.012L95.3896 101.617L96.1733 101.166L118.612 114.11C119.162 114.428 119.162 114.95 118.612 115.264L86.2446 133.957Z" fill="white"/>
<path d="M77.8166 109.482L69.9905 113.984L64.9247 111.059L59.0438 114.467V118.704C59.0438 119.218 59.6211 119.949 59.831 119.83C60.2192 119.924 60.5967 120.058 60.9575 120.229C61.546 120.563 62.0921 120.968 62.5843 121.432L80.5664 111.052L77.8166 109.482Z" fill="#E0E0E0"/>
<path d="M77.8166 109.482L69.9905 113.984L64.9247 111.059L59.0438 114.467V118.704C59.0438 119.218 59.6211 119.949 59.831 119.83C60.2192 119.924 60.5967 120.058 60.9575 120.229C61.546 120.563 62.0921 120.968 62.5843 121.432L80.5664 111.052L77.8166 109.482Z" fill="#FFBA48"/>
<path opacity="0.1" d="M77.8166 109.482L69.9905 113.984L64.9247 111.059L59.0438 114.467V118.704C59.0438 119.218 59.6211 119.949 59.831 119.83C60.2192 119.924 60.5967 120.058 60.9575 120.229C61.546 120.563 62.0921 120.968 62.5843 121.432L80.5664 111.052L77.8166 109.482Z" fill="white"/>
<path d="M84.2324 133.953L82.8785 133.17L62.5629 121.443C62.5476 121.178 62.4511 120.924 62.2865 120.715C62.0466 120.396 61.7443 120.13 61.3979 119.931C61.1081 119.754 60.7786 119.652 60.4393 119.634C60.2123 119.631 59.9907 119.704 59.8096 119.84C59.5451 119.321 59.4164 118.744 59.4353 118.161H58.6656C58.6656 119.211 59.0155 120.288 59.4458 120.533L59.8341 120.761C60.0545 120.886 60.2294 120.893 60.2294 120.761V120.554C60.2294 120.323 60.5793 120.334 61.0131 120.586C61.4469 120.838 61.7932 121.222 61.7932 121.453V121.663C61.7932 121.782 62.0941 122.048 62.458 122.258L82.1054 133.603L84.2324 134.828C84.5403 134.987 84.8829 135.068 85.2295 135.062V134.174C84.8837 134.188 84.5401 134.112 84.2324 133.953V133.953Z" fill="#FFBA48"/>
<path opacity="0.6" d="M84.2324 133.953L82.8785 133.17L62.5629 121.443C62.5476 121.178 62.4511 120.924 62.2865 120.715C62.0466 120.396 61.7443 120.13 61.3979 119.931C61.1081 119.754 60.7786 119.652 60.4393 119.634C60.2123 119.631 59.9907 119.704 59.8096 119.84C59.5451 119.321 59.4164 118.744 59.4353 118.161H58.6656C58.6656 119.211 59.0155 120.288 59.4458 120.533L59.8341 120.761C60.0545 120.886 60.2294 120.893 60.2294 120.761V120.554C60.2294 120.323 60.5793 120.334 61.0131 120.586C61.4469 120.838 61.7932 121.222 61.7932 121.453V121.663C61.7932 121.782 62.0941 122.048 62.458 122.258L82.1054 133.603L84.2324 134.828C84.5403 134.987 84.8829 135.068 85.2295 135.062V134.174C84.8837 134.188 84.5401 134.112 84.2324 133.953V133.953Z" fill="white"/>
<path d="M119.031 114.67V115.576C119.02 115.697 118.977 115.813 118.907 115.912C118.837 116.011 118.742 116.091 118.632 116.143V116.143L88.3811 133.607L86.2576 134.831C85.9497 134.991 85.6071 135.071 85.2605 135.066V134.177C85.6094 134.186 85.9544 134.102 86.2611 133.936L87.6115 133.156L118.632 115.24C118.743 115.188 118.838 115.108 118.908 115.008C118.978 114.908 119.02 114.791 119.031 114.67Z" fill="#FFBA48"/>
<path opacity="0.1" d="M119.031 114.67V115.576C119.02 115.697 118.977 115.813 118.907 115.912C118.837 116.011 118.742 116.091 118.632 116.143V116.143L88.3811 133.607L86.2576 134.831C85.9497 134.991 85.6071 135.071 85.2605 135.066V134.177C85.6094 134.186 85.9544 134.102 86.2611 133.936L87.6115 133.156L118.632 115.24C118.743 115.188 118.838 115.108 118.908 115.008C118.978 114.908 119.02 114.791 119.031 114.67Z" fill="white"/>
<path d="M85.2432 128.205V133.397C85.0116 133.404 84.7823 133.35 84.5784 133.24L82.1295 131.819L63.3812 120.995V115.579L85.2432 128.205Z" fill="white"/>
<path d="M118.056 109.908V113.9C118.043 114.131 117.977 114.356 117.861 114.557C117.746 114.757 117.585 114.928 117.391 115.055L88.3537 131.812L85.9047 133.233C85.7007 133.342 85.4715 133.397 85.24 133.39V128.755L118.056 109.908Z" fill="#F0F0F0"/>
<path d="M63.3672 120.988C63.3486 120.722 63.2498 120.469 63.0838 120.26C62.8428 119.943 62.5407 119.678 62.1952 119.48C61.9077 119.3 61.5789 119.197 61.2401 119.179C61.0122 119.177 60.79 119.25 60.6069 119.386V113.981L63.3602 115.572L63.3672 120.988Z" fill="#455A64"/>
<path d="M62.2652 119.526C62.584 119.714 62.8622 119.964 63.0838 120.26C63.2498 120.469 63.3486 120.722 63.3672 120.988V115.824H62.2687L62.2652 119.526Z" fill="#F5F5F5"/>
<path d="M95.3955 95.2637L61.8102 114.659V115.111C61.8102 115.359 61.4603 115.46 61.03 115.201C60.5997 114.943 60.2464 114.642 60.2464 114.211L60.2044 113.785L94.4299 94.0252L94.5664 93.9448C94.6021 94.0079 94.6225 94.0787 94.6258 94.1512V94.3611C94.6188 94.62 94.9652 95.0223 95.3955 95.2637Z" fill="#FFBA48"/>
<path opacity="0.6" d="M95.3955 95.2637L61.8102 114.659V115.111C61.8102 115.359 61.4603 115.46 61.03 115.201C60.5997 114.943 60.2464 114.642 60.2464 114.211L60.2044 113.785L94.4299 94.0252L94.5664 93.9448C94.6021 94.0079 94.6225 94.0787 94.6258 94.1512V94.3611C94.6188 94.62 94.9652 95.0223 95.3955 95.2637Z" fill="white"/>
<path d="M84.2325 127.628L62.2901 114.957C62.0137 114.813 61.7583 114.694 61.6499 114.75L61.7933 114.67L95.3786 95.2742L95.7705 95.0468C95.9465 94.9967 96.1312 94.9849 96.3123 95.012C96.4933 95.0392 96.6664 95.1047 96.82 95.2042L118.591 107.778C119.14 108.096 119.14 108.614 118.591 108.932L86.2161 127.628C85.9083 127.782 85.5687 127.863 85.2243 127.863C84.88 127.863 84.5404 127.782 84.2325 127.628V127.628Z" fill="#FFBA48"/>
<path opacity="0.8" d="M84.2325 127.628L62.2901 114.957C62.0137 114.813 61.7583 114.694 61.6499 114.75L61.7933 114.67L95.3786 95.2742L95.7705 95.0468C95.9465 94.9967 96.1312 94.9849 96.3123 95.012C96.4933 95.0392 96.6664 95.1047 96.82 95.2042L118.591 107.778C119.14 108.096 119.14 108.614 118.591 108.932L86.2161 127.628C85.9083 127.782 85.5687 127.863 85.2243 127.863C84.88 127.863 84.5404 127.782 84.2325 127.628V127.628Z" fill="white"/>
<path d="M94.5596 93.9553L94.4231 94.0358L60.1976 113.806C60.1803 113.769 60.1552 113.737 60.1241 113.711L60.0087 113.645L59.7603 113.505L59.4559 113.326C59.3969 113.287 59.3262 113.269 59.2556 113.276C59.185 113.282 59.1187 113.312 59.0676 113.361C59.0531 113.371 59.0401 113.383 59.0291 113.396C58.9879 113.438 58.9536 113.487 58.9277 113.54C58.8904 113.6 58.8599 113.665 58.8367 113.732C58.8099 113.804 58.7877 113.878 58.7702 113.953C58.7492 114.04 58.7352 114.124 58.7177 114.215C58.7083 114.267 58.7024 114.32 58.7002 114.372C58.7002 114.414 58.7002 114.453 58.7002 114.502C58.7002 114.551 58.7002 114.698 58.7002 114.799V113.837C58.7364 113.521 58.8457 113.218 59.0193 112.951C59.193 112.685 59.4263 112.462 59.7008 112.301L92.0792 93.6055C92.3459 93.448 92.6454 93.3544 92.9543 93.3319C93.2633 93.3095 93.5732 93.3588 93.8599 93.476L94.2692 93.7139L94.4441 93.8119C94.4947 93.8485 94.5346 93.898 94.5596 93.9553Z" fill="#FFBA48"/>
<path opacity="0.8" d="M94.5596 93.9553L94.4231 94.0358L60.1976 113.806C60.1803 113.769 60.1552 113.737 60.1241 113.711L60.0087 113.645L59.7603 113.505L59.4559 113.326C59.3969 113.287 59.3262 113.269 59.2556 113.276C59.185 113.282 59.1187 113.312 59.0676 113.361C59.0531 113.371 59.0401 113.383 59.0291 113.396C58.9879 113.438 58.9536 113.487 58.9277 113.54C58.8904 113.6 58.8599 113.665 58.8367 113.732C58.8099 113.804 58.7877 113.878 58.7702 113.953C58.7492 114.04 58.7352 114.124 58.7177 114.215C58.7083 114.267 58.7024 114.32 58.7002 114.372C58.7002 114.414 58.7002 114.453 58.7002 114.502C58.7002 114.551 58.7002 114.698 58.7002 114.799V113.837C58.7364 113.521 58.8457 113.218 59.0193 112.951C59.193 112.685 59.4263 112.462 59.7008 112.301L92.0792 93.6055C92.3459 93.448 92.6454 93.3544 92.9543 93.3319C93.2633 93.3095 93.5732 93.3588 93.8599 93.476L94.2692 93.7139L94.4441 93.8119C94.4947 93.8485 94.5346 93.898 94.5596 93.9553Z" fill="white"/>
<path d="M84.2333 127.632L82.8759 126.844L67.2692 117.839L62.2874 114.964C61.9376 114.754 61.6437 114.68 61.6262 114.789V115.013C61.6262 115.264 61.2764 115.264 60.846 115.013C60.6865 114.943 60.5467 114.835 60.4392 114.698C60.3318 114.562 60.26 114.4 60.2303 114.229V113.984C60.2355 113.929 60.2277 113.874 60.2076 113.823C60.1876 113.772 60.1558 113.727 60.1149 113.69L59.9994 113.624L59.751 113.484L59.4467 113.305C59.3876 113.266 59.317 113.248 59.2463 113.254C59.1757 113.261 59.1094 113.291 59.0583 113.34C59.0438 113.35 59.0309 113.362 59.0198 113.375C58.9938 113.403 58.9715 113.433 58.9534 113.466C58.9386 113.481 58.9267 113.499 58.9184 113.519C58.8812 113.579 58.8507 113.644 58.8274 113.711C58.8006 113.783 58.7784 113.857 58.761 113.932C58.74 114.019 58.726 114.103 58.7085 114.194C58.699 114.246 58.6932 114.299 58.691 114.351C58.691 114.393 58.691 114.432 58.691 114.481C58.691 114.53 58.691 114.677 58.691 114.778V118.151H59.4607V114.778C59.4607 114.698 59.4607 114.617 59.4607 114.54L59.4816 114.348C59.48 114.342 59.48 114.336 59.4816 114.33C59.5516 114.943 60.1359 115.488 60.6431 115.775C60.9248 115.953 61.248 116.054 61.5807 116.069C61.8373 116.072 62.0863 115.982 62.2804 115.814L62.3504 115.852L62.4833 115.933L82.1307 127.278L84.2333 128.517C84.5363 128.672 84.8727 128.75 85.2129 128.744V127.855C84.8729 127.863 84.5364 127.786 84.2333 127.632V127.632Z" fill="#FFBA48"/>
<path opacity="0.6" d="M84.2333 127.632L82.8759 126.844L67.2692 117.839L62.2874 114.964C61.9376 114.754 61.6437 114.68 61.6262 114.789V115.013C61.6262 115.264 61.2764 115.264 60.846 115.013C60.6865 114.943 60.5467 114.835 60.4392 114.698C60.3318 114.562 60.26 114.4 60.2303 114.229V113.984C60.2355 113.929 60.2277 113.874 60.2076 113.823C60.1876 113.772 60.1558 113.727 60.1149 113.69L59.9994 113.624L59.751 113.484L59.4467 113.305C59.3876 113.266 59.317 113.248 59.2463 113.254C59.1757 113.261 59.1094 113.291 59.0583 113.34C59.0438 113.35 59.0309 113.362 59.0198 113.375C58.9938 113.403 58.9715 113.433 58.9534 113.466C58.9386 113.481 58.9267 113.499 58.9184 113.519C58.8812 113.579 58.8507 113.644 58.8274 113.711C58.8006 113.783 58.7784 113.857 58.761 113.932C58.74 114.019 58.726 114.103 58.7085 114.194C58.699 114.246 58.6932 114.299 58.691 114.351C58.691 114.393 58.691 114.432 58.691 114.481C58.691 114.53 58.691 114.677 58.691 114.778V118.151H59.4607V114.778C59.4607 114.698 59.4607 114.617 59.4607 114.54L59.4816 114.348C59.48 114.342 59.48 114.336 59.4816 114.33C59.5516 114.943 60.1359 115.488 60.6431 115.775C60.9248 115.953 61.248 116.054 61.5807 116.069C61.8373 116.072 62.0863 115.982 62.2804 115.814L62.3504 115.852L62.4833 115.933L82.1307 127.278L84.2333 128.517C84.5363 128.672 84.8727 128.75 85.2129 128.744V127.855C84.8729 127.863 84.5364 127.786 84.2333 127.632V127.632Z" fill="white"/>
<path d="M119.031 108.344V109.258C119.02 109.379 118.978 109.496 118.908 109.596C118.838 109.696 118.743 109.776 118.632 109.828V109.828L88.3811 127.292L86.2576 128.52C85.9497 128.679 85.6071 128.76 85.2605 128.755V127.866C85.6089 127.874 85.9534 127.792 86.2611 127.628L87.6115 126.848L118.632 108.932C118.745 108.879 118.842 108.796 118.912 108.693C118.982 108.589 119.023 108.469 119.031 108.344Z" fill="#FFBA48"/>
<path opacity="0.1" d="M119.031 108.344V109.258C119.02 109.379 118.978 109.496 118.908 109.596C118.838 109.696 118.743 109.776 118.632 109.828V109.828L88.3811 127.292L86.2576 128.52C85.9497 128.679 85.6071 128.76 85.2605 128.755V127.866C85.6089 127.874 85.9534 127.792 86.2611 127.628L87.6115 126.848L118.632 108.932C118.745 108.879 118.842 108.796 118.912 108.693C118.982 108.589 119.023 108.469 119.031 108.344Z" fill="white"/>
<path d="M96.848 95.2042C96.6944 95.1046 96.5213 95.0391 96.3403 95.0119C96.1593 94.9848 95.9745 94.9967 95.7985 95.0467L95.4067 95.2741C94.9763 95.0223 94.63 94.6199 94.63 94.3715V94.1616C94.6267 94.0891 94.6063 94.0184 94.5705 93.9552C94.5431 93.8984 94.5008 93.85 94.4481 93.8153L94.2732 93.7173L93.8638 93.4794C93.5771 93.3622 93.2672 93.3129 92.9583 93.3354C92.6494 93.3578 92.3498 93.4514 92.0831 93.6089L59.7048 112.305L59.6698 112.326L82.5183 125.518C82.7247 125.624 82.9531 125.679 83.1847 125.679C83.4164 125.679 83.6448 125.624 83.8512 125.518L116.439 106.518L96.848 95.2042Z" fill="#263238"/>
<path d="M80.6886 123.601L81.5527 123.105C81.3202 123.024 81.0704 123.006 80.8285 123.052C80.5976 123.171 80.6886 123.601 80.6886 123.601Z" fill="#FFBA48"/>
<path opacity="0.7" d="M80.6886 123.601L81.5527 123.105C81.3202 123.024 81.0704 123.006 80.8285 123.052C80.5976 123.171 80.6886 123.601 80.6886 123.601Z" fill="black"/>
<path d="M80.0931 123.066C80.1914 122.96 80.3106 122.875 80.4434 122.816C80.5762 122.758 80.7195 122.728 80.8645 122.728C81.0094 122.728 81.1528 122.758 81.2856 122.816C81.4183 122.875 81.5376 122.96 81.6359 123.066C82.479 123.839 82.521 124.605 82.8709 124.595C83.2207 124.584 83.2207 118.42 83.2207 118.42L79.8937 121.502L80.0931 123.066Z" fill="#FFBA48"/>
<path opacity="0.7" d="M80.0931 123.066C80.1914 122.96 80.3106 122.875 80.4434 122.816C80.5762 122.758 80.7195 122.728 80.8645 122.728C81.0094 122.728 81.1528 122.758 81.2856 122.816C81.4183 122.875 81.5376 122.96 81.6359 123.066C82.479 123.839 82.521 124.605 82.8709 124.595C83.2207 124.584 83.2207 118.42 83.2207 118.42L79.8937 121.502L80.0931 123.066Z" fill="black"/>
<path d="M114.876 100.658L114.932 100.627L114.4 100.319L91.4919 87.0947L58.113 108.694C57.5637 109.013 57.4658 109.474 57.8961 109.719L58.6762 110.171L80.0869 122.552L80.2408 122.44L114.876 100.658Z" fill="#FFBA48"/>
<path opacity="0.5" d="M114.876 100.658L114.932 100.627L114.4 100.319L91.4919 87.0947L58.113 108.694C57.5637 109.013 57.4658 109.474 57.8961 109.719L58.6762 110.171L80.0869 122.552L80.2408 122.44L114.876 100.658Z" fill="black"/>
<path d="M82.9442 115.502L81.2859 115.153V121.8C82.2865 122.226 82.9232 122.625 83.0352 123.461L82.9442 115.502Z" fill="#455A64"/>
<path d="M80.5555 121.887L59.3442 109.643C59.1499 109.516 58.9881 109.346 58.8719 109.145C58.7558 108.945 58.6887 108.719 58.676 108.488V101.942L80.0937 114.414C80.0937 114.414 80.3491 115.342 81.1082 115.632C81.8674 115.922 81.2866 116.22 81.2866 116.22V121.817C80.6324 121.723 80.5555 121.887 80.5555 121.887Z" fill="#F0F0F0"/>
<path d="M82.5106 115.275C82.2902 115.149 82.1153 115.142 82.1153 115.275V115.481C82.1153 115.712 81.7654 115.702 81.3316 115.45C80.8978 115.198 80.548 114.813 80.548 114.582V114.372C80.548 114.253 80.2506 113.987 79.8868 113.778L114.396 94.0042L114.931 94.3121C115.005 94.3908 115.052 94.4915 115.064 94.599V94.8089C115.064 95.0398 115.414 95.4281 115.844 95.6765C116.274 95.9249 116.628 95.9389 116.628 95.708V95.4981C116.628 95.3791 116.803 95.3896 117.02 95.5156L82.5106 115.275Z" fill="#FFBA48"/>
<path opacity="0.6" d="M82.5106 115.275C82.2902 115.149 82.1153 115.142 82.1153 115.275V115.481C82.1153 115.712 81.7654 115.702 81.3316 115.45C80.8978 115.198 80.548 114.813 80.548 114.582V114.372C80.548 114.253 80.2506 113.987 79.8868 113.778L114.396 94.0042L114.931 94.3121C115.005 94.3908 115.052 94.4915 115.064 94.599V94.8089C115.064 95.0398 115.414 95.4281 115.844 95.6765C116.274 95.9249 116.628 95.9389 116.628 95.708V95.4981C116.628 95.3791 116.803 95.3896 117.02 95.5156L82.5106 115.275Z" fill="black"/>
<path d="M114.876 94.3297L114.932 94.2982L114.4 93.9903L91.4919 80.7661L58.113 100.043C57.5637 100.361 57.4658 100.819 57.8961 101.068L58.6762 101.516L80.0939 114.414L114.876 94.3297Z" fill="#FFBA48"/>
<path opacity="0.5" d="M114.876 94.3297L114.932 94.2982L114.4 93.9903L91.4919 80.7661L58.113 100.043C57.5637 100.361 57.4658 100.819 57.8961 101.068L58.6762 101.516L80.0939 114.414L114.876 94.3297Z" fill="black"/>
<path d="M116.634 95.2847L82.1325 115.205L83.3394 116.15L117.712 96.3062C117.628 96.051 117.468 95.8276 117.254 95.666L116.634 95.2847Z" fill="#FFBA48"/>
<path opacity="0.5" d="M116.634 95.2847L82.1325 115.205L83.3394 116.15L117.712 96.3062C117.628 96.051 117.468 95.8276 117.254 95.666L116.634 95.2847Z" fill="black"/>
<path d="M117.597 105.21C117.618 105.197 117.638 105.181 117.656 105.164C117.672 105.157 117.685 105.144 117.695 105.129C117.723 105.102 117.747 105.07 117.765 105.035C117.78 105.022 117.792 105.005 117.8 104.986C117.837 104.926 117.867 104.861 117.887 104.794C117.916 104.721 117.94 104.646 117.957 104.57C117.978 104.486 117.992 104.402 118.006 104.311C118.018 104.259 118.025 104.206 118.027 104.153V104.024C118.027 103.929 118.027 103.828 118.027 103.727V98.0275C118.033 97.4291 117.924 96.8352 117.705 96.2783L83.3328 116.122L83.1893 125.05L117.558 105.199L117.597 105.21Z" fill="#FFBA48"/>
<path opacity="0.7" d="M117.597 105.21C117.618 105.197 117.638 105.181 117.656 105.164C117.672 105.157 117.685 105.144 117.695 105.129C117.723 105.102 117.747 105.07 117.765 105.035C117.78 105.022 117.792 105.005 117.8 104.986C117.837 104.926 117.867 104.861 117.887 104.794C117.916 104.721 117.94 104.646 117.957 104.57C117.978 104.486 117.992 104.402 118.006 104.311C118.018 104.259 118.025 104.206 118.027 104.153V104.024C118.027 103.929 118.027 103.828 118.027 103.727V98.0275C118.033 97.4291 117.924 96.8352 117.705 96.2783L83.3328 116.122L83.1893 125.05L117.558 105.199L117.597 105.21Z" fill="black"/>
<path opacity="0.79" d="M83.3576 116.136C83.3576 116.136 110.429 103.468 112.892 102.306C114.518 101.54 115.316 103.149 114.931 104.815C114.581 106.27 113.158 107.771 113.158 107.771L117.583 105.213C117.604 105.2 117.624 105.185 117.643 105.168C117.658 105.16 117.672 105.148 117.681 105.133C117.709 105.105 117.733 105.073 117.751 105.038C117.766 105.025 117.778 105.008 117.786 104.989C117.823 104.929 117.853 104.865 117.873 104.797C117.903 104.724 117.926 104.649 117.943 104.573C117.964 104.489 117.978 104.405 117.992 104.314C118.005 104.263 118.012 104.21 118.013 104.157V104.027C118.013 103.933 118.013 103.831 118.013 103.73V98.0275C118.02 97.4291 117.91 96.8352 117.692 96.2783L83.3576 116.136Z" fill="#263238"/>
<path d="M83.6758 117.874H82.9061C82.9241 117.292 82.7967 116.715 82.5353 116.195C82.3522 116.331 82.1299 116.403 81.9021 116.401C81.5633 116.384 81.2345 116.281 80.947 116.101C80.6007 115.904 80.2984 115.638 80.0584 115.32C80.0401 115.299 80.0237 115.275 80.0094 115.25C79.8735 115.057 79.7947 114.829 79.782 114.593L59.4664 102.866L58.7667 102.464L57.8851 101.956C57.8083 101.921 57.7427 101.866 57.6952 101.796C57.6477 101.727 57.6202 101.645 57.6157 101.561V100.662C57.6195 100.748 57.6466 100.831 57.694 100.902C57.7415 100.974 57.8075 101.031 57.8851 101.068V101.068L60.2185 102.411L79.8625 113.757C80.2298 113.967 80.5272 114.232 80.5272 114.351V114.561C80.549 114.694 80.6127 114.817 80.7091 114.911C80.8777 115.114 81.0815 115.285 81.3108 115.415C81.7446 115.667 82.0945 115.677 82.0945 115.446V115.24C82.0945 115.118 82.2659 115.128 82.4863 115.24L82.8746 115.467C83.3259 115.747 83.6758 116.814 83.6758 117.874Z" fill="#FFBA48"/>
<path d="M82.9063 117.874V123.573C82.9063 123.654 82.9063 123.734 82.9063 123.811L82.8889 124.004C82.8905 124.009 82.8905 124.015 82.8889 124.021C82.8189 123.409 82.2346 122.863 81.7274 122.576C81.4446 122.398 81.1202 122.297 80.7863 122.282C80.5297 122.279 80.2807 122.37 80.0866 122.538L80.0201 122.499L79.8837 122.419L60.2398 111.073L59.1098 110.423L58.7879 110.234L57.8363 109.684C57.7738 109.645 57.7219 109.591 57.6852 109.527C57.6486 109.463 57.6284 109.391 57.6264 109.317V110.216C57.6291 110.286 57.6482 110.354 57.6823 110.415C57.7163 110.475 57.7643 110.527 57.8223 110.566V110.566C57.9343 110.632 58.0532 110.695 58.1722 110.769L58.3926 110.898L58.7704 111.115C58.8544 111.168 58.9313 111.213 59.0048 111.252C59.0783 111.29 59.1202 111.322 59.1692 111.346L59.4596 111.518L75.0663 120.523L80.0481 123.398C80.398 123.608 80.6883 123.682 80.7093 123.573C80.7105 123.561 80.7105 123.548 80.7093 123.535V123.335C80.7093 123.084 81.0592 123.084 81.4895 123.335C81.649 123.405 81.7888 123.513 81.8963 123.65C82.0038 123.786 82.0756 123.948 82.1052 124.119V124.364C82.1001 124.419 82.1078 124.474 82.1279 124.525C82.1479 124.576 82.1797 124.621 82.2207 124.658L82.3361 124.724L82.581 124.864L82.8854 125.043C82.9444 125.082 83.0151 125.1 83.0857 125.094C83.1563 125.087 83.2226 125.057 83.2737 125.008C83.2895 125 83.3029 124.988 83.3122 124.973C83.3403 124.946 83.364 124.916 83.3821 124.882V124.882C83.3957 124.867 83.4075 124.85 83.4171 124.833C83.4546 124.773 83.484 124.708 83.5046 124.64C83.5342 124.569 83.5576 124.495 83.5746 124.42C83.5955 124.333 83.6095 124.249 83.6235 124.158C83.6359 124.106 83.6429 124.053 83.6445 124C83.6445 123.958 83.6445 123.92 83.6445 123.871C83.6445 123.822 83.6445 123.675 83.6445 123.573V117.874H82.9063Z" fill="#FFBA48"/>
<g opacity="0.6">
<path opacity="0.6" d="M83.6758 117.874H82.9061C82.9241 117.292 82.7967 116.715 82.5353 116.195C82.3522 116.331 82.1299 116.403 81.9021 116.401C81.5633 116.384 81.2345 116.281 80.947 116.101C80.6007 115.904 80.2984 115.638 80.0584 115.32C80.0401 115.299 80.0237 115.275 80.0094 115.25C79.8735 115.057 79.7947 114.829 79.782 114.593L59.4664 102.866L58.7667 102.464L57.8851 101.956C57.8083 101.921 57.7427 101.866 57.6952 101.796C57.6477 101.727 57.6202 101.645 57.6157 101.561V100.662C57.6195 100.748 57.6466 100.831 57.694 100.902C57.7415 100.974 57.8075 101.031 57.8851 101.068V101.068L60.2185 102.411L79.8625 113.757C80.2298 113.967 80.5272 114.232 80.5272 114.351V114.561C80.549 114.694 80.6127 114.817 80.7091 114.911C80.8777 115.114 81.0815 115.285 81.3108 115.415C81.7446 115.667 82.0945 115.677 82.0945 115.446V115.24C82.0945 115.118 82.2659 115.128 82.4863 115.24L82.8746 115.467C83.3259 115.747 83.6758 116.814 83.6758 117.874Z" fill="black"/>
<path opacity="0.6" d="M82.9063 117.874V123.573C82.9063 123.654 82.9063 123.734 82.9063 123.811L82.8889 124.004C82.8905 124.009 82.8905 124.015 82.8889 124.021C82.8189 123.409 82.2346 122.863 81.7274 122.576C81.4446 122.398 81.1202 122.297 80.7863 122.282C80.5297 122.279 80.2807 122.37 80.0866 122.538L80.0201 122.499L79.8837 122.419L60.2398 111.073L59.1098 110.423L58.7879 110.234L57.8363 109.684C57.7738 109.645 57.7219 109.591 57.6852 109.527C57.6486 109.463 57.6284 109.391 57.6264 109.317V110.216C57.6291 110.286 57.6482 110.354 57.6823 110.415C57.7163 110.476 57.7643 110.527 57.8223 110.566V110.566C57.9343 110.633 58.0532 110.696 58.1722 110.769L58.3926 110.898L58.7704 111.115C58.8544 111.168 58.9313 111.213 59.0048 111.252C59.0783 111.29 59.1202 111.322 59.1692 111.346L59.4596 111.518L75.0663 120.523L80.0481 123.398C80.398 123.608 80.6883 123.682 80.7093 123.573C80.7105 123.561 80.7105 123.548 80.7093 123.535V123.336C80.7093 123.084 81.0592 123.084 81.4895 123.336C81.649 123.405 81.7888 123.513 81.8963 123.65C82.0038 123.786 82.0756 123.948 82.1052 124.119V124.364C82.1001 124.419 82.1078 124.474 82.1279 124.525C82.1479 124.576 82.1797 124.621 82.2207 124.658L82.3361 124.724L82.581 124.864L82.8854 125.043C82.9444 125.082 83.0151 125.1 83.0857 125.094C83.1563 125.087 83.2226 125.057 83.2737 125.008C83.2895 125 83.3029 124.988 83.3122 124.973C83.3403 124.947 83.364 124.916 83.3821 124.882V124.882C83.3957 124.867 83.4075 124.851 83.4171 124.833C83.4546 124.773 83.484 124.708 83.5046 124.64C83.5342 124.569 83.5576 124.495 83.5746 124.42C83.5955 124.333 83.6095 124.249 83.6235 124.158C83.6359 124.106 83.6429 124.053 83.6445 124C83.6445 123.958 83.6445 123.92 83.6445 123.871C83.6445 123.822 83.6445 123.675 83.6445 123.573V117.874H82.9063Z" fill="black"/>
</g>
<path d="M117.73 96.2888L85.0618 115.153L60.3696 100.896C60.2889 100.869 60.2187 100.818 60.169 100.748C60.1193 100.679 60.0926 100.596 60.0926 100.511C60.0926 100.426 60.1193 100.343 60.169 100.274C60.2187 100.205 60.2889 100.154 60.3696 100.127L92.6954 81.4587L114.386 93.9903L114.921 94.3016C114.994 94.3798 115.039 94.4791 115.051 94.585V94.7949C115.051 95.0258 115.4 95.4141 115.831 95.6625C115.853 95.677 115.876 95.6887 115.901 95.6975L116.621 95.2812L116.971 95.4771L117.02 95.5016L117.272 95.6485C117.486 95.8105 117.646 96.0338 117.73 96.2888V96.2888Z" fill="#263238"/>
<path d="M62.1927 101.036L63.1758 100.511L62.2802 100.298C62.1941 100.399 62.1399 100.522 62.1243 100.654C62.1087 100.785 62.1326 100.918 62.1927 101.036V101.036Z" fill="#E0E0E0"/>
<g style="mix-blend-mode:multiply" opacity="0.5">
<path d="M62.1927 101.036L63.1758 100.511L62.2802 100.298C62.1941 100.399 62.1399 100.522 62.1243 100.654C62.1087 100.785 62.1326 100.918 62.1927 101.036V101.036Z" fill="#E0E0E0"/>
</g>
<path d="M88.245 114.155C87.9355 114.312 87.5933 114.394 87.2462 114.394C86.8991 114.394 86.5569 114.312 86.2474 114.155L63.8082 101.211L97.3935 79.9789L98.1807 79.524L120.616 94.3016C121.166 94.6199 121.166 95.1377 120.616 95.4561L88.245 114.155Z" fill="#FFBA48"/>
<path d="M79.8208 87.8365L62.8673 99.3255L71.9948 92.3285L66.929 89.4038L61.0376 92.8148V98.8987C61.0376 99.4164 61.6148 100.148 61.8247 100.029C62.2129 100.123 62.5904 100.256 62.9512 100.427C63.5397 100.762 64.0859 101.166 64.578 101.631L82.5566 89.4108L79.8208 87.8365Z" fill="#FFBA48"/>
<path opacity="0.2" d="M79.8208 87.8365L62.8673 99.3255L71.9948 92.3285L66.929 89.4038L61.0376 92.8148V98.8987C61.0376 99.4164 61.6148 100.148 61.8247 100.029C62.2129 100.123 62.5904 100.256 62.9512 100.427C63.5397 100.762 64.0859 101.166 64.578 101.631L82.5566 89.4108L79.8208 87.8365Z" fill="black"/>
<path d="M87.248 106.56V113.585C87.0155 113.59 86.7856 113.536 86.5798 113.428L84.1309 112.007L65.3791 101.183V93.9272L87.248 106.56Z" fill="white"/>
<path d="M120.06 88.2667V94.0987C120.047 94.3297 119.98 94.5545 119.864 94.755C119.749 94.9555 119.588 95.1261 119.395 95.2532L90.3576 112.011L87.9086 113.431C87.704 113.539 87.4752 113.593 87.2439 113.589V107.109L120.06 88.2667Z" fill="#F0F0F0"/>
<path d="M65.3691 101.183C65.352 100.918 65.2543 100.664 65.0893 100.456C64.8502 100.137 64.5476 99.8711 64.2007 99.6754C63.9118 99.4953 63.582 99.3918 63.2421 99.3745C63.0217 99.3522 62.8001 99.4039 62.6124 99.5214V92.3356L65.3656 93.9274L65.3691 101.183Z" fill="#455A64"/>
<path d="M64.2706 99.7173C64.5879 99.9092 64.8657 100.16 65.0893 100.455C65.2543 100.664 65.352 100.918 65.3691 101.183V94.1862H64.2741L64.2706 99.7173Z" fill="#F5F5F5"/>
<path d="M97.3975 73.6292L63.8121 93.0282V93.476C63.8121 93.7279 63.4623 93.8258 63.032 93.5704C62.6017 93.3151 62.2448 93.0072 62.2448 92.5769L62.2028 92.1501L96.4284 72.3907L96.5683 72.3102C96.6035 72.3747 96.6227 72.4467 96.6243 72.5202V72.7266C96.6208 72.975 96.9671 73.3773 97.3975 73.6292Z" fill="#FFBA48"/>
<path opacity="0.2" d="M97.3975 73.6292L63.8121 93.0282V93.476C63.8121 93.7279 63.4623 93.8258 63.032 93.5704C62.6017 93.3151 62.2448 93.0072 62.2448 92.5769L62.2028 92.1501L96.4284 72.3907L96.5683 72.3102C96.6035 72.3747 96.6227 72.4467 96.6243 72.5202V72.7266C96.6208 72.975 96.9671 73.3773 97.3975 73.6292Z" fill="black"/>
<path d="M86.2474 105.983L64.291 93.3151C64.0111 93.1681 63.7557 93.0492 63.6508 93.1051L63.7942 93.0282L97.3795 73.6292L97.7749 73.4053C97.9507 73.3531 98.1358 73.3401 98.3171 73.3673C98.4985 73.3945 98.6717 73.4612 98.8244 73.5627L120.616 86.1327C121.166 86.4511 121.166 86.9723 120.616 87.2872L88.238 105.983C87.9294 106.139 87.5885 106.22 87.2427 106.22C86.897 106.22 86.556 106.139 86.2474 105.983V105.983Z" fill="#FFBA48"/>
<path d="M96.5645 72.3103L96.4245 72.3907L62.192 92.1501C62.1747 92.1136 62.1496 92.0814 62.1185 92.0556L62.0031 91.9927L61.7582 91.8492L61.4538 91.6708C61.3946 91.6322 61.324 91.6146 61.2536 91.6209C61.1831 91.6273 61.1169 91.6572 61.0655 91.7058C61.051 91.7155 61.0381 91.7273 61.027 91.7408C60.9865 91.7843 60.9513 91.8324 60.922 91.8842C60.886 91.945 60.8567 92.0095 60.8346 92.0766C60.8071 92.1499 60.7837 92.2246 60.7646 92.3005C60.7471 92.3845 60.7296 92.4684 60.7156 92.5594C60.705 92.6125 60.698 92.6663 60.6946 92.7203V92.8463C60.6946 92.9407 60.6946 93.0422 60.6946 93.1472V92.1851C60.7298 91.8682 60.8385 91.564 61.0123 91.2967C61.186 91.0294 61.4199 90.8065 61.6952 90.6457L94.0735 71.9499C94.3405 71.7928 94.6402 71.6996 94.9491 71.6778C95.2581 71.6559 95.5679 71.706 95.8543 71.824L96.2636 72.0619L96.435 72.1633C96.4913 72.199 96.5362 72.25 96.5645 72.3103V72.3103Z" fill="#FFBA48"/>
<path d="M86.2471 114.155L84.8932 113.372L64.5776 101.641C64.5597 101.376 64.4622 101.123 64.2977 100.914C64.0575 100.596 63.7552 100.331 63.4091 100.134C63.1206 99.9562 62.7922 99.8539 62.454 99.8362C62.2257 99.8315 62.0025 99.9043 61.8208 100.043C61.5598 99.521 61.4323 98.9428 61.4499 98.3599H60.6803C60.6803 99.4094 61.0301 100.487 61.4604 100.735L61.8487 100.963C62.0692 101.089 62.2406 101.096 62.2406 100.963V100.756C62.2406 100.525 62.5904 100.536 63.0277 100.784C63.465 101.033 63.8079 101.425 63.8079 101.655V101.862C63.8079 101.981 64.1053 102.247 64.4726 102.46L84.12 113.806L86.2471 115.034C86.555 115.193 86.8975 115.273 87.2441 115.268V114.379C86.8981 114.391 86.5548 114.314 86.2471 114.155V114.155Z" fill="#FFBA48"/>
<path opacity="0.4" d="M86.2471 114.155L84.8932 113.372L64.5776 101.641C64.5597 101.376 64.4622 101.123 64.2977 100.914C64.0575 100.596 63.7552 100.331 63.4091 100.134C63.1206 99.9562 62.7922 99.8539 62.454 99.8362C62.2257 99.8315 62.0025 99.9043 61.8208 100.043C61.5598 99.521 61.4323 98.9428 61.4499 98.3599H60.6803C60.6803 99.4094 61.0301 100.487 61.4604 100.735L61.8487 100.963C62.0692 101.089 62.2406 101.096 62.2406 100.963V100.756C62.2406 100.525 62.5904 100.536 63.0277 100.784C63.465 101.033 63.8079 101.425 63.8079 101.655V101.862C63.8079 101.981 64.1053 102.247 64.4726 102.46L84.12 113.806L86.2471 115.034C86.555 115.193 86.8975 115.273 87.2441 115.268V114.379C86.8981 114.391 86.5548 114.314 86.2471 114.155V114.155Z" fill="black"/>
<path d="M86.2546 105.987L84.9007 105.203L69.2941 96.1978L64.2912 93.3151C63.9414 93.1087 63.6475 93.0352 63.6265 93.1437V93.3711C63.6265 93.6194 63.2767 93.6194 62.8464 93.3711C62.6864 93.3014 62.5463 93.1929 62.4388 93.0555C62.3313 92.918 62.2597 92.756 62.2306 92.5839V92.339C62.2358 92.2844 62.228 92.2294 62.208 92.1783C62.1879 92.1273 62.1561 92.0816 62.1152 92.0451L61.9998 91.9822L61.7549 91.8387L61.4505 91.6603C61.3912 91.6217 61.3207 91.6041 61.2503 91.6105C61.1798 91.6168 61.1135 91.6467 61.0622 91.6953C61.0477 91.705 61.0348 91.7168 61.0237 91.7303C60.9965 91.7587 60.973 91.7905 60.9537 91.8247C60.9404 91.8398 60.9287 91.8562 60.9187 91.8737C60.8827 91.9345 60.8533 91.999 60.8313 92.0661C60.8038 92.1394 60.7804 92.2142 60.7613 92.29C60.7438 92.374 60.7263 92.458 60.7123 92.5489C60.7017 92.602 60.6946 92.6558 60.6913 92.7099V92.8358C60.6913 92.9303 60.6913 93.0317 60.6913 93.1367V98.3424H61.461V93.1646C61.461 93.0842 61.461 93.0002 61.461 92.9233L61.4785 92.7308C61.5484 93.3431 62.1327 93.8888 62.6435 94.1757C62.9247 94.3545 63.2481 94.4559 63.5811 94.4696C63.8377 94.4729 64.0866 94.382 64.2807 94.2142L64.3472 94.2527L64.4837 94.3331L84.1311 105.679L86.2581 106.907C86.5622 107.062 86.8998 107.14 87.2412 107.134V106.245C86.8959 106.243 86.5567 106.154 86.2546 105.987V105.987Z" fill="#FFBA48"/>
<path opacity="0.4" d="M86.2546 105.987L84.9007 105.203L69.2941 96.1978L64.2912 93.3151C63.9414 93.1087 63.6475 93.0352 63.6265 93.1437V93.3711C63.6265 93.6194 63.2767 93.6194 62.8464 93.3711C62.6864 93.3014 62.5463 93.1929 62.4388 93.0555C62.3313 92.918 62.2597 92.756 62.2306 92.5839V92.339C62.2358 92.2844 62.228 92.2294 62.208 92.1783C62.1879 92.1273 62.1561 92.0816 62.1152 92.0451L61.9998 91.9822L61.7549 91.8387L61.4505 91.6603C61.3912 91.6217 61.3207 91.6041 61.2503 91.6105C61.1798 91.6168 61.1135 91.6467 61.0622 91.6953C61.0477 91.705 61.0348 91.7168 61.0237 91.7303C60.9965 91.7587 60.973 91.7905 60.9537 91.8247C60.9404 91.8398 60.9287 91.8562 60.9187 91.8737C60.8827 91.9345 60.8533 91.999 60.8313 92.0661C60.8038 92.1394 60.7804 92.2142 60.7613 92.29C60.7438 92.374 60.7263 92.458 60.7123 92.5489C60.7017 92.602 60.6946 92.6558 60.6913 92.7099V92.8358C60.6913 92.9303 60.6913 93.0317 60.6913 93.1367V98.3424H61.461V93.1646C61.461 93.0842 61.461 93.0002 61.461 92.9233L61.4785 92.7308C61.5484 93.3431 62.1327 93.8888 62.6435 94.1757C62.9247 94.3545 63.2481 94.4559 63.5811 94.4696C63.8377 94.4729 64.0866 94.382 64.2807 94.2142L64.3472 94.2527L64.4837 94.3331L84.1311 105.679L86.2581 106.907C86.5622 107.062 86.8998 107.14 87.2412 107.134V106.245C86.8959 106.243 86.5567 106.154 86.2546 105.987V105.987Z" fill="black"/>
<path d="M121.033 86.6995V87.6021C121.023 87.7233 120.981 87.8396 120.911 87.9396C120.842 88.0397 120.748 88.1198 120.638 88.1723V88.1723L90.3831 105.637L88.2595 106.865C87.9527 107.023 87.6114 107.104 87.266 107.099V106.21C87.6132 106.218 87.9566 106.136 88.263 105.973L89.6134 105.192L120.617 87.2872C120.734 87.2382 120.836 87.157 120.909 87.0531C120.983 86.9492 121.026 86.8266 121.033 86.6995V86.6995Z" fill="#FFBA48"/>
<path opacity="0.2" d="M121.033 86.6995V87.6021C121.023 87.7233 120.981 87.8396 120.911 87.9396C120.842 88.0397 120.748 88.1198 120.638 88.1723V88.1723L90.3831 105.637L88.2595 106.865C87.9527 107.023 87.6114 107.104 87.266 107.099V106.21C87.6132 106.218 87.9566 106.136 88.263 105.973L89.6134 105.192L120.617 87.2872C120.734 87.2382 120.836 87.157 120.909 87.0531C120.983 86.9492 121.026 86.8266 121.033 86.6995V86.6995Z" fill="black"/>
<path d="M121.033 94.8649V95.7675C121.023 95.8888 120.981 96.0051 120.911 96.1051C120.842 96.2051 120.748 96.2853 120.638 96.3378L90.3691 113.806L88.2455 115.034C87.9387 115.192 87.5974 115.273 87.252 115.268V114.379C87.5992 114.387 87.9426 114.305 88.249 114.142L89.5994 113.361L120.617 95.4527C120.734 95.4036 120.836 95.3225 120.909 95.2186C120.983 95.1147 121.026 94.9921 121.033 94.8649V94.8649Z" fill="#FFBA48"/>
<path opacity="0.2" d="M121.033 94.8649V95.7675C121.023 95.8888 120.981 96.0051 120.911 96.1051C120.842 96.2051 120.748 96.2853 120.638 96.3378L90.3691 113.806L88.2455 115.034C87.9387 115.192 87.5974 115.273 87.252 115.268V114.379C87.5992 114.387 87.9426 114.305 88.249 114.142L89.5994 113.361L120.617 95.4527C120.734 95.4036 120.836 95.3225 120.909 95.2186C120.983 95.1147 121.026 94.9921 121.033 94.8649V94.8649Z" fill="black"/>
<path d="M107.059 63.1234L110.271 68.8468L105.59 71.3378L102.182 66.265L107.059 63.1234Z" fill="#FFA8A7"/>
<path d="M95.6654 50.2314C97.4496 49.927 100.15 49.8466 101.907 52.8587C103.663 55.8709 107.448 63.3052 107.448 63.3052C107.448 63.3052 105.237 66.1669 102.036 66.6882L96.8059 58.3898L95.6654 50.2314Z" fill="#FFBA48"/>
<path d="M99.8807 120.327H103.876V127.166H99.8807V120.327Z" fill="#FFA8A7"/>
<path d="M111.447 118.661L115.442 118.798L115.642 111.56L111.65 111.423L111.447 118.661Z" fill="#FFA8A7"/>
<path d="M103.876 125.193V124.623C104.258 124.787 105.146 128.177 106.731 129.622C107.991 130.773 109.708 132.099 110.146 133.38C110.6 134.713 107.753 135.451 106.577 135.241C105.209 134.999 102.837 134.037 102.243 133.142C101.648 132.246 101.368 130.934 100.885 130.28C100.402 129.626 99.2863 128.881 99.024 128.135C98.8805 127.719 99.0519 126.809 99.2514 126.036C99.4368 125.337 99.6397 124.553 99.8811 124.619V125.053C100.171 125.375 100.973 125.693 101.879 125.728C102.463 125.756 103.88 125.641 103.876 125.193Z" fill="#263238"/>
<path d="M115.484 117.566C115.691 117.566 115.859 117.867 116.317 118.361C117.001 119.051 117.795 119.622 118.668 120.05C120.165 120.802 123.066 121.953 124.388 122.552C125.21 122.923 125.172 123.916 124.321 124.483C123.471 125.05 121.421 125.455 118.955 124.903C117.615 124.602 115.866 123.363 114.757 123.43C113.648 123.496 111.58 123.482 110.765 122.919C109.95 122.356 110.275 121.17 110.506 120.12C110.758 118.994 111.118 117.269 111.493 117.346V117.696C111.972 118.424 114.417 118.721 115.474 118.186L115.484 117.566Z" fill="#263238"/>
<path d="M83.7878 78.7334C82.9132 84.9082 84.0921 86.0802 89.9591 92.0066C93.1077 95.1867 98.198 99.8502 98.198 99.8502C98.198 99.8502 98.1245 101.823 98.086 106.245C98.0475 110.139 99.6743 122.811 99.6743 122.811C99.6743 122.811 102.326 123.927 104.145 122.769C104.145 122.769 104.968 113.34 105.412 108.425C106.014 101.778 106.328 98.4263 105.989 96.9955C105.688 95.7325 99.7163 88.1898 98.3379 86.0767L111.03 93.4515C110.784 95.3201 110.66 97.2028 110.66 99.0875C110.799 104.374 111.45 114.932 111.45 114.932C111.45 114.932 114.354 116.23 115.795 115.111C115.795 115.111 119.451 92.0206 119.451 90.1245C119.451 87.2452 106.948 78.6495 104.579 76.6483C103.229 75.5078 101.724 74.2729 101.724 74.2729L83.7878 78.7334Z" fill="#455A64"/>
<path d="M98.3378 86.0802C99.6729 84.9992 100.678 83.5653 101.238 81.9415C101.168 83.001 101.017 84.0536 100.787 85.0901C100.437 86.4615 111.03 93.4514 111.03 93.4514L98.3378 86.0802Z" fill="#37474F"/>
<path d="M91.2833 39.1884C90.5686 36.139 92.4613 33.0876 95.5107 32.373C98.5601 31.6583 101.611 33.551 102.326 36.6004C103.041 39.6497 101.148 42.7011 98.0987 43.4158C95.0493 44.1305 91.9979 42.2378 91.2833 39.1884Z" fill="#263238"/>
<path d="M84.8898 53.6669C84.8898 53.6669 83.4904 54.8144 83.4904 58.4389V66.2649L83.6898 79.4262C86.4886 82.4733 99.0831 81.3188 102.2 74.6718C102.2 74.6718 102.176 60.7793 102.176 57.6657C102.176 54.5521 100.426 50.5113 95.6686 50.2314L89.5043 51.6658L84.8898 53.6669Z" fill="#263238"/>
<path d="M87.0035 41.926C87.0035 41.926 87.9236 46.2431 88.2909 46.9533C88.5359 47.3911 88.9409 47.7171 89.4209 47.8629L89.3579 44.8263L87.0035 41.926Z" fill="#263238"/>
<path d="M88.1578 35.7408C87.8384 35.7049 87.515 35.742 87.212 35.8493C86.9089 35.9565 86.6342 36.1312 86.4085 36.3601C85.6529 37.1332 86.0762 39.5542 87.0173 41.9261L88.749 42.1255L88.1578 35.7408Z" fill="#263238"/>
<path d="M89.2517 42.1254C88.9019 42.3318 88.4086 41.6671 87.9818 41.2193C87.555 40.7715 86.1556 40.1698 85.4594 41.6286C84.7632 43.0875 86.0751 45.1026 87.1736 45.449C89.0698 46.0437 89.3567 44.8262 89.3567 44.8262L89.5001 51.6658C91.1339 53.492 96.721 53.0651 95.6679 51.4838V49.3848C95.6679 49.3848 97.3857 49.6471 98.2218 49.5177C99.6212 49.3008 100.496 48.2023 100.919 46.6909C101.598 44.2665 101.857 42.3108 101.269 37.5424C100.636 32.3157 94.5589 32.2632 91.2773 34.3273C87.9958 36.3914 89.2517 42.1254 89.2517 42.1254Z" fill="#FFA8A7"/>
<path d="M94.084 43.3219H94.3778C94.8909 43.3219 95.383 43.1181 95.7459 42.7553C96.1087 42.3925 96.3125 41.9004 96.3125 41.3873C96.3125 40.8742 96.1087 40.3821 95.7459 40.0193C95.383 39.6565 94.8909 39.4526 94.3778 39.4526H94.0805C93.5674 39.4526 93.0753 39.6565 92.7125 40.0193C92.3496 40.3821 92.1458 40.8742 92.1458 41.3873C92.1458 41.9004 92.3496 42.3925 92.7125 42.7553C93.0753 43.1181 93.5674 43.3219 94.0805 43.3219H94.084ZM94.3778 39.778C94.8047 39.778 95.214 39.9475 95.5158 40.2493C95.8176 40.5511 95.9871 40.9605 95.9871 41.3873C95.9871 41.8141 95.8176 42.2234 95.5158 42.5252C95.214 42.827 94.8047 42.9966 94.3778 42.9966H94.0805C93.6537 42.9966 93.2443 42.827 92.9425 42.5252C92.6407 42.2234 92.4712 41.8141 92.4712 41.3873C92.4712 40.9605 92.6407 40.5511 92.9425 40.2493C93.2443 39.9475 93.6537 39.778 94.0805 39.778H94.3778Z" fill="#263238"/>
<path d="M99.976 43.3219H100.273C100.786 43.3219 101.279 43.1181 101.641 42.7553C102.004 42.3925 102.208 41.9004 102.208 41.3873C102.208 40.8742 102.004 40.3821 101.641 40.0193C101.279 39.6565 100.786 39.4526 100.273 39.4526H99.976C99.4629 39.4526 98.9708 39.6565 98.608 40.0193C98.2452 40.3821 98.0413 40.8742 98.0413 41.3873C98.0413 41.9004 98.2452 42.3925 98.608 42.7553C98.9708 43.1181 99.4629 43.3219 99.976 43.3219V43.3219ZM100.273 39.778C100.7 39.778 101.109 39.9475 101.411 40.2493C101.713 40.5511 101.883 40.9605 101.883 41.3873C101.883 41.8141 101.713 42.2234 101.411 42.5252C101.109 42.827 100.7 42.9966 100.273 42.9966H99.976C99.5492 42.9966 99.1398 42.827 98.838 42.5252C98.5362 42.2234 98.3667 41.8141 98.3667 41.3873C98.3667 40.9605 98.5362 40.5511 98.838 40.2493C99.1398 39.9475 99.5492 39.778 99.976 39.778H100.273Z" fill="#263238"/>
<path d="M96.2913 41.006C96.4094 40.8456 96.5631 40.715 96.7405 40.6246C96.9178 40.5341 97.1138 40.4862 97.3129 40.4847C97.4787 40.468 97.6461 40.491 97.8012 40.5519C97.9563 40.6127 98.0947 40.7096 98.205 40.8345L98.4639 40.6386C98.3222 40.4711 98.1416 40.3411 97.9378 40.2599C97.734 40.1788 97.5134 40.149 97.2954 40.1733C97.0431 40.1758 96.7951 40.2384 96.5718 40.3558C96.3485 40.4732 96.1565 40.6421 96.0114 40.8485L96.2913 41.006Z" fill="#263238"/>
<path d="M88.2139 40.9919H92.3281V41.3173H88.2139V40.9919Z" fill="#263238"/>
<path d="M89.2517 42.7097C89.0768 42.7097 88.4156 41.6112 87.9818 41.2194C87.3835 40.6736 88.1567 35.7408 88.1567 35.7408C88.1567 35.7408 87.5795 34.5128 88.7339 33.2464C89.5526 32.3438 90.924 32.2423 93.2645 31.875C94.4924 31.6825 96.3536 31.3362 97.5816 31.1088C99.0439 30.8359 100.258 30.549 101.29 31.4586C101.695 31.8098 101.982 32.2779 102.11 32.7984C102.238 33.319 102.202 33.8665 102.007 34.3659C101.711 34.9886 101.184 35.4717 100.538 35.7128C100.538 35.7128 99.9011 36.2795 97.6795 36.5489C95.458 36.8183 91.998 36.4999 91.5257 36.4335C90.882 36.346 90.7456 36.9687 90.3957 38.676C90.0914 40.1628 89.829 42.6992 89.2517 42.7097Z" fill="#263238"/>
<path d="M88.1608 36.1396L86.0617 35.0096C86.129 34.8685 86.2241 34.7425 86.3413 34.6391C86.4585 34.5357 86.5955 34.4572 86.7439 34.4081C86.8923 34.3591 87.0491 34.3406 87.2048 34.3538C87.3605 34.367 87.512 34.4115 87.65 34.4848C87.9306 34.643 88.14 34.9027 88.235 35.2105C88.33 35.5183 88.3035 35.8508 88.1608 36.1396V36.1396Z" fill="#263238"/>
<path d="M95.6654 49.4023C95.6654 49.4023 92.5518 48.776 91.4673 48.1988C90.8274 47.8646 90.3031 47.3452 89.9629 46.7084C90.1276 47.3427 90.4179 47.9376 90.8166 48.4577C91.6142 49.4757 95.6689 50.2244 95.6689 50.2244L95.6654 49.4023Z" fill="#F28F8F"/>
<path d="M94.9159 41.3488C94.911 41.4716 94.8702 41.5903 94.7984 41.6901C94.7265 41.7899 94.6269 41.8663 94.512 41.9099C94.397 41.9534 94.2718 41.9622 94.1518 41.9351C94.0319 41.9079 93.9227 41.8461 93.8377 41.7573C93.7527 41.6684 93.6957 41.5566 93.6739 41.4356C93.652 41.3146 93.6663 41.1899 93.7148 41.0769C93.7634 40.964 93.8441 40.8678 93.947 40.8005C94.0498 40.7331 94.1702 40.6975 94.2931 40.6981C94.3768 40.6999 94.4592 40.7182 94.5358 40.7518C94.6123 40.7855 94.6815 40.834 94.7393 40.8944C94.7971 40.9548 94.8425 41.0261 94.8728 41.104C94.9031 41.182 94.9177 41.2652 94.9159 41.3488V41.3488Z" fill="#263238"/>
<path d="M93.916 38.7669L92.5796 39.5016C92.4895 39.3196 92.4715 39.1104 92.5293 38.9157C92.587 38.7211 92.7162 38.5554 92.891 38.4521C92.9785 38.4036 93.075 38.3733 93.1745 38.363C93.2741 38.3527 93.3747 38.3625 93.4703 38.3919C93.566 38.4212 93.6548 38.4696 93.7313 38.534C93.8079 38.5985 93.8707 38.6777 93.916 38.7669V38.7669Z" fill="#263238"/>
<path d="M95.3828 45.6555L96.8066 46.1907C96.776 46.2863 96.7263 46.3747 96.6607 46.4507C96.595 46.5266 96.5147 46.5885 96.4245 46.6326C96.3343 46.6767 96.2361 46.7021 96.1359 46.7074C96.0356 46.7126 95.9353 46.6975 95.8411 46.663C95.6491 46.587 95.4942 46.4396 95.4087 46.2517C95.3232 46.0638 95.3139 45.8501 95.3828 45.6555Z" fill="#F28F8F"/>
<path d="M100.64 39.3127L99.4223 38.3786C99.479 38.2971 99.5516 38.2279 99.6357 38.1752C99.7199 38.1225 99.8138 38.0874 99.9119 38.072C100.01 38.0567 100.11 38.0613 100.206 38.0858C100.303 38.1102 100.393 38.1539 100.472 38.2142C100.636 38.3406 100.745 38.5252 100.776 38.7298C100.807 38.9344 100.758 39.1432 100.64 39.3127Z" fill="#263238"/>
<path d="M100.104 41.1704C100.1 41.2932 100.059 41.4119 99.9868 41.5117C99.915 41.6115 99.8154 41.6879 99.7005 41.7315C99.5855 41.775 99.4602 41.7838 99.3403 41.7567C99.2204 41.7295 99.1112 41.6677 99.0262 41.5789C98.9412 41.49 98.8842 41.3782 98.8623 41.2572C98.8405 41.1362 98.8547 41.0114 98.9033 40.8985C98.9519 40.7856 99.0326 40.6894 99.1354 40.622C99.2383 40.5547 99.3587 40.5191 99.4816 40.5197C99.5652 40.5215 99.6477 40.5398 99.7242 40.5734C99.8008 40.6071 99.87 40.6556 99.9278 40.716C99.9856 40.7764 100.031 40.8477 100.061 40.9256C100.092 41.0036 100.106 41.0868 100.104 41.1704V41.1704Z" fill="#263238"/>
<path d="M97.0226 40.67L97.0926 44.4519L99.3281 43.9586L97.0226 40.67Z" fill="#F28F8F"/>
<path d="M100.843 72.1108V72.4607C100.843 72.6395 100.891 72.8152 100.98 72.97C101.07 73.1247 101.199 73.2531 101.354 73.3423L111.069 78.9398C111.224 79.0292 111.4 79.0762 111.578 79.0762C111.757 79.0762 111.933 79.0292 112.087 78.9398L129.912 68.6508C130.067 68.5617 130.196 68.4333 130.286 68.2785C130.375 68.1237 130.423 67.9481 130.423 67.7692V67.5208L111.58 78.3976L100.843 72.1108Z" fill="#FFBA48"/>
<path opacity="0.6" d="M100.843 72.1108V72.4607C100.843 72.6395 100.891 72.8152 100.98 72.97C101.07 73.1247 101.199 73.2531 101.354 73.3423L111.069 78.9398C111.224 79.0292 111.4 79.0762 111.578 79.0762C111.757 79.0762 111.933 79.0292 112.087 78.9398L129.912 68.6508C130.067 68.5617 130.196 68.4333 130.286 68.2785C130.375 68.1237 130.423 67.9481 130.423 67.7692V67.5208L111.58 78.3976L100.843 72.1108Z" fill="black"/>
<path d="M130.412 67.5243L119.843 61.423C119.751 61.3696 119.646 61.3414 119.539 61.3414C119.432 61.3414 119.327 61.3696 119.234 61.423L100.903 72.0094C100.882 72.0215 100.865 72.0386 100.854 72.0592C100.842 72.0797 100.836 72.1029 100.836 72.1266C100.836 72.1502 100.842 72.1734 100.854 72.194C100.865 72.2145 100.882 72.2317 100.903 72.2438L111.569 78.4011L130.412 67.5243Z" fill="#FFBA48"/>
<path opacity="0.5" d="M130.412 67.5243L119.843 61.423C119.751 61.3696 119.646 61.3414 119.539 61.3414C119.432 61.3414 119.327 61.3696 119.234 61.423L100.903 72.0094C100.882 72.0215 100.865 72.0386 100.854 72.0592C100.842 72.0797 100.836 72.1029 100.836 72.1266C100.836 72.1502 100.842 72.1734 100.854 72.194C100.865 72.2145 100.882 72.2317 100.903 72.2438L111.569 78.4011L130.412 67.5243Z" fill="black"/>
<path d="M111.481 77.5055L105.782 74.2169L122.449 64.5961L128.18 67.8672L111.481 77.5055Z" fill="#263238"/>
<path d="M108.68 68.3605L108.785 68.4199L111.58 70.0327L116.548 67.164L116.649 67.1045L113.753 65.4323L108.68 68.3605Z" fill="#263238"/>
<path d="M108.785 68.4199L111.58 70.0327L116.548 67.1639L113.753 65.5511L108.785 68.4199Z" fill="#263238"/>
<path opacity="0.7" d="M111.58 78.4011V79.0798C111.758 79.0796 111.933 79.0326 112.087 78.9434L129.912 68.6544C130.067 68.5652 130.196 68.4368 130.286 68.282C130.375 68.1273 130.423 67.9516 130.423 67.7727V67.5244L111.58 78.4011Z" fill="black"/>
<path d="M111.87 78.5515C112.04 78.619 112.222 78.6468 112.404 78.6329C112.586 78.6189 112.763 78.5636 112.92 78.471L130.664 68.2275C130.818 68.1391 130.951 68.0176 131.052 67.8718C131.154 67.7261 131.222 67.5596 131.252 67.3844L133.193 55.7974C133.204 55.7327 133.21 55.6672 133.211 55.6015C133.213 55.2796 133.087 54.97 132.861 54.7409L114.421 65.3902C114.304 65.4546 114.202 65.5441 114.124 65.6525C114.046 65.7608 113.993 65.8851 113.969 66.0165L111.87 78.5515Z" fill="#FFBA48"/>
<path opacity="0.5" d="M111.87 78.5515C112.04 78.619 112.222 78.6468 112.404 78.6329C112.586 78.6189 112.763 78.5636 112.92 78.471L130.664 68.2275C130.818 68.1391 130.951 68.0176 131.052 67.8718C131.154 67.7261 131.222 67.5596 131.252 67.3844L133.193 55.7974C133.204 55.7327 133.21 55.6672 133.211 55.6015C133.213 55.2796 133.087 54.97 132.861 54.7409L114.421 65.3902C114.304 65.4546 114.202 65.5441 114.124 65.6525C114.046 65.7608 113.993 65.8851 113.969 66.0165L111.87 78.5515Z" fill="black"/>
<path d="M111.58 78.4011L111.699 78.4711C111.752 78.5021 111.809 78.529 111.867 78.5515L113.966 66.0165C113.988 65.8868 114.038 65.7634 114.113 65.6552C114.188 65.547 114.286 65.4566 114.399 65.3903L132.84 54.741C132.767 54.6688 132.684 54.6065 132.595 54.5555L114.116 65.2224C114.002 65.2886 113.904 65.3791 113.83 65.4873C113.755 65.5955 113.704 65.7188 113.682 65.8486L111.58 78.4011Z" fill="#E0E0E0"/>
<path d="M121.862 67.8566C121.991 67.0835 122.792 66.0514 123.649 65.5582C124.506 65.0649 125.098 65.2888 124.965 66.0654C124.832 66.8421 124.034 67.8706 123.177 68.3674C122.32 68.8642 121.729 68.6333 121.862 67.8566Z" fill="#FFBA48"/>
<path d="M118.228 75.3994C118.265 74.8974 118.362 74.4016 118.518 73.923C118.791 73.0659 119.602 69.7633 121.457 69.2665C121.677 69.2003 121.911 69.193 122.135 69.2456C122.65 69.3855 122.884 69.9208 122.985 70.4C123.08 71.1083 123.08 71.8259 122.985 72.5341C123.27 72.2081 123.605 71.9284 123.976 71.705C124.304 71.4573 124.701 71.3157 125.113 71.2992C125.17 71.2963 125.227 71.3076 125.279 71.332C125.331 71.3564 125.376 71.3932 125.41 71.4391C125.476 71.5615 125.41 71.7155 125.305 71.8239C125.12 72.0478 124.892 72.2368 124.707 72.4607C124.561 72.6559 124.427 72.8591 124.304 73.0694C124.07 73.4472 123.808 73.8041 123.545 74.1644C123.041 74.9131 122.409 75.5669 121.677 76.0956C120.836 76.6651 119.881 77.0458 118.878 77.2116C117.524 77.3795 116.209 77.3585 115.355 77.0611L118.228 75.3994Z" fill="#FFA8A7"/>
<path d="M85.2609 53.7684C86.5098 53.1246 88.336 55.675 87.7553 58.3409C87.1745 61.0067 84.3128 70.3791 84.3128 70.3791C84.3128 70.3791 97.2396 71.5336 98.3381 71.67C99.1043 71.761 99.9614 71.3727 100.672 71.1383C101.637 70.8164 102.613 70.5925 103.565 70.2427C103.73 70.1666 103.911 70.1284 104.093 70.1307C104.185 70.1347 104.272 70.1687 104.342 70.2275C104.413 70.2863 104.462 70.3667 104.481 70.4561C104.486 70.5655 104.458 70.6739 104.401 70.7674C104.096 71.39 103.637 71.9246 103.068 72.3208C102.792 72.4836 102.53 72.6685 102.284 72.8735C102.134 73.0239 101.802 73.4403 101.935 73.6677L107.07 76.6239C107.07 76.6239 105.888 77.6524 101.606 76.4524C100.062 76.0486 98.5558 75.5137 97.1032 74.8536C97.1032 74.8536 81.8708 75.4869 79.1175 74.6542C78.145 74.3569 77.7951 73.6677 78.4528 70.533C79.205 66.9016 81.3636 60.279 81.8533 58.5298C82.9274 54.7409 83.1828 54.8284 85.2609 53.7684Z" fill="#FFA8A7"/>
<path d="M85.9043 53.2261C85.9043 53.2261 83.8402 53.8069 82.9516 54.9754C82.063 56.1439 78.6345 67.4474 78.6345 67.4474C79.5307 68.195 80.5787 68.7386 81.706 69.0406C82.8332 69.3427 84.0127 69.3959 85.1626 69.1967C85.1626 69.1967 87.9194 61.3776 88.2133 59.289C88.7346 56.0529 87.1532 53.506 85.9043 53.2261Z" fill="#FFBA48"/>
<path d="M97.0439 60.8107C97.2118 59.9361 96.666 59.4638 95.8229 59.7612C95.3767 59.9445 94.9797 60.2299 94.6637 60.5945C94.3478 60.959 94.1217 61.3925 94.0037 61.8603C93.8358 62.7454 96.8794 61.6784 97.0439 60.8107Z" fill="#FFBA48"/>
<path d="M91.2752 63.5361L93.7556 61.9583C93.6296 62.63 94.5357 62.5356 95.3509 62.2522C96.166 61.9688 97.1631 61.3951 97.2925 60.7234L99.4546 60.6954C99.654 60.6954 99.6575 60.9543 99.4546 61.1677C98.9193 61.7659 97.6739 62.8259 95.057 63.739C92.4402 64.6521 91.4361 64.3688 91.0583 64.0889C90.9358 63.9839 91.0478 63.6796 91.2752 63.5361Z" fill="#FFBA48"/>
<path d="M163.409 123.938L152.554 117.721L161.173 112.969L171.649 119.136L163.409 123.938Z" fill="white"/>
<path d="M163.033 122.901C163.051 122.9 163.068 122.896 163.083 122.887L169.386 119.214C169.398 119.208 169.41 119.2 169.419 119.19C169.428 119.18 169.435 119.168 169.439 119.155C169.444 119.142 169.445 119.128 169.444 119.115C169.442 119.101 169.438 119.088 169.431 119.076C169.424 119.064 169.415 119.054 169.404 119.046C169.393 119.038 169.38 119.032 169.366 119.03C169.353 119.027 169.339 119.027 169.326 119.03C169.312 119.034 169.3 119.039 169.289 119.048L162.986 122.716C162.975 122.722 162.966 122.731 162.958 122.741C162.95 122.751 162.944 122.762 162.941 122.775C162.937 122.787 162.937 122.8 162.938 122.813C162.94 122.825 162.944 122.838 162.95 122.849C162.958 122.864 162.97 122.877 162.985 122.886C162.999 122.895 163.016 122.901 163.033 122.901V122.901Z" fill="#E0E0E0"/>
<path d="M162.011 122.274C162.026 122.278 162.042 122.278 162.058 122.274L168.352 118.586C168.362 118.58 168.372 118.572 168.379 118.562C168.387 118.552 168.392 118.54 168.396 118.528C168.399 118.516 168.399 118.504 168.397 118.491C168.396 118.479 168.391 118.467 168.385 118.456C168.379 118.445 168.371 118.436 168.361 118.428C168.351 118.42 168.34 118.414 168.327 118.411C168.315 118.408 168.303 118.407 168.29 118.408C168.278 118.41 168.266 118.414 168.255 118.42L161.95 122.094C161.928 122.107 161.912 122.129 161.906 122.153C161.899 122.178 161.903 122.205 161.917 122.227C161.926 122.243 161.94 122.256 161.956 122.265C161.973 122.273 161.992 122.276 162.011 122.274V122.274Z" fill="#E0E0E0"/>
<path d="M160.993 121.674C161.009 121.678 161.025 121.678 161.04 121.674L167.346 117.989C167.368 117.976 167.383 117.955 167.39 117.93C167.396 117.905 167.392 117.879 167.379 117.857C167.373 117.845 167.365 117.836 167.355 117.828C167.345 117.82 167.334 117.814 167.321 117.811C167.309 117.808 167.297 117.807 167.284 117.808C167.272 117.81 167.26 117.814 167.249 117.821L160.944 121.497C160.925 121.507 160.91 121.523 160.901 121.543C160.893 121.563 160.891 121.585 160.897 121.606C160.903 121.626 160.916 121.644 160.933 121.657C160.951 121.669 160.972 121.675 160.993 121.674V121.674Z" fill="#E0E0E0"/>
<path d="M159.957 121.057C159.975 121.057 159.992 121.052 160.007 121.044L166.309 117.37C166.331 117.357 166.347 117.335 166.354 117.311C166.361 117.286 166.358 117.26 166.345 117.237C166.339 117.226 166.331 117.216 166.32 117.208C166.31 117.201 166.299 117.195 166.286 117.192C166.274 117.189 166.261 117.188 166.248 117.19C166.236 117.192 166.223 117.197 166.213 117.204L159.91 120.878C159.899 120.884 159.889 120.892 159.882 120.902C159.874 120.912 159.868 120.923 159.865 120.935C159.861 120.947 159.861 120.96 159.862 120.972C159.864 120.985 159.868 120.997 159.874 121.008C159.883 121.022 159.895 121.035 159.909 121.044C159.924 121.052 159.94 121.057 159.957 121.057V121.057Z" fill="#E0E0E0"/>
<path d="M158.923 120.422C158.94 120.421 158.956 120.416 158.97 120.408L165.275 116.734C165.297 116.721 165.313 116.699 165.319 116.675C165.326 116.65 165.322 116.623 165.308 116.601C165.303 116.59 165.294 116.581 165.284 116.573C165.274 116.565 165.263 116.559 165.251 116.556C165.239 116.553 165.226 116.553 165.213 116.555C165.201 116.557 165.189 116.561 165.179 116.568L158.873 120.242C158.863 120.248 158.853 120.257 158.846 120.266C158.838 120.276 158.833 120.288 158.83 120.3C158.826 120.312 158.826 120.325 158.828 120.337C158.829 120.349 158.834 120.361 158.84 120.372C158.848 120.387 158.86 120.399 158.875 120.408C158.89 120.417 158.906 120.421 158.923 120.422Z" fill="#E0E0E0"/>
<path d="M157.886 119.794C157.903 119.793 157.92 119.789 157.936 119.78L164.238 116.107C164.251 116.101 164.262 116.093 164.271 116.083C164.281 116.073 164.288 116.061 164.292 116.048C164.296 116.035 164.298 116.021 164.296 116.008C164.295 115.994 164.291 115.981 164.284 115.969C164.277 115.957 164.267 115.947 164.256 115.939C164.245 115.931 164.232 115.925 164.219 115.923C164.205 115.92 164.192 115.92 164.178 115.923C164.165 115.927 164.152 115.932 164.141 115.941L157.839 119.614C157.828 119.62 157.818 119.629 157.81 119.639C157.803 119.648 157.797 119.66 157.794 119.672C157.79 119.684 157.789 119.697 157.791 119.709C157.793 119.721 157.797 119.733 157.803 119.744C157.811 119.759 157.824 119.771 157.838 119.78C157.853 119.789 157.869 119.794 157.886 119.794V119.794Z" fill="#E0E0E0"/>
<path d="M156.853 119.167C156.869 119.166 156.886 119.162 156.9 119.153L163.205 115.479C163.227 115.466 163.243 115.445 163.249 115.42C163.255 115.395 163.251 115.368 163.238 115.346C163.232 115.336 163.224 115.326 163.214 115.319C163.204 115.311 163.192 115.306 163.18 115.303C163.168 115.3 163.155 115.299 163.143 115.301C163.131 115.303 163.119 115.307 163.108 115.313L156.803 118.987C156.792 118.993 156.783 119.002 156.775 119.012C156.768 119.022 156.762 119.033 156.759 119.045C156.756 119.057 156.755 119.07 156.757 119.082C156.759 119.094 156.763 119.106 156.77 119.117C156.778 119.132 156.79 119.145 156.804 119.154C156.819 119.162 156.836 119.167 156.853 119.167V119.167Z" fill="#E0E0E0"/>
<path d="M155.816 118.539C155.833 118.538 155.85 118.534 155.865 118.525L162.168 114.852C162.18 114.846 162.192 114.838 162.201 114.828C162.21 114.818 162.217 114.806 162.222 114.793C162.226 114.78 162.227 114.766 162.226 114.753C162.225 114.739 162.22 114.726 162.213 114.714C162.206 114.702 162.197 114.692 162.186 114.684C162.175 114.676 162.162 114.67 162.149 114.668C162.135 114.665 162.121 114.665 162.108 114.668C162.095 114.672 162.082 114.677 162.071 114.686L155.769 118.359C155.758 118.366 155.748 118.374 155.74 118.384C155.732 118.394 155.726 118.406 155.723 118.418C155.72 118.431 155.719 118.444 155.72 118.456C155.722 118.469 155.726 118.481 155.733 118.492C155.741 118.506 155.753 118.518 155.768 118.527C155.783 118.535 155.799 118.539 155.816 118.539Z" fill="#E0E0E0"/>
<path d="M154.782 117.912C154.798 117.911 154.814 117.907 154.829 117.898L161.134 114.224C161.156 114.211 161.172 114.19 161.178 114.165C161.184 114.14 161.18 114.114 161.167 114.092C161.161 114.081 161.152 114.071 161.142 114.064C161.132 114.056 161.121 114.051 161.109 114.048C161.097 114.045 161.084 114.044 161.072 114.046C161.06 114.048 161.048 114.052 161.037 114.058L154.732 117.74C154.71 117.754 154.694 117.775 154.688 117.8C154.681 117.825 154.685 117.851 154.699 117.873C154.708 117.886 154.721 117.896 154.735 117.903C154.75 117.91 154.766 117.913 154.782 117.912V117.912Z" fill="#E0E0E0"/>
<path d="M171.616 119.106L163.379 123.907V131.288L171.616 126.738V119.106Z" fill="#FAFAFA"/>
<path d="M163.379 123.907L152.524 117.691V124.985L163.379 131.288V123.907Z" fill="#E6E6E6"/>
<path d="M165.15 124.629L163.379 125.663L159.545 123.468L163.379 126.224L165.15 124.629Z" fill="#E0E0E0"/>
<path d="M165.15 127.197L163.379 128.231L161.211 126.992L163.379 128.792L165.15 127.197Z" fill="#E0E0E0"/>
<path d="M162.348 126.008L160.993 126.412L159.957 124.844L162.348 126.008Z" fill="#E0E0E0"/>
<path d="M162.348 126.008L158.259 123.681L160.302 126.008H162.348Z" fill="white"/>
<path d="M156.228 121.005L155.268 121.293L154.536 120.181L156.228 121.005Z" fill="#E0E0E0"/>
<path d="M156.228 121.005L153.333 119.357L154.782 121.005H156.228Z" fill="white"/>
<path d="M158.298 126.492L157.339 126.779L156.606 125.668L158.298 126.492Z" fill="#E0E0E0"/>
<path d="M158.298 126.492L155.404 124.844L156.852 126.492H158.298Z" fill="white"/>
<path d="M146.605 140.899L156.081 135.371C156.102 135.358 156.12 135.34 156.132 135.319C156.144 135.298 156.15 135.274 156.15 135.249C156.15 135.224 156.144 135.2 156.132 135.179C156.12 135.158 156.102 135.14 156.081 135.127L145.577 128.654L146.605 140.899Z" fill="#FFAA36"/>
<path opacity="0.4" d="M146.605 140.899L156.081 135.371C156.102 135.358 156.12 135.34 156.132 135.319C156.144 135.298 156.15 135.274 156.15 135.249C156.15 135.224 156.144 135.2 156.132 135.179C156.12 135.158 156.102 135.14 156.081 135.127L145.577 128.654L146.605 140.899Z" fill="black"/>
<path d="M146.604 140.899L136.04 134.782V132.001L146.604 138.093V140.899Z" fill="#FFAA36"/>
<path opacity="0.2" d="M146.604 140.899L136.04 134.782V132.001L146.604 138.093V140.899Z" fill="black"/>
<path d="M138.102 135.21L142.273 137.621C142.55 137.781 142.776 137.621 142.776 137.239C142.774 137.051 142.727 136.866 142.64 136.699C142.552 136.533 142.427 136.389 142.273 136.28L138.102 133.872C137.826 133.712 137.599 133.872 137.599 134.251C137.602 134.439 137.649 134.624 137.737 134.79C137.824 134.957 137.949 135.101 138.102 135.21Z" fill="#E6E6E6"/>
<path d="M143.391 137.593C143.402 137.795 143.46 137.991 143.561 138.165C143.662 138.34 143.802 138.489 143.971 138.599C144.289 138.784 144.549 138.632 144.549 138.265C144.538 138.064 144.48 137.868 144.38 137.693C144.279 137.518 144.139 137.369 143.971 137.259C143.65 137.073 143.391 137.223 143.391 137.593Z" fill="#E6E6E6"/>
<path d="M146.606 138.093L156.045 133.657C156.068 133.645 156.087 133.627 156.1 133.605C156.113 133.583 156.12 133.558 156.12 133.532C156.12 133.507 156.113 133.482 156.1 133.46C156.087 133.438 156.068 133.42 156.045 133.408L145.923 127.388C145.866 127.353 145.801 127.333 145.734 127.331C145.668 127.328 145.601 127.342 145.541 127.371L136.027 132.001L146.606 138.093Z" fill="#FFAA36"/>
<path d="M155.438 133.944V135.136L147.617 139.558V137.618L155.438 133.944Z" fill="#F5F5F5"/>
<path d="M147.616 139.558L146.605 138.928V138.093L147.616 137.618V139.558Z" fill="#E0E0E0"/>
<path d="M156.125 132.507V129.425H138.898C138.837 129.425 136.988 130.387 136.17 130.807C136.133 130.828 136.103 130.858 136.081 130.894C136.06 130.931 136.049 130.972 136.049 131.014C136.049 131.056 136.06 131.098 136.081 131.134C136.103 131.171 136.133 131.201 136.17 131.222L146.378 136.993C146.45 137.034 146.53 137.057 146.613 137.059C146.695 137.062 146.777 137.044 146.851 137.007L156.125 132.507Z" fill="#FFAA36"/>
<path opacity="0.4" d="M156.125 132.507V129.425H138.898C138.837 129.425 136.988 130.387 136.17 130.807C136.133 130.828 136.103 130.858 136.081 130.894C136.06 130.931 136.049 130.972 136.049 131.014C136.049 131.056 136.06 131.098 136.081 131.134C136.103 131.171 136.133 131.201 136.17 131.222L146.378 136.993C146.45 137.034 146.53 137.057 146.613 137.059C146.695 137.062 146.777 137.044 146.851 137.007L156.125 132.507Z" fill="black"/>
<path d="M146.604 136.274L136.83 130.776V129.582L146.604 134.782V136.274Z" fill="#E0E0E0"/>
<path d="M156.125 132.507L153.568 131.011L156.125 129.425V132.507Z" fill="#FFAA36"/>
<path opacity="0.6" d="M156.125 132.507L153.568 131.011L156.125 129.425V132.507Z" fill="black"/>
<path d="M154.511 130.425V132.128L146.605 136.275V134.782L154.511 130.425Z" fill="#F5F5F5"/>
<path d="M156.125 129.425L146.934 134.901C146.834 134.961 146.72 134.995 146.603 134.998C146.487 135.002 146.371 134.975 146.268 134.92L136.134 129.627C136.099 129.606 136.07 129.576 136.05 129.541C136.03 129.505 136.019 129.465 136.019 129.425C136.019 129.384 136.03 129.344 136.05 129.309C136.07 129.273 136.099 129.244 136.134 129.223L145.38 123.214L156.125 129.425Z" fill="#FFAA36"/>
<path d="M146.605 133.944L156.081 128.416C156.102 128.403 156.12 128.386 156.132 128.364C156.144 128.343 156.15 128.319 156.15 128.294C156.15 128.27 156.144 128.245 156.132 128.224C156.12 128.203 156.102 128.185 156.081 128.173L145.577 121.699L146.605 133.944Z" fill="#FFAA36"/>
<path opacity="0.4" d="M146.605 133.944L156.081 128.416C156.102 128.403 156.12 128.386 156.132 128.364C156.144 128.343 156.15 128.319 156.15 128.294C156.15 128.27 156.144 128.245 156.132 128.224C156.12 128.203 156.102 128.185 156.081 128.173L145.577 121.699L146.605 133.944Z" fill="black"/>
<path d="M146.604 133.944L136.04 127.827V125.046L146.604 131.139V133.944Z" fill="#FFAA36"/>
<path opacity="0.2" d="M146.604 133.944L136.04 127.827V125.046L146.604 131.139V133.944Z" fill="black"/>
<path d="M138.102 128.244L142.273 130.652C142.55 130.812 142.776 130.652 142.776 130.273C142.774 130.085 142.727 129.9 142.64 129.734C142.552 129.567 142.427 129.423 142.273 129.314L138.102 126.904C137.826 126.743 137.599 126.904 137.599 127.285C137.602 127.473 137.649 127.658 137.737 127.824C137.824 127.991 137.949 128.135 138.102 128.244V128.244Z" fill="#E6E6E6"/>
<path d="M143.391 130.638C143.401 130.839 143.459 131.035 143.56 131.21C143.661 131.384 143.802 131.532 143.971 131.642C144.289 131.827 144.549 131.678 144.549 131.307C144.538 131.106 144.48 130.911 144.38 130.737C144.279 130.562 144.139 130.414 143.971 130.304C143.65 130.119 143.391 130.268 143.391 130.638Z" fill="#E6E6E6"/>
<path d="M146.605 131.139L156.045 126.702C156.067 126.69 156.086 126.671 156.099 126.649C156.112 126.627 156.119 126.602 156.119 126.576C156.119 126.551 156.112 126.525 156.099 126.503C156.086 126.481 156.067 126.463 156.045 126.451L145.922 120.43C145.865 120.396 145.8 120.377 145.733 120.374C145.667 120.372 145.601 120.386 145.541 120.416L136.026 125.046L146.605 131.139Z" fill="#FFAA36"/>
<path d="M155.438 126.987V128.181L147.617 132.604V130.663L155.438 126.987Z" fill="#F5F5F5"/>
<path d="M147.616 132.604L146.605 131.971V131.139L147.616 130.663V132.604Z" fill="#E0E0E0"/>
<path d="M156.111 125.35V122.265H138.885C138.827 122.265 136.977 123.23 136.159 123.647C136.122 123.668 136.091 123.698 136.07 123.734C136.049 123.77 136.037 123.811 136.037 123.853C136.037 123.896 136.049 123.937 136.07 123.973C136.091 124.009 136.122 124.039 136.159 124.059L146.37 129.834C146.443 129.871 146.523 129.891 146.605 129.891C146.687 129.891 146.767 129.871 146.84 129.834L156.111 125.35Z" fill="#FFAA36"/>
<path opacity="0.4" d="M156.111 125.35V122.265H138.885C138.827 122.265 136.977 123.23 136.159 123.647C136.122 123.668 136.091 123.698 136.07 123.734C136.049 123.77 136.037 123.811 136.037 123.853C136.037 123.896 136.049 123.937 136.07 123.973C136.091 124.009 136.122 124.039 136.159 124.059L146.37 129.834C146.443 129.871 146.523 129.891 146.605 129.891C146.687 129.891 146.767 129.871 146.84 129.834L156.111 125.35Z" fill="black"/>
<path d="M146.595 129.115L136.818 123.617V122.423L146.595 127.625V129.115Z" fill="#E0E0E0"/>
<path d="M156.111 125.35L153.557 123.855L156.111 122.265V125.35Z" fill="#FFAA36"/>
<path opacity="0.6" d="M156.111 125.35L153.557 123.855L156.111 122.265V125.35Z" fill="black"/>
<path d="M154.501 123.269V124.972L146.595 129.115V127.625L154.501 123.269Z" fill="#F5F5F5"/>
<path d="M156.111 122.265L146.92 127.744C146.82 127.804 146.706 127.837 146.59 127.841C146.473 127.844 146.357 127.818 146.254 127.763L136.12 122.456C136.085 122.436 136.055 122.408 136.033 122.373C136.012 122.338 136 122.299 135.999 122.258C135.997 122.217 136.007 122.177 136.025 122.141C136.044 122.105 136.072 122.074 136.107 122.052L145.356 116.04L156.111 122.265Z" fill="#FFAA36"/>
<path d="M146.594 126.785L156.067 121.256C156.088 121.244 156.106 121.226 156.118 121.205C156.13 121.184 156.137 121.159 156.137 121.135C156.137 121.11 156.13 121.086 156.118 121.065C156.106 121.043 156.088 121.026 156.067 121.013L145.563 114.542L146.594 126.785Z" fill="#FFAA36"/>
<path opacity="0.4" d="M146.594 126.785L156.067 121.256C156.088 121.244 156.106 121.226 156.118 121.205C156.13 121.184 156.137 121.159 156.137 121.135C156.137 121.11 156.13 121.086 156.118 121.065C156.106 121.043 156.088 121.026 156.067 121.013L145.563 114.542L146.594 126.785Z" fill="black"/>
<path d="M146.595 126.785L136.03 120.668V117.89L146.595 123.979V126.785Z" fill="#FFAA36"/>
<path opacity="0.2" d="M146.595 126.785L136.03 120.668V117.89L146.595 123.979V126.785Z" fill="black"/>
<path d="M138.089 121.099L142.263 123.506C142.54 123.667 142.764 123.506 142.764 123.128C142.761 122.939 142.714 122.754 142.628 122.587C142.541 122.42 142.416 122.276 142.263 122.166L138.089 119.758C137.813 119.598 137.589 119.758 137.589 120.137C137.592 120.325 137.638 120.51 137.725 120.677C137.812 120.844 137.937 120.989 138.089 121.099V121.099Z" fill="#E6E6E6"/>
<path d="M143.377 123.482C143.388 123.683 143.447 123.878 143.548 124.053C143.648 124.227 143.789 124.375 143.958 124.485C144.278 124.67 144.538 124.521 144.538 124.151C144.527 123.949 144.469 123.753 144.368 123.578C144.267 123.403 144.127 123.255 143.958 123.144C143.637 122.962 143.377 123.111 143.377 123.482Z" fill="#E6E6E6"/>
<path d="M146.594 123.979L156.031 119.556C156.054 119.544 156.073 119.526 156.086 119.504C156.099 119.482 156.105 119.456 156.105 119.431C156.105 119.405 156.099 119.38 156.086 119.358C156.073 119.336 156.054 119.317 156.031 119.305L145.909 113.284C145.851 113.251 145.787 113.231 145.72 113.228C145.654 113.226 145.587 113.239 145.527 113.268L136.027 117.89L146.594 123.979Z" fill="#FFAA36"/>
<path d="M155.423 119.83V121.022L147.603 125.447V123.504L155.423 119.83Z" fill="#F5F5F5"/>
<path d="M147.604 125.447L146.595 124.814V123.979L147.604 123.504V125.447Z" fill="#E0E0E0"/>
<path d="M146.856 115.968L136.001 109.752L144.623 105L155.097 111.167L146.856 115.968Z" fill="#FAFAFA"/>
<path d="M146.484 114.929C146.5 114.933 146.516 114.933 146.531 114.929L152.834 111.244C152.845 111.238 152.855 111.23 152.863 111.22C152.87 111.209 152.876 111.198 152.879 111.186C152.883 111.173 152.884 111.16 152.882 111.148C152.88 111.135 152.876 111.123 152.87 111.112C152.863 111.101 152.855 111.091 152.845 111.084C152.835 111.076 152.824 111.071 152.812 111.068C152.8 111.065 152.787 111.064 152.775 111.066C152.762 111.068 152.751 111.072 152.74 111.079L146.435 114.752C146.424 114.758 146.414 114.766 146.406 114.776C146.398 114.786 146.393 114.797 146.389 114.81C146.386 114.822 146.385 114.834 146.387 114.847C146.388 114.859 146.392 114.871 146.399 114.882C146.408 114.896 146.421 114.908 146.436 114.917C146.451 114.925 146.467 114.929 146.484 114.929V114.929Z" fill="#E0E0E0"/>
<path d="M145.447 114.302C145.463 114.306 145.479 114.306 145.494 114.302L151.8 110.628C151.822 110.615 151.838 110.594 151.844 110.569C151.851 110.544 151.848 110.518 151.836 110.495C151.829 110.484 151.821 110.474 151.811 110.467C151.8 110.459 151.789 110.453 151.776 110.45C151.764 110.447 151.751 110.446 151.738 110.449C151.726 110.451 151.714 110.455 151.703 110.462L145.4 114.136C145.382 114.146 145.367 114.162 145.358 114.181C145.35 114.201 145.348 114.222 145.354 114.243C145.359 114.263 145.371 114.281 145.388 114.294C145.405 114.307 145.426 114.313 145.447 114.313V114.302Z" fill="#E0E0E0"/>
<path d="M144.441 113.705C144.456 113.709 144.472 113.709 144.488 113.705L150.793 110.031C150.815 110.018 150.831 109.996 150.837 109.971C150.843 109.947 150.839 109.92 150.826 109.898C150.82 109.887 150.811 109.878 150.801 109.87C150.792 109.863 150.78 109.857 150.768 109.854C150.756 109.851 150.743 109.851 150.731 109.852C150.719 109.854 150.707 109.859 150.696 109.865L144.391 113.539C144.369 113.552 144.353 113.573 144.347 113.598C144.341 113.623 144.345 113.649 144.358 113.671C144.368 113.683 144.381 113.693 144.395 113.698C144.41 113.704 144.425 113.706 144.441 113.705V113.705Z" fill="#E0E0E0"/>
<path d="M143.405 113.077C143.422 113.076 143.439 113.072 143.454 113.063L149.757 109.39C149.768 109.384 149.778 109.375 149.785 109.366C149.793 109.356 149.799 109.344 149.802 109.332C149.806 109.32 149.807 109.307 149.805 109.295C149.803 109.283 149.799 109.271 149.793 109.26C149.786 109.249 149.778 109.239 149.768 109.231C149.758 109.223 149.746 109.217 149.734 109.214C149.722 109.211 149.709 109.21 149.696 109.212C149.683 109.213 149.671 109.217 149.66 109.224L143.358 112.897C143.336 112.911 143.32 112.932 143.313 112.957C143.306 112.981 143.309 113.008 143.322 113.03C143.33 113.044 143.343 113.056 143.357 113.064C143.372 113.072 143.388 113.077 143.405 113.077V113.077Z" fill="#E0E0E0"/>
<path d="M142.371 112.45C142.387 112.451 142.404 112.446 142.418 112.436L148.723 108.762C148.734 108.756 148.743 108.747 148.751 108.738C148.758 108.728 148.764 108.716 148.767 108.704C148.77 108.692 148.77 108.679 148.769 108.667C148.767 108.655 148.762 108.643 148.756 108.632C148.75 108.621 148.742 108.611 148.732 108.604C148.722 108.596 148.711 108.59 148.699 108.587C148.686 108.583 148.674 108.583 148.661 108.584C148.649 108.586 148.637 108.59 148.626 108.596L142.321 112.27C142.299 112.283 142.283 112.305 142.277 112.329C142.271 112.354 142.274 112.381 142.288 112.403C142.296 112.417 142.308 112.429 142.323 112.437C142.337 112.446 142.354 112.45 142.371 112.45V112.45Z" fill="#E0E0E0"/>
<path d="M141.336 111.822C141.351 111.827 141.368 111.827 141.383 111.822L147.686 108.148C147.697 108.142 147.706 108.134 147.714 108.124C147.722 108.114 147.728 108.103 147.731 108.091C147.734 108.079 147.735 108.066 147.734 108.054C147.732 108.041 147.728 108.029 147.721 108.018C147.708 107.997 147.687 107.981 147.662 107.974C147.638 107.967 147.611 107.97 147.589 107.983L141.278 111.642C141.256 111.656 141.24 111.677 141.234 111.702C141.227 111.726 141.23 111.753 141.242 111.775C141.252 111.791 141.266 111.803 141.283 111.812C141.299 111.82 141.318 111.823 141.336 111.822Z" fill="#E0E0E0"/>
<path d="M140.301 111.195C140.318 111.196 140.335 111.191 140.348 111.181L146.653 107.513C146.664 107.507 146.674 107.498 146.682 107.489C146.69 107.479 146.695 107.467 146.699 107.455C146.702 107.443 146.703 107.431 146.701 107.418C146.7 107.406 146.696 107.394 146.689 107.383C146.676 107.361 146.655 107.345 146.63 107.338C146.605 107.331 146.579 107.335 146.557 107.347L140.254 111.02C140.243 111.027 140.233 111.035 140.225 111.045C140.218 111.055 140.212 111.067 140.208 111.079C140.205 111.092 140.204 111.105 140.206 111.117C140.208 111.13 140.212 111.142 140.218 111.153C140.227 111.167 140.24 111.178 140.254 111.185C140.269 111.192 140.285 111.195 140.301 111.195V111.195Z" fill="#E0E0E0"/>
<path d="M139.263 110.567C139.279 110.571 139.296 110.571 139.313 110.567L145.615 106.891C145.626 106.885 145.636 106.876 145.644 106.867C145.652 106.857 145.657 106.845 145.661 106.833C145.664 106.821 145.665 106.809 145.663 106.796C145.662 106.784 145.658 106.772 145.651 106.761C145.638 106.739 145.617 106.723 145.592 106.716C145.567 106.709 145.541 106.713 145.518 106.725L139.216 110.398C139.194 110.412 139.178 110.433 139.171 110.458C139.165 110.482 139.168 110.509 139.18 110.531C139.19 110.543 139.203 110.553 139.217 110.559C139.232 110.565 139.247 110.568 139.263 110.567V110.567Z" fill="#E0E0E0"/>
<path d="M138.239 109.94C138.255 109.944 138.272 109.944 138.288 109.94L144.591 106.266C144.602 106.26 144.612 106.251 144.619 106.241C144.627 106.231 144.633 106.219 144.636 106.207C144.64 106.195 144.64 106.182 144.639 106.169C144.637 106.157 144.633 106.144 144.627 106.133C144.62 106.122 144.612 106.113 144.602 106.105C144.592 106.097 144.58 106.091 144.568 106.088C144.556 106.085 144.543 106.084 144.53 106.085C144.517 106.087 144.505 106.091 144.494 106.097L138.192 109.771C138.181 109.777 138.171 109.786 138.163 109.796C138.155 109.806 138.149 109.818 138.146 109.83C138.143 109.842 138.142 109.855 138.143 109.868C138.145 109.881 138.149 109.893 138.156 109.904C138.165 109.916 138.178 109.926 138.193 109.932C138.207 109.939 138.223 109.941 138.239 109.94V109.94Z" fill="#E0E0E0"/>
<path d="M155.066 111.134L146.826 115.938V123.319L155.066 118.769V111.134Z" fill="#F0F0F0"/>
<path d="M146.826 115.938L135.971 109.718V117.016L146.826 123.318V115.938Z" fill="#E6E6E6"/>
<path d="M148.599 116.659L146.827 117.691L142.993 115.496L146.827 118.252L148.599 116.659Z" fill="#E0E0E0"/>
<path d="M148.599 119.228L146.827 120.261L144.662 119.02L146.827 120.823L148.599 119.228Z" fill="#E0E0E0"/>
<path d="M145.796 118.039L144.441 118.442L143.405 116.875L145.796 118.039Z" fill="#E0E0E0"/>
<path d="M145.796 118.039L141.708 115.709L143.753 118.039H145.796Z" fill="white"/>
<path d="M139.679 113.036L138.72 113.32L137.987 112.212L139.679 113.036Z" fill="#E0E0E0"/>
<path d="M139.679 113.036L136.785 111.385L138.23 113.036H139.679Z" fill="white"/>
<path d="M141.746 118.523L140.787 118.807L140.054 117.699L141.746 118.523Z" fill="#E0E0E0"/>
<path d="M141.746 118.523L138.852 116.875L140.3 118.523H141.746Z" fill="white"/>
<path d="M152.108 118.752L152.811 118.962L153.35 118.147L152.108 118.752Z" fill="#E0E0E0"/>
<path d="M152.109 118.752L154.231 117.541L153.17 118.752H152.109Z" fill="white"/>
<path d="M149.345 115.855L150.305 116.14L151.037 115.031L149.345 115.855Z" fill="#E0E0E0"/>
<path d="M149.344 115.855L152.238 114.208L150.79 115.855H149.344Z" fill="white"/>
<path d="M214.079 96C213.311 96 212.591 95.92 211.919 95.76C211.263 95.584 210.687 95.32 210.191 94.968C209.711 94.6 209.327 94.136 209.039 93.576C208.767 93 208.631 92.312 208.631 91.512C208.631 90.984 208.695 90.376 208.823 89.688C208.951 89 209.159 88.32 209.447 87.648L212.375 88.536C212.183 89.144 212.055 89.624 211.991 89.976C211.927 90.312 211.895 90.608 211.895 90.864C211.895 91.68 212.159 92.296 212.687 92.712C213.231 93.112 214.007 93.312 215.015 93.312H222.359C222.871 93.312 223.295 93.272 223.631 93.192C223.967 93.112 224.239 92.968 224.447 92.76C224.655 92.536 224.799 92.24 224.879 91.872C224.959 91.488 224.999 91.008 224.999 90.432V85.272H228.287V91.104C228.287 91.76 228.527 92.296 229.007 92.712C229.503 93.112 230.159 93.312 230.975 93.312C231.215 93.312 231.391 93.416 231.503 93.624C231.615 93.832 231.671 94.168 231.671 94.632C231.671 95.192 231.655 95.56 231.623 95.736C231.591 95.912 231.519 96 231.407 96C231.103 96 230.775 95.976 230.423 95.928C230.087 95.88 229.743 95.8 229.391 95.688C229.039 95.56 228.719 95.408 228.431 95.232C228.143 95.04 227.879 94.792 227.639 94.488C227.319 94.968 226.863 95.344 226.271 95.616C225.695 95.872 224.935 96 223.991 96H214.079ZM216.791 99.648C216.791 99.152 216.951 98.744 217.271 98.424C217.591 98.104 218.007 97.944 218.519 97.944C219.015 97.944 219.415 98.104 219.719 98.424C220.039 98.744 220.199 99.152 220.199 99.648C220.199 100.16 220.039 100.576 219.719 100.896C219.415 101.216 219.015 101.376 218.519 101.376C218.007 101.376 217.591 101.216 217.271 100.896C216.951 100.576 216.791 100.16 216.791 99.648ZM230.693 93.312C231.189 93.312 231.597 93.272 231.917 93.192C232.253 93.096 232.509 92.96 232.685 92.784C232.861 92.592 232.981 92.36 233.045 92.088C233.109 91.816 233.141 91.488 233.141 91.104V78.36H236.405V91.68C236.405 92.416 236.317 93.056 236.141 93.6C235.965 94.128 235.669 94.576 235.253 94.944C234.853 95.296 234.317 95.56 233.645 95.736C232.973 95.912 232.133 96 231.125 96C230.725 96 230.421 95.896 230.213 95.688C229.989 95.464 229.877 95.144 229.877 94.728C229.877 94.264 229.949 93.912 230.093 93.672C230.237 93.432 230.437 93.312 230.693 93.312ZM245.189 94.68C245.189 95.144 245.173 95.48 245.141 95.688C245.125 95.896 245.093 96 245.045 96C244.309 96 243.597 95.952 242.909 95.856C242.221 95.744 241.597 95.552 241.037 95.28C240.493 94.992 240.069 94.608 239.765 94.128C239.461 93.632 239.309 93.032 239.309 92.328V78.36H242.597V91.272C242.597 91.656 242.645 91.992 242.741 92.28C242.853 92.552 243.005 92.768 243.197 92.928C243.405 93.072 243.629 93.176 243.869 93.24C244.109 93.288 244.357 93.312 244.613 93.312C244.821 93.312 244.965 93.424 245.045 93.648C245.141 93.872 245.189 94.216 245.189 94.68ZM244.768 96C244.368 96 244.064 95.896 243.856 95.688C243.632 95.464 243.52 95.144 243.52 94.728C243.52 94.296 243.592 93.952 243.736 93.696C243.864 93.44 244.064 93.312 244.336 93.312H246.472V78.36H249.76V86.88C251.04 86.208 252.224 85.744 253.312 85.488C254.416 85.216 255.432 85.08 256.36 85.08C257.464 85.08 258.424 85.216 259.24 85.488C260.056 85.744 260.728 86.112 261.256 86.592C261.784 87.072 262.176 87.656 262.432 88.344C262.688 89.016 262.816 89.76 262.816 90.576V91.272C262.816 91.928 263.024 92.432 263.44 92.784C263.856 93.136 264.416 93.312 265.12 93.312C265.36 93.312 265.512 93.416 265.576 93.624C265.656 93.832 265.696 94.168 265.696 94.632C265.696 95.192 265.68 95.56 265.648 95.736C265.632 95.912 265.592 96 265.528 96C264.728 96 264.04 95.864 263.464 95.592C262.888 95.304 262.432 94.904 262.096 94.392C261.376 95.464 260.064 96 258.16 96H244.768ZM255.688 87.816C254.68 87.816 253.68 87.984 252.688 88.32C251.712 88.64 250.736 89.096 249.76 89.688V93.312H257.368C257.816 93.312 258.176 93.256 258.448 93.144C258.736 93.016 258.952 92.856 259.096 92.664C259.256 92.456 259.368 92.216 259.432 91.944C259.496 91.656 259.528 91.344 259.528 91.008C259.528 90 259.192 89.216 258.52 88.656C257.848 88.096 256.904 87.816 255.688 87.816ZM264.845 93.312C265.341 93.312 265.749 93.272 266.069 93.192C266.405 93.096 266.661 92.96 266.837 92.784C267.013 92.592 267.133 92.36 267.197 92.088C267.261 91.816 267.293 91.488 267.293 91.104V78.36H270.557V91.68C270.557 92.416 270.469 93.056 270.293 93.6C270.117 94.128 269.821 94.576 269.405 94.944C269.005 95.296 268.469 95.56 267.797 95.736C267.125 95.912 266.285 96 265.277 96C264.877 96 264.573 95.896 264.365 95.688C264.141 95.464 264.029 95.144 264.029 94.728C264.029 94.264 264.101 93.912 264.245 93.672C264.389 93.432 264.589 93.312 264.845 93.312ZM276.749 78.36V96H273.461V78.36H276.749ZM298.014 89.952C298.014 90.192 298.054 90.448 298.134 90.72C298.214 90.976 298.342 91.232 298.518 91.488C298.71 91.744 298.942 91.992 299.214 92.232C299.502 92.456 299.854 92.648 300.27 92.808C301.07 92.472 301.638 92.048 301.974 91.536C302.31 91.024 302.478 90.472 302.478 89.88C302.478 89.64 302.438 89.392 302.358 89.136C302.278 88.864 302.142 88.616 301.95 88.392C301.774 88.168 301.542 87.992 301.254 87.864C300.966 87.72 300.622 87.648 300.222 87.648C299.55 87.648 299.014 87.872 298.614 88.32C298.214 88.768 298.014 89.312 298.014 89.952ZM294.966 93.312C295.19 93.312 295.406 93.312 295.614 93.312C295.822 93.296 296.03 93.272 296.238 93.24C295.678 92.68 295.27 92.128 295.014 91.584C294.774 91.024 294.654 90.448 294.654 89.856C294.654 89.072 294.806 88.384 295.11 87.792C295.43 87.184 295.854 86.68 296.382 86.28C296.91 85.88 297.51 85.584 298.182 85.392C298.854 85.184 299.558 85.08 300.294 85.08C301.046 85.08 301.75 85.184 302.406 85.392C303.078 85.584 303.67 85.888 304.182 86.304C304.694 86.704 305.094 87.208 305.382 87.816C305.686 88.424 305.838 89.136 305.838 89.952C305.838 90.64 305.694 91.264 305.406 91.824C305.118 92.384 304.75 92.864 304.302 93.264C304.51 93.28 304.686 93.296 304.83 93.312C304.974 93.312 305.158 93.312 305.382 93.312H306.726C306.95 93.312 307.118 93.416 307.23 93.624C307.358 93.816 307.422 94.168 307.422 94.68C307.422 95.256 307.406 95.624 307.374 95.784C307.342 95.928 307.27 96 307.158 96H304.566C303.75 96 302.966 95.96 302.214 95.88C301.478 95.784 300.83 95.672 300.27 95.544C299.71 95.672 299.054 95.784 298.302 95.88C297.55 95.96 296.782 96 295.998 96H290.142C289.374 96 288.654 95.92 287.982 95.76C287.326 95.584 286.75 95.32 286.254 94.968C285.774 94.6 285.39 94.136 285.102 93.576C284.83 93 284.694 92.312 284.694 91.512C284.694 90.984 284.758 90.376 284.886 89.688C285.014 89 285.222 88.32 285.51 87.648L288.438 88.536C288.246 89.144 288.118 89.624 288.054 89.976C287.99 90.312 287.958 90.608 287.958 90.864C287.958 91.664 288.222 92.272 288.75 92.688C289.278 93.104 290.054 93.312 291.078 93.312H294.966ZM298.542 81.216C298.542 80.72 298.702 80.312 299.022 79.992C299.358 79.672 299.774 79.512 300.27 79.512C300.766 79.512 301.166 79.672 301.47 79.992C301.79 80.312 301.95 80.72 301.95 81.216C301.95 81.728 301.79 82.144 301.47 82.464C301.166 82.784 300.766 82.944 300.27 82.944C299.758 82.944 299.342 82.784 299.022 82.464C298.702 82.128 298.542 81.712 298.542 81.216ZM306.452 93.312C306.948 93.312 307.356 93.272 307.676 93.192C308.012 93.096 308.268 92.96 308.444 92.784C308.62 92.592 308.74 92.36 308.804 92.088C308.868 91.816 308.9 91.488 308.9 91.104V78.36H312.164V91.008C312.164 91.696 312.404 92.256 312.884 92.688C313.364 93.104 314.02 93.312 314.852 93.312C315.092 93.312 315.268 93.416 315.38 93.624C315.492 93.832 315.548 94.168 315.548 94.632C315.548 95.192 315.532 95.56 315.5 95.736C315.468 95.912 315.396 96 315.284 96C314.98 96 314.636 95.976 314.252 95.928C313.884 95.864 313.532 95.776 313.196 95.664C312.86 95.536 312.54 95.376 312.236 95.184C311.932 94.976 311.676 94.728 311.468 94.44C311.1 94.968 310.548 95.36 309.812 95.616C309.076 95.872 308.1 96 306.884 96C306.484 96 306.18 95.896 305.972 95.688C305.748 95.464 305.636 95.144 305.636 94.728C305.636 94.296 305.708 93.952 305.852 93.696C305.98 93.44 306.18 93.312 306.452 93.312ZM314.995 96C314.579 96 314.266 95.896 314.058 95.688C313.85 95.464 313.746 95.144 313.746 94.728C313.746 94.264 313.818 93.912 313.962 93.672C314.106 93.432 314.306 93.312 314.562 93.312H315.187C315.491 93.312 315.731 93.256 315.907 93.144C316.099 93.032 316.243 92.88 316.339 92.688C316.451 92.496 316.531 92.272 316.579 92.016C316.643 91.744 316.699 91.424 316.747 91.056C316.811 90.176 316.979 89.368 317.251 88.632C317.539 87.896 317.915 87.264 318.379 86.736C318.859 86.208 319.427 85.8 320.083 85.512C320.755 85.224 321.491 85.08 322.291 85.08C323.203 85.08 324.011 85.216 324.715 85.488C325.419 85.76 326.003 86.136 326.467 86.616C326.947 87.096 327.307 87.68 327.547 88.368C327.803 89.056 327.931 89.8 327.931 90.6C327.931 91.576 327.779 92.424 327.475 93.144C327.187 93.864 326.787 94.44 326.275 94.872C325.763 95.304 325.195 95.616 324.571 95.808C323.947 96 323.315 96.096 322.675 96.096C321.955 96.096 321.299 96.008 320.707 95.832C320.115 95.64 319.475 95.272 318.787 94.728C318.387 95.224 317.971 95.56 317.539 95.736C317.107 95.912 316.515 96 315.763 96H314.995ZM322.411 87.84C321.979 87.84 321.603 87.96 321.283 88.2C320.979 88.424 320.715 88.736 320.491 89.136C320.283 89.52 320.115 89.96 319.987 90.456C319.875 90.952 319.795 91.504 319.747 92.112C320.259 92.576 320.715 92.896 321.115 93.072C321.531 93.248 321.971 93.336 322.435 93.336C323.107 93.336 323.643 93.104 324.043 92.64C324.443 92.176 324.643 91.568 324.643 90.816C324.643 89.872 324.443 89.144 324.043 88.632C323.643 88.104 323.099 87.84 322.411 87.84Z" fill="white"/>
</svg>
