<svg width="131" height="75" viewBox="0 0 131 75" fill="none" xmlns="http://www.w3.org/2000/svg">
<path d="M1.37308 75H115.7C116.064 74.9985 116.413 74.8054 116.67 74.4626C116.927 74.1199 117.072 73.6554 117.073 73.1707C117.072 72.686 116.927 72.2216 116.67 71.8788C116.413 71.5361 116.064 71.3429 115.7 71.3415H1.37308C1.00926 71.3429 0.660667 71.5361 0.403412 71.8788C0.146156 72.2216 0.00115967 72.686 6.86646e-05 73.1707C0.00115967 73.6554 0.146156 74.1199 0.403412 74.4626C0.660667 74.8054 1.00926 74.9985 1.37308 75Z" fill="#FFAC00"/>
<path opacity="0.3" d="M2.21247 75H45.3476C45.934 74.9985 46.4958 74.8054 46.9105 74.4626C47.3251 74.1199 47.5588 73.6554 47.5605 73.1707C47.5588 72.686 47.3251 72.2216 46.9105 71.8788C46.4958 71.5361 45.934 71.3429 45.3476 71.3415H2.21247C1.62611 71.3429 1.06427 71.5361 0.649651 71.8788C0.235027 72.2216 0.0013237 72.686 -0.000427246 73.1707C0.0013237 73.6554 0.235027 74.1199 0.649651 74.4626C1.06427 74.8054 1.62611 74.9985 2.21247 75Z" fill="#263238"/>
<path d="M88.1231 64.6711C88.3719 64.6711 88.6105 64.7694 88.7871 64.9447C88.9636 65.12 89.0637 65.3579 89.0654 65.6067V69.6451C89.0654 69.895 88.9661 70.1347 88.7894 70.3114C88.6127 70.4881 88.373 70.5874 88.1231 70.5874H57.5994C57.5184 70.5874 57.4407 70.5557 57.3828 70.4991C57.3249 70.4425 57.2915 70.3654 57.2898 70.2845V64.9403C57.2915 64.8594 57.3249 64.7823 57.3828 64.7257C57.4407 64.6691 57.5184 64.6374 57.5994 64.6374L88.1231 64.6711Z" fill="#FFAC00"/>
<path opacity="0.9" d="M70.0583 65.2365H57.27V70.0556H70.0583C70.2029 70.0556 70.3416 69.9982 70.4438 69.896C70.5461 69.7937 70.6035 69.6551 70.6035 69.5105V65.7749C70.6017 65.6315 70.5435 65.4945 70.4415 65.3938C70.3394 65.293 70.2018 65.2364 70.0583 65.2365Z" fill="white"/>
<path d="M72.1579 64.6711H102.991C103.512 64.6711 103.934 65.093 103.934 65.6134V69.6855C103.934 70.2059 103.512 70.6278 102.991 70.6278H72.1579C71.6375 70.6278 71.2156 70.2059 71.2156 69.6855V65.6134C71.2156 65.093 71.6375 64.6711 72.1579 64.6711Z" fill="#FFAC00"/>
<path opacity="0.2" d="M72.1579 64.6711H102.991C103.512 64.6711 103.934 65.093 103.934 65.6134V69.6855C103.934 70.2059 103.512 70.6278 102.991 70.6278H72.1579C71.6375 70.6278 71.2156 70.2059 71.2156 69.6855V65.6134C71.2156 65.093 71.6375 64.6711 72.1579 64.6711Z" fill="black"/>
<path opacity="0.5" d="M87.3213 64.6711H91.9992C92.211 64.6711 92.3828 64.8429 92.3828 65.0547V70.2441C92.3828 70.456 92.211 70.6278 91.9992 70.6278H87.3213C87.1094 70.6278 86.9377 70.456 86.9377 70.2441V65.0547C86.9377 64.8429 87.1094 64.6711 87.3213 64.6711Z" fill="#FFAC00"/>
<path opacity="0.5" d="M80.5722 64.6711H85.2433C85.4552 64.6711 85.627 64.8429 85.627 65.0547V70.2441C85.627 70.456 85.4552 70.6278 85.2433 70.6278H80.5722C80.3603 70.6278 80.1885 70.456 80.1885 70.2441V65.0547C80.1885 64.8429 80.3603 64.6711 80.5722 64.6711Z" fill="#FFAC00"/>
<path d="M93.6417 57.3347C93.7654 57.3347 93.888 57.3591 94.0023 57.4064C94.1166 57.4538 94.2205 57.5232 94.308 57.6107C94.3955 57.6982 94.4649 57.8021 94.5123 57.9164C94.5596 58.0307 94.584 58.1532 94.584 58.277V63.7289C94.584 63.8526 94.5596 63.9751 94.5123 64.0895C94.4649 64.2038 94.3955 64.3077 94.308 64.3952C94.2205 64.4827 94.1166 64.5521 94.0023 64.5994C93.888 64.6468 93.7654 64.6712 93.6417 64.6712H60.5737C60.4928 64.6694 60.4158 64.636 60.3591 64.5781C60.3025 64.5203 60.2708 64.4425 60.2709 64.3615V57.6308C60.2708 57.5499 60.3025 57.4721 60.3591 57.4143C60.4158 57.3564 60.4928 57.323 60.5737 57.3212L93.6417 57.3347Z" fill="#FFAC00"/>
<path opacity="0.9" d="M75.5582 57.9068H60.2525V64.1058H75.5582C75.7028 64.1058 75.8414 64.0483 75.9437 63.9461C76.0459 63.8438 76.1033 63.7052 76.1033 63.5606V58.4654C76.1051 58.3927 76.0924 58.3204 76.0658 58.2527C76.0392 58.185 75.9993 58.1233 75.9485 58.0712C75.8977 58.0191 75.837 57.9778 75.77 57.9495C75.7029 57.9213 75.6309 57.9068 75.5582 57.9068Z" fill="white"/>
<path d="M77.6847 57.3347H103.611C104.132 57.3347 104.554 57.7566 104.554 58.277V63.7221C104.554 64.2425 104.132 64.6644 103.611 64.6644H77.6847C77.1643 64.6644 76.7424 64.2425 76.7424 63.7221V58.277C76.7424 57.7566 77.1643 57.3347 77.6847 57.3347Z" fill="#FFAC00"/>
<path opacity="0.2" d="M77.6847 57.3347H103.611C104.132 57.3347 104.554 57.7566 104.554 58.277V63.7221C104.554 64.2425 104.132 64.6644 103.611 64.6644H77.6847C77.1643 64.6644 76.7424 64.2425 76.7424 63.7221V58.277C76.7424 57.7566 77.1643 57.3347 77.6847 57.3347Z" fill="white"/>
<path opacity="0.6" d="M80.1134 58.7885H99.1007C99.4167 58.7885 99.6729 59.0446 99.6729 59.3606V62.6384C99.6729 62.9544 99.4167 63.2106 99.1007 63.2106H80.1134C79.7975 63.2106 79.5413 62.9544 79.5413 62.6384V59.3606C79.5413 59.0446 79.7975 58.7885 80.1134 58.7885Z" fill="#FFAC00"/>
<path d="M83.9454 53.828C84.4637 53.828 84.8877 54.077 84.8877 54.3799V56.7828C84.8877 57.0856 84.4637 57.3347 83.9454 57.3347H53.4149C53.2467 57.3347 53.112 57.2539 53.112 57.1597V54.0097C53.112 53.9087 53.2467 53.828 53.4149 53.828H83.9454Z" fill="#FFAC00"/>
<path opacity="0.9" d="M66.0007 54.1578H53.1114V56.9981H66.0007C66.1113 56.9981 66.2175 56.9541 66.2957 56.8759C66.374 56.7976 66.418 56.6915 66.418 56.5808V54.5616C66.4145 54.4533 66.369 54.3505 66.2911 54.2752C66.2132 54.1998 66.1091 54.1577 66.0007 54.1578Z" fill="white"/>
<path d="M67.7561 53.828H99.0337C99.4315 53.828 99.7539 54.1504 99.7539 54.5482V56.6212C99.7539 57.019 99.4315 57.3414 99.0337 57.3414H67.7561C67.3584 57.3414 67.036 57.019 67.036 56.6212V54.5482C67.036 54.1504 67.3584 53.828 67.7561 53.828Z" fill="#FFAC00"/>
<path opacity="0.2" d="M67.7561 53.828H99.0337C99.4315 53.828 99.7539 54.1504 99.7539 54.5482V56.6212C99.7539 57.019 99.4315 57.3414 99.0337 57.3414H67.7561C67.3584 57.3414 67.036 57.019 67.036 56.6212V54.5482C67.036 54.1504 67.3584 53.828 67.7561 53.828Z" fill="black"/>
<path opacity="0.5" d="M95.1034 53.828H96.0794C96.1574 53.828 96.2207 53.8913 96.2207 53.9693V57.2001C96.2207 57.2781 96.1574 57.3414 96.0794 57.3414H95.1034C95.0253 57.3414 94.9621 57.2781 94.9621 57.2001V53.9693C94.9621 53.8913 95.0253 53.828 95.1034 53.828Z" fill="#FFAC00"/>
<path opacity="0.5" d="M69.7154 53.828H70.6712C70.7492 53.828 70.8125 53.8913 70.8125 53.9693V57.2001C70.8125 57.2781 70.7492 57.3414 70.6712 57.3414H69.7154C69.6373 57.3414 69.5741 57.2781 69.5741 57.2001V53.9693C69.5741 53.8913 69.6373 53.828 69.7154 53.828Z" fill="#FFAC00"/>
<path d="M89.463 48.753C89.9812 48.753 90.4053 49.002 90.4053 49.3049V53.2693C90.4053 53.5789 89.9812 53.8279 89.463 53.8279H56.395C56.2268 53.8279 56.0854 53.7471 56.0854 53.6462V48.9347C56.0854 48.8337 56.2268 48.753 56.395 48.753H89.463Z" fill="#FFAC00"/>
<path opacity="0.9" d="M71.5182 49.0828H56.0847V53.4914H71.5182C71.6289 53.4914 71.7351 53.4475 71.8133 53.3692C71.8916 53.2909 71.9355 53.1848 71.9355 53.0741V49.5001C71.9355 49.3894 71.8916 49.2833 71.8133 49.205C71.7351 49.1268 71.6289 49.0828 71.5182 49.0828Z" fill="white"/>
<path d="M73.2829 48.753H99.6538C100.052 48.753 100.374 49.0754 100.374 49.4732V53.1077C100.374 53.5055 100.052 53.8279 99.6538 53.8279H73.2829C72.8852 53.8279 72.5628 53.5055 72.5628 53.1077V49.4732C72.5628 49.0754 72.8852 48.753 73.2829 48.753Z" fill="#FFAC00"/>
<path opacity="0.1" d="M73.2829 48.753H99.6538C100.052 48.753 100.374 49.0754 100.374 49.4732V53.1077C100.374 53.5055 100.052 53.8279 99.6538 53.8279H73.2829C72.8852 53.8279 72.5628 53.5055 72.5628 53.1077V49.4732C72.5628 49.0754 72.8852 48.753 73.2829 48.753Z" fill="black"/>
<path d="M15.7078 69.5037H43.4854C43.6342 69.5037 43.777 69.5624 43.8828 69.6669C43.9887 69.7715 44.049 69.9136 44.0508 70.0624C44.049 70.2112 43.9887 70.3532 43.8828 70.4578C43.777 70.5624 43.6342 70.621 43.4854 70.621H15.7078C15.5596 70.621 15.4175 70.5622 15.3128 70.4574C15.208 70.3526 15.1491 70.2105 15.1491 70.0624C15.1491 69.9142 15.208 69.7721 15.3128 69.6673C15.4175 69.5626 15.5596 69.5037 15.7078 69.5037Z" fill="white"/>
<path d="M38.9144 68.1711H20.6608L19.0117 70.5605H40.5635L38.9144 68.1711Z" fill="#263238"/>
<path d="M10.7282 27.3898C10.7282 27.8756 10.8723 28.3506 11.1422 28.7546C11.4122 29.1586 11.7958 29.4735 12.2447 29.6595C12.6936 29.8454 13.1876 29.894 13.6642 29.7993C14.1407 29.7045 14.5785 29.4705 14.922 29.1269C15.2656 28.7833 15.4996 28.3456 15.5944 27.869C15.6892 27.3925 15.6405 26.8985 15.4546 26.4496C15.2686 26.0007 14.9538 25.617 14.5498 25.3471C14.1457 25.0771 13.6708 24.933 13.1849 24.933C12.862 24.9322 12.5422 24.9951 12.2437 25.1182C11.9452 25.2414 11.6741 25.4223 11.4458 25.6506C11.2175 25.8789 11.0365 26.1501 10.9134 26.4486C10.7902 26.747 10.7273 27.0669 10.7282 27.3898Z" fill="black"/>
<path d="M29.1844 69.7865C29.3123 69.7861 29.4382 69.7543 29.551 69.6939C29.6638 69.6334 29.76 69.5461 29.8311 69.4398C29.9023 69.3334 29.9462 69.2112 29.959 69.0838C29.9718 68.9565 29.9531 68.828 29.9045 68.7096L12.3172 27.0869C12.2265 26.9131 12.0736 26.7798 11.8891 26.7134C11.7045 26.6471 11.5018 26.6527 11.3212 26.729C11.1405 26.8053 10.9953 26.9468 10.9142 27.1254C10.8331 27.3039 10.8222 27.5064 10.8836 27.6927L28.4709 69.3086C28.5301 69.4493 28.6292 69.5695 28.756 69.6545C28.8828 69.7394 29.0317 69.7853 29.1844 69.7865Z" fill="#263238"/>
<path d="M11.6013 28.1772C11.7684 28.1753 11.9308 28.1212 12.0657 28.0224L44.0029 4.06783C44.1671 3.94466 44.2757 3.7613 44.3047 3.55808C44.3337 3.35486 44.2809 3.14843 44.1577 2.9842C44.0345 2.81997 43.8511 2.71139 43.6479 2.68236C43.4447 2.65333 43.2383 2.70622 43.074 2.82939L11.1301 26.7705C11.0011 26.8696 10.9062 27.0066 10.8588 27.1623C10.8114 27.3179 10.8138 27.4845 10.8657 27.6388C10.9176 27.793 11.0164 27.9272 11.1483 28.0225C11.2802 28.1178 11.4385 28.1696 11.6013 28.1705V28.1772Z" fill="#263238"/>
<path d="M9.14516 27.3898C9.14516 27.8756 9.28925 28.3506 9.5592 28.7546C9.82914 29.1586 10.2128 29.4735 10.6617 29.6595C11.1107 29.8454 11.6046 29.894 12.0812 29.7993C12.5577 29.7045 12.9955 29.4705 13.339 29.1269C13.6826 28.7833 13.9166 28.3456 14.0114 27.869C14.1062 27.3925 14.0575 26.8985 13.8716 26.4496C13.6856 26.0007 13.3708 25.617 12.9668 25.3471C12.5628 25.0771 12.0878 24.933 11.6019 24.933C11.279 24.9322 10.9591 24.9951 10.6607 25.1182C10.3622 25.2414 10.091 25.4223 9.86274 25.6506C9.63444 25.8789 9.45352 26.1501 9.33038 26.4486C9.20723 26.747 9.14428 27.0669 9.14516 27.3898Z" fill="#263238"/>
<path d="M43.5383 5.89862C42.1852 5.89862 41.0883 4.80173 41.0883 3.44865C41.0883 2.09556 42.1852 0.998672 43.5383 0.998672C44.8914 0.998672 45.9883 2.09556 45.9883 3.44865C45.9883 4.80173 44.8914 5.89862 43.5383 5.89862Z" fill="#263238"/>
<path d="M47.336 14.6486C48.1042 15.4167 49.0828 15.9398 50.1482 16.1517C51.2136 16.3636 52.3179 16.2548 53.3215 15.8391C54.325 15.4235 55.1828 14.7195 55.7863 13.8163C56.3898 12.9131 56.7119 11.8512 56.7119 10.765C56.7119 9.67871 56.3898 8.61683 55.7863 7.71364C55.1828 6.81044 54.325 6.10649 53.3215 5.69079C52.3179 5.27509 51.2136 5.16633 50.1482 5.37825C49.0828 5.59016 48.1042 6.11325 47.336 6.88136C46.3077 7.91223 45.7302 9.30888 45.7302 10.765C45.7302 12.2211 46.3077 13.6177 47.336 14.6486Z" fill="#FFAC00"/>
<path opacity="0.7" d="M47.336 14.6486C48.1042 15.4167 49.0828 15.9398 50.1482 16.1517C51.2136 16.3636 52.3179 16.2548 53.3215 15.8391C54.325 15.4235 55.1828 14.7195 55.7863 13.8163C56.3898 12.9131 56.7119 11.8512 56.7119 10.765C56.7119 9.67871 56.3898 8.61683 55.7863 7.71364C55.1828 6.81044 54.325 6.10649 53.3215 5.69079C52.3179 5.27509 51.2136 5.16633 50.1482 5.37825C49.0828 5.59016 48.1042 6.11325 47.336 6.88136C46.3077 7.91223 45.7302 9.30888 45.7302 10.765C45.7302 12.2211 46.3077 13.6177 47.336 14.6486Z" fill="white"/>
<path d="M43.5394 3.4486C44.6315 2.35534 45.9283 1.48805 47.3558 0.896315C48.7832 0.304577 50.3133 0 51.8586 0C53.4038 0 54.9339 0.304577 56.3614 0.896315C57.7889 1.48805 59.0857 2.35534 60.1777 3.4486L43.5394 20.1004C42.445 19.0076 41.5767 17.7098 40.9842 16.2812C40.3918 14.8525 40.0869 13.3211 40.0869 11.7745C40.0869 10.2279 40.3918 8.69646 40.9842 7.26782C41.5767 5.83918 42.445 4.54135 43.5394 3.4486Z" fill="#263238"/>
<g opacity="0.2">
<path opacity="0.2" d="M60.1853 3.44868L130.063 70.6211H58.3748L43.5403 20.0937L60.1853 3.44868Z" fill="#FFAC00"/>
<path opacity="0.7" d="M60.1853 3.44868L130.063 70.6211H58.3748L43.5403 20.0937L60.1853 3.44868Z" fill="white"/>
</g>
</svg>
