<svg width="82" height="98" viewBox="0 0 82 98" fill="none" xmlns="http://www.w3.org/2000/svg">
<path d="M3.31145 46.1641L79.4437 45.6121L81.5643 97.3718L2.73047 96.6424L3.31145 46.1641Z" fill="#835CC7"/>
<path d="M3.30664 46.1641L39.3409 17.0081C40.0813 16.4097 41.0053 16.0849 41.9572 16.0885C42.9091 16.092 43.8307 16.4236 44.5666 17.0274L79.4421 45.6121" fill="#835CC7"/>
<g opacity="0.3">
<path opacity="0.3" d="M3.30664 46.1641L39.3409 17.0081C40.0813 16.4097 41.0053 16.0849 41.9572 16.0885C42.9091 16.092 43.8307 16.4236 44.5666 17.0274L79.4421 45.6121" fill="black"/>
</g>
<path d="M2.72958 96.6424C2.63598 96.552 8.72991 89.8964 16.3441 81.7787C23.9583 73.661 30.2039 67.1507 30.3008 67.2378C30.3976 67.325 24.3004 73.9805 16.6862 82.1015C9.07205 90.2224 2.82641 96.7295 2.72958 96.6424Z" fill="#263238"/>
<path d="M81.5627 97.3718C81.4659 97.459 75.5301 90.939 68.3065 82.8116C61.0828 74.6842 55.3052 68.0222 55.3956 67.935C55.486 67.8479 61.4282 74.3679 68.6518 82.4985C75.8755 90.6291 81.666 97.2847 81.5627 97.3718Z" fill="#263238"/>
<g opacity="0.5">
<path opacity="0.5" d="M79.4428 45.6121L41.2104 76.1528L3.31055 46.1641" fill="black"/>
</g>
<path d="M7.14158 48.9915L7.02539 25.2162L73.6875 24.4254L74.4395 49.4434L41.2069 75.7526L7.14158 48.9915Z" fill="#FAFAFA"/>
<path d="M7.14134 48.9915C7.14134 48.9915 7.35759 49.1529 7.76751 49.4725L9.57504 50.8797L16.4662 56.2604L41.2583 75.6977H41.1744L74.3973 49.3789L74.3651 49.4466C74.223 44.6761 74.0713 39.6667 73.9164 34.5733C73.8163 31.1422 73.7131 27.7531 73.613 24.4286L73.6969 24.5093L7.03482 25.2678L7.08647 25.2161C7.11229 32.6948 7.13489 38.637 7.1478 42.7104C7.1478 44.7471 7.1478 46.3158 7.1478 47.3777V48.5816C7.1478 48.8527 7.1478 48.9915 7.1478 48.9915C7.1478 48.9915 7.1478 48.856 7.1478 48.5881C7.1478 48.3202 7.1478 47.9167 7.1478 47.3906C7.1478 46.3287 7.1252 44.7632 7.10907 42.7298C7.08324 38.6499 7.04451 32.7045 6.99609 25.2161V25.1613H7.04774L73.7131 24.3447H73.7938V24.4286C73.8938 27.7499 73.9939 31.139 74.0972 34.5701C74.2521 39.6666 74.4006 44.6728 74.5458 49.4466V49.4886L74.5135 49.5144L41.268 75.8107L41.2261 75.8429L41.1841 75.8107L16.4081 56.3088L9.5589 50.9023L7.75138 49.4821C7.34469 49.1594 7.14134 48.9915 7.14134 48.9915Z" fill="#263238"/>
<path d="M63.1532 36.4002C63.1532 36.4454 52.9568 36.5454 40.3849 36.6197C27.8129 36.6939 17.6133 36.723 17.6133 36.6746C17.6133 36.6261 27.8064 36.5293 40.3849 36.4518C52.9633 36.3744 63.1532 36.3518 63.1532 36.4002Z" fill="#263238"/>
<path d="M63.1532 43.1139C63.1532 43.1623 52.9568 43.2623 40.3849 43.3366C27.8129 43.4108 17.6133 43.4366 17.6133 43.3914C17.6133 43.3463 27.8064 43.2462 40.3849 43.1687C52.9633 43.0913 63.1532 43.0687 63.1532 43.1139Z" fill="#263238"/>
<path d="M63.1532 50.8572C63.1532 50.9023 52.9568 51.0024 40.3849 51.0799C27.8129 51.1573 17.6133 51.1799 17.6133 51.1315C17.6133 51.0831 27.8064 50.9863 40.3849 50.912C52.9633 50.8378 63.1532 50.8087 63.1532 50.8572Z" fill="#263238"/>
<path d="M63.1534 58.5972C63.1534 58.6456 53.4283 58.7392 41.4309 58.8135C29.4334 58.8877 19.7083 58.9071 19.7051 58.8619C19.7019 58.8167 29.4302 58.7199 41.4309 58.6456C53.4315 58.5714 63.1534 58.552 63.1534 58.5972Z" fill="#263238"/>
<path d="M54.6251 65.3916C54.5377 65.4064 54.4491 65.4129 54.3604 65.4109L53.5922 65.4335L50.7777 65.4787L41.4851 65.6111C37.8571 65.6724 34.5681 65.6918 32.1892 65.695H29.3747H28.6065C28.518 65.6966 28.4295 65.6912 28.3418 65.6788C28.4292 65.664 28.5178 65.6576 28.6065 65.6595L29.3747 65.6401L32.1892 65.5917L41.4818 65.4594C45.1098 65.398 48.3988 65.3787 50.7744 65.3754H53.5922H54.3604C54.4489 65.3752 54.5373 65.3806 54.6251 65.3916Z" fill="#263238"/>
<path d="M46.0425 71.9245C46.0425 71.9697 43.8703 72.0084 41.201 72.0084C38.5316 72.0084 36.3594 71.9697 36.3594 71.9245C36.3594 71.8793 38.5349 71.8406 41.201 71.8406C43.8671 71.8406 46.0425 71.8761 46.0425 71.9245Z" fill="#263238"/>
<path d="M68.4809 66.6504C72.9285 66.6504 76.5341 63.0449 76.5341 58.5972C76.5341 54.1496 72.9285 50.5441 68.4809 50.5441C64.0333 50.5441 60.4277 54.1496 60.4277 58.5972C60.4277 63.0449 64.0333 66.6504 68.4809 66.6504Z" fill="#263238"/>
<path d="M66.3871 66.6504C70.8348 66.6504 74.4403 63.0449 74.4403 58.5972C74.4403 54.1496 70.8348 50.5441 66.3871 50.5441C61.9395 50.5441 58.334 54.1496 58.334 58.5972C58.334 63.0449 61.9395 66.6504 66.3871 66.6504Z" fill="#455A64"/>
<path d="M67.409 54.8498V61.5441H66.1728V55.8795H64.7559V54.8369L67.409 54.8498Z" fill="#EBEBEB"/>
<path d="M7.66602 14.3549H15.0317L14.0343 13.2123V10.4719C14.0343 9.7597 13.7514 9.07665 13.2478 8.57302C12.7441 8.0694 12.0611 7.78647 11.3488 7.78647C10.9963 7.78647 10.6473 7.85595 10.3216 7.99095C9.99601 8.12595 9.70018 8.32381 9.45107 8.57322C9.20196 8.82263 9.00446 9.1187 8.86985 9.44449C8.73525 9.77029 8.66618 10.1194 8.6666 10.4719V13.0767L7.66602 14.3549Z" fill="#835CC7"/>
<path d="M10.3359 13.9934C10.3441 14.1537 10.3861 14.3106 10.4593 14.4535C10.5325 14.5964 10.6351 14.7222 10.7605 14.8226C10.8858 14.923 11.031 14.9956 11.1865 15.0358C11.3419 15.076 11.5041 15.0827 11.6624 15.0556C11.8207 15.0285 11.9714 14.9681 12.1047 14.8785C12.2379 14.7889 12.3507 14.6721 12.4355 14.5357C12.5202 14.3994 12.5752 14.2466 12.5966 14.0875C12.6181 13.9283 12.6055 13.7664 12.5598 13.6125" fill="#835CC7"/>
<path d="M11.7582 6.66968H11.0352V8.20607H11.7582V6.66968Z" fill="#835CC7"/>
<path d="M22.0873 9.31641C22.0654 9.25319 22.0481 9.18847 22.0356 9.12274C22.0034 8.98395 21.9614 8.79997 21.9065 8.55466C21.8392 8.24592 21.7518 7.94188 21.6451 7.64445C21.5805 7.47015 21.5353 7.27326 21.4482 7.07637L21.1738 6.45019C20.6773 5.39241 20.0184 4.41878 19.2211 3.56461C18.1738 2.46062 16.9058 1.5896 15.4995 1.00826C14.6986 0.671143 13.8597 0.432693 13.0013 0.298158C12.0753 0.163216 11.1359 0.148028 10.206 0.252971C9.71682 0.304434 9.23158 0.388542 8.75357 0.504732C8.5115 0.556376 8.27586 0.64998 8.03056 0.724217C7.78421 0.792567 7.54357 0.879978 7.31078 0.985662C6.32187 1.38559 5.4016 1.93775 4.58336 2.62212C2.76741 4.11944 1.48733 6.16643 0.936037 8.45461C0.645767 9.68051 0.57474 10.9481 0.726237 12.1988C0.859145 13.4925 1.23474 14.7496 1.83334 15.9042L2.02055 16.256L2.04314 16.3012V16.3496C1.44601 18.2862 0.865023 20.2229 0.296945 22.0724L0.145241 21.9336L4.75766 19.5289L4.81253 19.4999L4.86417 19.5386C6.79252 21.0256 9.16927 21.8127 11.604 21.7704C14.0388 21.7282 16.3868 20.8592 18.2624 19.3062C19.2241 18.5022 20.0436 17.5419 20.6865 16.4658C21.2004 15.5671 21.5963 14.606 21.8646 13.606C22.0456 12.8467 22.1536 12.0717 22.1873 11.2918C22.1873 10.969 22.1873 10.6914 22.1873 10.4429C22.1873 10.1943 22.1486 9.99746 22.1357 9.82639C22.1228 9.65532 22.1099 9.54235 22.1034 9.44874C22.0984 9.40586 22.0984 9.36252 22.1034 9.31963C22.1148 9.3608 22.1224 9.40294 22.126 9.44551C22.126 9.54019 22.1422 9.66608 22.1744 9.82316C22.1938 9.99423 22.2164 10.1976 22.2454 10.4429C22.2745 10.6882 22.2454 10.9755 22.2454 11.295C22.2274 12.0817 22.1301 12.8647 21.9549 13.6319C21.6973 14.6471 21.3065 15.6239 20.793 16.5368C20.15 17.6364 19.3249 18.6187 18.3528 19.4418C17.1626 20.4353 15.7744 21.1639 14.2806 21.5791C12.7869 21.9943 11.2218 22.0865 9.68961 21.8496C7.88622 21.5632 6.18183 20.8347 4.72861 19.729H4.83835L0.232396 22.1401L0 22.2628L0.0774621 22.0013L1.82043 16.2786V16.3722L1.62999 16.0139C1.01939 14.8339 0.636166 13.5495 0.500293 12.2278C0.34232 10.9479 0.416671 9.65 0.719775 8.39651C1.28439 6.06357 2.59298 3.97777 4.4478 2.45428C5.28506 1.76156 6.22475 1.20297 7.23332 0.798454C7.47024 0.691172 7.71522 0.602676 7.96601 0.533781C8.21454 0.462771 8.45339 0.369167 8.70193 0.317524C9.18691 0.198182 9.67989 0.114043 10.177 0.0657622C11.1223 -0.0383165 12.0771 -0.0187856 13.0174 0.123861C13.8871 0.268049 14.7365 0.515088 15.5479 0.859781C16.9694 1.4583 18.2478 2.35161 19.2985 3.48069C20.0961 4.35062 20.7498 5.34214 21.2352 6.41791C21.3288 6.64386 21.4191 6.85366 21.4998 7.06346C21.5805 7.27326 21.6289 7.4637 21.6903 7.64122C21.7949 7.94104 21.8759 8.24862 21.9324 8.56112C21.9775 8.8032 22.0163 8.99363 22.0421 9.13565C22.0611 9.19485 22.0762 9.25523 22.0873 9.31641Z" fill="#263238"/>
</svg>
