<svg width="16" height="16" viewBox="0 0 16 16" fill="none" xmlns="http://www.w3.org/2000/svg">
<path d="M10.6673 1.33337H5.33399C4.80356 1.33337 4.29485 1.54409 3.91978 1.91916C3.5447 2.29423 3.33399 2.80294 3.33399 3.33337V14C3.33352 14.1175 3.36411 14.233 3.42264 14.3349C3.48118 14.4367 3.56559 14.5213 3.66732 14.58C3.76867 14.6386 3.88363 14.6694 4.00066 14.6694C4.11768 14.6694 4.23264 14.6386 4.33399 14.58L8.00066 12.46L11.6673 14.58C11.7689 14.6376 11.8839 14.6675 12.0007 14.6667C12.1174 14.6675 12.2324 14.6376 12.334 14.58C12.4357 14.5213 12.5201 14.4367 12.5787 14.3349C12.6372 14.233 12.6678 14.1175 12.6673 14V3.33337C12.6673 2.80294 12.4566 2.29423 12.0815 1.91916C11.7065 1.54409 11.1978 1.33337 10.6673 1.33337ZM11.334 12.8467L8.33399 11.1134C8.23264 11.0549 8.11768 11.0241 8.00066 11.0241C7.88363 11.0241 7.76867 11.0549 7.66732 11.1134L4.66732 12.8467V3.33337C4.66732 3.15656 4.73756 2.98699 4.86259 2.86197C4.98761 2.73695 5.15718 2.66671 5.33399 2.66671H10.6673C10.8441 2.66671 11.0137 2.73695 11.1387 2.86197C11.2638 2.98699 11.334 3.15656 11.334 3.33337V12.8467Z" fill="black"/>
</svg>
