<svg width="18" height="18" viewBox="0 0 18 18" fill="none" xmlns="http://www.w3.org/2000/svg">
<path d="M16.5 5.86489C16.5036 5.81746 16.5036 5.76982 16.5 5.72239L15 1.97239C14.9414 1.82415 14.8371 1.69844 14.7023 1.61348C14.5674 1.52852 14.409 1.48873 14.25 1.49989H3.75C3.59979 1.49974 3.453 1.5447 3.32864 1.62895C3.20428 1.71319 3.10808 1.83284 3.0525 1.97239L1.5525 5.72239C1.54888 5.76982 1.54888 5.81746 1.5525 5.86489C1.52758 5.90664 1.50983 5.95227 1.5 5.99989C1.50835 6.51832 1.65092 7.02574 1.91381 7.47265C2.1767 7.91956 2.55093 8.29071 3 8.54989V15.7499C3 15.9488 3.07902 16.1396 3.21967 16.2802C3.36032 16.4209 3.55109 16.4999 3.75 16.4999H14.25C14.4489 16.4999 14.6397 16.4209 14.7803 16.2802C14.921 16.1396 15 15.9488 15 15.7499V8.57989C15.4534 8.31812 15.8304 7.94226 16.0936 7.48964C16.3567 7.03703 16.4968 6.52343 16.5 5.99989C16.507 5.95516 16.507 5.90961 16.5 5.86489ZM9.75 14.9999H8.25V11.9999H9.75V14.9999ZM13.5 14.9999H11.25V11.2499C11.25 11.051 11.171 10.8602 11.0303 10.7196C10.8897 10.5789 10.6989 10.4999 10.5 10.4999H7.5C7.30109 10.4999 7.11032 10.5789 6.96967 10.7196C6.82902 10.8602 6.75 11.051 6.75 11.2499V14.9999H4.5V8.99989C4.9271 8.99748 5.34876 8.9039 5.73679 8.72541C6.12481 8.54692 6.47025 8.28763 6.75 7.96489C7.03153 8.28411 7.37775 8.53977 7.76569 8.71489C8.15362 8.89001 8.57437 8.98058 9 8.98058C9.42563 8.98058 9.84638 8.89001 10.2343 8.71489C10.6222 8.53977 10.9685 8.28411 11.25 7.96489C11.5297 8.28763 11.8752 8.54692 12.2632 8.72541C12.6512 8.9039 13.0729 8.99748 13.5 8.99989V14.9999ZM13.5 7.49989C13.1022 7.49989 12.7206 7.34185 12.4393 7.06055C12.158 6.77924 12 6.39771 12 5.99989C12 5.80098 11.921 5.61021 11.7803 5.46956C11.6397 5.32891 11.4489 5.24989 11.25 5.24989C11.0511 5.24989 10.8603 5.32891 10.7197 5.46956C10.579 5.61021 10.5 5.80098 10.5 5.99989C10.5 6.39771 10.342 6.77924 10.0607 7.06055C9.77936 7.34185 9.39782 7.49989 9 7.49989C8.60218 7.49989 8.22064 7.34185 7.93934 7.06055C7.65804 6.77924 7.5 6.39771 7.5 5.99989C7.5 5.80098 7.42098 5.61021 7.28033 5.46956C7.13968 5.32891 6.94891 5.24989 6.75 5.24989C6.55109 5.24989 6.36032 5.32891 6.21967 5.46956C6.07902 5.61021 6 5.80098 6 5.99989C6.00739 6.19687 5.9759 6.39338 5.90735 6.57819C5.83879 6.76301 5.7345 6.93251 5.60043 7.07702C5.46637 7.22153 5.30515 7.33822 5.12599 7.42043C4.94683 7.50264 4.75323 7.54875 4.55625 7.55614C4.15843 7.57106 3.77097 7.42733 3.47911 7.15657C3.3346 7.02251 3.21791 6.86129 3.13571 6.68213C3.0535 6.50297 3.00739 6.30937 3 6.11239L4.26 2.99989H13.74L15 6.11239C14.9716 6.4904 14.8011 6.84363 14.5228 7.10104C14.2445 7.35845 13.8791 7.50096 13.5 7.49989Z" fill="white"/>
</svg>
