<svg width="16" height="16" viewBox="0 0 16 16" fill="none" xmlns="http://www.w3.org/2000/svg">
<path d="M9.87399 8.18671C10.296 7.73354 10.5337 7.13922 10.5407 6.52004C10.5407 5.8517 10.2752 5.21072 9.80256 4.73813C9.32997 4.26554 8.689 4.00004 8.02065 4.00004C7.35231 4.00004 6.71133 4.26554 6.23874 4.73813C5.76615 5.21072 5.50065 5.8517 5.50065 6.52004C5.50761 7.13922 5.74533 7.73354 6.16732 8.18671C5.57975 8.47929 5.07413 8.91333 4.69593 9.4498C4.31772 9.98627 4.0788 10.6083 4.00065 11.26C3.9812 11.4369 4.03279 11.6141 4.14406 11.7529C4.25533 11.8917 4.41717 11.9806 4.59398 12C4.7708 12.0195 4.94809 11.9679 5.08687 11.8566C5.22564 11.7454 5.31454 11.5835 5.33398 11.4067C5.41354 10.7608 5.72655 10.1663 6.21404 9.73514C6.70154 9.30401 7.32986 9.06603 7.98065 9.06603C8.63144 9.06603 9.25977 9.30401 9.74726 9.73514C10.2348 10.1663 10.5478 10.7608 10.6273 11.4067C10.6459 11.5777 10.7297 11.7348 10.8614 11.8454C10.9931 11.956 11.1624 12.0114 11.334 12H11.4073C11.5821 11.9799 11.7418 11.8916 11.8517 11.7542C11.9616 11.6168 12.0127 11.4416 11.994 11.2667C11.9216 10.6184 11.6902 9.99806 11.3204 9.46074C10.9505 8.92341 10.4537 8.48577 9.87399 8.18671ZM8.00065 7.70671C7.76595 7.70671 7.53652 7.63711 7.34137 7.50672C7.14623 7.37633 6.99413 7.19099 6.90431 6.97416C6.8145 6.75732 6.791 6.51872 6.83679 6.28853C6.88257 6.05834 6.99559 5.8469 7.16155 5.68094C7.32751 5.51498 7.53895 5.40196 7.76914 5.35618C7.99933 5.31039 8.23793 5.33389 8.45477 5.4237C8.6716 5.51352 8.85694 5.66562 8.98733 5.86076C9.11772 6.05591 9.18732 6.28534 9.18732 6.52004C9.18732 6.83476 9.06229 7.1366 8.83975 7.35914C8.61721 7.58168 8.31537 7.70671 8.00065 7.70671ZM12.6673 1.33337H3.33398C2.80355 1.33337 2.29484 1.54409 1.91977 1.91916C1.5447 2.29423 1.33398 2.80294 1.33398 3.33337V12.6667C1.33398 13.1971 1.5447 13.7058 1.91977 14.0809C2.29484 14.456 2.80355 14.6667 3.33398 14.6667H12.6673C13.1978 14.6667 13.7065 14.456 14.0815 14.0809C14.4566 13.7058 14.6673 13.1971 14.6673 12.6667V3.33337C14.6673 2.80294 14.4566 2.29423 14.0815 1.91916C13.7065 1.54409 13.1978 1.33337 12.6673 1.33337ZM13.334 12.6667C13.334 12.8435 13.2637 13.0131 13.1387 13.1381C13.0137 13.2631 12.8441 13.3334 12.6673 13.3334H3.33398C3.15717 13.3334 2.9876 13.2631 2.86258 13.1381C2.73756 13.0131 2.66732 12.8435 2.66732 12.6667V3.33337C2.66732 3.15656 2.73756 2.98699 2.86258 2.86197C2.9876 2.73695 3.15717 2.66671 3.33398 2.66671H12.6673C12.8441 2.66671 13.0137 2.73695 13.1387 2.86197C13.2637 2.98699 13.334 3.15656 13.334 3.33337V12.6667Z" fill="black"/>
</svg>
