<svg id="color" xmlns="http://www.w3.org/2000/svg" viewBox="0 0 512 512"><title>Artboard 1</title><path d="M384,426.67H85.33c-40.25,0-64-35.95-64-58.67V64a64.08,64.08,0,0,1,64-64h256a64.07,64.07,0,0,1,64,64V405.33A21.34,21.34,0,0,1,384,426.67Zm-320-64A21.37,21.37,0,0,0,85.33,384H362.67V341.33H85.33A21.37,21.37,0,0,0,64,362.67Z" fill="#cfd8dc"/><path d="M250.71,508l-37.38-33.24L176,508c-10.26,9.17-26.63,1.81-26.63-11.95V341.33h128V496C277.33,509.87,260.89,517,250.71,508Z" fill="#8fa8b0"/><path d="M453.33,234.67H314.67a37.38,37.38,0,0,1-37.34-37.34v-160A37.38,37.38,0,0,1,314.67,0H453.33a37.38,37.38,0,0,1,37.34,37.33v160A37.38,37.38,0,0,1,453.33,234.67Z" fill="#4ec8ed"/><path d="M341.33,154.67V80a16,16,0,0,1,25.18-13.1l53.33,37.33a16,16,0,0,1,0,26.22l-53.33,37.34A16,16,0,0,1,341.33,154.67Z" fill="#fff"/><path d="M213.33,0h-128a64.08,64.08,0,0,0-64,64V368c0,22.72,23.73,58.67,64,58.67h64V384h-64a21.34,21.34,0,0,1,0-42.67h128Z" fill="#b4bcc0"/><path d="M213.33,341.33h-64V496a16,16,0,0,0,16.13,16,15.66,15.66,0,0,0,10.5-4l37.37-33.24Z" fill="#7d8f97"/><path d="M490.67,117.33h-64a15.85,15.85,0,0,1-6.81,13.1l-53.33,37.34a15.87,15.87,0,0,1-9.11,2.9,16,16,0,0,1-16.09-16V117.33h-64v80a37.38,37.38,0,0,0,37.34,37.34H453.33a37.38,37.38,0,0,0,37.34-37.34Z" opacity="0.13" style="isolation:isolate"/><path d="M426.67,117.33H341.33v37.34a16,16,0,0,0,16.09,16,15.76,15.76,0,0,0,9.09-2.9l53.33-37.34A15.89,15.89,0,0,0,426.67,117.33Z" opacity="0.13" style="isolation:isolate"/></svg>