<svg width="31" height="31" viewBox="0 0 31 31" fill="none" xmlns="http://www.w3.org/2000/svg">
<ellipse cx="15.4661" cy="15.0145" rx="15.0135" ry="14.9974" fill="white" fill-opacity="0.2"/>
<path d="M12.5349 13.8657V11.6661C12.5349 10.9369 12.8437 10.2375 13.3934 9.72193C13.9431 9.2063 14.6886 8.91663 15.4659 8.91663C16.2433 8.91663 16.9888 9.2063 17.5385 9.72193C18.0882 10.2375 18.397 10.9369 18.397 11.6661V13.8657" stroke="#E6E7F2" stroke-width="1.5" stroke-linecap="round" stroke-linejoin="round"/>
<path fill-rule="evenodd" clip-rule="evenodd" d="M10.2499 18.322H19.6137C20.3525 18.322 20.9514 18.9958 20.9514 19.8269V25.0941C20.9514 25.9252 20.3525 26.599 19.6137 26.599H10.2499C9.51113 26.599 8.91223 25.9252 8.91223 25.0941V19.8269C8.91223 18.9958 9.51113 18.322 10.2499 18.322ZM14.8526 21.5978C14.4196 21.5978 14.0686 21.9488 14.0686 22.3818V23.2777C14.0686 23.7107 14.4196 24.0617 14.8526 24.0617C15.2856 24.0617 15.6366 23.7107 15.6366 23.2777V22.3818C15.6366 21.9488 15.2856 21.5978 14.8526 21.5978Z" fill="#E6E7F2"/>
</svg>
