<svg width="414" height="896" viewBox="0 0 414 896" fill="none" xmlns="http://www.w3.org/2000/svg">
<g clip-path="url(#clip0)">
<rect width="414" height="896" fill="#03174C"/>
<path d="M343.736 367.925C295.737 354.425 302.736 394.925 312.736 394.925C316.844 394.925 325.361 395.925 335.737 395.925H367.237C407.236 395.925 418.736 393.259 419.237 392.425C422.737 365.925 401.57 368.425 390.237 371.425C392.07 361.592 390.137 341.725 367.736 340.925C345.335 340.125 342.402 358.592 343.736 367.925Z" fill="#1F265E"/>
<path d="M9.77998 274.052C-8.98769 268.774 -6.25091 284.609 -2.34099 284.609C-0.734614 284.609 2.59522 285 6.6523 285H18.9688C34.6085 285 39.105 283.957 39.3007 283.632C40.6692 273.27 32.3931 274.248 27.9618 275.421C28.6786 271.576 27.9226 263.808 19.164 263.495C10.4053 263.182 9.25855 270.403 9.77998 274.052Z" fill="#1F265E"/>
<path d="M218.891 100.715C182.403 90.4525 187.723 121.24 195.325 121.24C198.448 121.24 204.922 122 212.81 122H236.756C267.163 122 275.906 119.973 276.286 119.34C278.947 99.1947 262.856 101.095 254.241 103.376C255.634 95.9005 254.164 80.7981 237.136 80.19C220.107 79.5818 217.877 93.62 218.891 100.715Z" fill="#1F265E"/>
<path d="M371.089 62.0831C343.326 54.2745 347.375 77.7001 353.159 77.7001C355.535 77.7001 360.461 78.2785 366.463 78.2785H384.683C407.819 78.2785 414.47 76.7361 414.76 76.2541C416.784 60.9263 404.541 62.3723 397.986 64.1075C399.046 58.4198 397.928 46.9288 384.971 46.466C372.015 46.0033 370.318 56.6846 371.089 62.0831Z" fill="#1F265E"/>
<path d="M7.75573 83.5027C-13.2717 77.6144 -10.2054 95.2791 -5.8247 95.2791C-4.0249 95.2791 -0.294134 95.7153 4.25144 95.7153H18.0509C35.5738 95.7153 40.6117 94.5522 40.831 94.1887C42.3643 82.6303 33.0916 83.7208 28.1267 85.0292C28.9299 80.7403 28.0828 72.0752 18.2696 71.7263C8.45638 71.3773 7.17151 79.4318 7.75573 83.5027Z" fill="#1F265E"/>
<path d="M50.2686 74.3882C50.2686 74.3882 46.888 67.9581 41.4713 71.2863C41.4713 71.2863 45.2632 66.0098 42.0135 62.1132C42.0135 62.1132 45.7961 66.4903 50.7846 64.7084C50.7846 64.7084 46.8618 67.4514 50.2686 74.3882Z" fill="#6D75B0"/>
<path d="M25.8308 49.3357C25.8308 49.3357 29.235 46.0572 26.173 43.2767C26.173 43.2767 30.1575 44.6886 32.0025 41.9515C32.0025 41.9515 29.9539 45.1087 31.9721 47.9022C31.9721 47.9022 29.5468 45.9489 25.8308 49.3357Z" fill="white"/>
<g filter="url(#filter0_f)">
<circle cx="128.845" cy="64.1764" r="25.37" fill="#D3D4DE"/>
<circle cx="120.083" cy="52.472" r="4.65732" fill="#C5C6D0"/>
<circle cx="139.313" cy="63.9621" r="6.75236" fill="#F1F1F3"/>
<path fill-rule="evenodd" clip-rule="evenodd" d="M147.674 81.1791C144.674 84.4994 140.809 87.0224 136.433 88.3921C136.054 87.5487 135.844 86.6136 135.844 85.6292C135.844 81.9 138.867 78.8768 142.596 78.8768C144.62 78.8768 146.437 79.7678 147.674 81.1791Z" fill="#C5C6D0"/>
<circle cx="123.102" cy="80.1706" r="3.01873" fill="#C5C6D0"/>
</g>
<circle cx="131.569" cy="62.389" r="25.37" fill="#D3D4DE"/>
<circle cx="122.808" cy="50.6846" r="4.65732" fill="#C5C6D0"/>
<circle cx="142.038" cy="62.1748" r="6.75236" fill="#F1F1F3"/>
<path fill-rule="evenodd" clip-rule="evenodd" d="M150.399 79.3918C147.399 82.712 143.533 85.235 139.157 86.6047C138.779 85.7614 138.568 84.8262 138.568 83.8418C138.568 80.1126 141.591 77.0895 145.32 77.0895C147.345 77.0895 149.161 77.9805 150.399 79.3918Z" fill="#C5C6D0"/>
<circle cx="125.826" cy="78.3833" r="3.01873" fill="#C5C6D0"/>
<circle cx="148.79" cy="53.0135" r="25.37" fill="#03174C"/>
<path d="M313.623 42.2272C313.623 42.2272 314.995 49.3611 321.144 47.7456C321.144 47.7456 315.985 51.6967 317.966 56.3679C317.966 56.3679 315.614 51.0824 310.324 51.342C310.324 51.342 314.873 49.8537 313.623 42.2272Z" fill="#6D75B0"/>
<path d="M305.262 90.206C305.262 90.206 301.054 92.3572 303.179 95.9058C303.179 95.9058 299.775 93.3997 297.215 95.4846C297.215 95.4846 300.091 93.0566 298.969 89.7981C298.969 89.7981 300.724 92.3704 305.262 90.206Z" fill="white"/>
<g filter="url(#filter1_f)">
<path d="M305.262 90.206C305.262 90.206 301.054 92.3572 303.179 95.9058C303.179 95.9058 299.775 93.3997 297.215 95.4847C297.215 95.4847 300.091 93.0566 298.969 89.7981C298.969 89.7981 300.724 92.3705 305.262 90.206Z" fill="white"/>
</g>
<path d="M357.238 111.452C357.238 111.452 353.03 113.603 355.155 117.152C355.155 117.152 351.751 114.646 349.192 116.73C349.192 116.73 352.067 114.302 350.945 111.044C350.945 111.044 352.7 113.616 357.238 111.452Z" fill="#6D75B0"/>
<path opacity="0.3" d="M277.812 -45.99C366.622 44.87 435.572 155.04 478.472 274.63C480.632 280.64 482.752 286.96 481.872 293.28C480.992 299.6 476.112 305.85 469.722 306.03C464.112 306.18 459.492 301.9 455.552 297.9C443.572 285.74 431.582 273.59 419.602 261.43C410.782 252.49 398.182 242.82 387.002 248.54C379.652 252.31 376.692 261.7 377.892 269.87C379.092 278.04 383.542 285.31 387.822 292.37C387.822 292.37 524.042 563.09 542.732 662.28C526.852 560.48 495.172 465.7 450.042 373.08C446.422 365.66 441.962 353.71 441.512 345.46C441.062 337.21 444.862 328.12 452.522 325.04C464.172 320.35 475.852 331.13 483.812 340.84C494.642 354.04 505.472 367.23 516.302 380.43C519.862 384.77 524.072 389.46 529.672 389.81C536.042 390.22 541.472 384.44 542.922 378.22C544.372 372 542.832 365.52 541.232 359.34C509.382 236.34 426.782 69.32 324.782 -36.68L277.812 -45.99Z" fill="#554872"/>
<path opacity="0.3" d="M-62.3976 417.86C26.4124 508.72 95.3624 618.89 138.262 738.48C140.422 744.49 142.542 750.81 141.662 757.13C140.782 763.45 135.902 769.7 129.512 769.88C123.902 770.03 119.282 765.75 115.342 761.75C103.362 749.59 91.3724 737.44 79.3924 725.28C70.5724 716.34 57.9724 706.67 46.7924 712.39C39.4424 716.16 36.4824 725.55 37.6824 733.72C38.8824 741.89 43.3324 749.16 47.6124 756.22C47.6124 756.22 183.832 1026.94 202.522 1126.13C186.642 1024.33 154.962 929.55 109.832 836.93C106.212 829.51 101.752 817.56 101.302 809.31C100.852 801.06 104.652 791.97 112.312 788.89C123.962 784.2 135.642 794.98 143.602 804.69C154.432 817.89 165.262 831.08 176.092 844.28C179.652 848.62 183.862 853.31 189.462 853.66C195.832 854.07 201.262 848.29 202.712 842.07C204.162 835.85 202.622 829.37 201.022 823.19C169.172 700.19 86.5724 533.17 -15.4276 427.17L-62.3976 417.86Z" fill="#554872"/>
<path opacity="0.3" d="M-42.8878 298.08C-8.92777 299.09 -39.1077 508.08 -28.9677 475.66C-0.967724 386.16 84.2522 399.4 143.032 460.66C178.532 497.66 237.992 601.54 267.042 635.17C273.932 643.15 282.212 651.16 292.692 652.39C305.882 653.94 318.182 643.7 323.422 631.49C332.482 610.39 329.062 581.94 326.462 559.81C322.482 525.85 313.282 492.73 303.582 460.03C288.952 410.76 269.112 363.08 245.432 317.5C245.212 317.08 245.002 316.67 244.782 316.26C215.162 259.48 178.682 206.26 136.182 158.35C119.732 139.81 100.862 123.56 80.1523 109.95C176.312 207.48 252.562 346.55 293.532 499.14C296.692 510.92 299.692 523.06 299.772 535.12C299.852 547.18 296.512 559.33 289.302 564.75C281.112 570.91 268.532 568.66 261.252 558.71C254.222 549.1 246.192 538.55 239.752 527.05C207.452 469.33 171.682 415.16 133.062 365.46C115.612 343 97.3823 321.26 76.8923 305.29C56.4023 289.33 33.3123 279.4 11.5223 282.31L-42.8878 298.08Z" fill="#554872"/>
<path opacity="0.3" d="M44.1223 -84C45.7623 -84.03 159.532 86.28 230.432 258.31C188.792 186 126.122 89.33 -8.39762 -20.2C-8.28762 -20.11 8.13237 -38.88 9.64236 -40.59C15.0124 -46.66 40.5323 -83.93 44.1223 -84Z" fill="#554872"/>
<path opacity="0.4" d="M351.472 316.17C351.472 317.137 352.256 317.92 353.222 317.92C354.189 317.92 354.972 317.137 354.972 316.17C354.972 315.204 354.189 314.42 353.222 314.42C352.256 314.42 351.472 315.204 351.472 316.17Z" fill="white"/>
<path opacity="0.4" d="M85.0425 325.42C85.0425 326.386 85.826 327.17 86.7925 327.17C87.759 327.17 88.5425 326.386 88.5425 325.42C88.5425 324.453 87.759 323.67 86.7925 323.67C85.826 323.67 85.0425 324.453 85.0425 325.42Z" fill="white"/>
<path opacity="0.4" d="M122.782 494.05C122.782 495.016 123.566 495.8 124.532 495.8C125.499 495.8 126.282 495.016 126.282 494.05C126.282 493.083 125.499 492.3 124.532 492.3C123.566 492.3 122.782 493.083 122.782 494.05Z" fill="white"/>
<path opacity="0.4" d="M69.9624 559.85C69.9624 560.816 70.7459 561.6 71.7124 561.6C72.6789 561.6 73.4624 560.816 73.4624 559.85C73.4624 558.883 72.6789 558.1 71.7124 558.1C70.7459 558.1 69.9624 558.883 69.9624 559.85Z" fill="white"/>
<path opacity="0.4" d="M403.682 550.55C403.682 551.516 404.466 552.3 405.432 552.3C406.399 552.3 407.182 551.516 407.182 550.55C407.182 549.583 406.399 548.8 405.432 548.8C404.466 548.8 403.682 549.583 403.682 550.55Z" fill="white"/>
<path opacity="0.4" d="M177.352 663.7C177.352 664.666 178.136 665.45 179.102 665.45C180.069 665.45 180.852 664.666 180.852 663.7C180.852 662.733 180.069 661.95 179.102 661.95C178.136 661.95 177.352 662.733 177.352 663.7Z" fill="white"/>
<path opacity="0.4" d="M198.292 442.67C198.292 443.636 199.076 444.42 200.042 444.42C201.009 444.42 201.792 443.636 201.792 442.67C201.792 441.703 201.009 440.92 200.042 440.92C199.076 440.92 198.292 441.703 198.292 442.67Z" fill="white"/>
<path opacity="0.4" d="M187.042 359.33C187.042 360.296 187.826 361.08 188.792 361.08C189.759 361.08 190.542 360.296 190.542 359.33C190.542 358.363 189.759 357.58 188.792 357.58C187.826 357.58 187.042 358.363 187.042 359.33Z" fill="white"/>
<path opacity="0.4" d="M77.2925 158.67C77.2925 159.636 78.076 160.42 79.0425 160.42C80.009 160.42 80.7925 159.636 80.7925 158.67C80.7925 157.703 80.009 156.92 79.0425 156.92C78.076 156.92 77.2925 157.703 77.2925 158.67Z" fill="white"/>
<path opacity="0.4" d="M381.892 257.33C381.892 258.296 382.676 259.08 383.642 259.08C384.609 259.08 385.392 258.296 385.392 257.33C385.392 256.363 384.609 255.58 383.642 255.58C382.676 255.58 381.892 256.363 381.892 257.33Z" fill="white"/>
<path opacity="0.4" d="M281.042 126.67C281.042 127.636 281.826 128.42 282.792 128.42C283.759 128.42 284.542 127.636 284.542 126.67C284.542 125.703 283.759 124.92 282.792 124.92C281.826 124.92 281.042 125.703 281.042 126.67Z" fill="white"/>
<path opacity="0.4" d="M214.042 137.92C214.042 138.886 214.826 139.67 215.792 139.67C216.759 139.67 217.542 138.886 217.542 137.92C217.542 136.953 216.759 136.17 215.792 136.17C214.826 136.17 214.042 136.953 214.042 137.92Z" fill="white"/>
<path opacity="0.7" d="M347.852 377.6L348.973 383.61L350.092 377.6L352.322 379.14L350.792 376.9L356.802 375.78L350.792 374.67L352.322 372.43L350.092 373.96L348.973 367.96L347.852 373.96L345.613 372.43L347.152 374.67L341.143 375.78L347.152 376.9L345.613 379.14L347.852 377.6Z" fill="#E1D1FF"/>
<path opacity="0.7" d="M197.302 691.65L198.412 697.65L199.532 691.65L201.772 693.18L200.232 690.94L206.242 689.83L200.232 688.71L201.772 686.47L199.532 688.01L198.412 682L197.302 688.01L195.062 686.47L196.592 688.71L190.592 689.83L196.592 690.94L195.062 693.18L197.302 691.65Z" fill="#E1D1FF"/>
<path opacity="0.7" d="M207.042 552.1L208.162 558.1L209.282 552.1L211.522 553.63L209.982 551.39L215.992 550.28L209.982 549.16L211.522 546.92L209.282 548.46L208.162 542.45L207.042 548.46L204.812 546.92L206.342 549.16L200.332 550.28L206.342 551.39L204.812 553.63L207.042 552.1Z" fill="#E1D1FF"/>
<path opacity="0.7" d="M332.992 667.71L334.112 673.72L335.232 667.71L337.462 669.24L335.932 667.01L341.942 665.89L335.932 664.77L337.462 662.53L335.232 664.07L334.112 658.06L332.992 664.07L330.752 662.53L332.292 664.77L326.282 665.89L332.292 667.01L330.752 669.24L332.992 667.71Z" fill="#E1D1FF"/>
<path opacity="0.7" d="M158.272 236.94L159.382 242.95L160.502 236.94L162.742 238.47L161.202 236.24L167.212 235.12L161.202 234L162.742 231.76L160.502 233.3L159.382 227.29L158.272 233.3L156.032 231.76L157.562 234L151.552 235.12L157.562 236.24L156.032 238.47L158.272 236.94Z" fill="#E1D1FF"/>
<path opacity="0.7" d="M113.792 284.67L114.912 290.68L116.022 284.67L118.262 286.2L116.732 283.96L122.732 282.85L116.732 281.73L118.262 279.49L116.022 281.03L114.912 275.02L113.792 281.03L111.552 279.49L113.092 281.73L107.082 282.85L113.092 283.96L111.552 286.2L113.792 284.67Z" fill="#E1D1FF"/>
<path opacity="0.7" d="M384.692 186.66L385.812 192.67L386.932 186.66L389.172 188.2L387.632 185.96L393.642 184.84L387.632 183.72L389.172 181.49L386.932 183.02L385.812 177.01L384.692 183.02L382.462 181.49L383.992 183.72L377.982 184.84L383.992 185.96L382.462 188.2L384.692 186.66Z" fill="#E1D1FF"/>
<path opacity="0.7" d="M379.882 52.67L381.002 58.68L382.122 52.67L384.362 54.2L382.822 51.96L388.832 50.85L382.822 49.73L384.362 47.49L382.122 49.03L381.002 43.02L379.882 49.03L377.652 47.49L379.182 49.73L373.172 50.85L379.182 51.96L377.652 54.2L379.882 52.67Z" fill="#E1D1FF"/>
<path opacity="0.7" d="M74.3025 37.68L75.4225 43.69L76.5424 37.68L78.7824 39.21L77.2425 36.98L83.2524 35.86L77.2425 34.74L78.7824 32.5L76.5424 34.04L75.4225 28.03L74.3025 34.04L72.0724 32.5L73.6024 34.74L67.5924 35.86L73.6024 36.98L72.0724 39.21L74.3025 37.68Z" fill="#E1D1FF"/>
</g>
<defs>
<filter id="filter0_f" x="89.4749" y="24.8063" width="78.74" height="78.74" filterUnits="userSpaceOnUse" color-interpolation-filters="sRGB">
<feFlood flood-opacity="0" result="BackgroundImageFix"/>
<feBlend mode="normal" in="SourceGraphic" in2="BackgroundImageFix" result="shape"/>
<feGaussianBlur stdDeviation="7" result="effect1_foregroundBlur"/>
</filter>
<filter id="filter1_f" x="293.216" y="85.7982" width="16.0469" height="14.1077" filterUnits="userSpaceOnUse" color-interpolation-filters="sRGB">
<feFlood flood-opacity="0" result="BackgroundImageFix"/>
<feBlend mode="normal" in="SourceGraphic" in2="BackgroundImageFix" result="shape"/>
<feGaussianBlur stdDeviation="2" result="effect1_foregroundBlur"/>
</filter>
<clipPath id="clip0">
<rect width="414" height="896" fill="white"/>
</clipPath>
</defs>
</svg>
